M48
; DRILL file {KiCad 9.0.4} date 2025-10-25T11:36:46+0800
; FORMAT={-:-/ absolute / metric / decimal}
; #@! TF.CreationDate,2025-10-25T11:36:46+08:00
; #@! TF.GenerationSoftware,Kicad,Pcbnew,9.0.4
; #@! TF.FileFunction,MixedPlating,1,2
FMAT,2
METRIC
; #@! TA.AperFunction,Plated,PTH,ViaDrill
T1C0.300
; #@! TA.AperFunction,Plated,PTH,ComponentDrill
T2C0.800
; #@! TA.AperFunction,Plated,PTH,ComponentDrill
T3C0.900
; #@! TA.AperFunction,Plated,PTH,ComponentDrill
T4C1.000
; #@! TA.AperFunction,Plated,PTH,ComponentDrill
T5C1.520
; #@! TA.AperFunction,Plated,PTH,ComponentDrill
T6C1.700
; #@! TA.AperFunction,Plated,PTH,ComponentDrill
T7C2.000
; #@! TA.AperFunction,Plated,PTH,ComponentDrill
T8C2.500
; #@! TA.AperFunction,Plated,PTH,ComponentDrill
T9C3.000
; #@! TA.AperFunction,NonPlated,NPTH,ComponentDrill
T10C0.850
; #@! TA.AperFunction,NonPlated,NPTH,ComponentDrill
T11C5.000
%
G90
G05
T1
X-18.45Y-38.2
X-18.2Y-54.25
X-16.3Y-59.25
X-12.1Y-29.65
X-9.7Y-27.3
X-7.15Y-85.1
X-6.35Y-54.85
X-4.7Y-48.25
X-4.1Y-49.25
X-3.5Y-44.75
X-3.5Y-45.65
X-3.5Y-46.55
X1.35Y-45.55
X1.35Y-46.45
X2.2Y-19.5
X3.65Y-50.25
X4.55Y-53.6
X4.85Y-110.9
X5.5Y-5.1
X6.15Y-49.75
X7.55Y-56.5
X7.55Y-57.452
X8.1Y-62.2
X8.4Y-56.0
X9.05Y-38.25
X9.4Y-56.0
X9.7Y-59.15
X9.95Y-38.25
X10.85Y-38.25
X11.6Y-58.3
X11.975Y-91.675
X12.0Y-63.85
X15.0Y-36.5
X20.8Y-2.05
X20.8Y-21.1
X21.55Y-6.649
X21.55Y-19.5
X21.55Y-25.7
X26.7Y-93.3
X30.05Y-40.1
X30.05Y-59.15
X30.8Y-44.75
X30.8Y-63.85
X35.5Y-93.2
X37.7Y-36.5
X39.65Y-79.075
X40.4Y-82.025
X42.45Y-97.35
X43.15Y-101.925
X57.31Y-36.99
X76.36Y-36.99
X78.15Y-97.175
X93.65Y-97.175
X95.41Y-36.99
X114.46Y-36.99
X133.51Y-36.99
X152.56Y-36.99
X154.15Y-97.175
X170.15Y-97.55
X175.385Y-56.0
X194.435Y-56.0
X213.485Y-56.0
X231.4Y-93.45
X232.535Y-56.0
X240.575Y-94.175
X245.75Y-74.25
X250.125Y-56.0
X254.45Y-75.45
X255.3Y-93.5
X263.05Y-56.0
X264.05Y-93.05
X269.6Y-74.25
X278.4Y-74.251
X280.16Y-56.0
T2
X-19.35Y-36.65
X-17.35Y-36.65
X-16.35Y-107.15
X-15.35Y-36.65
X-14.35Y-107.15
X-13.35Y-36.65
X-12.85Y-25.65
X-12.35Y-107.15
X-11.35Y-36.65
X-10.85Y-25.65
X-10.35Y-107.15
X-9.35Y-36.65
X-8.85Y-25.65
X-8.35Y-107.15
X-7.35Y-36.65
X-6.85Y-25.65
X-6.35Y-107.15
X-4.85Y-25.65
T3
X-20.6Y-23.0
X-20.6Y-25.5
X-20.6Y-28.0
X-18.95Y-64.24
X-18.95Y-66.78
X-18.95Y-69.32
X-18.95Y-71.86
X-18.95Y-74.4
X-18.95Y-76.94
X-18.95Y-79.48
X-18.95Y-82.02
X-18.95Y-84.56
X-18.95Y-87.1
X-18.95Y-89.64
X-18.95Y-92.18
X-18.95Y-94.72
X-18.95Y-97.26
X-18.95Y-99.8
X-18.95Y-102.34
X-18.95Y-104.88
X-18.95Y-107.42
X-18.95Y-109.96
X-18.95Y-112.5
X-17.3Y-23.0
X-17.3Y-25.5
X-17.3Y-28.0
X-15.15Y-68.0
X-12.65Y-68.0
X-10.15Y-68.0
X-7.55Y-68.0
X-3.75Y-64.24
X-3.75Y-66.78
X-3.75Y-69.32
X-3.75Y-71.86
X-3.75Y-74.4
X-3.75Y-76.94
X-3.75Y-79.48
X-3.75Y-82.02
X-3.75Y-84.56
X-3.75Y-87.1
X-3.75Y-89.64
X-3.75Y-92.18
X-3.75Y-94.72
X-3.75Y-97.26
X-3.75Y-99.8
X-3.75Y-102.34
X-3.75Y-104.88
X-3.75Y-107.42
X-3.75Y-109.96
X-3.75Y-112.5
T4
X-13.85Y-2.65
X-13.85Y-17.15
X-11.35Y-17.15
X-8.85Y-2.65
X-8.85Y-17.15
X14.65Y-4.5
X14.65Y-23.55
X17.031Y-99.75
X19.412Y-42.6
X19.412Y-61.65
X24.175Y-80.7
X33.7Y-4.5
X33.7Y-23.55
X40.844Y-99.75
X43.225Y-42.6
X43.225Y-61.65
X52.75Y-4.5
X52.75Y-23.55
X52.75Y-80.7
X62.275Y-42.6
X62.275Y-61.65
X64.656Y-99.75
X71.8Y-4.5
X71.8Y-23.55
X71.8Y-80.7
X81.325Y-42.6
X81.325Y-61.65
X90.85Y-4.5
X90.85Y-23.55
X90.85Y-80.7
X100.375Y-42.6
X100.375Y-61.65
X109.9Y-4.5
X109.9Y-23.55
X109.9Y-80.7
X119.425Y-42.6
X119.425Y-61.65
X128.95Y-4.5
X128.95Y-23.55
X128.95Y-80.7
X128.95Y-99.75
X138.475Y-42.6
X138.475Y-61.65
X148.0Y-4.5
X148.0Y-23.55
X148.0Y-80.7
X157.525Y-42.6
X157.525Y-61.65
X167.05Y-4.5
X167.05Y-23.55
X167.05Y-80.7
X176.575Y-42.6
X176.575Y-61.65
X186.1Y-4.5
X186.1Y-23.55
X186.1Y-80.7
X193.244Y-99.75
X195.625Y-42.6
X195.625Y-61.65
X205.15Y-4.5
X205.15Y-23.55
X205.15Y-80.7
X214.675Y-42.6
X214.675Y-61.65
X217.056Y-99.75
X224.2Y-4.5
X224.2Y-23.55
X224.2Y-80.7
X233.725Y-42.6
X233.725Y-61.65
X240.869Y-99.75
X243.25Y-4.5
X243.25Y-23.55
X252.775Y-42.6
X252.775Y-80.7
X262.3Y-4.5
X262.3Y-99.75
X267.062Y-61.65
X271.825Y-23.55
X276.587Y-42.6
X281.35Y-4.5
X281.35Y-80.7
X281.35Y-99.75
X300.4Y-4.5
X300.4Y-23.55
X300.4Y-42.6
X300.4Y-61.65
X300.4Y-80.7
X300.4Y-99.75
T5
X4.65Y-13.45
X4.65Y-32.5
X7.031Y-108.7
X7.11Y-14.73
X7.11Y-33.78
X9.412Y-51.55
X9.412Y-70.6
X9.491Y-109.98
X9.65Y-15.55
X9.65Y-34.6
X11.872Y-52.83
X11.872Y-71.88
X12.031Y-110.8
X13.46Y-12.19
X13.46Y-31.24
X14.175Y-89.65
X14.412Y-53.65
X14.412Y-72.7
X15.841Y-107.44
X16.635Y-90.93
X18.223Y-50.29
X18.223Y-69.34
X19.175Y-91.75
X22.985Y-88.39
X23.7Y-13.45
X23.7Y-32.5
X26.16Y-14.73
X26.16Y-33.78
X28.7Y-15.55
X28.7Y-34.6
X30.844Y-108.7
X32.51Y-12.19
X32.51Y-31.24
X33.225Y-51.55
X33.225Y-70.6
X33.304Y-109.98
X35.685Y-52.83
X35.685Y-71.88
X35.844Y-110.8
X38.225Y-53.65
X38.225Y-72.7
X39.654Y-107.44
X42.035Y-50.29
X42.035Y-69.34
X42.75Y-13.45
X42.75Y-32.5
X42.75Y-89.65
X45.21Y-14.73
X45.21Y-33.78
X45.21Y-90.93
X47.75Y-15.55
X47.75Y-34.6
X47.75Y-91.75
X51.56Y-12.19
X51.56Y-31.24
X51.56Y-88.39
X52.275Y-51.55
X52.275Y-70.6
X54.656Y-108.7
X54.735Y-52.83
X54.735Y-71.88
X57.116Y-109.98
X57.275Y-53.65
X57.275Y-72.7
X59.656Y-110.8
X61.085Y-50.29
X61.085Y-69.34
X61.8Y-13.45
X61.8Y-32.5
X61.8Y-89.65
X63.466Y-107.44
X64.26Y-14.73
X64.26Y-33.78
X64.26Y-90.93
X66.8Y-15.55
X66.8Y-34.6
X66.8Y-91.75
X70.61Y-12.19
X70.61Y-31.24
X70.61Y-88.39
X71.325Y-51.55
X71.325Y-70.6
X73.785Y-52.83
X73.785Y-71.88
X76.325Y-53.65
X76.325Y-72.7
X80.135Y-50.29
X80.135Y-69.34
X80.85Y-13.45
X80.85Y-32.5
X80.85Y-89.65
X83.31Y-14.73
X83.31Y-33.78
X83.31Y-90.93
X85.85Y-15.55
X85.85Y-34.6
X85.85Y-91.75
X89.66Y-12.19
X89.66Y-31.24
X89.66Y-88.39
X90.375Y-51.55
X90.375Y-70.6
X92.835Y-52.83
X92.835Y-71.88
X95.375Y-53.65
X95.375Y-72.7
X99.185Y-50.29
X99.185Y-69.34
X99.9Y-13.45
X99.9Y-32.5
X99.9Y-89.65
X102.36Y-14.73
X102.36Y-33.78
X102.36Y-90.93
X104.9Y-15.55
X104.9Y-34.6
X104.9Y-91.75
X108.71Y-12.19
X108.71Y-31.24
X108.71Y-88.39
X109.425Y-51.55
X109.425Y-70.6
X111.885Y-52.83
X111.885Y-71.88
X114.425Y-53.65
X114.425Y-72.7
X118.235Y-50.29
X118.235Y-69.34
X118.95Y-13.45
X118.95Y-32.5
X118.95Y-89.65
X118.95Y-108.7
X121.41Y-14.73
X121.41Y-33.78
X121.41Y-90.93
X121.41Y-109.98
X123.95Y-15.55
X123.95Y-34.6
X123.95Y-91.75
X123.95Y-110.8
X127.76Y-12.19
X127.76Y-31.24
X127.76Y-88.39
X127.76Y-107.44
X128.475Y-51.55
X128.475Y-70.6
X130.935Y-52.83
X130.935Y-71.88
X133.475Y-53.65
X133.475Y-72.7
X137.285Y-50.29
X137.285Y-69.34
X138.0Y-13.45
X138.0Y-32.5
X138.0Y-89.65
X140.46Y-14.73
X140.46Y-33.78
X140.46Y-90.93
X143.0Y-15.55
X143.0Y-34.6
X143.0Y-91.75
X146.81Y-12.19
X146.81Y-31.24
X146.81Y-88.39
X147.525Y-51.55
X147.525Y-70.6
X149.985Y-52.83
X149.985Y-71.88
X152.525Y-53.65
X152.525Y-72.7
X156.335Y-50.29
X156.335Y-69.34
X157.05Y-13.45
X157.05Y-32.5
X157.05Y-89.65
X159.51Y-14.73
X159.51Y-33.78
X159.51Y-90.93
X162.05Y-15.55
X162.05Y-34.6
X162.05Y-91.75
X165.86Y-12.19
X165.86Y-31.24
X165.86Y-88.39
X166.575Y-51.55
X166.575Y-70.6
X169.035Y-52.83
X169.035Y-71.88
X171.575Y-53.65
X171.575Y-72.7
X175.385Y-50.29
X175.385Y-69.34
X176.1Y-13.45
X176.1Y-32.5
X176.1Y-89.65
X178.56Y-14.73
X178.56Y-33.78
X178.56Y-90.93
X181.1Y-15.55
X181.1Y-34.6
X181.1Y-91.75
X183.244Y-108.7
X184.91Y-12.19
X184.91Y-31.24
X184.91Y-88.39
X185.625Y-51.55
X185.625Y-70.6
X185.704Y-109.98
X188.085Y-52.83
X188.085Y-71.88
X188.244Y-110.8
X190.625Y-53.65
X190.625Y-72.7
X192.054Y-107.44
X194.435Y-50.29
X194.435Y-69.34
X195.15Y-13.45
X195.15Y-32.5
X195.15Y-89.65
X197.61Y-14.73
X197.61Y-33.78
X197.61Y-90.93
X200.15Y-15.55
X200.15Y-34.6
X200.15Y-91.75
X203.96Y-12.19
X203.96Y-31.24
X203.96Y-88.39
X204.675Y-51.55
X204.675Y-70.6
X207.056Y-108.7
X207.135Y-52.83
X207.135Y-71.88
X209.516Y-109.98
X209.675Y-53.65
X209.675Y-72.7
X212.056Y-110.8
X213.485Y-50.29
X213.485Y-69.34
X214.2Y-13.45
X214.2Y-32.5
X214.2Y-89.65
X215.866Y-107.44
X216.66Y-14.73
X216.66Y-33.78
X216.66Y-90.93
X219.2Y-15.55
X219.2Y-34.6
X219.2Y-91.75
X223.01Y-12.19
X223.01Y-31.24
X223.01Y-88.39
X223.725Y-51.55
X223.725Y-70.6
X226.185Y-52.83
X226.185Y-71.88
X228.725Y-53.65
X228.725Y-72.7
X230.869Y-108.7
X232.535Y-50.29
X232.535Y-69.34
X233.25Y-13.45
X233.25Y-32.5
X233.329Y-109.98
X235.71Y-14.73
X235.71Y-33.78
X235.869Y-110.8
X238.25Y-15.55
X238.25Y-34.6
X239.679Y-107.44
X242.06Y-12.19
X242.06Y-31.24
X242.775Y-51.55
X242.775Y-89.65
X245.235Y-52.83
X245.235Y-90.93
X247.775Y-53.65
X247.775Y-91.75
X251.585Y-50.29
X251.585Y-88.39
X252.3Y-13.45
X252.3Y-108.7
X254.76Y-14.73
X254.76Y-109.98
X257.062Y-70.6
X257.3Y-15.55
X257.3Y-110.8
X259.522Y-71.88
X261.11Y-12.19
X261.11Y-107.44
X261.825Y-32.5
X262.062Y-72.7
X264.285Y-33.78
X265.873Y-69.34
X266.587Y-51.55
X266.825Y-34.6
X269.048Y-52.83
X270.635Y-31.24
X271.35Y-13.45
X271.35Y-89.65
X271.35Y-108.7
X271.587Y-53.65
X273.81Y-14.73
X273.81Y-90.93
X273.81Y-109.98
X275.397Y-50.29
X276.35Y-15.55
X276.35Y-91.75
X276.35Y-110.8
X280.16Y-12.19
X280.16Y-88.39
X280.16Y-107.44
X290.4Y-13.45
X290.4Y-32.5
X290.4Y-51.55
X290.4Y-70.6
X290.4Y-89.65
X290.4Y-108.7
X292.86Y-14.73
X292.86Y-33.78
X292.86Y-52.83
X292.86Y-71.88
X292.86Y-90.93
X292.86Y-109.98
X295.4Y-15.55
X295.4Y-34.6
X295.4Y-53.65
X295.4Y-72.7
X295.4Y-91.75
X295.4Y-110.8
X299.21Y-12.19
X299.21Y-31.24
X299.21Y-50.29
X299.21Y-69.34
X299.21Y-88.39
X299.21Y-107.44
T8
X-20.0Y-1.85
X-20.0Y-18.5
X-11.35Y-76.5
X-11.35Y-92.0
X-2.7Y-1.85
X-2.7Y-18.5
X19.175Y-9.65
X21.556Y-104.9
X28.7Y-47.75
X28.7Y-66.8
X76.325Y-104.9
X85.85Y-47.75
X85.85Y-66.8
X114.425Y-9.65
X143.0Y-47.75
X143.0Y-66.8
X171.575Y-104.9
X190.625Y-9.65
X200.15Y-47.75
X200.15Y-66.8
X226.344Y-104.9
X243.012Y-66.8
X257.3Y-47.75
X285.875Y-9.65
X285.875Y-104.9
T9
X38.225Y-28.7
X38.225Y-85.85
X114.425Y-28.7
X114.425Y-85.85
X190.625Y-28.7
X190.625Y-85.85
X247.775Y-28.7
X266.825Y-85.85
T10
X-0.425Y-5.65
X-0.425Y-10.65
X-0.425Y-104.65
X-0.425Y-109.65
T11
X9.65Y-9.65
X9.65Y-28.7
X12.031Y-104.9
X14.412Y-47.75
X14.412Y-66.8
X19.175Y-85.85
X28.7Y-9.65
X28.7Y-28.7
X35.844Y-104.9
X38.225Y-47.75
X38.225Y-66.8
X47.75Y-9.65
X47.75Y-28.7
X47.75Y-85.85
X57.275Y-47.75
X57.275Y-66.8
X59.656Y-104.9
X66.8Y-9.65
X66.8Y-28.7
X66.8Y-85.85
X76.325Y-47.75
X76.325Y-66.8
X85.85Y-9.65
X85.85Y-28.7
X85.85Y-85.85
X95.375Y-47.75
X95.375Y-66.8
X104.9Y-9.65
X104.9Y-28.7
X104.9Y-85.85
X114.425Y-47.75
X114.425Y-66.8
X123.95Y-9.65
X123.95Y-28.7
X123.95Y-85.85
X123.95Y-104.9
X133.475Y-47.75
X133.475Y-66.8
X143.0Y-9.65
X143.0Y-28.7
X143.0Y-85.85
X152.525Y-47.75
X152.525Y-66.8
X162.05Y-9.65
X162.05Y-28.7
X162.05Y-85.85
X171.575Y-47.75
X171.575Y-66.8
X181.1Y-9.65
X181.1Y-28.7
X181.1Y-85.85
X188.244Y-104.9
X190.625Y-47.75
X190.625Y-66.8
X200.15Y-9.65
X200.15Y-28.7
X200.15Y-85.85
X209.675Y-47.75
X209.675Y-66.8
X212.056Y-104.9
X219.2Y-9.65
X219.2Y-28.7
X219.2Y-85.85
X228.725Y-47.75
X228.725Y-66.8
X235.869Y-104.9
X238.25Y-9.65
X238.25Y-28.7
X247.775Y-47.75
X247.775Y-85.85
X257.3Y-9.65
X257.3Y-104.9
X262.062Y-66.8
X266.825Y-28.7
X271.587Y-47.75
X276.35Y-9.65
X276.35Y-85.85
X276.35Y-104.9
X295.4Y-9.65
X295.4Y-28.7
X295.4Y-47.75
X295.4Y-66.8
X295.4Y-85.85
X295.4Y-104.9
T6
G00X4.155Y-9.65
M15
G01X4.565Y-9.65
M16
G05
G00X4.155Y-28.7
M15
G01X4.565Y-28.7
M16
G05
G00X6.536Y-104.9
M15
G01X6.946Y-104.9
M16
G05
G00X8.918Y-47.75
M15
G01X9.327Y-47.75
M16
G05
G00X8.918Y-66.8
M15
G01X9.327Y-66.8
M16
G05
G00X13.68Y-85.85
M15
G01X14.09Y-85.85
M16
G05
G00X14.735Y-9.65
M15
G01X15.145Y-9.65
M16
G05
G00X14.735Y-28.7
M15
G01X15.145Y-28.7
M16
G05
G00X17.116Y-104.9
M15
G01X17.526Y-104.9
M16
G05
G00X19.497Y-47.75
M15
G01X19.907Y-47.75
M16
G05
G00X19.497Y-66.8
M15
G01X19.907Y-66.8
M16
G05
G00X23.205Y-9.65
M15
G01X23.615Y-9.65
M16
G05
G00X23.205Y-28.7
M15
G01X23.615Y-28.7
M16
G05
G00X24.26Y-85.85
M15
G01X24.67Y-85.85
M16
G05
G00X30.349Y-104.9
M15
G01X30.759Y-104.9
M16
G05
G00X32.73Y-47.75
M15
G01X33.14Y-47.75
M16
G05
G00X32.73Y-66.8
M15
G01X33.14Y-66.8
M16
G05
G00X33.785Y-9.65
M15
G01X34.195Y-9.65
M16
G05
G00X33.785Y-28.7
M15
G01X34.195Y-28.7
M16
G05
G00X40.929Y-104.9
M15
G01X41.339Y-104.9
M16
G05
G00X42.255Y-9.65
M15
G01X42.665Y-9.65
M16
G05
G00X42.255Y-28.7
M15
G01X42.665Y-28.7
M16
G05
G00X42.255Y-85.85
M15
G01X42.665Y-85.85
M16
G05
G00X43.31Y-47.75
M15
G01X43.72Y-47.75
M16
G05
G00X43.31Y-66.8
M15
G01X43.72Y-66.8
M16
G05
G00X51.78Y-47.75
M15
G01X52.19Y-47.75
M16
G05
G00X51.78Y-66.8
M15
G01X52.19Y-66.8
M16
G05
G00X52.835Y-9.65
M15
G01X53.245Y-9.65
M16
G05
G00X52.835Y-28.7
M15
G01X53.245Y-28.7
M16
G05
G00X52.835Y-85.85
M15
G01X53.245Y-85.85
M16
G05
G00X54.161Y-104.9
M15
G01X54.571Y-104.9
M16
G05
G00X61.305Y-9.65
M15
G01X61.715Y-9.65
M16
G05
G00X61.305Y-28.7
M15
G01X61.715Y-28.7
M16
G05
G00X61.305Y-85.85
M15
G01X61.715Y-85.85
M16
G05
G00X62.36Y-47.75
M15
G01X62.77Y-47.75
M16
G05
G00X62.36Y-66.8
M15
G01X62.77Y-66.8
M16
G05
G00X64.741Y-104.9
M15
G01X65.151Y-104.9
M16
G05
G00X70.83Y-47.75
M15
G01X71.24Y-47.75
M16
G05
G00X70.83Y-66.8
M15
G01X71.24Y-66.8
M16
G05
G00X71.885Y-9.65
M15
G01X72.295Y-9.65
M16
G05
G00X71.885Y-28.7
M15
G01X72.295Y-28.7
M16
G05
G00X71.885Y-85.85
M15
G01X72.295Y-85.85
M16
G05
G00X80.355Y-9.65
M15
G01X80.765Y-9.65
M16
G05
G00X80.355Y-28.7
M15
G01X80.765Y-28.7
M16
G05
G00X80.355Y-85.85
M15
G01X80.765Y-85.85
M16
G05
G00X81.41Y-47.75
M15
G01X81.82Y-47.75
M16
G05
G00X81.41Y-66.8
M15
G01X81.82Y-66.8
M16
G05
G00X89.88Y-47.75
M15
G01X90.29Y-47.75
M16
G05
G00X89.88Y-66.8
M15
G01X90.29Y-66.8
M16
G05
G00X90.935Y-9.65
M15
G01X91.345Y-9.65
M16
G05
G00X90.935Y-28.7
M15
G01X91.345Y-28.7
M16
G05
G00X90.935Y-85.85
M15
G01X91.345Y-85.85
M16
G05
G00X99.405Y-9.65
M15
G01X99.815Y-9.65
M16
G05
G00X99.405Y-28.7
M15
G01X99.815Y-28.7
M16
G05
G00X99.405Y-85.85
M15
G01X99.815Y-85.85
M16
G05
G00X100.46Y-47.75
M15
G01X100.87Y-47.75
M16
G05
G00X100.46Y-66.8
M15
G01X100.87Y-66.8
M16
G05
G00X108.93Y-47.75
M15
G01X109.34Y-47.75
M16
G05
G00X108.93Y-66.8
M15
G01X109.34Y-66.8
M16
G05
G00X109.985Y-9.65
M15
G01X110.395Y-9.65
M16
G05
G00X109.985Y-28.7
M15
G01X110.395Y-28.7
M16
G05
G00X109.985Y-85.85
M15
G01X110.395Y-85.85
M16
G05
G00X118.455Y-9.65
M15
G01X118.865Y-9.65
M16
G05
G00X118.455Y-28.7
M15
G01X118.865Y-28.7
M16
G05
G00X118.455Y-85.85
M15
G01X118.865Y-85.85
M16
G05
G00X118.455Y-104.9
M15
G01X118.865Y-104.9
M16
G05
G00X119.51Y-47.75
M15
G01X119.92Y-47.75
M16
G05
G00X119.51Y-66.8
M15
G01X119.92Y-66.8
M16
G05
G00X127.98Y-47.75
M15
G01X128.39Y-47.75
M16
G05
G00X127.98Y-66.8
M15
G01X128.39Y-66.8
M16
G05
G00X129.035Y-9.65
M15
G01X129.445Y-9.65
M16
G05
G00X129.035Y-28.7
M15
G01X129.445Y-28.7
M16
G05
G00X129.035Y-85.85
M15
G01X129.445Y-85.85
M16
G05
G00X129.035Y-104.9
M15
G01X129.445Y-104.9
M16
G05
G00X137.505Y-9.65
M15
G01X137.915Y-9.65
M16
G05
G00X137.505Y-28.7
M15
G01X137.915Y-28.7
M16
G05
G00X137.505Y-85.85
M15
G01X137.915Y-85.85
M16
G05
G00X138.56Y-47.75
M15
G01X138.97Y-47.75
M16
G05
G00X138.56Y-66.8
M15
G01X138.97Y-66.8
M16
G05
G00X147.03Y-47.75
M15
G01X147.44Y-47.75
M16
G05
G00X147.03Y-66.8
M15
G01X147.44Y-66.8
M16
G05
G00X148.085Y-9.65
M15
G01X148.495Y-9.65
M16
G05
G00X148.085Y-28.7
M15
G01X148.495Y-28.7
M16
G05
G00X148.085Y-85.85
M15
G01X148.495Y-85.85
M16
G05
G00X156.555Y-9.65
M15
G01X156.965Y-9.65
M16
G05
G00X156.555Y-28.7
M15
G01X156.965Y-28.7
M16
G05
G00X156.555Y-85.85
M15
G01X156.965Y-85.85
M16
G05
G00X157.61Y-47.75
M15
G01X158.02Y-47.75
M16
G05
G00X157.61Y-66.8
M15
G01X158.02Y-66.8
M16
G05
G00X166.08Y-47.75
M15
G01X166.49Y-47.75
M16
G05
G00X166.08Y-66.8
M15
G01X166.49Y-66.8
M16
G05
G00X167.135Y-9.65
M15
G01X167.545Y-9.65
M16
G05
G00X167.135Y-28.7
M15
G01X167.545Y-28.7
M16
G05
G00X167.135Y-85.85
M15
G01X167.545Y-85.85
M16
G05
G00X175.605Y-9.65
M15
G01X176.015Y-9.65
M16
G05
G00X175.605Y-28.7
M15
G01X176.015Y-28.7
M16
G05
G00X175.605Y-85.85
M15
G01X176.015Y-85.85
M16
G05
G00X176.66Y-47.75
M15
G01X177.07Y-47.75
M16
G05
G00X176.66Y-66.8
M15
G01X177.07Y-66.8
M16
G05
G00X182.749Y-104.9
M15
G01X183.159Y-104.9
M16
G05
G00X185.13Y-47.75
M15
G01X185.54Y-47.75
M16
G05
G00X185.13Y-66.8
M15
G01X185.54Y-66.8
M16
G05
G00X186.185Y-9.65
M15
G01X186.595Y-9.65
M16
G05
G00X186.185Y-28.7
M15
G01X186.595Y-28.7
M16
G05
G00X186.185Y-85.85
M15
G01X186.595Y-85.85
M16
G05
G00X193.329Y-104.9
M15
G01X193.739Y-104.9
M16
G05
G00X194.655Y-9.65
M15
G01X195.065Y-9.65
M16
G05
G00X194.655Y-28.7
M15
G01X195.065Y-28.7
M16
G05
G00X194.655Y-85.85
M15
G01X195.065Y-85.85
M16
G05
G00X195.71Y-47.75
M15
G01X196.12Y-47.75
M16
G05
G00X195.71Y-66.8
M15
G01X196.12Y-66.8
M16
G05
G00X204.18Y-47.75
M15
G01X204.59Y-47.75
M16
G05
G00X204.18Y-66.8
M15
G01X204.59Y-66.8
M16
G05
G00X205.235Y-9.65
M15
G01X205.645Y-9.65
M16
G05
G00X205.235Y-28.7
M15
G01X205.645Y-28.7
M16
G05
G00X205.235Y-85.85
M15
G01X205.645Y-85.85
M16
G05
G00X206.561Y-104.9
M15
G01X206.971Y-104.9
M16
G05
G00X213.705Y-9.65
M15
G01X214.115Y-9.65
M16
G05
G00X213.705Y-28.7
M15
G01X214.115Y-28.7
M16
G05
G00X213.705Y-85.85
M15
G01X214.115Y-85.85
M16
G05
G00X214.76Y-47.75
M15
G01X215.17Y-47.75
M16
G05
G00X214.76Y-66.8
M15
G01X215.17Y-66.8
M16
G05
G00X217.141Y-104.9
M15
G01X217.551Y-104.9
M16
G05
G00X223.23Y-47.75
M15
G01X223.64Y-47.75
M16
G05
G00X223.23Y-66.8
M15
G01X223.64Y-66.8
M16
G05
G00X224.285Y-9.65
M15
G01X224.695Y-9.65
M16
G05
G00X224.285Y-28.7
M15
G01X224.695Y-28.7
M16
G05
G00X224.285Y-85.85
M15
G01X224.695Y-85.85
M16
G05
G00X230.374Y-104.9
M15
G01X230.784Y-104.9
M16
G05
G00X232.755Y-9.65
M15
G01X233.165Y-9.65
M16
G05
G00X232.755Y-28.7
M15
G01X233.165Y-28.7
M16
G05
G00X233.81Y-47.75
M15
G01X234.22Y-47.75
M16
G05
G00X233.81Y-66.8
M15
G01X234.22Y-66.8
M16
G05
G00X240.954Y-104.9
M15
G01X241.364Y-104.9
M16
G05
G00X242.28Y-47.75
M15
G01X242.69Y-47.75
M16
G05
G00X242.28Y-85.85
M15
G01X242.69Y-85.85
M16
G05
G00X243.335Y-9.65
M15
G01X243.745Y-9.65
M16
G05
G00X243.335Y-28.7
M15
G01X243.745Y-28.7
M16
G05
G00X251.805Y-9.65
M15
G01X252.215Y-9.65
M16
G05
G00X251.805Y-104.9
M15
G01X252.215Y-104.9
M16
G05
G00X252.86Y-47.75
M15
G01X253.27Y-47.75
M16
G05
G00X252.86Y-85.85
M15
G01X253.27Y-85.85
M16
G05
G00X256.567Y-66.8
M15
G01X256.977Y-66.8
M16
G05
G00X261.33Y-28.7
M15
G01X261.74Y-28.7
M16
G05
G00X262.385Y-9.65
M15
G01X262.795Y-9.65
M16
G05
G00X262.385Y-104.9
M15
G01X262.795Y-104.9
M16
G05
G00X266.092Y-47.75
M15
G01X266.502Y-47.75
M16
G05
G00X267.147Y-66.8
M15
G01X267.558Y-66.8
M16
G05
G00X270.855Y-9.65
M15
G01X271.265Y-9.65
M16
G05
G00X270.855Y-85.85
M15
G01X271.265Y-85.85
M16
G05
G00X270.855Y-104.9
M15
G01X271.265Y-104.9
M16
G05
G00X271.91Y-28.7
M15
G01X272.32Y-28.7
M16
G05
G00X276.673Y-47.75
M15
G01X277.082Y-47.75
M16
G05
G00X281.435Y-9.65
M15
G01X281.845Y-9.65
M16
G05
G00X281.435Y-85.85
M15
G01X281.845Y-85.85
M16
G05
G00X281.435Y-104.9
M15
G01X281.845Y-104.9
M16
G05
G00X289.905Y-9.65
M15
G01X290.315Y-9.65
M16
G05
G00X289.905Y-28.7
M15
G01X290.315Y-28.7
M16
G05
G00X289.905Y-47.75
M15
G01X290.315Y-47.75
M16
G05
G00X289.905Y-66.8
M15
G01X290.315Y-66.8
M16
G05
G00X289.905Y-85.85
M15
G01X290.315Y-85.85
M16
G05
G00X289.905Y-104.9
M15
G01X290.315Y-104.9
M16
G05
G00X300.485Y-9.65
M15
G01X300.895Y-9.65
M16
G05
G00X300.485Y-28.7
M15
G01X300.895Y-28.7
M16
G05
G00X300.485Y-47.75
M15
G01X300.895Y-47.75
M16
G05
G00X300.485Y-66.8
M15
G01X300.895Y-66.8
M16
G05
G00X300.485Y-85.85
M15
G01X300.895Y-85.85
M16
G05
G00X300.485Y-104.9
M15
G01X300.895Y-104.9
M16
G05
T7
G00X-16.95Y-9.9
M15
G01X-16.95Y-9.4
M16
G05
G00X-5.75Y-9.9
M15
G01X-5.75Y-9.4
M16
G05
M30
