G04 #@! TF.GenerationSoftware,KiCad,Pcbnew,9.0.4*
G04 #@! TF.CreationDate,2025-10-25T11:36:41+08:00*
G04 #@! TF.ProjectId,Custom Mechanical Keyboard,43757374-6f6d-4204-9d65-6368616e6963,rev?*
G04 #@! TF.SameCoordinates,PX3f778f0PY2d4cae0*
G04 #@! TF.FileFunction,Soldermask,Bot*
G04 #@! TF.FilePolarity,Negative*
%FSLAX46Y46*%
G04 Gerber Fmt 4.6, Leading zero omitted, Abs format (unit mm)*
G04 Created by KiCad (PCBNEW 9.0.4) date 2025-10-25 11:36:41*
%MOMM*%
%LPD*%
G01*
G04 APERTURE LIST*
G04 Aperture macros list*
%AMRoundRect*
0 Rectangle with rounded corners*
0 $1 Rounding radius*
0 $2 $3 $4 $5 $6 $7 $8 $9 X,Y pos of 4 corners*
0 Add a 4 corners polygon primitive as box body*
4,1,4,$2,$3,$4,$5,$6,$7,$8,$9,$2,$3,0*
0 Add four circle primitives for the rounded corners*
1,1,$1+$1,$2,$3*
1,1,$1+$1,$4,$5*
1,1,$1+$1,$6,$7*
1,1,$1+$1,$8,$9*
0 Add four rect primitives between the rounded corners*
20,1,$1+$1,$2,$3,$4,$5,0*
20,1,$1+$1,$4,$5,$6,$7,0*
20,1,$1+$1,$6,$7,$8,$9,0*
20,1,$1+$1,$8,$9,$2,$3,0*%
%AMOutline5P*
0 Free polygon, 5 corners , with rotation*
0 The origin of the aperture is its center*
0 number of corners: always 5*
0 $1 to $10 corner X, Y*
0 $11 Rotation angle, in degrees counterclockwise*
0 create outline with 5 corners*
4,1,5,$1,$2,$3,$4,$5,$6,$7,$8,$9,$10,$1,$2,$11*%
%AMOutline6P*
0 Free polygon, 6 corners , with rotation*
0 The origin of the aperture is its center*
0 number of corners: always 6*
0 $1 to $12 corner X, Y*
0 $13 Rotation angle, in degrees counterclockwise*
0 create outline with 6 corners*
4,1,6,$1,$2,$3,$4,$5,$6,$7,$8,$9,$10,$11,$12,$1,$2,$13*%
%AMOutline7P*
0 Free polygon, 7 corners , with rotation*
0 The origin of the aperture is its center*
0 number of corners: always 7*
0 $1 to $14 corner X, Y*
0 $15 Rotation angle, in degrees counterclockwise*
0 create outline with 7 corners*
4,1,7,$1,$2,$3,$4,$5,$6,$7,$8,$9,$10,$11,$12,$13,$14,$1,$2,$15*%
%AMOutline8P*
0 Free polygon, 8 corners , with rotation*
0 The origin of the aperture is its center*
0 number of corners: always 8*
0 $1 to $16 corner X, Y*
0 $17 Rotation angle, in degrees counterclockwise*
0 create outline with 8 corners*
4,1,8,$1,$2,$3,$4,$5,$6,$7,$8,$9,$10,$11,$12,$13,$14,$15,$16,$1,$2,$17*%
G04 Aperture macros list end*
%ADD10C,5.000000*%
%ADD11C,1.400000*%
%ADD12C,2.300000*%
%ADD13C,3.000000*%
%ADD14RoundRect,0.250000X-0.450000X0.450000X-0.450000X-0.450000X0.450000X-0.450000X0.450000X0.450000X0*%
%ADD15R,2.000000X2.000000*%
%ADD16C,2.000000*%
%ADD17R,2.500000X3.000000*%
%ADD18C,3.500000*%
%ADD19R,1.350000X1.350000*%
%ADD20C,1.350000*%
%ADD21R,1.500000X0.820000*%
%ADD22Outline5P,-0.750000X0.000000X-0.340000X0.410000X0.750000X0.410000X0.750000X-0.410000X-0.750000X-0.410000X0.000000*%
%ADD23R,1.400000X1.200000*%
%ADD24RoundRect,0.250000X0.650000X-0.325000X0.650000X0.325000X-0.650000X0.325000X-0.650000X-0.325000X0*%
%ADD25RoundRect,0.150000X0.512500X0.150000X-0.512500X0.150000X-0.512500X-0.150000X0.512500X-0.150000X0*%
%ADD26RoundRect,0.250000X0.625000X-0.400000X0.625000X0.400000X-0.625000X0.400000X-0.625000X-0.400000X0*%
%ADD27RoundRect,0.250000X-0.625000X0.400000X-0.625000X-0.400000X0.625000X-0.400000X0.625000X0.400000X0*%
%ADD28R,1.700000X1.700000*%
%ADD29C,1.700000*%
%ADD30R,1.500000X1.500000*%
G04 APERTURE END LIST*
D10*
G04 #@! TO.C,SW40*
X171575000Y-47750000D03*
D11*
X176575000Y-42600000D03*
D12*
X171575000Y-53650000D03*
X175385000Y-50290000D03*
X166575000Y-51550000D03*
X169035000Y-52830000D03*
G04 #@! TD*
D10*
G04 #@! TO.C,SW46*
X295400000Y-47750000D03*
D11*
X300400000Y-42600000D03*
D12*
X295400000Y-53650000D03*
X299210000Y-50290000D03*
X290400000Y-51550000D03*
X292860000Y-52830000D03*
G04 #@! TD*
D13*
G04 #@! TO.C,*
X285875000Y-9650000D03*
G04 #@! TD*
D10*
G04 #@! TO.C,SW59*
X262062500Y-66800000D03*
D11*
X267062500Y-61650000D03*
D12*
X262062500Y-72700000D03*
X265872500Y-69340000D03*
X257062500Y-70600000D03*
X259522500Y-71880000D03*
G04 #@! TD*
D10*
G04 #@! TO.C,SW36*
X95375000Y-47750000D03*
D11*
X100375000Y-42600000D03*
D12*
X95375000Y-53650000D03*
X99185000Y-50290000D03*
X90375000Y-51550000D03*
X92835000Y-52830000D03*
G04 #@! TD*
D14*
G04 #@! TO.C,SW85*
X-17300000Y-23000000D03*
D11*
X-17300000Y-25500000D03*
X-17300000Y-28000000D03*
X-20600000Y-28000000D03*
X-20600000Y-25500000D03*
X-20600000Y-23000000D03*
G04 #@! TD*
D15*
G04 #@! TO.C,ROT_SW1*
X-13850000Y-17150000D03*
D16*
X-8850000Y-17150000D03*
X-11350000Y-17150000D03*
D17*
X-16950000Y-9650000D03*
X-5750000Y-9650000D03*
D16*
X-13850000Y-2650000D03*
X-8850000Y-2650000D03*
G04 #@! TD*
D10*
G04 #@! TO.C,SW43*
X228725000Y-47750000D03*
D11*
X233725000Y-42600000D03*
D12*
X228725000Y-53650000D03*
X232535000Y-50290000D03*
X223725000Y-51550000D03*
X226185000Y-52830000D03*
G04 #@! TD*
D10*
G04 #@! TO.C,SW27*
X200150000Y-28700000D03*
D11*
X205150000Y-23550000D03*
D12*
X200150000Y-34600000D03*
X203960000Y-31240000D03*
X195150000Y-32500000D03*
X197610000Y-33780000D03*
G04 #@! TD*
D13*
G04 #@! TO.C,*
X257300000Y-47750000D03*
G04 #@! TD*
D10*
G04 #@! TO.C,SW67*
X143000000Y-85850000D03*
D11*
X148000000Y-80700000D03*
D12*
X143000000Y-91750000D03*
X146810000Y-88390000D03*
X138000000Y-89650000D03*
X140460000Y-90930000D03*
G04 #@! TD*
D10*
G04 #@! TO.C,SW54*
X152525000Y-66800000D03*
D11*
X157525000Y-61650000D03*
D12*
X152525000Y-72700000D03*
X156335000Y-69340000D03*
X147525000Y-70600000D03*
X149985000Y-71880000D03*
G04 #@! TD*
D13*
G04 #@! TO.C,*
X200150000Y-66800000D03*
G04 #@! TD*
D10*
G04 #@! TO.C,SW52*
X114425000Y-66800000D03*
D11*
X119425000Y-61650000D03*
D12*
X114425000Y-72700000D03*
X118235000Y-69340000D03*
X109425000Y-70600000D03*
X111885000Y-71880000D03*
G04 #@! TD*
D10*
G04 #@! TO.C,SW28*
X219200000Y-28700000D03*
D11*
X224200000Y-23550000D03*
D12*
X219200000Y-34600000D03*
X223010000Y-31240000D03*
X214200000Y-32500000D03*
X216660000Y-33780000D03*
G04 #@! TD*
D10*
G04 #@! TO.C,SW35*
X76325000Y-47750000D03*
D11*
X81325000Y-42600000D03*
D12*
X76325000Y-53650000D03*
X80135000Y-50290000D03*
X71325000Y-51550000D03*
X73785000Y-52830000D03*
G04 #@! TD*
D10*
G04 #@! TO.C,SW25*
X162050000Y-28700000D03*
D11*
X167050000Y-23550000D03*
D12*
X162050000Y-34600000D03*
X165860000Y-31240000D03*
X157050000Y-32500000D03*
X159510000Y-33780000D03*
G04 #@! TD*
D10*
G04 #@! TO.C,SW23*
X123950000Y-28700000D03*
D11*
X128950000Y-23550000D03*
D12*
X123950000Y-34600000D03*
X127760000Y-31240000D03*
X118950000Y-32500000D03*
X121410000Y-33780000D03*
G04 #@! TD*
D18*
G04 #@! TO.C,*
X190625000Y-85850000D03*
G04 #@! TD*
D10*
G04 #@! TO.C,SW42*
X209675000Y-47750000D03*
D11*
X214675000Y-42600000D03*
D12*
X209675000Y-53650000D03*
X213485000Y-50290000D03*
X204675000Y-51550000D03*
X207135000Y-52830000D03*
G04 #@! TD*
D10*
G04 #@! TO.C,SW56*
X190625000Y-66800000D03*
D11*
X195625000Y-61650000D03*
D12*
X190625000Y-72700000D03*
X194435000Y-69340000D03*
X185625000Y-70600000D03*
X188085000Y-71880000D03*
G04 #@! TD*
D10*
G04 #@! TO.C,SW79*
X188243750Y-104900000D03*
D11*
X193243750Y-99750000D03*
D12*
X188243750Y-110800000D03*
X192053750Y-107440000D03*
X183243750Y-108700000D03*
X185703750Y-109980000D03*
G04 #@! TD*
D13*
G04 #@! TO.C,*
X171575000Y-104900000D03*
G04 #@! TD*
D10*
G04 #@! TO.C,SW45*
X271587500Y-47750000D03*
D11*
X276587500Y-42600000D03*
D12*
X271587500Y-53650000D03*
X275397500Y-50290000D03*
X266587500Y-51550000D03*
X269047500Y-52830000D03*
G04 #@! TD*
D10*
G04 #@! TO.C,SW64*
X85850000Y-85850000D03*
D11*
X90850000Y-80700000D03*
D12*
X85850000Y-91750000D03*
X89660000Y-88390000D03*
X80850000Y-89650000D03*
X83310000Y-90930000D03*
G04 #@! TD*
D10*
G04 #@! TO.C,SW9*
X162050000Y-9650000D03*
D11*
X167050000Y-4500000D03*
D12*
X162050000Y-15550000D03*
X165860000Y-12190000D03*
X157050000Y-13450000D03*
X159510000Y-14730000D03*
G04 #@! TD*
D10*
G04 #@! TO.C,SW48*
X38225000Y-66800000D03*
D11*
X43225000Y-61650000D03*
D12*
X38225000Y-72700000D03*
X42035000Y-69340000D03*
X33225000Y-70600000D03*
X35685000Y-71880000D03*
G04 #@! TD*
D10*
G04 #@! TO.C,SW19*
X47750000Y-28700000D03*
D11*
X52750000Y-23550000D03*
D12*
X47750000Y-34600000D03*
X51560000Y-31240000D03*
X42750000Y-32500000D03*
X45210000Y-33780000D03*
G04 #@! TD*
D10*
G04 #@! TO.C,SW70*
X200150000Y-85850000D03*
D11*
X205150000Y-80700000D03*
D12*
X200150000Y-91750000D03*
X203960000Y-88390000D03*
X195150000Y-89650000D03*
X197610000Y-90930000D03*
G04 #@! TD*
D10*
G04 #@! TO.C,SW53*
X133475000Y-66800000D03*
D11*
X138475000Y-61650000D03*
D12*
X133475000Y-72700000D03*
X137285000Y-69340000D03*
X128475000Y-70600000D03*
X130935000Y-71880000D03*
G04 #@! TD*
D13*
G04 #@! TO.C,*
X-20000000Y-18500000D03*
G04 #@! TD*
D10*
G04 #@! TO.C,SW73*
X276350000Y-85850000D03*
D11*
X281350000Y-80700000D03*
D12*
X276350000Y-91750000D03*
X280160000Y-88390000D03*
X271350000Y-89650000D03*
X273810000Y-90930000D03*
G04 #@! TD*
D10*
G04 #@! TO.C,SW76*
X35843750Y-104900000D03*
D11*
X40843750Y-99750000D03*
D12*
X35843750Y-110800000D03*
X39653750Y-107440000D03*
X30843750Y-108700000D03*
X33303750Y-109980000D03*
G04 #@! TD*
D13*
G04 #@! TO.C,*
X85850000Y-47750000D03*
G04 #@! TD*
G04 #@! TO.C,*
X143000000Y-66800000D03*
G04 #@! TD*
G04 #@! TO.C,*
X-20000000Y-1850000D03*
G04 #@! TD*
D10*
G04 #@! TO.C,SW21*
X85850000Y-28700000D03*
D11*
X90850000Y-23550000D03*
D12*
X85850000Y-34600000D03*
X89660000Y-31240000D03*
X80850000Y-32500000D03*
X83310000Y-33780000D03*
G04 #@! TD*
D10*
G04 #@! TO.C,SW37*
X114425000Y-47750000D03*
D11*
X119425000Y-42600000D03*
D12*
X114425000Y-53650000D03*
X118235000Y-50290000D03*
X109425000Y-51550000D03*
X111885000Y-52830000D03*
G04 #@! TD*
D10*
G04 #@! TO.C,SW34*
X57275000Y-47750000D03*
D11*
X62275000Y-42600000D03*
D12*
X57275000Y-53650000D03*
X61085000Y-50290000D03*
X52275000Y-51550000D03*
X54735000Y-52830000D03*
G04 #@! TD*
D10*
G04 #@! TO.C,SW1*
X9650000Y-9650000D03*
D11*
X14650000Y-4500000D03*
D12*
X9650000Y-15550000D03*
X13460000Y-12190000D03*
X4650000Y-13450000D03*
X7110000Y-14730000D03*
G04 #@! TD*
D10*
G04 #@! TO.C,SW72*
X247775000Y-85850000D03*
D11*
X252775000Y-80700000D03*
D12*
X247775000Y-91750000D03*
X251585000Y-88390000D03*
X242775000Y-89650000D03*
X245235000Y-90930000D03*
G04 #@! TD*
D13*
G04 #@! TO.C,*
X76325000Y-104900000D03*
G04 #@! TD*
D18*
G04 #@! TO.C,*
X38225000Y-28700000D03*
G04 #@! TD*
D19*
G04 #@! TO.C,J5*
X-19350000Y-36650000D03*
D20*
X-17350000Y-36650000D03*
X-15350000Y-36650000D03*
X-13350000Y-36650000D03*
X-11350000Y-36650000D03*
X-9350000Y-36650000D03*
X-7350000Y-36650000D03*
G04 #@! TD*
D10*
G04 #@! TO.C,SW16*
X295400000Y-9650000D03*
D11*
X300400000Y-4500000D03*
D12*
X295400000Y-15550000D03*
X299210000Y-12190000D03*
X290400000Y-13450000D03*
X292860000Y-14730000D03*
G04 #@! TD*
D10*
G04 #@! TO.C,SW51*
X95375000Y-66800000D03*
D11*
X100375000Y-61650000D03*
D12*
X95375000Y-72700000D03*
X99185000Y-69340000D03*
X90375000Y-70600000D03*
X92835000Y-71880000D03*
G04 #@! TD*
D13*
G04 #@! TO.C,*
X114425000Y-9650000D03*
G04 #@! TD*
D10*
G04 #@! TO.C,SW44*
X247775000Y-47750000D03*
D11*
X252775000Y-42600000D03*
D12*
X247775000Y-53650000D03*
X251585000Y-50290000D03*
X242775000Y-51550000D03*
X245235000Y-52830000D03*
G04 #@! TD*
D13*
G04 #@! TO.C,*
X285875000Y-104900000D03*
G04 #@! TD*
D18*
G04 #@! TO.C,*
X114425000Y-28700000D03*
G04 #@! TD*
D10*
G04 #@! TO.C,SW17*
X9650000Y-28700000D03*
D11*
X14650000Y-23550000D03*
D12*
X9650000Y-34600000D03*
X13460000Y-31240000D03*
X4650000Y-32500000D03*
X7110000Y-33780000D03*
G04 #@! TD*
D10*
G04 #@! TO.C,SW29*
X238250000Y-28700000D03*
D11*
X243250000Y-23550000D03*
D12*
X238250000Y-34600000D03*
X242060000Y-31240000D03*
X233250000Y-32500000D03*
X235710000Y-33780000D03*
G04 #@! TD*
D10*
G04 #@! TO.C,SW30*
X266825000Y-28700000D03*
D11*
X271825000Y-23550000D03*
D12*
X266825000Y-34600000D03*
X270635000Y-31240000D03*
X261825000Y-32500000D03*
X264285000Y-33780000D03*
G04 #@! TD*
D10*
G04 #@! TO.C,SW60*
X295400000Y-66800000D03*
D11*
X300400000Y-61650000D03*
D12*
X295400000Y-72700000D03*
X299210000Y-69340000D03*
X290400000Y-70600000D03*
X292860000Y-71880000D03*
G04 #@! TD*
D13*
G04 #@! TO.C,*
X-11350000Y-92000000D03*
G04 #@! TD*
D10*
G04 #@! TO.C,SW31*
X295400000Y-28700000D03*
D11*
X300400000Y-23550000D03*
D12*
X295400000Y-34600000D03*
X299210000Y-31240000D03*
X290400000Y-32500000D03*
X292860000Y-33780000D03*
G04 #@! TD*
D10*
G04 #@! TO.C,SW4*
X66800000Y-9650000D03*
D11*
X71800000Y-4500000D03*
D12*
X66800000Y-15550000D03*
X70610000Y-12190000D03*
X61800000Y-13450000D03*
X64260000Y-14730000D03*
G04 #@! TD*
D10*
G04 #@! TO.C,SW8*
X143000000Y-9650000D03*
D11*
X148000000Y-4500000D03*
D12*
X143000000Y-15550000D03*
X146810000Y-12190000D03*
X138000000Y-13450000D03*
X140460000Y-14730000D03*
G04 #@! TD*
D18*
G04 #@! TO.C,*
X190625000Y-28700000D03*
G04 #@! TD*
D13*
G04 #@! TO.C,*
X143000000Y-47750000D03*
G04 #@! TD*
D10*
G04 #@! TO.C,SW75*
X12031250Y-104900000D03*
D11*
X17031250Y-99750000D03*
D12*
X12031250Y-110800000D03*
X15841250Y-107440000D03*
X7031250Y-108700000D03*
X9491250Y-109980000D03*
G04 #@! TD*
D13*
G04 #@! TO.C,*
X-11350000Y-76500000D03*
G04 #@! TD*
D10*
G04 #@! TO.C,SW15*
X276350000Y-9650000D03*
D11*
X281350000Y-4500000D03*
D12*
X276350000Y-15550000D03*
X280160000Y-12190000D03*
X271350000Y-13450000D03*
X273810000Y-14730000D03*
G04 #@! TD*
D10*
G04 #@! TO.C,SW10*
X181100000Y-9650000D03*
D11*
X186100000Y-4500000D03*
D12*
X181100000Y-15550000D03*
X184910000Y-12190000D03*
X176100000Y-13450000D03*
X178560000Y-14730000D03*
G04 #@! TD*
D10*
G04 #@! TO.C,SW7*
X123950000Y-9650000D03*
D11*
X128950000Y-4500000D03*
D12*
X123950000Y-15550000D03*
X127760000Y-12190000D03*
X118950000Y-13450000D03*
X121410000Y-14730000D03*
G04 #@! TD*
D10*
G04 #@! TO.C,SW18*
X28700000Y-28700000D03*
D11*
X33700000Y-23550000D03*
D12*
X28700000Y-34600000D03*
X32510000Y-31240000D03*
X23700000Y-32500000D03*
X26160000Y-33780000D03*
G04 #@! TD*
D10*
G04 #@! TO.C,SW47*
X14412500Y-66800000D03*
D11*
X19412500Y-61650000D03*
D12*
X14412500Y-72700000D03*
X18222500Y-69340000D03*
X9412500Y-70600000D03*
X11872500Y-71880000D03*
G04 #@! TD*
D10*
G04 #@! TO.C,SW33*
X38225000Y-47750000D03*
D11*
X43225000Y-42600000D03*
D12*
X38225000Y-53650000D03*
X42035000Y-50290000D03*
X33225000Y-51550000D03*
X35685000Y-52830000D03*
G04 #@! TD*
D10*
G04 #@! TO.C,SW20*
X66800000Y-28700000D03*
D11*
X71800000Y-23550000D03*
D12*
X66800000Y-34600000D03*
X70610000Y-31240000D03*
X61800000Y-32500000D03*
X64260000Y-33780000D03*
G04 #@! TD*
D10*
G04 #@! TO.C,SW69*
X181100000Y-85850000D03*
D11*
X186100000Y-80700000D03*
D12*
X181100000Y-91750000D03*
X184910000Y-88390000D03*
X176100000Y-89650000D03*
X178560000Y-90930000D03*
G04 #@! TD*
D10*
G04 #@! TO.C,SW62*
X47750000Y-85850000D03*
D11*
X52750000Y-80700000D03*
D12*
X47750000Y-91750000D03*
X51560000Y-88390000D03*
X42750000Y-89650000D03*
X45210000Y-90930000D03*
G04 #@! TD*
D19*
G04 #@! TO.C,J4*
X-16350000Y-107150000D03*
D20*
X-14350000Y-107150000D03*
X-12350000Y-107150000D03*
X-10350000Y-107150000D03*
X-8350000Y-107150000D03*
X-6350000Y-107150000D03*
G04 #@! TD*
D10*
G04 #@! TO.C,SW58*
X228725000Y-66800000D03*
D11*
X233725000Y-61650000D03*
D12*
X228725000Y-72700000D03*
X232535000Y-69340000D03*
X223725000Y-70600000D03*
X226185000Y-71880000D03*
G04 #@! TD*
D10*
G04 #@! TO.C,SW83*
X276350000Y-104900000D03*
D11*
X281350000Y-99750000D03*
D12*
X276350000Y-110800000D03*
X280160000Y-107440000D03*
X271350000Y-108700000D03*
X273810000Y-109980000D03*
G04 #@! TD*
D10*
G04 #@! TO.C,SW38*
X133475000Y-47750000D03*
D11*
X138475000Y-42600000D03*
D12*
X133475000Y-53650000D03*
X137285000Y-50290000D03*
X128475000Y-51550000D03*
X130935000Y-52830000D03*
G04 #@! TD*
D10*
G04 #@! TO.C,SW32*
X14412500Y-47750000D03*
D11*
X19412500Y-42600000D03*
D12*
X14412500Y-53650000D03*
X18222500Y-50290000D03*
X9412500Y-51550000D03*
X11872500Y-52830000D03*
G04 #@! TD*
D13*
G04 #@! TO.C,*
X200150000Y-47750000D03*
G04 #@! TD*
D10*
G04 #@! TO.C,SW13*
X238250000Y-9650000D03*
D11*
X243250000Y-4500000D03*
D12*
X238250000Y-15550000D03*
X242060000Y-12190000D03*
X233250000Y-13450000D03*
X235710000Y-14730000D03*
G04 #@! TD*
D13*
G04 #@! TO.C,*
X226343750Y-104900000D03*
G04 #@! TD*
D10*
G04 #@! TO.C,SW5*
X85850000Y-9650000D03*
D11*
X90850000Y-4500000D03*
D12*
X85850000Y-15550000D03*
X89660000Y-12190000D03*
X80850000Y-13450000D03*
X83310000Y-14730000D03*
G04 #@! TD*
D10*
G04 #@! TO.C,SW22*
X104900000Y-28700000D03*
D11*
X109900000Y-23550000D03*
D12*
X104900000Y-34600000D03*
X108710000Y-31240000D03*
X99900000Y-32500000D03*
X102360000Y-33780000D03*
G04 #@! TD*
D13*
G04 #@! TO.C,*
X28700000Y-66800000D03*
G04 #@! TD*
D10*
G04 #@! TO.C,SW49*
X57275000Y-66800000D03*
D11*
X62275000Y-61650000D03*
D12*
X57275000Y-72700000D03*
X61085000Y-69340000D03*
X52275000Y-70600000D03*
X54735000Y-71880000D03*
G04 #@! TD*
D10*
G04 #@! TO.C,SW55*
X171575000Y-66800000D03*
D11*
X176575000Y-61650000D03*
D12*
X171575000Y-72700000D03*
X175385000Y-69340000D03*
X166575000Y-70600000D03*
X169035000Y-71880000D03*
G04 #@! TD*
D10*
G04 #@! TO.C,SW84*
X295400000Y-104900000D03*
D11*
X300400000Y-99750000D03*
D12*
X295400000Y-110800000D03*
X299210000Y-107440000D03*
X290400000Y-108700000D03*
X292860000Y-109980000D03*
G04 #@! TD*
D18*
G04 #@! TO.C,*
X114425000Y-85850000D03*
G04 #@! TD*
D10*
G04 #@! TO.C,SW24*
X143000000Y-28700000D03*
D11*
X148000000Y-23550000D03*
D12*
X143000000Y-34600000D03*
X146810000Y-31240000D03*
X138000000Y-32500000D03*
X140460000Y-33780000D03*
G04 #@! TD*
D10*
G04 #@! TO.C,SW71*
X219200000Y-85850000D03*
D11*
X224200000Y-80700000D03*
D12*
X219200000Y-91750000D03*
X223010000Y-88390000D03*
X214200000Y-89650000D03*
X216660000Y-90930000D03*
G04 #@! TD*
D10*
G04 #@! TO.C,SW11*
X200150000Y-9650000D03*
D11*
X205150000Y-4500000D03*
D12*
X200150000Y-15550000D03*
X203960000Y-12190000D03*
X195150000Y-13450000D03*
X197610000Y-14730000D03*
G04 #@! TD*
D10*
G04 #@! TO.C,SW6*
X104900000Y-9650000D03*
D11*
X109900000Y-4500000D03*
D12*
X104900000Y-15550000D03*
X108710000Y-12190000D03*
X99900000Y-13450000D03*
X102360000Y-14730000D03*
G04 #@! TD*
D18*
G04 #@! TO.C,*
X266825000Y-85850000D03*
G04 #@! TD*
D10*
G04 #@! TO.C,SW77*
X59656250Y-104900000D03*
D11*
X64656250Y-99750000D03*
D12*
X59656250Y-110800000D03*
X63466250Y-107440000D03*
X54656250Y-108700000D03*
X57116250Y-109980000D03*
G04 #@! TD*
D10*
G04 #@! TO.C,SW12*
X219200000Y-9650000D03*
D11*
X224200000Y-4500000D03*
D12*
X219200000Y-15550000D03*
X223010000Y-12190000D03*
X214200000Y-13450000D03*
X216660000Y-14730000D03*
G04 #@! TD*
D10*
G04 #@! TO.C,SW78*
X123950000Y-104900000D03*
D11*
X128950000Y-99750000D03*
D12*
X123950000Y-110800000D03*
X127760000Y-107440000D03*
X118950000Y-108700000D03*
X121410000Y-109980000D03*
G04 #@! TD*
D10*
G04 #@! TO.C,SW3*
X47750000Y-9650000D03*
D11*
X52750000Y-4500000D03*
D12*
X47750000Y-15550000D03*
X51560000Y-12190000D03*
X42750000Y-13450000D03*
X45210000Y-14730000D03*
G04 #@! TD*
D10*
G04 #@! TO.C,SW14*
X257300000Y-9650000D03*
D11*
X262300000Y-4500000D03*
D12*
X257300000Y-15550000D03*
X261110000Y-12190000D03*
X252300000Y-13450000D03*
X254760000Y-14730000D03*
G04 #@! TD*
D13*
G04 #@! TO.C,*
X21556250Y-104900000D03*
G04 #@! TD*
G04 #@! TO.C,*
X-2700000Y-18500000D03*
G04 #@! TD*
D10*
G04 #@! TO.C,SW50*
X76325000Y-66800000D03*
D11*
X81325000Y-61650000D03*
D12*
X76325000Y-72700000D03*
X80135000Y-69340000D03*
X71325000Y-70600000D03*
X73785000Y-71880000D03*
G04 #@! TD*
D10*
G04 #@! TO.C,SW80*
X212056250Y-104900000D03*
D11*
X217056250Y-99750000D03*
D12*
X212056250Y-110800000D03*
X215866250Y-107440000D03*
X207056250Y-108700000D03*
X209516250Y-109980000D03*
G04 #@! TD*
D18*
G04 #@! TO.C,*
X38225000Y-85850000D03*
G04 #@! TD*
D10*
G04 #@! TO.C,SW65*
X104900000Y-85850000D03*
D11*
X109900000Y-80700000D03*
D12*
X104900000Y-91750000D03*
X108710000Y-88390000D03*
X99900000Y-89650000D03*
X102360000Y-90930000D03*
G04 #@! TD*
D13*
G04 #@! TO.C,*
X243012500Y-66800000D03*
G04 #@! TD*
D10*
G04 #@! TO.C,SW82*
X257300000Y-104900000D03*
D11*
X262300000Y-99750000D03*
D12*
X257300000Y-110800000D03*
X261110000Y-107440000D03*
X252300000Y-108700000D03*
X254760000Y-109980000D03*
G04 #@! TD*
D10*
G04 #@! TO.C,SW39*
X152525000Y-47750000D03*
D11*
X157525000Y-42600000D03*
D12*
X152525000Y-53650000D03*
X156335000Y-50290000D03*
X147525000Y-51550000D03*
X149985000Y-52830000D03*
G04 #@! TD*
D10*
G04 #@! TO.C,SW66*
X123950000Y-85850000D03*
D11*
X128950000Y-80700000D03*
D12*
X123950000Y-91750000D03*
X127760000Y-88390000D03*
X118950000Y-89650000D03*
X121410000Y-90930000D03*
G04 #@! TD*
D10*
G04 #@! TO.C,SW74*
X295400000Y-85850000D03*
D11*
X300400000Y-80700000D03*
D12*
X295400000Y-91750000D03*
X299210000Y-88390000D03*
X290400000Y-89650000D03*
X292860000Y-90930000D03*
G04 #@! TD*
D13*
G04 #@! TO.C,*
X190625000Y-9650000D03*
G04 #@! TD*
D10*
G04 #@! TO.C,SW2*
X28700000Y-9650000D03*
D11*
X33700000Y-4500000D03*
D12*
X28700000Y-15550000D03*
X32510000Y-12190000D03*
X23700000Y-13450000D03*
X26160000Y-14730000D03*
G04 #@! TD*
D10*
G04 #@! TO.C,SW57*
X209675000Y-66800000D03*
D11*
X214675000Y-61650000D03*
D12*
X209675000Y-72700000D03*
X213485000Y-69340000D03*
X204675000Y-70600000D03*
X207135000Y-71880000D03*
G04 #@! TD*
D13*
G04 #@! TO.C,*
X85850000Y-66800000D03*
G04 #@! TD*
D10*
G04 #@! TO.C,SW26*
X181100000Y-28700000D03*
D11*
X186100000Y-23550000D03*
D12*
X181100000Y-34600000D03*
X184910000Y-31240000D03*
X176100000Y-32500000D03*
X178560000Y-33780000D03*
G04 #@! TD*
D10*
G04 #@! TO.C,SW41*
X190625000Y-47750000D03*
D11*
X195625000Y-42600000D03*
D12*
X190625000Y-53650000D03*
X194435000Y-50290000D03*
X185625000Y-51550000D03*
X188085000Y-52830000D03*
G04 #@! TD*
D13*
G04 #@! TO.C,*
X-2700000Y-1850000D03*
G04 #@! TD*
G04 #@! TO.C,*
X19175000Y-9650000D03*
G04 #@! TD*
D10*
G04 #@! TO.C,SW81*
X235868750Y-104900000D03*
D11*
X240868750Y-99750000D03*
D12*
X235868750Y-110800000D03*
X239678750Y-107440000D03*
X230868750Y-108700000D03*
X233328750Y-109980000D03*
G04 #@! TD*
D13*
G04 #@! TO.C,*
X28700000Y-47750000D03*
G04 #@! TD*
D10*
G04 #@! TO.C,SW63*
X66800000Y-85850000D03*
D11*
X71800000Y-80700000D03*
D12*
X66800000Y-91750000D03*
X70610000Y-88390000D03*
X61800000Y-89650000D03*
X64260000Y-90930000D03*
G04 #@! TD*
D18*
G04 #@! TO.C,*
X247775000Y-28700000D03*
G04 #@! TD*
D10*
G04 #@! TO.C,SW61*
X19175000Y-85850000D03*
D11*
X24175000Y-80700000D03*
D12*
X19175000Y-91750000D03*
X22985000Y-88390000D03*
X14175000Y-89650000D03*
X16635000Y-90930000D03*
G04 #@! TD*
D10*
G04 #@! TO.C,SW68*
X162050000Y-85850000D03*
D11*
X167050000Y-80700000D03*
D12*
X162050000Y-91750000D03*
X165860000Y-88390000D03*
X157050000Y-89650000D03*
X159510000Y-90930000D03*
G04 #@! TD*
D21*
G04 #@! TO.C,LED25*
X164650000Y-24150000D03*
X164650000Y-22650000D03*
X159450000Y-24150000D03*
D22*
X159450000Y-22650000D03*
G04 #@! TD*
D23*
G04 #@! TO.C,D57*
X202475000Y-74000000D03*
X202475000Y-70600000D03*
G04 #@! TD*
D21*
G04 #@! TO.C,LED9*
X164650000Y-5100000D03*
X164650000Y-3600000D03*
X159450000Y-5100000D03*
D22*
X159450000Y-3600000D03*
G04 #@! TD*
D23*
G04 #@! TO.C,D55*
X164375000Y-74000000D03*
X164375000Y-70600000D03*
G04 #@! TD*
G04 #@! TO.C,D19*
X40550000Y-35900000D03*
X40550000Y-32500000D03*
G04 #@! TD*
G04 #@! TO.C,D78*
X116750000Y-108700000D03*
X116750000Y-112100000D03*
G04 #@! TD*
D21*
G04 #@! TO.C,LED30*
X269425000Y-24150000D03*
X269425000Y-22650000D03*
X264225000Y-24150000D03*
D22*
X264225000Y-22650000D03*
G04 #@! TD*
D24*
G04 #@! TO.C,C8*
X32650000Y-62825000D03*
X32650000Y-59875000D03*
G04 #@! TD*
D21*
G04 #@! TO.C,LED24*
X145600000Y-24150000D03*
X145600000Y-22650000D03*
X140400000Y-24150000D03*
D22*
X140400000Y-22650000D03*
G04 #@! TD*
D23*
G04 #@! TO.C,D6*
X97700000Y-13450000D03*
X97700000Y-16850000D03*
G04 #@! TD*
D21*
G04 #@! TO.C,LED47*
X17012500Y-62250000D03*
X17012500Y-60750000D03*
X11812500Y-62250000D03*
D22*
X11812500Y-60750000D03*
G04 #@! TD*
D21*
G04 #@! TO.C,LED34*
X59875000Y-43200000D03*
X59875000Y-41700000D03*
X54675000Y-43200000D03*
D22*
X54675000Y-41700000D03*
G04 #@! TD*
D23*
G04 #@! TO.C,D10*
X173900000Y-13450000D03*
X173900000Y-16850000D03*
G04 #@! TD*
G04 #@! TO.C,D71*
X212000000Y-93050000D03*
X212000000Y-89650000D03*
G04 #@! TD*
G04 #@! TO.C,D4*
X59600000Y-13450000D03*
X59600000Y-16850000D03*
G04 #@! TD*
G04 #@! TO.C,D42*
X202475000Y-54950000D03*
X202475000Y-51550000D03*
G04 #@! TD*
D24*
G04 #@! TO.C,C11*
X182300000Y-100500000D03*
X182300000Y-97550000D03*
G04 #@! TD*
D21*
G04 #@! TO.C,LED6*
X107500000Y-5100000D03*
X107500000Y-3600000D03*
X102300000Y-5100000D03*
D22*
X102300000Y-3600000D03*
G04 #@! TD*
D23*
G04 #@! TO.C,D63*
X59600000Y-93050000D03*
X59600000Y-89650000D03*
G04 #@! TD*
G04 #@! TO.C,D32*
X7212500Y-54950000D03*
X7212500Y-51550000D03*
G04 #@! TD*
D21*
G04 #@! TO.C,LED31*
X298000000Y-24150000D03*
X298000000Y-22650000D03*
X292800000Y-24150000D03*
D22*
X292800000Y-22650000D03*
G04 #@! TD*
D21*
G04 #@! TO.C,LED69*
X183700000Y-81300000D03*
X183700000Y-79800000D03*
X178500000Y-81300000D03*
D22*
X178500000Y-79800000D03*
G04 #@! TD*
D21*
G04 #@! TO.C,LED51*
X97975000Y-62250000D03*
X97975000Y-60750000D03*
X92775000Y-62250000D03*
D22*
X92775000Y-60750000D03*
G04 #@! TD*
D24*
G04 #@! TO.C,C9*
X32700000Y-43925000D03*
X32700000Y-40975000D03*
G04 #@! TD*
D23*
G04 #@! TO.C,D1*
X2450000Y-16850000D03*
X2450000Y-13450000D03*
G04 #@! TD*
D21*
G04 #@! TO.C,LED42*
X212275000Y-43200000D03*
X212275000Y-41700000D03*
X207075000Y-43200000D03*
D22*
X207075000Y-41700000D03*
G04 #@! TD*
D23*
G04 #@! TO.C,D3*
X40550000Y-16850000D03*
X40550000Y-13450000D03*
G04 #@! TD*
G04 #@! TO.C,D31*
X288200000Y-32500000D03*
X288200000Y-35900000D03*
G04 #@! TD*
D21*
G04 #@! TO.C,LED13*
X240850000Y-5100000D03*
X240850000Y-3600000D03*
X235650000Y-5100000D03*
D22*
X235650000Y-3600000D03*
G04 #@! TD*
D23*
G04 #@! TO.C,D75*
X4831250Y-112100000D03*
X4831250Y-108700000D03*
G04 #@! TD*
G04 #@! TO.C,D40*
X164375000Y-54950000D03*
X164375000Y-51550000D03*
G04 #@! TD*
G04 #@! TO.C,D64*
X78650000Y-89650000D03*
X78650000Y-93050000D03*
G04 #@! TD*
D21*
G04 #@! TO.C,LED64*
X88450000Y-81300000D03*
X88450000Y-79800000D03*
X83250000Y-81300000D03*
D22*
X83250000Y-79800000D03*
G04 #@! TD*
D21*
G04 #@! TO.C,LED61*
X21775000Y-81300000D03*
X21775000Y-79800000D03*
X16575000Y-81300000D03*
D22*
X16575000Y-79800000D03*
G04 #@! TD*
D23*
G04 #@! TO.C,D83*
X269150000Y-112100000D03*
X269150000Y-108700000D03*
G04 #@! TD*
G04 #@! TO.C,D84*
X288200000Y-108700000D03*
X288200000Y-112100000D03*
G04 #@! TD*
G04 #@! TO.C,D26*
X173900000Y-32500000D03*
X173900000Y-35900000D03*
G04 #@! TD*
D21*
G04 #@! TO.C,LED46*
X298000000Y-43200000D03*
X298000000Y-41700000D03*
X292800000Y-43200000D03*
D22*
X292800000Y-41700000D03*
G04 #@! TD*
D24*
G04 #@! TO.C,C10*
X42150000Y-82025000D03*
X42150000Y-79075000D03*
G04 #@! TD*
D23*
G04 #@! TO.C,D7*
X116750000Y-16850000D03*
X116750000Y-13450000D03*
G04 #@! TD*
D24*
G04 #@! TO.C,C6*
X156550000Y-82025000D03*
X156550000Y-79075000D03*
G04 #@! TD*
D21*
G04 #@! TO.C,LED28*
X221800000Y-24150000D03*
X221800000Y-22650000D03*
X216600000Y-24150000D03*
D22*
X216600000Y-22650000D03*
G04 #@! TD*
D23*
G04 #@! TO.C,D66*
X116750000Y-89650000D03*
X116750000Y-93050000D03*
G04 #@! TD*
G04 #@! TO.C,D74*
X288200000Y-89650000D03*
X288200000Y-93050000D03*
G04 #@! TD*
D21*
G04 #@! TO.C,LED40*
X174175000Y-43200000D03*
X174175000Y-41700000D03*
X168975000Y-43200000D03*
D22*
X168975000Y-41700000D03*
G04 #@! TD*
D25*
G04 #@! TO.C,U3*
X-10975000Y-30550000D03*
X-10975000Y-31500000D03*
X-10975000Y-32450000D03*
X-13250000Y-32450000D03*
X-13250000Y-31500000D03*
X-13250000Y-30550000D03*
G04 #@! TD*
D23*
G04 #@! TO.C,D80*
X204856250Y-112100000D03*
X204856250Y-108700000D03*
G04 #@! TD*
D21*
G04 #@! TO.C,LED60*
X298000000Y-62250000D03*
X298000000Y-60750000D03*
X292800000Y-62250000D03*
D22*
X292800000Y-60750000D03*
G04 #@! TD*
D24*
G04 #@! TO.C,C12*
X30200000Y-101025000D03*
X30200000Y-98075000D03*
G04 #@! TD*
G04 #@! TO.C,C4*
X23250000Y-24875000D03*
X23250000Y-21925000D03*
G04 #@! TD*
D21*
G04 #@! TO.C,LED37*
X117025000Y-43200000D03*
X117025000Y-41700000D03*
X111825000Y-43200000D03*
D22*
X111825000Y-41700000D03*
G04 #@! TD*
D21*
G04 #@! TO.C,LED78*
X126550000Y-100350000D03*
X126550000Y-98850000D03*
X121350000Y-100350000D03*
D22*
X121350000Y-98850000D03*
G04 #@! TD*
D23*
G04 #@! TO.C,D38*
X126275000Y-54950000D03*
X126275000Y-51550000D03*
G04 #@! TD*
D21*
G04 #@! TO.C,LED65*
X107500000Y-81300000D03*
X107500000Y-79800000D03*
X102300000Y-81300000D03*
D22*
X102300000Y-79800000D03*
G04 #@! TD*
D21*
G04 #@! TO.C,LED11*
X202750000Y-5100000D03*
X202750000Y-3600000D03*
X197550000Y-5100000D03*
D22*
X197550000Y-3600000D03*
G04 #@! TD*
D21*
G04 #@! TO.C,LED43*
X231325000Y-43200000D03*
X231325000Y-41700000D03*
X226125000Y-43200000D03*
D22*
X226125000Y-41700000D03*
G04 #@! TD*
D23*
G04 #@! TO.C,D54*
X145325000Y-70600000D03*
X145325000Y-74000000D03*
G04 #@! TD*
G04 #@! TO.C,D14*
X250100000Y-13450000D03*
X250100000Y-16850000D03*
G04 #@! TD*
G04 #@! TO.C,D72*
X240575000Y-93050000D03*
X240575000Y-89650000D03*
G04 #@! TD*
D21*
G04 #@! TO.C,LED2*
X31300000Y-5100000D03*
X31300000Y-3600000D03*
X26100000Y-5100000D03*
D22*
X26100000Y-3600000D03*
G04 #@! TD*
D21*
G04 #@! TO.C,LED39*
X155125000Y-43200000D03*
X155125000Y-41700000D03*
X149925000Y-43200000D03*
D22*
X149925000Y-41700000D03*
G04 #@! TD*
D23*
G04 #@! TO.C,D62*
X40550000Y-89650000D03*
X40550000Y-93050000D03*
G04 #@! TD*
G04 #@! TO.C,D41*
X183425000Y-51550000D03*
X183425000Y-54950000D03*
G04 #@! TD*
G04 #@! TO.C,D13*
X231050000Y-16850000D03*
X231050000Y-13450000D03*
G04 #@! TD*
D21*
G04 #@! TO.C,LED5*
X88450000Y-5100000D03*
X88450000Y-3600000D03*
X83250000Y-5100000D03*
D22*
X83250000Y-3600000D03*
G04 #@! TD*
D21*
G04 #@! TO.C,LED49*
X59875000Y-62250000D03*
X59875000Y-60750000D03*
X54675000Y-62250000D03*
D22*
X54675000Y-60750000D03*
G04 #@! TD*
D23*
G04 #@! TO.C,D17*
X2450000Y-35900000D03*
X2450000Y-32500000D03*
G04 #@! TD*
D21*
G04 #@! TO.C,LED12*
X221800000Y-5100000D03*
X221800000Y-3600000D03*
X216600000Y-5100000D03*
D22*
X216600000Y-3600000D03*
G04 #@! TD*
D21*
G04 #@! TO.C,LED84*
X298000000Y-100350000D03*
X298000000Y-98850000D03*
X292800000Y-100350000D03*
D22*
X292800000Y-98850000D03*
G04 #@! TD*
D23*
G04 #@! TO.C,D52*
X107225000Y-70600000D03*
X107225000Y-74000000D03*
G04 #@! TD*
G04 #@! TO.C,D11*
X192950000Y-16850000D03*
X192950000Y-13450000D03*
G04 #@! TD*
D21*
G04 #@! TO.C,LED3*
X50350000Y-5100000D03*
X50350000Y-3600000D03*
X45150000Y-5100000D03*
D22*
X45150000Y-3600000D03*
G04 #@! TD*
D23*
G04 #@! TO.C,D61*
X11975000Y-93050000D03*
X11975000Y-89650000D03*
G04 #@! TD*
D21*
G04 #@! TO.C,LED56*
X193225000Y-62250000D03*
X193225000Y-60750000D03*
X188025000Y-62250000D03*
D22*
X188025000Y-60750000D03*
G04 #@! TD*
D21*
G04 #@! TO.C,LED44*
X250375000Y-43200000D03*
X250375000Y-41700000D03*
X245175000Y-43200000D03*
D22*
X245175000Y-41700000D03*
G04 #@! TD*
D21*
G04 #@! TO.C,LED4*
X69400000Y-5100000D03*
X69400000Y-3600000D03*
X64200000Y-5100000D03*
D22*
X64200000Y-3600000D03*
G04 #@! TD*
D21*
G04 #@! TO.C,LED67*
X145600000Y-81300000D03*
X145600000Y-79800000D03*
X140400000Y-81300000D03*
D22*
X140400000Y-79800000D03*
G04 #@! TD*
D23*
G04 #@! TO.C,D36*
X88175000Y-54950000D03*
X88175000Y-51550000D03*
G04 #@! TD*
D21*
G04 #@! TO.C,LED1*
X12250000Y-5100000D03*
X12250000Y-3600000D03*
X7050000Y-5100000D03*
D22*
X7050000Y-3600000D03*
G04 #@! TD*
D23*
G04 #@! TO.C,D49*
X50075000Y-74000000D03*
X50075000Y-70600000D03*
G04 #@! TD*
D21*
G04 #@! TO.C,LED62*
X50350000Y-81300000D03*
X50350000Y-79800000D03*
X45150000Y-81300000D03*
D22*
X45150000Y-79800000D03*
G04 #@! TD*
D21*
G04 #@! TO.C,LED57*
X212275000Y-62250000D03*
X212275000Y-60750000D03*
X207075000Y-62250000D03*
D22*
X207075000Y-60750000D03*
G04 #@! TD*
D21*
G04 #@! TO.C,LED22*
X107500000Y-24150000D03*
X107500000Y-22650000D03*
X102300000Y-24150000D03*
D22*
X102300000Y-22650000D03*
G04 #@! TD*
D21*
G04 #@! TO.C,LED48*
X40825000Y-62250000D03*
X40825000Y-60750000D03*
X35625000Y-62250000D03*
D22*
X35625000Y-60750000D03*
G04 #@! TD*
D21*
G04 #@! TO.C,LED81*
X238468750Y-100350000D03*
X238468750Y-98850000D03*
X233268750Y-100350000D03*
D22*
X233268750Y-98850000D03*
G04 #@! TD*
D21*
G04 #@! TO.C,LED54*
X155125000Y-62250000D03*
X155125000Y-60750000D03*
X149925000Y-62250000D03*
D22*
X149925000Y-60750000D03*
G04 #@! TD*
D21*
G04 #@! TO.C,LED79*
X190843750Y-100350000D03*
X190843750Y-98850000D03*
X185643750Y-100350000D03*
D22*
X185643750Y-98850000D03*
G04 #@! TD*
D23*
G04 #@! TO.C,D45*
X264387500Y-54950000D03*
X264387500Y-51550000D03*
G04 #@! TD*
G04 #@! TO.C,D47*
X7212500Y-74000000D03*
X7212500Y-70600000D03*
G04 #@! TD*
G04 #@! TO.C,D8*
X135800000Y-13450000D03*
X135800000Y-16850000D03*
G04 #@! TD*
D21*
G04 #@! TO.C,LED72*
X250375000Y-81300000D03*
X250375000Y-79800000D03*
X245175000Y-81300000D03*
D22*
X245175000Y-79800000D03*
G04 #@! TD*
D23*
G04 #@! TO.C,D21*
X78650000Y-35900000D03*
X78650000Y-32500000D03*
G04 #@! TD*
G04 #@! TO.C,D81*
X228668750Y-112100000D03*
X228668750Y-108700000D03*
G04 #@! TD*
G04 #@! TO.C,D50*
X69125000Y-70600000D03*
X69125000Y-74000000D03*
G04 #@! TD*
D21*
G04 #@! TO.C,LED66*
X126550000Y-81300000D03*
X126550000Y-79800000D03*
X121350000Y-81300000D03*
D22*
X121350000Y-79800000D03*
G04 #@! TD*
D23*
G04 #@! TO.C,D48*
X31025000Y-70600000D03*
X31025000Y-74000000D03*
G04 #@! TD*
D24*
G04 #@! TO.C,C3*
X137400000Y-24675000D03*
X137400000Y-21725000D03*
G04 #@! TD*
D21*
G04 #@! TO.C,LED55*
X174175000Y-62250000D03*
X174175000Y-60750000D03*
X168975000Y-62250000D03*
D22*
X168975000Y-60750000D03*
G04 #@! TD*
D21*
G04 #@! TO.C,LED75*
X14631250Y-100350000D03*
X14631250Y-98850000D03*
X9431250Y-100350000D03*
D22*
X9431250Y-98850000D03*
G04 #@! TD*
D23*
G04 #@! TO.C,D23*
X116750000Y-35900000D03*
X116750000Y-32500000D03*
G04 #@! TD*
G04 #@! TO.C,D27*
X192950000Y-35900000D03*
X192950000Y-32500000D03*
G04 #@! TD*
D21*
G04 #@! TO.C,LED14*
X259900000Y-5100000D03*
X259900000Y-3600000D03*
X254700000Y-5100000D03*
D22*
X254700000Y-3600000D03*
G04 #@! TD*
D23*
G04 #@! TO.C,D39*
X145325000Y-51550000D03*
X145325000Y-54950000D03*
G04 #@! TD*
D24*
G04 #@! TO.C,C1*
X137450000Y-5825000D03*
X137450000Y-2875000D03*
G04 #@! TD*
D23*
G04 #@! TO.C,D29*
X231050000Y-35900000D03*
X231050000Y-32500000D03*
G04 #@! TD*
G04 #@! TO.C,D70*
X192950000Y-89650000D03*
X192950000Y-93050000D03*
G04 #@! TD*
G04 #@! TO.C,D34*
X50075000Y-54950000D03*
X50075000Y-51550000D03*
G04 #@! TD*
G04 #@! TO.C,D25*
X154850000Y-35900000D03*
X154850000Y-32500000D03*
G04 #@! TD*
D21*
G04 #@! TO.C,LED27*
X202750000Y-24150000D03*
X202750000Y-22650000D03*
X197550000Y-24150000D03*
D22*
X197550000Y-22650000D03*
G04 #@! TD*
D24*
G04 #@! TO.C,C2*
X23200000Y-5825000D03*
X23200000Y-2875000D03*
G04 #@! TD*
D26*
G04 #@! TO.C,R4*
X-4850000Y-33050000D03*
X-4850000Y-29950000D03*
G04 #@! TD*
D23*
G04 #@! TO.C,D82*
X250100000Y-108700000D03*
X250100000Y-112100000D03*
G04 #@! TD*
D21*
G04 #@! TO.C,LED80*
X214656250Y-100350000D03*
X214656250Y-98850000D03*
X209456250Y-100350000D03*
D22*
X209456250Y-98850000D03*
G04 #@! TD*
D23*
G04 #@! TO.C,D43*
X221525000Y-51550000D03*
X221525000Y-54950000D03*
G04 #@! TD*
D21*
G04 #@! TO.C,LED16*
X298000000Y-5100000D03*
X298000000Y-3600000D03*
X292800000Y-5100000D03*
D22*
X292800000Y-3600000D03*
G04 #@! TD*
D23*
G04 #@! TO.C,D9*
X154850000Y-16850000D03*
X154850000Y-13450000D03*
G04 #@! TD*
G04 #@! TO.C,D37*
X107225000Y-51550000D03*
X107225000Y-54950000D03*
G04 #@! TD*
D21*
G04 #@! TO.C,LED63*
X69400000Y-81300000D03*
X69400000Y-79800000D03*
X64200000Y-81300000D03*
D22*
X64200000Y-79800000D03*
G04 #@! TD*
D21*
G04 #@! TO.C,LED74*
X298000000Y-81300000D03*
X298000000Y-79800000D03*
X292800000Y-81300000D03*
D22*
X292800000Y-79800000D03*
G04 #@! TD*
D21*
G04 #@! TO.C,LED10*
X183700000Y-5100000D03*
X183700000Y-3600000D03*
X178500000Y-5100000D03*
D22*
X178500000Y-3600000D03*
G04 #@! TD*
D23*
G04 #@! TO.C,D12*
X212000000Y-13450000D03*
X212000000Y-16850000D03*
G04 #@! TD*
G04 #@! TO.C,D18*
X21500000Y-32500000D03*
X21500000Y-35900000D03*
G04 #@! TD*
G04 #@! TO.C,D24*
X135800000Y-32500000D03*
X135800000Y-35900000D03*
G04 #@! TD*
G04 #@! TO.C,D58*
X221525000Y-70600000D03*
X221525000Y-74000000D03*
G04 #@! TD*
G04 #@! TO.C,D59*
X254862500Y-70600000D03*
X254862500Y-74000000D03*
G04 #@! TD*
G04 #@! TO.C,D15*
X269150000Y-16850000D03*
X269150000Y-13450000D03*
G04 #@! TD*
G04 #@! TO.C,D65*
X97700000Y-93050000D03*
X97700000Y-89650000D03*
G04 #@! TD*
G04 #@! TO.C,D22*
X97700000Y-32500000D03*
X97700000Y-35900000D03*
G04 #@! TD*
D21*
G04 #@! TO.C,LED70*
X202750000Y-81300000D03*
X202750000Y-79800000D03*
X197550000Y-81300000D03*
D22*
X197550000Y-79800000D03*
G04 #@! TD*
D23*
G04 #@! TO.C,D53*
X126275000Y-74000000D03*
X126275000Y-70600000D03*
G04 #@! TD*
G04 #@! TO.C,D56*
X183425000Y-70600000D03*
X183425000Y-74000000D03*
G04 #@! TD*
G04 #@! TO.C,D35*
X69125000Y-51550000D03*
X69125000Y-54950000D03*
G04 #@! TD*
D21*
G04 #@! TO.C,LED52*
X117025000Y-62250000D03*
X117025000Y-60750000D03*
X111825000Y-62250000D03*
D22*
X111825000Y-60750000D03*
G04 #@! TD*
D21*
G04 #@! TO.C,LED45*
X274187500Y-43200000D03*
X274187500Y-41700000D03*
X268987500Y-43200000D03*
D22*
X268987500Y-41700000D03*
G04 #@! TD*
D23*
G04 #@! TO.C,D51*
X88175000Y-74000000D03*
X88175000Y-70600000D03*
G04 #@! TD*
D21*
G04 #@! TO.C,LED15*
X278950000Y-5100000D03*
X278950000Y-3600000D03*
X273750000Y-5100000D03*
D22*
X273750000Y-3600000D03*
G04 #@! TD*
D23*
G04 #@! TO.C,D60*
X288200000Y-70600000D03*
X288200000Y-74000000D03*
G04 #@! TD*
D21*
G04 #@! TO.C,LED17*
X12250000Y-24150000D03*
X12250000Y-22650000D03*
X7050000Y-24150000D03*
D22*
X7050000Y-22650000D03*
G04 #@! TD*
D21*
G04 #@! TO.C,LED59*
X264662500Y-62250000D03*
X264662500Y-60750000D03*
X259462500Y-62250000D03*
D22*
X259462500Y-60750000D03*
G04 #@! TD*
D23*
G04 #@! TO.C,D77*
X52456250Y-112100000D03*
X52456250Y-108700000D03*
G04 #@! TD*
G04 #@! TO.C,D16*
X288200000Y-13450000D03*
X288200000Y-16850000D03*
G04 #@! TD*
G04 #@! TO.C,D79*
X181043750Y-108700000D03*
X181043750Y-112100000D03*
G04 #@! TD*
D21*
G04 #@! TO.C,LED83*
X278950000Y-100350000D03*
X278950000Y-98850000D03*
X273750000Y-100350000D03*
D22*
X273750000Y-98850000D03*
G04 #@! TD*
D21*
G04 #@! TO.C,LED29*
X240850000Y-24150000D03*
X240850000Y-22650000D03*
X235650000Y-24150000D03*
D22*
X235650000Y-22650000D03*
G04 #@! TD*
D21*
G04 #@! TO.C,LED33*
X40825000Y-43200000D03*
X40825000Y-41700000D03*
X35625000Y-43200000D03*
D22*
X35625000Y-41700000D03*
G04 #@! TD*
D21*
G04 #@! TO.C,LED7*
X126550000Y-5100000D03*
X126550000Y-3600000D03*
X121350000Y-5100000D03*
D22*
X121350000Y-3600000D03*
G04 #@! TD*
D23*
G04 #@! TO.C,D44*
X240575000Y-54950000D03*
X240575000Y-51550000D03*
G04 #@! TD*
D24*
G04 #@! TO.C,C5*
X146900000Y-43925000D03*
X146900000Y-40975000D03*
G04 #@! TD*
D21*
G04 #@! TO.C,LED23*
X126550000Y-24150000D03*
X126550000Y-22650000D03*
X121350000Y-24150000D03*
D22*
X121350000Y-22650000D03*
G04 #@! TD*
D21*
G04 #@! TO.C,LED21*
X88450000Y-24150000D03*
X88450000Y-22650000D03*
X83250000Y-24150000D03*
D22*
X83250000Y-22650000D03*
G04 #@! TD*
D21*
G04 #@! TO.C,LED26*
X183700000Y-24150000D03*
X183700000Y-22650000D03*
X178500000Y-24150000D03*
D22*
X178500000Y-22650000D03*
G04 #@! TD*
D21*
G04 #@! TO.C,LED38*
X136075000Y-43200000D03*
X136075000Y-41700000D03*
X130875000Y-43200000D03*
D22*
X130875000Y-41700000D03*
G04 #@! TD*
D21*
G04 #@! TO.C,LED73*
X278950000Y-81300000D03*
X278950000Y-79800000D03*
X273750000Y-81300000D03*
D22*
X273750000Y-79800000D03*
G04 #@! TD*
D21*
G04 #@! TO.C,LED68*
X164650000Y-81300000D03*
X164650000Y-79800000D03*
X159450000Y-81300000D03*
D22*
X159450000Y-79800000D03*
G04 #@! TD*
D23*
G04 #@! TO.C,D46*
X288200000Y-51550000D03*
X288200000Y-54950000D03*
G04 #@! TD*
D21*
G04 #@! TO.C,LED53*
X136075000Y-62250000D03*
X136075000Y-60750000D03*
X130875000Y-62250000D03*
D22*
X130875000Y-60750000D03*
G04 #@! TD*
D21*
G04 #@! TO.C,LED36*
X97975000Y-43200000D03*
X97975000Y-41700000D03*
X92775000Y-43200000D03*
D22*
X92775000Y-41700000D03*
G04 #@! TD*
D21*
G04 #@! TO.C,LED82*
X259900000Y-100350000D03*
X259900000Y-98850000D03*
X254700000Y-100350000D03*
D22*
X254700000Y-98850000D03*
G04 #@! TD*
D23*
G04 #@! TO.C,D28*
X212000000Y-32500000D03*
X212000000Y-35900000D03*
G04 #@! TD*
G04 #@! TO.C,D5*
X78650000Y-16850000D03*
X78650000Y-13450000D03*
G04 #@! TD*
D21*
G04 #@! TO.C,LED41*
X193225000Y-43200000D03*
X193225000Y-41700000D03*
X188025000Y-43200000D03*
D22*
X188025000Y-41700000D03*
G04 #@! TD*
D27*
G04 #@! TO.C,R3*
X-7400000Y-29950000D03*
X-7400000Y-33050000D03*
G04 #@! TD*
D21*
G04 #@! TO.C,LED32*
X17012500Y-43200000D03*
X17012500Y-41700000D03*
X11812500Y-43200000D03*
D22*
X11812500Y-41700000D03*
G04 #@! TD*
D23*
G04 #@! TO.C,D20*
X59600000Y-32500000D03*
X59600000Y-35900000D03*
G04 #@! TD*
G04 #@! TO.C,D2*
X21500000Y-13450000D03*
X21500000Y-16850000D03*
G04 #@! TD*
G04 #@! TO.C,D76*
X28643750Y-108700000D03*
X28643750Y-112100000D03*
G04 #@! TD*
D21*
G04 #@! TO.C,LED71*
X221800000Y-81300000D03*
X221800000Y-79800000D03*
X216600000Y-81300000D03*
D22*
X216600000Y-79800000D03*
G04 #@! TD*
D23*
G04 #@! TO.C,D68*
X154850000Y-89650000D03*
X154850000Y-93050000D03*
G04 #@! TD*
D21*
G04 #@! TO.C,LED18*
X31300000Y-24150000D03*
X31300000Y-22650000D03*
X26100000Y-24150000D03*
D22*
X26100000Y-22650000D03*
G04 #@! TD*
D21*
G04 #@! TO.C,LED58*
X231325000Y-62250000D03*
X231325000Y-60750000D03*
X226125000Y-62250000D03*
D22*
X226125000Y-60750000D03*
G04 #@! TD*
D23*
G04 #@! TO.C,D69*
X173900000Y-93050000D03*
X173900000Y-89650000D03*
G04 #@! TD*
D24*
G04 #@! TO.C,C7*
X146900000Y-62975000D03*
X146900000Y-60025000D03*
G04 #@! TD*
D21*
G04 #@! TO.C,LED20*
X69400000Y-24150000D03*
X69400000Y-22650000D03*
X64200000Y-24150000D03*
D22*
X64200000Y-22650000D03*
G04 #@! TD*
D21*
G04 #@! TO.C,LED76*
X38443750Y-100350000D03*
X38443750Y-98850000D03*
X33243750Y-100350000D03*
D22*
X33243750Y-98850000D03*
G04 #@! TD*
D21*
G04 #@! TO.C,LED8*
X145600000Y-5100000D03*
X145600000Y-3600000D03*
X140400000Y-5100000D03*
D22*
X140400000Y-3600000D03*
G04 #@! TD*
D23*
G04 #@! TO.C,ROT_D1*
X-8850000Y-8900000D03*
X-8850000Y-5500000D03*
G04 #@! TD*
D19*
G04 #@! TO.C,J3*
X-12850000Y-25650000D03*
D20*
X-10850000Y-25650000D03*
X-8850000Y-25650000D03*
X-6850000Y-25650000D03*
X-4850000Y-25650000D03*
G04 #@! TD*
D23*
G04 #@! TO.C,D30*
X259625000Y-32500000D03*
X259625000Y-35900000D03*
G04 #@! TD*
D21*
G04 #@! TO.C,LED35*
X78925000Y-43200000D03*
X78925000Y-41700000D03*
X73725000Y-43200000D03*
D22*
X73725000Y-41700000D03*
G04 #@! TD*
D28*
G04 #@! TO.C,U1*
X-18950000Y-112500000D03*
D29*
X-18950000Y-109960000D03*
X-18950000Y-107420000D03*
X-18950000Y-104880000D03*
X-18950000Y-102340000D03*
X-18950000Y-99800000D03*
X-18950000Y-97260000D03*
X-18950000Y-94720000D03*
X-18950000Y-92180000D03*
X-18950000Y-89640000D03*
X-18950000Y-87100000D03*
X-18950000Y-84560000D03*
X-18950000Y-82020000D03*
X-18950000Y-79480000D03*
X-18950000Y-76940000D03*
X-18950000Y-74400000D03*
X-18950000Y-71860000D03*
X-18950000Y-69320000D03*
X-18950000Y-66780000D03*
X-18950000Y-64240000D03*
X-3750000Y-64240000D03*
X-3750000Y-66780000D03*
X-3750000Y-69320000D03*
X-3750000Y-71860000D03*
X-3750000Y-74400000D03*
X-3750000Y-76940000D03*
X-3750000Y-79480000D03*
X-3750000Y-82020000D03*
X-3750000Y-84560000D03*
X-3750000Y-87100000D03*
X-3750000Y-89640000D03*
X-3750000Y-92180000D03*
X-3750000Y-94720000D03*
X-3750000Y-97260000D03*
X-3750000Y-99800000D03*
X-3750000Y-102340000D03*
X-3750000Y-104880000D03*
X-3750000Y-107420000D03*
X-3750000Y-109960000D03*
D28*
X-3750000Y-112500000D03*
D30*
X-15150000Y-68000000D03*
D29*
X-12650000Y-68000000D03*
X-10150000Y-68000000D03*
X-7550000Y-68000000D03*
G04 #@! TD*
D21*
G04 #@! TO.C,LED19*
X50350000Y-24150000D03*
X50350000Y-22650000D03*
X45150000Y-24150000D03*
D22*
X45150000Y-22650000D03*
G04 #@! TD*
D21*
G04 #@! TO.C,LED77*
X62256250Y-100350000D03*
X62256250Y-98850000D03*
X57056250Y-100350000D03*
D22*
X57056250Y-98850000D03*
G04 #@! TD*
D23*
G04 #@! TO.C,D67*
X135800000Y-93050000D03*
X135800000Y-89650000D03*
G04 #@! TD*
G04 #@! TO.C,D33*
X31025000Y-51550000D03*
X31025000Y-54950000D03*
G04 #@! TD*
G04 #@! TO.C,D73*
X269150000Y-93050000D03*
X269150000Y-89650000D03*
G04 #@! TD*
D21*
G04 #@! TO.C,LED50*
X78925000Y-62250000D03*
X78925000Y-60750000D03*
X73725000Y-62250000D03*
D22*
X73725000Y-60750000D03*
G04 #@! TD*
M02*
