G04 #@! TF.GenerationSoftware,KiCad,Pcbnew,9.0.4*
G04 #@! TF.CreationDate,2025-10-24T23:45:09+08:00*
G04 #@! TF.ProjectId,Custom Mechanical Keyboard,43757374-6f6d-4204-9d65-6368616e6963,rev?*
G04 #@! TF.SameCoordinates,PX3f778f0PY2d4cae0*
G04 #@! TF.FileFunction,Soldermask,Top*
G04 #@! TF.FilePolarity,Negative*
%FSLAX46Y46*%
G04 Gerber Fmt 4.6, Leading zero omitted, Abs format (unit mm)*
G04 Created by KiCad (PCBNEW 9.0.4) date 2025-10-24 23:45:09*
%MOMM*%
%LPD*%
G01*
G04 APERTURE LIST*
G04 Aperture macros list*
%AMRoundRect*
0 Rectangle with rounded corners*
0 $1 Rounding radius*
0 $2 $3 $4 $5 $6 $7 $8 $9 X,Y pos of 4 corners*
0 Add a 4 corners polygon primitive as box body*
4,1,4,$2,$3,$4,$5,$6,$7,$8,$9,$2,$3,0*
0 Add four circle primitives for the rounded corners*
1,1,$1+$1,$2,$3*
1,1,$1+$1,$4,$5*
1,1,$1+$1,$6,$7*
1,1,$1+$1,$8,$9*
0 Add four rect primitives between the rounded corners*
20,1,$1+$1,$2,$3,$4,$5,0*
20,1,$1+$1,$4,$5,$6,$7,0*
20,1,$1+$1,$6,$7,$8,$9,0*
20,1,$1+$1,$8,$9,$2,$3,0*%
%AMOutline5P*
0 Free polygon, 5 corners , with rotation*
0 The origin of the aperture is its center*
0 number of corners: always 5*
0 $1 to $10 corner X, Y*
0 $11 Rotation angle, in degrees counterclockwise*
0 create outline with 5 corners*
4,1,5,$1,$2,$3,$4,$5,$6,$7,$8,$9,$10,$1,$2,$11*%
%AMOutline6P*
0 Free polygon, 6 corners , with rotation*
0 The origin of the aperture is its center*
0 number of corners: always 6*
0 $1 to $12 corner X, Y*
0 $13 Rotation angle, in degrees counterclockwise*
0 create outline with 6 corners*
4,1,6,$1,$2,$3,$4,$5,$6,$7,$8,$9,$10,$11,$12,$1,$2,$13*%
%AMOutline7P*
0 Free polygon, 7 corners , with rotation*
0 The origin of the aperture is its center*
0 number of corners: always 7*
0 $1 to $14 corner X, Y*
0 $15 Rotation angle, in degrees counterclockwise*
0 create outline with 7 corners*
4,1,7,$1,$2,$3,$4,$5,$6,$7,$8,$9,$10,$11,$12,$13,$14,$1,$2,$15*%
%AMOutline8P*
0 Free polygon, 8 corners , with rotation*
0 The origin of the aperture is its center*
0 number of corners: always 8*
0 $1 to $16 corner X, Y*
0 $17 Rotation angle, in degrees counterclockwise*
0 create outline with 8 corners*
4,1,8,$1,$2,$3,$4,$5,$6,$7,$8,$9,$10,$11,$12,$13,$14,$15,$16,$1,$2,$17*%
G04 Aperture macros list end*
%ADD10RoundRect,0.300000X-0.950000X0.700000X-0.950000X-0.700000X0.950000X-0.700000X0.950000X0.700000X0*%
%ADD11RoundRect,0.075000X-0.600000X0.075000X-0.600000X-0.075000X0.600000X-0.075000X0.600000X0.075000X0*%
%ADD12RoundRect,0.150000X0.150000X-0.512500X0.150000X0.512500X-0.150000X0.512500X-0.150000X-0.512500X0*%
%ADD13C,5.000000*%
%ADD14C,1.400000*%
%ADD15C,3.000000*%
%ADD16RoundRect,0.250000X-0.450000X0.450000X-0.450000X-0.450000X0.450000X-0.450000X0.450000X0.450000X0*%
%ADD17R,2.000000X2.000000*%
%ADD18C,2.000000*%
%ADD19R,2.500000X3.000000*%
%ADD20C,1.000000*%
%ADD21C,3.500000*%
%ADD22R,1.350000X1.350000*%
%ADD23C,1.350000*%
%ADD24R,0.820000X1.500000*%
%ADD25Outline5P,-0.750000X0.410000X0.750000X0.410000X0.750000X0.000000X0.340000X-0.410000X-0.750000X-0.410000X90.000000*%
%ADD26R,1.700000X1.700000*%
%ADD27C,1.700000*%
%ADD28R,1.500000X1.500000*%
G04 APERTURE END LIST*
D10*
G04 #@! TO.C,J6*
X-8175000Y-54440000D03*
X-8175000Y-41560000D03*
D11*
X-5800000Y-52750000D03*
X-5800000Y-52250000D03*
X-5800000Y-51750000D03*
X-5800000Y-51250000D03*
X-5800000Y-50750000D03*
X-5800000Y-50250000D03*
X-5800000Y-49750000D03*
X-5800000Y-49250000D03*
X-5800000Y-48750000D03*
X-5800000Y-48250000D03*
X-5800000Y-47750000D03*
X-5800000Y-47250000D03*
X-5800000Y-46750000D03*
X-5800000Y-46250000D03*
X-5800000Y-45750000D03*
X-5800000Y-45250000D03*
X-5800000Y-44750000D03*
X-5800000Y-44250000D03*
X-5800000Y-43750000D03*
X-5800000Y-43250000D03*
G04 #@! TD*
D12*
G04 #@! TO.C,U2*
X-18200000Y-57650000D03*
X-17250000Y-57650000D03*
X-16300000Y-57650000D03*
X-16300000Y-55375000D03*
X-17250000Y-55375000D03*
X-18200000Y-55375000D03*
G04 #@! TD*
D13*
G04 #@! TO.C,SW40*
X171575000Y-47750000D03*
D14*
X176575000Y-42600000D03*
G04 #@! TD*
D13*
G04 #@! TO.C,SW46*
X295400000Y-47750000D03*
D14*
X300400000Y-42600000D03*
G04 #@! TD*
D15*
G04 #@! TO.C,*
X285875000Y-9650000D03*
G04 #@! TD*
D13*
G04 #@! TO.C,SW59*
X262062500Y-66800000D03*
D14*
X267062500Y-61650000D03*
G04 #@! TD*
D13*
G04 #@! TO.C,SW36*
X95375000Y-47750000D03*
D14*
X100375000Y-42600000D03*
G04 #@! TD*
D16*
G04 #@! TO.C,SW85*
X-17300000Y-23000000D03*
D14*
X-17300000Y-25500000D03*
X-17300000Y-28000000D03*
X-20600000Y-28000000D03*
X-20600000Y-25500000D03*
X-20600000Y-23000000D03*
G04 #@! TD*
D17*
G04 #@! TO.C,ROT_SW1*
X-13850000Y-17150000D03*
D18*
X-8850000Y-17150000D03*
X-11350000Y-17150000D03*
D19*
X-16950000Y-9650000D03*
X-5750000Y-9650000D03*
D18*
X-13850000Y-2650000D03*
X-8850000Y-2650000D03*
G04 #@! TD*
D13*
G04 #@! TO.C,SW43*
X228725000Y-47750000D03*
D14*
X233725000Y-42600000D03*
G04 #@! TD*
D13*
G04 #@! TO.C,SW27*
X200150000Y-28700000D03*
D14*
X205150000Y-23550000D03*
G04 #@! TD*
D15*
G04 #@! TO.C,*
X257300000Y-47750000D03*
G04 #@! TD*
D13*
G04 #@! TO.C,SW67*
X143000000Y-85850000D03*
D14*
X148000000Y-80700000D03*
G04 #@! TD*
D13*
G04 #@! TO.C,SW54*
X152525000Y-66800000D03*
D14*
X157525000Y-61650000D03*
G04 #@! TD*
D20*
G04 #@! TO.C,USB_VBUS1*
X-16600000Y-99800000D03*
G04 #@! TD*
D15*
G04 #@! TO.C,*
X200150000Y-66800000D03*
G04 #@! TD*
D13*
G04 #@! TO.C,SW52*
X114425000Y-66800000D03*
D14*
X119425000Y-61650000D03*
G04 #@! TD*
D20*
G04 #@! TO.C,USB_ID1*
X-16600000Y-97260000D03*
G04 #@! TD*
G04 #@! TO.C,USB_DP1*
X-16599293Y-92180000D03*
G04 #@! TD*
D13*
G04 #@! TO.C,SW28*
X219200000Y-28700000D03*
D14*
X224200000Y-23550000D03*
G04 #@! TD*
D13*
G04 #@! TO.C,SW35*
X76325000Y-47750000D03*
D14*
X81325000Y-42600000D03*
G04 #@! TD*
D13*
G04 #@! TO.C,SW25*
X162050000Y-28700000D03*
D14*
X167050000Y-23550000D03*
G04 #@! TD*
D13*
G04 #@! TO.C,SW23*
X123950000Y-28700000D03*
D14*
X128950000Y-23550000D03*
G04 #@! TD*
D21*
G04 #@! TO.C,*
X190625000Y-85850000D03*
G04 #@! TD*
D13*
G04 #@! TO.C,SW42*
X209675000Y-47750000D03*
D14*
X214675000Y-42600000D03*
G04 #@! TD*
D13*
G04 #@! TO.C,SW56*
X190625000Y-66800000D03*
D14*
X195625000Y-61650000D03*
G04 #@! TD*
D13*
G04 #@! TO.C,SW79*
X188243750Y-104900000D03*
D14*
X193243750Y-99750000D03*
G04 #@! TD*
D15*
G04 #@! TO.C,*
X171575000Y-104900000D03*
G04 #@! TD*
D13*
G04 #@! TO.C,SW45*
X271587500Y-47750000D03*
D14*
X276587500Y-42600000D03*
G04 #@! TD*
D13*
G04 #@! TO.C,SW64*
X85850000Y-85850000D03*
D14*
X90850000Y-80700000D03*
G04 #@! TD*
D20*
G04 #@! TO.C,USB_DM1*
X-16599293Y-94720000D03*
G04 #@! TD*
D13*
G04 #@! TO.C,SW9*
X162050000Y-9650000D03*
D14*
X167050000Y-4500000D03*
G04 #@! TD*
D13*
G04 #@! TO.C,SW48*
X38225000Y-66800000D03*
D14*
X43225000Y-61650000D03*
G04 #@! TD*
D13*
G04 #@! TO.C,SW19*
X47750000Y-28700000D03*
D14*
X52750000Y-23550000D03*
G04 #@! TD*
D13*
G04 #@! TO.C,SW70*
X200150000Y-85850000D03*
D14*
X205150000Y-80700000D03*
G04 #@! TD*
D13*
G04 #@! TO.C,SW53*
X133475000Y-66800000D03*
D14*
X138475000Y-61650000D03*
G04 #@! TD*
D20*
G04 #@! TO.C,SOI8_SLCT1*
X-7150000Y-85100000D03*
G04 #@! TD*
D15*
G04 #@! TO.C,*
X-20000000Y-19050000D03*
G04 #@! TD*
D13*
G04 #@! TO.C,SW73*
X276350000Y-85850000D03*
D14*
X281350000Y-80700000D03*
G04 #@! TD*
D13*
G04 #@! TO.C,SW76*
X35843750Y-104900000D03*
D14*
X40843750Y-99750000D03*
G04 #@! TD*
D15*
G04 #@! TO.C,*
X85850000Y-47750000D03*
G04 #@! TD*
D11*
G04 #@! TO.C,J7*
X4950000Y-43250000D03*
X4950000Y-43750000D03*
X4950000Y-44250000D03*
X4950000Y-44750000D03*
X4950000Y-45250000D03*
X4950000Y-45750000D03*
X4950000Y-46250000D03*
X4950000Y-46750000D03*
X4950000Y-47250000D03*
X4950000Y-47750000D03*
X4950000Y-48250000D03*
X4950000Y-48750000D03*
X4950000Y-49250000D03*
X4950000Y-49750000D03*
X4950000Y-50250000D03*
X4950000Y-50750000D03*
X4950000Y-51250000D03*
X4950000Y-51750000D03*
X4950000Y-52250000D03*
X4950000Y-52750000D03*
D10*
X2575000Y-41560000D03*
X2575000Y-54440000D03*
G04 #@! TD*
D15*
G04 #@! TO.C,*
X143000000Y-66800000D03*
G04 #@! TD*
G04 #@! TO.C,*
X-20000000Y-1850000D03*
G04 #@! TD*
D13*
G04 #@! TO.C,SW21*
X85850000Y-28700000D03*
D14*
X90850000Y-23550000D03*
G04 #@! TD*
D13*
G04 #@! TO.C,SW37*
X114425000Y-47750000D03*
D14*
X119425000Y-42600000D03*
G04 #@! TD*
D13*
G04 #@! TO.C,SW34*
X57275000Y-47750000D03*
D14*
X62275000Y-42600000D03*
G04 #@! TD*
D13*
G04 #@! TO.C,SW1*
X9650000Y-9650000D03*
D14*
X14650000Y-4500000D03*
G04 #@! TD*
D13*
G04 #@! TO.C,SW72*
X247775000Y-85850000D03*
D14*
X252775000Y-80700000D03*
G04 #@! TD*
D15*
G04 #@! TO.C,*
X76325000Y-104900000D03*
G04 #@! TD*
D21*
G04 #@! TO.C,*
X38225000Y-28700000D03*
G04 #@! TD*
D22*
G04 #@! TO.C,J5*
X-19350000Y-36650000D03*
D23*
X-17350000Y-36650000D03*
X-15350000Y-36650000D03*
X-13350000Y-36650000D03*
X-11350000Y-36650000D03*
X-9350000Y-36650000D03*
X-7350000Y-36650000D03*
G04 #@! TD*
D13*
G04 #@! TO.C,SW16*
X295400000Y-9650000D03*
D14*
X300400000Y-4500000D03*
G04 #@! TD*
D13*
G04 #@! TO.C,SW51*
X95375000Y-66800000D03*
D14*
X100375000Y-61650000D03*
G04 #@! TD*
D15*
G04 #@! TO.C,*
X114425000Y-9650000D03*
G04 #@! TD*
D13*
G04 #@! TO.C,SW44*
X247775000Y-47750000D03*
D14*
X252775000Y-42600000D03*
G04 #@! TD*
D15*
G04 #@! TO.C,*
X285875000Y-104900000D03*
G04 #@! TD*
D21*
G04 #@! TO.C,*
X114425000Y-28700000D03*
G04 #@! TD*
D13*
G04 #@! TO.C,SW17*
X9650000Y-28700000D03*
D14*
X14650000Y-23550000D03*
G04 #@! TD*
D13*
G04 #@! TO.C,SW29*
X238250000Y-28700000D03*
D14*
X243250000Y-23550000D03*
G04 #@! TD*
D13*
G04 #@! TO.C,SW30*
X266825000Y-28700000D03*
D14*
X271825000Y-23550000D03*
G04 #@! TD*
D13*
G04 #@! TO.C,SW60*
X295400000Y-66800000D03*
D14*
X300400000Y-61650000D03*
G04 #@! TD*
D15*
G04 #@! TO.C,*
X-11350000Y-92000000D03*
G04 #@! TD*
D13*
G04 #@! TO.C,SW31*
X295400000Y-28700000D03*
D14*
X300400000Y-23550000D03*
G04 #@! TD*
D13*
G04 #@! TO.C,SW4*
X66800000Y-9650000D03*
D14*
X71800000Y-4500000D03*
G04 #@! TD*
D13*
G04 #@! TO.C,SW8*
X143000000Y-9650000D03*
D14*
X148000000Y-4500000D03*
G04 #@! TD*
D21*
G04 #@! TO.C,*
X190625000Y-28700000D03*
G04 #@! TD*
D15*
G04 #@! TO.C,*
X143000000Y-47750000D03*
G04 #@! TD*
D13*
G04 #@! TO.C,SW75*
X12031250Y-104900000D03*
D14*
X17031250Y-99750000D03*
G04 #@! TD*
D15*
G04 #@! TO.C,*
X-11350000Y-76500000D03*
G04 #@! TD*
D13*
G04 #@! TO.C,SW15*
X276350000Y-9650000D03*
D14*
X281350000Y-4500000D03*
G04 #@! TD*
D13*
G04 #@! TO.C,SW10*
X181100000Y-9650000D03*
D14*
X186100000Y-4500000D03*
G04 #@! TD*
D13*
G04 #@! TO.C,SW7*
X123950000Y-9650000D03*
D14*
X128950000Y-4500000D03*
G04 #@! TD*
D13*
G04 #@! TO.C,SW18*
X28700000Y-28700000D03*
D14*
X33700000Y-23550000D03*
G04 #@! TD*
D13*
G04 #@! TO.C,SW47*
X14412500Y-66800000D03*
D14*
X19412500Y-61650000D03*
G04 #@! TD*
D13*
G04 #@! TO.C,SW33*
X38225000Y-47750000D03*
D14*
X43225000Y-42600000D03*
G04 #@! TD*
D13*
G04 #@! TO.C,SW20*
X66800000Y-28700000D03*
D14*
X71800000Y-23550000D03*
G04 #@! TD*
D13*
G04 #@! TO.C,SW69*
X181100000Y-85850000D03*
D14*
X186100000Y-80700000D03*
G04 #@! TD*
D13*
G04 #@! TO.C,SW62*
X47750000Y-85850000D03*
D14*
X52750000Y-80700000D03*
G04 #@! TD*
D22*
G04 #@! TO.C,J4*
X-16350000Y-107150000D03*
D23*
X-14350000Y-107150000D03*
X-12350000Y-107150000D03*
X-10350000Y-107150000D03*
X-8350000Y-107150000D03*
X-6350000Y-107150000D03*
G04 #@! TD*
D13*
G04 #@! TO.C,SW58*
X228725000Y-66800000D03*
D14*
X233725000Y-61650000D03*
G04 #@! TD*
D13*
G04 #@! TO.C,SW83*
X276350000Y-104900000D03*
D14*
X281350000Y-99750000D03*
G04 #@! TD*
D13*
G04 #@! TO.C,SW38*
X133475000Y-47750000D03*
D14*
X138475000Y-42600000D03*
G04 #@! TD*
D13*
G04 #@! TO.C,SW32*
X14412500Y-47750000D03*
D14*
X19412500Y-42600000D03*
G04 #@! TD*
D15*
G04 #@! TO.C,*
X200150000Y-47750000D03*
G04 #@! TD*
D13*
G04 #@! TO.C,SW13*
X238250000Y-9650000D03*
D14*
X243250000Y-4500000D03*
G04 #@! TD*
D15*
G04 #@! TO.C,*
X226343750Y-104900000D03*
G04 #@! TD*
D13*
G04 #@! TO.C,SW5*
X85850000Y-9650000D03*
D14*
X90850000Y-4500000D03*
G04 #@! TD*
D13*
G04 #@! TO.C,SW22*
X104900000Y-28700000D03*
D14*
X109900000Y-23550000D03*
G04 #@! TD*
D15*
G04 #@! TO.C,*
X28700000Y-66800000D03*
G04 #@! TD*
D13*
G04 #@! TO.C,SW49*
X57275000Y-66800000D03*
D14*
X62275000Y-61650000D03*
G04 #@! TD*
D13*
G04 #@! TO.C,SW55*
X171575000Y-66800000D03*
D14*
X176575000Y-61650000D03*
G04 #@! TD*
D13*
G04 #@! TO.C,SW84*
X295400000Y-104900000D03*
D14*
X300400000Y-99750000D03*
G04 #@! TD*
D21*
G04 #@! TO.C,*
X114425000Y-85850000D03*
G04 #@! TD*
D13*
G04 #@! TO.C,SW24*
X143000000Y-28700000D03*
D14*
X148000000Y-23550000D03*
G04 #@! TD*
D13*
G04 #@! TO.C,SW71*
X219200000Y-85850000D03*
D14*
X224200000Y-80700000D03*
G04 #@! TD*
D13*
G04 #@! TO.C,SW11*
X200150000Y-9650000D03*
D14*
X205150000Y-4500000D03*
G04 #@! TD*
D13*
G04 #@! TO.C,SW6*
X104900000Y-9650000D03*
D14*
X109900000Y-4500000D03*
G04 #@! TD*
D21*
G04 #@! TO.C,*
X266825000Y-85850000D03*
G04 #@! TD*
D13*
G04 #@! TO.C,SW77*
X59656250Y-104900000D03*
D14*
X64656250Y-99750000D03*
G04 #@! TD*
D13*
G04 #@! TO.C,SW12*
X219200000Y-9650000D03*
D14*
X224200000Y-4500000D03*
G04 #@! TD*
D13*
G04 #@! TO.C,SW78*
X123950000Y-104900000D03*
D14*
X128950000Y-99750000D03*
G04 #@! TD*
D13*
G04 #@! TO.C,SW3*
X47750000Y-9650000D03*
D14*
X52750000Y-4500000D03*
G04 #@! TD*
D13*
G04 #@! TO.C,SW14*
X257300000Y-9650000D03*
D14*
X262300000Y-4500000D03*
G04 #@! TD*
D15*
G04 #@! TO.C,*
X21556250Y-104900000D03*
G04 #@! TD*
G04 #@! TO.C,*
X-2700000Y-19050000D03*
G04 #@! TD*
D13*
G04 #@! TO.C,SW50*
X76325000Y-66800000D03*
D14*
X81325000Y-61650000D03*
G04 #@! TD*
D13*
G04 #@! TO.C,SW80*
X212056250Y-104900000D03*
D14*
X217056250Y-99750000D03*
G04 #@! TD*
D21*
G04 #@! TO.C,*
X38225000Y-85850000D03*
G04 #@! TD*
D13*
G04 #@! TO.C,SW65*
X104900000Y-85850000D03*
D14*
X109900000Y-80700000D03*
G04 #@! TD*
D15*
G04 #@! TO.C,*
X243012500Y-66800000D03*
G04 #@! TD*
D13*
G04 #@! TO.C,SW82*
X257300000Y-104900000D03*
D14*
X262300000Y-99750000D03*
G04 #@! TD*
D13*
G04 #@! TO.C,SW39*
X152525000Y-47750000D03*
D14*
X157525000Y-42600000D03*
G04 #@! TD*
D13*
G04 #@! TO.C,SW66*
X123950000Y-85850000D03*
D14*
X128950000Y-80700000D03*
G04 #@! TD*
D13*
G04 #@! TO.C,SW74*
X295400000Y-85850000D03*
D14*
X300400000Y-80700000D03*
G04 #@! TD*
D20*
G04 #@! TO.C,VBat1*
X-3750000Y-61500000D03*
G04 #@! TD*
D15*
G04 #@! TO.C,*
X190625000Y-9650000D03*
G04 #@! TD*
D13*
G04 #@! TO.C,SW2*
X28700000Y-9650000D03*
D14*
X33700000Y-4500000D03*
G04 #@! TD*
D13*
G04 #@! TO.C,SW57*
X209675000Y-66800000D03*
D14*
X214675000Y-61650000D03*
G04 #@! TD*
D15*
G04 #@! TO.C,*
X85850000Y-66800000D03*
G04 #@! TD*
D13*
G04 #@! TO.C,SW26*
X181100000Y-28700000D03*
D14*
X186100000Y-23550000D03*
G04 #@! TD*
D13*
G04 #@! TO.C,SW41*
X190625000Y-47750000D03*
D14*
X195625000Y-42600000D03*
G04 #@! TD*
D15*
G04 #@! TO.C,*
X-2700000Y-1850000D03*
G04 #@! TD*
G04 #@! TO.C,*
X19175000Y-9650000D03*
G04 #@! TD*
D13*
G04 #@! TO.C,SW81*
X235868750Y-104900000D03*
D14*
X240868750Y-99750000D03*
G04 #@! TD*
D15*
G04 #@! TO.C,*
X28700000Y-47750000D03*
G04 #@! TD*
D24*
G04 #@! TO.C,CAPS_LED1*
X3150000Y-69400000D03*
X4650000Y-69400000D03*
X3150000Y-64200000D03*
D25*
X4650000Y-64200000D03*
G04 #@! TD*
D13*
G04 #@! TO.C,SW63*
X66800000Y-85850000D03*
D14*
X71800000Y-80700000D03*
G04 #@! TD*
D21*
G04 #@! TO.C,*
X247775000Y-28700000D03*
G04 #@! TD*
D13*
G04 #@! TO.C,SW61*
X19175000Y-85850000D03*
D14*
X24175000Y-80700000D03*
G04 #@! TD*
D13*
G04 #@! TO.C,SW68*
X162050000Y-85850000D03*
D14*
X167050000Y-80700000D03*
G04 #@! TD*
D22*
G04 #@! TO.C,J3*
X-12850000Y-25650000D03*
D23*
X-10850000Y-25650000D03*
X-8850000Y-25650000D03*
X-6850000Y-25650000D03*
X-4850000Y-25650000D03*
G04 #@! TD*
D26*
G04 #@! TO.C,U1*
X-18950000Y-112500000D03*
D27*
X-18950000Y-109960000D03*
X-18950000Y-107420000D03*
X-18950000Y-104880000D03*
X-18950000Y-102340000D03*
X-18950000Y-99800000D03*
X-18950000Y-97260000D03*
X-18950000Y-94720000D03*
X-18950000Y-92180000D03*
X-18950000Y-89640000D03*
X-18950000Y-87100000D03*
X-18950000Y-84560000D03*
X-18950000Y-82020000D03*
X-18950000Y-79480000D03*
X-18950000Y-76940000D03*
X-18950000Y-74400000D03*
X-18950000Y-71860000D03*
X-18950000Y-69320000D03*
X-18950000Y-66780000D03*
X-18950000Y-64240000D03*
X-3750000Y-64240000D03*
X-3750000Y-66780000D03*
X-3750000Y-69320000D03*
X-3750000Y-71860000D03*
X-3750000Y-74400000D03*
X-3750000Y-76940000D03*
X-3750000Y-79480000D03*
X-3750000Y-82020000D03*
X-3750000Y-84560000D03*
X-3750000Y-87100000D03*
X-3750000Y-89640000D03*
X-3750000Y-92180000D03*
X-3750000Y-94720000D03*
X-3750000Y-97260000D03*
X-3750000Y-99800000D03*
X-3750000Y-102340000D03*
X-3750000Y-104880000D03*
X-3750000Y-107420000D03*
X-3750000Y-109960000D03*
D26*
X-3750000Y-112500000D03*
D28*
X-15150000Y-68000000D03*
D27*
X-12650000Y-68000000D03*
X-10150000Y-68000000D03*
X-7550000Y-68000000D03*
G04 #@! TD*
M02*
