G04 #@! TF.GenerationSoftware,KiCad,Pcbnew,9.0.4*
G04 #@! TF.CreationDate,2025-10-25T11:36:41+08:00*
G04 #@! TF.ProjectId,Custom Mechanical Keyboard,43757374-6f6d-4204-9d65-6368616e6963,rev?*
G04 #@! TF.SameCoordinates,PX3f778f0PY2d4cae0*
G04 #@! TF.FileFunction,Other,Comment*
%FSLAX46Y46*%
G04 Gerber Fmt 4.6, Leading zero omitted, Abs format (unit mm)*
G04 Created by KiCad (PCBNEW 9.0.4) date 2025-10-25 11:36:41*
%MOMM*%
%LPD*%
G01*
G04 APERTURE LIST*
%ADD10C,0.800000*%
%ADD11C,0.300000*%
%ADD12C,0.150000*%
%ADD13C,0.100000*%
G04 APERTURE END LIST*
D10*
X-425000Y1600000D02*
X-425000Y-114500000D01*
D11*
X-3710714Y3799172D02*
X-3210714Y2299172D01*
X-3210714Y2299172D02*
X-2710714Y3799172D01*
X-2210715Y2870600D02*
X-1067857Y2870600D01*
X503571Y2442029D02*
X432143Y2370600D01*
X432143Y2370600D02*
X217857Y2299172D01*
X217857Y2299172D02*
X75000Y2299172D01*
X75000Y2299172D02*
X-139286Y2370600D01*
X-139286Y2370600D02*
X-282143Y2513458D01*
X-282143Y2513458D02*
X-353572Y2656315D01*
X-353572Y2656315D02*
X-425000Y2942029D01*
X-425000Y2942029D02*
X-425000Y3156315D01*
X-425000Y3156315D02*
X-353572Y3442029D01*
X-353572Y3442029D02*
X-282143Y3584886D01*
X-282143Y3584886D02*
X-139286Y3727743D01*
X-139286Y3727743D02*
X75000Y3799172D01*
X75000Y3799172D02*
X217857Y3799172D01*
X217857Y3799172D02*
X432143Y3727743D01*
X432143Y3727743D02*
X503571Y3656315D01*
X1789286Y3299172D02*
X1789286Y2299172D01*
X1146428Y3299172D02*
X1146428Y2513458D01*
X1146428Y2513458D02*
X1217857Y2370600D01*
X1217857Y2370600D02*
X1360714Y2299172D01*
X1360714Y2299172D02*
X1575000Y2299172D01*
X1575000Y2299172D02*
X1717857Y2370600D01*
X1717857Y2370600D02*
X1789286Y2442029D01*
X2289286Y3299172D02*
X2860714Y3299172D01*
X2503571Y3799172D02*
X2503571Y2513458D01*
X2503571Y2513458D02*
X2575000Y2370600D01*
X2575000Y2370600D02*
X2717857Y2299172D01*
X2717857Y2299172D02*
X2860714Y2299172D01*
D12*
X118330952Y-97179200D02*
X118473809Y-97226819D01*
X118473809Y-97226819D02*
X118711904Y-97226819D01*
X118711904Y-97226819D02*
X118807142Y-97179200D01*
X118807142Y-97179200D02*
X118854761Y-97131580D01*
X118854761Y-97131580D02*
X118902380Y-97036342D01*
X118902380Y-97036342D02*
X118902380Y-96941104D01*
X118902380Y-96941104D02*
X118854761Y-96845866D01*
X118854761Y-96845866D02*
X118807142Y-96798247D01*
X118807142Y-96798247D02*
X118711904Y-96750628D01*
X118711904Y-96750628D02*
X118521428Y-96703009D01*
X118521428Y-96703009D02*
X118426190Y-96655390D01*
X118426190Y-96655390D02*
X118378571Y-96607771D01*
X118378571Y-96607771D02*
X118330952Y-96512533D01*
X118330952Y-96512533D02*
X118330952Y-96417295D01*
X118330952Y-96417295D02*
X118378571Y-96322057D01*
X118378571Y-96322057D02*
X118426190Y-96274438D01*
X118426190Y-96274438D02*
X118521428Y-96226819D01*
X118521428Y-96226819D02*
X118759523Y-96226819D01*
X118759523Y-96226819D02*
X118902380Y-96274438D01*
X119188095Y-96226819D02*
X119759523Y-96226819D01*
X119473809Y-97226819D02*
X119473809Y-96226819D01*
X120045238Y-96941104D02*
X120521428Y-96941104D01*
X119950000Y-97226819D02*
X120283333Y-96226819D01*
X120283333Y-96226819D02*
X120616666Y-97226819D01*
X121283333Y-96703009D02*
X121426190Y-96750628D01*
X121426190Y-96750628D02*
X121473809Y-96798247D01*
X121473809Y-96798247D02*
X121521428Y-96893485D01*
X121521428Y-96893485D02*
X121521428Y-97036342D01*
X121521428Y-97036342D02*
X121473809Y-97131580D01*
X121473809Y-97131580D02*
X121426190Y-97179200D01*
X121426190Y-97179200D02*
X121330952Y-97226819D01*
X121330952Y-97226819D02*
X120950000Y-97226819D01*
X120950000Y-97226819D02*
X120950000Y-96226819D01*
X120950000Y-96226819D02*
X121283333Y-96226819D01*
X121283333Y-96226819D02*
X121378571Y-96274438D01*
X121378571Y-96274438D02*
X121426190Y-96322057D01*
X121426190Y-96322057D02*
X121473809Y-96417295D01*
X121473809Y-96417295D02*
X121473809Y-96512533D01*
X121473809Y-96512533D02*
X121426190Y-96607771D01*
X121426190Y-96607771D02*
X121378571Y-96655390D01*
X121378571Y-96655390D02*
X121283333Y-96703009D01*
X121283333Y-96703009D02*
X120950000Y-96703009D01*
X121711905Y-97322057D02*
X122473809Y-97322057D01*
X122711905Y-97226819D02*
X122711905Y-96226819D01*
X122711905Y-96226819D02*
X123045238Y-96941104D01*
X123045238Y-96941104D02*
X123378571Y-96226819D01*
X123378571Y-96226819D02*
X123378571Y-97226819D01*
X123759524Y-96226819D02*
X124426190Y-97226819D01*
X124426190Y-96226819D02*
X123759524Y-97226819D01*
X124569048Y-97322057D02*
X125330952Y-97322057D01*
X126045238Y-97226819D02*
X125569048Y-97226819D01*
X125569048Y-97226819D02*
X125569048Y-96226819D01*
X126378572Y-97226819D02*
X126378572Y-96226819D01*
X126378572Y-96226819D02*
X126759524Y-96226819D01*
X126759524Y-96226819D02*
X126854762Y-96274438D01*
X126854762Y-96274438D02*
X126902381Y-96322057D01*
X126902381Y-96322057D02*
X126950000Y-96417295D01*
X126950000Y-96417295D02*
X126950000Y-96560152D01*
X126950000Y-96560152D02*
X126902381Y-96655390D01*
X126902381Y-96655390D02*
X126854762Y-96703009D01*
X126854762Y-96703009D02*
X126759524Y-96750628D01*
X126759524Y-96750628D02*
X126378572Y-96750628D01*
X127140477Y-97322057D02*
X127902381Y-97322057D01*
X128616667Y-96226819D02*
X128140477Y-96226819D01*
X128140477Y-96226819D02*
X128092858Y-96703009D01*
X128092858Y-96703009D02*
X128140477Y-96655390D01*
X128140477Y-96655390D02*
X128235715Y-96607771D01*
X128235715Y-96607771D02*
X128473810Y-96607771D01*
X128473810Y-96607771D02*
X128569048Y-96655390D01*
X128569048Y-96655390D02*
X128616667Y-96703009D01*
X128616667Y-96703009D02*
X128664286Y-96798247D01*
X128664286Y-96798247D02*
X128664286Y-97036342D01*
X128664286Y-97036342D02*
X128616667Y-97131580D01*
X128616667Y-97131580D02*
X128569048Y-97179200D01*
X128569048Y-97179200D02*
X128473810Y-97226819D01*
X128473810Y-97226819D02*
X128235715Y-97226819D01*
X128235715Y-97226819D02*
X128140477Y-97179200D01*
X128140477Y-97179200D02*
X128092858Y-97131580D01*
X129521429Y-96560152D02*
X129521429Y-97226819D01*
X129092858Y-96560152D02*
X129092858Y-97083961D01*
X129092858Y-97083961D02*
X129140477Y-97179200D01*
X129140477Y-97179200D02*
X129235715Y-97226819D01*
X129235715Y-97226819D02*
X129378572Y-97226819D01*
X129378572Y-97226819D02*
X129473810Y-97179200D01*
X129473810Y-97179200D02*
X129521429Y-97131580D01*
X-13325705Y-51714285D02*
X-13325705Y-51866666D01*
X-13325705Y-51866666D02*
X-13287610Y-51942857D01*
X-13287610Y-51942857D02*
X-13249515Y-51980952D01*
X-13249515Y-51980952D02*
X-13135229Y-52057142D01*
X-13135229Y-52057142D02*
X-12982848Y-52095238D01*
X-12982848Y-52095238D02*
X-12678086Y-52095238D01*
X-12678086Y-52095238D02*
X-12601896Y-52057142D01*
X-12601896Y-52057142D02*
X-12563800Y-52019047D01*
X-12563800Y-52019047D02*
X-12525705Y-51942857D01*
X-12525705Y-51942857D02*
X-12525705Y-51790476D01*
X-12525705Y-51790476D02*
X-12563800Y-51714285D01*
X-12563800Y-51714285D02*
X-12601896Y-51676190D01*
X-12601896Y-51676190D02*
X-12678086Y-51638095D01*
X-12678086Y-51638095D02*
X-12868562Y-51638095D01*
X-12868562Y-51638095D02*
X-12944753Y-51676190D01*
X-12944753Y-51676190D02*
X-12982848Y-51714285D01*
X-12982848Y-51714285D02*
X-13020943Y-51790476D01*
X-13020943Y-51790476D02*
X-13020943Y-51942857D01*
X-13020943Y-51942857D02*
X-12982848Y-52019047D01*
X-12982848Y-52019047D02*
X-12944753Y-52057142D01*
X-12944753Y-52057142D02*
X-12868562Y-52095238D01*
X-12525705Y-51295237D02*
X-13059039Y-51295237D01*
X-12982848Y-51295237D02*
X-13020943Y-51257142D01*
X-13020943Y-51257142D02*
X-13059039Y-51180952D01*
X-13059039Y-51180952D02*
X-13059039Y-51066666D01*
X-13059039Y-51066666D02*
X-13020943Y-50990475D01*
X-13020943Y-50990475D02*
X-12944753Y-50952380D01*
X-12944753Y-50952380D02*
X-12525705Y-50952380D01*
X-12944753Y-50952380D02*
X-13020943Y-50914285D01*
X-13020943Y-50914285D02*
X-13059039Y-50838094D01*
X-13059039Y-50838094D02*
X-13059039Y-50723809D01*
X-13059039Y-50723809D02*
X-13020943Y-50647618D01*
X-13020943Y-50647618D02*
X-12944753Y-50609523D01*
X-12944753Y-50609523D02*
X-12525705Y-50609523D01*
X-12525705Y-50228570D02*
X-13059039Y-50228570D01*
X-12982848Y-50228570D02*
X-13020943Y-50190475D01*
X-13020943Y-50190475D02*
X-13059039Y-50114285D01*
X-13059039Y-50114285D02*
X-13059039Y-49999999D01*
X-13059039Y-49999999D02*
X-13020943Y-49923808D01*
X-13020943Y-49923808D02*
X-12944753Y-49885713D01*
X-12944753Y-49885713D02*
X-12525705Y-49885713D01*
X-12944753Y-49885713D02*
X-13020943Y-49847618D01*
X-13020943Y-49847618D02*
X-13059039Y-49771427D01*
X-13059039Y-49771427D02*
X-13059039Y-49657142D01*
X-13059039Y-49657142D02*
X-13020943Y-49580951D01*
X-13020943Y-49580951D02*
X-12944753Y-49542856D01*
X-12944753Y-49542856D02*
X-12525705Y-49542856D01*
X-12563800Y-48590475D02*
X-12525705Y-48514284D01*
X-12525705Y-48514284D02*
X-12525705Y-48361903D01*
X-12525705Y-48361903D02*
X-12563800Y-48285713D01*
X-12563800Y-48285713D02*
X-12639991Y-48247617D01*
X-12639991Y-48247617D02*
X-12678086Y-48247617D01*
X-12678086Y-48247617D02*
X-12754277Y-48285713D01*
X-12754277Y-48285713D02*
X-12792372Y-48361903D01*
X-12792372Y-48361903D02*
X-12792372Y-48476189D01*
X-12792372Y-48476189D02*
X-12830467Y-48552379D01*
X-12830467Y-48552379D02*
X-12906658Y-48590475D01*
X-12906658Y-48590475D02*
X-12944753Y-48590475D01*
X-12944753Y-48590475D02*
X-13020943Y-48552379D01*
X-13020943Y-48552379D02*
X-13059039Y-48476189D01*
X-13059039Y-48476189D02*
X-13059039Y-48361903D01*
X-13059039Y-48361903D02*
X-13020943Y-48285713D01*
X-13059039Y-48019046D02*
X-13059039Y-47714284D01*
X-13325705Y-47904760D02*
X-12639991Y-47904760D01*
X-12639991Y-47904760D02*
X-12563800Y-47866665D01*
X-12563800Y-47866665D02*
X-12525705Y-47790475D01*
X-12525705Y-47790475D02*
X-12525705Y-47714284D01*
X-12525705Y-47447617D02*
X-13059039Y-47447617D01*
X-13325705Y-47447617D02*
X-13287610Y-47485713D01*
X-13287610Y-47485713D02*
X-13249515Y-47447617D01*
X-13249515Y-47447617D02*
X-13287610Y-47409522D01*
X-13287610Y-47409522D02*
X-13325705Y-47447617D01*
X-13325705Y-47447617D02*
X-13249515Y-47447617D01*
X-13059039Y-47180951D02*
X-13059039Y-46876189D01*
X-12525705Y-47066665D02*
X-13211420Y-47066665D01*
X-13211420Y-47066665D02*
X-13287610Y-47028570D01*
X-13287610Y-47028570D02*
X-13325705Y-46952380D01*
X-13325705Y-46952380D02*
X-13325705Y-46876189D01*
X-13059039Y-46723808D02*
X-13059039Y-46419046D01*
X-12525705Y-46609522D02*
X-13211420Y-46609522D01*
X-13211420Y-46609522D02*
X-13287610Y-46571427D01*
X-13287610Y-46571427D02*
X-13325705Y-46495237D01*
X-13325705Y-46495237D02*
X-13325705Y-46419046D01*
X-12563800Y-45847617D02*
X-12525705Y-45923808D01*
X-12525705Y-45923808D02*
X-12525705Y-46076189D01*
X-12525705Y-46076189D02*
X-12563800Y-46152379D01*
X-12563800Y-46152379D02*
X-12639991Y-46190475D01*
X-12639991Y-46190475D02*
X-12944753Y-46190475D01*
X-12944753Y-46190475D02*
X-13020943Y-46152379D01*
X-13020943Y-46152379D02*
X-13059039Y-46076189D01*
X-13059039Y-46076189D02*
X-13059039Y-45923808D01*
X-13059039Y-45923808D02*
X-13020943Y-45847617D01*
X-13020943Y-45847617D02*
X-12944753Y-45809522D01*
X-12944753Y-45809522D02*
X-12868562Y-45809522D01*
X-12868562Y-45809522D02*
X-12792372Y-46190475D01*
X-13059039Y-45466665D02*
X-12525705Y-45466665D01*
X-12982848Y-45466665D02*
X-13020943Y-45428570D01*
X-13020943Y-45428570D02*
X-13059039Y-45352380D01*
X-13059039Y-45352380D02*
X-13059039Y-45238094D01*
X-13059039Y-45238094D02*
X-13020943Y-45161903D01*
X-13020943Y-45161903D02*
X-12944753Y-45123808D01*
X-12944753Y-45123808D02*
X-12525705Y-45123808D01*
X-12563800Y-44438093D02*
X-12525705Y-44514284D01*
X-12525705Y-44514284D02*
X-12525705Y-44666665D01*
X-12525705Y-44666665D02*
X-12563800Y-44742855D01*
X-12563800Y-44742855D02*
X-12639991Y-44780951D01*
X-12639991Y-44780951D02*
X-12944753Y-44780951D01*
X-12944753Y-44780951D02*
X-13020943Y-44742855D01*
X-13020943Y-44742855D02*
X-13059039Y-44666665D01*
X-13059039Y-44666665D02*
X-13059039Y-44514284D01*
X-13059039Y-44514284D02*
X-13020943Y-44438093D01*
X-13020943Y-44438093D02*
X-12944753Y-44399998D01*
X-12944753Y-44399998D02*
X-12868562Y-44399998D01*
X-12868562Y-44399998D02*
X-12792372Y-44780951D01*
X-12525705Y-44057141D02*
X-13059039Y-44057141D01*
X-12906658Y-44057141D02*
X-12982848Y-44019046D01*
X-12982848Y-44019046D02*
X-13020943Y-43980951D01*
X-13020943Y-43980951D02*
X-13059039Y-43904760D01*
X-13059039Y-43904760D02*
X-13059039Y-43828570D01*
X-8001896Y-52780953D02*
X-7963800Y-52819049D01*
X-7963800Y-52819049D02*
X-7925705Y-52933334D01*
X-7925705Y-52933334D02*
X-7925705Y-53009525D01*
X-7925705Y-53009525D02*
X-7963800Y-53123811D01*
X-7963800Y-53123811D02*
X-8039991Y-53200001D01*
X-8039991Y-53200001D02*
X-8116181Y-53238096D01*
X-8116181Y-53238096D02*
X-8268562Y-53276192D01*
X-8268562Y-53276192D02*
X-8382848Y-53276192D01*
X-8382848Y-53276192D02*
X-8535229Y-53238096D01*
X-8535229Y-53238096D02*
X-8611420Y-53200001D01*
X-8611420Y-53200001D02*
X-8687610Y-53123811D01*
X-8687610Y-53123811D02*
X-8725705Y-53009525D01*
X-8725705Y-53009525D02*
X-8725705Y-52933334D01*
X-8725705Y-52933334D02*
X-8687610Y-52819049D01*
X-8687610Y-52819049D02*
X-8649515Y-52780953D01*
X-7925705Y-52095239D02*
X-8344753Y-52095239D01*
X-8344753Y-52095239D02*
X-8420943Y-52133334D01*
X-8420943Y-52133334D02*
X-8459039Y-52209525D01*
X-8459039Y-52209525D02*
X-8459039Y-52361906D01*
X-8459039Y-52361906D02*
X-8420943Y-52438096D01*
X-7963800Y-52095239D02*
X-7925705Y-52171430D01*
X-7925705Y-52171430D02*
X-7925705Y-52361906D01*
X-7925705Y-52361906D02*
X-7963800Y-52438096D01*
X-7963800Y-52438096D02*
X-8039991Y-52476192D01*
X-8039991Y-52476192D02*
X-8116181Y-52476192D01*
X-8116181Y-52476192D02*
X-8192372Y-52438096D01*
X-8192372Y-52438096D02*
X-8230467Y-52361906D01*
X-8230467Y-52361906D02*
X-8230467Y-52171430D01*
X-8230467Y-52171430D02*
X-8268562Y-52095239D01*
X-7925705Y-51714286D02*
X-8725705Y-51714286D01*
X-8420943Y-51714286D02*
X-8459039Y-51638096D01*
X-8459039Y-51638096D02*
X-8459039Y-51485715D01*
X-8459039Y-51485715D02*
X-8420943Y-51409524D01*
X-8420943Y-51409524D02*
X-8382848Y-51371429D01*
X-8382848Y-51371429D02*
X-8306658Y-51333334D01*
X-8306658Y-51333334D02*
X-8078086Y-51333334D01*
X-8078086Y-51333334D02*
X-8001896Y-51371429D01*
X-8001896Y-51371429D02*
X-7963800Y-51409524D01*
X-7963800Y-51409524D02*
X-7925705Y-51485715D01*
X-7925705Y-51485715D02*
X-7925705Y-51638096D01*
X-7925705Y-51638096D02*
X-7963800Y-51714286D01*
X-7925705Y-50876191D02*
X-7963800Y-50952381D01*
X-7963800Y-50952381D02*
X-8039991Y-50990476D01*
X-8039991Y-50990476D02*
X-8725705Y-50990476D01*
X-7963800Y-50266666D02*
X-7925705Y-50342857D01*
X-7925705Y-50342857D02*
X-7925705Y-50495238D01*
X-7925705Y-50495238D02*
X-7963800Y-50571428D01*
X-7963800Y-50571428D02*
X-8039991Y-50609524D01*
X-8039991Y-50609524D02*
X-8344753Y-50609524D01*
X-8344753Y-50609524D02*
X-8420943Y-50571428D01*
X-8420943Y-50571428D02*
X-8459039Y-50495238D01*
X-8459039Y-50495238D02*
X-8459039Y-50342857D01*
X-8459039Y-50342857D02*
X-8420943Y-50266666D01*
X-8420943Y-50266666D02*
X-8344753Y-50228571D01*
X-8344753Y-50228571D02*
X-8268562Y-50228571D01*
X-8268562Y-50228571D02*
X-8192372Y-50609524D01*
X-7963800Y-48971428D02*
X-7925705Y-49047619D01*
X-7925705Y-49047619D02*
X-7925705Y-49200000D01*
X-7925705Y-49200000D02*
X-7963800Y-49276190D01*
X-7963800Y-49276190D02*
X-8039991Y-49314286D01*
X-8039991Y-49314286D02*
X-8344753Y-49314286D01*
X-8344753Y-49314286D02*
X-8420943Y-49276190D01*
X-8420943Y-49276190D02*
X-8459039Y-49200000D01*
X-8459039Y-49200000D02*
X-8459039Y-49047619D01*
X-8459039Y-49047619D02*
X-8420943Y-48971428D01*
X-8420943Y-48971428D02*
X-8344753Y-48933333D01*
X-8344753Y-48933333D02*
X-8268562Y-48933333D01*
X-8268562Y-48933333D02*
X-8192372Y-49314286D01*
X-8459039Y-48590476D02*
X-7925705Y-48590476D01*
X-8382848Y-48590476D02*
X-8420943Y-48552381D01*
X-8420943Y-48552381D02*
X-8459039Y-48476191D01*
X-8459039Y-48476191D02*
X-8459039Y-48361905D01*
X-8459039Y-48361905D02*
X-8420943Y-48285714D01*
X-8420943Y-48285714D02*
X-8344753Y-48247619D01*
X-8344753Y-48247619D02*
X-7925705Y-48247619D01*
X-8459039Y-47980952D02*
X-8459039Y-47676190D01*
X-8725705Y-47866666D02*
X-8039991Y-47866666D01*
X-8039991Y-47866666D02*
X-7963800Y-47828571D01*
X-7963800Y-47828571D02*
X-7925705Y-47752381D01*
X-7925705Y-47752381D02*
X-7925705Y-47676190D01*
X-7925705Y-47409523D02*
X-8459039Y-47409523D01*
X-8306658Y-47409523D02*
X-8382848Y-47371428D01*
X-8382848Y-47371428D02*
X-8420943Y-47333333D01*
X-8420943Y-47333333D02*
X-8459039Y-47257142D01*
X-8459039Y-47257142D02*
X-8459039Y-47180952D01*
X-8459039Y-46990476D02*
X-7925705Y-46800000D01*
X-8459039Y-46609523D02*
X-7925705Y-46800000D01*
X-7925705Y-46800000D02*
X-7735229Y-46876190D01*
X-7735229Y-46876190D02*
X-7697134Y-46914285D01*
X-7697134Y-46914285D02*
X-7659039Y-46990476D01*
X-7925705Y-45352380D02*
X-8725705Y-45352380D01*
X-7963800Y-45352380D02*
X-7925705Y-45428571D01*
X-7925705Y-45428571D02*
X-7925705Y-45580952D01*
X-7925705Y-45580952D02*
X-7963800Y-45657142D01*
X-7963800Y-45657142D02*
X-8001896Y-45695237D01*
X-8001896Y-45695237D02*
X-8078086Y-45733333D01*
X-8078086Y-45733333D02*
X-8306658Y-45733333D01*
X-8306658Y-45733333D02*
X-8382848Y-45695237D01*
X-8382848Y-45695237D02*
X-8420943Y-45657142D01*
X-8420943Y-45657142D02*
X-8459039Y-45580952D01*
X-8459039Y-45580952D02*
X-8459039Y-45428571D01*
X-8459039Y-45428571D02*
X-8420943Y-45352380D01*
X-7963800Y-44666665D02*
X-7925705Y-44742856D01*
X-7925705Y-44742856D02*
X-7925705Y-44895237D01*
X-7925705Y-44895237D02*
X-7963800Y-44971427D01*
X-7963800Y-44971427D02*
X-8039991Y-45009523D01*
X-8039991Y-45009523D02*
X-8344753Y-45009523D01*
X-8344753Y-45009523D02*
X-8420943Y-44971427D01*
X-8420943Y-44971427D02*
X-8459039Y-44895237D01*
X-8459039Y-44895237D02*
X-8459039Y-44742856D01*
X-8459039Y-44742856D02*
X-8420943Y-44666665D01*
X-8420943Y-44666665D02*
X-8344753Y-44628570D01*
X-8344753Y-44628570D02*
X-8268562Y-44628570D01*
X-8268562Y-44628570D02*
X-8192372Y-45009523D01*
X-8459039Y-44285713D02*
X-7659039Y-44285713D01*
X-8420943Y-44285713D02*
X-8459039Y-44209523D01*
X-8459039Y-44209523D02*
X-8459039Y-44057142D01*
X-8459039Y-44057142D02*
X-8420943Y-43980951D01*
X-8420943Y-43980951D02*
X-8382848Y-43942856D01*
X-8382848Y-43942856D02*
X-8306658Y-43904761D01*
X-8306658Y-43904761D02*
X-8078086Y-43904761D01*
X-8078086Y-43904761D02*
X-8001896Y-43942856D01*
X-8001896Y-43942856D02*
X-7963800Y-43980951D01*
X-7963800Y-43980951D02*
X-7925705Y-44057142D01*
X-7925705Y-44057142D02*
X-7925705Y-44209523D01*
X-7925705Y-44209523D02*
X-7963800Y-44285713D01*
X-8459039Y-43676189D02*
X-8459039Y-43371427D01*
X-8725705Y-43561903D02*
X-8039991Y-43561903D01*
X-8039991Y-43561903D02*
X-7963800Y-43523808D01*
X-7963800Y-43523808D02*
X-7925705Y-43447618D01*
X-7925705Y-43447618D02*
X-7925705Y-43371427D01*
X-7925705Y-43104760D02*
X-8725705Y-43104760D01*
X-7925705Y-42761903D02*
X-8344753Y-42761903D01*
X-8344753Y-42761903D02*
X-8420943Y-42799998D01*
X-8420943Y-42799998D02*
X-8459039Y-42876189D01*
X-8459039Y-42876189D02*
X-8459039Y-42990475D01*
X-8459039Y-42990475D02*
X-8420943Y-43066665D01*
X-8420943Y-43066665D02*
X-8382848Y-43104760D01*
X-14982848Y-51942857D02*
X-15020943Y-52019047D01*
X-15020943Y-52019047D02*
X-15059039Y-52057142D01*
X-15059039Y-52057142D02*
X-15135229Y-52095238D01*
X-15135229Y-52095238D02*
X-15173324Y-52095238D01*
X-15173324Y-52095238D02*
X-15249515Y-52057142D01*
X-15249515Y-52057142D02*
X-15287610Y-52019047D01*
X-15287610Y-52019047D02*
X-15325705Y-51942857D01*
X-15325705Y-51942857D02*
X-15325705Y-51790476D01*
X-15325705Y-51790476D02*
X-15287610Y-51714285D01*
X-15287610Y-51714285D02*
X-15249515Y-51676190D01*
X-15249515Y-51676190D02*
X-15173324Y-51638095D01*
X-15173324Y-51638095D02*
X-15135229Y-51638095D01*
X-15135229Y-51638095D02*
X-15059039Y-51676190D01*
X-15059039Y-51676190D02*
X-15020943Y-51714285D01*
X-15020943Y-51714285D02*
X-14982848Y-51790476D01*
X-14982848Y-51790476D02*
X-14982848Y-51942857D01*
X-14982848Y-51942857D02*
X-14944753Y-52019047D01*
X-14944753Y-52019047D02*
X-14906658Y-52057142D01*
X-14906658Y-52057142D02*
X-14830467Y-52095238D01*
X-14830467Y-52095238D02*
X-14678086Y-52095238D01*
X-14678086Y-52095238D02*
X-14601896Y-52057142D01*
X-14601896Y-52057142D02*
X-14563800Y-52019047D01*
X-14563800Y-52019047D02*
X-14525705Y-51942857D01*
X-14525705Y-51942857D02*
X-14525705Y-51790476D01*
X-14525705Y-51790476D02*
X-14563800Y-51714285D01*
X-14563800Y-51714285D02*
X-14601896Y-51676190D01*
X-14601896Y-51676190D02*
X-14678086Y-51638095D01*
X-14678086Y-51638095D02*
X-14830467Y-51638095D01*
X-14830467Y-51638095D02*
X-14906658Y-51676190D01*
X-14906658Y-51676190D02*
X-14944753Y-51714285D01*
X-14944753Y-51714285D02*
X-14982848Y-51790476D01*
X-14525705Y-51295237D02*
X-15059039Y-51295237D01*
X-14982848Y-51295237D02*
X-15020943Y-51257142D01*
X-15020943Y-51257142D02*
X-15059039Y-51180952D01*
X-15059039Y-51180952D02*
X-15059039Y-51066666D01*
X-15059039Y-51066666D02*
X-15020943Y-50990475D01*
X-15020943Y-50990475D02*
X-14944753Y-50952380D01*
X-14944753Y-50952380D02*
X-14525705Y-50952380D01*
X-14944753Y-50952380D02*
X-15020943Y-50914285D01*
X-15020943Y-50914285D02*
X-15059039Y-50838094D01*
X-15059039Y-50838094D02*
X-15059039Y-50723809D01*
X-15059039Y-50723809D02*
X-15020943Y-50647618D01*
X-15020943Y-50647618D02*
X-14944753Y-50609523D01*
X-14944753Y-50609523D02*
X-14525705Y-50609523D01*
X-14525705Y-50228570D02*
X-15059039Y-50228570D01*
X-14982848Y-50228570D02*
X-15020943Y-50190475D01*
X-15020943Y-50190475D02*
X-15059039Y-50114285D01*
X-15059039Y-50114285D02*
X-15059039Y-49999999D01*
X-15059039Y-49999999D02*
X-15020943Y-49923808D01*
X-15020943Y-49923808D02*
X-14944753Y-49885713D01*
X-14944753Y-49885713D02*
X-14525705Y-49885713D01*
X-14944753Y-49885713D02*
X-15020943Y-49847618D01*
X-15020943Y-49847618D02*
X-15059039Y-49771427D01*
X-15059039Y-49771427D02*
X-15059039Y-49657142D01*
X-15059039Y-49657142D02*
X-15020943Y-49580951D01*
X-15020943Y-49580951D02*
X-14944753Y-49542856D01*
X-14944753Y-49542856D02*
X-14525705Y-49542856D01*
X-14563800Y-48590475D02*
X-14525705Y-48514284D01*
X-14525705Y-48514284D02*
X-14525705Y-48361903D01*
X-14525705Y-48361903D02*
X-14563800Y-48285713D01*
X-14563800Y-48285713D02*
X-14639991Y-48247617D01*
X-14639991Y-48247617D02*
X-14678086Y-48247617D01*
X-14678086Y-48247617D02*
X-14754277Y-48285713D01*
X-14754277Y-48285713D02*
X-14792372Y-48361903D01*
X-14792372Y-48361903D02*
X-14792372Y-48476189D01*
X-14792372Y-48476189D02*
X-14830467Y-48552379D01*
X-14830467Y-48552379D02*
X-14906658Y-48590475D01*
X-14906658Y-48590475D02*
X-14944753Y-48590475D01*
X-14944753Y-48590475D02*
X-15020943Y-48552379D01*
X-15020943Y-48552379D02*
X-15059039Y-48476189D01*
X-15059039Y-48476189D02*
X-15059039Y-48361903D01*
X-15059039Y-48361903D02*
X-15020943Y-48285713D01*
X-15059039Y-48019046D02*
X-15059039Y-47714284D01*
X-15325705Y-47904760D02*
X-14639991Y-47904760D01*
X-14639991Y-47904760D02*
X-14563800Y-47866665D01*
X-14563800Y-47866665D02*
X-14525705Y-47790475D01*
X-14525705Y-47790475D02*
X-14525705Y-47714284D01*
X-14525705Y-47447617D02*
X-15059039Y-47447617D01*
X-15325705Y-47447617D02*
X-15287610Y-47485713D01*
X-15287610Y-47485713D02*
X-15249515Y-47447617D01*
X-15249515Y-47447617D02*
X-15287610Y-47409522D01*
X-15287610Y-47409522D02*
X-15325705Y-47447617D01*
X-15325705Y-47447617D02*
X-15249515Y-47447617D01*
X-15059039Y-47180951D02*
X-15059039Y-46876189D01*
X-14525705Y-47066665D02*
X-15211420Y-47066665D01*
X-15211420Y-47066665D02*
X-15287610Y-47028570D01*
X-15287610Y-47028570D02*
X-15325705Y-46952380D01*
X-15325705Y-46952380D02*
X-15325705Y-46876189D01*
X-15059039Y-46723808D02*
X-15059039Y-46419046D01*
X-14525705Y-46609522D02*
X-15211420Y-46609522D01*
X-15211420Y-46609522D02*
X-15287610Y-46571427D01*
X-15287610Y-46571427D02*
X-15325705Y-46495237D01*
X-15325705Y-46495237D02*
X-15325705Y-46419046D01*
X-14563800Y-45847617D02*
X-14525705Y-45923808D01*
X-14525705Y-45923808D02*
X-14525705Y-46076189D01*
X-14525705Y-46076189D02*
X-14563800Y-46152379D01*
X-14563800Y-46152379D02*
X-14639991Y-46190475D01*
X-14639991Y-46190475D02*
X-14944753Y-46190475D01*
X-14944753Y-46190475D02*
X-15020943Y-46152379D01*
X-15020943Y-46152379D02*
X-15059039Y-46076189D01*
X-15059039Y-46076189D02*
X-15059039Y-45923808D01*
X-15059039Y-45923808D02*
X-15020943Y-45847617D01*
X-15020943Y-45847617D02*
X-14944753Y-45809522D01*
X-14944753Y-45809522D02*
X-14868562Y-45809522D01*
X-14868562Y-45809522D02*
X-14792372Y-46190475D01*
X-15059039Y-45466665D02*
X-14525705Y-45466665D01*
X-14982848Y-45466665D02*
X-15020943Y-45428570D01*
X-15020943Y-45428570D02*
X-15059039Y-45352380D01*
X-15059039Y-45352380D02*
X-15059039Y-45238094D01*
X-15059039Y-45238094D02*
X-15020943Y-45161903D01*
X-15020943Y-45161903D02*
X-14944753Y-45123808D01*
X-14944753Y-45123808D02*
X-14525705Y-45123808D01*
X-14563800Y-44438093D02*
X-14525705Y-44514284D01*
X-14525705Y-44514284D02*
X-14525705Y-44666665D01*
X-14525705Y-44666665D02*
X-14563800Y-44742855D01*
X-14563800Y-44742855D02*
X-14639991Y-44780951D01*
X-14639991Y-44780951D02*
X-14944753Y-44780951D01*
X-14944753Y-44780951D02*
X-15020943Y-44742855D01*
X-15020943Y-44742855D02*
X-15059039Y-44666665D01*
X-15059039Y-44666665D02*
X-15059039Y-44514284D01*
X-15059039Y-44514284D02*
X-15020943Y-44438093D01*
X-15020943Y-44438093D02*
X-14944753Y-44399998D01*
X-14944753Y-44399998D02*
X-14868562Y-44399998D01*
X-14868562Y-44399998D02*
X-14792372Y-44780951D01*
X-14525705Y-44057141D02*
X-15059039Y-44057141D01*
X-14906658Y-44057141D02*
X-14982848Y-44019046D01*
X-14982848Y-44019046D02*
X-15020943Y-43980951D01*
X-15020943Y-43980951D02*
X-15059039Y-43904760D01*
X-15059039Y-43904760D02*
X-15059039Y-43828570D01*
X2748104Y-52780953D02*
X2786200Y-52819049D01*
X2786200Y-52819049D02*
X2824295Y-52933334D01*
X2824295Y-52933334D02*
X2824295Y-53009525D01*
X2824295Y-53009525D02*
X2786200Y-53123811D01*
X2786200Y-53123811D02*
X2710009Y-53200001D01*
X2710009Y-53200001D02*
X2633819Y-53238096D01*
X2633819Y-53238096D02*
X2481438Y-53276192D01*
X2481438Y-53276192D02*
X2367152Y-53276192D01*
X2367152Y-53276192D02*
X2214771Y-53238096D01*
X2214771Y-53238096D02*
X2138580Y-53200001D01*
X2138580Y-53200001D02*
X2062390Y-53123811D01*
X2062390Y-53123811D02*
X2024295Y-53009525D01*
X2024295Y-53009525D02*
X2024295Y-52933334D01*
X2024295Y-52933334D02*
X2062390Y-52819049D01*
X2062390Y-52819049D02*
X2100485Y-52780953D01*
X2824295Y-52095239D02*
X2405247Y-52095239D01*
X2405247Y-52095239D02*
X2329057Y-52133334D01*
X2329057Y-52133334D02*
X2290961Y-52209525D01*
X2290961Y-52209525D02*
X2290961Y-52361906D01*
X2290961Y-52361906D02*
X2329057Y-52438096D01*
X2786200Y-52095239D02*
X2824295Y-52171430D01*
X2824295Y-52171430D02*
X2824295Y-52361906D01*
X2824295Y-52361906D02*
X2786200Y-52438096D01*
X2786200Y-52438096D02*
X2710009Y-52476192D01*
X2710009Y-52476192D02*
X2633819Y-52476192D01*
X2633819Y-52476192D02*
X2557628Y-52438096D01*
X2557628Y-52438096D02*
X2519533Y-52361906D01*
X2519533Y-52361906D02*
X2519533Y-52171430D01*
X2519533Y-52171430D02*
X2481438Y-52095239D01*
X2824295Y-51714286D02*
X2024295Y-51714286D01*
X2329057Y-51714286D02*
X2290961Y-51638096D01*
X2290961Y-51638096D02*
X2290961Y-51485715D01*
X2290961Y-51485715D02*
X2329057Y-51409524D01*
X2329057Y-51409524D02*
X2367152Y-51371429D01*
X2367152Y-51371429D02*
X2443342Y-51333334D01*
X2443342Y-51333334D02*
X2671914Y-51333334D01*
X2671914Y-51333334D02*
X2748104Y-51371429D01*
X2748104Y-51371429D02*
X2786200Y-51409524D01*
X2786200Y-51409524D02*
X2824295Y-51485715D01*
X2824295Y-51485715D02*
X2824295Y-51638096D01*
X2824295Y-51638096D02*
X2786200Y-51714286D01*
X2824295Y-50876191D02*
X2786200Y-50952381D01*
X2786200Y-50952381D02*
X2710009Y-50990476D01*
X2710009Y-50990476D02*
X2024295Y-50990476D01*
X2786200Y-50266666D02*
X2824295Y-50342857D01*
X2824295Y-50342857D02*
X2824295Y-50495238D01*
X2824295Y-50495238D02*
X2786200Y-50571428D01*
X2786200Y-50571428D02*
X2710009Y-50609524D01*
X2710009Y-50609524D02*
X2405247Y-50609524D01*
X2405247Y-50609524D02*
X2329057Y-50571428D01*
X2329057Y-50571428D02*
X2290961Y-50495238D01*
X2290961Y-50495238D02*
X2290961Y-50342857D01*
X2290961Y-50342857D02*
X2329057Y-50266666D01*
X2329057Y-50266666D02*
X2405247Y-50228571D01*
X2405247Y-50228571D02*
X2481438Y-50228571D01*
X2481438Y-50228571D02*
X2557628Y-50609524D01*
X2786200Y-48971428D02*
X2824295Y-49047619D01*
X2824295Y-49047619D02*
X2824295Y-49200000D01*
X2824295Y-49200000D02*
X2786200Y-49276190D01*
X2786200Y-49276190D02*
X2710009Y-49314286D01*
X2710009Y-49314286D02*
X2405247Y-49314286D01*
X2405247Y-49314286D02*
X2329057Y-49276190D01*
X2329057Y-49276190D02*
X2290961Y-49200000D01*
X2290961Y-49200000D02*
X2290961Y-49047619D01*
X2290961Y-49047619D02*
X2329057Y-48971428D01*
X2329057Y-48971428D02*
X2405247Y-48933333D01*
X2405247Y-48933333D02*
X2481438Y-48933333D01*
X2481438Y-48933333D02*
X2557628Y-49314286D01*
X2290961Y-48590476D02*
X2824295Y-48590476D01*
X2367152Y-48590476D02*
X2329057Y-48552381D01*
X2329057Y-48552381D02*
X2290961Y-48476191D01*
X2290961Y-48476191D02*
X2290961Y-48361905D01*
X2290961Y-48361905D02*
X2329057Y-48285714D01*
X2329057Y-48285714D02*
X2405247Y-48247619D01*
X2405247Y-48247619D02*
X2824295Y-48247619D01*
X2290961Y-47980952D02*
X2290961Y-47676190D01*
X2024295Y-47866666D02*
X2710009Y-47866666D01*
X2710009Y-47866666D02*
X2786200Y-47828571D01*
X2786200Y-47828571D02*
X2824295Y-47752381D01*
X2824295Y-47752381D02*
X2824295Y-47676190D01*
X2824295Y-47409523D02*
X2290961Y-47409523D01*
X2443342Y-47409523D02*
X2367152Y-47371428D01*
X2367152Y-47371428D02*
X2329057Y-47333333D01*
X2329057Y-47333333D02*
X2290961Y-47257142D01*
X2290961Y-47257142D02*
X2290961Y-47180952D01*
X2290961Y-46990476D02*
X2824295Y-46800000D01*
X2290961Y-46609523D02*
X2824295Y-46800000D01*
X2824295Y-46800000D02*
X3014771Y-46876190D01*
X3014771Y-46876190D02*
X3052866Y-46914285D01*
X3052866Y-46914285D02*
X3090961Y-46990476D01*
X2824295Y-45352380D02*
X2024295Y-45352380D01*
X2786200Y-45352380D02*
X2824295Y-45428571D01*
X2824295Y-45428571D02*
X2824295Y-45580952D01*
X2824295Y-45580952D02*
X2786200Y-45657142D01*
X2786200Y-45657142D02*
X2748104Y-45695237D01*
X2748104Y-45695237D02*
X2671914Y-45733333D01*
X2671914Y-45733333D02*
X2443342Y-45733333D01*
X2443342Y-45733333D02*
X2367152Y-45695237D01*
X2367152Y-45695237D02*
X2329057Y-45657142D01*
X2329057Y-45657142D02*
X2290961Y-45580952D01*
X2290961Y-45580952D02*
X2290961Y-45428571D01*
X2290961Y-45428571D02*
X2329057Y-45352380D01*
X2786200Y-44666665D02*
X2824295Y-44742856D01*
X2824295Y-44742856D02*
X2824295Y-44895237D01*
X2824295Y-44895237D02*
X2786200Y-44971427D01*
X2786200Y-44971427D02*
X2710009Y-45009523D01*
X2710009Y-45009523D02*
X2405247Y-45009523D01*
X2405247Y-45009523D02*
X2329057Y-44971427D01*
X2329057Y-44971427D02*
X2290961Y-44895237D01*
X2290961Y-44895237D02*
X2290961Y-44742856D01*
X2290961Y-44742856D02*
X2329057Y-44666665D01*
X2329057Y-44666665D02*
X2405247Y-44628570D01*
X2405247Y-44628570D02*
X2481438Y-44628570D01*
X2481438Y-44628570D02*
X2557628Y-45009523D01*
X2290961Y-44285713D02*
X3090961Y-44285713D01*
X2329057Y-44285713D02*
X2290961Y-44209523D01*
X2290961Y-44209523D02*
X2290961Y-44057142D01*
X2290961Y-44057142D02*
X2329057Y-43980951D01*
X2329057Y-43980951D02*
X2367152Y-43942856D01*
X2367152Y-43942856D02*
X2443342Y-43904761D01*
X2443342Y-43904761D02*
X2671914Y-43904761D01*
X2671914Y-43904761D02*
X2748104Y-43942856D01*
X2748104Y-43942856D02*
X2786200Y-43980951D01*
X2786200Y-43980951D02*
X2824295Y-44057142D01*
X2824295Y-44057142D02*
X2824295Y-44209523D01*
X2824295Y-44209523D02*
X2786200Y-44285713D01*
X2290961Y-43676189D02*
X2290961Y-43371427D01*
X2024295Y-43561903D02*
X2710009Y-43561903D01*
X2710009Y-43561903D02*
X2786200Y-43523808D01*
X2786200Y-43523808D02*
X2824295Y-43447618D01*
X2824295Y-43447618D02*
X2824295Y-43371427D01*
X2824295Y-43104760D02*
X2024295Y-43104760D01*
X2824295Y-42761903D02*
X2405247Y-42761903D01*
X2405247Y-42761903D02*
X2329057Y-42799998D01*
X2329057Y-42799998D02*
X2290961Y-42876189D01*
X2290961Y-42876189D02*
X2290961Y-42990475D01*
X2290961Y-42990475D02*
X2329057Y-43066665D01*
X2329057Y-43066665D02*
X2367152Y-43104760D01*
X-75705Y-51714285D02*
X-75705Y-51866666D01*
X-75705Y-51866666D02*
X-37610Y-51942857D01*
X-37610Y-51942857D02*
X485Y-51980952D01*
X485Y-51980952D02*
X114771Y-52057142D01*
X114771Y-52057142D02*
X267152Y-52095238D01*
X267152Y-52095238D02*
X571914Y-52095238D01*
X571914Y-52095238D02*
X648104Y-52057142D01*
X648104Y-52057142D02*
X686200Y-52019047D01*
X686200Y-52019047D02*
X724295Y-51942857D01*
X724295Y-51942857D02*
X724295Y-51790476D01*
X724295Y-51790476D02*
X686200Y-51714285D01*
X686200Y-51714285D02*
X648104Y-51676190D01*
X648104Y-51676190D02*
X571914Y-51638095D01*
X571914Y-51638095D02*
X381438Y-51638095D01*
X381438Y-51638095D02*
X305247Y-51676190D01*
X305247Y-51676190D02*
X267152Y-51714285D01*
X267152Y-51714285D02*
X229057Y-51790476D01*
X229057Y-51790476D02*
X229057Y-51942857D01*
X229057Y-51942857D02*
X267152Y-52019047D01*
X267152Y-52019047D02*
X305247Y-52057142D01*
X305247Y-52057142D02*
X381438Y-52095238D01*
X724295Y-51295237D02*
X190961Y-51295237D01*
X267152Y-51295237D02*
X229057Y-51257142D01*
X229057Y-51257142D02*
X190961Y-51180952D01*
X190961Y-51180952D02*
X190961Y-51066666D01*
X190961Y-51066666D02*
X229057Y-50990475D01*
X229057Y-50990475D02*
X305247Y-50952380D01*
X305247Y-50952380D02*
X724295Y-50952380D01*
X305247Y-50952380D02*
X229057Y-50914285D01*
X229057Y-50914285D02*
X190961Y-50838094D01*
X190961Y-50838094D02*
X190961Y-50723809D01*
X190961Y-50723809D02*
X229057Y-50647618D01*
X229057Y-50647618D02*
X305247Y-50609523D01*
X305247Y-50609523D02*
X724295Y-50609523D01*
X724295Y-50228570D02*
X190961Y-50228570D01*
X267152Y-50228570D02*
X229057Y-50190475D01*
X229057Y-50190475D02*
X190961Y-50114285D01*
X190961Y-50114285D02*
X190961Y-49999999D01*
X190961Y-49999999D02*
X229057Y-49923808D01*
X229057Y-49923808D02*
X305247Y-49885713D01*
X305247Y-49885713D02*
X724295Y-49885713D01*
X305247Y-49885713D02*
X229057Y-49847618D01*
X229057Y-49847618D02*
X190961Y-49771427D01*
X190961Y-49771427D02*
X190961Y-49657142D01*
X190961Y-49657142D02*
X229057Y-49580951D01*
X229057Y-49580951D02*
X305247Y-49542856D01*
X305247Y-49542856D02*
X724295Y-49542856D01*
X686200Y-48590475D02*
X724295Y-48514284D01*
X724295Y-48514284D02*
X724295Y-48361903D01*
X724295Y-48361903D02*
X686200Y-48285713D01*
X686200Y-48285713D02*
X610009Y-48247617D01*
X610009Y-48247617D02*
X571914Y-48247617D01*
X571914Y-48247617D02*
X495723Y-48285713D01*
X495723Y-48285713D02*
X457628Y-48361903D01*
X457628Y-48361903D02*
X457628Y-48476189D01*
X457628Y-48476189D02*
X419533Y-48552379D01*
X419533Y-48552379D02*
X343342Y-48590475D01*
X343342Y-48590475D02*
X305247Y-48590475D01*
X305247Y-48590475D02*
X229057Y-48552379D01*
X229057Y-48552379D02*
X190961Y-48476189D01*
X190961Y-48476189D02*
X190961Y-48361903D01*
X190961Y-48361903D02*
X229057Y-48285713D01*
X190961Y-48019046D02*
X190961Y-47714284D01*
X-75705Y-47904760D02*
X610009Y-47904760D01*
X610009Y-47904760D02*
X686200Y-47866665D01*
X686200Y-47866665D02*
X724295Y-47790475D01*
X724295Y-47790475D02*
X724295Y-47714284D01*
X724295Y-47447617D02*
X190961Y-47447617D01*
X-75705Y-47447617D02*
X-37610Y-47485713D01*
X-37610Y-47485713D02*
X485Y-47447617D01*
X485Y-47447617D02*
X-37610Y-47409522D01*
X-37610Y-47409522D02*
X-75705Y-47447617D01*
X-75705Y-47447617D02*
X485Y-47447617D01*
X190961Y-47180951D02*
X190961Y-46876189D01*
X724295Y-47066665D02*
X38580Y-47066665D01*
X38580Y-47066665D02*
X-37610Y-47028570D01*
X-37610Y-47028570D02*
X-75705Y-46952380D01*
X-75705Y-46952380D02*
X-75705Y-46876189D01*
X190961Y-46723808D02*
X190961Y-46419046D01*
X724295Y-46609522D02*
X38580Y-46609522D01*
X38580Y-46609522D02*
X-37610Y-46571427D01*
X-37610Y-46571427D02*
X-75705Y-46495237D01*
X-75705Y-46495237D02*
X-75705Y-46419046D01*
X686200Y-45847617D02*
X724295Y-45923808D01*
X724295Y-45923808D02*
X724295Y-46076189D01*
X724295Y-46076189D02*
X686200Y-46152379D01*
X686200Y-46152379D02*
X610009Y-46190475D01*
X610009Y-46190475D02*
X305247Y-46190475D01*
X305247Y-46190475D02*
X229057Y-46152379D01*
X229057Y-46152379D02*
X190961Y-46076189D01*
X190961Y-46076189D02*
X190961Y-45923808D01*
X190961Y-45923808D02*
X229057Y-45847617D01*
X229057Y-45847617D02*
X305247Y-45809522D01*
X305247Y-45809522D02*
X381438Y-45809522D01*
X381438Y-45809522D02*
X457628Y-46190475D01*
X190961Y-45466665D02*
X724295Y-45466665D01*
X267152Y-45466665D02*
X229057Y-45428570D01*
X229057Y-45428570D02*
X190961Y-45352380D01*
X190961Y-45352380D02*
X190961Y-45238094D01*
X190961Y-45238094D02*
X229057Y-45161903D01*
X229057Y-45161903D02*
X305247Y-45123808D01*
X305247Y-45123808D02*
X724295Y-45123808D01*
X686200Y-44438093D02*
X724295Y-44514284D01*
X724295Y-44514284D02*
X724295Y-44666665D01*
X724295Y-44666665D02*
X686200Y-44742855D01*
X686200Y-44742855D02*
X610009Y-44780951D01*
X610009Y-44780951D02*
X305247Y-44780951D01*
X305247Y-44780951D02*
X229057Y-44742855D01*
X229057Y-44742855D02*
X190961Y-44666665D01*
X190961Y-44666665D02*
X190961Y-44514284D01*
X190961Y-44514284D02*
X229057Y-44438093D01*
X229057Y-44438093D02*
X305247Y-44399998D01*
X305247Y-44399998D02*
X381438Y-44399998D01*
X381438Y-44399998D02*
X457628Y-44780951D01*
X724295Y-44057141D02*
X190961Y-44057141D01*
X343342Y-44057141D02*
X267152Y-44019046D01*
X267152Y-44019046D02*
X229057Y-43980951D01*
X229057Y-43980951D02*
X190961Y-43904760D01*
X190961Y-43904760D02*
X190961Y-43828570D01*
X-1732848Y-51942857D02*
X-1770943Y-52019047D01*
X-1770943Y-52019047D02*
X-1809039Y-52057142D01*
X-1809039Y-52057142D02*
X-1885229Y-52095238D01*
X-1885229Y-52095238D02*
X-1923324Y-52095238D01*
X-1923324Y-52095238D02*
X-1999515Y-52057142D01*
X-1999515Y-52057142D02*
X-2037610Y-52019047D01*
X-2037610Y-52019047D02*
X-2075705Y-51942857D01*
X-2075705Y-51942857D02*
X-2075705Y-51790476D01*
X-2075705Y-51790476D02*
X-2037610Y-51714285D01*
X-2037610Y-51714285D02*
X-1999515Y-51676190D01*
X-1999515Y-51676190D02*
X-1923324Y-51638095D01*
X-1923324Y-51638095D02*
X-1885229Y-51638095D01*
X-1885229Y-51638095D02*
X-1809039Y-51676190D01*
X-1809039Y-51676190D02*
X-1770943Y-51714285D01*
X-1770943Y-51714285D02*
X-1732848Y-51790476D01*
X-1732848Y-51790476D02*
X-1732848Y-51942857D01*
X-1732848Y-51942857D02*
X-1694753Y-52019047D01*
X-1694753Y-52019047D02*
X-1656658Y-52057142D01*
X-1656658Y-52057142D02*
X-1580467Y-52095238D01*
X-1580467Y-52095238D02*
X-1428086Y-52095238D01*
X-1428086Y-52095238D02*
X-1351896Y-52057142D01*
X-1351896Y-52057142D02*
X-1313800Y-52019047D01*
X-1313800Y-52019047D02*
X-1275705Y-51942857D01*
X-1275705Y-51942857D02*
X-1275705Y-51790476D01*
X-1275705Y-51790476D02*
X-1313800Y-51714285D01*
X-1313800Y-51714285D02*
X-1351896Y-51676190D01*
X-1351896Y-51676190D02*
X-1428086Y-51638095D01*
X-1428086Y-51638095D02*
X-1580467Y-51638095D01*
X-1580467Y-51638095D02*
X-1656658Y-51676190D01*
X-1656658Y-51676190D02*
X-1694753Y-51714285D01*
X-1694753Y-51714285D02*
X-1732848Y-51790476D01*
X-1275705Y-51295237D02*
X-1809039Y-51295237D01*
X-1732848Y-51295237D02*
X-1770943Y-51257142D01*
X-1770943Y-51257142D02*
X-1809039Y-51180952D01*
X-1809039Y-51180952D02*
X-1809039Y-51066666D01*
X-1809039Y-51066666D02*
X-1770943Y-50990475D01*
X-1770943Y-50990475D02*
X-1694753Y-50952380D01*
X-1694753Y-50952380D02*
X-1275705Y-50952380D01*
X-1694753Y-50952380D02*
X-1770943Y-50914285D01*
X-1770943Y-50914285D02*
X-1809039Y-50838094D01*
X-1809039Y-50838094D02*
X-1809039Y-50723809D01*
X-1809039Y-50723809D02*
X-1770943Y-50647618D01*
X-1770943Y-50647618D02*
X-1694753Y-50609523D01*
X-1694753Y-50609523D02*
X-1275705Y-50609523D01*
X-1275705Y-50228570D02*
X-1809039Y-50228570D01*
X-1732848Y-50228570D02*
X-1770943Y-50190475D01*
X-1770943Y-50190475D02*
X-1809039Y-50114285D01*
X-1809039Y-50114285D02*
X-1809039Y-49999999D01*
X-1809039Y-49999999D02*
X-1770943Y-49923808D01*
X-1770943Y-49923808D02*
X-1694753Y-49885713D01*
X-1694753Y-49885713D02*
X-1275705Y-49885713D01*
X-1694753Y-49885713D02*
X-1770943Y-49847618D01*
X-1770943Y-49847618D02*
X-1809039Y-49771427D01*
X-1809039Y-49771427D02*
X-1809039Y-49657142D01*
X-1809039Y-49657142D02*
X-1770943Y-49580951D01*
X-1770943Y-49580951D02*
X-1694753Y-49542856D01*
X-1694753Y-49542856D02*
X-1275705Y-49542856D01*
X-1313800Y-48590475D02*
X-1275705Y-48514284D01*
X-1275705Y-48514284D02*
X-1275705Y-48361903D01*
X-1275705Y-48361903D02*
X-1313800Y-48285713D01*
X-1313800Y-48285713D02*
X-1389991Y-48247617D01*
X-1389991Y-48247617D02*
X-1428086Y-48247617D01*
X-1428086Y-48247617D02*
X-1504277Y-48285713D01*
X-1504277Y-48285713D02*
X-1542372Y-48361903D01*
X-1542372Y-48361903D02*
X-1542372Y-48476189D01*
X-1542372Y-48476189D02*
X-1580467Y-48552379D01*
X-1580467Y-48552379D02*
X-1656658Y-48590475D01*
X-1656658Y-48590475D02*
X-1694753Y-48590475D01*
X-1694753Y-48590475D02*
X-1770943Y-48552379D01*
X-1770943Y-48552379D02*
X-1809039Y-48476189D01*
X-1809039Y-48476189D02*
X-1809039Y-48361903D01*
X-1809039Y-48361903D02*
X-1770943Y-48285713D01*
X-1809039Y-48019046D02*
X-1809039Y-47714284D01*
X-2075705Y-47904760D02*
X-1389991Y-47904760D01*
X-1389991Y-47904760D02*
X-1313800Y-47866665D01*
X-1313800Y-47866665D02*
X-1275705Y-47790475D01*
X-1275705Y-47790475D02*
X-1275705Y-47714284D01*
X-1275705Y-47447617D02*
X-1809039Y-47447617D01*
X-2075705Y-47447617D02*
X-2037610Y-47485713D01*
X-2037610Y-47485713D02*
X-1999515Y-47447617D01*
X-1999515Y-47447617D02*
X-2037610Y-47409522D01*
X-2037610Y-47409522D02*
X-2075705Y-47447617D01*
X-2075705Y-47447617D02*
X-1999515Y-47447617D01*
X-1809039Y-47180951D02*
X-1809039Y-46876189D01*
X-1275705Y-47066665D02*
X-1961420Y-47066665D01*
X-1961420Y-47066665D02*
X-2037610Y-47028570D01*
X-2037610Y-47028570D02*
X-2075705Y-46952380D01*
X-2075705Y-46952380D02*
X-2075705Y-46876189D01*
X-1809039Y-46723808D02*
X-1809039Y-46419046D01*
X-1275705Y-46609522D02*
X-1961420Y-46609522D01*
X-1961420Y-46609522D02*
X-2037610Y-46571427D01*
X-2037610Y-46571427D02*
X-2075705Y-46495237D01*
X-2075705Y-46495237D02*
X-2075705Y-46419046D01*
X-1313800Y-45847617D02*
X-1275705Y-45923808D01*
X-1275705Y-45923808D02*
X-1275705Y-46076189D01*
X-1275705Y-46076189D02*
X-1313800Y-46152379D01*
X-1313800Y-46152379D02*
X-1389991Y-46190475D01*
X-1389991Y-46190475D02*
X-1694753Y-46190475D01*
X-1694753Y-46190475D02*
X-1770943Y-46152379D01*
X-1770943Y-46152379D02*
X-1809039Y-46076189D01*
X-1809039Y-46076189D02*
X-1809039Y-45923808D01*
X-1809039Y-45923808D02*
X-1770943Y-45847617D01*
X-1770943Y-45847617D02*
X-1694753Y-45809522D01*
X-1694753Y-45809522D02*
X-1618562Y-45809522D01*
X-1618562Y-45809522D02*
X-1542372Y-46190475D01*
X-1809039Y-45466665D02*
X-1275705Y-45466665D01*
X-1732848Y-45466665D02*
X-1770943Y-45428570D01*
X-1770943Y-45428570D02*
X-1809039Y-45352380D01*
X-1809039Y-45352380D02*
X-1809039Y-45238094D01*
X-1809039Y-45238094D02*
X-1770943Y-45161903D01*
X-1770943Y-45161903D02*
X-1694753Y-45123808D01*
X-1694753Y-45123808D02*
X-1275705Y-45123808D01*
X-1313800Y-44438093D02*
X-1275705Y-44514284D01*
X-1275705Y-44514284D02*
X-1275705Y-44666665D01*
X-1275705Y-44666665D02*
X-1313800Y-44742855D01*
X-1313800Y-44742855D02*
X-1389991Y-44780951D01*
X-1389991Y-44780951D02*
X-1694753Y-44780951D01*
X-1694753Y-44780951D02*
X-1770943Y-44742855D01*
X-1770943Y-44742855D02*
X-1809039Y-44666665D01*
X-1809039Y-44666665D02*
X-1809039Y-44514284D01*
X-1809039Y-44514284D02*
X-1770943Y-44438093D01*
X-1770943Y-44438093D02*
X-1694753Y-44399998D01*
X-1694753Y-44399998D02*
X-1618562Y-44399998D01*
X-1618562Y-44399998D02*
X-1542372Y-44780951D01*
X-1275705Y-44057141D02*
X-1809039Y-44057141D01*
X-1656658Y-44057141D02*
X-1732848Y-44019046D01*
X-1732848Y-44019046D02*
X-1770943Y-43980951D01*
X-1770943Y-43980951D02*
X-1809039Y-43904760D01*
X-1809039Y-43904760D02*
X-1809039Y-43828570D01*
X242155952Y-94385200D02*
X242298809Y-94432819D01*
X242298809Y-94432819D02*
X242536904Y-94432819D01*
X242536904Y-94432819D02*
X242632142Y-94385200D01*
X242632142Y-94385200D02*
X242679761Y-94337580D01*
X242679761Y-94337580D02*
X242727380Y-94242342D01*
X242727380Y-94242342D02*
X242727380Y-94147104D01*
X242727380Y-94147104D02*
X242679761Y-94051866D01*
X242679761Y-94051866D02*
X242632142Y-94004247D01*
X242632142Y-94004247D02*
X242536904Y-93956628D01*
X242536904Y-93956628D02*
X242346428Y-93909009D01*
X242346428Y-93909009D02*
X242251190Y-93861390D01*
X242251190Y-93861390D02*
X242203571Y-93813771D01*
X242203571Y-93813771D02*
X242155952Y-93718533D01*
X242155952Y-93718533D02*
X242155952Y-93623295D01*
X242155952Y-93623295D02*
X242203571Y-93528057D01*
X242203571Y-93528057D02*
X242251190Y-93480438D01*
X242251190Y-93480438D02*
X242346428Y-93432819D01*
X242346428Y-93432819D02*
X242584523Y-93432819D01*
X242584523Y-93432819D02*
X242727380Y-93480438D01*
X243013095Y-93432819D02*
X243584523Y-93432819D01*
X243298809Y-94432819D02*
X243298809Y-93432819D01*
X243870238Y-94147104D02*
X244346428Y-94147104D01*
X243775000Y-94432819D02*
X244108333Y-93432819D01*
X244108333Y-93432819D02*
X244441666Y-94432819D01*
X245108333Y-93909009D02*
X245251190Y-93956628D01*
X245251190Y-93956628D02*
X245298809Y-94004247D01*
X245298809Y-94004247D02*
X245346428Y-94099485D01*
X245346428Y-94099485D02*
X245346428Y-94242342D01*
X245346428Y-94242342D02*
X245298809Y-94337580D01*
X245298809Y-94337580D02*
X245251190Y-94385200D01*
X245251190Y-94385200D02*
X245155952Y-94432819D01*
X245155952Y-94432819D02*
X244775000Y-94432819D01*
X244775000Y-94432819D02*
X244775000Y-93432819D01*
X244775000Y-93432819D02*
X245108333Y-93432819D01*
X245108333Y-93432819D02*
X245203571Y-93480438D01*
X245203571Y-93480438D02*
X245251190Y-93528057D01*
X245251190Y-93528057D02*
X245298809Y-93623295D01*
X245298809Y-93623295D02*
X245298809Y-93718533D01*
X245298809Y-93718533D02*
X245251190Y-93813771D01*
X245251190Y-93813771D02*
X245203571Y-93861390D01*
X245203571Y-93861390D02*
X245108333Y-93909009D01*
X245108333Y-93909009D02*
X244775000Y-93909009D01*
X245536905Y-94528057D02*
X246298809Y-94528057D01*
X246536905Y-94432819D02*
X246536905Y-93432819D01*
X246536905Y-93432819D02*
X246870238Y-94147104D01*
X246870238Y-94147104D02*
X247203571Y-93432819D01*
X247203571Y-93432819D02*
X247203571Y-94432819D01*
X247584524Y-93432819D02*
X248251190Y-94432819D01*
X248251190Y-93432819D02*
X247584524Y-94432819D01*
X248394048Y-94528057D02*
X249155952Y-94528057D01*
X249870238Y-94432819D02*
X249394048Y-94432819D01*
X249394048Y-94432819D02*
X249394048Y-93432819D01*
X250203572Y-94432819D02*
X250203572Y-93432819D01*
X250203572Y-93432819D02*
X250584524Y-93432819D01*
X250584524Y-93432819D02*
X250679762Y-93480438D01*
X250679762Y-93480438D02*
X250727381Y-93528057D01*
X250727381Y-93528057D02*
X250775000Y-93623295D01*
X250775000Y-93623295D02*
X250775000Y-93766152D01*
X250775000Y-93766152D02*
X250727381Y-93861390D01*
X250727381Y-93861390D02*
X250679762Y-93909009D01*
X250679762Y-93909009D02*
X250584524Y-93956628D01*
X250584524Y-93956628D02*
X250203572Y-93956628D01*
X250965477Y-94528057D02*
X251727381Y-94528057D01*
X251917858Y-93528057D02*
X251965477Y-93480438D01*
X251965477Y-93480438D02*
X252060715Y-93432819D01*
X252060715Y-93432819D02*
X252298810Y-93432819D01*
X252298810Y-93432819D02*
X252394048Y-93480438D01*
X252394048Y-93480438D02*
X252441667Y-93528057D01*
X252441667Y-93528057D02*
X252489286Y-93623295D01*
X252489286Y-93623295D02*
X252489286Y-93718533D01*
X252489286Y-93718533D02*
X252441667Y-93861390D01*
X252441667Y-93861390D02*
X251870239Y-94432819D01*
X251870239Y-94432819D02*
X252489286Y-94432819D01*
X253346429Y-93766152D02*
X253346429Y-94432819D01*
X252917858Y-93766152D02*
X252917858Y-94289961D01*
X252917858Y-94289961D02*
X252965477Y-94385200D01*
X252965477Y-94385200D02*
X253060715Y-94432819D01*
X253060715Y-94432819D02*
X253203572Y-94432819D01*
X253203572Y-94432819D02*
X253298810Y-94385200D01*
X253298810Y-94385200D02*
X253346429Y-94337580D01*
X256443452Y-75335200D02*
X256586309Y-75382819D01*
X256586309Y-75382819D02*
X256824404Y-75382819D01*
X256824404Y-75382819D02*
X256919642Y-75335200D01*
X256919642Y-75335200D02*
X256967261Y-75287580D01*
X256967261Y-75287580D02*
X257014880Y-75192342D01*
X257014880Y-75192342D02*
X257014880Y-75097104D01*
X257014880Y-75097104D02*
X256967261Y-75001866D01*
X256967261Y-75001866D02*
X256919642Y-74954247D01*
X256919642Y-74954247D02*
X256824404Y-74906628D01*
X256824404Y-74906628D02*
X256633928Y-74859009D01*
X256633928Y-74859009D02*
X256538690Y-74811390D01*
X256538690Y-74811390D02*
X256491071Y-74763771D01*
X256491071Y-74763771D02*
X256443452Y-74668533D01*
X256443452Y-74668533D02*
X256443452Y-74573295D01*
X256443452Y-74573295D02*
X256491071Y-74478057D01*
X256491071Y-74478057D02*
X256538690Y-74430438D01*
X256538690Y-74430438D02*
X256633928Y-74382819D01*
X256633928Y-74382819D02*
X256872023Y-74382819D01*
X256872023Y-74382819D02*
X257014880Y-74430438D01*
X257300595Y-74382819D02*
X257872023Y-74382819D01*
X257586309Y-75382819D02*
X257586309Y-74382819D01*
X258157738Y-75097104D02*
X258633928Y-75097104D01*
X258062500Y-75382819D02*
X258395833Y-74382819D01*
X258395833Y-74382819D02*
X258729166Y-75382819D01*
X259395833Y-74859009D02*
X259538690Y-74906628D01*
X259538690Y-74906628D02*
X259586309Y-74954247D01*
X259586309Y-74954247D02*
X259633928Y-75049485D01*
X259633928Y-75049485D02*
X259633928Y-75192342D01*
X259633928Y-75192342D02*
X259586309Y-75287580D01*
X259586309Y-75287580D02*
X259538690Y-75335200D01*
X259538690Y-75335200D02*
X259443452Y-75382819D01*
X259443452Y-75382819D02*
X259062500Y-75382819D01*
X259062500Y-75382819D02*
X259062500Y-74382819D01*
X259062500Y-74382819D02*
X259395833Y-74382819D01*
X259395833Y-74382819D02*
X259491071Y-74430438D01*
X259491071Y-74430438D02*
X259538690Y-74478057D01*
X259538690Y-74478057D02*
X259586309Y-74573295D01*
X259586309Y-74573295D02*
X259586309Y-74668533D01*
X259586309Y-74668533D02*
X259538690Y-74763771D01*
X259538690Y-74763771D02*
X259491071Y-74811390D01*
X259491071Y-74811390D02*
X259395833Y-74859009D01*
X259395833Y-74859009D02*
X259062500Y-74859009D01*
X259824405Y-75478057D02*
X260586309Y-75478057D01*
X260824405Y-75382819D02*
X260824405Y-74382819D01*
X260824405Y-74382819D02*
X261157738Y-75097104D01*
X261157738Y-75097104D02*
X261491071Y-74382819D01*
X261491071Y-74382819D02*
X261491071Y-75382819D01*
X261872024Y-74382819D02*
X262538690Y-75382819D01*
X262538690Y-74382819D02*
X261872024Y-75382819D01*
X262681548Y-75478057D02*
X263443452Y-75478057D01*
X264157738Y-75382819D02*
X263681548Y-75382819D01*
X263681548Y-75382819D02*
X263681548Y-74382819D01*
X264491072Y-75382819D02*
X264491072Y-74382819D01*
X264491072Y-74382819D02*
X264872024Y-74382819D01*
X264872024Y-74382819D02*
X264967262Y-74430438D01*
X264967262Y-74430438D02*
X265014881Y-74478057D01*
X265014881Y-74478057D02*
X265062500Y-74573295D01*
X265062500Y-74573295D02*
X265062500Y-74716152D01*
X265062500Y-74716152D02*
X265014881Y-74811390D01*
X265014881Y-74811390D02*
X264967262Y-74859009D01*
X264967262Y-74859009D02*
X264872024Y-74906628D01*
X264872024Y-74906628D02*
X264491072Y-74906628D01*
X265252977Y-75478057D02*
X266014881Y-75478057D01*
X266205358Y-74478057D02*
X266252977Y-74430438D01*
X266252977Y-74430438D02*
X266348215Y-74382819D01*
X266348215Y-74382819D02*
X266586310Y-74382819D01*
X266586310Y-74382819D02*
X266681548Y-74430438D01*
X266681548Y-74430438D02*
X266729167Y-74478057D01*
X266729167Y-74478057D02*
X266776786Y-74573295D01*
X266776786Y-74573295D02*
X266776786Y-74668533D01*
X266776786Y-74668533D02*
X266729167Y-74811390D01*
X266729167Y-74811390D02*
X266157739Y-75382819D01*
X266157739Y-75382819D02*
X266776786Y-75382819D01*
X267633929Y-74716152D02*
X267633929Y-75382819D01*
X267205358Y-74716152D02*
X267205358Y-75239961D01*
X267205358Y-75239961D02*
X267252977Y-75335200D01*
X267252977Y-75335200D02*
X267348215Y-75382819D01*
X267348215Y-75382819D02*
X267491072Y-75382819D01*
X267491072Y-75382819D02*
X267586310Y-75335200D01*
X267586310Y-75335200D02*
X267633929Y-75287580D01*
X261205952Y-37235200D02*
X261348809Y-37282819D01*
X261348809Y-37282819D02*
X261586904Y-37282819D01*
X261586904Y-37282819D02*
X261682142Y-37235200D01*
X261682142Y-37235200D02*
X261729761Y-37187580D01*
X261729761Y-37187580D02*
X261777380Y-37092342D01*
X261777380Y-37092342D02*
X261777380Y-36997104D01*
X261777380Y-36997104D02*
X261729761Y-36901866D01*
X261729761Y-36901866D02*
X261682142Y-36854247D01*
X261682142Y-36854247D02*
X261586904Y-36806628D01*
X261586904Y-36806628D02*
X261396428Y-36759009D01*
X261396428Y-36759009D02*
X261301190Y-36711390D01*
X261301190Y-36711390D02*
X261253571Y-36663771D01*
X261253571Y-36663771D02*
X261205952Y-36568533D01*
X261205952Y-36568533D02*
X261205952Y-36473295D01*
X261205952Y-36473295D02*
X261253571Y-36378057D01*
X261253571Y-36378057D02*
X261301190Y-36330438D01*
X261301190Y-36330438D02*
X261396428Y-36282819D01*
X261396428Y-36282819D02*
X261634523Y-36282819D01*
X261634523Y-36282819D02*
X261777380Y-36330438D01*
X262063095Y-36282819D02*
X262634523Y-36282819D01*
X262348809Y-37282819D02*
X262348809Y-36282819D01*
X262920238Y-36997104D02*
X263396428Y-36997104D01*
X262825000Y-37282819D02*
X263158333Y-36282819D01*
X263158333Y-36282819D02*
X263491666Y-37282819D01*
X264158333Y-36759009D02*
X264301190Y-36806628D01*
X264301190Y-36806628D02*
X264348809Y-36854247D01*
X264348809Y-36854247D02*
X264396428Y-36949485D01*
X264396428Y-36949485D02*
X264396428Y-37092342D01*
X264396428Y-37092342D02*
X264348809Y-37187580D01*
X264348809Y-37187580D02*
X264301190Y-37235200D01*
X264301190Y-37235200D02*
X264205952Y-37282819D01*
X264205952Y-37282819D02*
X263825000Y-37282819D01*
X263825000Y-37282819D02*
X263825000Y-36282819D01*
X263825000Y-36282819D02*
X264158333Y-36282819D01*
X264158333Y-36282819D02*
X264253571Y-36330438D01*
X264253571Y-36330438D02*
X264301190Y-36378057D01*
X264301190Y-36378057D02*
X264348809Y-36473295D01*
X264348809Y-36473295D02*
X264348809Y-36568533D01*
X264348809Y-36568533D02*
X264301190Y-36663771D01*
X264301190Y-36663771D02*
X264253571Y-36711390D01*
X264253571Y-36711390D02*
X264158333Y-36759009D01*
X264158333Y-36759009D02*
X263825000Y-36759009D01*
X264586905Y-37378057D02*
X265348809Y-37378057D01*
X265586905Y-37282819D02*
X265586905Y-36282819D01*
X265586905Y-36282819D02*
X265920238Y-36997104D01*
X265920238Y-36997104D02*
X266253571Y-36282819D01*
X266253571Y-36282819D02*
X266253571Y-37282819D01*
X266634524Y-36282819D02*
X267301190Y-37282819D01*
X267301190Y-36282819D02*
X266634524Y-37282819D01*
X267444048Y-37378057D02*
X268205952Y-37378057D01*
X268920238Y-37282819D02*
X268444048Y-37282819D01*
X268444048Y-37282819D02*
X268444048Y-36282819D01*
X269253572Y-37282819D02*
X269253572Y-36282819D01*
X269253572Y-36282819D02*
X269634524Y-36282819D01*
X269634524Y-36282819D02*
X269729762Y-36330438D01*
X269729762Y-36330438D02*
X269777381Y-36378057D01*
X269777381Y-36378057D02*
X269825000Y-36473295D01*
X269825000Y-36473295D02*
X269825000Y-36616152D01*
X269825000Y-36616152D02*
X269777381Y-36711390D01*
X269777381Y-36711390D02*
X269729762Y-36759009D01*
X269729762Y-36759009D02*
X269634524Y-36806628D01*
X269634524Y-36806628D02*
X269253572Y-36806628D01*
X270015477Y-37378057D02*
X270777381Y-37378057D01*
X270967858Y-36378057D02*
X271015477Y-36330438D01*
X271015477Y-36330438D02*
X271110715Y-36282819D01*
X271110715Y-36282819D02*
X271348810Y-36282819D01*
X271348810Y-36282819D02*
X271444048Y-36330438D01*
X271444048Y-36330438D02*
X271491667Y-36378057D01*
X271491667Y-36378057D02*
X271539286Y-36473295D01*
X271539286Y-36473295D02*
X271539286Y-36568533D01*
X271539286Y-36568533D02*
X271491667Y-36711390D01*
X271491667Y-36711390D02*
X270920239Y-37282819D01*
X270920239Y-37282819D02*
X271539286Y-37282819D01*
X272396429Y-36616152D02*
X272396429Y-37282819D01*
X271967858Y-36616152D02*
X271967858Y-37139961D01*
X271967858Y-37139961D02*
X272015477Y-37235200D01*
X272015477Y-37235200D02*
X272110715Y-37282819D01*
X272110715Y-37282819D02*
X272253572Y-37282819D01*
X272253572Y-37282819D02*
X272348810Y-37235200D01*
X272348810Y-37235200D02*
X272396429Y-37187580D01*
X13555952Y-94335200D02*
X13698809Y-94382819D01*
X13698809Y-94382819D02*
X13936904Y-94382819D01*
X13936904Y-94382819D02*
X14032142Y-94335200D01*
X14032142Y-94335200D02*
X14079761Y-94287580D01*
X14079761Y-94287580D02*
X14127380Y-94192342D01*
X14127380Y-94192342D02*
X14127380Y-94097104D01*
X14127380Y-94097104D02*
X14079761Y-94001866D01*
X14079761Y-94001866D02*
X14032142Y-93954247D01*
X14032142Y-93954247D02*
X13936904Y-93906628D01*
X13936904Y-93906628D02*
X13746428Y-93859009D01*
X13746428Y-93859009D02*
X13651190Y-93811390D01*
X13651190Y-93811390D02*
X13603571Y-93763771D01*
X13603571Y-93763771D02*
X13555952Y-93668533D01*
X13555952Y-93668533D02*
X13555952Y-93573295D01*
X13555952Y-93573295D02*
X13603571Y-93478057D01*
X13603571Y-93478057D02*
X13651190Y-93430438D01*
X13651190Y-93430438D02*
X13746428Y-93382819D01*
X13746428Y-93382819D02*
X13984523Y-93382819D01*
X13984523Y-93382819D02*
X14127380Y-93430438D01*
X14413095Y-93382819D02*
X14984523Y-93382819D01*
X14698809Y-94382819D02*
X14698809Y-93382819D01*
X15270238Y-94097104D02*
X15746428Y-94097104D01*
X15175000Y-94382819D02*
X15508333Y-93382819D01*
X15508333Y-93382819D02*
X15841666Y-94382819D01*
X16508333Y-93859009D02*
X16651190Y-93906628D01*
X16651190Y-93906628D02*
X16698809Y-93954247D01*
X16698809Y-93954247D02*
X16746428Y-94049485D01*
X16746428Y-94049485D02*
X16746428Y-94192342D01*
X16746428Y-94192342D02*
X16698809Y-94287580D01*
X16698809Y-94287580D02*
X16651190Y-94335200D01*
X16651190Y-94335200D02*
X16555952Y-94382819D01*
X16555952Y-94382819D02*
X16175000Y-94382819D01*
X16175000Y-94382819D02*
X16175000Y-93382819D01*
X16175000Y-93382819D02*
X16508333Y-93382819D01*
X16508333Y-93382819D02*
X16603571Y-93430438D01*
X16603571Y-93430438D02*
X16651190Y-93478057D01*
X16651190Y-93478057D02*
X16698809Y-93573295D01*
X16698809Y-93573295D02*
X16698809Y-93668533D01*
X16698809Y-93668533D02*
X16651190Y-93763771D01*
X16651190Y-93763771D02*
X16603571Y-93811390D01*
X16603571Y-93811390D02*
X16508333Y-93859009D01*
X16508333Y-93859009D02*
X16175000Y-93859009D01*
X16936905Y-94478057D02*
X17698809Y-94478057D01*
X17936905Y-94382819D02*
X17936905Y-93382819D01*
X17936905Y-93382819D02*
X18270238Y-94097104D01*
X18270238Y-94097104D02*
X18603571Y-93382819D01*
X18603571Y-93382819D02*
X18603571Y-94382819D01*
X18984524Y-93382819D02*
X19651190Y-94382819D01*
X19651190Y-93382819D02*
X18984524Y-94382819D01*
X19794048Y-94478057D02*
X20555952Y-94478057D01*
X21270238Y-94382819D02*
X20794048Y-94382819D01*
X20794048Y-94382819D02*
X20794048Y-93382819D01*
X21603572Y-94382819D02*
X21603572Y-93382819D01*
X21603572Y-93382819D02*
X21984524Y-93382819D01*
X21984524Y-93382819D02*
X22079762Y-93430438D01*
X22079762Y-93430438D02*
X22127381Y-93478057D01*
X22127381Y-93478057D02*
X22175000Y-93573295D01*
X22175000Y-93573295D02*
X22175000Y-93716152D01*
X22175000Y-93716152D02*
X22127381Y-93811390D01*
X22127381Y-93811390D02*
X22079762Y-93859009D01*
X22079762Y-93859009D02*
X21984524Y-93906628D01*
X21984524Y-93906628D02*
X21603572Y-93906628D01*
X22365477Y-94478057D02*
X23127381Y-94478057D01*
X23317858Y-93478057D02*
X23365477Y-93430438D01*
X23365477Y-93430438D02*
X23460715Y-93382819D01*
X23460715Y-93382819D02*
X23698810Y-93382819D01*
X23698810Y-93382819D02*
X23794048Y-93430438D01*
X23794048Y-93430438D02*
X23841667Y-93478057D01*
X23841667Y-93478057D02*
X23889286Y-93573295D01*
X23889286Y-93573295D02*
X23889286Y-93668533D01*
X23889286Y-93668533D02*
X23841667Y-93811390D01*
X23841667Y-93811390D02*
X23270239Y-94382819D01*
X23270239Y-94382819D02*
X23889286Y-94382819D01*
X24746429Y-93716152D02*
X24746429Y-94382819D01*
X24317858Y-93716152D02*
X24317858Y-94239961D01*
X24317858Y-94239961D02*
X24365477Y-94335200D01*
X24365477Y-94335200D02*
X24460715Y-94382819D01*
X24460715Y-94382819D02*
X24603572Y-94382819D01*
X24603572Y-94382819D02*
X24698810Y-94335200D01*
X24698810Y-94335200D02*
X24746429Y-94287580D01*
D13*
G04 #@! TO.C,J6*
X-15543000Y-53250000D02*
X-15543000Y-42750000D01*
X-13543000Y-53250000D02*
X-13543000Y-42750000D01*
X-7543000Y-42750000D02*
X-15543000Y-42750000D01*
X-7543000Y-53250000D02*
X-15543000Y-53250000D01*
X-7543000Y-53250000D02*
X-7543000Y-42750000D01*
G04 #@! TO.C,J7*
X-4793000Y-53250000D02*
X-4793000Y-42750000D01*
X-2793000Y-53250000D02*
X-2793000Y-42750000D01*
X3207000Y-42750000D02*
X-4793000Y-42750000D01*
X3207000Y-53250000D02*
X-4793000Y-53250000D01*
X3207000Y-53250000D02*
X3207000Y-42750000D01*
G04 #@! TD*
M02*
