%TF.GenerationSoftware,KiCad,Pcbnew,9.0.4*%
%TF.CreationDate,2025-10-17T22:03:30+08:00*%
%TF.ProjectId,Custom Mechanical Keyboard,43757374-6f6d-4204-9d65-6368616e6963,rev?*%
%TF.SameCoordinates,Original*%
%TF.FileFunction,Drillmap*%
%TF.FilePolarity,Positive*%
%FSLAX45Y45*%
G04 Gerber Fmt 4.5, Leading zero omitted, Abs format (unit mm)*
G04 Created by KiCad (PCBNEW 9.0.4) date 2025-10-17 22:03:30*
%MOMM*%
%LPD*%
G01*
G04 APERTURE LIST*
%ADD10C,0.000000*%
%ADD11C,0.100000*%
%ADD12C,0.020000*%
%ADD13C,0.200000*%
%ADD14C,0.500000*%
G04 APERTURE END LIST*
D10*
X37000000Y-4750000D02*
X37000000Y-4750000D01*
G75*
G02*
X37150000Y-4900000I0J-150000D01*
G01*
X37150000Y-16050000D01*
G75*
G02*
X37000000Y-16200000I-150000J0D01*
G01*
X4900000Y-16200000D01*
G75*
G02*
X4750000Y-16050000I0J150000D01*
G01*
X4750000Y-4900000D01*
G75*
G02*
X4900000Y-4750000I150000J0D01*
G01*
X37000000Y-4750000D01*
D11*
X14890000Y-14540000D02*
X15590000Y-14540000D01*
X15590000Y-16240000D01*
X14890000Y-16240000D01*
X14890000Y-14540000D01*
X22510000Y-14540000D02*
X23210000Y-14540000D01*
X23210000Y-16240000D01*
X22510000Y-16240000D01*
X22510000Y-14540000D01*
X29888500Y-12635000D02*
X30588500Y-12635000D01*
X30588500Y-14335000D01*
X29888500Y-14335000D01*
X29888500Y-12635000D01*
X32276500Y-12635000D02*
X32976500Y-12635000D01*
X32976500Y-14335000D01*
X32276500Y-14335000D01*
X32276500Y-12635000D01*
X31317250Y-10730000D02*
X32017250Y-10730000D01*
X32017250Y-12430000D01*
X31317250Y-12430000D01*
X31317250Y-10730000D01*
X33705250Y-10730000D02*
X34405250Y-10730000D01*
X34405250Y-12430000D01*
X33705250Y-12430000D01*
X33705250Y-10730000D01*
D12*
X12542500Y-10740000D02*
X12542500Y-10740000D01*
G75*
G02*
X12562500Y-10760000I0J-20000D01*
G01*
X12562500Y-11040000D01*
G75*
G02*
X12542500Y-11060000I-20000J0D01*
G01*
X12222500Y-11060000D01*
G75*
G02*
X12202500Y-11040000I0J20000D01*
G01*
X12202500Y-10760000D01*
G75*
G02*
X12222500Y-10740000I20000J0D01*
G01*
X12542500Y-10740000D01*
X28735000Y-5025000D02*
X28735000Y-5025000D01*
G75*
G02*
X28755000Y-5045000I0J-20000D01*
G01*
X28755000Y-5325000D01*
G75*
G02*
X28735000Y-5345000I-20000J0D01*
G01*
X28415000Y-5345000D01*
G75*
G02*
X28395000Y-5325000I0J20000D01*
G01*
X28395000Y-5045000D01*
G75*
G02*
X28415000Y-5025000I20000J0D01*
G01*
X28735000Y-5025000D01*
X36355000Y-14550000D02*
X36355000Y-14550000D01*
G75*
G02*
X36375000Y-14570000I0J-20000D01*
G01*
X36375000Y-14850000D01*
G75*
G02*
X36355000Y-14870000I-20000J0D01*
G01*
X36035000Y-14870000D01*
G75*
G02*
X36015000Y-14850000I0J20000D01*
G01*
X36015000Y-14570000D01*
G75*
G02*
X36035000Y-14550000I20000J0D01*
G01*
X36355000Y-14550000D01*
X15400000Y-5025000D02*
X15400000Y-5025000D01*
G75*
G02*
X15420000Y-5045000I0J-20000D01*
G01*
X15420000Y-5325000D01*
G75*
G02*
X15400000Y-5345000I-20000J0D01*
G01*
X15080000Y-5345000D01*
G75*
G02*
X15060000Y-5325000I0J20000D01*
G01*
X15060000Y-5045000D01*
G75*
G02*
X15080000Y-5025000I20000J0D01*
G01*
X15400000Y-5025000D01*
X11590000Y-5025000D02*
X11590000Y-5025000D01*
G75*
G02*
X11610000Y-5045000I0J-20000D01*
G01*
X11610000Y-5325000D01*
G75*
G02*
X11590000Y-5345000I-20000J0D01*
G01*
X11270000Y-5345000D01*
G75*
G02*
X11250000Y-5325000I0J20000D01*
G01*
X11250000Y-5045000D01*
G75*
G02*
X11270000Y-5025000I20000J0D01*
G01*
X11590000Y-5025000D01*
X25877500Y-10740000D02*
X25877500Y-10740000D01*
G75*
G02*
X25897500Y-10760000I0J-20000D01*
G01*
X25897500Y-11040000D01*
G75*
G02*
X25877500Y-11060000I-20000J0D01*
G01*
X25557500Y-11060000D01*
G75*
G02*
X25537500Y-11040000I0J20000D01*
G01*
X25537500Y-10760000D01*
G75*
G02*
X25557500Y-10740000I20000J0D01*
G01*
X25877500Y-10740000D01*
X17305000Y-6930000D02*
X17305000Y-6930000D01*
G75*
G02*
X17325000Y-6950000I0J-20000D01*
G01*
X17325000Y-7230000D01*
G75*
G02*
X17305000Y-7250000I-20000J0D01*
G01*
X16985000Y-7250000D01*
G75*
G02*
X16965000Y-7230000I0J20000D01*
G01*
X16965000Y-6950000D01*
G75*
G02*
X16985000Y-6930000I20000J0D01*
G01*
X17305000Y-6930000D01*
X7780000Y-5025000D02*
X7780000Y-5025000D01*
G75*
G02*
X7800000Y-5045000I0J-20000D01*
G01*
X7800000Y-5325000D01*
G75*
G02*
X7780000Y-5345000I-20000J0D01*
G01*
X7460000Y-5345000D01*
G75*
G02*
X7440000Y-5325000I0J20000D01*
G01*
X7440000Y-5045000D01*
G75*
G02*
X7460000Y-5025000I20000J0D01*
G01*
X7780000Y-5025000D01*
X13495000Y-5025000D02*
X13495000Y-5025000D01*
G75*
G02*
X13515000Y-5045000I0J-20000D01*
G01*
X13515000Y-5325000D01*
G75*
G02*
X13495000Y-5345000I-20000J0D01*
G01*
X13175000Y-5345000D01*
G75*
G02*
X13155000Y-5325000I0J20000D01*
G01*
X13155000Y-5045000D01*
G75*
G02*
X13175000Y-5025000I20000J0D01*
G01*
X13495000Y-5025000D01*
X31592500Y-8835000D02*
X31592500Y-8835000D01*
G75*
G02*
X31612500Y-8855000I0J-20000D01*
G01*
X31612500Y-9135000D01*
G75*
G02*
X31592500Y-9155000I-20000J0D01*
G01*
X31272500Y-9155000D01*
G75*
G02*
X31252500Y-9135000I0J20000D01*
G01*
X31252500Y-8855000D01*
G75*
G02*
X31272500Y-8835000I20000J0D01*
G01*
X31592500Y-8835000D01*
X21115000Y-12645000D02*
X21115000Y-12645000D01*
G75*
G02*
X21135000Y-12665000I0J-20000D01*
G01*
X21135000Y-12945000D01*
G75*
G02*
X21115000Y-12965000I-20000J0D01*
G01*
X20795000Y-12965000D01*
G75*
G02*
X20775000Y-12945000I0J20000D01*
G01*
X20775000Y-12665000D01*
G75*
G02*
X20795000Y-12645000I20000J0D01*
G01*
X21115000Y-12645000D01*
X11590000Y-12645000D02*
X11590000Y-12645000D01*
G75*
G02*
X11610000Y-12665000I0J-20000D01*
G01*
X11610000Y-12945000D01*
G75*
G02*
X11590000Y-12965000I-20000J0D01*
G01*
X11270000Y-12965000D01*
G75*
G02*
X11250000Y-12945000I0J20000D01*
G01*
X11250000Y-12665000D01*
G75*
G02*
X11270000Y-12645000I20000J0D01*
G01*
X11590000Y-12645000D01*
X27782500Y-10740000D02*
X27782500Y-10740000D01*
G75*
G02*
X27802500Y-10760000I0J-20000D01*
G01*
X27802500Y-11040000D01*
G75*
G02*
X27782500Y-11060000I-20000J0D01*
G01*
X27462500Y-11060000D01*
G75*
G02*
X27442500Y-11040000I0J20000D01*
G01*
X27442500Y-10760000D01*
G75*
G02*
X27462500Y-10740000I20000J0D01*
G01*
X27782500Y-10740000D01*
X31592500Y-12645000D02*
X31592500Y-12645000D01*
G75*
G02*
X31612500Y-12665000I0J-20000D01*
G01*
X31612500Y-12945000D01*
G75*
G02*
X31592500Y-12965000I-20000J0D01*
G01*
X31272500Y-12965000D01*
G75*
G02*
X31252500Y-12945000I0J20000D01*
G01*
X31252500Y-12665000D01*
G75*
G02*
X31272500Y-12645000I20000J0D01*
G01*
X31592500Y-12645000D01*
X10637500Y-10740000D02*
X10637500Y-10740000D01*
G75*
G02*
X10657500Y-10760000I0J-20000D01*
G01*
X10657500Y-11040000D01*
G75*
G02*
X10637500Y-11060000I-20000J0D01*
G01*
X10317500Y-11060000D01*
G75*
G02*
X10297500Y-11040000I0J20000D01*
G01*
X10297500Y-10760000D01*
G75*
G02*
X10317500Y-10740000I20000J0D01*
G01*
X10637500Y-10740000D01*
X22067500Y-10740000D02*
X22067500Y-10740000D01*
G75*
G02*
X22087500Y-10760000I0J-20000D01*
G01*
X22087500Y-11040000D01*
G75*
G02*
X22067500Y-11060000I-20000J0D01*
G01*
X21747500Y-11060000D01*
G75*
G02*
X21727500Y-11040000I0J20000D01*
G01*
X21727500Y-10760000D01*
G75*
G02*
X21747500Y-10740000I20000J0D01*
G01*
X22067500Y-10740000D01*
X30401875Y-14550000D02*
X30401875Y-14550000D01*
G75*
G02*
X30421875Y-14570000I-5J-20000D01*
G01*
X30421875Y-14850000D01*
G75*
G02*
X30401875Y-14870000I-20005J0D01*
G01*
X30081875Y-14870000D01*
G75*
G02*
X30061875Y-14850000I5J20000D01*
G01*
X30061875Y-14570000D01*
G75*
G02*
X30081875Y-14550000I20005J0D01*
G01*
X30401875Y-14550000D01*
X25639375Y-14550000D02*
X25639375Y-14550000D01*
G75*
G02*
X25659375Y-14570000I-5J-20000D01*
G01*
X25659375Y-14850000D01*
G75*
G02*
X25639375Y-14870000I-20005J0D01*
G01*
X25319375Y-14870000D01*
G75*
G02*
X25299375Y-14850000I5J20000D01*
G01*
X25299375Y-14570000D01*
G75*
G02*
X25319375Y-14550000I20005J0D01*
G01*
X25639375Y-14550000D01*
X19210000Y-12645000D02*
X19210000Y-12645000D01*
G75*
G02*
X19230000Y-12665000I0J-20000D01*
G01*
X19230000Y-12945000D01*
G75*
G02*
X19210000Y-12965000I-20000J0D01*
G01*
X18890000Y-12965000D01*
G75*
G02*
X18870000Y-12945000I0J20000D01*
G01*
X18870000Y-12665000D01*
G75*
G02*
X18890000Y-12645000I20000J0D01*
G01*
X19210000Y-12645000D01*
X23972500Y-10740000D02*
X23972500Y-10740000D01*
G75*
G02*
X23992500Y-10760000I0J-20000D01*
G01*
X23992500Y-11040000D01*
G75*
G02*
X23972500Y-11060000I-20000J0D01*
G01*
X23652500Y-11060000D01*
G75*
G02*
X23632500Y-11040000I0J20000D01*
G01*
X23632500Y-10760000D01*
G75*
G02*
X23652500Y-10740000I20000J0D01*
G01*
X23972500Y-10740000D01*
D11*
X31793500Y-6920000D02*
X32493500Y-6920000D01*
X32493500Y-8620000D01*
X31793500Y-8620000D01*
X31793500Y-6920000D01*
X34181500Y-6920000D02*
X34881500Y-6920000D01*
X34881500Y-8620000D01*
X34181500Y-8620000D01*
X34181500Y-6920000D01*
X7028500Y-12630000D02*
X7728500Y-12630000D01*
X7728500Y-14330000D01*
X7028500Y-14330000D01*
X7028500Y-12630000D01*
X9416500Y-12630000D02*
X10116500Y-12630000D01*
X10116500Y-14330000D01*
X9416500Y-14330000D01*
X9416500Y-12630000D01*
D12*
X7215000Y-11250000D02*
X7215000Y-11250000D01*
G75*
G02*
X7235000Y-11270000I0J-20000D01*
G01*
X7235000Y-11590000D01*
G75*
G02*
X7215000Y-11610000I-20000J0D01*
G01*
X6935000Y-11610000D01*
G75*
G02*
X6915000Y-11590000I0J20000D01*
G01*
X6915000Y-11270000D01*
G75*
G02*
X6935000Y-11250000I20000J0D01*
G01*
X7215000Y-11250000D01*
X23020000Y-6930000D02*
X23020000Y-6930000D01*
G75*
G02*
X23040000Y-6950000I0J-20000D01*
G01*
X23040000Y-7230000D01*
G75*
G02*
X23020000Y-7250000I-20000J0D01*
G01*
X22700000Y-7250000D01*
G75*
G02*
X22680000Y-7230000I0J20000D01*
G01*
X22680000Y-6950000D01*
G75*
G02*
X22700000Y-6930000I20000J0D01*
G01*
X23020000Y-6930000D01*
X23020000Y-5025000D02*
X23020000Y-5025000D01*
G75*
G02*
X23040000Y-5045000I0J-20000D01*
G01*
X23040000Y-5325000D01*
G75*
G02*
X23020000Y-5345000I-20000J0D01*
G01*
X22700000Y-5345000D01*
G75*
G02*
X22680000Y-5325000I0J20000D01*
G01*
X22680000Y-5045000D01*
G75*
G02*
X22700000Y-5025000I20000J0D01*
G01*
X23020000Y-5025000D01*
X33497500Y-6930000D02*
X33497500Y-6930000D01*
G75*
G02*
X33517500Y-6950000I0J-20000D01*
G01*
X33517500Y-7230000D01*
G75*
G02*
X33497500Y-7250000I-20000J0D01*
G01*
X33177500Y-7250000D01*
G75*
G02*
X33157500Y-7230000I0J20000D01*
G01*
X33157500Y-6950000D01*
G75*
G02*
X33177500Y-6930000I20000J0D01*
G01*
X33497500Y-6930000D01*
X8256250Y-10740000D02*
X8256250Y-10740000D01*
G75*
G02*
X8276250Y-10760000I0J-20000D01*
G01*
X8276250Y-11040000D01*
G75*
G02*
X8256250Y-11060000I-20000J0D01*
G01*
X7936250Y-11060000D01*
G75*
G02*
X7916250Y-11040000I0J20000D01*
G01*
X7916250Y-10760000D01*
G75*
G02*
X7936250Y-10740000I20000J0D01*
G01*
X8256250Y-10740000D01*
X21115000Y-6930000D02*
X21115000Y-6930000D01*
G75*
G02*
X21135000Y-6950000I0J-20000D01*
G01*
X21135000Y-7230000D01*
G75*
G02*
X21115000Y-7250000I-20000J0D01*
G01*
X20795000Y-7250000D01*
G75*
G02*
X20775000Y-7230000I0J20000D01*
G01*
X20775000Y-6950000D01*
G75*
G02*
X20795000Y-6930000I20000J0D01*
G01*
X21115000Y-6930000D01*
X17305000Y-5025000D02*
X17305000Y-5025000D01*
G75*
G02*
X17325000Y-5045000I0J-20000D01*
G01*
X17325000Y-5325000D01*
G75*
G02*
X17305000Y-5345000I-20000J0D01*
G01*
X16985000Y-5345000D01*
G75*
G02*
X16965000Y-5325000I0J20000D01*
G01*
X16965000Y-5045000D01*
G75*
G02*
X16985000Y-5025000I20000J0D01*
G01*
X17305000Y-5025000D01*
X12542500Y-8835000D02*
X12542500Y-8835000D01*
G75*
G02*
X12562500Y-8855000I0J-20000D01*
G01*
X12562500Y-9135000D01*
G75*
G02*
X12542500Y-9155000I-20000J0D01*
G01*
X12222500Y-9155000D01*
G75*
G02*
X12202500Y-9135000I0J20000D01*
G01*
X12202500Y-8855000D01*
G75*
G02*
X12222500Y-8835000I20000J0D01*
G01*
X12542500Y-8835000D01*
X24925000Y-12645000D02*
X24925000Y-12645000D01*
G75*
G02*
X24945000Y-12665000I0J-20000D01*
G01*
X24945000Y-12945000D01*
G75*
G02*
X24925000Y-12965000I-20000J0D01*
G01*
X24605000Y-12965000D01*
G75*
G02*
X24585000Y-12945000I0J20000D01*
G01*
X24585000Y-12665000D01*
G75*
G02*
X24605000Y-12645000I20000J0D01*
G01*
X24925000Y-12645000D01*
X16352500Y-10740000D02*
X16352500Y-10740000D01*
G75*
G02*
X16372500Y-10760000I0J-20000D01*
G01*
X16372500Y-11040000D01*
G75*
G02*
X16352500Y-11060000I-20000J0D01*
G01*
X16032500Y-11060000D01*
G75*
G02*
X16012500Y-11040000I0J20000D01*
G01*
X16012500Y-10760000D01*
G75*
G02*
X16032500Y-10740000I20000J0D01*
G01*
X16352500Y-10740000D01*
X36355000Y-6930000D02*
X36355000Y-6930000D01*
G75*
G02*
X36375000Y-6950000I0J-20000D01*
G01*
X36375000Y-7230000D01*
G75*
G02*
X36355000Y-7250000I-20000J0D01*
G01*
X36035000Y-7250000D01*
G75*
G02*
X36015000Y-7230000I0J20000D01*
G01*
X36015000Y-6950000D01*
G75*
G02*
X36035000Y-6930000I20000J0D01*
G01*
X36355000Y-6930000D01*
X27782500Y-8835000D02*
X27782500Y-8835000D01*
G75*
G02*
X27802500Y-8855000I0J-20000D01*
G01*
X27802500Y-9135000D01*
G75*
G02*
X27782500Y-9155000I-20000J0D01*
G01*
X27462500Y-9155000D01*
G75*
G02*
X27442500Y-9135000I0J20000D01*
G01*
X27442500Y-8855000D01*
G75*
G02*
X27462500Y-8835000I20000J0D01*
G01*
X27782500Y-8835000D01*
X15400000Y-12645000D02*
X15400000Y-12645000D01*
G75*
G02*
X15420000Y-12665000I0J-20000D01*
G01*
X15420000Y-12945000D01*
G75*
G02*
X15400000Y-12965000I-20000J0D01*
G01*
X15080000Y-12965000D01*
G75*
G02*
X15060000Y-12945000I0J20000D01*
G01*
X15060000Y-12665000D01*
G75*
G02*
X15080000Y-12645000I20000J0D01*
G01*
X15400000Y-12645000D01*
X8732500Y-12645000D02*
X8732500Y-12645000D01*
G75*
G02*
X8752500Y-12665000I0J-20000D01*
G01*
X8752500Y-12945000D01*
G75*
G02*
X8732500Y-12965000I-20000J0D01*
G01*
X8412500Y-12965000D01*
G75*
G02*
X8392500Y-12945000I0J20000D01*
G01*
X8392500Y-12665000D01*
G75*
G02*
X8412500Y-12645000I20000J0D01*
G01*
X8732500Y-12645000D01*
X30640000Y-5025000D02*
X30640000Y-5025000D01*
G75*
G02*
X30660000Y-5045000I0J-20000D01*
G01*
X30660000Y-5325000D01*
G75*
G02*
X30640000Y-5345000I-20000J0D01*
G01*
X30320000Y-5345000D01*
G75*
G02*
X30300000Y-5325000I0J20000D01*
G01*
X30300000Y-5045000D01*
G75*
G02*
X30320000Y-5025000I20000J0D01*
G01*
X30640000Y-5025000D01*
X36355000Y-8835000D02*
X36355000Y-8835000D01*
G75*
G02*
X36375000Y-8855000I0J-20000D01*
G01*
X36375000Y-9135000D01*
G75*
G02*
X36355000Y-9155000I-20000J0D01*
G01*
X36035000Y-9155000D01*
G75*
G02*
X36015000Y-9135000I0J20000D01*
G01*
X36015000Y-8855000D01*
G75*
G02*
X36035000Y-8835000I20000J0D01*
G01*
X36355000Y-8835000D01*
X23972500Y-8835000D02*
X23972500Y-8835000D01*
G75*
G02*
X23992500Y-8855000I0J-20000D01*
G01*
X23992500Y-9135000D01*
G75*
G02*
X23972500Y-9155000I-20000J0D01*
G01*
X23652500Y-9155000D01*
G75*
G02*
X23632500Y-9135000I0J20000D01*
G01*
X23632500Y-8855000D01*
G75*
G02*
X23652500Y-8835000I20000J0D01*
G01*
X23972500Y-8835000D01*
X18257500Y-8835000D02*
X18257500Y-8835000D01*
G75*
G02*
X18277500Y-8855000I0J-20000D01*
G01*
X18277500Y-9135000D01*
G75*
G02*
X18257500Y-9155000I-20000J0D01*
G01*
X17937500Y-9155000D01*
G75*
G02*
X17917500Y-9135000I0J20000D01*
G01*
X17917500Y-8855000D01*
G75*
G02*
X17937500Y-8835000I20000J0D01*
G01*
X18257500Y-8835000D01*
X28735000Y-6930000D02*
X28735000Y-6930000D01*
G75*
G02*
X28755000Y-6950000I0J-20000D01*
G01*
X28755000Y-7230000D01*
G75*
G02*
X28735000Y-7250000I-20000J0D01*
G01*
X28415000Y-7250000D01*
G75*
G02*
X28395000Y-7230000I0J20000D01*
G01*
X28395000Y-6950000D01*
G75*
G02*
X28415000Y-6930000I20000J0D01*
G01*
X28735000Y-6930000D01*
X36355000Y-10740000D02*
X36355000Y-10740000D01*
G75*
G02*
X36375000Y-10760000I0J-20000D01*
G01*
X36375000Y-11040000D01*
G75*
G02*
X36355000Y-11060000I-20000J0D01*
G01*
X36035000Y-11060000D01*
G75*
G02*
X36015000Y-11040000I0J20000D01*
G01*
X36015000Y-10760000D01*
G75*
G02*
X36035000Y-10740000I20000J0D01*
G01*
X36355000Y-10740000D01*
X19210000Y-14550000D02*
X19210000Y-14550000D01*
G75*
G02*
X19230000Y-14570000I0J-20000D01*
G01*
X19230000Y-14850000D01*
G75*
G02*
X19210000Y-14870000I-20000J0D01*
G01*
X18890000Y-14870000D01*
G75*
G02*
X18870000Y-14850000I0J20000D01*
G01*
X18870000Y-14570000D01*
G75*
G02*
X18890000Y-14550000I20000J0D01*
G01*
X19210000Y-14550000D01*
X22067500Y-8835000D02*
X22067500Y-8835000D01*
G75*
G02*
X22087500Y-8855000I0J-20000D01*
G01*
X22087500Y-9135000D01*
G75*
G02*
X22067500Y-9155000I-20000J0D01*
G01*
X21747500Y-9155000D01*
G75*
G02*
X21727500Y-9135000I0J20000D01*
G01*
X21727500Y-8855000D01*
G75*
G02*
X21747500Y-8835000I20000J0D01*
G01*
X22067500Y-8835000D01*
X9685000Y-5025000D02*
X9685000Y-5025000D01*
G75*
G02*
X9705000Y-5045000I0J-20000D01*
G01*
X9705000Y-5325000D01*
G75*
G02*
X9685000Y-5345000I-20000J0D01*
G01*
X9365000Y-5345000D01*
G75*
G02*
X9345000Y-5325000I0J20000D01*
G01*
X9345000Y-5045000D01*
G75*
G02*
X9365000Y-5025000I20000J0D01*
G01*
X9685000Y-5025000D01*
X17305000Y-12645000D02*
X17305000Y-12645000D01*
G75*
G02*
X17325000Y-12665000I0J-20000D01*
G01*
X17325000Y-12945000D01*
G75*
G02*
X17305000Y-12965000I-20000J0D01*
G01*
X16985000Y-12965000D01*
G75*
G02*
X16965000Y-12945000I0J20000D01*
G01*
X16965000Y-12665000D01*
G75*
G02*
X16985000Y-12645000I20000J0D01*
G01*
X17305000Y-12645000D01*
X26830000Y-5025000D02*
X26830000Y-5025000D01*
G75*
G02*
X26850000Y-5045000I0J-20000D01*
G01*
X26850000Y-5325000D01*
G75*
G02*
X26830000Y-5345000I-20000J0D01*
G01*
X26510000Y-5345000D01*
G75*
G02*
X26490000Y-5325000I0J20000D01*
G01*
X26490000Y-5045000D01*
G75*
G02*
X26510000Y-5025000I20000J0D01*
G01*
X26830000Y-5025000D01*
X29687500Y-8835000D02*
X29687500Y-8835000D01*
G75*
G02*
X29707500Y-8855000I0J-20000D01*
G01*
X29707500Y-9135000D01*
G75*
G02*
X29687500Y-9155000I-20000J0D01*
G01*
X29367500Y-9155000D01*
G75*
G02*
X29347500Y-9135000I0J20000D01*
G01*
X29347500Y-8855000D01*
G75*
G02*
X29367500Y-8835000I20000J0D01*
G01*
X29687500Y-8835000D01*
X32545000Y-5025000D02*
X32545000Y-5025000D01*
G75*
G02*
X32565000Y-5045000I0J-20000D01*
G01*
X32565000Y-5325000D01*
G75*
G02*
X32545000Y-5345000I-20000J0D01*
G01*
X32225000Y-5345000D01*
G75*
G02*
X32205000Y-5325000I0J20000D01*
G01*
X32205000Y-5045000D01*
G75*
G02*
X32225000Y-5025000I20000J0D01*
G01*
X32545000Y-5025000D01*
X8018125Y-14550000D02*
X8018125Y-14550000D01*
G75*
G02*
X8038125Y-14570000I-5J-20000D01*
G01*
X8038125Y-14850000D01*
G75*
G02*
X8018125Y-14870000I-20005J0D01*
G01*
X7698125Y-14870000D01*
G75*
G02*
X7678125Y-14850000I5J20000D01*
G01*
X7678125Y-14570000D01*
G75*
G02*
X7698125Y-14550000I20005J0D01*
G01*
X8018125Y-14550000D01*
X26830000Y-6930000D02*
X26830000Y-6930000D01*
G75*
G02*
X26850000Y-6950000I0J-20000D01*
G01*
X26850000Y-7230000D01*
G75*
G02*
X26830000Y-7250000I-20000J0D01*
G01*
X26510000Y-7250000D01*
G75*
G02*
X26490000Y-7230000I0J20000D01*
G01*
X26490000Y-6950000D01*
G75*
G02*
X26510000Y-6930000I20000J0D01*
G01*
X26830000Y-6930000D01*
X36355000Y-12645000D02*
X36355000Y-12645000D01*
G75*
G02*
X36375000Y-12665000I0J-20000D01*
G01*
X36375000Y-12945000D01*
G75*
G02*
X36355000Y-12965000I-20000J0D01*
G01*
X36035000Y-12965000D01*
G75*
G02*
X36015000Y-12945000I0J20000D01*
G01*
X36015000Y-12665000D01*
G75*
G02*
X36035000Y-12645000I20000J0D01*
G01*
X36355000Y-12645000D01*
X28020625Y-14550000D02*
X28020625Y-14550000D01*
G75*
G02*
X28040625Y-14570000I-5J-20000D01*
G01*
X28040625Y-14850000D01*
G75*
G02*
X28020625Y-14870000I-20005J0D01*
G01*
X27700625Y-14870000D01*
G75*
G02*
X27680625Y-14850000I5J20000D01*
G01*
X27680625Y-14570000D01*
G75*
G02*
X27700625Y-14550000I20005J0D01*
G01*
X28020625Y-14550000D01*
X36355000Y-5025000D02*
X36355000Y-5025000D01*
G75*
G02*
X36375000Y-5045000I0J-20000D01*
G01*
X36375000Y-5325000D01*
G75*
G02*
X36355000Y-5345000I-20000J0D01*
G01*
X36035000Y-5345000D01*
G75*
G02*
X36015000Y-5325000I0J20000D01*
G01*
X36015000Y-5045000D01*
G75*
G02*
X36035000Y-5025000I20000J0D01*
G01*
X36355000Y-5025000D01*
X13495000Y-12645000D02*
X13495000Y-12645000D01*
G75*
G02*
X13515000Y-12665000I0J-20000D01*
G01*
X13515000Y-12945000D01*
G75*
G02*
X13495000Y-12965000I-20000J0D01*
G01*
X13175000Y-12965000D01*
G75*
G02*
X13155000Y-12945000I0J20000D01*
G01*
X13155000Y-12665000D01*
G75*
G02*
X13175000Y-12645000I20000J0D01*
G01*
X13495000Y-12645000D01*
X24925000Y-5025000D02*
X24925000Y-5025000D01*
G75*
G02*
X24945000Y-5045000I0J-20000D01*
G01*
X24945000Y-5325000D01*
G75*
G02*
X24925000Y-5345000I-20000J0D01*
G01*
X24605000Y-5345000D01*
G75*
G02*
X24585000Y-5325000I0J20000D01*
G01*
X24585000Y-5045000D01*
G75*
G02*
X24605000Y-5025000I20000J0D01*
G01*
X24925000Y-5025000D01*
X33973750Y-8835000D02*
X33973750Y-8835000D01*
G75*
G02*
X33993750Y-8855000I0J-20000D01*
G01*
X33993750Y-9135000D01*
G75*
G02*
X33973750Y-9155000I-20000J0D01*
G01*
X33653750Y-9155000D01*
G75*
G02*
X33633750Y-9135000I0J20000D01*
G01*
X33633750Y-8855000D01*
G75*
G02*
X33653750Y-8835000I20000J0D01*
G01*
X33973750Y-8835000D01*
X26830000Y-12645000D02*
X26830000Y-12645000D01*
G75*
G02*
X26850000Y-12665000I0J-20000D01*
G01*
X26850000Y-12945000D01*
G75*
G02*
X26830000Y-12965000I-20000J0D01*
G01*
X26510000Y-12965000D01*
G75*
G02*
X26490000Y-12945000I0J20000D01*
G01*
X26490000Y-12665000D01*
G75*
G02*
X26510000Y-12645000I20000J0D01*
G01*
X26830000Y-12645000D01*
X18257500Y-10740000D02*
X18257500Y-10740000D01*
G75*
G02*
X18277500Y-10760000I0J-20000D01*
G01*
X18277500Y-11040000D01*
G75*
G02*
X18257500Y-11060000I-20000J0D01*
G01*
X17937500Y-11060000D01*
G75*
G02*
X17917500Y-11040000I0J20000D01*
G01*
X17917500Y-10760000D01*
G75*
G02*
X17937500Y-10740000I20000J0D01*
G01*
X18257500Y-10740000D01*
X10637500Y-8835000D02*
X10637500Y-8835000D01*
G75*
G02*
X10657500Y-8855000I0J-20000D01*
G01*
X10657500Y-9135000D01*
G75*
G02*
X10637500Y-9155000I-20000J0D01*
G01*
X10317500Y-9155000D01*
G75*
G02*
X10297500Y-9135000I0J20000D01*
G01*
X10297500Y-8855000D01*
G75*
G02*
X10317500Y-8835000I20000J0D01*
G01*
X10637500Y-8835000D01*
X34450000Y-5025000D02*
X34450000Y-5025000D01*
G75*
G02*
X34470000Y-5045000I0J-20000D01*
G01*
X34470000Y-5325000D01*
G75*
G02*
X34450000Y-5345000I-20000J0D01*
G01*
X34130000Y-5345000D01*
G75*
G02*
X34110000Y-5325000I0J20000D01*
G01*
X34110000Y-5045000D01*
G75*
G02*
X34130000Y-5025000I20000J0D01*
G01*
X34450000Y-5025000D01*
X7780000Y-6930000D02*
X7780000Y-6930000D01*
G75*
G02*
X7800000Y-6950000I0J-20000D01*
G01*
X7800000Y-7230000D01*
G75*
G02*
X7780000Y-7250000I-20000J0D01*
G01*
X7460000Y-7250000D01*
G75*
G02*
X7440000Y-7230000I0J20000D01*
G01*
X7440000Y-6950000D01*
G75*
G02*
X7460000Y-6930000I20000J0D01*
G01*
X7780000Y-6930000D01*
X33021250Y-10740000D02*
X33021250Y-10740000D01*
G75*
G02*
X33041250Y-10760000I0J-20000D01*
G01*
X33041250Y-11040000D01*
G75*
G02*
X33021250Y-11060000I-20000J0D01*
G01*
X32701250Y-11060000D01*
G75*
G02*
X32681250Y-11040000I0J20000D01*
G01*
X32681250Y-10760000D01*
G75*
G02*
X32701250Y-10740000I20000J0D01*
G01*
X33021250Y-10740000D01*
X30640000Y-6930000D02*
X30640000Y-6930000D01*
G75*
G02*
X30660000Y-6950000I0J-20000D01*
G01*
X30660000Y-7230000D01*
G75*
G02*
X30640000Y-7250000I-20000J0D01*
G01*
X30320000Y-7250000D01*
G75*
G02*
X30300000Y-7230000I0J20000D01*
G01*
X30300000Y-6950000D01*
G75*
G02*
X30320000Y-6930000I20000J0D01*
G01*
X30640000Y-6930000D01*
X34450000Y-14550000D02*
X34450000Y-14550000D01*
G75*
G02*
X34470000Y-14570000I0J-20000D01*
G01*
X34470000Y-14850000D01*
G75*
G02*
X34450000Y-14870000I-20000J0D01*
G01*
X34130000Y-14870000D01*
G75*
G02*
X34110000Y-14850000I0J20000D01*
G01*
X34110000Y-14570000D01*
G75*
G02*
X34130000Y-14550000I20000J0D01*
G01*
X34450000Y-14550000D01*
X24925000Y-6930000D02*
X24925000Y-6930000D01*
G75*
G02*
X24945000Y-6950000I0J-20000D01*
G01*
X24945000Y-7230000D01*
G75*
G02*
X24925000Y-7250000I-20000J0D01*
G01*
X24605000Y-7250000D01*
G75*
G02*
X24585000Y-7230000I0J20000D01*
G01*
X24585000Y-6950000D01*
G75*
G02*
X24605000Y-6930000I20000J0D01*
G01*
X24925000Y-6930000D01*
X23020000Y-12645000D02*
X23020000Y-12645000D01*
G75*
G02*
X23040000Y-12665000I0J-20000D01*
G01*
X23040000Y-12945000D01*
G75*
G02*
X23020000Y-12965000I-20000J0D01*
G01*
X22700000Y-12965000D01*
G75*
G02*
X22680000Y-12945000I0J20000D01*
G01*
X22680000Y-12665000D01*
G75*
G02*
X22700000Y-12645000I20000J0D01*
G01*
X23020000Y-12645000D01*
X34450000Y-12645000D02*
X34450000Y-12645000D01*
G75*
G02*
X34470000Y-12665000I0J-20000D01*
G01*
X34470000Y-12945000D01*
G75*
G02*
X34450000Y-12965000I-20000J0D01*
G01*
X34130000Y-12965000D01*
G75*
G02*
X34110000Y-12945000I0J20000D01*
G01*
X34110000Y-12665000D01*
G75*
G02*
X34130000Y-12645000I20000J0D01*
G01*
X34450000Y-12645000D01*
X20162500Y-8835000D02*
X20162500Y-8835000D01*
G75*
G02*
X20182500Y-8855000I0J-20000D01*
G01*
X20182500Y-9135000D01*
G75*
G02*
X20162500Y-9155000I-20000J0D01*
G01*
X19842500Y-9155000D01*
G75*
G02*
X19822500Y-9135000I0J20000D01*
G01*
X19822500Y-8855000D01*
G75*
G02*
X19842500Y-8835000I20000J0D01*
G01*
X20162500Y-8835000D01*
X19210000Y-6930000D02*
X19210000Y-6930000D01*
G75*
G02*
X19230000Y-6950000I0J-20000D01*
G01*
X19230000Y-7230000D01*
G75*
G02*
X19210000Y-7250000I-20000J0D01*
G01*
X18890000Y-7250000D01*
G75*
G02*
X18870000Y-7230000I0J20000D01*
G01*
X18870000Y-6950000D01*
G75*
G02*
X18890000Y-6930000I20000J0D01*
G01*
X19210000Y-6930000D01*
X19210000Y-5025000D02*
X19210000Y-5025000D01*
G75*
G02*
X19230000Y-5045000I0J-20000D01*
G01*
X19230000Y-5325000D01*
G75*
G02*
X19210000Y-5345000I-20000J0D01*
G01*
X18890000Y-5345000D01*
G75*
G02*
X18870000Y-5325000I0J20000D01*
G01*
X18870000Y-5045000D01*
G75*
G02*
X18890000Y-5025000I20000J0D01*
G01*
X19210000Y-5025000D01*
X15400000Y-6930000D02*
X15400000Y-6930000D01*
G75*
G02*
X15420000Y-6950000I0J-20000D01*
G01*
X15420000Y-7230000D01*
G75*
G02*
X15400000Y-7250000I-20000J0D01*
G01*
X15080000Y-7250000D01*
G75*
G02*
X15060000Y-7230000I0J20000D01*
G01*
X15060000Y-6950000D01*
G75*
G02*
X15080000Y-6930000I20000J0D01*
G01*
X15400000Y-6930000D01*
X8256250Y-8835000D02*
X8256250Y-8835000D01*
G75*
G02*
X8276250Y-8855000I0J-20000D01*
G01*
X8276250Y-9135000D01*
G75*
G02*
X8256250Y-9155000I-20000J0D01*
G01*
X7936250Y-9155000D01*
G75*
G02*
X7916250Y-9135000I0J20000D01*
G01*
X7916250Y-8855000D01*
G75*
G02*
X7936250Y-8835000I20000J0D01*
G01*
X8256250Y-8835000D01*
X25877500Y-8835000D02*
X25877500Y-8835000D01*
G75*
G02*
X25897500Y-8855000I0J-20000D01*
G01*
X25897500Y-9135000D01*
G75*
G02*
X25877500Y-9155000I-20000J0D01*
G01*
X25557500Y-9155000D01*
G75*
G02*
X25537500Y-9135000I0J20000D01*
G01*
X25537500Y-8855000D01*
G75*
G02*
X25557500Y-8835000I20000J0D01*
G01*
X25877500Y-8835000D01*
X20162500Y-10740000D02*
X20162500Y-10740000D01*
G75*
G02*
X20182500Y-10760000I0J-20000D01*
G01*
X20182500Y-11040000D01*
G75*
G02*
X20162500Y-11060000I-20000J0D01*
G01*
X19842500Y-11060000D01*
G75*
G02*
X19822500Y-11040000I0J20000D01*
G01*
X19822500Y-10760000D01*
G75*
G02*
X19842500Y-10740000I20000J0D01*
G01*
X20162500Y-10740000D01*
X16352500Y-8835000D02*
X16352500Y-8835000D01*
G75*
G02*
X16372500Y-8855000I0J-20000D01*
G01*
X16372500Y-9135000D01*
G75*
G02*
X16352500Y-9155000I-20000J0D01*
G01*
X16032500Y-9155000D01*
G75*
G02*
X16012500Y-9135000I0J20000D01*
G01*
X16012500Y-8855000D01*
G75*
G02*
X16032500Y-8835000I20000J0D01*
G01*
X16352500Y-8835000D01*
X32545000Y-14550000D02*
X32545000Y-14550000D01*
G75*
G02*
X32565000Y-14570000I0J-20000D01*
G01*
X32565000Y-14850000D01*
G75*
G02*
X32545000Y-14870000I-20000J0D01*
G01*
X32225000Y-14870000D01*
G75*
G02*
X32205000Y-14850000I0J20000D01*
G01*
X32205000Y-14570000D01*
G75*
G02*
X32225000Y-14550000I20000J0D01*
G01*
X32545000Y-14550000D01*
X28735000Y-12645000D02*
X28735000Y-12645000D01*
G75*
G02*
X28755000Y-12665000I0J-20000D01*
G01*
X28755000Y-12945000D01*
G75*
G02*
X28735000Y-12965000I-20000J0D01*
G01*
X28415000Y-12965000D01*
G75*
G02*
X28395000Y-12945000I0J20000D01*
G01*
X28395000Y-12665000D01*
G75*
G02*
X28415000Y-12645000I20000J0D01*
G01*
X28735000Y-12645000D01*
X9685000Y-6930000D02*
X9685000Y-6930000D01*
G75*
G02*
X9705000Y-6950000I0J-20000D01*
G01*
X9705000Y-7230000D01*
G75*
G02*
X9685000Y-7250000I-20000J0D01*
G01*
X9365000Y-7250000D01*
G75*
G02*
X9345000Y-7230000I0J20000D01*
G01*
X9345000Y-6950000D01*
G75*
G02*
X9365000Y-6930000I20000J0D01*
G01*
X9685000Y-6930000D01*
X29687500Y-10740000D02*
X29687500Y-10740000D01*
G75*
G02*
X29707500Y-10760000I0J-20000D01*
G01*
X29707500Y-11040000D01*
G75*
G02*
X29687500Y-11060000I-20000J0D01*
G01*
X29367500Y-11060000D01*
G75*
G02*
X29347500Y-11040000I0J20000D01*
G01*
X29347500Y-10760000D01*
G75*
G02*
X29367500Y-10740000I20000J0D01*
G01*
X29687500Y-10740000D01*
X14447500Y-8835000D02*
X14447500Y-8835000D01*
G75*
G02*
X14467500Y-8855000I0J-20000D01*
G01*
X14467500Y-9135000D01*
G75*
G02*
X14447500Y-9155000I-20000J0D01*
G01*
X14127500Y-9155000D01*
G75*
G02*
X14107500Y-9135000I0J20000D01*
G01*
X14107500Y-8855000D01*
G75*
G02*
X14127500Y-8835000I20000J0D01*
G01*
X14447500Y-8835000D01*
X21115000Y-5025000D02*
X21115000Y-5025000D01*
G75*
G02*
X21135000Y-5045000I0J-20000D01*
G01*
X21135000Y-5325000D01*
G75*
G02*
X21115000Y-5345000I-20000J0D01*
G01*
X20795000Y-5345000D01*
G75*
G02*
X20775000Y-5325000I0J20000D01*
G01*
X20775000Y-5045000D01*
G75*
G02*
X20795000Y-5025000I20000J0D01*
G01*
X21115000Y-5025000D01*
X13495000Y-6930000D02*
X13495000Y-6930000D01*
G75*
G02*
X13515000Y-6950000I0J-20000D01*
G01*
X13515000Y-7230000D01*
G75*
G02*
X13495000Y-7250000I-20000J0D01*
G01*
X13175000Y-7250000D01*
G75*
G02*
X13155000Y-7230000I0J20000D01*
G01*
X13155000Y-6950000D01*
G75*
G02*
X13175000Y-6930000I20000J0D01*
G01*
X13495000Y-6930000D01*
X10399375Y-14550000D02*
X10399375Y-14550000D01*
G75*
G02*
X10419375Y-14570000I-5J-20000D01*
G01*
X10419375Y-14850000D01*
G75*
G02*
X10399375Y-14870000I-20005J0D01*
G01*
X10079375Y-14870000D01*
G75*
G02*
X10059375Y-14850000I5J20000D01*
G01*
X10059375Y-14570000D01*
G75*
G02*
X10079375Y-14550000I20005J0D01*
G01*
X10399375Y-14550000D01*
X11590000Y-6930000D02*
X11590000Y-6930000D01*
G75*
G02*
X11610000Y-6950000I0J-20000D01*
G01*
X11610000Y-7230000D01*
G75*
G02*
X11590000Y-7250000I-20000J0D01*
G01*
X11270000Y-7250000D01*
G75*
G02*
X11250000Y-7230000I0J20000D01*
G01*
X11250000Y-6950000D01*
G75*
G02*
X11270000Y-6930000I20000J0D01*
G01*
X11590000Y-6930000D01*
X12780625Y-14550000D02*
X12780625Y-14550000D01*
G75*
G02*
X12800625Y-14570000I-5J-20000D01*
G01*
X12800625Y-14850000D01*
G75*
G02*
X12780625Y-14870000I-20005J0D01*
G01*
X12460625Y-14870000D01*
G75*
G02*
X12440625Y-14850000I5J20000D01*
G01*
X12440625Y-14570000D01*
G75*
G02*
X12460625Y-14550000I20005J0D01*
G01*
X12780625Y-14550000D01*
X14447500Y-10740000D02*
X14447500Y-10740000D01*
G75*
G02*
X14467500Y-10760000I0J-20000D01*
G01*
X14467500Y-11040000D01*
G75*
G02*
X14447500Y-11060000I-20000J0D01*
G01*
X14127500Y-11060000D01*
G75*
G02*
X14107500Y-11040000I0J20000D01*
G01*
X14107500Y-10760000D01*
G75*
G02*
X14127500Y-10740000I20000J0D01*
G01*
X14447500Y-10740000D01*
D13*
D14*
X7370000Y-5465000D02*
X7870000Y-5965000D01*
X7870000Y-5465000D02*
X7370000Y-5965000D01*
X7370000Y-7370000D02*
X7870000Y-7870000D01*
X7870000Y-7370000D02*
X7370000Y-7870000D01*
X7608125Y-14990000D02*
X8108125Y-15490000D01*
X8108125Y-14990000D02*
X7608125Y-15490000D01*
X7846250Y-9275000D02*
X8346250Y-9775000D01*
X8346250Y-9275000D02*
X7846250Y-9775000D01*
X7846250Y-11180000D02*
X8346250Y-11680000D01*
X8346250Y-11180000D02*
X7846250Y-11680000D01*
X8322500Y-13085000D02*
X8822500Y-13585000D01*
X8822500Y-13085000D02*
X8322500Y-13585000D01*
X9275000Y-5465000D02*
X9775000Y-5965000D01*
X9775000Y-5465000D02*
X9275000Y-5965000D01*
X9275000Y-7370000D02*
X9775000Y-7870000D01*
X9775000Y-7370000D02*
X9275000Y-7870000D01*
X9989375Y-14990000D02*
X10489375Y-15490000D01*
X10489375Y-14990000D02*
X9989375Y-15490000D01*
X10227500Y-9275000D02*
X10727500Y-9775000D01*
X10727500Y-9275000D02*
X10227500Y-9775000D01*
X10227500Y-11180000D02*
X10727500Y-11680000D01*
X10727500Y-11180000D02*
X10227500Y-11680000D01*
X11180000Y-5465000D02*
X11680000Y-5965000D01*
X11680000Y-5465000D02*
X11180000Y-5965000D01*
X11180000Y-7370000D02*
X11680000Y-7870000D01*
X11680000Y-7370000D02*
X11180000Y-7870000D01*
X11180000Y-13085000D02*
X11680000Y-13585000D01*
X11680000Y-13085000D02*
X11180000Y-13585000D01*
X12132500Y-9275000D02*
X12632500Y-9775000D01*
X12632500Y-9275000D02*
X12132500Y-9775000D01*
X12132500Y-11180000D02*
X12632500Y-11680000D01*
X12632500Y-11180000D02*
X12132500Y-11680000D01*
X12370625Y-14990000D02*
X12870625Y-15490000D01*
X12870625Y-14990000D02*
X12370625Y-15490000D01*
X13085000Y-5465000D02*
X13585000Y-5965000D01*
X13585000Y-5465000D02*
X13085000Y-5965000D01*
X13085000Y-7370000D02*
X13585000Y-7870000D01*
X13585000Y-7370000D02*
X13085000Y-7870000D01*
X13085000Y-13085000D02*
X13585000Y-13585000D01*
X13585000Y-13085000D02*
X13085000Y-13585000D01*
X14037500Y-9275000D02*
X14537500Y-9775000D01*
X14537500Y-9275000D02*
X14037500Y-9775000D01*
X14037500Y-11180000D02*
X14537500Y-11680000D01*
X14537500Y-11180000D02*
X14037500Y-11680000D01*
X14990000Y-5465000D02*
X15490000Y-5965000D01*
X15490000Y-5465000D02*
X14990000Y-5965000D01*
X14990000Y-7370000D02*
X15490000Y-7870000D01*
X15490000Y-7370000D02*
X14990000Y-7870000D01*
X14990000Y-13085000D02*
X15490000Y-13585000D01*
X15490000Y-13085000D02*
X14990000Y-13585000D01*
X15942500Y-9275000D02*
X16442500Y-9775000D01*
X16442500Y-9275000D02*
X15942500Y-9775000D01*
X15942500Y-11180000D02*
X16442500Y-11680000D01*
X16442500Y-11180000D02*
X15942500Y-11680000D01*
X16895000Y-5465000D02*
X17395000Y-5965000D01*
X17395000Y-5465000D02*
X16895000Y-5965000D01*
X16895000Y-7370000D02*
X17395000Y-7870000D01*
X17395000Y-7370000D02*
X16895000Y-7870000D01*
X16895000Y-13085000D02*
X17395000Y-13585000D01*
X17395000Y-13085000D02*
X16895000Y-13585000D01*
X17847500Y-9275000D02*
X18347500Y-9775000D01*
X18347500Y-9275000D02*
X17847500Y-9775000D01*
X17847500Y-11180000D02*
X18347500Y-11680000D01*
X18347500Y-11180000D02*
X17847500Y-11680000D01*
X18800000Y-5465000D02*
X19300000Y-5965000D01*
X19300000Y-5465000D02*
X18800000Y-5965000D01*
X18800000Y-7370000D02*
X19300000Y-7870000D01*
X19300000Y-7370000D02*
X18800000Y-7870000D01*
X18800000Y-13085000D02*
X19300000Y-13585000D01*
X19300000Y-13085000D02*
X18800000Y-13585000D01*
X18800000Y-14990000D02*
X19300000Y-15490000D01*
X19300000Y-14990000D02*
X18800000Y-15490000D01*
X19752500Y-9275000D02*
X20252500Y-9775000D01*
X20252500Y-9275000D02*
X19752500Y-9775000D01*
X19752500Y-11180000D02*
X20252500Y-11680000D01*
X20252500Y-11180000D02*
X19752500Y-11680000D01*
X20705000Y-5465000D02*
X21205000Y-5965000D01*
X21205000Y-5465000D02*
X20705000Y-5965000D01*
X20705000Y-7370000D02*
X21205000Y-7870000D01*
X21205000Y-7370000D02*
X20705000Y-7870000D01*
X20705000Y-13085000D02*
X21205000Y-13585000D01*
X21205000Y-13085000D02*
X20705000Y-13585000D01*
X21657500Y-9275000D02*
X22157500Y-9775000D01*
X22157500Y-9275000D02*
X21657500Y-9775000D01*
X21657500Y-11180000D02*
X22157500Y-11680000D01*
X22157500Y-11180000D02*
X21657500Y-11680000D01*
X22610000Y-5465000D02*
X23110000Y-5965000D01*
X23110000Y-5465000D02*
X22610000Y-5965000D01*
X22610000Y-7370000D02*
X23110000Y-7870000D01*
X23110000Y-7370000D02*
X22610000Y-7870000D01*
X22610000Y-13085000D02*
X23110000Y-13585000D01*
X23110000Y-13085000D02*
X22610000Y-13585000D01*
X23562500Y-9275000D02*
X24062500Y-9775000D01*
X24062500Y-9275000D02*
X23562500Y-9775000D01*
X23562500Y-11180000D02*
X24062500Y-11680000D01*
X24062500Y-11180000D02*
X23562500Y-11680000D01*
X24515000Y-5465000D02*
X25015000Y-5965000D01*
X25015000Y-5465000D02*
X24515000Y-5965000D01*
X24515000Y-7370000D02*
X25015000Y-7870000D01*
X25015000Y-7370000D02*
X24515000Y-7870000D01*
X24515000Y-13085000D02*
X25015000Y-13585000D01*
X25015000Y-13085000D02*
X24515000Y-13585000D01*
X25229375Y-14990000D02*
X25729375Y-15490000D01*
X25729375Y-14990000D02*
X25229375Y-15490000D01*
X25467500Y-9275000D02*
X25967500Y-9775000D01*
X25967500Y-9275000D02*
X25467500Y-9775000D01*
X25467500Y-11180000D02*
X25967500Y-11680000D01*
X25967500Y-11180000D02*
X25467500Y-11680000D01*
X26420000Y-5465000D02*
X26920000Y-5965000D01*
X26920000Y-5465000D02*
X26420000Y-5965000D01*
X26420000Y-7370000D02*
X26920000Y-7870000D01*
X26920000Y-7370000D02*
X26420000Y-7870000D01*
X26420000Y-13085000D02*
X26920000Y-13585000D01*
X26920000Y-13085000D02*
X26420000Y-13585000D01*
X27372500Y-9275000D02*
X27872500Y-9775000D01*
X27872500Y-9275000D02*
X27372500Y-9775000D01*
X27372500Y-11180000D02*
X27872500Y-11680000D01*
X27872500Y-11180000D02*
X27372500Y-11680000D01*
X27610625Y-14990000D02*
X28110625Y-15490000D01*
X28110625Y-14990000D02*
X27610625Y-15490000D01*
X28325000Y-5465000D02*
X28825000Y-5965000D01*
X28825000Y-5465000D02*
X28325000Y-5965000D01*
X28325000Y-7370000D02*
X28825000Y-7870000D01*
X28825000Y-7370000D02*
X28325000Y-7870000D01*
X28325000Y-13085000D02*
X28825000Y-13585000D01*
X28825000Y-13085000D02*
X28325000Y-13585000D01*
X29277500Y-9275000D02*
X29777500Y-9775000D01*
X29777500Y-9275000D02*
X29277500Y-9775000D01*
X29277500Y-11180000D02*
X29777500Y-11680000D01*
X29777500Y-11180000D02*
X29277500Y-11680000D01*
X29991875Y-14990000D02*
X30491875Y-15490000D01*
X30491875Y-14990000D02*
X29991875Y-15490000D01*
X30230000Y-5465000D02*
X30730000Y-5965000D01*
X30730000Y-5465000D02*
X30230000Y-5965000D01*
X30230000Y-7370000D02*
X30730000Y-7870000D01*
X30730000Y-7370000D02*
X30230000Y-7870000D01*
X31182500Y-9275000D02*
X31682500Y-9775000D01*
X31682500Y-9275000D02*
X31182500Y-9775000D01*
X31182500Y-13085000D02*
X31682500Y-13585000D01*
X31682500Y-13085000D02*
X31182500Y-13585000D01*
X32135000Y-5465000D02*
X32635000Y-5965000D01*
X32635000Y-5465000D02*
X32135000Y-5965000D01*
X32135000Y-14990000D02*
X32635000Y-15490000D01*
X32635000Y-14990000D02*
X32135000Y-15490000D01*
X32611250Y-11180000D02*
X33111250Y-11680000D01*
X33111250Y-11180000D02*
X32611250Y-11680000D01*
X33087500Y-7370000D02*
X33587500Y-7870000D01*
X33587500Y-7370000D02*
X33087500Y-7870000D01*
X33563750Y-9275000D02*
X34063750Y-9775000D01*
X34063750Y-9275000D02*
X33563750Y-9775000D01*
X34040000Y-5465000D02*
X34540000Y-5965000D01*
X34540000Y-5465000D02*
X34040000Y-5965000D01*
X34040000Y-13085000D02*
X34540000Y-13585000D01*
X34540000Y-13085000D02*
X34040000Y-13585000D01*
X34040000Y-14990000D02*
X34540000Y-15490000D01*
X34540000Y-14990000D02*
X34040000Y-15490000D01*
X35945000Y-5465000D02*
X36445000Y-5965000D01*
X36445000Y-5465000D02*
X35945000Y-5965000D01*
X35945000Y-7370000D02*
X36445000Y-7870000D01*
X36445000Y-7370000D02*
X35945000Y-7870000D01*
X35945000Y-9275000D02*
X36445000Y-9775000D01*
X36445000Y-9275000D02*
X35945000Y-9775000D01*
X35945000Y-11180000D02*
X36445000Y-11680000D01*
X36445000Y-11180000D02*
X35945000Y-11680000D01*
X35945000Y-13085000D02*
X36445000Y-13585000D01*
X36445000Y-13085000D02*
X35945000Y-13585000D01*
X35945000Y-14990000D02*
X36445000Y-15490000D01*
X36445000Y-14990000D02*
X35945000Y-15490000D01*
D13*
X5010777Y-16556484D02*
X5010777Y-16356484D01*
X5010777Y-16356484D02*
X5058396Y-16356484D01*
X5058396Y-16356484D02*
X5086967Y-16366008D01*
X5086967Y-16366008D02*
X5106015Y-16385055D01*
X5106015Y-16385055D02*
X5115539Y-16404103D01*
X5115539Y-16404103D02*
X5125063Y-16442198D01*
X5125063Y-16442198D02*
X5125063Y-16470769D01*
X5125063Y-16470769D02*
X5115539Y-16508865D01*
X5115539Y-16508865D02*
X5106015Y-16527912D01*
X5106015Y-16527912D02*
X5086967Y-16546960D01*
X5086967Y-16546960D02*
X5058396Y-16556484D01*
X5058396Y-16556484D02*
X5010777Y-16556484D01*
X5210777Y-16556484D02*
X5210777Y-16423150D01*
X5210777Y-16461246D02*
X5220301Y-16442198D01*
X5220301Y-16442198D02*
X5229824Y-16432674D01*
X5229824Y-16432674D02*
X5248872Y-16423150D01*
X5248872Y-16423150D02*
X5267920Y-16423150D01*
X5334586Y-16556484D02*
X5334586Y-16423150D01*
X5334586Y-16356484D02*
X5325063Y-16366008D01*
X5325063Y-16366008D02*
X5334586Y-16375531D01*
X5334586Y-16375531D02*
X5344110Y-16366008D01*
X5344110Y-16366008D02*
X5334586Y-16356484D01*
X5334586Y-16356484D02*
X5334586Y-16375531D01*
X5458396Y-16556484D02*
X5439348Y-16546960D01*
X5439348Y-16546960D02*
X5429824Y-16527912D01*
X5429824Y-16527912D02*
X5429824Y-16356484D01*
X5563158Y-16556484D02*
X5544110Y-16546960D01*
X5544110Y-16546960D02*
X5534586Y-16527912D01*
X5534586Y-16527912D02*
X5534586Y-16356484D01*
X5791729Y-16556484D02*
X5791729Y-16356484D01*
X5791729Y-16356484D02*
X5858396Y-16499341D01*
X5858396Y-16499341D02*
X5925062Y-16356484D01*
X5925062Y-16356484D02*
X5925062Y-16556484D01*
X6106015Y-16556484D02*
X6106015Y-16451722D01*
X6106015Y-16451722D02*
X6096491Y-16432674D01*
X6096491Y-16432674D02*
X6077443Y-16423150D01*
X6077443Y-16423150D02*
X6039348Y-16423150D01*
X6039348Y-16423150D02*
X6020301Y-16432674D01*
X6106015Y-16546960D02*
X6086967Y-16556484D01*
X6086967Y-16556484D02*
X6039348Y-16556484D01*
X6039348Y-16556484D02*
X6020301Y-16546960D01*
X6020301Y-16546960D02*
X6010777Y-16527912D01*
X6010777Y-16527912D02*
X6010777Y-16508865D01*
X6010777Y-16508865D02*
X6020301Y-16489817D01*
X6020301Y-16489817D02*
X6039348Y-16480293D01*
X6039348Y-16480293D02*
X6086967Y-16480293D01*
X6086967Y-16480293D02*
X6106015Y-16470769D01*
X6201253Y-16423150D02*
X6201253Y-16623150D01*
X6201253Y-16432674D02*
X6220301Y-16423150D01*
X6220301Y-16423150D02*
X6258396Y-16423150D01*
X6258396Y-16423150D02*
X6277443Y-16432674D01*
X6277443Y-16432674D02*
X6286967Y-16442198D01*
X6286967Y-16442198D02*
X6296491Y-16461246D01*
X6296491Y-16461246D02*
X6296491Y-16518388D01*
X6296491Y-16518388D02*
X6286967Y-16537436D01*
X6286967Y-16537436D02*
X6277443Y-16546960D01*
X6277443Y-16546960D02*
X6258396Y-16556484D01*
X6258396Y-16556484D02*
X6220301Y-16556484D01*
X6220301Y-16556484D02*
X6201253Y-16546960D01*
X6382205Y-16537436D02*
X6391729Y-16546960D01*
X6391729Y-16546960D02*
X6382205Y-16556484D01*
X6382205Y-16556484D02*
X6372682Y-16546960D01*
X6372682Y-16546960D02*
X6382205Y-16537436D01*
X6382205Y-16537436D02*
X6382205Y-16556484D01*
X6382205Y-16432674D02*
X6391729Y-16442198D01*
X6391729Y-16442198D02*
X6382205Y-16451722D01*
X6382205Y-16451722D02*
X6372682Y-16442198D01*
X6372682Y-16442198D02*
X6382205Y-16432674D01*
X6382205Y-16432674D02*
X6382205Y-16451722D01*
X4550000Y-16785000D02*
X4750000Y-16985000D01*
X4750000Y-16785000D02*
X4550000Y-16985000D01*
X5106015Y-16776484D02*
X5010777Y-16776484D01*
X5010777Y-16776484D02*
X5001253Y-16871722D01*
X5001253Y-16871722D02*
X5010777Y-16862198D01*
X5010777Y-16862198D02*
X5029824Y-16852674D01*
X5029824Y-16852674D02*
X5077444Y-16852674D01*
X5077444Y-16852674D02*
X5096491Y-16862198D01*
X5096491Y-16862198D02*
X5106015Y-16871722D01*
X5106015Y-16871722D02*
X5115539Y-16890770D01*
X5115539Y-16890770D02*
X5115539Y-16938389D01*
X5115539Y-16938389D02*
X5106015Y-16957436D01*
X5106015Y-16957436D02*
X5096491Y-16966960D01*
X5096491Y-16966960D02*
X5077444Y-16976484D01*
X5077444Y-16976484D02*
X5029824Y-16976484D01*
X5029824Y-16976484D02*
X5010777Y-16966960D01*
X5010777Y-16966960D02*
X5001253Y-16957436D01*
X5201253Y-16957436D02*
X5210777Y-16966960D01*
X5210777Y-16966960D02*
X5201253Y-16976484D01*
X5201253Y-16976484D02*
X5191729Y-16966960D01*
X5191729Y-16966960D02*
X5201253Y-16957436D01*
X5201253Y-16957436D02*
X5201253Y-16976484D01*
X5334586Y-16776484D02*
X5353634Y-16776484D01*
X5353634Y-16776484D02*
X5372682Y-16786008D01*
X5372682Y-16786008D02*
X5382205Y-16795531D01*
X5382205Y-16795531D02*
X5391729Y-16814579D01*
X5391729Y-16814579D02*
X5401253Y-16852674D01*
X5401253Y-16852674D02*
X5401253Y-16900293D01*
X5401253Y-16900293D02*
X5391729Y-16938389D01*
X5391729Y-16938389D02*
X5382205Y-16957436D01*
X5382205Y-16957436D02*
X5372682Y-16966960D01*
X5372682Y-16966960D02*
X5353634Y-16976484D01*
X5353634Y-16976484D02*
X5334586Y-16976484D01*
X5334586Y-16976484D02*
X5315539Y-16966960D01*
X5315539Y-16966960D02*
X5306015Y-16957436D01*
X5306015Y-16957436D02*
X5296491Y-16938389D01*
X5296491Y-16938389D02*
X5286967Y-16900293D01*
X5286967Y-16900293D02*
X5286967Y-16852674D01*
X5286967Y-16852674D02*
X5296491Y-16814579D01*
X5296491Y-16814579D02*
X5306015Y-16795531D01*
X5306015Y-16795531D02*
X5315539Y-16786008D01*
X5315539Y-16786008D02*
X5334586Y-16776484D01*
X5525063Y-16776484D02*
X5544110Y-16776484D01*
X5544110Y-16776484D02*
X5563158Y-16786008D01*
X5563158Y-16786008D02*
X5572682Y-16795531D01*
X5572682Y-16795531D02*
X5582205Y-16814579D01*
X5582205Y-16814579D02*
X5591729Y-16852674D01*
X5591729Y-16852674D02*
X5591729Y-16900293D01*
X5591729Y-16900293D02*
X5582205Y-16938389D01*
X5582205Y-16938389D02*
X5572682Y-16957436D01*
X5572682Y-16957436D02*
X5563158Y-16966960D01*
X5563158Y-16966960D02*
X5544110Y-16976484D01*
X5544110Y-16976484D02*
X5525063Y-16976484D01*
X5525063Y-16976484D02*
X5506015Y-16966960D01*
X5506015Y-16966960D02*
X5496491Y-16957436D01*
X5496491Y-16957436D02*
X5486967Y-16938389D01*
X5486967Y-16938389D02*
X5477444Y-16900293D01*
X5477444Y-16900293D02*
X5477444Y-16852674D01*
X5477444Y-16852674D02*
X5486967Y-16814579D01*
X5486967Y-16814579D02*
X5496491Y-16795531D01*
X5496491Y-16795531D02*
X5506015Y-16786008D01*
X5506015Y-16786008D02*
X5525063Y-16776484D01*
X5715539Y-16776484D02*
X5734586Y-16776484D01*
X5734586Y-16776484D02*
X5753634Y-16786008D01*
X5753634Y-16786008D02*
X5763158Y-16795531D01*
X5763158Y-16795531D02*
X5772682Y-16814579D01*
X5772682Y-16814579D02*
X5782205Y-16852674D01*
X5782205Y-16852674D02*
X5782205Y-16900293D01*
X5782205Y-16900293D02*
X5772682Y-16938389D01*
X5772682Y-16938389D02*
X5763158Y-16957436D01*
X5763158Y-16957436D02*
X5753634Y-16966960D01*
X5753634Y-16966960D02*
X5734586Y-16976484D01*
X5734586Y-16976484D02*
X5715539Y-16976484D01*
X5715539Y-16976484D02*
X5696491Y-16966960D01*
X5696491Y-16966960D02*
X5686967Y-16957436D01*
X5686967Y-16957436D02*
X5677443Y-16938389D01*
X5677443Y-16938389D02*
X5667920Y-16900293D01*
X5667920Y-16900293D02*
X5667920Y-16852674D01*
X5667920Y-16852674D02*
X5677443Y-16814579D01*
X5677443Y-16814579D02*
X5686967Y-16795531D01*
X5686967Y-16795531D02*
X5696491Y-16786008D01*
X5696491Y-16786008D02*
X5715539Y-16776484D01*
X5867920Y-16976484D02*
X5867920Y-16843150D01*
X5867920Y-16862198D02*
X5877443Y-16852674D01*
X5877443Y-16852674D02*
X5896491Y-16843150D01*
X5896491Y-16843150D02*
X5925063Y-16843150D01*
X5925063Y-16843150D02*
X5944110Y-16852674D01*
X5944110Y-16852674D02*
X5953634Y-16871722D01*
X5953634Y-16871722D02*
X5953634Y-16976484D01*
X5953634Y-16871722D02*
X5963158Y-16852674D01*
X5963158Y-16852674D02*
X5982205Y-16843150D01*
X5982205Y-16843150D02*
X6010777Y-16843150D01*
X6010777Y-16843150D02*
X6029824Y-16852674D01*
X6029824Y-16852674D02*
X6039348Y-16871722D01*
X6039348Y-16871722D02*
X6039348Y-16976484D01*
X6134586Y-16976484D02*
X6134586Y-16843150D01*
X6134586Y-16862198D02*
X6144110Y-16852674D01*
X6144110Y-16852674D02*
X6163158Y-16843150D01*
X6163158Y-16843150D02*
X6191729Y-16843150D01*
X6191729Y-16843150D02*
X6210777Y-16852674D01*
X6210777Y-16852674D02*
X6220301Y-16871722D01*
X6220301Y-16871722D02*
X6220301Y-16976484D01*
X6220301Y-16871722D02*
X6229824Y-16852674D01*
X6229824Y-16852674D02*
X6248872Y-16843150D01*
X6248872Y-16843150D02*
X6277443Y-16843150D01*
X6277443Y-16843150D02*
X6296491Y-16852674D01*
X6296491Y-16852674D02*
X6306015Y-16871722D01*
X6306015Y-16871722D02*
X6306015Y-16976484D01*
X6696491Y-16766960D02*
X6525063Y-17024103D01*
X6953634Y-16776484D02*
X6972682Y-16776484D01*
X6972682Y-16776484D02*
X6991729Y-16786008D01*
X6991729Y-16786008D02*
X7001253Y-16795531D01*
X7001253Y-16795531D02*
X7010777Y-16814579D01*
X7010777Y-16814579D02*
X7020301Y-16852674D01*
X7020301Y-16852674D02*
X7020301Y-16900293D01*
X7020301Y-16900293D02*
X7010777Y-16938389D01*
X7010777Y-16938389D02*
X7001253Y-16957436D01*
X7001253Y-16957436D02*
X6991729Y-16966960D01*
X6991729Y-16966960D02*
X6972682Y-16976484D01*
X6972682Y-16976484D02*
X6953634Y-16976484D01*
X6953634Y-16976484D02*
X6934586Y-16966960D01*
X6934586Y-16966960D02*
X6925063Y-16957436D01*
X6925063Y-16957436D02*
X6915539Y-16938389D01*
X6915539Y-16938389D02*
X6906015Y-16900293D01*
X6906015Y-16900293D02*
X6906015Y-16852674D01*
X6906015Y-16852674D02*
X6915539Y-16814579D01*
X6915539Y-16814579D02*
X6925063Y-16795531D01*
X6925063Y-16795531D02*
X6934586Y-16786008D01*
X6934586Y-16786008D02*
X6953634Y-16776484D01*
X7106015Y-16957436D02*
X7115539Y-16966960D01*
X7115539Y-16966960D02*
X7106015Y-16976484D01*
X7106015Y-16976484D02*
X7096491Y-16966960D01*
X7096491Y-16966960D02*
X7106015Y-16957436D01*
X7106015Y-16957436D02*
X7106015Y-16976484D01*
X7306015Y-16976484D02*
X7191729Y-16976484D01*
X7248872Y-16976484D02*
X7248872Y-16776484D01*
X7248872Y-16776484D02*
X7229825Y-16805055D01*
X7229825Y-16805055D02*
X7210777Y-16824103D01*
X7210777Y-16824103D02*
X7191729Y-16833627D01*
X7401253Y-16976484D02*
X7439348Y-16976484D01*
X7439348Y-16976484D02*
X7458396Y-16966960D01*
X7458396Y-16966960D02*
X7467920Y-16957436D01*
X7467920Y-16957436D02*
X7486967Y-16928865D01*
X7486967Y-16928865D02*
X7496491Y-16890770D01*
X7496491Y-16890770D02*
X7496491Y-16814579D01*
X7496491Y-16814579D02*
X7486967Y-16795531D01*
X7486967Y-16795531D02*
X7477444Y-16786008D01*
X7477444Y-16786008D02*
X7458396Y-16776484D01*
X7458396Y-16776484D02*
X7420301Y-16776484D01*
X7420301Y-16776484D02*
X7401253Y-16786008D01*
X7401253Y-16786008D02*
X7391729Y-16795531D01*
X7391729Y-16795531D02*
X7382206Y-16814579D01*
X7382206Y-16814579D02*
X7382206Y-16862198D01*
X7382206Y-16862198D02*
X7391729Y-16881246D01*
X7391729Y-16881246D02*
X7401253Y-16890770D01*
X7401253Y-16890770D02*
X7420301Y-16900293D01*
X7420301Y-16900293D02*
X7458396Y-16900293D01*
X7458396Y-16900293D02*
X7477444Y-16890770D01*
X7477444Y-16890770D02*
X7486967Y-16881246D01*
X7486967Y-16881246D02*
X7496491Y-16862198D01*
X7667920Y-16776484D02*
X7629825Y-16776484D01*
X7629825Y-16776484D02*
X7610777Y-16786008D01*
X7610777Y-16786008D02*
X7601253Y-16795531D01*
X7601253Y-16795531D02*
X7582206Y-16824103D01*
X7582206Y-16824103D02*
X7572682Y-16862198D01*
X7572682Y-16862198D02*
X7572682Y-16938389D01*
X7572682Y-16938389D02*
X7582206Y-16957436D01*
X7582206Y-16957436D02*
X7591729Y-16966960D01*
X7591729Y-16966960D02*
X7610777Y-16976484D01*
X7610777Y-16976484D02*
X7648872Y-16976484D01*
X7648872Y-16976484D02*
X7667920Y-16966960D01*
X7667920Y-16966960D02*
X7677444Y-16957436D01*
X7677444Y-16957436D02*
X7686967Y-16938389D01*
X7686967Y-16938389D02*
X7686967Y-16890770D01*
X7686967Y-16890770D02*
X7677444Y-16871722D01*
X7677444Y-16871722D02*
X7667920Y-16862198D01*
X7667920Y-16862198D02*
X7648872Y-16852674D01*
X7648872Y-16852674D02*
X7610777Y-16852674D01*
X7610777Y-16852674D02*
X7591729Y-16862198D01*
X7591729Y-16862198D02*
X7582206Y-16871722D01*
X7582206Y-16871722D02*
X7572682Y-16890770D01*
X7782206Y-16976484D02*
X7820301Y-16976484D01*
X7820301Y-16976484D02*
X7839348Y-16966960D01*
X7839348Y-16966960D02*
X7848872Y-16957436D01*
X7848872Y-16957436D02*
X7867920Y-16928865D01*
X7867920Y-16928865D02*
X7877444Y-16890770D01*
X7877444Y-16890770D02*
X7877444Y-16814579D01*
X7877444Y-16814579D02*
X7867920Y-16795531D01*
X7867920Y-16795531D02*
X7858396Y-16786008D01*
X7858396Y-16786008D02*
X7839348Y-16776484D01*
X7839348Y-16776484D02*
X7801253Y-16776484D01*
X7801253Y-16776484D02*
X7782206Y-16786008D01*
X7782206Y-16786008D02*
X7772682Y-16795531D01*
X7772682Y-16795531D02*
X7763158Y-16814579D01*
X7763158Y-16814579D02*
X7763158Y-16862198D01*
X7763158Y-16862198D02*
X7772682Y-16881246D01*
X7772682Y-16881246D02*
X7782206Y-16890770D01*
X7782206Y-16890770D02*
X7801253Y-16900293D01*
X7801253Y-16900293D02*
X7839348Y-16900293D01*
X7839348Y-16900293D02*
X7858396Y-16890770D01*
X7858396Y-16890770D02*
X7867920Y-16881246D01*
X7867920Y-16881246D02*
X7877444Y-16862198D01*
X7953634Y-16776484D02*
X7953634Y-16814579D01*
X8029825Y-16776484D02*
X8029825Y-16814579D01*
X8325063Y-17052674D02*
X8315539Y-17043150D01*
X8315539Y-17043150D02*
X8296491Y-17014579D01*
X8296491Y-17014579D02*
X8286968Y-16995531D01*
X8286968Y-16995531D02*
X8277444Y-16966960D01*
X8277444Y-16966960D02*
X8267920Y-16919341D01*
X8267920Y-16919341D02*
X8267920Y-16881246D01*
X8267920Y-16881246D02*
X8277444Y-16833627D01*
X8277444Y-16833627D02*
X8286968Y-16805055D01*
X8286968Y-16805055D02*
X8296491Y-16786008D01*
X8296491Y-16786008D02*
X8315539Y-16757436D01*
X8315539Y-16757436D02*
X8325063Y-16747912D01*
X8429825Y-16862198D02*
X8410777Y-16852674D01*
X8410777Y-16852674D02*
X8401253Y-16843150D01*
X8401253Y-16843150D02*
X8391730Y-16824103D01*
X8391730Y-16824103D02*
X8391730Y-16814579D01*
X8391730Y-16814579D02*
X8401253Y-16795531D01*
X8401253Y-16795531D02*
X8410777Y-16786008D01*
X8410777Y-16786008D02*
X8429825Y-16776484D01*
X8429825Y-16776484D02*
X8467920Y-16776484D01*
X8467920Y-16776484D02*
X8486968Y-16786008D01*
X8486968Y-16786008D02*
X8496491Y-16795531D01*
X8496491Y-16795531D02*
X8506015Y-16814579D01*
X8506015Y-16814579D02*
X8506015Y-16824103D01*
X8506015Y-16824103D02*
X8496491Y-16843150D01*
X8496491Y-16843150D02*
X8486968Y-16852674D01*
X8486968Y-16852674D02*
X8467920Y-16862198D01*
X8467920Y-16862198D02*
X8429825Y-16862198D01*
X8429825Y-16862198D02*
X8410777Y-16871722D01*
X8410777Y-16871722D02*
X8401253Y-16881246D01*
X8401253Y-16881246D02*
X8391730Y-16900293D01*
X8391730Y-16900293D02*
X8391730Y-16938389D01*
X8391730Y-16938389D02*
X8401253Y-16957436D01*
X8401253Y-16957436D02*
X8410777Y-16966960D01*
X8410777Y-16966960D02*
X8429825Y-16976484D01*
X8429825Y-16976484D02*
X8467920Y-16976484D01*
X8467920Y-16976484D02*
X8486968Y-16966960D01*
X8486968Y-16966960D02*
X8496491Y-16957436D01*
X8496491Y-16957436D02*
X8506015Y-16938389D01*
X8506015Y-16938389D02*
X8506015Y-16900293D01*
X8506015Y-16900293D02*
X8496491Y-16881246D01*
X8496491Y-16881246D02*
X8486968Y-16871722D01*
X8486968Y-16871722D02*
X8467920Y-16862198D01*
X8677444Y-16843150D02*
X8677444Y-16976484D01*
X8629825Y-16766960D02*
X8582206Y-16909817D01*
X8582206Y-16909817D02*
X8706015Y-16909817D01*
X8934587Y-16976484D02*
X8934587Y-16776484D01*
X9020301Y-16976484D02*
X9020301Y-16871722D01*
X9020301Y-16871722D02*
X9010777Y-16852674D01*
X9010777Y-16852674D02*
X8991730Y-16843150D01*
X8991730Y-16843150D02*
X8963158Y-16843150D01*
X8963158Y-16843150D02*
X8944111Y-16852674D01*
X8944111Y-16852674D02*
X8934587Y-16862198D01*
X9144111Y-16976484D02*
X9125063Y-16966960D01*
X9125063Y-16966960D02*
X9115539Y-16957436D01*
X9115539Y-16957436D02*
X9106015Y-16938389D01*
X9106015Y-16938389D02*
X9106015Y-16881246D01*
X9106015Y-16881246D02*
X9115539Y-16862198D01*
X9115539Y-16862198D02*
X9125063Y-16852674D01*
X9125063Y-16852674D02*
X9144111Y-16843150D01*
X9144111Y-16843150D02*
X9172682Y-16843150D01*
X9172682Y-16843150D02*
X9191730Y-16852674D01*
X9191730Y-16852674D02*
X9201253Y-16862198D01*
X9201253Y-16862198D02*
X9210777Y-16881246D01*
X9210777Y-16881246D02*
X9210777Y-16938389D01*
X9210777Y-16938389D02*
X9201253Y-16957436D01*
X9201253Y-16957436D02*
X9191730Y-16966960D01*
X9191730Y-16966960D02*
X9172682Y-16976484D01*
X9172682Y-16976484D02*
X9144111Y-16976484D01*
X9325063Y-16976484D02*
X9306015Y-16966960D01*
X9306015Y-16966960D02*
X9296492Y-16947912D01*
X9296492Y-16947912D02*
X9296492Y-16776484D01*
X9477444Y-16966960D02*
X9458396Y-16976484D01*
X9458396Y-16976484D02*
X9420301Y-16976484D01*
X9420301Y-16976484D02*
X9401253Y-16966960D01*
X9401253Y-16966960D02*
X9391730Y-16947912D01*
X9391730Y-16947912D02*
X9391730Y-16871722D01*
X9391730Y-16871722D02*
X9401253Y-16852674D01*
X9401253Y-16852674D02*
X9420301Y-16843150D01*
X9420301Y-16843150D02*
X9458396Y-16843150D01*
X9458396Y-16843150D02*
X9477444Y-16852674D01*
X9477444Y-16852674D02*
X9486968Y-16871722D01*
X9486968Y-16871722D02*
X9486968Y-16890770D01*
X9486968Y-16890770D02*
X9391730Y-16909817D01*
X9563158Y-16966960D02*
X9582206Y-16976484D01*
X9582206Y-16976484D02*
X9620301Y-16976484D01*
X9620301Y-16976484D02*
X9639349Y-16966960D01*
X9639349Y-16966960D02*
X9648873Y-16947912D01*
X9648873Y-16947912D02*
X9648873Y-16938389D01*
X9648873Y-16938389D02*
X9639349Y-16919341D01*
X9639349Y-16919341D02*
X9620301Y-16909817D01*
X9620301Y-16909817D02*
X9591730Y-16909817D01*
X9591730Y-16909817D02*
X9572682Y-16900293D01*
X9572682Y-16900293D02*
X9563158Y-16881246D01*
X9563158Y-16881246D02*
X9563158Y-16871722D01*
X9563158Y-16871722D02*
X9572682Y-16852674D01*
X9572682Y-16852674D02*
X9591730Y-16843150D01*
X9591730Y-16843150D02*
X9620301Y-16843150D01*
X9620301Y-16843150D02*
X9639349Y-16852674D01*
X9715539Y-17052674D02*
X9725063Y-17043150D01*
X9725063Y-17043150D02*
X9744111Y-17014579D01*
X9744111Y-17014579D02*
X9753634Y-16995531D01*
X9753634Y-16995531D02*
X9763158Y-16966960D01*
X9763158Y-16966960D02*
X9772682Y-16919341D01*
X9772682Y-16919341D02*
X9772682Y-16881246D01*
X9772682Y-16881246D02*
X9763158Y-16833627D01*
X9763158Y-16833627D02*
X9753634Y-16805055D01*
X9753634Y-16805055D02*
X9744111Y-16786008D01*
X9744111Y-16786008D02*
X9725063Y-16757436D01*
X9725063Y-16757436D02*
X9715539Y-16747912D01*
X10077444Y-17052674D02*
X10067920Y-17043150D01*
X10067920Y-17043150D02*
X10048873Y-17014579D01*
X10048873Y-17014579D02*
X10039349Y-16995531D01*
X10039349Y-16995531D02*
X10029825Y-16966960D01*
X10029825Y-16966960D02*
X10020301Y-16919341D01*
X10020301Y-16919341D02*
X10020301Y-16881246D01*
X10020301Y-16881246D02*
X10029825Y-16833627D01*
X10029825Y-16833627D02*
X10039349Y-16805055D01*
X10039349Y-16805055D02*
X10048873Y-16786008D01*
X10048873Y-16786008D02*
X10067920Y-16757436D01*
X10067920Y-16757436D02*
X10077444Y-16747912D01*
X10153634Y-16843150D02*
X10153634Y-16976484D01*
X10153634Y-16862198D02*
X10163158Y-16852674D01*
X10163158Y-16852674D02*
X10182206Y-16843150D01*
X10182206Y-16843150D02*
X10210777Y-16843150D01*
X10210777Y-16843150D02*
X10229825Y-16852674D01*
X10229825Y-16852674D02*
X10239349Y-16871722D01*
X10239349Y-16871722D02*
X10239349Y-16976484D01*
X10363158Y-16976484D02*
X10344111Y-16966960D01*
X10344111Y-16966960D02*
X10334587Y-16957436D01*
X10334587Y-16957436D02*
X10325063Y-16938389D01*
X10325063Y-16938389D02*
X10325063Y-16881246D01*
X10325063Y-16881246D02*
X10334587Y-16862198D01*
X10334587Y-16862198D02*
X10344111Y-16852674D01*
X10344111Y-16852674D02*
X10363158Y-16843150D01*
X10363158Y-16843150D02*
X10391730Y-16843150D01*
X10391730Y-16843150D02*
X10410777Y-16852674D01*
X10410777Y-16852674D02*
X10420301Y-16862198D01*
X10420301Y-16862198D02*
X10429825Y-16881246D01*
X10429825Y-16881246D02*
X10429825Y-16938389D01*
X10429825Y-16938389D02*
X10420301Y-16957436D01*
X10420301Y-16957436D02*
X10410777Y-16966960D01*
X10410777Y-16966960D02*
X10391730Y-16976484D01*
X10391730Y-16976484D02*
X10363158Y-16976484D01*
X10486968Y-16843150D02*
X10563158Y-16843150D01*
X10515539Y-16776484D02*
X10515539Y-16947912D01*
X10515539Y-16947912D02*
X10525063Y-16966960D01*
X10525063Y-16966960D02*
X10544111Y-16976484D01*
X10544111Y-16976484D02*
X10563158Y-16976484D01*
X10782206Y-16843150D02*
X10782206Y-17043150D01*
X10782206Y-16852674D02*
X10801254Y-16843150D01*
X10801254Y-16843150D02*
X10839349Y-16843150D01*
X10839349Y-16843150D02*
X10858396Y-16852674D01*
X10858396Y-16852674D02*
X10867920Y-16862198D01*
X10867920Y-16862198D02*
X10877444Y-16881246D01*
X10877444Y-16881246D02*
X10877444Y-16938389D01*
X10877444Y-16938389D02*
X10867920Y-16957436D01*
X10867920Y-16957436D02*
X10858396Y-16966960D01*
X10858396Y-16966960D02*
X10839349Y-16976484D01*
X10839349Y-16976484D02*
X10801254Y-16976484D01*
X10801254Y-16976484D02*
X10782206Y-16966960D01*
X10991730Y-16976484D02*
X10972682Y-16966960D01*
X10972682Y-16966960D02*
X10963158Y-16947912D01*
X10963158Y-16947912D02*
X10963158Y-16776484D01*
X11153635Y-16976484D02*
X11153635Y-16871722D01*
X11153635Y-16871722D02*
X11144111Y-16852674D01*
X11144111Y-16852674D02*
X11125063Y-16843150D01*
X11125063Y-16843150D02*
X11086968Y-16843150D01*
X11086968Y-16843150D02*
X11067920Y-16852674D01*
X11153635Y-16966960D02*
X11134587Y-16976484D01*
X11134587Y-16976484D02*
X11086968Y-16976484D01*
X11086968Y-16976484D02*
X11067920Y-16966960D01*
X11067920Y-16966960D02*
X11058396Y-16947912D01*
X11058396Y-16947912D02*
X11058396Y-16928865D01*
X11058396Y-16928865D02*
X11067920Y-16909817D01*
X11067920Y-16909817D02*
X11086968Y-16900293D01*
X11086968Y-16900293D02*
X11134587Y-16900293D01*
X11134587Y-16900293D02*
X11153635Y-16890770D01*
X11220301Y-16843150D02*
X11296492Y-16843150D01*
X11248873Y-16776484D02*
X11248873Y-16947912D01*
X11248873Y-16947912D02*
X11258396Y-16966960D01*
X11258396Y-16966960D02*
X11277444Y-16976484D01*
X11277444Y-16976484D02*
X11296492Y-16976484D01*
X11439349Y-16966960D02*
X11420301Y-16976484D01*
X11420301Y-16976484D02*
X11382206Y-16976484D01*
X11382206Y-16976484D02*
X11363158Y-16966960D01*
X11363158Y-16966960D02*
X11353634Y-16947912D01*
X11353634Y-16947912D02*
X11353634Y-16871722D01*
X11353634Y-16871722D02*
X11363158Y-16852674D01*
X11363158Y-16852674D02*
X11382206Y-16843150D01*
X11382206Y-16843150D02*
X11420301Y-16843150D01*
X11420301Y-16843150D02*
X11439349Y-16852674D01*
X11439349Y-16852674D02*
X11448873Y-16871722D01*
X11448873Y-16871722D02*
X11448873Y-16890770D01*
X11448873Y-16890770D02*
X11353634Y-16909817D01*
X11620301Y-16976484D02*
X11620301Y-16776484D01*
X11620301Y-16966960D02*
X11601254Y-16976484D01*
X11601254Y-16976484D02*
X11563158Y-16976484D01*
X11563158Y-16976484D02*
X11544111Y-16966960D01*
X11544111Y-16966960D02*
X11534587Y-16957436D01*
X11534587Y-16957436D02*
X11525063Y-16938389D01*
X11525063Y-16938389D02*
X11525063Y-16881246D01*
X11525063Y-16881246D02*
X11534587Y-16862198D01*
X11534587Y-16862198D02*
X11544111Y-16852674D01*
X11544111Y-16852674D02*
X11563158Y-16843150D01*
X11563158Y-16843150D02*
X11601254Y-16843150D01*
X11601254Y-16843150D02*
X11620301Y-16852674D01*
X11696492Y-17052674D02*
X11706015Y-17043150D01*
X11706015Y-17043150D02*
X11725063Y-17014579D01*
X11725063Y-17014579D02*
X11734587Y-16995531D01*
X11734587Y-16995531D02*
X11744111Y-16966960D01*
X11744111Y-16966960D02*
X11753634Y-16919341D01*
X11753634Y-16919341D02*
X11753634Y-16881246D01*
X11753634Y-16881246D02*
X11744111Y-16833627D01*
X11744111Y-16833627D02*
X11734587Y-16805055D01*
X11734587Y-16805055D02*
X11725063Y-16786008D01*
X11725063Y-16786008D02*
X11706015Y-16757436D01*
X11706015Y-16757436D02*
X11696492Y-16747912D01*
M02*
