G04 #@! TF.GenerationSoftware,KiCad,Pcbnew,9.0.4*
G04 #@! TF.CreationDate,2025-10-17T22:02:06+08:00*
G04 #@! TF.ProjectId,Custom Mechanical Keyboard,43757374-6f6d-4204-9d65-6368616e6963,rev?*
G04 #@! TF.SameCoordinates,Original*
G04 #@! TF.FileFunction,Soldermask,Top*
G04 #@! TF.FilePolarity,Negative*
%FSLAX46Y46*%
G04 Gerber Fmt 4.6, Leading zero omitted, Abs format (unit mm)*
G04 Created by KiCad (PCBNEW 9.0.4) date 2025-10-17 22:02:06*
%MOMM*%
%LPD*%
G01*
G04 APERTURE LIST*
G04 Aperture macros list*
%AMRoundRect*
0 Rectangle with rounded corners*
0 $1 Rounding radius*
0 $2 $3 $4 $5 $6 $7 $8 $9 X,Y pos of 4 corners*
0 Add a 4 corners polygon primitive as box body*
4,1,4,$2,$3,$4,$5,$6,$7,$8,$9,$2,$3,0*
0 Add four circle primitives for the rounded corners*
1,1,$1+$1,$2,$3*
1,1,$1+$1,$4,$5*
1,1,$1+$1,$6,$7*
1,1,$1+$1,$8,$9*
0 Add four rect primitives between the rounded corners*
20,1,$1+$1,$2,$3,$4,$5,0*
20,1,$1+$1,$4,$5,$6,$7,0*
20,1,$1+$1,$6,$7,$8,$9,0*
20,1,$1+$1,$8,$9,$2,$3,0*%
%AMOutline5P*
0 Free polygon, 5 corners , with rotation*
0 The origin of the aperture is its center*
0 number of corners: always 5*
0 $1 to $10 corner X, Y*
0 $11 Rotation angle, in degrees counterclockwise*
0 create outline with 5 corners*
4,1,5,$1,$2,$3,$4,$5,$6,$7,$8,$9,$10,$1,$2,$11*%
%AMOutline6P*
0 Free polygon, 6 corners , with rotation*
0 The origin of the aperture is its center*
0 number of corners: always 6*
0 $1 to $12 corner X, Y*
0 $13 Rotation angle, in degrees counterclockwise*
0 create outline with 6 corners*
4,1,6,$1,$2,$3,$4,$5,$6,$7,$8,$9,$10,$11,$12,$1,$2,$13*%
%AMOutline7P*
0 Free polygon, 7 corners , with rotation*
0 The origin of the aperture is its center*
0 number of corners: always 7*
0 $1 to $14 corner X, Y*
0 $15 Rotation angle, in degrees counterclockwise*
0 create outline with 7 corners*
4,1,7,$1,$2,$3,$4,$5,$6,$7,$8,$9,$10,$11,$12,$13,$14,$1,$2,$15*%
%AMOutline8P*
0 Free polygon, 8 corners , with rotation*
0 The origin of the aperture is its center*
0 number of corners: always 8*
0 $1 to $16 corner X, Y*
0 $17 Rotation angle, in degrees counterclockwise*
0 create outline with 8 corners*
4,1,8,$1,$2,$3,$4,$5,$6,$7,$8,$9,$10,$11,$12,$13,$14,$15,$16,$1,$2,$17*%
G04 Aperture macros list end*
%ADD10C,5.000000*%
%ADD11C,1.400000*%
%ADD12C,1.000000*%
%ADD13C,3.500000*%
%ADD14C,3.000000*%
%ADD15RoundRect,0.250000X-0.450000X0.450000X-0.450000X-0.450000X0.450000X-0.450000X0.450000X0.450000X0*%
%ADD16R,2.000000X2.000000*%
%ADD17C,2.000000*%
%ADD18R,2.500000X3.000000*%
%ADD19RoundRect,0.150000X0.150000X-0.512500X0.150000X0.512500X-0.150000X0.512500X-0.150000X-0.512500X0*%
%ADD20RoundRect,0.250000X-0.350000X-0.625000X0.350000X-0.625000X0.350000X0.625000X-0.350000X0.625000X0*%
%ADD21O,1.200000X1.750000*%
%ADD22RoundRect,0.250000X0.625000X-0.350000X0.625000X0.350000X-0.625000X0.350000X-0.625000X-0.350000X0*%
%ADD23O,1.750000X1.200000*%
%ADD24R,0.820000X1.500000*%
%ADD25Outline5P,-0.750000X0.410000X0.750000X0.410000X0.750000X0.000000X0.340000X-0.410000X-0.750000X-0.410000X90.000000*%
%ADD26RoundRect,0.250000X0.350000X0.625000X-0.350000X0.625000X-0.350000X-0.625000X0.350000X-0.625000X0*%
%ADD27R,1.700000X1.700000*%
%ADD28C,1.700000*%
%ADD29R,1.500000X1.500000*%
G04 APERTURE END LIST*
D10*
X361950000Y-95250000D03*
D11*
X366950000Y-90100000D03*
D10*
X238125000Y-95250000D03*
D11*
X243125000Y-90100000D03*
D10*
X228600000Y-76200000D03*
D11*
X233600000Y-71050000D03*
D10*
X142875000Y-95250000D03*
D11*
X147875000Y-90100000D03*
D12*
X53200000Y-139680000D03*
D13*
X257175000Y-133350000D03*
D10*
X285750000Y-76200000D03*
D11*
X290750000Y-71050000D03*
D10*
X190500000Y-76200000D03*
D11*
X195500000Y-71050000D03*
D10*
X276225000Y-95250000D03*
D11*
X281225000Y-90100000D03*
D10*
X257175000Y-114300000D03*
D11*
X262175000Y-109150000D03*
D10*
X254793750Y-152400000D03*
D11*
X259793750Y-147250000D03*
D14*
X238125000Y-152400000D03*
D10*
X338137500Y-95250000D03*
D11*
X343137500Y-90100000D03*
D10*
X152400000Y-133350000D03*
D11*
X157400000Y-128200000D03*
D14*
X352425000Y-57150000D03*
D10*
X328612500Y-114300000D03*
D11*
X333612500Y-109150000D03*
D10*
X161925000Y-95250000D03*
D11*
X166925000Y-90100000D03*
D15*
X52017500Y-70500000D03*
D11*
X52017500Y-73000000D03*
X52017500Y-75500000D03*
X48717500Y-75500000D03*
X48717500Y-73000000D03*
X48717500Y-70500000D03*
D16*
X54650000Y-64650000D03*
D17*
X59650000Y-64650000D03*
X57150000Y-64650000D03*
D18*
X51550000Y-57150000D03*
X62750000Y-57150000D03*
D17*
X54650000Y-50150000D03*
X59650000Y-50150000D03*
D10*
X295275000Y-95250000D03*
D11*
X300275000Y-90100000D03*
D10*
X266700000Y-76200000D03*
D11*
X271700000Y-71050000D03*
D14*
X304800000Y-95250000D03*
D10*
X209550000Y-133350000D03*
D11*
X214550000Y-128200000D03*
D10*
X219075000Y-114300000D03*
D11*
X224075000Y-109150000D03*
D12*
X53200000Y-147300000D03*
D14*
X247650000Y-114300000D03*
D10*
X180975000Y-114300000D03*
D11*
X185975000Y-109150000D03*
D12*
X53200000Y-144750000D03*
D10*
X342900000Y-133350000D03*
D11*
X347900000Y-128200000D03*
D12*
X53200000Y-142200000D03*
D10*
X228600000Y-57150000D03*
D11*
X233600000Y-52000000D03*
D10*
X104775000Y-114300000D03*
D11*
X109775000Y-109150000D03*
D10*
X114300000Y-76200000D03*
D11*
X119300000Y-71050000D03*
D10*
X266700000Y-133350000D03*
D11*
X271700000Y-128200000D03*
D19*
X54050000Y-106137500D03*
X55000000Y-106137500D03*
X55950000Y-106137500D03*
X55950000Y-103862500D03*
X55000000Y-103862500D03*
X54050000Y-103862500D03*
D10*
X200025000Y-114300000D03*
D11*
X205025000Y-109150000D03*
D12*
X62500000Y-134600000D03*
D10*
X102393750Y-152400000D03*
D11*
X107393750Y-147250000D03*
D10*
X152400000Y-76200000D03*
D11*
X157400000Y-71050000D03*
D10*
X76200000Y-57150000D03*
D11*
X81200000Y-52000000D03*
D10*
X123825000Y-95250000D03*
D11*
X128825000Y-90100000D03*
D14*
X190500000Y-114300000D03*
D10*
X180975000Y-95250000D03*
D11*
X185975000Y-90100000D03*
D10*
X314325000Y-133350000D03*
D11*
X319325000Y-128200000D03*
D14*
X133350000Y-95250000D03*
X142875000Y-152400000D03*
D10*
X314325000Y-95250000D03*
D11*
X319325000Y-90100000D03*
D10*
X76200000Y-76200000D03*
D11*
X81200000Y-71050000D03*
D10*
X161925000Y-114300000D03*
D11*
X166925000Y-109150000D03*
D20*
X50500000Y-96000000D03*
D21*
X52500000Y-96000000D03*
X54500000Y-96000000D03*
X56500000Y-96000000D03*
X58500000Y-96000000D03*
X60500000Y-96000000D03*
X62500000Y-96000000D03*
D14*
X161925000Y-57150000D03*
D10*
X361950000Y-57150000D03*
D11*
X366950000Y-52000000D03*
D14*
X352425000Y-152400000D03*
D13*
X85725000Y-76200000D03*
X161925000Y-76200000D03*
D10*
X304800000Y-76200000D03*
D11*
X309800000Y-71050000D03*
D10*
X209550000Y-57150000D03*
D11*
X214550000Y-52000000D03*
D10*
X361950000Y-114300000D03*
D11*
X366950000Y-109150000D03*
D10*
X361950000Y-76200000D03*
D11*
X366950000Y-71050000D03*
D10*
X333375000Y-76200000D03*
D11*
X338375000Y-71050000D03*
D10*
X133350000Y-57150000D03*
D11*
X138350000Y-52000000D03*
D13*
X238125000Y-76200000D03*
D10*
X78581250Y-152400000D03*
D11*
X83581250Y-147250000D03*
D14*
X190500000Y-95250000D03*
D10*
X247650000Y-133350000D03*
D11*
X252650000Y-128200000D03*
D10*
X104775000Y-95250000D03*
D11*
X109775000Y-90100000D03*
D10*
X342900000Y-57150000D03*
D11*
X347900000Y-52000000D03*
D10*
X190500000Y-57150000D03*
D11*
X195500000Y-52000000D03*
D10*
X200025000Y-95250000D03*
D11*
X205025000Y-90100000D03*
D10*
X133350000Y-76200000D03*
D11*
X138350000Y-71050000D03*
D10*
X247650000Y-57150000D03*
D11*
X252650000Y-52000000D03*
D10*
X80962500Y-114300000D03*
D11*
X85962500Y-109150000D03*
D10*
X95250000Y-76200000D03*
D11*
X100250000Y-71050000D03*
D10*
X114300000Y-133350000D03*
D11*
X119300000Y-128200000D03*
D22*
X58500000Y-157500000D03*
D23*
X58500000Y-155500000D03*
X58500000Y-153500000D03*
X58500000Y-151500000D03*
X58500000Y-149500000D03*
X58500000Y-147500000D03*
D10*
X342900000Y-152400000D03*
D11*
X347900000Y-147250000D03*
D10*
X295275000Y-114300000D03*
D11*
X300275000Y-109150000D03*
D14*
X247650000Y-95250000D03*
D10*
X304800000Y-57150000D03*
D11*
X309800000Y-52000000D03*
D10*
X80962500Y-95250000D03*
D11*
X85962500Y-90100000D03*
D10*
X171450000Y-76200000D03*
D11*
X176450000Y-71050000D03*
D10*
X152400000Y-57150000D03*
D11*
X157400000Y-52000000D03*
D10*
X123825000Y-114300000D03*
D11*
X128825000Y-109150000D03*
D10*
X266700000Y-57150000D03*
D11*
X271700000Y-52000000D03*
D14*
X292893750Y-152400000D03*
X90487500Y-114300000D03*
D10*
X238125000Y-114300000D03*
D11*
X243125000Y-109150000D03*
D10*
X361950000Y-152400000D03*
D11*
X366950000Y-147250000D03*
D10*
X209550000Y-76200000D03*
D11*
X214550000Y-71050000D03*
D10*
X285750000Y-133350000D03*
D11*
X290750000Y-128200000D03*
D13*
X180975000Y-133350000D03*
X333375000Y-133350000D03*
D10*
X285750000Y-57150000D03*
D11*
X290750000Y-52000000D03*
D10*
X171450000Y-57150000D03*
D11*
X176450000Y-52000000D03*
D10*
X126206250Y-152400000D03*
D11*
X131206250Y-147250000D03*
D12*
X63900000Y-149840000D03*
D10*
X190500000Y-152400000D03*
D11*
X195500000Y-147250000D03*
D10*
X323850000Y-57150000D03*
D11*
X328850000Y-52000000D03*
D10*
X219075000Y-95250000D03*
D11*
X224075000Y-90100000D03*
D10*
X278606250Y-152400000D03*
D11*
X283606250Y-147250000D03*
D10*
X142875000Y-114300000D03*
D11*
X147875000Y-109150000D03*
D10*
X171450000Y-133350000D03*
D11*
X176450000Y-128200000D03*
D14*
X304800000Y-114300000D03*
D10*
X114300000Y-57150000D03*
D11*
X119300000Y-52000000D03*
D10*
X323850000Y-152400000D03*
D11*
X328850000Y-147250000D03*
D14*
X88106250Y-152400000D03*
D13*
X104775000Y-133350000D03*
D10*
X361950000Y-133350000D03*
D11*
X366950000Y-128200000D03*
D12*
X66114600Y-109000000D03*
D14*
X257175000Y-57150000D03*
D10*
X276225000Y-114300000D03*
D11*
X281225000Y-109150000D03*
D14*
X133350000Y-114300000D03*
D10*
X190500000Y-133350000D03*
D11*
X195500000Y-128200000D03*
D10*
X95250000Y-57150000D03*
D11*
X100250000Y-52000000D03*
D14*
X71437500Y-95250000D03*
D13*
X314325000Y-76200000D03*
D10*
X247650000Y-76200000D03*
D11*
X252650000Y-71050000D03*
D14*
X66675000Y-57150000D03*
D10*
X133350000Y-133350000D03*
D11*
X138350000Y-128200000D03*
D10*
X85725000Y-133350000D03*
D11*
X90725000Y-128200000D03*
D10*
X257175000Y-95250000D03*
D11*
X262175000Y-90100000D03*
D10*
X302418750Y-152400000D03*
D11*
X307418750Y-147250000D03*
D24*
X70000000Y-116900000D03*
X71500000Y-116900000D03*
X70000000Y-111700000D03*
D25*
X71500000Y-111700000D03*
D10*
X228600000Y-133350000D03*
D11*
X233600000Y-128200000D03*
D26*
X58500000Y-83500000D03*
D21*
X56500000Y-83500000D03*
X54500000Y-83500000D03*
X52500000Y-83500000D03*
X50500000Y-83500000D03*
D27*
X50885400Y-160000000D03*
D28*
X50885400Y-157460000D03*
X50885400Y-154920000D03*
X50885400Y-152380000D03*
X50885400Y-149840000D03*
X50885400Y-147300000D03*
X50885400Y-144760000D03*
X50885400Y-142220000D03*
X50885400Y-139680000D03*
X50885400Y-137140000D03*
X50885400Y-134600000D03*
X50885400Y-132060000D03*
X50885400Y-129520000D03*
X50885400Y-126980000D03*
X50885400Y-124440000D03*
X50885400Y-121900000D03*
X50885400Y-119360000D03*
X50885400Y-116820000D03*
X50885400Y-114280000D03*
X50885400Y-111740000D03*
X66100000Y-111740000D03*
X66100000Y-114280000D03*
X66100000Y-116820000D03*
X66100000Y-119360000D03*
X66100000Y-121900000D03*
X66100000Y-124440000D03*
X66100000Y-126980000D03*
X66100000Y-129520000D03*
X66100000Y-132060000D03*
X66100000Y-134600000D03*
X66100000Y-137140000D03*
X66100000Y-139680000D03*
X66100000Y-142220000D03*
X66100000Y-144760000D03*
X66100000Y-147300000D03*
X66100000Y-149840000D03*
X66100000Y-152380000D03*
X66100000Y-154920000D03*
X66100000Y-157460000D03*
D27*
X66100000Y-160000000D03*
D29*
X54720800Y-115524600D03*
D28*
X57260800Y-115524600D03*
X59800800Y-115524600D03*
X62340800Y-115524600D03*
M02*
