G04 #@! TF.GenerationSoftware,KiCad,Pcbnew,9.0.4*
G04 #@! TF.CreationDate,2025-10-26T15:50:02+08:00*
G04 #@! TF.ProjectId,Custom Mechanical Keyboard,43757374-6f6d-4204-9d65-6368616e6963,rev?*
G04 #@! TF.SameCoordinates,Original*
G04 #@! TF.FileFunction,Legend,Top*
G04 #@! TF.FilePolarity,Positive*
%FSLAX46Y46*%
G04 Gerber Fmt 4.6, Leading zero omitted, Abs format (unit mm)*
G04 Created by KiCad (PCBNEW 9.0.4) date 2025-10-26 15:50:02*
%MOMM*%
%LPD*%
G01*
G04 APERTURE LIST*
G04 Aperture macros list*
%AMRoundRect*
0 Rectangle with rounded corners*
0 $1 Rounding radius*
0 $2 $3 $4 $5 $6 $7 $8 $9 X,Y pos of 4 corners*
0 Add a 4 corners polygon primitive as box body*
4,1,4,$2,$3,$4,$5,$6,$7,$8,$9,$2,$3,0*
0 Add four circle primitives for the rounded corners*
1,1,$1+$1,$2,$3*
1,1,$1+$1,$4,$5*
1,1,$1+$1,$6,$7*
1,1,$1+$1,$8,$9*
0 Add four rect primitives between the rounded corners*
20,1,$1+$1,$2,$3,$4,$5,0*
20,1,$1+$1,$4,$5,$6,$7,0*
20,1,$1+$1,$6,$7,$8,$9,0*
20,1,$1+$1,$8,$9,$2,$3,0*%
%AMOutline5P*
0 Free polygon, 5 corners , with rotation*
0 The origin of the aperture is its center*
0 number of corners: always 5*
0 $1 to $10 corner X, Y*
0 $11 Rotation angle, in degrees counterclockwise*
0 create outline with 5 corners*
4,1,5,$1,$2,$3,$4,$5,$6,$7,$8,$9,$10,$1,$2,$11*%
%AMOutline6P*
0 Free polygon, 6 corners , with rotation*
0 The origin of the aperture is its center*
0 number of corners: always 6*
0 $1 to $12 corner X, Y*
0 $13 Rotation angle, in degrees counterclockwise*
0 create outline with 6 corners*
4,1,6,$1,$2,$3,$4,$5,$6,$7,$8,$9,$10,$11,$12,$1,$2,$13*%
%AMOutline7P*
0 Free polygon, 7 corners , with rotation*
0 The origin of the aperture is its center*
0 number of corners: always 7*
0 $1 to $14 corner X, Y*
0 $15 Rotation angle, in degrees counterclockwise*
0 create outline with 7 corners*
4,1,7,$1,$2,$3,$4,$5,$6,$7,$8,$9,$10,$11,$12,$13,$14,$1,$2,$15*%
%AMOutline8P*
0 Free polygon, 8 corners , with rotation*
0 The origin of the aperture is its center*
0 number of corners: always 8*
0 $1 to $16 corner X, Y*
0 $17 Rotation angle, in degrees counterclockwise*
0 create outline with 8 corners*
4,1,8,$1,$2,$3,$4,$5,$6,$7,$8,$9,$10,$11,$12,$13,$14,$15,$16,$1,$2,$17*%
G04 Aperture macros list end*
%ADD10C,0.150000*%
%ADD11C,0.100000*%
%ADD12C,0.140000*%
%ADD13C,0.120000*%
%ADD14C,5.000000*%
%ADD15C,1.400000*%
%ADD16C,3.000000*%
%ADD17C,3.500000*%
%ADD18RoundRect,0.075000X-0.600000X0.075000X-0.600000X-0.075000X0.600000X-0.075000X0.600000X0.075000X0*%
%ADD19RoundRect,0.300000X-0.950000X0.700000X-0.950000X-0.700000X0.950000X-0.700000X0.950000X0.700000X0*%
%ADD20R,0.820000X1.500000*%
%ADD21Outline5P,-0.750000X0.410000X0.750000X0.410000X0.750000X0.000000X0.340000X-0.410000X-0.750000X-0.410000X90.000000*%
G04 APERTURE END LIST*
D10*
X73154819Y-99833333D02*
X73869104Y-99833333D01*
X73869104Y-99833333D02*
X74011961Y-99880952D01*
X74011961Y-99880952D02*
X74107200Y-99976190D01*
X74107200Y-99976190D02*
X74154819Y-100119047D01*
X74154819Y-100119047D02*
X74154819Y-100214285D01*
X73154819Y-99452380D02*
X73154819Y-98785714D01*
X73154819Y-98785714D02*
X74154819Y-99214285D01*
D11*
X73312180Y-117609524D02*
X73359800Y-117657143D01*
X73359800Y-117657143D02*
X73407419Y-117800000D01*
X73407419Y-117800000D02*
X73407419Y-117895238D01*
X73407419Y-117895238D02*
X73359800Y-118038095D01*
X73359800Y-118038095D02*
X73264561Y-118133333D01*
X73264561Y-118133333D02*
X73169323Y-118180952D01*
X73169323Y-118180952D02*
X72978847Y-118228571D01*
X72978847Y-118228571D02*
X72835990Y-118228571D01*
X72835990Y-118228571D02*
X72645514Y-118180952D01*
X72645514Y-118180952D02*
X72550276Y-118133333D01*
X72550276Y-118133333D02*
X72455038Y-118038095D01*
X72455038Y-118038095D02*
X72407419Y-117895238D01*
X72407419Y-117895238D02*
X72407419Y-117800000D01*
X72407419Y-117800000D02*
X72455038Y-117657143D01*
X72455038Y-117657143D02*
X72502657Y-117609524D01*
X73121704Y-117228571D02*
X73121704Y-116752381D01*
X73407419Y-117323809D02*
X72407419Y-116990476D01*
X72407419Y-116990476D02*
X73407419Y-116657143D01*
X73407419Y-116323809D02*
X72407419Y-116323809D01*
X72407419Y-116323809D02*
X72407419Y-115942857D01*
X72407419Y-115942857D02*
X72455038Y-115847619D01*
X72455038Y-115847619D02*
X72502657Y-115800000D01*
X72502657Y-115800000D02*
X72597895Y-115752381D01*
X72597895Y-115752381D02*
X72740752Y-115752381D01*
X72740752Y-115752381D02*
X72835990Y-115800000D01*
X72835990Y-115800000D02*
X72883609Y-115847619D01*
X72883609Y-115847619D02*
X72931228Y-115942857D01*
X72931228Y-115942857D02*
X72931228Y-116323809D01*
X73359800Y-115371428D02*
X73407419Y-115228571D01*
X73407419Y-115228571D02*
X73407419Y-114990476D01*
X73407419Y-114990476D02*
X73359800Y-114895238D01*
X73359800Y-114895238D02*
X73312180Y-114847619D01*
X73312180Y-114847619D02*
X73216942Y-114800000D01*
X73216942Y-114800000D02*
X73121704Y-114800000D01*
X73121704Y-114800000D02*
X73026466Y-114847619D01*
X73026466Y-114847619D02*
X72978847Y-114895238D01*
X72978847Y-114895238D02*
X72931228Y-114990476D01*
X72931228Y-114990476D02*
X72883609Y-115180952D01*
X72883609Y-115180952D02*
X72835990Y-115276190D01*
X72835990Y-115276190D02*
X72788371Y-115323809D01*
X72788371Y-115323809D02*
X72693133Y-115371428D01*
X72693133Y-115371428D02*
X72597895Y-115371428D01*
X72597895Y-115371428D02*
X72502657Y-115323809D01*
X72502657Y-115323809D02*
X72455038Y-115276190D01*
X72455038Y-115276190D02*
X72407419Y-115180952D01*
X72407419Y-115180952D02*
X72407419Y-114942857D01*
X72407419Y-114942857D02*
X72455038Y-114800000D01*
X73502657Y-114609524D02*
X73502657Y-113847619D01*
X73407419Y-113133333D02*
X73407419Y-113609523D01*
X73407419Y-113609523D02*
X72407419Y-113609523D01*
X72883609Y-112799999D02*
X72883609Y-112466666D01*
X73407419Y-112323809D02*
X73407419Y-112799999D01*
X73407419Y-112799999D02*
X72407419Y-112799999D01*
X72407419Y-112799999D02*
X72407419Y-112323809D01*
X73407419Y-111895237D02*
X72407419Y-111895237D01*
X72407419Y-111895237D02*
X72407419Y-111657142D01*
X72407419Y-111657142D02*
X72455038Y-111514285D01*
X72455038Y-111514285D02*
X72550276Y-111419047D01*
X72550276Y-111419047D02*
X72645514Y-111371428D01*
X72645514Y-111371428D02*
X72835990Y-111323809D01*
X72835990Y-111323809D02*
X72978847Y-111323809D01*
X72978847Y-111323809D02*
X73169323Y-111371428D01*
X73169323Y-111371428D02*
X73264561Y-111419047D01*
X73264561Y-111419047D02*
X73359800Y-111514285D01*
X73359800Y-111514285D02*
X73407419Y-111657142D01*
X73407419Y-111657142D02*
X73407419Y-111895237D01*
X73407419Y-110371428D02*
X73407419Y-110942856D01*
X73407419Y-110657142D02*
X72407419Y-110657142D01*
X72407419Y-110657142D02*
X72550276Y-110752380D01*
X72550276Y-110752380D02*
X72645514Y-110847618D01*
X72645514Y-110847618D02*
X72693133Y-110942856D01*
D10*
X69204819Y-110214285D02*
X69204819Y-110785713D01*
X69204819Y-110499999D02*
X68204819Y-110499999D01*
X68204819Y-110499999D02*
X68347676Y-110595237D01*
X68347676Y-110595237D02*
X68442914Y-110690475D01*
X68442914Y-110690475D02*
X68490533Y-110785713D01*
D12*
X231625000Y-89750000D02*
X231625000Y-88750000D01*
X231625000Y-101750000D02*
X231625000Y-100750000D01*
X231625000Y-101750000D02*
X232625000Y-101750000D01*
X232625000Y-88750000D02*
X231625000Y-88750000D01*
X243625000Y-101750000D02*
X244625000Y-101750000D01*
X244625000Y-88750000D02*
X243625000Y-88750000D01*
X244625000Y-88750000D02*
X244625000Y-89750000D01*
X244625000Y-100750000D02*
X244625000Y-101750000D01*
X355450000Y-89750000D02*
X355450000Y-88750000D01*
X355450000Y-101750000D02*
X355450000Y-100750000D01*
X355450000Y-101750000D02*
X356450000Y-101750000D01*
X356450000Y-88750000D02*
X355450000Y-88750000D01*
X367450000Y-101750000D02*
X368450000Y-101750000D01*
X368450000Y-88750000D02*
X367450000Y-88750000D01*
X368450000Y-88750000D02*
X368450000Y-89750000D01*
X368450000Y-100750000D02*
X368450000Y-101750000D01*
X322112500Y-108800000D02*
X322112500Y-107800000D01*
X322112500Y-120800000D02*
X322112500Y-119800000D01*
X322112500Y-120800000D02*
X323112500Y-120800000D01*
X323112500Y-107800000D02*
X322112500Y-107800000D01*
X334112500Y-120800000D02*
X335112500Y-120800000D01*
X335112500Y-107800000D02*
X334112500Y-107800000D01*
X335112500Y-107800000D02*
X335112500Y-108800000D01*
X335112500Y-119800000D02*
X335112500Y-120800000D01*
X155425000Y-89750000D02*
X155425000Y-88750000D01*
X155425000Y-101750000D02*
X155425000Y-100750000D01*
X155425000Y-101750000D02*
X156425000Y-101750000D01*
X156425000Y-88750000D02*
X155425000Y-88750000D01*
X167425000Y-101750000D02*
X168425000Y-101750000D01*
X168425000Y-88750000D02*
X167425000Y-88750000D01*
X168425000Y-88750000D02*
X168425000Y-89750000D01*
X168425000Y-100750000D02*
X168425000Y-101750000D01*
X288775000Y-89750000D02*
X288775000Y-88750000D01*
X288775000Y-101750000D02*
X288775000Y-100750000D01*
X288775000Y-101750000D02*
X289775000Y-101750000D01*
X289775000Y-88750000D02*
X288775000Y-88750000D01*
X300775000Y-101750000D02*
X301775000Y-101750000D01*
X301775000Y-88750000D02*
X300775000Y-88750000D01*
X301775000Y-88750000D02*
X301775000Y-89750000D01*
X301775000Y-100750000D02*
X301775000Y-101750000D01*
X260200000Y-70700000D02*
X260200000Y-69700000D01*
X260200000Y-82700000D02*
X260200000Y-81700000D01*
X260200000Y-82700000D02*
X261200000Y-82700000D01*
X261200000Y-69700000D02*
X260200000Y-69700000D01*
X272200000Y-82700000D02*
X273200000Y-82700000D01*
X273200000Y-69700000D02*
X272200000Y-69700000D01*
X273200000Y-69700000D02*
X273200000Y-70700000D01*
X273200000Y-81700000D02*
X273200000Y-82700000D01*
X203050000Y-127850000D02*
X203050000Y-126850000D01*
X203050000Y-139850000D02*
X203050000Y-138850000D01*
X203050000Y-139850000D02*
X204050000Y-139850000D01*
X204050000Y-126850000D02*
X203050000Y-126850000D01*
X215050000Y-139850000D02*
X216050000Y-139850000D01*
X216050000Y-126850000D02*
X215050000Y-126850000D01*
X216050000Y-126850000D02*
X216050000Y-127850000D01*
X216050000Y-138850000D02*
X216050000Y-139850000D01*
X212575000Y-108800000D02*
X212575000Y-107800000D01*
X212575000Y-120800000D02*
X212575000Y-119800000D01*
X212575000Y-120800000D02*
X213575000Y-120800000D01*
X213575000Y-107800000D02*
X212575000Y-107800000D01*
X224575000Y-120800000D02*
X225575000Y-120800000D01*
X225575000Y-107800000D02*
X224575000Y-107800000D01*
X225575000Y-107800000D02*
X225575000Y-108800000D01*
X225575000Y-119800000D02*
X225575000Y-120800000D01*
X174475000Y-108800000D02*
X174475000Y-107800000D01*
X174475000Y-120800000D02*
X174475000Y-119800000D01*
X174475000Y-120800000D02*
X175475000Y-120800000D01*
X175475000Y-107800000D02*
X174475000Y-107800000D01*
X186475000Y-120800000D02*
X187475000Y-120800000D01*
X187475000Y-107800000D02*
X186475000Y-107800000D01*
X187475000Y-107800000D02*
X187475000Y-108800000D01*
X187475000Y-119800000D02*
X187475000Y-120800000D01*
X279250000Y-70700000D02*
X279250000Y-69700000D01*
X279250000Y-82700000D02*
X279250000Y-81700000D01*
X279250000Y-82700000D02*
X280250000Y-82700000D01*
X280250000Y-69700000D02*
X279250000Y-69700000D01*
X291250000Y-82700000D02*
X292250000Y-82700000D01*
X292250000Y-69700000D02*
X291250000Y-69700000D01*
X292250000Y-69700000D02*
X292250000Y-70700000D01*
X292250000Y-81700000D02*
X292250000Y-82700000D01*
X136375000Y-89750000D02*
X136375000Y-88750000D01*
X136375000Y-101750000D02*
X136375000Y-100750000D01*
X136375000Y-101750000D02*
X137375000Y-101750000D01*
X137375000Y-88750000D02*
X136375000Y-88750000D01*
X148375000Y-101750000D02*
X149375000Y-101750000D01*
X149375000Y-88750000D02*
X148375000Y-88750000D01*
X149375000Y-88750000D02*
X149375000Y-89750000D01*
X149375000Y-100750000D02*
X149375000Y-101750000D01*
X222100000Y-70700000D02*
X222100000Y-69700000D01*
X222100000Y-82700000D02*
X222100000Y-81700000D01*
X222100000Y-82700000D02*
X223100000Y-82700000D01*
X223100000Y-69700000D02*
X222100000Y-69700000D01*
X234100000Y-82700000D02*
X235100000Y-82700000D01*
X235100000Y-69700000D02*
X234100000Y-69700000D01*
X235100000Y-69700000D02*
X235100000Y-70700000D01*
X235100000Y-81700000D02*
X235100000Y-82700000D01*
X184000000Y-70700000D02*
X184000000Y-69700000D01*
X184000000Y-82700000D02*
X184000000Y-81700000D01*
X184000000Y-82700000D02*
X185000000Y-82700000D01*
X185000000Y-69700000D02*
X184000000Y-69700000D01*
X196000000Y-82700000D02*
X197000000Y-82700000D01*
X197000000Y-69700000D02*
X196000000Y-69700000D01*
X197000000Y-69700000D02*
X197000000Y-70700000D01*
X197000000Y-81700000D02*
X197000000Y-82700000D01*
X269725000Y-89750000D02*
X269725000Y-88750000D01*
X269725000Y-101750000D02*
X269725000Y-100750000D01*
X269725000Y-101750000D02*
X270725000Y-101750000D01*
X270725000Y-88750000D02*
X269725000Y-88750000D01*
X281725000Y-101750000D02*
X282725000Y-101750000D01*
X282725000Y-88750000D02*
X281725000Y-88750000D01*
X282725000Y-88750000D02*
X282725000Y-89750000D01*
X282725000Y-100750000D02*
X282725000Y-101750000D01*
X250675000Y-108800000D02*
X250675000Y-107800000D01*
X250675000Y-120800000D02*
X250675000Y-119800000D01*
X250675000Y-120800000D02*
X251675000Y-120800000D01*
X251675000Y-107800000D02*
X250675000Y-107800000D01*
X262675000Y-120800000D02*
X263675000Y-120800000D01*
X263675000Y-107800000D02*
X262675000Y-107800000D01*
X263675000Y-107800000D02*
X263675000Y-108800000D01*
X263675000Y-119800000D02*
X263675000Y-120800000D01*
X248293750Y-146900000D02*
X248293750Y-145900000D01*
X248293750Y-158900000D02*
X248293750Y-157900000D01*
X248293750Y-158900000D02*
X249293750Y-158900000D01*
X249293750Y-145900000D02*
X248293750Y-145900000D01*
X260293750Y-158900000D02*
X261293750Y-158900000D01*
X261293750Y-145900000D02*
X260293750Y-145900000D01*
X261293750Y-145900000D02*
X261293750Y-146900000D01*
X261293750Y-157900000D02*
X261293750Y-158900000D01*
X331637500Y-89750000D02*
X331637500Y-88750000D01*
X331637500Y-101750000D02*
X331637500Y-100750000D01*
X331637500Y-101750000D02*
X332637500Y-101750000D01*
X332637500Y-88750000D02*
X331637500Y-88750000D01*
X343637500Y-101750000D02*
X344637500Y-101750000D01*
X344637500Y-88750000D02*
X343637500Y-88750000D01*
X344637500Y-88750000D02*
X344637500Y-89750000D01*
X344637500Y-100750000D02*
X344637500Y-101750000D01*
X145900000Y-127850000D02*
X145900000Y-126850000D01*
X145900000Y-139850000D02*
X145900000Y-138850000D01*
X145900000Y-139850000D02*
X146900000Y-139850000D01*
X146900000Y-126850000D02*
X145900000Y-126850000D01*
X157900000Y-139850000D02*
X158900000Y-139850000D01*
X158900000Y-126850000D02*
X157900000Y-126850000D01*
X158900000Y-126850000D02*
X158900000Y-127850000D01*
X158900000Y-138850000D02*
X158900000Y-139850000D01*
X222100000Y-51650000D02*
X222100000Y-50650000D01*
X222100000Y-63650000D02*
X222100000Y-62650000D01*
X222100000Y-63650000D02*
X223100000Y-63650000D01*
X223100000Y-50650000D02*
X222100000Y-50650000D01*
X234100000Y-63650000D02*
X235100000Y-63650000D01*
X235100000Y-50650000D02*
X234100000Y-50650000D01*
X235100000Y-50650000D02*
X235100000Y-51650000D01*
X235100000Y-62650000D02*
X235100000Y-63650000D01*
X98275000Y-108800000D02*
X98275000Y-107800000D01*
X98275000Y-120800000D02*
X98275000Y-119800000D01*
X98275000Y-120800000D02*
X99275000Y-120800000D01*
X99275000Y-107800000D02*
X98275000Y-107800000D01*
X110275000Y-120800000D02*
X111275000Y-120800000D01*
X111275000Y-107800000D02*
X110275000Y-107800000D01*
X111275000Y-107800000D02*
X111275000Y-108800000D01*
X111275000Y-119800000D02*
X111275000Y-120800000D01*
X107800000Y-70700000D02*
X107800000Y-69700000D01*
X107800000Y-82700000D02*
X107800000Y-81700000D01*
X107800000Y-82700000D02*
X108800000Y-82700000D01*
X108800000Y-69700000D02*
X107800000Y-69700000D01*
X119800000Y-82700000D02*
X120800000Y-82700000D01*
X120800000Y-69700000D02*
X119800000Y-69700000D01*
X120800000Y-69700000D02*
X120800000Y-70700000D01*
X120800000Y-81700000D02*
X120800000Y-82700000D01*
X260200000Y-127850000D02*
X260200000Y-126850000D01*
X260200000Y-139850000D02*
X260200000Y-138850000D01*
X260200000Y-139850000D02*
X261200000Y-139850000D01*
X261200000Y-126850000D02*
X260200000Y-126850000D01*
X272200000Y-139850000D02*
X273200000Y-139850000D01*
X273200000Y-126850000D02*
X272200000Y-126850000D01*
X273200000Y-126850000D02*
X273200000Y-127850000D01*
X273200000Y-138850000D02*
X273200000Y-139850000D01*
X193525000Y-108800000D02*
X193525000Y-107800000D01*
X193525000Y-120800000D02*
X193525000Y-119800000D01*
X193525000Y-120800000D02*
X194525000Y-120800000D01*
X194525000Y-107800000D02*
X193525000Y-107800000D01*
X205525000Y-120800000D02*
X206525000Y-120800000D01*
X206525000Y-107800000D02*
X205525000Y-107800000D01*
X206525000Y-107800000D02*
X206525000Y-108800000D01*
X206525000Y-119800000D02*
X206525000Y-120800000D01*
X336400000Y-127850000D02*
X336400000Y-126850000D01*
X336400000Y-139850000D02*
X336400000Y-138850000D01*
X336400000Y-139850000D02*
X337400000Y-139850000D01*
X337400000Y-126850000D02*
X336400000Y-126850000D01*
X348400000Y-139850000D02*
X349400000Y-139850000D01*
X349400000Y-126850000D02*
X348400000Y-126850000D01*
X349400000Y-126850000D02*
X349400000Y-127850000D01*
X349400000Y-138850000D02*
X349400000Y-139850000D01*
X95893750Y-146900000D02*
X95893750Y-145900000D01*
X95893750Y-158900000D02*
X95893750Y-157900000D01*
X95893750Y-158900000D02*
X96893750Y-158900000D01*
X96893750Y-145900000D02*
X95893750Y-145900000D01*
X107893750Y-158900000D02*
X108893750Y-158900000D01*
X108893750Y-145900000D02*
X107893750Y-145900000D01*
X108893750Y-145900000D02*
X108893750Y-146900000D01*
X108893750Y-157900000D02*
X108893750Y-158900000D01*
D13*
X66807000Y-106400000D02*
X66807000Y-92600000D01*
X67307000Y-92200000D02*
X67307000Y-106800000D01*
X67307000Y-92200000D02*
X67862000Y-92200000D01*
X67307000Y-92600000D02*
X66807000Y-92600000D01*
X67307000Y-106400000D02*
X66807000Y-106400000D01*
X67307000Y-106800000D02*
X67862000Y-106800000D01*
X71362000Y-92200000D02*
X70862000Y-92200000D01*
X71362000Y-92200000D02*
X71362000Y-94400000D01*
X71362000Y-106800000D02*
X70862000Y-106800000D01*
X71362000Y-106800000D02*
X71362000Y-104600000D01*
X71950000Y-94348108D02*
X71710000Y-94018108D01*
X72190000Y-94018108D01*
X71950000Y-94348108D01*
G36*
X71950000Y-94348108D02*
G01*
X71710000Y-94018108D01*
X72190000Y-94018108D01*
X71950000Y-94348108D01*
G37*
D12*
X145900000Y-70700000D02*
X145900000Y-69700000D01*
X145900000Y-82700000D02*
X145900000Y-81700000D01*
X145900000Y-82700000D02*
X146900000Y-82700000D01*
X146900000Y-69700000D02*
X145900000Y-69700000D01*
X157900000Y-82700000D02*
X158900000Y-82700000D01*
X158900000Y-69700000D02*
X157900000Y-69700000D01*
X158900000Y-69700000D02*
X158900000Y-70700000D01*
X158900000Y-81700000D02*
X158900000Y-82700000D01*
X174475000Y-89750000D02*
X174475000Y-88750000D01*
X174475000Y-101750000D02*
X174475000Y-100750000D01*
X174475000Y-101750000D02*
X175475000Y-101750000D01*
X175475000Y-88750000D02*
X174475000Y-88750000D01*
X186475000Y-101750000D02*
X187475000Y-101750000D01*
X187475000Y-88750000D02*
X186475000Y-88750000D01*
X187475000Y-88750000D02*
X187475000Y-89750000D01*
X187475000Y-100750000D02*
X187475000Y-101750000D01*
X117325000Y-89750000D02*
X117325000Y-88750000D01*
X117325000Y-101750000D02*
X117325000Y-100750000D01*
X117325000Y-101750000D02*
X118325000Y-101750000D01*
X118325000Y-88750000D02*
X117325000Y-88750000D01*
X129325000Y-101750000D02*
X130325000Y-101750000D01*
X130325000Y-88750000D02*
X129325000Y-88750000D01*
X130325000Y-88750000D02*
X130325000Y-89750000D01*
X130325000Y-100750000D02*
X130325000Y-101750000D01*
X69700000Y-51650000D02*
X69700000Y-50650000D01*
X69700000Y-63650000D02*
X69700000Y-62650000D01*
X69700000Y-63650000D02*
X70700000Y-63650000D01*
X70700000Y-50650000D02*
X69700000Y-50650000D01*
X81700000Y-63650000D02*
X82700000Y-63650000D01*
X82700000Y-50650000D02*
X81700000Y-50650000D01*
X82700000Y-50650000D02*
X82700000Y-51650000D01*
X82700000Y-62650000D02*
X82700000Y-63650000D01*
X307825000Y-127850000D02*
X307825000Y-126850000D01*
X307825000Y-139850000D02*
X307825000Y-138850000D01*
X307825000Y-139850000D02*
X308825000Y-139850000D01*
X308825000Y-126850000D02*
X307825000Y-126850000D01*
X319825000Y-139850000D02*
X320825000Y-139850000D01*
X320825000Y-126850000D02*
X319825000Y-126850000D01*
X320825000Y-126850000D02*
X320825000Y-127850000D01*
X320825000Y-138850000D02*
X320825000Y-139850000D01*
X355450000Y-51650000D02*
X355450000Y-50650000D01*
X355450000Y-63650000D02*
X355450000Y-62650000D01*
X355450000Y-63650000D02*
X356450000Y-63650000D01*
X356450000Y-50650000D02*
X355450000Y-50650000D01*
X367450000Y-63650000D02*
X368450000Y-63650000D01*
X368450000Y-50650000D02*
X367450000Y-50650000D01*
X368450000Y-50650000D02*
X368450000Y-51650000D01*
X368450000Y-62650000D02*
X368450000Y-63650000D01*
X155425000Y-108800000D02*
X155425000Y-107800000D01*
X155425000Y-120800000D02*
X155425000Y-119800000D01*
X155425000Y-120800000D02*
X156425000Y-120800000D01*
X156425000Y-107800000D02*
X155425000Y-107800000D01*
X167425000Y-120800000D02*
X168425000Y-120800000D01*
X168425000Y-107800000D02*
X167425000Y-107800000D01*
X168425000Y-107800000D02*
X168425000Y-108800000D01*
X168425000Y-119800000D02*
X168425000Y-120800000D01*
X307825000Y-89750000D02*
X307825000Y-88750000D01*
X307825000Y-101750000D02*
X307825000Y-100750000D01*
X307825000Y-101750000D02*
X308825000Y-101750000D01*
X308825000Y-88750000D02*
X307825000Y-88750000D01*
X319825000Y-101750000D02*
X320825000Y-101750000D01*
X320825000Y-88750000D02*
X319825000Y-88750000D01*
X320825000Y-88750000D02*
X320825000Y-89750000D01*
X320825000Y-100750000D02*
X320825000Y-101750000D01*
X69700000Y-70700000D02*
X69700000Y-69700000D01*
X69700000Y-82700000D02*
X69700000Y-81700000D01*
X69700000Y-82700000D02*
X70700000Y-82700000D01*
X70700000Y-69700000D02*
X69700000Y-69700000D01*
X81700000Y-82700000D02*
X82700000Y-82700000D01*
X82700000Y-69700000D02*
X81700000Y-69700000D01*
X82700000Y-69700000D02*
X82700000Y-70700000D01*
X82700000Y-81700000D02*
X82700000Y-82700000D01*
X298300000Y-70700000D02*
X298300000Y-69700000D01*
X298300000Y-82700000D02*
X298300000Y-81700000D01*
X298300000Y-82700000D02*
X299300000Y-82700000D01*
X299300000Y-69700000D02*
X298300000Y-69700000D01*
X310300000Y-82700000D02*
X311300000Y-82700000D01*
X311300000Y-69700000D02*
X310300000Y-69700000D01*
X311300000Y-69700000D02*
X311300000Y-70700000D01*
X311300000Y-81700000D02*
X311300000Y-82700000D01*
X326875000Y-70700000D02*
X326875000Y-69700000D01*
X326875000Y-82700000D02*
X326875000Y-81700000D01*
X326875000Y-82700000D02*
X327875000Y-82700000D01*
X327875000Y-69700000D02*
X326875000Y-69700000D01*
X338875000Y-82700000D02*
X339875000Y-82700000D01*
X339875000Y-69700000D02*
X338875000Y-69700000D01*
X339875000Y-69700000D02*
X339875000Y-70700000D01*
X339875000Y-81700000D02*
X339875000Y-82700000D01*
X355450000Y-108800000D02*
X355450000Y-107800000D01*
X355450000Y-120800000D02*
X355450000Y-119800000D01*
X355450000Y-120800000D02*
X356450000Y-120800000D01*
X356450000Y-107800000D02*
X355450000Y-107800000D01*
X367450000Y-120800000D02*
X368450000Y-120800000D01*
X368450000Y-107800000D02*
X367450000Y-107800000D01*
X368450000Y-107800000D02*
X368450000Y-108800000D01*
X368450000Y-119800000D02*
X368450000Y-120800000D01*
X355450000Y-70700000D02*
X355450000Y-69700000D01*
X355450000Y-82700000D02*
X355450000Y-81700000D01*
X355450000Y-82700000D02*
X356450000Y-82700000D01*
X356450000Y-69700000D02*
X355450000Y-69700000D01*
X367450000Y-82700000D02*
X368450000Y-82700000D01*
X368450000Y-69700000D02*
X367450000Y-69700000D01*
X368450000Y-69700000D02*
X368450000Y-70700000D01*
X368450000Y-81700000D02*
X368450000Y-82700000D01*
X126850000Y-51650000D02*
X126850000Y-50650000D01*
X126850000Y-63650000D02*
X126850000Y-62650000D01*
X126850000Y-63650000D02*
X127850000Y-63650000D01*
X127850000Y-50650000D02*
X126850000Y-50650000D01*
X138850000Y-63650000D02*
X139850000Y-63650000D01*
X139850000Y-50650000D02*
X138850000Y-50650000D01*
X139850000Y-50650000D02*
X139850000Y-51650000D01*
X139850000Y-62650000D02*
X139850000Y-63650000D01*
X203050000Y-51650000D02*
X203050000Y-50650000D01*
X203050000Y-63650000D02*
X203050000Y-62650000D01*
X203050000Y-63650000D02*
X204050000Y-63650000D01*
X204050000Y-50650000D02*
X203050000Y-50650000D01*
X215050000Y-63650000D02*
X216050000Y-63650000D01*
X216050000Y-50650000D02*
X215050000Y-50650000D01*
X216050000Y-50650000D02*
X216050000Y-51650000D01*
X216050000Y-62650000D02*
X216050000Y-63650000D01*
X72081250Y-146900000D02*
X72081250Y-145900000D01*
X72081250Y-158900000D02*
X72081250Y-157900000D01*
X72081250Y-158900000D02*
X73081250Y-158900000D01*
X73081250Y-145900000D02*
X72081250Y-145900000D01*
X84081250Y-158900000D02*
X85081250Y-158900000D01*
X85081250Y-145900000D02*
X84081250Y-145900000D01*
X85081250Y-145900000D02*
X85081250Y-146900000D01*
X85081250Y-157900000D02*
X85081250Y-158900000D01*
X336400000Y-51650000D02*
X336400000Y-50650000D01*
X336400000Y-63650000D02*
X336400000Y-62650000D01*
X336400000Y-63650000D02*
X337400000Y-63650000D01*
X337400000Y-50650000D02*
X336400000Y-50650000D01*
X348400000Y-63650000D02*
X349400000Y-63650000D01*
X349400000Y-50650000D02*
X348400000Y-50650000D01*
X349400000Y-50650000D02*
X349400000Y-51650000D01*
X349400000Y-62650000D02*
X349400000Y-63650000D01*
X241150000Y-51650000D02*
X241150000Y-50650000D01*
X241150000Y-63650000D02*
X241150000Y-62650000D01*
X241150000Y-63650000D02*
X242150000Y-63650000D01*
X242150000Y-50650000D02*
X241150000Y-50650000D01*
X253150000Y-63650000D02*
X254150000Y-63650000D01*
X254150000Y-50650000D02*
X253150000Y-50650000D01*
X254150000Y-50650000D02*
X254150000Y-51650000D01*
X254150000Y-62650000D02*
X254150000Y-63650000D01*
X184000000Y-51650000D02*
X184000000Y-50650000D01*
X184000000Y-63650000D02*
X184000000Y-62650000D01*
X184000000Y-63650000D02*
X185000000Y-63650000D01*
X185000000Y-50650000D02*
X184000000Y-50650000D01*
X196000000Y-63650000D02*
X197000000Y-63650000D01*
X197000000Y-50650000D02*
X196000000Y-50650000D01*
X197000000Y-50650000D02*
X197000000Y-51650000D01*
X197000000Y-62650000D02*
X197000000Y-63650000D01*
X88750000Y-70700000D02*
X88750000Y-69700000D01*
X88750000Y-82700000D02*
X88750000Y-81700000D01*
X88750000Y-82700000D02*
X89750000Y-82700000D01*
X89750000Y-69700000D02*
X88750000Y-69700000D01*
X100750000Y-82700000D02*
X101750000Y-82700000D01*
X101750000Y-69700000D02*
X100750000Y-69700000D01*
X101750000Y-69700000D02*
X101750000Y-70700000D01*
X101750000Y-81700000D02*
X101750000Y-82700000D01*
X74462500Y-108800000D02*
X74462500Y-107800000D01*
X74462500Y-120800000D02*
X74462500Y-119800000D01*
X74462500Y-120800000D02*
X75462500Y-120800000D01*
X75462500Y-107800000D02*
X74462500Y-107800000D01*
X86462500Y-120800000D02*
X87462500Y-120800000D01*
X87462500Y-107800000D02*
X86462500Y-107800000D01*
X87462500Y-107800000D02*
X87462500Y-108800000D01*
X87462500Y-119800000D02*
X87462500Y-120800000D01*
X98275000Y-89750000D02*
X98275000Y-88750000D01*
X98275000Y-101750000D02*
X98275000Y-100750000D01*
X98275000Y-101750000D02*
X99275000Y-101750000D01*
X99275000Y-88750000D02*
X98275000Y-88750000D01*
X110275000Y-101750000D02*
X111275000Y-101750000D01*
X111275000Y-88750000D02*
X110275000Y-88750000D01*
X111275000Y-88750000D02*
X111275000Y-89750000D01*
X111275000Y-100750000D02*
X111275000Y-101750000D01*
X126850000Y-70700000D02*
X126850000Y-69700000D01*
X126850000Y-82700000D02*
X126850000Y-81700000D01*
X126850000Y-82700000D02*
X127850000Y-82700000D01*
X127850000Y-69700000D02*
X126850000Y-69700000D01*
X138850000Y-82700000D02*
X139850000Y-82700000D01*
X139850000Y-69700000D02*
X138850000Y-69700000D01*
X139850000Y-69700000D02*
X139850000Y-70700000D01*
X139850000Y-81700000D02*
X139850000Y-82700000D01*
X241150000Y-127850000D02*
X241150000Y-126850000D01*
X241150000Y-139850000D02*
X241150000Y-138850000D01*
X241150000Y-139850000D02*
X242150000Y-139850000D01*
X242150000Y-126850000D02*
X241150000Y-126850000D01*
X253150000Y-139850000D02*
X254150000Y-139850000D01*
X254150000Y-126850000D02*
X253150000Y-126850000D01*
X254150000Y-126850000D02*
X254150000Y-127850000D01*
X254150000Y-138850000D02*
X254150000Y-139850000D01*
X107800000Y-127850000D02*
X107800000Y-126850000D01*
X107800000Y-139850000D02*
X107800000Y-138850000D01*
X107800000Y-139850000D02*
X108800000Y-139850000D01*
X108800000Y-126850000D02*
X107800000Y-126850000D01*
X119800000Y-139850000D02*
X120800000Y-139850000D01*
X120800000Y-126850000D02*
X119800000Y-126850000D01*
X120800000Y-126850000D02*
X120800000Y-127850000D01*
X120800000Y-138850000D02*
X120800000Y-139850000D01*
X288775000Y-108800000D02*
X288775000Y-107800000D01*
X288775000Y-120800000D02*
X288775000Y-119800000D01*
X288775000Y-120800000D02*
X289775000Y-120800000D01*
X289775000Y-107800000D02*
X288775000Y-107800000D01*
X300775000Y-120800000D02*
X301775000Y-120800000D01*
X301775000Y-107800000D02*
X300775000Y-107800000D01*
X301775000Y-107800000D02*
X301775000Y-108800000D01*
X301775000Y-119800000D02*
X301775000Y-120800000D01*
X336400000Y-146900000D02*
X336400000Y-145900000D01*
X336400000Y-158900000D02*
X336400000Y-157900000D01*
X336400000Y-158900000D02*
X337400000Y-158900000D01*
X337400000Y-145900000D02*
X336400000Y-145900000D01*
X348400000Y-158900000D02*
X349400000Y-158900000D01*
X349400000Y-145900000D02*
X348400000Y-145900000D01*
X349400000Y-145900000D02*
X349400000Y-146900000D01*
X349400000Y-157900000D02*
X349400000Y-158900000D01*
X193525000Y-89750000D02*
X193525000Y-88750000D01*
X193525000Y-101750000D02*
X193525000Y-100750000D01*
X193525000Y-101750000D02*
X194525000Y-101750000D01*
X194525000Y-88750000D02*
X193525000Y-88750000D01*
X205525000Y-101750000D02*
X206525000Y-101750000D01*
X206525000Y-88750000D02*
X205525000Y-88750000D01*
X206525000Y-88750000D02*
X206525000Y-89750000D01*
X206525000Y-100750000D02*
X206525000Y-101750000D01*
X74462500Y-89750000D02*
X74462500Y-88750000D01*
X74462500Y-101750000D02*
X74462500Y-100750000D01*
X74462500Y-101750000D02*
X75462500Y-101750000D01*
X75462500Y-88750000D02*
X74462500Y-88750000D01*
X86462500Y-101750000D02*
X87462500Y-101750000D01*
X87462500Y-88750000D02*
X86462500Y-88750000D01*
X87462500Y-88750000D02*
X87462500Y-89750000D01*
X87462500Y-100750000D02*
X87462500Y-101750000D01*
X298300000Y-51650000D02*
X298300000Y-50650000D01*
X298300000Y-63650000D02*
X298300000Y-62650000D01*
X298300000Y-63650000D02*
X299300000Y-63650000D01*
X299300000Y-50650000D02*
X298300000Y-50650000D01*
X310300000Y-63650000D02*
X311300000Y-63650000D01*
X311300000Y-50650000D02*
X310300000Y-50650000D01*
X311300000Y-50650000D02*
X311300000Y-51650000D01*
X311300000Y-62650000D02*
X311300000Y-63650000D01*
X145900000Y-51650000D02*
X145900000Y-50650000D01*
X145900000Y-63650000D02*
X145900000Y-62650000D01*
X145900000Y-63650000D02*
X146900000Y-63650000D01*
X146900000Y-50650000D02*
X145900000Y-50650000D01*
X157900000Y-63650000D02*
X158900000Y-63650000D01*
X158900000Y-50650000D02*
X157900000Y-50650000D01*
X158900000Y-50650000D02*
X158900000Y-51650000D01*
X158900000Y-62650000D02*
X158900000Y-63650000D01*
X164950000Y-70700000D02*
X164950000Y-69700000D01*
X164950000Y-82700000D02*
X164950000Y-81700000D01*
X164950000Y-82700000D02*
X165950000Y-82700000D01*
X165950000Y-69700000D02*
X164950000Y-69700000D01*
X176950000Y-82700000D02*
X177950000Y-82700000D01*
X177950000Y-69700000D02*
X176950000Y-69700000D01*
X177950000Y-69700000D02*
X177950000Y-70700000D01*
X177950000Y-81700000D02*
X177950000Y-82700000D01*
X117325000Y-108800000D02*
X117325000Y-107800000D01*
X117325000Y-120800000D02*
X117325000Y-119800000D01*
X117325000Y-120800000D02*
X118325000Y-120800000D01*
X118325000Y-107800000D02*
X117325000Y-107800000D01*
X129325000Y-120800000D02*
X130325000Y-120800000D01*
X130325000Y-107800000D02*
X129325000Y-107800000D01*
X130325000Y-107800000D02*
X130325000Y-108800000D01*
X130325000Y-119800000D02*
X130325000Y-120800000D01*
X231625000Y-108800000D02*
X231625000Y-107800000D01*
X231625000Y-120800000D02*
X231625000Y-119800000D01*
X231625000Y-120800000D02*
X232625000Y-120800000D01*
X232625000Y-107800000D02*
X231625000Y-107800000D01*
X243625000Y-120800000D02*
X244625000Y-120800000D01*
X244625000Y-107800000D02*
X243625000Y-107800000D01*
X244625000Y-107800000D02*
X244625000Y-108800000D01*
X244625000Y-119800000D02*
X244625000Y-120800000D01*
X355450000Y-146900000D02*
X355450000Y-145900000D01*
X355450000Y-158900000D02*
X355450000Y-157900000D01*
X355450000Y-158900000D02*
X356450000Y-158900000D01*
X356450000Y-145900000D02*
X355450000Y-145900000D01*
X367450000Y-158900000D02*
X368450000Y-158900000D01*
X368450000Y-145900000D02*
X367450000Y-145900000D01*
X368450000Y-145900000D02*
X368450000Y-146900000D01*
X368450000Y-157900000D02*
X368450000Y-158900000D01*
X203050000Y-70700000D02*
X203050000Y-69700000D01*
X203050000Y-82700000D02*
X203050000Y-81700000D01*
X203050000Y-82700000D02*
X204050000Y-82700000D01*
X204050000Y-69700000D02*
X203050000Y-69700000D01*
X215050000Y-82700000D02*
X216050000Y-82700000D01*
X216050000Y-69700000D02*
X215050000Y-69700000D01*
X216050000Y-69700000D02*
X216050000Y-70700000D01*
X216050000Y-81700000D02*
X216050000Y-82700000D01*
X279250000Y-127850000D02*
X279250000Y-126850000D01*
X279250000Y-139850000D02*
X279250000Y-138850000D01*
X279250000Y-139850000D02*
X280250000Y-139850000D01*
X280250000Y-126850000D02*
X279250000Y-126850000D01*
X291250000Y-139850000D02*
X292250000Y-139850000D01*
X292250000Y-126850000D02*
X291250000Y-126850000D01*
X292250000Y-126850000D02*
X292250000Y-127850000D01*
X292250000Y-138850000D02*
X292250000Y-139850000D01*
X260200000Y-51650000D02*
X260200000Y-50650000D01*
X260200000Y-63650000D02*
X260200000Y-62650000D01*
X260200000Y-63650000D02*
X261200000Y-63650000D01*
X261200000Y-50650000D02*
X260200000Y-50650000D01*
X272200000Y-63650000D02*
X273200000Y-63650000D01*
X273200000Y-50650000D02*
X272200000Y-50650000D01*
X273200000Y-50650000D02*
X273200000Y-51650000D01*
X273200000Y-62650000D02*
X273200000Y-63650000D01*
X164950000Y-51650000D02*
X164950000Y-50650000D01*
X164950000Y-63650000D02*
X164950000Y-62650000D01*
X164950000Y-63650000D02*
X165950000Y-63650000D01*
X165950000Y-50650000D02*
X164950000Y-50650000D01*
X176950000Y-63650000D02*
X177950000Y-63650000D01*
X177950000Y-50650000D02*
X176950000Y-50650000D01*
X177950000Y-50650000D02*
X177950000Y-51650000D01*
X177950000Y-62650000D02*
X177950000Y-63650000D01*
X119706250Y-146900000D02*
X119706250Y-145900000D01*
X119706250Y-158900000D02*
X119706250Y-157900000D01*
X119706250Y-158900000D02*
X120706250Y-158900000D01*
X120706250Y-145900000D02*
X119706250Y-145900000D01*
X131706250Y-158900000D02*
X132706250Y-158900000D01*
X132706250Y-145900000D02*
X131706250Y-145900000D01*
X132706250Y-145900000D02*
X132706250Y-146900000D01*
X132706250Y-157900000D02*
X132706250Y-158900000D01*
X279250000Y-51650000D02*
X279250000Y-50650000D01*
X279250000Y-63650000D02*
X279250000Y-62650000D01*
X279250000Y-63650000D02*
X280250000Y-63650000D01*
X280250000Y-50650000D02*
X279250000Y-50650000D01*
X291250000Y-63650000D02*
X292250000Y-63650000D01*
X292250000Y-50650000D02*
X291250000Y-50650000D01*
X292250000Y-50650000D02*
X292250000Y-51650000D01*
X292250000Y-62650000D02*
X292250000Y-63650000D01*
X184000000Y-146900000D02*
X184000000Y-145900000D01*
X184000000Y-158900000D02*
X184000000Y-157900000D01*
X184000000Y-158900000D02*
X185000000Y-158900000D01*
X185000000Y-145900000D02*
X184000000Y-145900000D01*
X196000000Y-158900000D02*
X197000000Y-158900000D01*
X197000000Y-145900000D02*
X196000000Y-145900000D01*
X197000000Y-145900000D02*
X197000000Y-146900000D01*
X197000000Y-157900000D02*
X197000000Y-158900000D01*
X107800000Y-51650000D02*
X107800000Y-50650000D01*
X107800000Y-63650000D02*
X107800000Y-62650000D01*
X107800000Y-63650000D02*
X108800000Y-63650000D01*
X108800000Y-50650000D02*
X107800000Y-50650000D01*
X119800000Y-63650000D02*
X120800000Y-63650000D01*
X120800000Y-50650000D02*
X119800000Y-50650000D01*
X120800000Y-50650000D02*
X120800000Y-51650000D01*
X120800000Y-62650000D02*
X120800000Y-63650000D01*
X317350000Y-51650000D02*
X317350000Y-50650000D01*
X317350000Y-63650000D02*
X317350000Y-62650000D01*
X317350000Y-63650000D02*
X318350000Y-63650000D01*
X318350000Y-50650000D02*
X317350000Y-50650000D01*
X329350000Y-63650000D02*
X330350000Y-63650000D01*
X330350000Y-50650000D02*
X329350000Y-50650000D01*
X330350000Y-50650000D02*
X330350000Y-51650000D01*
X330350000Y-62650000D02*
X330350000Y-63650000D01*
X136375000Y-108800000D02*
X136375000Y-107800000D01*
X136375000Y-120800000D02*
X136375000Y-119800000D01*
X136375000Y-120800000D02*
X137375000Y-120800000D01*
X137375000Y-107800000D02*
X136375000Y-107800000D01*
X148375000Y-120800000D02*
X149375000Y-120800000D01*
X149375000Y-107800000D02*
X148375000Y-107800000D01*
X149375000Y-107800000D02*
X149375000Y-108800000D01*
X149375000Y-119800000D02*
X149375000Y-120800000D01*
X272106250Y-146900000D02*
X272106250Y-145900000D01*
X272106250Y-158900000D02*
X272106250Y-157900000D01*
X272106250Y-158900000D02*
X273106250Y-158900000D01*
X273106250Y-145900000D02*
X272106250Y-145900000D01*
X284106250Y-158900000D02*
X285106250Y-158900000D01*
X285106250Y-145900000D02*
X284106250Y-145900000D01*
X285106250Y-145900000D02*
X285106250Y-146900000D01*
X285106250Y-157900000D02*
X285106250Y-158900000D01*
X164950000Y-127850000D02*
X164950000Y-126850000D01*
X164950000Y-139850000D02*
X164950000Y-138850000D01*
X164950000Y-139850000D02*
X165950000Y-139850000D01*
X165950000Y-126850000D02*
X164950000Y-126850000D01*
X176950000Y-139850000D02*
X177950000Y-139850000D01*
X177950000Y-126850000D02*
X176950000Y-126850000D01*
X177950000Y-126850000D02*
X177950000Y-127850000D01*
X177950000Y-138850000D02*
X177950000Y-139850000D01*
X317350000Y-146900000D02*
X317350000Y-145900000D01*
X317350000Y-158900000D02*
X317350000Y-157900000D01*
X317350000Y-158900000D02*
X318350000Y-158900000D01*
X318350000Y-145900000D02*
X317350000Y-145900000D01*
X329350000Y-158900000D02*
X330350000Y-158900000D01*
X330350000Y-145900000D02*
X329350000Y-145900000D01*
X330350000Y-145900000D02*
X330350000Y-146900000D01*
X330350000Y-157900000D02*
X330350000Y-158900000D01*
X212575000Y-89750000D02*
X212575000Y-88750000D01*
X212575000Y-101750000D02*
X212575000Y-100750000D01*
X212575000Y-101750000D02*
X213575000Y-101750000D01*
X213575000Y-88750000D02*
X212575000Y-88750000D01*
X224575000Y-101750000D02*
X225575000Y-101750000D01*
X225575000Y-88750000D02*
X224575000Y-88750000D01*
X225575000Y-88750000D02*
X225575000Y-89750000D01*
X225575000Y-100750000D02*
X225575000Y-101750000D01*
X184000000Y-127850000D02*
X184000000Y-126850000D01*
X184000000Y-139850000D02*
X184000000Y-138850000D01*
X184000000Y-139850000D02*
X185000000Y-139850000D01*
X185000000Y-126850000D02*
X184000000Y-126850000D01*
X196000000Y-139850000D02*
X197000000Y-139850000D01*
X197000000Y-126850000D02*
X196000000Y-126850000D01*
X197000000Y-126850000D02*
X197000000Y-127850000D01*
X197000000Y-138850000D02*
X197000000Y-139850000D01*
X355450000Y-127850000D02*
X355450000Y-126850000D01*
X355450000Y-139850000D02*
X355450000Y-138850000D01*
X355450000Y-139850000D02*
X356450000Y-139850000D01*
X356450000Y-126850000D02*
X355450000Y-126850000D01*
X367450000Y-139850000D02*
X368450000Y-139850000D01*
X368450000Y-126850000D02*
X367450000Y-126850000D01*
X368450000Y-126850000D02*
X368450000Y-127850000D01*
X368450000Y-138850000D02*
X368450000Y-139850000D01*
X88750000Y-51650000D02*
X88750000Y-50650000D01*
X88750000Y-63650000D02*
X88750000Y-62650000D01*
X88750000Y-63650000D02*
X89750000Y-63650000D01*
X89750000Y-50650000D02*
X88750000Y-50650000D01*
X100750000Y-63650000D02*
X101750000Y-63650000D01*
X101750000Y-50650000D02*
X100750000Y-50650000D01*
X101750000Y-50650000D02*
X101750000Y-51650000D01*
X101750000Y-62650000D02*
X101750000Y-63650000D01*
X269725000Y-108800000D02*
X269725000Y-107800000D01*
X269725000Y-120800000D02*
X269725000Y-119800000D01*
X269725000Y-120800000D02*
X270725000Y-120800000D01*
X270725000Y-107800000D02*
X269725000Y-107800000D01*
X281725000Y-120800000D02*
X282725000Y-120800000D01*
X282725000Y-107800000D02*
X281725000Y-107800000D01*
X282725000Y-107800000D02*
X282725000Y-108800000D01*
X282725000Y-119800000D02*
X282725000Y-120800000D01*
X241150000Y-70700000D02*
X241150000Y-69700000D01*
X241150000Y-82700000D02*
X241150000Y-81700000D01*
X241150000Y-82700000D02*
X242150000Y-82700000D01*
X242150000Y-69700000D02*
X241150000Y-69700000D01*
X253150000Y-82700000D02*
X254150000Y-82700000D01*
X254150000Y-69700000D02*
X253150000Y-69700000D01*
X254150000Y-69700000D02*
X254150000Y-70700000D01*
X254150000Y-81700000D02*
X254150000Y-82700000D01*
X250675000Y-89750000D02*
X250675000Y-88750000D01*
X250675000Y-101750000D02*
X250675000Y-100750000D01*
X250675000Y-101750000D02*
X251675000Y-101750000D01*
X251675000Y-88750000D02*
X250675000Y-88750000D01*
X262675000Y-101750000D02*
X263675000Y-101750000D01*
X263675000Y-88750000D02*
X262675000Y-88750000D01*
X263675000Y-88750000D02*
X263675000Y-89750000D01*
X263675000Y-100750000D02*
X263675000Y-101750000D01*
X295918750Y-146900000D02*
X295918750Y-145900000D01*
X295918750Y-158900000D02*
X295918750Y-157900000D01*
X295918750Y-158900000D02*
X296918750Y-158900000D01*
X296918750Y-145900000D02*
X295918750Y-145900000D01*
X307918750Y-158900000D02*
X308918750Y-158900000D01*
X308918750Y-145900000D02*
X307918750Y-145900000D01*
X308918750Y-145900000D02*
X308918750Y-146900000D01*
X308918750Y-157900000D02*
X308918750Y-158900000D01*
D11*
X68650000Y-117700000D02*
X68650000Y-110900000D01*
X72250000Y-117800000D02*
X71200000Y-117800000D01*
X72250000Y-117800000D02*
X72250000Y-110800000D01*
D12*
X126850000Y-127850000D02*
X126850000Y-126850000D01*
X126850000Y-139850000D02*
X126850000Y-138850000D01*
X126850000Y-139850000D02*
X127850000Y-139850000D01*
X127850000Y-126850000D02*
X126850000Y-126850000D01*
X138850000Y-139850000D02*
X139850000Y-139850000D01*
X139850000Y-126850000D02*
X138850000Y-126850000D01*
X139850000Y-126850000D02*
X139850000Y-127850000D01*
X139850000Y-138850000D02*
X139850000Y-139850000D01*
X79225000Y-127850000D02*
X79225000Y-126850000D01*
X79225000Y-139850000D02*
X79225000Y-138850000D01*
X79225000Y-139850000D02*
X80225000Y-139850000D01*
X80225000Y-126850000D02*
X79225000Y-126850000D01*
X91225000Y-139850000D02*
X92225000Y-139850000D01*
X92225000Y-126850000D02*
X91225000Y-126850000D01*
X92225000Y-126850000D02*
X92225000Y-127850000D01*
X92225000Y-138850000D02*
X92225000Y-139850000D01*
X222100000Y-127850000D02*
X222100000Y-126850000D01*
X222100000Y-139850000D02*
X222100000Y-138850000D01*
X222100000Y-139850000D02*
X223100000Y-139850000D01*
X223100000Y-126850000D02*
X222100000Y-126850000D01*
X234100000Y-139850000D02*
X235100000Y-139850000D01*
X235100000Y-126850000D02*
X234100000Y-126850000D01*
X235100000Y-126850000D02*
X235100000Y-127850000D01*
X235100000Y-138850000D02*
X235100000Y-139850000D01*
%LPC*%
D14*
X238125000Y-95250000D03*
D15*
X243125000Y-90100000D03*
D14*
X361950000Y-95250000D03*
D15*
X366950000Y-90100000D03*
D16*
X352425000Y-57150000D03*
D14*
X328612500Y-114300000D03*
D15*
X333612500Y-109150000D03*
D14*
X161925000Y-95250000D03*
D15*
X166925000Y-90100000D03*
D14*
X295275000Y-95250000D03*
D15*
X300275000Y-90100000D03*
D14*
X266700000Y-76200000D03*
D15*
X271700000Y-71050000D03*
D16*
X323850000Y-95250000D03*
D14*
X209550000Y-133350000D03*
D15*
X214550000Y-128200000D03*
D14*
X219075000Y-114300000D03*
D15*
X224075000Y-109150000D03*
D16*
X266700000Y-114300000D03*
D14*
X180975000Y-114300000D03*
D15*
X185975000Y-109150000D03*
D14*
X285750000Y-76200000D03*
D15*
X290750000Y-71050000D03*
D14*
X142875000Y-95250000D03*
D15*
X147875000Y-90100000D03*
D14*
X228600000Y-76200000D03*
D15*
X233600000Y-71050000D03*
D14*
X190500000Y-76200000D03*
D15*
X195500000Y-71050000D03*
D17*
X257175000Y-133350000D03*
D14*
X276225000Y-95250000D03*
D15*
X281225000Y-90100000D03*
D14*
X257175000Y-114300000D03*
D15*
X262175000Y-109150000D03*
D14*
X254793750Y-152400000D03*
D15*
X259793750Y-147250000D03*
D16*
X238125000Y-152400000D03*
D14*
X338137500Y-95250000D03*
D15*
X343137500Y-90100000D03*
D14*
X152400000Y-133350000D03*
D15*
X157400000Y-128200000D03*
D14*
X228600000Y-57150000D03*
D15*
X233600000Y-52000000D03*
D14*
X104775000Y-114300000D03*
D15*
X109775000Y-109150000D03*
D14*
X114300000Y-76200000D03*
D15*
X119300000Y-71050000D03*
D14*
X266700000Y-133350000D03*
D15*
X271700000Y-128200000D03*
D14*
X200025000Y-114300000D03*
D15*
X205025000Y-109150000D03*
D14*
X342900000Y-133350000D03*
D15*
X347900000Y-128200000D03*
D14*
X102393750Y-152400000D03*
D15*
X107393750Y-147250000D03*
D16*
X152400000Y-95250000D03*
D18*
X71750000Y-94750000D03*
X71750000Y-95250000D03*
X71750000Y-95750000D03*
X71750000Y-96250000D03*
X71750000Y-96750000D03*
X71750000Y-97250000D03*
X71750000Y-97750000D03*
X71750000Y-98250000D03*
X71750000Y-98750000D03*
X71750000Y-99250000D03*
X71750000Y-99750000D03*
X71750000Y-100250000D03*
X71750000Y-100750000D03*
X71750000Y-101250000D03*
X71750000Y-101750000D03*
X71750000Y-102250000D03*
X71750000Y-102750000D03*
X71750000Y-103250000D03*
X71750000Y-103750000D03*
X71750000Y-104250000D03*
D19*
X69375000Y-93060000D03*
X69375000Y-105940000D03*
D16*
X209550000Y-114300000D03*
D14*
X152400000Y-76200000D03*
D15*
X157400000Y-71050000D03*
D14*
X180975000Y-95250000D03*
D15*
X185975000Y-90100000D03*
D14*
X123825000Y-95250000D03*
D15*
X128825000Y-90100000D03*
D14*
X76200000Y-57150000D03*
D15*
X81200000Y-52000000D03*
D14*
X314325000Y-133350000D03*
D15*
X319325000Y-128200000D03*
D16*
X142875000Y-152400000D03*
D17*
X104775000Y-76200000D03*
D14*
X361950000Y-57150000D03*
D15*
X366950000Y-52000000D03*
D14*
X161925000Y-114300000D03*
D15*
X166925000Y-109150000D03*
D16*
X180975000Y-57150000D03*
D14*
X314325000Y-95250000D03*
D15*
X319325000Y-90100000D03*
D16*
X352425000Y-152400000D03*
D17*
X180975000Y-76200000D03*
D14*
X76200000Y-76200000D03*
D15*
X81200000Y-71050000D03*
D14*
X304800000Y-76200000D03*
D15*
X309800000Y-71050000D03*
D14*
X333375000Y-76200000D03*
D15*
X338375000Y-71050000D03*
D14*
X361950000Y-114300000D03*
D15*
X366950000Y-109150000D03*
D14*
X361950000Y-76200000D03*
D15*
X366950000Y-71050000D03*
D14*
X133350000Y-57150000D03*
D15*
X138350000Y-52000000D03*
D14*
X209550000Y-57150000D03*
D15*
X214550000Y-52000000D03*
D17*
X257175000Y-76200000D03*
D16*
X209550000Y-95250000D03*
D14*
X78581250Y-152400000D03*
D15*
X83581250Y-147250000D03*
D14*
X342900000Y-57150000D03*
D15*
X347900000Y-52000000D03*
D14*
X247650000Y-57150000D03*
D15*
X252650000Y-52000000D03*
D14*
X190500000Y-57150000D03*
D15*
X195500000Y-52000000D03*
D14*
X95250000Y-76200000D03*
D15*
X100250000Y-71050000D03*
D14*
X80962500Y-114300000D03*
D15*
X85962500Y-109150000D03*
D14*
X104775000Y-95250000D03*
D15*
X109775000Y-90100000D03*
D14*
X133350000Y-76200000D03*
D15*
X138350000Y-71050000D03*
D14*
X247650000Y-133350000D03*
D15*
X252650000Y-128200000D03*
D14*
X114300000Y-133350000D03*
D15*
X119300000Y-128200000D03*
D14*
X295275000Y-114300000D03*
D15*
X300275000Y-109150000D03*
D14*
X342900000Y-152400000D03*
D15*
X347900000Y-147250000D03*
D14*
X200025000Y-95250000D03*
D15*
X205025000Y-90100000D03*
D14*
X80962500Y-95250000D03*
D15*
X85962500Y-90100000D03*
D16*
X266700000Y-95250000D03*
D14*
X304800000Y-57150000D03*
D15*
X309800000Y-52000000D03*
D16*
X292893750Y-152400000D03*
D14*
X152400000Y-57150000D03*
D15*
X157400000Y-52000000D03*
D14*
X171450000Y-76200000D03*
D15*
X176450000Y-71050000D03*
D16*
X95250000Y-114300000D03*
D14*
X123825000Y-114300000D03*
D15*
X128825000Y-109150000D03*
D14*
X238125000Y-114300000D03*
D15*
X243125000Y-109150000D03*
D14*
X361950000Y-152400000D03*
D15*
X366950000Y-147250000D03*
D17*
X180975000Y-133350000D03*
D14*
X209550000Y-76200000D03*
D15*
X214550000Y-71050000D03*
D14*
X285750000Y-133350000D03*
D15*
X290750000Y-128200000D03*
D14*
X266700000Y-57150000D03*
D15*
X271700000Y-52000000D03*
D14*
X171450000Y-57150000D03*
D15*
X176450000Y-52000000D03*
D17*
X333375000Y-133350000D03*
D14*
X126206250Y-152400000D03*
D15*
X131206250Y-147250000D03*
D14*
X285750000Y-57150000D03*
D15*
X290750000Y-52000000D03*
D14*
X190500000Y-152400000D03*
D15*
X195500000Y-147250000D03*
D14*
X114300000Y-57150000D03*
D15*
X119300000Y-52000000D03*
D14*
X323850000Y-57150000D03*
D15*
X328850000Y-52000000D03*
D16*
X88106250Y-152400000D03*
D14*
X142875000Y-114300000D03*
D15*
X147875000Y-109150000D03*
D14*
X278606250Y-152400000D03*
D15*
X283606250Y-147250000D03*
D17*
X104775000Y-133350000D03*
D14*
X171450000Y-133350000D03*
D15*
X176450000Y-128200000D03*
D16*
X309562500Y-114300000D03*
D14*
X323850000Y-152400000D03*
D15*
X328850000Y-147250000D03*
D14*
X219075000Y-95250000D03*
D15*
X224075000Y-90100000D03*
D14*
X190500000Y-133350000D03*
D15*
X195500000Y-128200000D03*
D14*
X361950000Y-133350000D03*
D15*
X366950000Y-128200000D03*
D16*
X257175000Y-57150000D03*
D14*
X95250000Y-57150000D03*
D15*
X100250000Y-52000000D03*
D14*
X276225000Y-114300000D03*
D15*
X281225000Y-109150000D03*
D16*
X152400000Y-114300000D03*
D14*
X247650000Y-76200000D03*
D15*
X252650000Y-71050000D03*
D14*
X257175000Y-95250000D03*
D15*
X262175000Y-90100000D03*
D16*
X85725000Y-57150000D03*
D14*
X302418750Y-152400000D03*
D15*
X307418750Y-147250000D03*
D16*
X95250000Y-95250000D03*
D20*
X69700000Y-116900000D03*
X71200000Y-116900000D03*
X69700000Y-111700000D03*
D21*
X71200000Y-111700000D03*
D14*
X133350000Y-133350000D03*
D15*
X138350000Y-128200000D03*
D17*
X314325000Y-76200000D03*
D14*
X85725000Y-133350000D03*
D15*
X90725000Y-128200000D03*
D14*
X228600000Y-133350000D03*
D15*
X233600000Y-128200000D03*
%LPD*%
M02*
