G04 #@! TF.GenerationSoftware,KiCad,Pcbnew,9.0.4*
G04 #@! TF.CreationDate,2025-10-26T15:50:02+08:00*
G04 #@! TF.ProjectId,Custom Mechanical Keyboard,43757374-6f6d-4204-9d65-6368616e6963,rev?*
G04 #@! TF.SameCoordinates,Original*
G04 #@! TF.FileFunction,Soldermask,Bot*
G04 #@! TF.FilePolarity,Negative*
%FSLAX46Y46*%
G04 Gerber Fmt 4.6, Leading zero omitted, Abs format (unit mm)*
G04 Created by KiCad (PCBNEW 9.0.4) date 2025-10-26 15:50:02*
%MOMM*%
%LPD*%
G01*
G04 APERTURE LIST*
G04 Aperture macros list*
%AMRoundRect*
0 Rectangle with rounded corners*
0 $1 Rounding radius*
0 $2 $3 $4 $5 $6 $7 $8 $9 X,Y pos of 4 corners*
0 Add a 4 corners polygon primitive as box body*
4,1,4,$2,$3,$4,$5,$6,$7,$8,$9,$2,$3,0*
0 Add four circle primitives for the rounded corners*
1,1,$1+$1,$2,$3*
1,1,$1+$1,$4,$5*
1,1,$1+$1,$6,$7*
1,1,$1+$1,$8,$9*
0 Add four rect primitives between the rounded corners*
20,1,$1+$1,$2,$3,$4,$5,0*
20,1,$1+$1,$4,$5,$6,$7,0*
20,1,$1+$1,$6,$7,$8,$9,0*
20,1,$1+$1,$8,$9,$2,$3,0*%
%AMOutline5P*
0 Free polygon, 5 corners , with rotation*
0 The origin of the aperture is its center*
0 number of corners: always 5*
0 $1 to $10 corner X, Y*
0 $11 Rotation angle, in degrees counterclockwise*
0 create outline with 5 corners*
4,1,5,$1,$2,$3,$4,$5,$6,$7,$8,$9,$10,$1,$2,$11*%
%AMOutline6P*
0 Free polygon, 6 corners , with rotation*
0 The origin of the aperture is its center*
0 number of corners: always 6*
0 $1 to $12 corner X, Y*
0 $13 Rotation angle, in degrees counterclockwise*
0 create outline with 6 corners*
4,1,6,$1,$2,$3,$4,$5,$6,$7,$8,$9,$10,$11,$12,$1,$2,$13*%
%AMOutline7P*
0 Free polygon, 7 corners , with rotation*
0 The origin of the aperture is its center*
0 number of corners: always 7*
0 $1 to $14 corner X, Y*
0 $15 Rotation angle, in degrees counterclockwise*
0 create outline with 7 corners*
4,1,7,$1,$2,$3,$4,$5,$6,$7,$8,$9,$10,$11,$12,$13,$14,$1,$2,$15*%
%AMOutline8P*
0 Free polygon, 8 corners , with rotation*
0 The origin of the aperture is its center*
0 number of corners: always 8*
0 $1 to $16 corner X, Y*
0 $17 Rotation angle, in degrees counterclockwise*
0 create outline with 8 corners*
4,1,8,$1,$2,$3,$4,$5,$6,$7,$8,$9,$10,$11,$12,$13,$14,$15,$16,$1,$2,$17*%
G04 Aperture macros list end*
%ADD10C,5.000000*%
%ADD11C,1.400000*%
%ADD12C,2.300000*%
%ADD13C,3.000000*%
%ADD14C,3.500000*%
%ADD15R,1.500000X0.820000*%
%ADD16Outline5P,-0.750000X0.000000X-0.340000X0.410000X0.750000X0.410000X0.750000X-0.410000X-0.750000X-0.410000X0.000000*%
%ADD17R,1.400000X1.200000*%
%ADD18RoundRect,0.250000X0.650000X-0.325000X0.650000X0.325000X-0.650000X0.325000X-0.650000X-0.325000X0*%
G04 APERTURE END LIST*
D10*
X238125000Y-95250000D03*
D11*
X243125000Y-90100000D03*
D12*
X238125000Y-101150000D03*
X241935000Y-97790000D03*
X233125000Y-99050000D03*
X235585000Y-100330000D03*
D10*
X361950000Y-95250000D03*
D11*
X366950000Y-90100000D03*
D12*
X361950000Y-101150000D03*
X365760000Y-97790000D03*
X356950000Y-99050000D03*
X359410000Y-100330000D03*
D13*
X352425000Y-57150000D03*
D10*
X328612500Y-114300000D03*
D11*
X333612500Y-109150000D03*
D12*
X328612500Y-120200000D03*
X332422500Y-116840000D03*
X323612500Y-118100000D03*
X326072500Y-119380000D03*
D10*
X161925000Y-95250000D03*
D11*
X166925000Y-90100000D03*
D12*
X161925000Y-101150000D03*
X165735000Y-97790000D03*
X156925000Y-99050000D03*
X159385000Y-100330000D03*
D10*
X295275000Y-95250000D03*
D11*
X300275000Y-90100000D03*
D12*
X295275000Y-101150000D03*
X299085000Y-97790000D03*
X290275000Y-99050000D03*
X292735000Y-100330000D03*
D10*
X266700000Y-76200000D03*
D11*
X271700000Y-71050000D03*
D12*
X266700000Y-82100000D03*
X270510000Y-78740000D03*
X261700000Y-80000000D03*
X264160000Y-81280000D03*
D13*
X323850000Y-95250000D03*
D10*
X209550000Y-133350000D03*
D11*
X214550000Y-128200000D03*
D12*
X209550000Y-139250000D03*
X213360000Y-135890000D03*
X204550000Y-137150000D03*
X207010000Y-138430000D03*
D10*
X219075000Y-114300000D03*
D11*
X224075000Y-109150000D03*
D12*
X219075000Y-120200000D03*
X222885000Y-116840000D03*
X214075000Y-118100000D03*
X216535000Y-119380000D03*
D13*
X266700000Y-114300000D03*
D10*
X180975000Y-114300000D03*
D11*
X185975000Y-109150000D03*
D12*
X180975000Y-120200000D03*
X184785000Y-116840000D03*
X175975000Y-118100000D03*
X178435000Y-119380000D03*
D10*
X285750000Y-76200000D03*
D11*
X290750000Y-71050000D03*
D12*
X285750000Y-82100000D03*
X289560000Y-78740000D03*
X280750000Y-80000000D03*
X283210000Y-81280000D03*
D10*
X142875000Y-95250000D03*
D11*
X147875000Y-90100000D03*
D12*
X142875000Y-101150000D03*
X146685000Y-97790000D03*
X137875000Y-99050000D03*
X140335000Y-100330000D03*
D10*
X228600000Y-76200000D03*
D11*
X233600000Y-71050000D03*
D12*
X228600000Y-82100000D03*
X232410000Y-78740000D03*
X223600000Y-80000000D03*
X226060000Y-81280000D03*
D10*
X190500000Y-76200000D03*
D11*
X195500000Y-71050000D03*
D12*
X190500000Y-82100000D03*
X194310000Y-78740000D03*
X185500000Y-80000000D03*
X187960000Y-81280000D03*
D14*
X257175000Y-133350000D03*
D10*
X276225000Y-95250000D03*
D11*
X281225000Y-90100000D03*
D12*
X276225000Y-101150000D03*
X280035000Y-97790000D03*
X271225000Y-99050000D03*
X273685000Y-100330000D03*
D10*
X257175000Y-114300000D03*
D11*
X262175000Y-109150000D03*
D12*
X257175000Y-120200000D03*
X260985000Y-116840000D03*
X252175000Y-118100000D03*
X254635000Y-119380000D03*
D10*
X254793750Y-152400000D03*
D11*
X259793750Y-147250000D03*
D12*
X254793750Y-158300000D03*
X258603750Y-154940000D03*
X249793750Y-156200000D03*
X252253750Y-157480000D03*
D13*
X238125000Y-152400000D03*
D10*
X338137500Y-95250000D03*
D11*
X343137500Y-90100000D03*
D12*
X338137500Y-101150000D03*
X341947500Y-97790000D03*
X333137500Y-99050000D03*
X335597500Y-100330000D03*
D10*
X152400000Y-133350000D03*
D11*
X157400000Y-128200000D03*
D12*
X152400000Y-139250000D03*
X156210000Y-135890000D03*
X147400000Y-137150000D03*
X149860000Y-138430000D03*
D10*
X228600000Y-57150000D03*
D11*
X233600000Y-52000000D03*
D12*
X228600000Y-63050000D03*
X232410000Y-59690000D03*
X223600000Y-60950000D03*
X226060000Y-62230000D03*
D10*
X104775000Y-114300000D03*
D11*
X109775000Y-109150000D03*
D12*
X104775000Y-120200000D03*
X108585000Y-116840000D03*
X99775000Y-118100000D03*
X102235000Y-119380000D03*
D10*
X114300000Y-76200000D03*
D11*
X119300000Y-71050000D03*
D12*
X114300000Y-82100000D03*
X118110000Y-78740000D03*
X109300000Y-80000000D03*
X111760000Y-81280000D03*
D10*
X266700000Y-133350000D03*
D11*
X271700000Y-128200000D03*
D12*
X266700000Y-139250000D03*
X270510000Y-135890000D03*
X261700000Y-137150000D03*
X264160000Y-138430000D03*
D10*
X200025000Y-114300000D03*
D11*
X205025000Y-109150000D03*
D12*
X200025000Y-120200000D03*
X203835000Y-116840000D03*
X195025000Y-118100000D03*
X197485000Y-119380000D03*
D10*
X342900000Y-133350000D03*
D11*
X347900000Y-128200000D03*
D12*
X342900000Y-139250000D03*
X346710000Y-135890000D03*
X337900000Y-137150000D03*
X340360000Y-138430000D03*
D10*
X102393750Y-152400000D03*
D11*
X107393750Y-147250000D03*
D12*
X102393750Y-158300000D03*
X106203750Y-154940000D03*
X97393750Y-156200000D03*
X99853750Y-157480000D03*
D13*
X152400000Y-95250000D03*
X209550000Y-114300000D03*
D10*
X152400000Y-76200000D03*
D11*
X157400000Y-71050000D03*
D12*
X152400000Y-82100000D03*
X156210000Y-78740000D03*
X147400000Y-80000000D03*
X149860000Y-81280000D03*
D10*
X180975000Y-95250000D03*
D11*
X185975000Y-90100000D03*
D12*
X180975000Y-101150000D03*
X184785000Y-97790000D03*
X175975000Y-99050000D03*
X178435000Y-100330000D03*
D10*
X123825000Y-95250000D03*
D11*
X128825000Y-90100000D03*
D12*
X123825000Y-101150000D03*
X127635000Y-97790000D03*
X118825000Y-99050000D03*
X121285000Y-100330000D03*
D10*
X76200000Y-57150000D03*
D11*
X81200000Y-52000000D03*
D12*
X76200000Y-63050000D03*
X80010000Y-59690000D03*
X71200000Y-60950000D03*
X73660000Y-62230000D03*
D10*
X314325000Y-133350000D03*
D11*
X319325000Y-128200000D03*
D12*
X314325000Y-139250000D03*
X318135000Y-135890000D03*
X309325000Y-137150000D03*
X311785000Y-138430000D03*
D13*
X142875000Y-152400000D03*
D14*
X104775000Y-76200000D03*
D10*
X361950000Y-57150000D03*
D11*
X366950000Y-52000000D03*
D12*
X361950000Y-63050000D03*
X365760000Y-59690000D03*
X356950000Y-60950000D03*
X359410000Y-62230000D03*
D10*
X161925000Y-114300000D03*
D11*
X166925000Y-109150000D03*
D12*
X161925000Y-120200000D03*
X165735000Y-116840000D03*
X156925000Y-118100000D03*
X159385000Y-119380000D03*
D13*
X180975000Y-57150000D03*
D10*
X314325000Y-95250000D03*
D11*
X319325000Y-90100000D03*
D12*
X314325000Y-101150000D03*
X318135000Y-97790000D03*
X309325000Y-99050000D03*
X311785000Y-100330000D03*
D13*
X352425000Y-152400000D03*
D14*
X180975000Y-76200000D03*
D10*
X76200000Y-76200000D03*
D11*
X81200000Y-71050000D03*
D12*
X76200000Y-82100000D03*
X80010000Y-78740000D03*
X71200000Y-80000000D03*
X73660000Y-81280000D03*
D10*
X304800000Y-76200000D03*
D11*
X309800000Y-71050000D03*
D12*
X304800000Y-82100000D03*
X308610000Y-78740000D03*
X299800000Y-80000000D03*
X302260000Y-81280000D03*
D10*
X333375000Y-76200000D03*
D11*
X338375000Y-71050000D03*
D12*
X333375000Y-82100000D03*
X337185000Y-78740000D03*
X328375000Y-80000000D03*
X330835000Y-81280000D03*
D10*
X361950000Y-114300000D03*
D11*
X366950000Y-109150000D03*
D12*
X361950000Y-120200000D03*
X365760000Y-116840000D03*
X356950000Y-118100000D03*
X359410000Y-119380000D03*
D10*
X361950000Y-76200000D03*
D11*
X366950000Y-71050000D03*
D12*
X361950000Y-82100000D03*
X365760000Y-78740000D03*
X356950000Y-80000000D03*
X359410000Y-81280000D03*
D10*
X133350000Y-57150000D03*
D11*
X138350000Y-52000000D03*
D12*
X133350000Y-63050000D03*
X137160000Y-59690000D03*
X128350000Y-60950000D03*
X130810000Y-62230000D03*
D10*
X209550000Y-57150000D03*
D11*
X214550000Y-52000000D03*
D12*
X209550000Y-63050000D03*
X213360000Y-59690000D03*
X204550000Y-60950000D03*
X207010000Y-62230000D03*
D14*
X257175000Y-76200000D03*
D13*
X209550000Y-95250000D03*
D10*
X78581250Y-152400000D03*
D11*
X83581250Y-147250000D03*
D12*
X78581250Y-158300000D03*
X82391250Y-154940000D03*
X73581250Y-156200000D03*
X76041250Y-157480000D03*
D10*
X342900000Y-57150000D03*
D11*
X347900000Y-52000000D03*
D12*
X342900000Y-63050000D03*
X346710000Y-59690000D03*
X337900000Y-60950000D03*
X340360000Y-62230000D03*
D10*
X247650000Y-57150000D03*
D11*
X252650000Y-52000000D03*
D12*
X247650000Y-63050000D03*
X251460000Y-59690000D03*
X242650000Y-60950000D03*
X245110000Y-62230000D03*
D10*
X190500000Y-57150000D03*
D11*
X195500000Y-52000000D03*
D12*
X190500000Y-63050000D03*
X194310000Y-59690000D03*
X185500000Y-60950000D03*
X187960000Y-62230000D03*
D10*
X95250000Y-76200000D03*
D11*
X100250000Y-71050000D03*
D12*
X95250000Y-82100000D03*
X99060000Y-78740000D03*
X90250000Y-80000000D03*
X92710000Y-81280000D03*
D10*
X80962500Y-114300000D03*
D11*
X85962500Y-109150000D03*
D12*
X80962500Y-120200000D03*
X84772500Y-116840000D03*
X75962500Y-118100000D03*
X78422500Y-119380000D03*
D10*
X104775000Y-95250000D03*
D11*
X109775000Y-90100000D03*
D12*
X104775000Y-101150000D03*
X108585000Y-97790000D03*
X99775000Y-99050000D03*
X102235000Y-100330000D03*
D10*
X133350000Y-76200000D03*
D11*
X138350000Y-71050000D03*
D12*
X133350000Y-82100000D03*
X137160000Y-78740000D03*
X128350000Y-80000000D03*
X130810000Y-81280000D03*
D10*
X247650000Y-133350000D03*
D11*
X252650000Y-128200000D03*
D12*
X247650000Y-139250000D03*
X251460000Y-135890000D03*
X242650000Y-137150000D03*
X245110000Y-138430000D03*
D10*
X114300000Y-133350000D03*
D11*
X119300000Y-128200000D03*
D12*
X114300000Y-139250000D03*
X118110000Y-135890000D03*
X109300000Y-137150000D03*
X111760000Y-138430000D03*
D10*
X295275000Y-114300000D03*
D11*
X300275000Y-109150000D03*
D12*
X295275000Y-120200000D03*
X299085000Y-116840000D03*
X290275000Y-118100000D03*
X292735000Y-119380000D03*
D10*
X342900000Y-152400000D03*
D11*
X347900000Y-147250000D03*
D12*
X342900000Y-158300000D03*
X346710000Y-154940000D03*
X337900000Y-156200000D03*
X340360000Y-157480000D03*
D10*
X200025000Y-95250000D03*
D11*
X205025000Y-90100000D03*
D12*
X200025000Y-101150000D03*
X203835000Y-97790000D03*
X195025000Y-99050000D03*
X197485000Y-100330000D03*
D10*
X80962500Y-95250000D03*
D11*
X85962500Y-90100000D03*
D12*
X80962500Y-101150000D03*
X84772500Y-97790000D03*
X75962500Y-99050000D03*
X78422500Y-100330000D03*
D13*
X266700000Y-95250000D03*
D10*
X304800000Y-57150000D03*
D11*
X309800000Y-52000000D03*
D12*
X304800000Y-63050000D03*
X308610000Y-59690000D03*
X299800000Y-60950000D03*
X302260000Y-62230000D03*
D13*
X292893750Y-152400000D03*
D10*
X152400000Y-57150000D03*
D11*
X157400000Y-52000000D03*
D12*
X152400000Y-63050000D03*
X156210000Y-59690000D03*
X147400000Y-60950000D03*
X149860000Y-62230000D03*
D10*
X171450000Y-76200000D03*
D11*
X176450000Y-71050000D03*
D12*
X171450000Y-82100000D03*
X175260000Y-78740000D03*
X166450000Y-80000000D03*
X168910000Y-81280000D03*
D13*
X95250000Y-114300000D03*
D10*
X123825000Y-114300000D03*
D11*
X128825000Y-109150000D03*
D12*
X123825000Y-120200000D03*
X127635000Y-116840000D03*
X118825000Y-118100000D03*
X121285000Y-119380000D03*
D10*
X238125000Y-114300000D03*
D11*
X243125000Y-109150000D03*
D12*
X238125000Y-120200000D03*
X241935000Y-116840000D03*
X233125000Y-118100000D03*
X235585000Y-119380000D03*
D10*
X361950000Y-152400000D03*
D11*
X366950000Y-147250000D03*
D12*
X361950000Y-158300000D03*
X365760000Y-154940000D03*
X356950000Y-156200000D03*
X359410000Y-157480000D03*
D14*
X180975000Y-133350000D03*
D10*
X209550000Y-76200000D03*
D11*
X214550000Y-71050000D03*
D12*
X209550000Y-82100000D03*
X213360000Y-78740000D03*
X204550000Y-80000000D03*
X207010000Y-81280000D03*
D10*
X285750000Y-133350000D03*
D11*
X290750000Y-128200000D03*
D12*
X285750000Y-139250000D03*
X289560000Y-135890000D03*
X280750000Y-137150000D03*
X283210000Y-138430000D03*
D10*
X266700000Y-57150000D03*
D11*
X271700000Y-52000000D03*
D12*
X266700000Y-63050000D03*
X270510000Y-59690000D03*
X261700000Y-60950000D03*
X264160000Y-62230000D03*
D10*
X171450000Y-57150000D03*
D11*
X176450000Y-52000000D03*
D12*
X171450000Y-63050000D03*
X175260000Y-59690000D03*
X166450000Y-60950000D03*
X168910000Y-62230000D03*
D14*
X333375000Y-133350000D03*
D10*
X126206250Y-152400000D03*
D11*
X131206250Y-147250000D03*
D12*
X126206250Y-158300000D03*
X130016250Y-154940000D03*
X121206250Y-156200000D03*
X123666250Y-157480000D03*
D10*
X285750000Y-57150000D03*
D11*
X290750000Y-52000000D03*
D12*
X285750000Y-63050000D03*
X289560000Y-59690000D03*
X280750000Y-60950000D03*
X283210000Y-62230000D03*
D10*
X190500000Y-152400000D03*
D11*
X195500000Y-147250000D03*
D12*
X190500000Y-158300000D03*
X194310000Y-154940000D03*
X185500000Y-156200000D03*
X187960000Y-157480000D03*
D10*
X114300000Y-57150000D03*
D11*
X119300000Y-52000000D03*
D12*
X114300000Y-63050000D03*
X118110000Y-59690000D03*
X109300000Y-60950000D03*
X111760000Y-62230000D03*
D10*
X323850000Y-57150000D03*
D11*
X328850000Y-52000000D03*
D12*
X323850000Y-63050000D03*
X327660000Y-59690000D03*
X318850000Y-60950000D03*
X321310000Y-62230000D03*
D13*
X88106250Y-152400000D03*
D10*
X142875000Y-114300000D03*
D11*
X147875000Y-109150000D03*
D12*
X142875000Y-120200000D03*
X146685000Y-116840000D03*
X137875000Y-118100000D03*
X140335000Y-119380000D03*
D10*
X278606250Y-152400000D03*
D11*
X283606250Y-147250000D03*
D12*
X278606250Y-158300000D03*
X282416250Y-154940000D03*
X273606250Y-156200000D03*
X276066250Y-157480000D03*
D14*
X104775000Y-133350000D03*
D10*
X171450000Y-133350000D03*
D11*
X176450000Y-128200000D03*
D12*
X171450000Y-139250000D03*
X175260000Y-135890000D03*
X166450000Y-137150000D03*
X168910000Y-138430000D03*
D13*
X309562500Y-114300000D03*
D10*
X323850000Y-152400000D03*
D11*
X328850000Y-147250000D03*
D12*
X323850000Y-158300000D03*
X327660000Y-154940000D03*
X318850000Y-156200000D03*
X321310000Y-157480000D03*
D10*
X219075000Y-95250000D03*
D11*
X224075000Y-90100000D03*
D12*
X219075000Y-101150000D03*
X222885000Y-97790000D03*
X214075000Y-99050000D03*
X216535000Y-100330000D03*
D10*
X190500000Y-133350000D03*
D11*
X195500000Y-128200000D03*
D12*
X190500000Y-139250000D03*
X194310000Y-135890000D03*
X185500000Y-137150000D03*
X187960000Y-138430000D03*
D10*
X361950000Y-133350000D03*
D11*
X366950000Y-128200000D03*
D12*
X361950000Y-139250000D03*
X365760000Y-135890000D03*
X356950000Y-137150000D03*
X359410000Y-138430000D03*
D13*
X257175000Y-57150000D03*
D10*
X95250000Y-57150000D03*
D11*
X100250000Y-52000000D03*
D12*
X95250000Y-63050000D03*
X99060000Y-59690000D03*
X90250000Y-60950000D03*
X92710000Y-62230000D03*
D10*
X276225000Y-114300000D03*
D11*
X281225000Y-109150000D03*
D12*
X276225000Y-120200000D03*
X280035000Y-116840000D03*
X271225000Y-118100000D03*
X273685000Y-119380000D03*
D13*
X152400000Y-114300000D03*
D10*
X247650000Y-76200000D03*
D11*
X252650000Y-71050000D03*
D12*
X247650000Y-82100000D03*
X251460000Y-78740000D03*
X242650000Y-80000000D03*
X245110000Y-81280000D03*
D10*
X257175000Y-95250000D03*
D11*
X262175000Y-90100000D03*
D12*
X257175000Y-101150000D03*
X260985000Y-97790000D03*
X252175000Y-99050000D03*
X254635000Y-100330000D03*
D13*
X85725000Y-57150000D03*
D10*
X302418750Y-152400000D03*
D11*
X307418750Y-147250000D03*
D12*
X302418750Y-158300000D03*
X306228750Y-154940000D03*
X297418750Y-156200000D03*
X299878750Y-157480000D03*
D13*
X95250000Y-95250000D03*
D10*
X133350000Y-133350000D03*
D11*
X138350000Y-128200000D03*
D12*
X133350000Y-139250000D03*
X137160000Y-135890000D03*
X128350000Y-137150000D03*
X130810000Y-138430000D03*
D14*
X314325000Y-76200000D03*
D10*
X85725000Y-133350000D03*
D11*
X90725000Y-128200000D03*
D12*
X85725000Y-139250000D03*
X89535000Y-135890000D03*
X80725000Y-137150000D03*
X83185000Y-138430000D03*
D10*
X228600000Y-133350000D03*
D11*
X233600000Y-128200000D03*
D12*
X228600000Y-139250000D03*
X232410000Y-135890000D03*
X223600000Y-137150000D03*
X226060000Y-138430000D03*
D15*
X231200000Y-71650000D03*
X231200000Y-70150000D03*
X226000000Y-71650000D03*
D16*
X226000000Y-70150000D03*
D17*
X269025000Y-121500000D03*
X269025000Y-118100000D03*
D15*
X231200000Y-52600000D03*
X231200000Y-51100000D03*
X226000000Y-52600000D03*
D16*
X226000000Y-51100000D03*
D17*
X230925000Y-121500000D03*
X230925000Y-118100000D03*
X107100000Y-83400000D03*
X107100000Y-80000000D03*
X183300000Y-156200000D03*
X183300000Y-159600000D03*
D15*
X335975000Y-71650000D03*
X335975000Y-70150000D03*
X330775000Y-71650000D03*
D16*
X330775000Y-70150000D03*
D18*
X99200000Y-110325000D03*
X99200000Y-107375000D03*
D15*
X212150000Y-71650000D03*
X212150000Y-70150000D03*
X206950000Y-71650000D03*
D16*
X206950000Y-70150000D03*
D17*
X164250000Y-60950000D03*
X164250000Y-64350000D03*
D15*
X83562500Y-109750000D03*
X83562500Y-108250000D03*
X78362500Y-109750000D03*
D16*
X78362500Y-108250000D03*
D15*
X126425000Y-90700000D03*
X126425000Y-89200000D03*
X121225000Y-90700000D03*
D16*
X121225000Y-89200000D03*
D17*
X240450000Y-60950000D03*
X240450000Y-64350000D03*
X278550000Y-140550000D03*
X278550000Y-137150000D03*
X126150000Y-60950000D03*
X126150000Y-64350000D03*
X269025000Y-102450000D03*
X269025000Y-99050000D03*
D18*
X248850000Y-148000000D03*
X248850000Y-145050000D03*
D15*
X174050000Y-52600000D03*
X174050000Y-51100000D03*
X168850000Y-52600000D03*
D16*
X168850000Y-51100000D03*
D17*
X126150000Y-140550000D03*
X126150000Y-137150000D03*
X73762500Y-102450000D03*
X73762500Y-99050000D03*
D15*
X364550000Y-71650000D03*
X364550000Y-70150000D03*
X359350000Y-71650000D03*
D16*
X359350000Y-70150000D03*
D15*
X250250000Y-128800000D03*
X250250000Y-127300000D03*
X245050000Y-128800000D03*
D16*
X245050000Y-127300000D03*
D15*
X164525000Y-109750000D03*
X164525000Y-108250000D03*
X159325000Y-109750000D03*
D16*
X159325000Y-108250000D03*
D18*
X99250000Y-91425000D03*
X99250000Y-88475000D03*
D17*
X69000000Y-64350000D03*
X69000000Y-60950000D03*
D15*
X278825000Y-90700000D03*
X278825000Y-89200000D03*
X273625000Y-90700000D03*
D16*
X273625000Y-89200000D03*
D17*
X107100000Y-64350000D03*
X107100000Y-60950000D03*
X354750000Y-80000000D03*
X354750000Y-83400000D03*
D15*
X307400000Y-52600000D03*
X307400000Y-51100000D03*
X302200000Y-52600000D03*
D16*
X302200000Y-51100000D03*
D17*
X71381250Y-159600000D03*
X71381250Y-156200000D03*
X230925000Y-102450000D03*
X230925000Y-99050000D03*
X145200000Y-137150000D03*
X145200000Y-140550000D03*
D15*
X155000000Y-128800000D03*
X155000000Y-127300000D03*
X149800000Y-128800000D03*
D16*
X149800000Y-127300000D03*
D15*
X88325000Y-128800000D03*
X88325000Y-127300000D03*
X83125000Y-128800000D03*
D16*
X83125000Y-127300000D03*
D17*
X335700000Y-159600000D03*
X335700000Y-156200000D03*
X354750000Y-156200000D03*
X354750000Y-159600000D03*
X240450000Y-80000000D03*
X240450000Y-83400000D03*
D15*
X364550000Y-90700000D03*
X364550000Y-89200000D03*
X359350000Y-90700000D03*
D16*
X359350000Y-89200000D03*
D18*
X108700000Y-129525000D03*
X108700000Y-126575000D03*
D17*
X183300000Y-64350000D03*
X183300000Y-60950000D03*
D18*
X223100000Y-129525000D03*
X223100000Y-126575000D03*
D15*
X288350000Y-71650000D03*
X288350000Y-70150000D03*
X283150000Y-71650000D03*
D16*
X283150000Y-70150000D03*
D17*
X183300000Y-137150000D03*
X183300000Y-140550000D03*
X354750000Y-137150000D03*
X354750000Y-140550000D03*
D15*
X240725000Y-90700000D03*
X240725000Y-89200000D03*
X235525000Y-90700000D03*
D16*
X235525000Y-89200000D03*
D17*
X271406250Y-159600000D03*
X271406250Y-156200000D03*
D15*
X364550000Y-109750000D03*
X364550000Y-108250000D03*
X359350000Y-109750000D03*
D16*
X359350000Y-108250000D03*
D18*
X96750000Y-148525000D03*
X96750000Y-145575000D03*
X89800000Y-72375000D03*
X89800000Y-69425000D03*
D15*
X183575000Y-90700000D03*
X183575000Y-89200000D03*
X178375000Y-90700000D03*
D16*
X178375000Y-89200000D03*
D15*
X193100000Y-147850000D03*
X193100000Y-146350000D03*
X187900000Y-147850000D03*
D16*
X187900000Y-146350000D03*
D17*
X192825000Y-102450000D03*
X192825000Y-99050000D03*
D15*
X174050000Y-128800000D03*
X174050000Y-127300000D03*
X168850000Y-128800000D03*
D16*
X168850000Y-127300000D03*
D15*
X269300000Y-52600000D03*
X269300000Y-51100000D03*
X264100000Y-52600000D03*
D16*
X264100000Y-51100000D03*
D15*
X297875000Y-90700000D03*
X297875000Y-89200000D03*
X292675000Y-90700000D03*
D16*
X292675000Y-89200000D03*
D17*
X211875000Y-118100000D03*
X211875000Y-121500000D03*
X316650000Y-60950000D03*
X316650000Y-64350000D03*
X307125000Y-140550000D03*
X307125000Y-137150000D03*
D15*
X97850000Y-52600000D03*
X97850000Y-51100000D03*
X92650000Y-52600000D03*
D16*
X92650000Y-51100000D03*
D15*
X221675000Y-90700000D03*
X221675000Y-89200000D03*
X216475000Y-90700000D03*
D16*
X216475000Y-89200000D03*
D17*
X107100000Y-137150000D03*
X107100000Y-140550000D03*
X249975000Y-99050000D03*
X249975000Y-102450000D03*
X297600000Y-64350000D03*
X297600000Y-60950000D03*
D15*
X155000000Y-52600000D03*
X155000000Y-51100000D03*
X149800000Y-52600000D03*
D16*
X149800000Y-51100000D03*
D15*
X126425000Y-109750000D03*
X126425000Y-108250000D03*
X121225000Y-109750000D03*
D16*
X121225000Y-108250000D03*
D17*
X69000000Y-83400000D03*
X69000000Y-80000000D03*
D15*
X288350000Y-52600000D03*
X288350000Y-51100000D03*
X283150000Y-52600000D03*
D16*
X283150000Y-51100000D03*
D15*
X364550000Y-147850000D03*
X364550000Y-146350000D03*
X359350000Y-147850000D03*
D16*
X359350000Y-146350000D03*
D17*
X173775000Y-118100000D03*
X173775000Y-121500000D03*
X259500000Y-64350000D03*
X259500000Y-60950000D03*
D15*
X116900000Y-52600000D03*
X116900000Y-51100000D03*
X111700000Y-52600000D03*
D16*
X111700000Y-51100000D03*
D17*
X78525000Y-140550000D03*
X78525000Y-137150000D03*
D15*
X259775000Y-109750000D03*
X259775000Y-108250000D03*
X254575000Y-109750000D03*
D16*
X254575000Y-108250000D03*
D15*
X316925000Y-90700000D03*
X316925000Y-89200000D03*
X311725000Y-90700000D03*
D16*
X311725000Y-89200000D03*
D15*
X135950000Y-52600000D03*
X135950000Y-51100000D03*
X130750000Y-52600000D03*
D16*
X130750000Y-51100000D03*
D15*
X212150000Y-128800000D03*
X212150000Y-127300000D03*
X206950000Y-128800000D03*
D16*
X206950000Y-127300000D03*
D17*
X154725000Y-102450000D03*
X154725000Y-99050000D03*
D15*
X78800000Y-52600000D03*
X78800000Y-51100000D03*
X73600000Y-52600000D03*
D16*
X73600000Y-51100000D03*
D17*
X116625000Y-121500000D03*
X116625000Y-118100000D03*
D15*
X116900000Y-128800000D03*
X116900000Y-127300000D03*
X111700000Y-128800000D03*
D16*
X111700000Y-127300000D03*
D15*
X278825000Y-109750000D03*
X278825000Y-108250000D03*
X273625000Y-109750000D03*
D16*
X273625000Y-108250000D03*
D15*
X174050000Y-71650000D03*
X174050000Y-70150000D03*
X168850000Y-71650000D03*
D16*
X168850000Y-70150000D03*
D15*
X107375000Y-109750000D03*
X107375000Y-108250000D03*
X102175000Y-109750000D03*
D16*
X102175000Y-108250000D03*
D15*
X305018750Y-147850000D03*
X305018750Y-146350000D03*
X299818750Y-147850000D03*
D16*
X299818750Y-146350000D03*
D15*
X221675000Y-109750000D03*
X221675000Y-108250000D03*
X216475000Y-109750000D03*
D16*
X216475000Y-108250000D03*
D15*
X257393750Y-147850000D03*
X257393750Y-146350000D03*
X252193750Y-147850000D03*
D16*
X252193750Y-146350000D03*
D17*
X330937500Y-102450000D03*
X330937500Y-99050000D03*
X73762500Y-121500000D03*
X73762500Y-118100000D03*
X202350000Y-60950000D03*
X202350000Y-64350000D03*
D15*
X316925000Y-128800000D03*
X316925000Y-127300000D03*
X311725000Y-128800000D03*
D16*
X311725000Y-127300000D03*
D17*
X145200000Y-83400000D03*
X145200000Y-80000000D03*
X295218750Y-159600000D03*
X295218750Y-156200000D03*
X135675000Y-118100000D03*
X135675000Y-121500000D03*
D15*
X193100000Y-128800000D03*
X193100000Y-127300000D03*
X187900000Y-128800000D03*
D16*
X187900000Y-127300000D03*
D17*
X97575000Y-118100000D03*
X97575000Y-121500000D03*
D18*
X203950000Y-72175000D03*
X203950000Y-69225000D03*
D15*
X240725000Y-109750000D03*
X240725000Y-108250000D03*
X235525000Y-109750000D03*
D16*
X235525000Y-108250000D03*
D15*
X81181250Y-147850000D03*
X81181250Y-146350000D03*
X75981250Y-147850000D03*
D16*
X75981250Y-146350000D03*
D17*
X183300000Y-83400000D03*
X183300000Y-80000000D03*
X259500000Y-83400000D03*
X259500000Y-80000000D03*
D15*
X326450000Y-52600000D03*
X326450000Y-51100000D03*
X321250000Y-52600000D03*
D16*
X321250000Y-51100000D03*
D17*
X211875000Y-99050000D03*
X211875000Y-102450000D03*
D18*
X204000000Y-53325000D03*
X204000000Y-50375000D03*
D17*
X297600000Y-83400000D03*
X297600000Y-80000000D03*
X259500000Y-137150000D03*
X259500000Y-140550000D03*
X116625000Y-102450000D03*
X116625000Y-99050000D03*
X221400000Y-83400000D03*
X221400000Y-80000000D03*
D15*
X269300000Y-71650000D03*
X269300000Y-70150000D03*
X264100000Y-71650000D03*
D16*
X264100000Y-70150000D03*
D18*
X89750000Y-53325000D03*
X89750000Y-50375000D03*
D17*
X316650000Y-156200000D03*
X316650000Y-159600000D03*
D15*
X281206250Y-147850000D03*
X281206250Y-146350000D03*
X276006250Y-147850000D03*
D16*
X276006250Y-146350000D03*
D17*
X288075000Y-99050000D03*
X288075000Y-102450000D03*
D15*
X364550000Y-52600000D03*
X364550000Y-51100000D03*
X359350000Y-52600000D03*
D16*
X359350000Y-51100000D03*
D17*
X221400000Y-64350000D03*
X221400000Y-60950000D03*
X173775000Y-99050000D03*
X173775000Y-102450000D03*
D15*
X135950000Y-128800000D03*
X135950000Y-127300000D03*
X130750000Y-128800000D03*
D16*
X130750000Y-127300000D03*
D15*
X364550000Y-128800000D03*
X364550000Y-127300000D03*
X359350000Y-128800000D03*
D16*
X359350000Y-127300000D03*
D15*
X250250000Y-52600000D03*
X250250000Y-51100000D03*
X245050000Y-52600000D03*
D16*
X245050000Y-51100000D03*
D17*
X278550000Y-60950000D03*
X278550000Y-64350000D03*
X88050000Y-80000000D03*
X88050000Y-83400000D03*
X202350000Y-80000000D03*
X202350000Y-83400000D03*
X288075000Y-118100000D03*
X288075000Y-121500000D03*
X321412500Y-118100000D03*
X321412500Y-121500000D03*
X335700000Y-64350000D03*
X335700000Y-60950000D03*
X164250000Y-140550000D03*
X164250000Y-137150000D03*
X164250000Y-80000000D03*
X164250000Y-83400000D03*
D15*
X269300000Y-128800000D03*
X269300000Y-127300000D03*
X264100000Y-128800000D03*
D16*
X264100000Y-127300000D03*
D17*
X192825000Y-121500000D03*
X192825000Y-118100000D03*
X249975000Y-118100000D03*
X249975000Y-121500000D03*
X135675000Y-99050000D03*
X135675000Y-102450000D03*
D15*
X183575000Y-109750000D03*
X183575000Y-108250000D03*
X178375000Y-109750000D03*
D16*
X178375000Y-108250000D03*
D15*
X340737500Y-90700000D03*
X340737500Y-89200000D03*
X335537500Y-90700000D03*
D16*
X335537500Y-89200000D03*
D17*
X154725000Y-121500000D03*
X154725000Y-118100000D03*
D15*
X345500000Y-52600000D03*
X345500000Y-51100000D03*
X340300000Y-52600000D03*
D16*
X340300000Y-51100000D03*
D17*
X354750000Y-118100000D03*
X354750000Y-121500000D03*
D15*
X78800000Y-71650000D03*
X78800000Y-70150000D03*
X73600000Y-71650000D03*
D16*
X73600000Y-70150000D03*
D15*
X331212500Y-109750000D03*
X331212500Y-108250000D03*
X326012500Y-109750000D03*
D16*
X326012500Y-108250000D03*
D17*
X119006250Y-159600000D03*
X119006250Y-156200000D03*
X354750000Y-60950000D03*
X354750000Y-64350000D03*
X247593750Y-156200000D03*
X247593750Y-159600000D03*
D15*
X345500000Y-147850000D03*
X345500000Y-146350000D03*
X340300000Y-147850000D03*
D16*
X340300000Y-146350000D03*
D15*
X307400000Y-71650000D03*
X307400000Y-70150000D03*
X302200000Y-71650000D03*
D16*
X302200000Y-70150000D03*
D15*
X107375000Y-90700000D03*
X107375000Y-89200000D03*
X102175000Y-90700000D03*
D16*
X102175000Y-89200000D03*
D15*
X193100000Y-52600000D03*
X193100000Y-51100000D03*
X187900000Y-52600000D03*
D16*
X187900000Y-51100000D03*
D17*
X307125000Y-102450000D03*
X307125000Y-99050000D03*
D18*
X213450000Y-91425000D03*
X213450000Y-88475000D03*
D15*
X193100000Y-71650000D03*
X193100000Y-70150000D03*
X187900000Y-71650000D03*
D16*
X187900000Y-70150000D03*
D15*
X155000000Y-71650000D03*
X155000000Y-70150000D03*
X149800000Y-71650000D03*
D16*
X149800000Y-70150000D03*
D15*
X250250000Y-71650000D03*
X250250000Y-70150000D03*
X245050000Y-71650000D03*
D16*
X245050000Y-70150000D03*
D15*
X202625000Y-90700000D03*
X202625000Y-89200000D03*
X197425000Y-90700000D03*
D16*
X197425000Y-89200000D03*
D15*
X345500000Y-128800000D03*
X345500000Y-127300000D03*
X340300000Y-128800000D03*
D16*
X340300000Y-127300000D03*
D15*
X231200000Y-128800000D03*
X231200000Y-127300000D03*
X226000000Y-128800000D03*
D16*
X226000000Y-127300000D03*
D17*
X354750000Y-99050000D03*
X354750000Y-102450000D03*
D15*
X202625000Y-109750000D03*
X202625000Y-108250000D03*
X197425000Y-109750000D03*
D16*
X197425000Y-108250000D03*
D15*
X164525000Y-90700000D03*
X164525000Y-89200000D03*
X159325000Y-90700000D03*
D16*
X159325000Y-89200000D03*
D15*
X326450000Y-147850000D03*
X326450000Y-146350000D03*
X321250000Y-147850000D03*
D16*
X321250000Y-146350000D03*
D17*
X278550000Y-80000000D03*
X278550000Y-83400000D03*
X145200000Y-64350000D03*
X145200000Y-60950000D03*
D15*
X259775000Y-90700000D03*
X259775000Y-89200000D03*
X254575000Y-90700000D03*
D16*
X254575000Y-89200000D03*
D15*
X83562500Y-90700000D03*
X83562500Y-89200000D03*
X78362500Y-90700000D03*
D16*
X78362500Y-89200000D03*
D17*
X126150000Y-80000000D03*
X126150000Y-83400000D03*
X88050000Y-60950000D03*
X88050000Y-64350000D03*
X95193750Y-156200000D03*
X95193750Y-159600000D03*
D15*
X288350000Y-128800000D03*
X288350000Y-127300000D03*
X283150000Y-128800000D03*
D16*
X283150000Y-127300000D03*
D17*
X221400000Y-137150000D03*
X221400000Y-140550000D03*
D15*
X97850000Y-71650000D03*
X97850000Y-70150000D03*
X92650000Y-71650000D03*
D16*
X92650000Y-70150000D03*
D15*
X297875000Y-109750000D03*
X297875000Y-108250000D03*
X292675000Y-109750000D03*
D16*
X292675000Y-108250000D03*
D17*
X240450000Y-140550000D03*
X240450000Y-137150000D03*
D18*
X213450000Y-110475000D03*
X213450000Y-107525000D03*
D15*
X135950000Y-71650000D03*
X135950000Y-70150000D03*
X130750000Y-71650000D03*
D16*
X130750000Y-70150000D03*
D15*
X104993750Y-147850000D03*
X104993750Y-146350000D03*
X99793750Y-147850000D03*
D16*
X99793750Y-146350000D03*
D15*
X212150000Y-52600000D03*
X212150000Y-51100000D03*
X206950000Y-52600000D03*
D16*
X206950000Y-51100000D03*
D17*
X326175000Y-80000000D03*
X326175000Y-83400000D03*
D15*
X145475000Y-90700000D03*
X145475000Y-89200000D03*
X140275000Y-90700000D03*
D16*
X140275000Y-89200000D03*
D15*
X116900000Y-71650000D03*
X116900000Y-70150000D03*
X111700000Y-71650000D03*
D16*
X111700000Y-70150000D03*
D15*
X128806250Y-147850000D03*
X128806250Y-146350000D03*
X123606250Y-147850000D03*
D16*
X123606250Y-146350000D03*
D17*
X202350000Y-140550000D03*
X202350000Y-137150000D03*
X97575000Y-99050000D03*
X97575000Y-102450000D03*
X335700000Y-140550000D03*
X335700000Y-137150000D03*
D15*
X145475000Y-109750000D03*
X145475000Y-108250000D03*
X140275000Y-109750000D03*
D16*
X140275000Y-108250000D03*
M02*
