%TF.GenerationSoftware,KiCad,Pcbnew,9.0.4*%
%TF.CreationDate,2025-10-16T13:28:43+08:00*%
%TF.ProjectId,Custom Mechanical Keyboard,43757374-6f6d-4204-9d65-6368616e6963,rev?*%
%TF.SameCoordinates,Original*%
%TF.FileFunction,Paste,Bot*%
%TF.FilePolarity,Positive*%
%FSLAX46Y46*%
G04 Gerber Fmt 4.6, Leading zero omitted, Abs format (unit mm)*
G04 Created by KiCad (PCBNEW 9.0.4) date 2025-10-16 13:28:43*
%MOMM*%
%LPD*%
G01*
G04 APERTURE LIST*
G04 Aperture macros list*
%AMRoundRect*
0 Rectangle with rounded corners*
0 $1 Rounding radius*
0 $2 $3 $4 $5 $6 $7 $8 $9 X,Y pos of 4 corners*
0 Add a 4 corners polygon primitive as box body*
4,1,4,$2,$3,$4,$5,$6,$7,$8,$9,$2,$3,0*
0 Add four circle primitives for the rounded corners*
1,1,$1+$1,$2,$3*
1,1,$1+$1,$4,$5*
1,1,$1+$1,$6,$7*
1,1,$1+$1,$8,$9*
0 Add four rect primitives between the rounded corners*
20,1,$1+$1,$2,$3,$4,$5,0*
20,1,$1+$1,$4,$5,$6,$7,0*
20,1,$1+$1,$6,$7,$8,$9,0*
20,1,$1+$1,$8,$9,$2,$3,0*%
%AMOutline5P*
0 Free polygon, 5 corners , with rotation*
0 The origin of the aperture is its center*
0 number of corners: always 5*
0 $1 to $10 corner X, Y*
0 $11 Rotation angle, in degrees counterclockwise*
0 create outline with 5 corners*
4,1,5,$1,$2,$3,$4,$5,$6,$7,$8,$9,$10,$1,$2,$11*%
%AMOutline6P*
0 Free polygon, 6 corners , with rotation*
0 The origin of the aperture is its center*
0 number of corners: always 6*
0 $1 to $12 corner X, Y*
0 $13 Rotation angle, in degrees counterclockwise*
0 create outline with 6 corners*
4,1,6,$1,$2,$3,$4,$5,$6,$7,$8,$9,$10,$11,$12,$1,$2,$13*%
%AMOutline7P*
0 Free polygon, 7 corners , with rotation*
0 The origin of the aperture is its center*
0 number of corners: always 7*
0 $1 to $14 corner X, Y*
0 $15 Rotation angle, in degrees counterclockwise*
0 create outline with 7 corners*
4,1,7,$1,$2,$3,$4,$5,$6,$7,$8,$9,$10,$11,$12,$13,$14,$1,$2,$15*%
%AMOutline8P*
0 Free polygon, 8 corners , with rotation*
0 The origin of the aperture is its center*
0 number of corners: always 8*
0 $1 to $16 corner X, Y*
0 $17 Rotation angle, in degrees counterclockwise*
0 create outline with 8 corners*
4,1,8,$1,$2,$3,$4,$5,$6,$7,$8,$9,$10,$11,$12,$13,$14,$15,$16,$1,$2,$17*%
G04 Aperture macros list end*
%ADD10RoundRect,0.250000X-0.625000X0.400000X-0.625000X-0.400000X0.625000X-0.400000X0.625000X0.400000X0*%
%ADD11R,1.500000X0.820000*%
%ADD12Outline5P,-0.750000X0.000000X-0.340000X0.410000X0.750000X0.410000X0.750000X-0.410000X-0.750000X-0.410000X0.000000*%
%ADD13R,1.400000X1.200000*%
%ADD14RoundRect,0.250000X0.650000X-0.325000X0.650000X0.325000X-0.650000X0.325000X-0.650000X-0.325000X0*%
%ADD15RoundRect,0.150000X0.512500X0.150000X-0.512500X0.150000X-0.512500X-0.150000X0.512500X-0.150000X0*%
%ADD16RoundRect,0.250000X0.625000X-0.400000X0.625000X0.400000X-0.625000X0.400000X-0.625000X-0.400000X0*%
G04 APERTURE END LIST*
D10*
%TO.C,R2*%
X65500000Y3050000D03*
X65500000Y-50000D03*
%TD*%
%TO.C,R1*%
X49500000Y3050000D03*
X49500000Y-50000D03*
%TD*%
D11*
%TO.C,LED25*%
X231200000Y-71650000D03*
X231200000Y-70150000D03*
X226000000Y-71650000D03*
D12*
X226000000Y-70150000D03*
%TD*%
D13*
%TO.C,D57*%
X269025000Y-121500000D03*
X269025000Y-118100000D03*
%TD*%
D11*
%TO.C,LED9*%
X231200000Y-52600000D03*
X231200000Y-51100000D03*
X226000000Y-52600000D03*
D12*
X226000000Y-51100000D03*
%TD*%
D13*
%TO.C,D55*%
X230925000Y-121500000D03*
X230925000Y-118100000D03*
%TD*%
%TO.C,D19*%
X107100000Y-83400000D03*
X107100000Y-80000000D03*
%TD*%
%TO.C,D78*%
X183300000Y-156200000D03*
X183300000Y-159600000D03*
%TD*%
D11*
%TO.C,LED30*%
X335975000Y-71650000D03*
X335975000Y-70150000D03*
X330775000Y-71650000D03*
D12*
X330775000Y-70150000D03*
%TD*%
D14*
%TO.C,C8*%
X99200000Y-110325000D03*
X99200000Y-107375000D03*
%TD*%
D11*
%TO.C,LED24*%
X212150000Y-71650000D03*
X212150000Y-70150000D03*
X206950000Y-71650000D03*
D12*
X206950000Y-70150000D03*
%TD*%
D13*
%TO.C,D6*%
X164250000Y-60950000D03*
X164250000Y-64350000D03*
%TD*%
D11*
%TO.C,LED47*%
X83562500Y-109750000D03*
X83562500Y-108250000D03*
X78362500Y-109750000D03*
D12*
X78362500Y-108250000D03*
%TD*%
D11*
%TO.C,LED34*%
X126425000Y-90700000D03*
X126425000Y-89200000D03*
X121225000Y-90700000D03*
D12*
X121225000Y-89200000D03*
%TD*%
D13*
%TO.C,D10*%
X240450000Y-60950000D03*
X240450000Y-64350000D03*
%TD*%
%TO.C,D71*%
X278550000Y-140550000D03*
X278550000Y-137150000D03*
%TD*%
%TO.C,D4*%
X126150000Y-60950000D03*
X126150000Y-64350000D03*
%TD*%
%TO.C,D42*%
X269025000Y-102450000D03*
X269025000Y-99050000D03*
%TD*%
D14*
%TO.C,C11*%
X248850000Y-148000000D03*
X248850000Y-145050000D03*
%TD*%
D11*
%TO.C,LED6*%
X174050000Y-52600000D03*
X174050000Y-51100000D03*
X168850000Y-52600000D03*
D12*
X168850000Y-51100000D03*
%TD*%
D13*
%TO.C,D63*%
X126150000Y-140550000D03*
X126150000Y-137150000D03*
%TD*%
%TO.C,D32*%
X73762500Y-102450000D03*
X73762500Y-99050000D03*
%TD*%
D11*
%TO.C,LED31*%
X364550000Y-71650000D03*
X364550000Y-70150000D03*
X359350000Y-71650000D03*
D12*
X359350000Y-70150000D03*
%TD*%
D11*
%TO.C,LED69*%
X250250000Y-128800000D03*
X250250000Y-127300000D03*
X245050000Y-128800000D03*
D12*
X245050000Y-127300000D03*
%TD*%
D11*
%TO.C,LED51*%
X164525000Y-109750000D03*
X164525000Y-108250000D03*
X159325000Y-109750000D03*
D12*
X159325000Y-108250000D03*
%TD*%
D14*
%TO.C,C9*%
X99250000Y-91425000D03*
X99250000Y-88475000D03*
%TD*%
D13*
%TO.C,D1*%
X69000000Y-64350000D03*
X69000000Y-60950000D03*
%TD*%
D11*
%TO.C,LED42*%
X278825000Y-90700000D03*
X278825000Y-89200000D03*
X273625000Y-90700000D03*
D12*
X273625000Y-89200000D03*
%TD*%
D13*
%TO.C,D3*%
X107100000Y-64350000D03*
X107100000Y-60950000D03*
%TD*%
%TO.C,D31*%
X354750000Y-80000000D03*
X354750000Y-83400000D03*
%TD*%
D11*
%TO.C,LED13*%
X307400000Y-52600000D03*
X307400000Y-51100000D03*
X302200000Y-52600000D03*
D12*
X302200000Y-51100000D03*
%TD*%
D13*
%TO.C,D75*%
X71381250Y-159600000D03*
X71381250Y-156200000D03*
%TD*%
%TO.C,D40*%
X230925000Y-102450000D03*
X230925000Y-99050000D03*
%TD*%
%TO.C,D64*%
X145200000Y-137150000D03*
X145200000Y-140550000D03*
%TD*%
D11*
%TO.C,LED64*%
X155000000Y-128800000D03*
X155000000Y-127300000D03*
X149800000Y-128800000D03*
D12*
X149800000Y-127300000D03*
%TD*%
D11*
%TO.C,LED61*%
X88325000Y-128800000D03*
X88325000Y-127300000D03*
X83125000Y-128800000D03*
D12*
X83125000Y-127300000D03*
%TD*%
D13*
%TO.C,D83*%
X335700000Y-159600000D03*
X335700000Y-156200000D03*
%TD*%
%TO.C,D84*%
X354750000Y-156200000D03*
X354750000Y-159600000D03*
%TD*%
%TO.C,D26*%
X240450000Y-80000000D03*
X240450000Y-83400000D03*
%TD*%
D11*
%TO.C,LED46*%
X364550000Y-90700000D03*
X364550000Y-89200000D03*
X359350000Y-90700000D03*
D12*
X359350000Y-89200000D03*
%TD*%
D14*
%TO.C,C10*%
X108700000Y-129525000D03*
X108700000Y-126575000D03*
%TD*%
D13*
%TO.C,D7*%
X183300000Y-64350000D03*
X183300000Y-60950000D03*
%TD*%
D14*
%TO.C,C6*%
X223100000Y-129525000D03*
X223100000Y-126575000D03*
%TD*%
D11*
%TO.C,LED28*%
X288350000Y-71650000D03*
X288350000Y-70150000D03*
X283150000Y-71650000D03*
D12*
X283150000Y-70150000D03*
%TD*%
D13*
%TO.C,D66*%
X183300000Y-137150000D03*
X183300000Y-140550000D03*
%TD*%
%TO.C,D74*%
X354750000Y-137150000D03*
X354750000Y-140550000D03*
%TD*%
D11*
%TO.C,LED40*%
X240725000Y-90700000D03*
X240725000Y-89200000D03*
X235525000Y-90700000D03*
D12*
X235525000Y-89200000D03*
%TD*%
D15*
%TO.C,U3*%
X52637500Y-86687500D03*
X52637500Y-87637500D03*
X52637500Y-88587500D03*
X50362500Y-88587500D03*
X50362500Y-87637500D03*
X50362500Y-86687500D03*
%TD*%
D13*
%TO.C,D80*%
X271406250Y-159600000D03*
X271406250Y-156200000D03*
%TD*%
D11*
%TO.C,LED60*%
X364550000Y-109750000D03*
X364550000Y-108250000D03*
X359350000Y-109750000D03*
D12*
X359350000Y-108250000D03*
%TD*%
D14*
%TO.C,C12*%
X96750000Y-148525000D03*
X96750000Y-145575000D03*
%TD*%
%TO.C,C4*%
X89800000Y-72375000D03*
X89800000Y-69425000D03*
%TD*%
D11*
%TO.C,LED37*%
X183575000Y-90700000D03*
X183575000Y-89200000D03*
X178375000Y-90700000D03*
D12*
X178375000Y-89200000D03*
%TD*%
D11*
%TO.C,LED78*%
X193100000Y-147850000D03*
X193100000Y-146350000D03*
X187900000Y-147850000D03*
D12*
X187900000Y-146350000D03*
%TD*%
D13*
%TO.C,D38*%
X192825000Y-102450000D03*
X192825000Y-99050000D03*
%TD*%
D11*
%TO.C,LED65*%
X174050000Y-128800000D03*
X174050000Y-127300000D03*
X168850000Y-128800000D03*
D12*
X168850000Y-127300000D03*
%TD*%
D11*
%TO.C,LED11*%
X269300000Y-52600000D03*
X269300000Y-51100000D03*
X264100000Y-52600000D03*
D12*
X264100000Y-51100000D03*
%TD*%
D11*
%TO.C,LED43*%
X297875000Y-90700000D03*
X297875000Y-89200000D03*
X292675000Y-90700000D03*
D12*
X292675000Y-89200000D03*
%TD*%
D13*
%TO.C,D54*%
X211875000Y-118100000D03*
X211875000Y-121500000D03*
%TD*%
%TO.C,D14*%
X316650000Y-60950000D03*
X316650000Y-64350000D03*
%TD*%
%TO.C,D72*%
X307125000Y-140550000D03*
X307125000Y-137150000D03*
%TD*%
D11*
%TO.C,LED2*%
X97850000Y-52600000D03*
X97850000Y-51100000D03*
X92650000Y-52600000D03*
D12*
X92650000Y-51100000D03*
%TD*%
D11*
%TO.C,LED39*%
X221675000Y-90700000D03*
X221675000Y-89200000D03*
X216475000Y-90700000D03*
D12*
X216475000Y-89200000D03*
%TD*%
D13*
%TO.C,D62*%
X107100000Y-137150000D03*
X107100000Y-140550000D03*
%TD*%
%TO.C,D41*%
X249975000Y-99050000D03*
X249975000Y-102450000D03*
%TD*%
%TO.C,D13*%
X297600000Y-64350000D03*
X297600000Y-60950000D03*
%TD*%
D11*
%TO.C,LED5*%
X155000000Y-52600000D03*
X155000000Y-51100000D03*
X149800000Y-52600000D03*
D12*
X149800000Y-51100000D03*
%TD*%
D11*
%TO.C,LED49*%
X126425000Y-109750000D03*
X126425000Y-108250000D03*
X121225000Y-109750000D03*
D12*
X121225000Y-108250000D03*
%TD*%
D13*
%TO.C,D17*%
X69000000Y-83400000D03*
X69000000Y-80000000D03*
%TD*%
D11*
%TO.C,LED12*%
X288350000Y-52600000D03*
X288350000Y-51100000D03*
X283150000Y-52600000D03*
D12*
X283150000Y-51100000D03*
%TD*%
D11*
%TO.C,LED84*%
X364550000Y-147850000D03*
X364550000Y-146350000D03*
X359350000Y-147850000D03*
D12*
X359350000Y-146350000D03*
%TD*%
D13*
%TO.C,D52*%
X173775000Y-118100000D03*
X173775000Y-121500000D03*
%TD*%
%TO.C,D11*%
X259500000Y-64350000D03*
X259500000Y-60950000D03*
%TD*%
D11*
%TO.C,LED3*%
X116900000Y-52600000D03*
X116900000Y-51100000D03*
X111700000Y-52600000D03*
D12*
X111700000Y-51100000D03*
%TD*%
D13*
%TO.C,D61*%
X78525000Y-140550000D03*
X78525000Y-137150000D03*
%TD*%
D11*
%TO.C,LED56*%
X259775000Y-109750000D03*
X259775000Y-108250000D03*
X254575000Y-109750000D03*
D12*
X254575000Y-108250000D03*
%TD*%
D11*
%TO.C,LED44*%
X316925000Y-90700000D03*
X316925000Y-89200000D03*
X311725000Y-90700000D03*
D12*
X311725000Y-89200000D03*
%TD*%
D11*
%TO.C,LED4*%
X135950000Y-52600000D03*
X135950000Y-51100000D03*
X130750000Y-52600000D03*
D12*
X130750000Y-51100000D03*
%TD*%
D11*
%TO.C,LED67*%
X212150000Y-128800000D03*
X212150000Y-127300000D03*
X206950000Y-128800000D03*
D12*
X206950000Y-127300000D03*
%TD*%
D13*
%TO.C,D36*%
X154725000Y-102450000D03*
X154725000Y-99050000D03*
%TD*%
D11*
%TO.C,LED1*%
X78800000Y-52600000D03*
X78800000Y-51100000D03*
X73600000Y-52600000D03*
D12*
X73600000Y-51100000D03*
%TD*%
D13*
%TO.C,D49*%
X116625000Y-121500000D03*
X116625000Y-118100000D03*
%TD*%
D11*
%TO.C,LED62*%
X116900000Y-128800000D03*
X116900000Y-127300000D03*
X111700000Y-128800000D03*
D12*
X111700000Y-127300000D03*
%TD*%
D11*
%TO.C,LED57*%
X278825000Y-109750000D03*
X278825000Y-108250000D03*
X273625000Y-109750000D03*
D12*
X273625000Y-108250000D03*
%TD*%
D11*
%TO.C,LED22*%
X174050000Y-71650000D03*
X174050000Y-70150000D03*
X168850000Y-71650000D03*
D12*
X168850000Y-70150000D03*
%TD*%
D11*
%TO.C,LED48*%
X107375000Y-109750000D03*
X107375000Y-108250000D03*
X102175000Y-109750000D03*
D12*
X102175000Y-108250000D03*
%TD*%
D11*
%TO.C,LED81*%
X305018750Y-147850000D03*
X305018750Y-146350000D03*
X299818750Y-147850000D03*
D12*
X299818750Y-146350000D03*
%TD*%
D11*
%TO.C,LED54*%
X221675000Y-109750000D03*
X221675000Y-108250000D03*
X216475000Y-109750000D03*
D12*
X216475000Y-108250000D03*
%TD*%
D11*
%TO.C,LED79*%
X257393750Y-147850000D03*
X257393750Y-146350000D03*
X252193750Y-147850000D03*
D12*
X252193750Y-146350000D03*
%TD*%
D13*
%TO.C,D45*%
X330937500Y-102450000D03*
X330937500Y-99050000D03*
%TD*%
%TO.C,D47*%
X73762500Y-121500000D03*
X73762500Y-118100000D03*
%TD*%
%TO.C,D8*%
X202350000Y-60950000D03*
X202350000Y-64350000D03*
%TD*%
D11*
%TO.C,LED72*%
X316925000Y-128800000D03*
X316925000Y-127300000D03*
X311725000Y-128800000D03*
D12*
X311725000Y-127300000D03*
%TD*%
D13*
%TO.C,D21*%
X145200000Y-83400000D03*
X145200000Y-80000000D03*
%TD*%
%TO.C,D81*%
X295218750Y-159600000D03*
X295218750Y-156200000D03*
%TD*%
%TO.C,D50*%
X135675000Y-118100000D03*
X135675000Y-121500000D03*
%TD*%
D11*
%TO.C,LED66*%
X193100000Y-128800000D03*
X193100000Y-127300000D03*
X187900000Y-128800000D03*
D12*
X187900000Y-127300000D03*
%TD*%
D13*
%TO.C,D48*%
X97575000Y-118100000D03*
X97575000Y-121500000D03*
%TD*%
D14*
%TO.C,C3*%
X203950000Y-72175000D03*
X203950000Y-69225000D03*
%TD*%
D11*
%TO.C,LED55*%
X240725000Y-109750000D03*
X240725000Y-108250000D03*
X235525000Y-109750000D03*
D12*
X235525000Y-108250000D03*
%TD*%
D11*
%TO.C,LED75*%
X81181250Y-147850000D03*
X81181250Y-146350000D03*
X75981250Y-147850000D03*
D12*
X75981250Y-146350000D03*
%TD*%
D13*
%TO.C,D23*%
X183300000Y-83400000D03*
X183300000Y-80000000D03*
%TD*%
%TO.C,D27*%
X259500000Y-83400000D03*
X259500000Y-80000000D03*
%TD*%
D11*
%TO.C,LED14*%
X326450000Y-52600000D03*
X326450000Y-51100000D03*
X321250000Y-52600000D03*
D12*
X321250000Y-51100000D03*
%TD*%
D13*
%TO.C,D39*%
X211875000Y-99050000D03*
X211875000Y-102450000D03*
%TD*%
D14*
%TO.C,C1*%
X204000000Y-53325000D03*
X204000000Y-50375000D03*
%TD*%
D13*
%TO.C,D29*%
X297600000Y-83400000D03*
X297600000Y-80000000D03*
%TD*%
%TO.C,D70*%
X259500000Y-137150000D03*
X259500000Y-140550000D03*
%TD*%
%TO.C,D34*%
X116625000Y-102450000D03*
X116625000Y-99050000D03*
%TD*%
%TO.C,D25*%
X221400000Y-83400000D03*
X221400000Y-80000000D03*
%TD*%
D11*
%TO.C,LED27*%
X269300000Y-71650000D03*
X269300000Y-70150000D03*
X264100000Y-71650000D03*
D12*
X264100000Y-70150000D03*
%TD*%
D14*
%TO.C,C2*%
X89750000Y-53325000D03*
X89750000Y-50375000D03*
%TD*%
D16*
%TO.C,R4*%
X58500000Y-89100000D03*
X58500000Y-86000000D03*
%TD*%
D13*
%TO.C,D82*%
X316650000Y-156200000D03*
X316650000Y-159600000D03*
%TD*%
D11*
%TO.C,LED80*%
X281206250Y-147850000D03*
X281206250Y-146350000D03*
X276006250Y-147850000D03*
D12*
X276006250Y-146350000D03*
%TD*%
D13*
%TO.C,D43*%
X288075000Y-99050000D03*
X288075000Y-102450000D03*
%TD*%
D11*
%TO.C,LED16*%
X364550000Y-52600000D03*
X364550000Y-51100000D03*
X359350000Y-52600000D03*
D12*
X359350000Y-51100000D03*
%TD*%
D13*
%TO.C,D9*%
X221400000Y-64350000D03*
X221400000Y-60950000D03*
%TD*%
%TO.C,D37*%
X173775000Y-99050000D03*
X173775000Y-102450000D03*
%TD*%
D11*
%TO.C,LED63*%
X135950000Y-128800000D03*
X135950000Y-127300000D03*
X130750000Y-128800000D03*
D12*
X130750000Y-127300000D03*
%TD*%
D11*
%TO.C,LED74*%
X364550000Y-128800000D03*
X364550000Y-127300000D03*
X359350000Y-128800000D03*
D12*
X359350000Y-127300000D03*
%TD*%
D11*
%TO.C,LED10*%
X250250000Y-52600000D03*
X250250000Y-51100000D03*
X245050000Y-52600000D03*
D12*
X245050000Y-51100000D03*
%TD*%
D13*
%TO.C,D12*%
X278550000Y-60950000D03*
X278550000Y-64350000D03*
%TD*%
%TO.C,D18*%
X88050000Y-80000000D03*
X88050000Y-83400000D03*
%TD*%
%TO.C,D24*%
X202350000Y-80000000D03*
X202350000Y-83400000D03*
%TD*%
%TO.C,D58*%
X288075000Y-118100000D03*
X288075000Y-121500000D03*
%TD*%
%TO.C,D59*%
X321412500Y-118100000D03*
X321412500Y-121500000D03*
%TD*%
%TO.C,D15*%
X335700000Y-64350000D03*
X335700000Y-60950000D03*
%TD*%
%TO.C,D65*%
X164250000Y-140550000D03*
X164250000Y-137150000D03*
%TD*%
%TO.C,D22*%
X164250000Y-80000000D03*
X164250000Y-83400000D03*
%TD*%
D11*
%TO.C,LED70*%
X269300000Y-128800000D03*
X269300000Y-127300000D03*
X264100000Y-128800000D03*
D12*
X264100000Y-127300000D03*
%TD*%
D13*
%TO.C,D53*%
X192825000Y-121500000D03*
X192825000Y-118100000D03*
%TD*%
%TO.C,D56*%
X249975000Y-118100000D03*
X249975000Y-121500000D03*
%TD*%
%TO.C,D35*%
X135675000Y-99050000D03*
X135675000Y-102450000D03*
%TD*%
D11*
%TO.C,LED52*%
X183575000Y-109750000D03*
X183575000Y-108250000D03*
X178375000Y-109750000D03*
D12*
X178375000Y-108250000D03*
%TD*%
D11*
%TO.C,LED45*%
X340737500Y-90700000D03*
X340737500Y-89200000D03*
X335537500Y-90700000D03*
D12*
X335537500Y-89200000D03*
%TD*%
D13*
%TO.C,D51*%
X154725000Y-121500000D03*
X154725000Y-118100000D03*
%TD*%
D11*
%TO.C,LED15*%
X345500000Y-52600000D03*
X345500000Y-51100000D03*
X340300000Y-52600000D03*
D12*
X340300000Y-51100000D03*
%TD*%
D13*
%TO.C,D60*%
X354750000Y-118100000D03*
X354750000Y-121500000D03*
%TD*%
D11*
%TO.C,LED17*%
X78800000Y-71650000D03*
X78800000Y-70150000D03*
X73600000Y-71650000D03*
D12*
X73600000Y-70150000D03*
%TD*%
D11*
%TO.C,LED59*%
X331212500Y-109750000D03*
X331212500Y-108250000D03*
X326012500Y-109750000D03*
D12*
X326012500Y-108250000D03*
%TD*%
D13*
%TO.C,D77*%
X119006250Y-159600000D03*
X119006250Y-156200000D03*
%TD*%
%TO.C,D16*%
X354750000Y-60950000D03*
X354750000Y-64350000D03*
%TD*%
%TO.C,D79*%
X247593750Y-156200000D03*
X247593750Y-159600000D03*
%TD*%
D11*
%TO.C,LED83*%
X345500000Y-147850000D03*
X345500000Y-146350000D03*
X340300000Y-147850000D03*
D12*
X340300000Y-146350000D03*
%TD*%
D11*
%TO.C,LED29*%
X307400000Y-71650000D03*
X307400000Y-70150000D03*
X302200000Y-71650000D03*
D12*
X302200000Y-70150000D03*
%TD*%
D11*
%TO.C,LED33*%
X107375000Y-90700000D03*
X107375000Y-89200000D03*
X102175000Y-90700000D03*
D12*
X102175000Y-89200000D03*
%TD*%
D11*
%TO.C,LED7*%
X193100000Y-52600000D03*
X193100000Y-51100000D03*
X187900000Y-52600000D03*
D12*
X187900000Y-51100000D03*
%TD*%
D13*
%TO.C,D44*%
X307125000Y-102450000D03*
X307125000Y-99050000D03*
%TD*%
D14*
%TO.C,C5*%
X213450000Y-91425000D03*
X213450000Y-88475000D03*
%TD*%
D11*
%TO.C,LED23*%
X193100000Y-71650000D03*
X193100000Y-70150000D03*
X187900000Y-71650000D03*
D12*
X187900000Y-70150000D03*
%TD*%
D11*
%TO.C,LED21*%
X155000000Y-71650000D03*
X155000000Y-70150000D03*
X149800000Y-71650000D03*
D12*
X149800000Y-70150000D03*
%TD*%
D11*
%TO.C,LED26*%
X250250000Y-71650000D03*
X250250000Y-70150000D03*
X245050000Y-71650000D03*
D12*
X245050000Y-70150000D03*
%TD*%
D11*
%TO.C,LED38*%
X202625000Y-90700000D03*
X202625000Y-89200000D03*
X197425000Y-90700000D03*
D12*
X197425000Y-89200000D03*
%TD*%
D11*
%TO.C,LED73*%
X345500000Y-128800000D03*
X345500000Y-127300000D03*
X340300000Y-128800000D03*
D12*
X340300000Y-127300000D03*
%TD*%
D11*
%TO.C,LED68*%
X231200000Y-128800000D03*
X231200000Y-127300000D03*
X226000000Y-128800000D03*
D12*
X226000000Y-127300000D03*
%TD*%
D13*
%TO.C,D46*%
X354750000Y-99050000D03*
X354750000Y-102450000D03*
%TD*%
D11*
%TO.C,LED53*%
X202625000Y-109750000D03*
X202625000Y-108250000D03*
X197425000Y-109750000D03*
D12*
X197425000Y-108250000D03*
%TD*%
D11*
%TO.C,LED36*%
X164525000Y-90700000D03*
X164525000Y-89200000D03*
X159325000Y-90700000D03*
D12*
X159325000Y-89200000D03*
%TD*%
D11*
%TO.C,LED82*%
X326450000Y-147850000D03*
X326450000Y-146350000D03*
X321250000Y-147850000D03*
D12*
X321250000Y-146350000D03*
%TD*%
D13*
%TO.C,D28*%
X278550000Y-80000000D03*
X278550000Y-83400000D03*
%TD*%
%TO.C,D5*%
X145200000Y-64350000D03*
X145200000Y-60950000D03*
%TD*%
D11*
%TO.C,LED41*%
X259775000Y-90700000D03*
X259775000Y-89200000D03*
X254575000Y-90700000D03*
D12*
X254575000Y-89200000D03*
%TD*%
D10*
%TO.C,R3*%
X56000000Y-86000000D03*
X56000000Y-89100000D03*
%TD*%
D11*
%TO.C,LED32*%
X83562500Y-90700000D03*
X83562500Y-89200000D03*
X78362500Y-90700000D03*
D12*
X78362500Y-89200000D03*
%TD*%
D13*
%TO.C,D20*%
X126150000Y-80000000D03*
X126150000Y-83400000D03*
%TD*%
%TO.C,D2*%
X88050000Y-60950000D03*
X88050000Y-64350000D03*
%TD*%
%TO.C,D76*%
X95193750Y-156200000D03*
X95193750Y-159600000D03*
%TD*%
D11*
%TO.C,LED71*%
X288350000Y-128800000D03*
X288350000Y-127300000D03*
X283150000Y-128800000D03*
D12*
X283150000Y-127300000D03*
%TD*%
D13*
%TO.C,D68*%
X221400000Y-137150000D03*
X221400000Y-140550000D03*
%TD*%
D11*
%TO.C,LED18*%
X97850000Y-71650000D03*
X97850000Y-70150000D03*
X92650000Y-71650000D03*
D12*
X92650000Y-70150000D03*
%TD*%
D11*
%TO.C,LED58*%
X297875000Y-109750000D03*
X297875000Y-108250000D03*
X292675000Y-109750000D03*
D12*
X292675000Y-108250000D03*
%TD*%
D13*
%TO.C,D69*%
X240450000Y-140550000D03*
X240450000Y-137150000D03*
%TD*%
D14*
%TO.C,C7*%
X213450000Y-110475000D03*
X213450000Y-107525000D03*
%TD*%
D11*
%TO.C,LED20*%
X135950000Y-71650000D03*
X135950000Y-70150000D03*
X130750000Y-71650000D03*
D12*
X130750000Y-70150000D03*
%TD*%
D11*
%TO.C,LED76*%
X104993750Y-147850000D03*
X104993750Y-146350000D03*
X99793750Y-147850000D03*
D12*
X99793750Y-146350000D03*
%TD*%
D11*
%TO.C,LED8*%
X212150000Y-52600000D03*
X212150000Y-51100000D03*
X206950000Y-52600000D03*
D12*
X206950000Y-51100000D03*
%TD*%
D13*
%TO.C,ROT_D1*%
X59650000Y-56450000D03*
X59650000Y-53050000D03*
%TD*%
%TO.C,D30*%
X326175000Y-80000000D03*
X326175000Y-83400000D03*
%TD*%
D11*
%TO.C,LED35*%
X145475000Y-90700000D03*
X145475000Y-89200000D03*
X140275000Y-90700000D03*
D12*
X140275000Y-89200000D03*
%TD*%
D11*
%TO.C,LED19*%
X116900000Y-71650000D03*
X116900000Y-70150000D03*
X111700000Y-71650000D03*
D12*
X111700000Y-70150000D03*
%TD*%
D11*
%TO.C,LED77*%
X128806250Y-147850000D03*
X128806250Y-146350000D03*
X123606250Y-147850000D03*
D12*
X123606250Y-146350000D03*
%TD*%
D13*
%TO.C,D67*%
X202350000Y-140550000D03*
X202350000Y-137150000D03*
%TD*%
%TO.C,D33*%
X97575000Y-99050000D03*
X97575000Y-102450000D03*
%TD*%
%TO.C,D73*%
X335700000Y-140550000D03*
X335700000Y-137150000D03*
%TD*%
D11*
%TO.C,LED50*%
X145475000Y-109750000D03*
X145475000Y-108250000D03*
X140275000Y-109750000D03*
D12*
X140275000Y-108250000D03*
%TD*%
M02*
