%TF.GenerationSoftware,KiCad,Pcbnew,9.0.4*%
%TF.CreationDate,2025-10-16T13:28:43+08:00*%
%TF.ProjectId,Custom Mechanical Keyboard,43757374-6f6d-4204-9d65-6368616e6963,rev?*%
%TF.SameCoordinates,Original*%
%TF.FileFunction,Soldermask,Top*%
%TF.FilePolarity,Negative*%
%FSLAX46Y46*%
G04 Gerber Fmt 4.6, Leading zero omitted, Abs format (unit mm)*
G04 Created by KiCad (PCBNEW 9.0.4) date 2025-10-16 13:28:43*
%MOMM*%
%LPD*%
G01*
G04 APERTURE LIST*
G04 Aperture macros list*
%AMRoundRect*
0 Rectangle with rounded corners*
0 $1 Rounding radius*
0 $2 $3 $4 $5 $6 $7 $8 $9 X,Y pos of 4 corners*
0 Add a 4 corners polygon primitive as box body*
4,1,4,$2,$3,$4,$5,$6,$7,$8,$9,$2,$3,0*
0 Add four circle primitives for the rounded corners*
1,1,$1+$1,$2,$3*
1,1,$1+$1,$4,$5*
1,1,$1+$1,$6,$7*
1,1,$1+$1,$8,$9*
0 Add four rect primitives between the rounded corners*
20,1,$1+$1,$2,$3,$4,$5,0*
20,1,$1+$1,$4,$5,$6,$7,0*
20,1,$1+$1,$6,$7,$8,$9,0*
20,1,$1+$1,$8,$9,$2,$3,0*%
%AMOutline5P*
0 Free polygon, 5 corners , with rotation*
0 The origin of the aperture is its center*
0 number of corners: always 5*
0 $1 to $10 corner X, Y*
0 $11 Rotation angle, in degrees counterclockwise*
0 create outline with 5 corners*
4,1,5,$1,$2,$3,$4,$5,$6,$7,$8,$9,$10,$1,$2,$11*%
%AMOutline6P*
0 Free polygon, 6 corners , with rotation*
0 The origin of the aperture is its center*
0 number of corners: always 6*
0 $1 to $12 corner X, Y*
0 $13 Rotation angle, in degrees counterclockwise*
0 create outline with 6 corners*
4,1,6,$1,$2,$3,$4,$5,$6,$7,$8,$9,$10,$11,$12,$1,$2,$13*%
%AMOutline7P*
0 Free polygon, 7 corners , with rotation*
0 The origin of the aperture is its center*
0 number of corners: always 7*
0 $1 to $14 corner X, Y*
0 $15 Rotation angle, in degrees counterclockwise*
0 create outline with 7 corners*
4,1,7,$1,$2,$3,$4,$5,$6,$7,$8,$9,$10,$11,$12,$13,$14,$1,$2,$15*%
%AMOutline8P*
0 Free polygon, 8 corners , with rotation*
0 The origin of the aperture is its center*
0 number of corners: always 8*
0 $1 to $16 corner X, Y*
0 $17 Rotation angle, in degrees counterclockwise*
0 create outline with 8 corners*
4,1,8,$1,$2,$3,$4,$5,$6,$7,$8,$9,$10,$11,$12,$13,$14,$15,$16,$1,$2,$17*%
G04 Aperture macros list end*
%ADD10RoundRect,0.250000X0.350000X0.625000X-0.350000X0.625000X-0.350000X-0.625000X0.350000X-0.625000X0*%
%ADD11O,1.200000X1.750000*%
%ADD12C,1.000000*%
%ADD13C,0.650000*%
%ADD14R,0.540000X1.100000*%
%ADD15R,0.300000X1.100000*%
%ADD16O,1.200000X2.250000*%
%ADD17C,3.000000*%
%ADD18C,5.000000*%
%ADD19C,1.400000*%
%ADD20RoundRect,0.250000X-0.450000X0.450000X-0.450000X-0.450000X0.450000X-0.450000X0.450000X0.450000X0*%
%ADD21R,2.000000X2.000000*%
%ADD22C,2.000000*%
%ADD23R,2.500000X3.000000*%
%ADD24C,3.500000*%
%ADD25RoundRect,0.150000X0.150000X-0.512500X0.150000X0.512500X-0.150000X0.512500X-0.150000X-0.512500X0*%
%ADD26RoundRect,0.250000X-0.350000X-0.625000X0.350000X-0.625000X0.350000X0.625000X-0.350000X0.625000X0*%
%ADD27RoundRect,0.250000X0.625000X-0.350000X0.625000X0.350000X-0.625000X0.350000X-0.625000X-0.350000X0*%
%ADD28O,1.750000X1.200000*%
%ADD29R,0.820000X1.500000*%
%ADD30Outline5P,-0.750000X0.410000X0.750000X0.410000X0.750000X0.000000X0.340000X-0.410000X-0.750000X-0.410000X90.000000*%
%ADD31R,1.700000X1.700000*%
%ADD32C,1.700000*%
%ADD33R,1.500000X1.500000*%
G04 APERTURE END LIST*
D10*
%TO.C,J2*%
X60500000Y-3500000D03*
D11*
X58500000Y-3500000D03*
X56500000Y-3500000D03*
X54500000Y-3500000D03*
%TD*%
D12*
%TO.C,SOI8_SLCT1*%
X68600000Y-134600000D03*
%TD*%
D13*
%TO.C,J1*%
X61250000Y3070000D03*
X53750000Y3070000D03*
D14*
X60700000Y1870000D03*
X59950000Y1870000D03*
D15*
X58750000Y1870000D03*
X57750000Y1870000D03*
X57250000Y1870000D03*
X56250000Y1870000D03*
D14*
X55050000Y1870000D03*
X54300000Y1870000D03*
X54300000Y1870000D03*
X55050000Y1870000D03*
D15*
X55750000Y1870000D03*
X56750000Y1870000D03*
X58250000Y1870000D03*
X59250000Y1870000D03*
D14*
X59950000Y1870000D03*
X60700000Y1870000D03*
D16*
X63095000Y7750000D03*
X63075000Y3150000D03*
X51925000Y3150000D03*
X51905000Y7750000D03*
%TD*%
D17*
%TO.C,*%
X65500000Y-3500000D03*
%TD*%
%TO.C,*%
X49500000Y7500000D03*
%TD*%
%TO.C,*%
X65500000Y7500000D03*
%TD*%
%TO.C,*%
X49500000Y-3500000D03*
%TD*%
D18*
%TO.C,SW40*%
X238125000Y-95250000D03*
D19*
X243125000Y-90100000D03*
%TD*%
D18*
%TO.C,SW46*%
X361950000Y-95250000D03*
D19*
X366950000Y-90100000D03*
%TD*%
D17*
%TO.C,*%
X352425000Y-57150000D03*
%TD*%
D18*
%TO.C,SW59*%
X328612500Y-114300000D03*
D19*
X333612500Y-109150000D03*
%TD*%
D18*
%TO.C,SW36*%
X161925000Y-95250000D03*
D19*
X166925000Y-90100000D03*
%TD*%
D20*
%TO.C,SW85*%
X52017500Y-70500000D03*
D19*
X52017500Y-73000000D03*
X52017500Y-75500000D03*
X48717500Y-75500000D03*
X48717500Y-73000000D03*
X48717500Y-70500000D03*
%TD*%
D21*
%TO.C,ROT_SW1*%
X54650000Y-64650000D03*
D22*
X59650000Y-64650000D03*
X57150000Y-64650000D03*
D23*
X51550000Y-57150000D03*
X62750000Y-57150000D03*
D22*
X54650000Y-50150000D03*
X59650000Y-50150000D03*
%TD*%
D18*
%TO.C,SW43*%
X295275000Y-95250000D03*
D19*
X300275000Y-90100000D03*
%TD*%
D18*
%TO.C,SW27*%
X266700000Y-76200000D03*
D19*
X271700000Y-71050000D03*
%TD*%
D17*
%TO.C,*%
X304800000Y-95250000D03*
%TD*%
D18*
%TO.C,SW67*%
X209550000Y-133350000D03*
D19*
X214550000Y-128200000D03*
%TD*%
D18*
%TO.C,SW54*%
X219075000Y-114300000D03*
D19*
X224075000Y-109150000D03*
%TD*%
D12*
%TO.C,A9_USB_VBUS1*%
X53200000Y-147300000D03*
%TD*%
D17*
%TO.C,*%
X247650000Y-114300000D03*
%TD*%
D18*
%TO.C,SW52*%
X180975000Y-114300000D03*
D19*
X185975000Y-109150000D03*
%TD*%
D12*
%TO.C,A10_USB_ID1*%
X53200000Y-144750000D03*
%TD*%
%TO.C,A12_USB_DP1*%
X53200000Y-139680000D03*
%TD*%
D18*
%TO.C,SW28*%
X285750000Y-76200000D03*
D19*
X290750000Y-71050000D03*
%TD*%
D18*
%TO.C,SW35*%
X142875000Y-95250000D03*
D19*
X147875000Y-90100000D03*
%TD*%
D18*
%TO.C,SW25*%
X228600000Y-76200000D03*
D19*
X233600000Y-71050000D03*
%TD*%
D18*
%TO.C,SW23*%
X190500000Y-76200000D03*
D19*
X195500000Y-71050000D03*
%TD*%
D24*
%TO.C,*%
X257175000Y-133350000D03*
%TD*%
D18*
%TO.C,SW42*%
X276225000Y-95250000D03*
D19*
X281225000Y-90100000D03*
%TD*%
D18*
%TO.C,SW56*%
X257175000Y-114300000D03*
D19*
X262175000Y-109150000D03*
%TD*%
D18*
%TO.C,SW79*%
X254793750Y-152400000D03*
D19*
X259793750Y-147250000D03*
%TD*%
D17*
%TO.C,*%
X238125000Y-152400000D03*
%TD*%
D18*
%TO.C,SW45*%
X338137500Y-95250000D03*
D19*
X343137500Y-90100000D03*
%TD*%
D18*
%TO.C,SW64*%
X152400000Y-133350000D03*
D19*
X157400000Y-128200000D03*
%TD*%
D12*
%TO.C,A11_USB_DM1*%
X53200000Y-142200000D03*
%TD*%
D18*
%TO.C,SW9*%
X228600000Y-57150000D03*
D19*
X233600000Y-52000000D03*
%TD*%
D18*
%TO.C,SW48*%
X104775000Y-114300000D03*
D19*
X109775000Y-109150000D03*
%TD*%
D18*
%TO.C,SW19*%
X114300000Y-76200000D03*
D19*
X119300000Y-71050000D03*
%TD*%
D18*
%TO.C,SW70*%
X266700000Y-133350000D03*
D19*
X271700000Y-128200000D03*
%TD*%
D25*
%TO.C,U2*%
X54050000Y-106137500D03*
X55000000Y-106137500D03*
X55950000Y-106137500D03*
X55950000Y-103862500D03*
X55000000Y-103862500D03*
X54050000Y-103862500D03*
%TD*%
D18*
%TO.C,SW53*%
X200025000Y-114300000D03*
D19*
X205025000Y-109150000D03*
%TD*%
D18*
%TO.C,SW73*%
X342900000Y-133350000D03*
D19*
X347900000Y-128200000D03*
%TD*%
D18*
%TO.C,SW76*%
X102393750Y-152400000D03*
D19*
X107393750Y-147250000D03*
%TD*%
D17*
%TO.C,*%
X133350000Y-95250000D03*
%TD*%
%TO.C,*%
X190500000Y-114300000D03*
%TD*%
D18*
%TO.C,SW21*%
X152400000Y-76200000D03*
D19*
X157400000Y-71050000D03*
%TD*%
D18*
%TO.C,SW37*%
X180975000Y-95250000D03*
D19*
X185975000Y-90100000D03*
%TD*%
D18*
%TO.C,SW34*%
X123825000Y-95250000D03*
D19*
X128825000Y-90100000D03*
%TD*%
D18*
%TO.C,SW1*%
X76200000Y-57150000D03*
D19*
X81200000Y-52000000D03*
%TD*%
D18*
%TO.C,SW72*%
X314325000Y-133350000D03*
D19*
X319325000Y-128200000D03*
%TD*%
D17*
%TO.C,*%
X142875000Y-152400000D03*
%TD*%
D24*
%TO.C,*%
X85725000Y-76200000D03*
%TD*%
D26*
%TO.C,J5*%
X50500000Y-95000000D03*
D11*
X52500000Y-95000000D03*
X54500000Y-95000000D03*
X56500000Y-95000000D03*
X58500000Y-95000000D03*
X60500000Y-95000000D03*
X62500000Y-95000000D03*
%TD*%
D18*
%TO.C,SW16*%
X361950000Y-57150000D03*
D19*
X366950000Y-52000000D03*
%TD*%
D18*
%TO.C,SW51*%
X161925000Y-114300000D03*
D19*
X166925000Y-109150000D03*
%TD*%
D17*
%TO.C,*%
X161925000Y-57150000D03*
%TD*%
D18*
%TO.C,SW44*%
X314325000Y-95250000D03*
D19*
X319325000Y-90100000D03*
%TD*%
D17*
%TO.C,*%
X352425000Y-152400000D03*
%TD*%
D24*
%TO.C,*%
X161925000Y-76200000D03*
%TD*%
D18*
%TO.C,SW17*%
X76200000Y-76200000D03*
D19*
X81200000Y-71050000D03*
%TD*%
D18*
%TO.C,SW29*%
X304800000Y-76200000D03*
D19*
X309800000Y-71050000D03*
%TD*%
D18*
%TO.C,SW30*%
X333375000Y-76200000D03*
D19*
X338375000Y-71050000D03*
%TD*%
D18*
%TO.C,SW60*%
X361950000Y-114300000D03*
D19*
X366950000Y-109150000D03*
%TD*%
D18*
%TO.C,SW31*%
X361950000Y-76200000D03*
D19*
X366950000Y-71050000D03*
%TD*%
D18*
%TO.C,SW4*%
X133350000Y-57150000D03*
D19*
X138350000Y-52000000D03*
%TD*%
D18*
%TO.C,SW8*%
X209550000Y-57150000D03*
D19*
X214550000Y-52000000D03*
%TD*%
D24*
%TO.C,*%
X238125000Y-76200000D03*
%TD*%
D17*
%TO.C,*%
X190500000Y-95250000D03*
%TD*%
D18*
%TO.C,SW75*%
X78581250Y-152400000D03*
D19*
X83581250Y-147250000D03*
%TD*%
D18*
%TO.C,SW15*%
X342900000Y-57150000D03*
D19*
X347900000Y-52000000D03*
%TD*%
D18*
%TO.C,SW10*%
X247650000Y-57150000D03*
D19*
X252650000Y-52000000D03*
%TD*%
D18*
%TO.C,SW7*%
X190500000Y-57150000D03*
D19*
X195500000Y-52000000D03*
%TD*%
D18*
%TO.C,SW18*%
X95250000Y-76200000D03*
D19*
X100250000Y-71050000D03*
%TD*%
D18*
%TO.C,SW47*%
X80962500Y-114300000D03*
D19*
X85962500Y-109150000D03*
%TD*%
D18*
%TO.C,SW33*%
X104775000Y-95250000D03*
D19*
X109775000Y-90100000D03*
%TD*%
D18*
%TO.C,SW20*%
X133350000Y-76200000D03*
D19*
X138350000Y-71050000D03*
%TD*%
D18*
%TO.C,SW69*%
X247650000Y-133350000D03*
D19*
X252650000Y-128200000D03*
%TD*%
D18*
%TO.C,SW62*%
X114300000Y-133350000D03*
D19*
X119300000Y-128200000D03*
%TD*%
D27*
%TO.C,J4*%
X58000000Y-153600000D03*
D28*
X58000000Y-151600000D03*
X58000000Y-149600000D03*
X58000000Y-147600000D03*
X58000000Y-145600000D03*
X58000000Y-143600000D03*
%TD*%
D18*
%TO.C,SW58*%
X295275000Y-114300000D03*
D19*
X300275000Y-109150000D03*
%TD*%
D18*
%TO.C,SW83*%
X342900000Y-152400000D03*
D19*
X347900000Y-147250000D03*
%TD*%
D18*
%TO.C,SW38*%
X200025000Y-95250000D03*
D19*
X205025000Y-90100000D03*
%TD*%
D18*
%TO.C,SW32*%
X80962500Y-95250000D03*
D19*
X85962500Y-90100000D03*
%TD*%
D17*
%TO.C,*%
X247650000Y-95250000D03*
%TD*%
D18*
%TO.C,SW13*%
X304800000Y-57150000D03*
D19*
X309800000Y-52000000D03*
%TD*%
D17*
%TO.C,*%
X292893750Y-152400000D03*
%TD*%
D18*
%TO.C,SW5*%
X152400000Y-57150000D03*
D19*
X157400000Y-52000000D03*
%TD*%
D18*
%TO.C,SW22*%
X171450000Y-76200000D03*
D19*
X176450000Y-71050000D03*
%TD*%
D17*
%TO.C,*%
X90487500Y-114300000D03*
%TD*%
D18*
%TO.C,SW49*%
X123825000Y-114300000D03*
D19*
X128825000Y-109150000D03*
%TD*%
D18*
%TO.C,SW55*%
X238125000Y-114300000D03*
D19*
X243125000Y-109150000D03*
%TD*%
D18*
%TO.C,SW84*%
X361950000Y-152400000D03*
D19*
X366950000Y-147250000D03*
%TD*%
D24*
%TO.C,*%
X180975000Y-133350000D03*
%TD*%
D18*
%TO.C,SW24*%
X209550000Y-76200000D03*
D19*
X214550000Y-71050000D03*
%TD*%
D18*
%TO.C,SW71*%
X285750000Y-133350000D03*
D19*
X290750000Y-128200000D03*
%TD*%
D18*
%TO.C,SW11*%
X266700000Y-57150000D03*
D19*
X271700000Y-52000000D03*
%TD*%
D18*
%TO.C,SW6*%
X171450000Y-57150000D03*
D19*
X176450000Y-52000000D03*
%TD*%
D24*
%TO.C,*%
X333375000Y-133350000D03*
%TD*%
D18*
%TO.C,SW77*%
X126206250Y-152400000D03*
D19*
X131206250Y-147250000D03*
%TD*%
D18*
%TO.C,SW12*%
X285750000Y-57150000D03*
D19*
X290750000Y-52000000D03*
%TD*%
D12*
%TO.C,B2_BOOT1*%
X63900000Y-149840000D03*
%TD*%
D18*
%TO.C,SW78*%
X190500000Y-152400000D03*
D19*
X195500000Y-147250000D03*
%TD*%
D18*
%TO.C,SW3*%
X114300000Y-57150000D03*
D19*
X119300000Y-52000000D03*
%TD*%
D18*
%TO.C,SW14*%
X323850000Y-57150000D03*
D19*
X328850000Y-52000000D03*
%TD*%
D17*
%TO.C,*%
X88106250Y-152400000D03*
%TD*%
D18*
%TO.C,SW50*%
X142875000Y-114300000D03*
D19*
X147875000Y-109150000D03*
%TD*%
D18*
%TO.C,SW80*%
X278606250Y-152400000D03*
D19*
X283606250Y-147250000D03*
%TD*%
D24*
%TO.C,*%
X104775000Y-133350000D03*
%TD*%
D18*
%TO.C,SW65*%
X171450000Y-133350000D03*
D19*
X176450000Y-128200000D03*
%TD*%
D17*
%TO.C,*%
X304800000Y-114300000D03*
%TD*%
D18*
%TO.C,SW82*%
X323850000Y-152400000D03*
D19*
X328850000Y-147250000D03*
%TD*%
D18*
%TO.C,SW39*%
X219075000Y-95250000D03*
D19*
X224075000Y-90100000D03*
%TD*%
D18*
%TO.C,SW66*%
X190500000Y-133350000D03*
D19*
X195500000Y-128200000D03*
%TD*%
D18*
%TO.C,SW74*%
X361950000Y-133350000D03*
D19*
X366950000Y-128200000D03*
%TD*%
D12*
%TO.C,VBat1*%
X66114600Y-109000000D03*
%TD*%
D17*
%TO.C,*%
X257175000Y-57150000D03*
%TD*%
D18*
%TO.C,SW2*%
X95250000Y-57150000D03*
D19*
X100250000Y-52000000D03*
%TD*%
D18*
%TO.C,SW57*%
X276225000Y-114300000D03*
D19*
X281225000Y-109150000D03*
%TD*%
D17*
%TO.C,*%
X133350000Y-114300000D03*
%TD*%
D18*
%TO.C,SW26*%
X247650000Y-76200000D03*
D19*
X252650000Y-71050000D03*
%TD*%
D18*
%TO.C,SW41*%
X257175000Y-95250000D03*
D19*
X262175000Y-90100000D03*
%TD*%
D17*
%TO.C,*%
X66675000Y-57150000D03*
%TD*%
D18*
%TO.C,SW81*%
X302418750Y-152400000D03*
D19*
X307418750Y-147250000D03*
%TD*%
D17*
%TO.C,*%
X71437500Y-95250000D03*
%TD*%
D29*
%TO.C,CAPS_LED1*%
X70000000Y-116900000D03*
X71500000Y-116900000D03*
X70000000Y-111700000D03*
D30*
X71500000Y-111700000D03*
%TD*%
D18*
%TO.C,SW63*%
X133350000Y-133350000D03*
D19*
X138350000Y-128200000D03*
%TD*%
D24*
%TO.C,*%
X314325000Y-76200000D03*
%TD*%
D18*
%TO.C,SW61*%
X85725000Y-133350000D03*
D19*
X90725000Y-128200000D03*
%TD*%
D18*
%TO.C,SW68*%
X228600000Y-133350000D03*
D19*
X233600000Y-128200000D03*
%TD*%
D10*
%TO.C,J3*%
X58500000Y-81550000D03*
D11*
X56500000Y-81550000D03*
X54500000Y-81550000D03*
X52500000Y-81550000D03*
X50500000Y-81550000D03*
%TD*%
D31*
%TO.C,U1*%
X50885400Y-160000000D03*
D32*
X50885400Y-157460000D03*
X50885400Y-154920000D03*
X50885400Y-152380000D03*
X50885400Y-149840000D03*
X50885400Y-147300000D03*
X50885400Y-144760000D03*
X50885400Y-142220000D03*
X50885400Y-139680000D03*
X50885400Y-137140000D03*
X50885400Y-134600000D03*
X50885400Y-132060000D03*
X50885400Y-129520000D03*
X50885400Y-126980000D03*
X50885400Y-124440000D03*
X50885400Y-121900000D03*
X50885400Y-119360000D03*
X50885400Y-116820000D03*
X50885400Y-114280000D03*
X50885400Y-111740000D03*
X66100000Y-111740000D03*
X66100000Y-114280000D03*
X66100000Y-116820000D03*
X66100000Y-119360000D03*
X66100000Y-121900000D03*
X66100000Y-124440000D03*
X66100000Y-126980000D03*
X66100000Y-129520000D03*
X66100000Y-132060000D03*
X66100000Y-134600000D03*
X66100000Y-137140000D03*
X66100000Y-139680000D03*
X66100000Y-142220000D03*
X66100000Y-144760000D03*
X66100000Y-147300000D03*
X66100000Y-149840000D03*
X66100000Y-152380000D03*
X66100000Y-154920000D03*
X66100000Y-157460000D03*
D31*
X66100000Y-160000000D03*
D33*
X54720800Y-115524600D03*
D32*
X57260800Y-115524600D03*
X59800800Y-115524600D03*
X62340800Y-115524600D03*
%TD*%
M02*
