G04 #@! TF.GenerationSoftware,KiCad,Pcbnew,9.0.4*
G04 #@! TF.CreationDate,2025-10-26T15:47:23+08:00*
G04 #@! TF.ProjectId,Custom Mechanical Keyboard,43757374-6f6d-4204-9d65-6368616e6963,rev?*
G04 #@! TF.SameCoordinates,Original*
G04 #@! TF.FileFunction,Soldermask,Top*
G04 #@! TF.FilePolarity,Negative*
%FSLAX46Y46*%
G04 Gerber Fmt 4.6, Leading zero omitted, Abs format (unit mm)*
G04 Created by KiCad (PCBNEW 9.0.4) date 2025-10-26 15:47:23*
%MOMM*%
%LPD*%
G01*
G04 APERTURE LIST*
G04 Aperture macros list*
%AMRoundRect*
0 Rectangle with rounded corners*
0 $1 Rounding radius*
0 $2 $3 $4 $5 $6 $7 $8 $9 X,Y pos of 4 corners*
0 Add a 4 corners polygon primitive as box body*
4,1,4,$2,$3,$4,$5,$6,$7,$8,$9,$2,$3,0*
0 Add four circle primitives for the rounded corners*
1,1,$1+$1,$2,$3*
1,1,$1+$1,$4,$5*
1,1,$1+$1,$6,$7*
1,1,$1+$1,$8,$9*
0 Add four rect primitives between the rounded corners*
20,1,$1+$1,$2,$3,$4,$5,0*
20,1,$1+$1,$4,$5,$6,$7,0*
20,1,$1+$1,$6,$7,$8,$9,0*
20,1,$1+$1,$8,$9,$2,$3,0*%
G04 Aperture macros list end*
%ADD10RoundRect,0.250000X-0.450000X0.450000X-0.450000X-0.450000X0.450000X-0.450000X0.450000X0.450000X0*%
%ADD11C,1.400000*%
%ADD12R,2.000000X2.000000*%
%ADD13C,2.000000*%
%ADD14R,2.500000X3.000000*%
%ADD15C,1.000000*%
%ADD16RoundRect,0.150000X0.150000X-0.512500X0.150000X0.512500X-0.150000X0.512500X-0.150000X-0.512500X0*%
%ADD17C,3.000000*%
%ADD18RoundRect,0.075000X-0.600000X0.075000X-0.600000X-0.075000X0.600000X-0.075000X0.600000X0.075000X0*%
%ADD19RoundRect,0.300000X-0.950000X0.700000X-0.950000X-0.700000X0.950000X-0.700000X0.950000X0.700000X0*%
%ADD20R,1.350000X1.350000*%
%ADD21C,1.350000*%
%ADD22R,1.700000X1.700000*%
%ADD23C,1.700000*%
%ADD24R,1.500000X1.500000*%
G04 APERTURE END LIST*
D10*
X49100000Y-70500000D03*
D11*
X49100000Y-73000000D03*
X49100000Y-75500000D03*
X45800000Y-75500000D03*
X45800000Y-73000000D03*
X45800000Y-70500000D03*
D12*
X52550000Y-64650000D03*
D13*
X57550000Y-64650000D03*
X55050000Y-64650000D03*
D14*
X49450000Y-57150000D03*
X60650000Y-57150000D03*
D13*
X52550000Y-50150000D03*
X57550000Y-50150000D03*
D15*
X49800000Y-147300000D03*
X49800000Y-144760000D03*
X49800000Y-139680000D03*
X49800000Y-142220000D03*
D16*
X48250000Y-109150000D03*
X49200000Y-109150000D03*
X50150000Y-109150000D03*
X50150000Y-106875000D03*
X49200000Y-106875000D03*
X48250000Y-106875000D03*
D15*
X59250000Y-132600000D03*
D17*
X46400000Y-66000000D03*
D18*
X60600000Y-94750000D03*
X60600000Y-95250000D03*
X60600000Y-95750000D03*
X60600000Y-96250000D03*
X60600000Y-96750000D03*
X60600000Y-97250000D03*
X60600000Y-97750000D03*
X60600000Y-98250000D03*
X60600000Y-98750000D03*
X60600000Y-99250000D03*
X60600000Y-99750000D03*
X60600000Y-100250000D03*
X60600000Y-100750000D03*
X60600000Y-101250000D03*
X60600000Y-101750000D03*
X60600000Y-102250000D03*
X60600000Y-102750000D03*
X60600000Y-103250000D03*
X60600000Y-103750000D03*
X60600000Y-104250000D03*
D19*
X58225000Y-93060000D03*
X58225000Y-105940000D03*
D17*
X61950000Y-89650000D03*
X46400000Y-49350000D03*
D20*
X47050000Y-84150000D03*
D21*
X49050000Y-84150000D03*
X51050000Y-84150000D03*
X53050000Y-84150000D03*
X55050000Y-84150000D03*
X57050000Y-84150000D03*
X59050000Y-84150000D03*
D20*
X50050707Y-154650707D03*
D21*
X52050707Y-154650707D03*
X54050707Y-154650707D03*
X56050707Y-154650707D03*
X58050707Y-154650707D03*
X60050707Y-154650707D03*
D17*
X63700000Y-66000000D03*
D15*
X62650000Y-109000000D03*
D17*
X48150000Y-89650000D03*
X63700000Y-49350000D03*
D20*
X53550000Y-73000000D03*
D21*
X55550000Y-73000000D03*
X57550000Y-73000000D03*
X59550000Y-73000000D03*
X61550000Y-73000000D03*
D22*
X47450000Y-160000000D03*
D23*
X47450000Y-157460000D03*
X47450000Y-154920000D03*
X47450000Y-152380000D03*
X47450000Y-149840000D03*
X47450000Y-147300000D03*
X47450000Y-144760000D03*
X47450000Y-142220000D03*
X47450000Y-139680000D03*
X47450000Y-137140000D03*
X47450000Y-134600000D03*
X47450000Y-132060000D03*
X47450000Y-129520000D03*
X47450000Y-126980000D03*
X47450000Y-124440000D03*
X47450000Y-121900000D03*
X47450000Y-119360000D03*
X47450000Y-116820000D03*
X47450000Y-114280000D03*
X47450000Y-111740000D03*
X62650000Y-111740000D03*
X62650000Y-114280000D03*
X62650000Y-116820000D03*
X62650000Y-119360000D03*
X62650000Y-121900000D03*
X62650000Y-124440000D03*
X62650000Y-126980000D03*
X62650000Y-129520000D03*
X62650000Y-132060000D03*
X62650000Y-134600000D03*
X62650000Y-137140000D03*
X62650000Y-139680000D03*
X62650000Y-142220000D03*
X62650000Y-144760000D03*
X62650000Y-147300000D03*
X62650000Y-149840000D03*
X62650000Y-152380000D03*
X62650000Y-154920000D03*
X62650000Y-157460000D03*
D22*
X62650000Y-160000000D03*
D24*
X51250000Y-115500000D03*
D23*
X53750000Y-115500000D03*
X56250000Y-115500000D03*
X58850000Y-115500000D03*
M02*
