M48
; DRILL file {KiCad 9.0.4} date 2025-10-26T15:47:31+0800
; FORMAT={-:-/ absolute / metric / decimal}
; #@! TF.CreationDate,2025-10-26T15:47:31+08:00
; #@! TF.GenerationSoftware,Kicad,Pcbnew,9.0.4
; #@! TF.FileFunction,Plated,1,2,PTH
FMAT,2
METRIC
; #@! TA.AperFunction,Plated,PTH,ViaDrill
T1C0.300
; #@! TA.AperFunction,Plated,PTH,ComponentDrill
T2C0.800
; #@! TA.AperFunction,Plated,PTH,ComponentDrill
T3C0.900
; #@! TA.AperFunction,Plated,PTH,ComponentDrill
T4C1.000
; #@! TA.AperFunction,Plated,PTH,ComponentDrill
T5C2.000
; #@! TA.AperFunction,Plated,PTH,ComponentDrill
T6C2.500
%
G90
G05
T1
X47.95Y-85.7
X48.25Y-105.75
X50.15Y-110.4
X54.3Y-77.15
X56.7Y-74.8
X59.25Y-132.6
X60.6Y-105.95
X61.9Y-99.75
X61.9Y-100.6
X63.15Y-96.25
X63.15Y-97.15
X63.15Y-98.05
T2
X47.05Y-84.15
X49.05Y-84.15
X50.051Y-154.651
X51.05Y-84.15
X52.051Y-154.651
X53.05Y-84.15
X53.55Y-73.0
X54.051Y-154.651
X55.05Y-84.15
X55.55Y-73.0
X56.051Y-154.651
X57.05Y-84.15
X57.55Y-73.0
X58.051Y-154.651
X59.05Y-84.15
X59.55Y-73.0
X60.051Y-154.651
X61.55Y-73.0
T3
X45.8Y-70.5
X45.8Y-73.0
X45.8Y-75.5
X47.45Y-111.74
X47.45Y-114.28
X47.45Y-116.82
X47.45Y-119.36
X47.45Y-121.9
X47.45Y-124.44
X47.45Y-126.98
X47.45Y-129.52
X47.45Y-132.06
X47.45Y-134.6
X47.45Y-137.14
X47.45Y-139.68
X47.45Y-142.22
X47.45Y-144.76
X47.45Y-147.3
X47.45Y-149.84
X47.45Y-152.38
X47.45Y-154.92
X47.45Y-157.46
X47.45Y-160.0
X49.1Y-70.5
X49.1Y-73.0
X49.1Y-75.5
X51.25Y-115.5
X53.75Y-115.5
X56.25Y-115.5
X58.85Y-115.5
X62.65Y-111.74
X62.65Y-114.28
X62.65Y-116.82
X62.65Y-119.36
X62.65Y-121.9
X62.65Y-124.44
X62.65Y-126.98
X62.65Y-129.52
X62.65Y-132.06
X62.65Y-134.6
X62.65Y-137.14
X62.65Y-139.68
X62.65Y-142.22
X62.65Y-144.76
X62.65Y-147.3
X62.65Y-149.84
X62.65Y-152.38
X62.65Y-154.92
X62.65Y-157.46
X62.65Y-160.0
T4
X52.55Y-50.15
X52.55Y-64.65
X55.05Y-64.65
X57.55Y-50.15
X57.55Y-64.65
T6
X46.4Y-49.35
X46.4Y-66.0
X48.15Y-89.65
X61.95Y-89.65
X63.7Y-49.35
X63.7Y-66.0
T5
X49.45Y-57.4G85X49.45Y-56.9
G05
X60.65Y-57.4G85X60.65Y-56.9
G05
M30
