%TF.GenerationSoftware,KiCad,Pcbnew,9.0.4*%
%TF.CreationDate,2025-10-26T15:47:31+08:00*%
%TF.ProjectId,Custom Mechanical Keyboard,43757374-6f6d-4204-9d65-6368616e6963,rev?*%
%TF.SameCoordinates,Original*%
%TF.FileFunction,Drillmap*%
%TF.FilePolarity,Positive*%
%FSLAX45Y45*%
G04 Gerber Fmt 4.5, Leading zero omitted, Abs format (unit mm)*
G04 Created by KiCad (PCBNEW 9.0.4) date 2025-10-26 15:47:31*
%MOMM*%
%LPD*%
G01*
G04 APERTURE LIST*
%ADD10C,0.100000*%
%ADD11C,0.200000*%
%ADD12C,0.250000*%
G04 APERTURE END LIST*
D10*
X4555000Y-4750000D02*
X6455000Y-4750000D01*
X4455000Y-4850000D02*
G75*
G02*
X4555000Y-4750000I100000J0D01*
G01*
X6555000Y-5265000D02*
X6555000Y-15765000D01*
X6455000Y-16200000D02*
X4555000Y-16200000D01*
X6455000Y-4750000D02*
G75*
G02*
X6555000Y-4850000I0J-100000D01*
G01*
X4455000Y-16100000D02*
X4455000Y-4850000D01*
X6555000Y-16100000D02*
X6555000Y-15765000D01*
X4555000Y-16200000D02*
G75*
G02*
X4455000Y-16100000I0J100000D01*
G01*
X6555000Y-16100000D02*
G75*
G02*
X6455000Y-16200000I-100000J0D01*
G01*
X6555000Y-4850000D02*
X6555000Y-5265000D01*
D11*
D10*
X4780000Y-8555000D02*
X4810000Y-8585000D01*
X4810000Y-8555000D02*
X4780000Y-8585000D01*
X4810000Y-10560000D02*
X4840000Y-10590000D01*
X4840000Y-10560000D02*
X4810000Y-10590000D01*
X5000000Y-11025000D02*
X5030000Y-11055000D01*
X5030000Y-11025000D02*
X5000000Y-11055000D01*
X5415000Y-7700000D02*
X5445000Y-7730000D01*
X5445000Y-7700000D02*
X5415000Y-7730000D01*
X5655000Y-7465000D02*
X5685000Y-7495000D01*
X5685000Y-7465000D02*
X5655000Y-7495000D01*
X5910000Y-13245000D02*
X5940000Y-13275000D01*
X5940000Y-13245000D02*
X5910000Y-13275000D01*
X6045000Y-10580000D02*
X6075000Y-10610000D01*
X6075000Y-10580000D02*
X6045000Y-10610000D01*
X6175000Y-9960000D02*
X6205000Y-9990000D01*
X6205000Y-9960000D02*
X6175000Y-9990000D01*
X6175000Y-10045000D02*
X6205000Y-10075000D01*
X6205000Y-10045000D02*
X6175000Y-10075000D01*
X6300000Y-9610000D02*
X6330000Y-9640000D01*
X6330000Y-9610000D02*
X6300000Y-9640000D01*
X6300000Y-9700000D02*
X6330000Y-9730000D01*
X6330000Y-9700000D02*
X6300000Y-9730000D01*
X6300000Y-9790000D02*
X6330000Y-9820000D01*
X6330000Y-9790000D02*
X6300000Y-9820000D01*
X4745000Y-8415000D02*
G75*
G02*
X4665000Y-8415000I-40000J0D01*
G01*
X4665000Y-8415000D02*
G75*
G02*
X4745000Y-8415000I40000J0D01*
G01*
X4945000Y-8415000D02*
G75*
G02*
X4865000Y-8415000I-40000J0D01*
G01*
X4865000Y-8415000D02*
G75*
G02*
X4945000Y-8415000I40000J0D01*
G01*
X5045071Y-15465071D02*
G75*
G02*
X4965071Y-15465071I-40000J0D01*
G01*
X4965071Y-15465071D02*
G75*
G02*
X5045071Y-15465071I40000J0D01*
G01*
X5145000Y-8415000D02*
G75*
G02*
X5065000Y-8415000I-40000J0D01*
G01*
X5065000Y-8415000D02*
G75*
G02*
X5145000Y-8415000I40000J0D01*
G01*
X5245071Y-15465071D02*
G75*
G02*
X5165071Y-15465071I-40000J0D01*
G01*
X5165071Y-15465071D02*
G75*
G02*
X5245071Y-15465071I40000J0D01*
G01*
X5345000Y-8415000D02*
G75*
G02*
X5265000Y-8415000I-40000J0D01*
G01*
X5265000Y-8415000D02*
G75*
G02*
X5345000Y-8415000I40000J0D01*
G01*
X5395000Y-7300000D02*
G75*
G02*
X5315000Y-7300000I-40000J0D01*
G01*
X5315000Y-7300000D02*
G75*
G02*
X5395000Y-7300000I40000J0D01*
G01*
X5445071Y-15465071D02*
G75*
G02*
X5365071Y-15465071I-40000J0D01*
G01*
X5365071Y-15465071D02*
G75*
G02*
X5445071Y-15465071I40000J0D01*
G01*
X5545000Y-8415000D02*
G75*
G02*
X5465000Y-8415000I-40000J0D01*
G01*
X5465000Y-8415000D02*
G75*
G02*
X5545000Y-8415000I40000J0D01*
G01*
X5595000Y-7300000D02*
G75*
G02*
X5515000Y-7300000I-40000J0D01*
G01*
X5515000Y-7300000D02*
G75*
G02*
X5595000Y-7300000I40000J0D01*
G01*
X5645071Y-15465071D02*
G75*
G02*
X5565071Y-15465071I-40000J0D01*
G01*
X5565071Y-15465071D02*
G75*
G02*
X5645071Y-15465071I40000J0D01*
G01*
X5745000Y-8415000D02*
G75*
G02*
X5665000Y-8415000I-40000J0D01*
G01*
X5665000Y-8415000D02*
G75*
G02*
X5745000Y-8415000I40000J0D01*
G01*
X5795000Y-7300000D02*
G75*
G02*
X5715000Y-7300000I-40000J0D01*
G01*
X5715000Y-7300000D02*
G75*
G02*
X5795000Y-7300000I40000J0D01*
G01*
X5845071Y-15465071D02*
G75*
G02*
X5765071Y-15465071I-40000J0D01*
G01*
X5765071Y-15465071D02*
G75*
G02*
X5845071Y-15465071I40000J0D01*
G01*
X5945000Y-8415000D02*
G75*
G02*
X5865000Y-8415000I-40000J0D01*
G01*
X5865000Y-8415000D02*
G75*
G02*
X5945000Y-8415000I40000J0D01*
G01*
X5995000Y-7300000D02*
G75*
G02*
X5915000Y-7300000I-40000J0D01*
G01*
X5915000Y-7300000D02*
G75*
G02*
X5995000Y-7300000I40000J0D01*
G01*
X6045071Y-15465071D02*
G75*
G02*
X5965071Y-15465071I-40000J0D01*
G01*
X5965071Y-15465071D02*
G75*
G02*
X6045071Y-15465071I40000J0D01*
G01*
X6195000Y-7300000D02*
G75*
G02*
X6115000Y-7300000I-40000J0D01*
G01*
X6115000Y-7300000D02*
G75*
G02*
X6195000Y-7300000I40000J0D01*
G01*
X4580000Y-7005000D02*
X4580000Y-7095000D01*
X4535000Y-7050000D02*
X4625000Y-7050000D01*
X4580000Y-7255000D02*
X4580000Y-7345000D01*
X4535000Y-7300000D02*
X4625000Y-7300000D01*
X4580000Y-7505000D02*
X4580000Y-7595000D01*
X4535000Y-7550000D02*
X4625000Y-7550000D01*
X4745000Y-11129000D02*
X4745000Y-11219000D01*
X4700000Y-11174000D02*
X4790000Y-11174000D01*
X4745000Y-11383000D02*
X4745000Y-11473000D01*
X4700000Y-11428000D02*
X4790000Y-11428000D01*
X4745000Y-11637000D02*
X4745000Y-11727000D01*
X4700000Y-11682000D02*
X4790000Y-11682000D01*
X4745000Y-11891000D02*
X4745000Y-11981000D01*
X4700000Y-11936000D02*
X4790000Y-11936000D01*
X4745000Y-12145000D02*
X4745000Y-12235000D01*
X4700000Y-12190000D02*
X4790000Y-12190000D01*
X4745000Y-12399000D02*
X4745000Y-12489000D01*
X4700000Y-12444000D02*
X4790000Y-12444000D01*
X4745000Y-12653000D02*
X4745000Y-12743000D01*
X4700000Y-12698000D02*
X4790000Y-12698000D01*
X4745000Y-12907000D02*
X4745000Y-12997000D01*
X4700000Y-12952000D02*
X4790000Y-12952000D01*
X4745000Y-13161000D02*
X4745000Y-13251000D01*
X4700000Y-13206000D02*
X4790000Y-13206000D01*
X4745000Y-13415000D02*
X4745000Y-13505000D01*
X4700000Y-13460000D02*
X4790000Y-13460000D01*
X4745000Y-13669000D02*
X4745000Y-13759000D01*
X4700000Y-13714000D02*
X4790000Y-13714000D01*
X4745000Y-13923000D02*
X4745000Y-14013000D01*
X4700000Y-13968000D02*
X4790000Y-13968000D01*
X4745000Y-14177000D02*
X4745000Y-14267000D01*
X4700000Y-14222000D02*
X4790000Y-14222000D01*
X4745000Y-14431000D02*
X4745000Y-14521000D01*
X4700000Y-14476000D02*
X4790000Y-14476000D01*
X4745000Y-14685000D02*
X4745000Y-14775000D01*
X4700000Y-14730000D02*
X4790000Y-14730000D01*
X4745000Y-14939000D02*
X4745000Y-15029000D01*
X4700000Y-14984000D02*
X4790000Y-14984000D01*
X4745000Y-15193000D02*
X4745000Y-15283000D01*
X4700000Y-15238000D02*
X4790000Y-15238000D01*
X4745000Y-15447000D02*
X4745000Y-15537000D01*
X4700000Y-15492000D02*
X4790000Y-15492000D01*
X4745000Y-15701000D02*
X4745000Y-15791000D01*
X4700000Y-15746000D02*
X4790000Y-15746000D01*
X4745000Y-15955000D02*
X4745000Y-16045000D01*
X4700000Y-16000000D02*
X4790000Y-16000000D01*
X4910000Y-7005000D02*
X4910000Y-7095000D01*
X4865000Y-7050000D02*
X4955000Y-7050000D01*
X4910000Y-7255000D02*
X4910000Y-7345000D01*
X4865000Y-7300000D02*
X4955000Y-7300000D01*
X4910000Y-7505000D02*
X4910000Y-7595000D01*
X4865000Y-7550000D02*
X4955000Y-7550000D01*
X5125000Y-11505000D02*
X5125000Y-11595000D01*
X5080000Y-11550000D02*
X5170000Y-11550000D01*
X5375000Y-11505000D02*
X5375000Y-11595000D01*
X5330000Y-11550000D02*
X5420000Y-11550000D01*
X5625000Y-11505000D02*
X5625000Y-11595000D01*
X5580000Y-11550000D02*
X5670000Y-11550000D01*
X5885000Y-11505000D02*
X5885000Y-11595000D01*
X5840000Y-11550000D02*
X5930000Y-11550000D01*
X6265000Y-11129000D02*
X6265000Y-11219000D01*
X6220000Y-11174000D02*
X6310000Y-11174000D01*
X6265000Y-11383000D02*
X6265000Y-11473000D01*
X6220000Y-11428000D02*
X6310000Y-11428000D01*
X6265000Y-11637000D02*
X6265000Y-11727000D01*
X6220000Y-11682000D02*
X6310000Y-11682000D01*
X6265000Y-11891000D02*
X6265000Y-11981000D01*
X6220000Y-11936000D02*
X6310000Y-11936000D01*
X6265000Y-12145000D02*
X6265000Y-12235000D01*
X6220000Y-12190000D02*
X6310000Y-12190000D01*
X6265000Y-12399000D02*
X6265000Y-12489000D01*
X6220000Y-12444000D02*
X6310000Y-12444000D01*
X6265000Y-12653000D02*
X6265000Y-12743000D01*
X6220000Y-12698000D02*
X6310000Y-12698000D01*
X6265000Y-12907000D02*
X6265000Y-12997000D01*
X6220000Y-12952000D02*
X6310000Y-12952000D01*
X6265000Y-13161000D02*
X6265000Y-13251000D01*
X6220000Y-13206000D02*
X6310000Y-13206000D01*
X6265000Y-13415000D02*
X6265000Y-13505000D01*
X6220000Y-13460000D02*
X6310000Y-13460000D01*
X6265000Y-13669000D02*
X6265000Y-13759000D01*
X6220000Y-13714000D02*
X6310000Y-13714000D01*
X6265000Y-13923000D02*
X6265000Y-14013000D01*
X6220000Y-13968000D02*
X6310000Y-13968000D01*
X6265000Y-14177000D02*
X6265000Y-14267000D01*
X6220000Y-14222000D02*
X6310000Y-14222000D01*
X6265000Y-14431000D02*
X6265000Y-14521000D01*
X6220000Y-14476000D02*
X6310000Y-14476000D01*
X6265000Y-14685000D02*
X6265000Y-14775000D01*
X6220000Y-14730000D02*
X6310000Y-14730000D01*
X6265000Y-14939000D02*
X6265000Y-15029000D01*
X6220000Y-14984000D02*
X6310000Y-14984000D01*
X6265000Y-15193000D02*
X6265000Y-15283000D01*
X6220000Y-15238000D02*
X6310000Y-15238000D01*
X6265000Y-15447000D02*
X6265000Y-15537000D01*
X6220000Y-15492000D02*
X6310000Y-15492000D01*
X6265000Y-15701000D02*
X6265000Y-15791000D01*
X6220000Y-15746000D02*
X6310000Y-15746000D01*
X6265000Y-15955000D02*
X6265000Y-16045000D01*
X6220000Y-16000000D02*
X6310000Y-16000000D01*
X5290356Y-5050356D02*
X5290356Y-4979644D01*
X5219644Y-4979644D01*
X5219644Y-5050356D01*
X5290356Y-5050356D01*
X5290356Y-6500356D02*
X5290356Y-6429644D01*
X5219644Y-6429644D01*
X5219644Y-6500356D01*
X5290356Y-6500356D01*
X5540356Y-6500356D02*
X5540356Y-6429644D01*
X5469644Y-6429644D01*
X5469644Y-6500356D01*
X5540356Y-6500356D01*
X5790356Y-5050356D02*
X5790356Y-4979644D01*
X5719644Y-4979644D01*
X5719644Y-5050356D01*
X5790356Y-5050356D01*
X5790356Y-6500356D02*
X5790356Y-6429644D01*
X5719644Y-6429644D01*
X5719644Y-6500356D01*
X5790356Y-6500356D01*
D11*
X4945000Y-5815000D02*
X5045000Y-5715000D01*
X4945000Y-5615000D01*
X4845000Y-5715000D01*
X4945000Y-5815000D01*
D10*
X5045000Y-5740000D02*
X5045000Y-5690000D01*
X4845000Y-5690000D02*
G75*
G02*
X5045000Y-5690000I100000J0D01*
G01*
X4845000Y-5690000D02*
X4845000Y-5740000D01*
X4845000Y-5740000D02*
G75*
G03*
X5045000Y-5740000I100000J0D01*
G01*
D11*
X6065000Y-5815000D02*
X6165000Y-5715000D01*
X6065000Y-5615000D01*
X5965000Y-5715000D01*
X6065000Y-5815000D01*
D10*
X6165000Y-5740000D02*
X6165000Y-5690000D01*
X5965000Y-5690000D02*
G75*
G02*
X6165000Y-5690000I100000J0D01*
G01*
X5965000Y-5690000D02*
X5965000Y-5740000D01*
X5965000Y-5740000D02*
G75*
G03*
X6165000Y-5740000I100000J0D01*
G01*
D12*
X4515000Y-4810000D02*
X4765000Y-5060000D01*
X4765000Y-4810000D02*
X4515000Y-5060000D01*
X4765000Y-4935000D02*
G75*
G02*
X4515000Y-4935000I-125000J0D01*
G01*
X4515000Y-4935000D02*
G75*
G02*
X4765000Y-4935000I125000J0D01*
G01*
X4515000Y-6475000D02*
X4765000Y-6725000D01*
X4765000Y-6475000D02*
X4515000Y-6725000D01*
X4765000Y-6600000D02*
G75*
G02*
X4515000Y-6600000I-125000J0D01*
G01*
X4515000Y-6600000D02*
G75*
G02*
X4765000Y-6600000I125000J0D01*
G01*
X4690000Y-8840000D02*
X4940000Y-9090000D01*
X4940000Y-8840000D02*
X4690000Y-9090000D01*
X4940000Y-8965000D02*
G75*
G02*
X4690000Y-8965000I-125000J0D01*
G01*
X4690000Y-8965000D02*
G75*
G02*
X4940000Y-8965000I125000J0D01*
G01*
X6070000Y-8840000D02*
X6320000Y-9090000D01*
X6320000Y-8840000D02*
X6070000Y-9090000D01*
X6320000Y-8965000D02*
G75*
G02*
X6070000Y-8965000I-125000J0D01*
G01*
X6070000Y-8965000D02*
G75*
G02*
X6320000Y-8965000I125000J0D01*
G01*
X6245000Y-4810000D02*
X6495000Y-5060000D01*
X6495000Y-4810000D02*
X6245000Y-5060000D01*
X6495000Y-4935000D02*
G75*
G02*
X6245000Y-4935000I-125000J0D01*
G01*
X6245000Y-4935000D02*
G75*
G02*
X6495000Y-4935000I125000J0D01*
G01*
X6245000Y-6475000D02*
X6495000Y-6725000D01*
X6495000Y-6475000D02*
X6245000Y-6725000D01*
X6495000Y-6600000D02*
G75*
G02*
X6245000Y-6600000I-125000J0D01*
G01*
X6245000Y-6600000D02*
G75*
G02*
X6495000Y-6600000I125000J0D01*
G01*
D11*
X4710777Y-16516484D02*
X4710777Y-16316484D01*
X4710777Y-16316484D02*
X4758396Y-16316484D01*
X4758396Y-16316484D02*
X4786967Y-16326008D01*
X4786967Y-16326008D02*
X4806015Y-16345055D01*
X4806015Y-16345055D02*
X4815539Y-16364103D01*
X4815539Y-16364103D02*
X4825063Y-16402198D01*
X4825063Y-16402198D02*
X4825063Y-16430769D01*
X4825063Y-16430769D02*
X4815539Y-16468865D01*
X4815539Y-16468865D02*
X4806015Y-16487912D01*
X4806015Y-16487912D02*
X4786967Y-16506960D01*
X4786967Y-16506960D02*
X4758396Y-16516484D01*
X4758396Y-16516484D02*
X4710777Y-16516484D01*
X4910777Y-16516484D02*
X4910777Y-16383150D01*
X4910777Y-16421246D02*
X4920301Y-16402198D01*
X4920301Y-16402198D02*
X4929824Y-16392674D01*
X4929824Y-16392674D02*
X4948872Y-16383150D01*
X4948872Y-16383150D02*
X4967920Y-16383150D01*
X5034586Y-16516484D02*
X5034586Y-16383150D01*
X5034586Y-16316484D02*
X5025063Y-16326008D01*
X5025063Y-16326008D02*
X5034586Y-16335531D01*
X5034586Y-16335531D02*
X5044110Y-16326008D01*
X5044110Y-16326008D02*
X5034586Y-16316484D01*
X5034586Y-16316484D02*
X5034586Y-16335531D01*
X5158396Y-16516484D02*
X5139348Y-16506960D01*
X5139348Y-16506960D02*
X5129824Y-16487912D01*
X5129824Y-16487912D02*
X5129824Y-16316484D01*
X5263158Y-16516484D02*
X5244110Y-16506960D01*
X5244110Y-16506960D02*
X5234586Y-16487912D01*
X5234586Y-16487912D02*
X5234586Y-16316484D01*
X5491729Y-16516484D02*
X5491729Y-16316484D01*
X5491729Y-16316484D02*
X5558396Y-16459341D01*
X5558396Y-16459341D02*
X5625062Y-16316484D01*
X5625062Y-16316484D02*
X5625062Y-16516484D01*
X5806015Y-16516484D02*
X5806015Y-16411722D01*
X5806015Y-16411722D02*
X5796491Y-16392674D01*
X5796491Y-16392674D02*
X5777443Y-16383150D01*
X5777443Y-16383150D02*
X5739348Y-16383150D01*
X5739348Y-16383150D02*
X5720301Y-16392674D01*
X5806015Y-16506960D02*
X5786967Y-16516484D01*
X5786967Y-16516484D02*
X5739348Y-16516484D01*
X5739348Y-16516484D02*
X5720301Y-16506960D01*
X5720301Y-16506960D02*
X5710777Y-16487912D01*
X5710777Y-16487912D02*
X5710777Y-16468865D01*
X5710777Y-16468865D02*
X5720301Y-16449817D01*
X5720301Y-16449817D02*
X5739348Y-16440293D01*
X5739348Y-16440293D02*
X5786967Y-16440293D01*
X5786967Y-16440293D02*
X5806015Y-16430769D01*
X5901253Y-16383150D02*
X5901253Y-16583150D01*
X5901253Y-16392674D02*
X5920301Y-16383150D01*
X5920301Y-16383150D02*
X5958396Y-16383150D01*
X5958396Y-16383150D02*
X5977443Y-16392674D01*
X5977443Y-16392674D02*
X5986967Y-16402198D01*
X5986967Y-16402198D02*
X5996491Y-16421246D01*
X5996491Y-16421246D02*
X5996491Y-16478388D01*
X5996491Y-16478388D02*
X5986967Y-16497436D01*
X5986967Y-16497436D02*
X5977443Y-16506960D01*
X5977443Y-16506960D02*
X5958396Y-16516484D01*
X5958396Y-16516484D02*
X5920301Y-16516484D01*
X5920301Y-16516484D02*
X5901253Y-16506960D01*
X6082205Y-16497436D02*
X6091729Y-16506960D01*
X6091729Y-16506960D02*
X6082205Y-16516484D01*
X6082205Y-16516484D02*
X6072682Y-16506960D01*
X6072682Y-16506960D02*
X6082205Y-16497436D01*
X6082205Y-16497436D02*
X6082205Y-16516484D01*
X6082205Y-16392674D02*
X6091729Y-16402198D01*
X6091729Y-16402198D02*
X6082205Y-16411722D01*
X6082205Y-16411722D02*
X6072682Y-16402198D01*
X6072682Y-16402198D02*
X6082205Y-16392674D01*
X6082205Y-16392674D02*
X6082205Y-16411722D01*
D10*
X4420000Y-16830000D02*
X4450000Y-16860000D01*
X4450000Y-16830000D02*
X4420000Y-16860000D01*
D11*
X4748872Y-16736484D02*
X4767920Y-16736484D01*
X4767920Y-16736484D02*
X4786967Y-16746008D01*
X4786967Y-16746008D02*
X4796491Y-16755531D01*
X4796491Y-16755531D02*
X4806015Y-16774579D01*
X4806015Y-16774579D02*
X4815539Y-16812674D01*
X4815539Y-16812674D02*
X4815539Y-16860293D01*
X4815539Y-16860293D02*
X4806015Y-16898389D01*
X4806015Y-16898389D02*
X4796491Y-16917436D01*
X4796491Y-16917436D02*
X4786967Y-16926960D01*
X4786967Y-16926960D02*
X4767920Y-16936484D01*
X4767920Y-16936484D02*
X4748872Y-16936484D01*
X4748872Y-16936484D02*
X4729824Y-16926960D01*
X4729824Y-16926960D02*
X4720301Y-16917436D01*
X4720301Y-16917436D02*
X4710777Y-16898389D01*
X4710777Y-16898389D02*
X4701253Y-16860293D01*
X4701253Y-16860293D02*
X4701253Y-16812674D01*
X4701253Y-16812674D02*
X4710777Y-16774579D01*
X4710777Y-16774579D02*
X4720301Y-16755531D01*
X4720301Y-16755531D02*
X4729824Y-16746008D01*
X4729824Y-16746008D02*
X4748872Y-16736484D01*
X4901253Y-16917436D02*
X4910777Y-16926960D01*
X4910777Y-16926960D02*
X4901253Y-16936484D01*
X4901253Y-16936484D02*
X4891729Y-16926960D01*
X4891729Y-16926960D02*
X4901253Y-16917436D01*
X4901253Y-16917436D02*
X4901253Y-16936484D01*
X4977444Y-16736484D02*
X5101253Y-16736484D01*
X5101253Y-16736484D02*
X5034586Y-16812674D01*
X5034586Y-16812674D02*
X5063158Y-16812674D01*
X5063158Y-16812674D02*
X5082205Y-16822198D01*
X5082205Y-16822198D02*
X5091729Y-16831722D01*
X5091729Y-16831722D02*
X5101253Y-16850770D01*
X5101253Y-16850770D02*
X5101253Y-16898389D01*
X5101253Y-16898389D02*
X5091729Y-16917436D01*
X5091729Y-16917436D02*
X5082205Y-16926960D01*
X5082205Y-16926960D02*
X5063158Y-16936484D01*
X5063158Y-16936484D02*
X5006015Y-16936484D01*
X5006015Y-16936484D02*
X4986967Y-16926960D01*
X4986967Y-16926960D02*
X4977444Y-16917436D01*
X5225063Y-16736484D02*
X5244110Y-16736484D01*
X5244110Y-16736484D02*
X5263158Y-16746008D01*
X5263158Y-16746008D02*
X5272682Y-16755531D01*
X5272682Y-16755531D02*
X5282205Y-16774579D01*
X5282205Y-16774579D02*
X5291729Y-16812674D01*
X5291729Y-16812674D02*
X5291729Y-16860293D01*
X5291729Y-16860293D02*
X5282205Y-16898389D01*
X5282205Y-16898389D02*
X5272682Y-16917436D01*
X5272682Y-16917436D02*
X5263158Y-16926960D01*
X5263158Y-16926960D02*
X5244110Y-16936484D01*
X5244110Y-16936484D02*
X5225063Y-16936484D01*
X5225063Y-16936484D02*
X5206015Y-16926960D01*
X5206015Y-16926960D02*
X5196491Y-16917436D01*
X5196491Y-16917436D02*
X5186967Y-16898389D01*
X5186967Y-16898389D02*
X5177444Y-16860293D01*
X5177444Y-16860293D02*
X5177444Y-16812674D01*
X5177444Y-16812674D02*
X5186967Y-16774579D01*
X5186967Y-16774579D02*
X5196491Y-16755531D01*
X5196491Y-16755531D02*
X5206015Y-16746008D01*
X5206015Y-16746008D02*
X5225063Y-16736484D01*
X5415539Y-16736484D02*
X5434586Y-16736484D01*
X5434586Y-16736484D02*
X5453634Y-16746008D01*
X5453634Y-16746008D02*
X5463158Y-16755531D01*
X5463158Y-16755531D02*
X5472682Y-16774579D01*
X5472682Y-16774579D02*
X5482205Y-16812674D01*
X5482205Y-16812674D02*
X5482205Y-16860293D01*
X5482205Y-16860293D02*
X5472682Y-16898389D01*
X5472682Y-16898389D02*
X5463158Y-16917436D01*
X5463158Y-16917436D02*
X5453634Y-16926960D01*
X5453634Y-16926960D02*
X5434586Y-16936484D01*
X5434586Y-16936484D02*
X5415539Y-16936484D01*
X5415539Y-16936484D02*
X5396491Y-16926960D01*
X5396491Y-16926960D02*
X5386967Y-16917436D01*
X5386967Y-16917436D02*
X5377444Y-16898389D01*
X5377444Y-16898389D02*
X5367920Y-16860293D01*
X5367920Y-16860293D02*
X5367920Y-16812674D01*
X5367920Y-16812674D02*
X5377444Y-16774579D01*
X5377444Y-16774579D02*
X5386967Y-16755531D01*
X5386967Y-16755531D02*
X5396491Y-16746008D01*
X5396491Y-16746008D02*
X5415539Y-16736484D01*
X5567920Y-16936484D02*
X5567920Y-16803150D01*
X5567920Y-16822198D02*
X5577444Y-16812674D01*
X5577444Y-16812674D02*
X5596491Y-16803150D01*
X5596491Y-16803150D02*
X5625063Y-16803150D01*
X5625063Y-16803150D02*
X5644110Y-16812674D01*
X5644110Y-16812674D02*
X5653634Y-16831722D01*
X5653634Y-16831722D02*
X5653634Y-16936484D01*
X5653634Y-16831722D02*
X5663158Y-16812674D01*
X5663158Y-16812674D02*
X5682205Y-16803150D01*
X5682205Y-16803150D02*
X5710777Y-16803150D01*
X5710777Y-16803150D02*
X5729824Y-16812674D01*
X5729824Y-16812674D02*
X5739348Y-16831722D01*
X5739348Y-16831722D02*
X5739348Y-16936484D01*
X5834586Y-16936484D02*
X5834586Y-16803150D01*
X5834586Y-16822198D02*
X5844110Y-16812674D01*
X5844110Y-16812674D02*
X5863158Y-16803150D01*
X5863158Y-16803150D02*
X5891729Y-16803150D01*
X5891729Y-16803150D02*
X5910777Y-16812674D01*
X5910777Y-16812674D02*
X5920301Y-16831722D01*
X5920301Y-16831722D02*
X5920301Y-16936484D01*
X5920301Y-16831722D02*
X5929824Y-16812674D01*
X5929824Y-16812674D02*
X5948872Y-16803150D01*
X5948872Y-16803150D02*
X5977443Y-16803150D01*
X5977443Y-16803150D02*
X5996491Y-16812674D01*
X5996491Y-16812674D02*
X6006015Y-16831722D01*
X6006015Y-16831722D02*
X6006015Y-16936484D01*
X6396491Y-16726960D02*
X6225063Y-16984103D01*
X6653634Y-16736484D02*
X6672682Y-16736484D01*
X6672682Y-16736484D02*
X6691729Y-16746008D01*
X6691729Y-16746008D02*
X6701253Y-16755531D01*
X6701253Y-16755531D02*
X6710777Y-16774579D01*
X6710777Y-16774579D02*
X6720301Y-16812674D01*
X6720301Y-16812674D02*
X6720301Y-16860293D01*
X6720301Y-16860293D02*
X6710777Y-16898389D01*
X6710777Y-16898389D02*
X6701253Y-16917436D01*
X6701253Y-16917436D02*
X6691729Y-16926960D01*
X6691729Y-16926960D02*
X6672682Y-16936484D01*
X6672682Y-16936484D02*
X6653634Y-16936484D01*
X6653634Y-16936484D02*
X6634586Y-16926960D01*
X6634586Y-16926960D02*
X6625063Y-16917436D01*
X6625063Y-16917436D02*
X6615539Y-16898389D01*
X6615539Y-16898389D02*
X6606015Y-16860293D01*
X6606015Y-16860293D02*
X6606015Y-16812674D01*
X6606015Y-16812674D02*
X6615539Y-16774579D01*
X6615539Y-16774579D02*
X6625063Y-16755531D01*
X6625063Y-16755531D02*
X6634586Y-16746008D01*
X6634586Y-16746008D02*
X6653634Y-16736484D01*
X6806015Y-16917436D02*
X6815539Y-16926960D01*
X6815539Y-16926960D02*
X6806015Y-16936484D01*
X6806015Y-16936484D02*
X6796491Y-16926960D01*
X6796491Y-16926960D02*
X6806015Y-16917436D01*
X6806015Y-16917436D02*
X6806015Y-16936484D01*
X6939348Y-16736484D02*
X6958396Y-16736484D01*
X6958396Y-16736484D02*
X6977444Y-16746008D01*
X6977444Y-16746008D02*
X6986967Y-16755531D01*
X6986967Y-16755531D02*
X6996491Y-16774579D01*
X6996491Y-16774579D02*
X7006015Y-16812674D01*
X7006015Y-16812674D02*
X7006015Y-16860293D01*
X7006015Y-16860293D02*
X6996491Y-16898389D01*
X6996491Y-16898389D02*
X6986967Y-16917436D01*
X6986967Y-16917436D02*
X6977444Y-16926960D01*
X6977444Y-16926960D02*
X6958396Y-16936484D01*
X6958396Y-16936484D02*
X6939348Y-16936484D01*
X6939348Y-16936484D02*
X6920301Y-16926960D01*
X6920301Y-16926960D02*
X6910777Y-16917436D01*
X6910777Y-16917436D02*
X6901253Y-16898389D01*
X6901253Y-16898389D02*
X6891729Y-16860293D01*
X6891729Y-16860293D02*
X6891729Y-16812674D01*
X6891729Y-16812674D02*
X6901253Y-16774579D01*
X6901253Y-16774579D02*
X6910777Y-16755531D01*
X6910777Y-16755531D02*
X6920301Y-16746008D01*
X6920301Y-16746008D02*
X6939348Y-16736484D01*
X7196491Y-16936484D02*
X7082206Y-16936484D01*
X7139348Y-16936484D02*
X7139348Y-16736484D01*
X7139348Y-16736484D02*
X7120301Y-16765055D01*
X7120301Y-16765055D02*
X7101253Y-16784103D01*
X7101253Y-16784103D02*
X7082206Y-16793627D01*
X7386967Y-16936484D02*
X7272682Y-16936484D01*
X7329825Y-16936484D02*
X7329825Y-16736484D01*
X7329825Y-16736484D02*
X7310777Y-16765055D01*
X7310777Y-16765055D02*
X7291729Y-16784103D01*
X7291729Y-16784103D02*
X7272682Y-16793627D01*
X7501253Y-16822198D02*
X7482206Y-16812674D01*
X7482206Y-16812674D02*
X7472682Y-16803150D01*
X7472682Y-16803150D02*
X7463158Y-16784103D01*
X7463158Y-16784103D02*
X7463158Y-16774579D01*
X7463158Y-16774579D02*
X7472682Y-16755531D01*
X7472682Y-16755531D02*
X7482206Y-16746008D01*
X7482206Y-16746008D02*
X7501253Y-16736484D01*
X7501253Y-16736484D02*
X7539348Y-16736484D01*
X7539348Y-16736484D02*
X7558396Y-16746008D01*
X7558396Y-16746008D02*
X7567920Y-16755531D01*
X7567920Y-16755531D02*
X7577444Y-16774579D01*
X7577444Y-16774579D02*
X7577444Y-16784103D01*
X7577444Y-16784103D02*
X7567920Y-16803150D01*
X7567920Y-16803150D02*
X7558396Y-16812674D01*
X7558396Y-16812674D02*
X7539348Y-16822198D01*
X7539348Y-16822198D02*
X7501253Y-16822198D01*
X7501253Y-16822198D02*
X7482206Y-16831722D01*
X7482206Y-16831722D02*
X7472682Y-16841246D01*
X7472682Y-16841246D02*
X7463158Y-16860293D01*
X7463158Y-16860293D02*
X7463158Y-16898389D01*
X7463158Y-16898389D02*
X7472682Y-16917436D01*
X7472682Y-16917436D02*
X7482206Y-16926960D01*
X7482206Y-16926960D02*
X7501253Y-16936484D01*
X7501253Y-16936484D02*
X7539348Y-16936484D01*
X7539348Y-16936484D02*
X7558396Y-16926960D01*
X7558396Y-16926960D02*
X7567920Y-16917436D01*
X7567920Y-16917436D02*
X7577444Y-16898389D01*
X7577444Y-16898389D02*
X7577444Y-16860293D01*
X7577444Y-16860293D02*
X7567920Y-16841246D01*
X7567920Y-16841246D02*
X7558396Y-16831722D01*
X7558396Y-16831722D02*
X7539348Y-16822198D01*
X7653634Y-16736484D02*
X7653634Y-16774579D01*
X7729825Y-16736484D02*
X7729825Y-16774579D01*
X8025063Y-17012674D02*
X8015539Y-17003150D01*
X8015539Y-17003150D02*
X7996491Y-16974579D01*
X7996491Y-16974579D02*
X7986968Y-16955531D01*
X7986968Y-16955531D02*
X7977444Y-16926960D01*
X7977444Y-16926960D02*
X7967920Y-16879341D01*
X7967920Y-16879341D02*
X7967920Y-16841246D01*
X7967920Y-16841246D02*
X7977444Y-16793627D01*
X7977444Y-16793627D02*
X7986968Y-16765055D01*
X7986968Y-16765055D02*
X7996491Y-16746008D01*
X7996491Y-16746008D02*
X8015539Y-16717436D01*
X8015539Y-16717436D02*
X8025063Y-16707912D01*
X8206015Y-16936484D02*
X8091729Y-16936484D01*
X8148872Y-16936484D02*
X8148872Y-16736484D01*
X8148872Y-16736484D02*
X8129825Y-16765055D01*
X8129825Y-16765055D02*
X8110777Y-16784103D01*
X8110777Y-16784103D02*
X8091729Y-16793627D01*
X8282206Y-16755531D02*
X8291729Y-16746008D01*
X8291729Y-16746008D02*
X8310777Y-16736484D01*
X8310777Y-16736484D02*
X8358396Y-16736484D01*
X8358396Y-16736484D02*
X8377444Y-16746008D01*
X8377444Y-16746008D02*
X8386968Y-16755531D01*
X8386968Y-16755531D02*
X8396491Y-16774579D01*
X8396491Y-16774579D02*
X8396491Y-16793627D01*
X8396491Y-16793627D02*
X8386968Y-16822198D01*
X8386968Y-16822198D02*
X8272682Y-16936484D01*
X8272682Y-16936484D02*
X8396491Y-16936484D01*
X8634587Y-16936484D02*
X8634587Y-16736484D01*
X8720301Y-16936484D02*
X8720301Y-16831722D01*
X8720301Y-16831722D02*
X8710777Y-16812674D01*
X8710777Y-16812674D02*
X8691730Y-16803150D01*
X8691730Y-16803150D02*
X8663158Y-16803150D01*
X8663158Y-16803150D02*
X8644111Y-16812674D01*
X8644111Y-16812674D02*
X8634587Y-16822198D01*
X8844111Y-16936484D02*
X8825063Y-16926960D01*
X8825063Y-16926960D02*
X8815539Y-16917436D01*
X8815539Y-16917436D02*
X8806015Y-16898389D01*
X8806015Y-16898389D02*
X8806015Y-16841246D01*
X8806015Y-16841246D02*
X8815539Y-16822198D01*
X8815539Y-16822198D02*
X8825063Y-16812674D01*
X8825063Y-16812674D02*
X8844111Y-16803150D01*
X8844111Y-16803150D02*
X8872682Y-16803150D01*
X8872682Y-16803150D02*
X8891730Y-16812674D01*
X8891730Y-16812674D02*
X8901253Y-16822198D01*
X8901253Y-16822198D02*
X8910777Y-16841246D01*
X8910777Y-16841246D02*
X8910777Y-16898389D01*
X8910777Y-16898389D02*
X8901253Y-16917436D01*
X8901253Y-16917436D02*
X8891730Y-16926960D01*
X8891730Y-16926960D02*
X8872682Y-16936484D01*
X8872682Y-16936484D02*
X8844111Y-16936484D01*
X9025063Y-16936484D02*
X9006015Y-16926960D01*
X9006015Y-16926960D02*
X8996492Y-16907912D01*
X8996492Y-16907912D02*
X8996492Y-16736484D01*
X9177444Y-16926960D02*
X9158396Y-16936484D01*
X9158396Y-16936484D02*
X9120301Y-16936484D01*
X9120301Y-16936484D02*
X9101253Y-16926960D01*
X9101253Y-16926960D02*
X9091730Y-16907912D01*
X9091730Y-16907912D02*
X9091730Y-16831722D01*
X9091730Y-16831722D02*
X9101253Y-16812674D01*
X9101253Y-16812674D02*
X9120301Y-16803150D01*
X9120301Y-16803150D02*
X9158396Y-16803150D01*
X9158396Y-16803150D02*
X9177444Y-16812674D01*
X9177444Y-16812674D02*
X9186968Y-16831722D01*
X9186968Y-16831722D02*
X9186968Y-16850770D01*
X9186968Y-16850770D02*
X9091730Y-16869817D01*
X9263158Y-16926960D02*
X9282206Y-16936484D01*
X9282206Y-16936484D02*
X9320301Y-16936484D01*
X9320301Y-16936484D02*
X9339349Y-16926960D01*
X9339349Y-16926960D02*
X9348873Y-16907912D01*
X9348873Y-16907912D02*
X9348873Y-16898389D01*
X9348873Y-16898389D02*
X9339349Y-16879341D01*
X9339349Y-16879341D02*
X9320301Y-16869817D01*
X9320301Y-16869817D02*
X9291730Y-16869817D01*
X9291730Y-16869817D02*
X9272682Y-16860293D01*
X9272682Y-16860293D02*
X9263158Y-16841246D01*
X9263158Y-16841246D02*
X9263158Y-16831722D01*
X9263158Y-16831722D02*
X9272682Y-16812674D01*
X9272682Y-16812674D02*
X9291730Y-16803150D01*
X9291730Y-16803150D02*
X9320301Y-16803150D01*
X9320301Y-16803150D02*
X9339349Y-16812674D01*
X9415539Y-17012674D02*
X9425063Y-17003150D01*
X9425063Y-17003150D02*
X9444111Y-16974579D01*
X9444111Y-16974579D02*
X9453634Y-16955531D01*
X9453634Y-16955531D02*
X9463158Y-16926960D01*
X9463158Y-16926960D02*
X9472682Y-16879341D01*
X9472682Y-16879341D02*
X9472682Y-16841246D01*
X9472682Y-16841246D02*
X9463158Y-16793627D01*
X9463158Y-16793627D02*
X9453634Y-16765055D01*
X9453634Y-16765055D02*
X9444111Y-16746008D01*
X9444111Y-16746008D02*
X9425063Y-16717436D01*
X9425063Y-16717436D02*
X9415539Y-16707912D01*
D10*
X4450000Y-17109000D02*
G75*
G02*
X4370000Y-17109000I-40000J0D01*
G01*
X4370000Y-17109000D02*
G75*
G02*
X4450000Y-17109000I40000J0D01*
G01*
D11*
X4748872Y-17000484D02*
X4767920Y-17000484D01*
X4767920Y-17000484D02*
X4786967Y-17010008D01*
X4786967Y-17010008D02*
X4796491Y-17019531D01*
X4796491Y-17019531D02*
X4806015Y-17038579D01*
X4806015Y-17038579D02*
X4815539Y-17076674D01*
X4815539Y-17076674D02*
X4815539Y-17124293D01*
X4815539Y-17124293D02*
X4806015Y-17162389D01*
X4806015Y-17162389D02*
X4796491Y-17181436D01*
X4796491Y-17181436D02*
X4786967Y-17190960D01*
X4786967Y-17190960D02*
X4767920Y-17200484D01*
X4767920Y-17200484D02*
X4748872Y-17200484D01*
X4748872Y-17200484D02*
X4729824Y-17190960D01*
X4729824Y-17190960D02*
X4720301Y-17181436D01*
X4720301Y-17181436D02*
X4710777Y-17162389D01*
X4710777Y-17162389D02*
X4701253Y-17124293D01*
X4701253Y-17124293D02*
X4701253Y-17076674D01*
X4701253Y-17076674D02*
X4710777Y-17038579D01*
X4710777Y-17038579D02*
X4720301Y-17019531D01*
X4720301Y-17019531D02*
X4729824Y-17010008D01*
X4729824Y-17010008D02*
X4748872Y-17000484D01*
X4901253Y-17181436D02*
X4910777Y-17190960D01*
X4910777Y-17190960D02*
X4901253Y-17200484D01*
X4901253Y-17200484D02*
X4891729Y-17190960D01*
X4891729Y-17190960D02*
X4901253Y-17181436D01*
X4901253Y-17181436D02*
X4901253Y-17200484D01*
X5025063Y-17086198D02*
X5006015Y-17076674D01*
X5006015Y-17076674D02*
X4996491Y-17067150D01*
X4996491Y-17067150D02*
X4986967Y-17048103D01*
X4986967Y-17048103D02*
X4986967Y-17038579D01*
X4986967Y-17038579D02*
X4996491Y-17019531D01*
X4996491Y-17019531D02*
X5006015Y-17010008D01*
X5006015Y-17010008D02*
X5025063Y-17000484D01*
X5025063Y-17000484D02*
X5063158Y-17000484D01*
X5063158Y-17000484D02*
X5082205Y-17010008D01*
X5082205Y-17010008D02*
X5091729Y-17019531D01*
X5091729Y-17019531D02*
X5101253Y-17038579D01*
X5101253Y-17038579D02*
X5101253Y-17048103D01*
X5101253Y-17048103D02*
X5091729Y-17067150D01*
X5091729Y-17067150D02*
X5082205Y-17076674D01*
X5082205Y-17076674D02*
X5063158Y-17086198D01*
X5063158Y-17086198D02*
X5025063Y-17086198D01*
X5025063Y-17086198D02*
X5006015Y-17095722D01*
X5006015Y-17095722D02*
X4996491Y-17105246D01*
X4996491Y-17105246D02*
X4986967Y-17124293D01*
X4986967Y-17124293D02*
X4986967Y-17162389D01*
X4986967Y-17162389D02*
X4996491Y-17181436D01*
X4996491Y-17181436D02*
X5006015Y-17190960D01*
X5006015Y-17190960D02*
X5025063Y-17200484D01*
X5025063Y-17200484D02*
X5063158Y-17200484D01*
X5063158Y-17200484D02*
X5082205Y-17190960D01*
X5082205Y-17190960D02*
X5091729Y-17181436D01*
X5091729Y-17181436D02*
X5101253Y-17162389D01*
X5101253Y-17162389D02*
X5101253Y-17124293D01*
X5101253Y-17124293D02*
X5091729Y-17105246D01*
X5091729Y-17105246D02*
X5082205Y-17095722D01*
X5082205Y-17095722D02*
X5063158Y-17086198D01*
X5225063Y-17000484D02*
X5244110Y-17000484D01*
X5244110Y-17000484D02*
X5263158Y-17010008D01*
X5263158Y-17010008D02*
X5272682Y-17019531D01*
X5272682Y-17019531D02*
X5282205Y-17038579D01*
X5282205Y-17038579D02*
X5291729Y-17076674D01*
X5291729Y-17076674D02*
X5291729Y-17124293D01*
X5291729Y-17124293D02*
X5282205Y-17162389D01*
X5282205Y-17162389D02*
X5272682Y-17181436D01*
X5272682Y-17181436D02*
X5263158Y-17190960D01*
X5263158Y-17190960D02*
X5244110Y-17200484D01*
X5244110Y-17200484D02*
X5225063Y-17200484D01*
X5225063Y-17200484D02*
X5206015Y-17190960D01*
X5206015Y-17190960D02*
X5196491Y-17181436D01*
X5196491Y-17181436D02*
X5186967Y-17162389D01*
X5186967Y-17162389D02*
X5177444Y-17124293D01*
X5177444Y-17124293D02*
X5177444Y-17076674D01*
X5177444Y-17076674D02*
X5186967Y-17038579D01*
X5186967Y-17038579D02*
X5196491Y-17019531D01*
X5196491Y-17019531D02*
X5206015Y-17010008D01*
X5206015Y-17010008D02*
X5225063Y-17000484D01*
X5415539Y-17000484D02*
X5434586Y-17000484D01*
X5434586Y-17000484D02*
X5453634Y-17010008D01*
X5453634Y-17010008D02*
X5463158Y-17019531D01*
X5463158Y-17019531D02*
X5472682Y-17038579D01*
X5472682Y-17038579D02*
X5482205Y-17076674D01*
X5482205Y-17076674D02*
X5482205Y-17124293D01*
X5482205Y-17124293D02*
X5472682Y-17162389D01*
X5472682Y-17162389D02*
X5463158Y-17181436D01*
X5463158Y-17181436D02*
X5453634Y-17190960D01*
X5453634Y-17190960D02*
X5434586Y-17200484D01*
X5434586Y-17200484D02*
X5415539Y-17200484D01*
X5415539Y-17200484D02*
X5396491Y-17190960D01*
X5396491Y-17190960D02*
X5386967Y-17181436D01*
X5386967Y-17181436D02*
X5377444Y-17162389D01*
X5377444Y-17162389D02*
X5367920Y-17124293D01*
X5367920Y-17124293D02*
X5367920Y-17076674D01*
X5367920Y-17076674D02*
X5377444Y-17038579D01*
X5377444Y-17038579D02*
X5386967Y-17019531D01*
X5386967Y-17019531D02*
X5396491Y-17010008D01*
X5396491Y-17010008D02*
X5415539Y-17000484D01*
X5567920Y-17200484D02*
X5567920Y-17067150D01*
X5567920Y-17086198D02*
X5577444Y-17076674D01*
X5577444Y-17076674D02*
X5596491Y-17067150D01*
X5596491Y-17067150D02*
X5625063Y-17067150D01*
X5625063Y-17067150D02*
X5644110Y-17076674D01*
X5644110Y-17076674D02*
X5653634Y-17095722D01*
X5653634Y-17095722D02*
X5653634Y-17200484D01*
X5653634Y-17095722D02*
X5663158Y-17076674D01*
X5663158Y-17076674D02*
X5682205Y-17067150D01*
X5682205Y-17067150D02*
X5710777Y-17067150D01*
X5710777Y-17067150D02*
X5729824Y-17076674D01*
X5729824Y-17076674D02*
X5739348Y-17095722D01*
X5739348Y-17095722D02*
X5739348Y-17200484D01*
X5834586Y-17200484D02*
X5834586Y-17067150D01*
X5834586Y-17086198D02*
X5844110Y-17076674D01*
X5844110Y-17076674D02*
X5863158Y-17067150D01*
X5863158Y-17067150D02*
X5891729Y-17067150D01*
X5891729Y-17067150D02*
X5910777Y-17076674D01*
X5910777Y-17076674D02*
X5920301Y-17095722D01*
X5920301Y-17095722D02*
X5920301Y-17200484D01*
X5920301Y-17095722D02*
X5929824Y-17076674D01*
X5929824Y-17076674D02*
X5948872Y-17067150D01*
X5948872Y-17067150D02*
X5977443Y-17067150D01*
X5977443Y-17067150D02*
X5996491Y-17076674D01*
X5996491Y-17076674D02*
X6006015Y-17095722D01*
X6006015Y-17095722D02*
X6006015Y-17200484D01*
X6396491Y-16990960D02*
X6225063Y-17248103D01*
X6653634Y-17000484D02*
X6672682Y-17000484D01*
X6672682Y-17000484D02*
X6691729Y-17010008D01*
X6691729Y-17010008D02*
X6701253Y-17019531D01*
X6701253Y-17019531D02*
X6710777Y-17038579D01*
X6710777Y-17038579D02*
X6720301Y-17076674D01*
X6720301Y-17076674D02*
X6720301Y-17124293D01*
X6720301Y-17124293D02*
X6710777Y-17162389D01*
X6710777Y-17162389D02*
X6701253Y-17181436D01*
X6701253Y-17181436D02*
X6691729Y-17190960D01*
X6691729Y-17190960D02*
X6672682Y-17200484D01*
X6672682Y-17200484D02*
X6653634Y-17200484D01*
X6653634Y-17200484D02*
X6634586Y-17190960D01*
X6634586Y-17190960D02*
X6625063Y-17181436D01*
X6625063Y-17181436D02*
X6615539Y-17162389D01*
X6615539Y-17162389D02*
X6606015Y-17124293D01*
X6606015Y-17124293D02*
X6606015Y-17076674D01*
X6606015Y-17076674D02*
X6615539Y-17038579D01*
X6615539Y-17038579D02*
X6625063Y-17019531D01*
X6625063Y-17019531D02*
X6634586Y-17010008D01*
X6634586Y-17010008D02*
X6653634Y-17000484D01*
X6806015Y-17181436D02*
X6815539Y-17190960D01*
X6815539Y-17190960D02*
X6806015Y-17200484D01*
X6806015Y-17200484D02*
X6796491Y-17190960D01*
X6796491Y-17190960D02*
X6806015Y-17181436D01*
X6806015Y-17181436D02*
X6806015Y-17200484D01*
X6939348Y-17000484D02*
X6958396Y-17000484D01*
X6958396Y-17000484D02*
X6977444Y-17010008D01*
X6977444Y-17010008D02*
X6986967Y-17019531D01*
X6986967Y-17019531D02*
X6996491Y-17038579D01*
X6996491Y-17038579D02*
X7006015Y-17076674D01*
X7006015Y-17076674D02*
X7006015Y-17124293D01*
X7006015Y-17124293D02*
X6996491Y-17162389D01*
X6996491Y-17162389D02*
X6986967Y-17181436D01*
X6986967Y-17181436D02*
X6977444Y-17190960D01*
X6977444Y-17190960D02*
X6958396Y-17200484D01*
X6958396Y-17200484D02*
X6939348Y-17200484D01*
X6939348Y-17200484D02*
X6920301Y-17190960D01*
X6920301Y-17190960D02*
X6910777Y-17181436D01*
X6910777Y-17181436D02*
X6901253Y-17162389D01*
X6901253Y-17162389D02*
X6891729Y-17124293D01*
X6891729Y-17124293D02*
X6891729Y-17076674D01*
X6891729Y-17076674D02*
X6901253Y-17038579D01*
X6901253Y-17038579D02*
X6910777Y-17019531D01*
X6910777Y-17019531D02*
X6920301Y-17010008D01*
X6920301Y-17010008D02*
X6939348Y-17000484D01*
X7072682Y-17000484D02*
X7196491Y-17000484D01*
X7196491Y-17000484D02*
X7129825Y-17076674D01*
X7129825Y-17076674D02*
X7158396Y-17076674D01*
X7158396Y-17076674D02*
X7177444Y-17086198D01*
X7177444Y-17086198D02*
X7186967Y-17095722D01*
X7186967Y-17095722D02*
X7196491Y-17114770D01*
X7196491Y-17114770D02*
X7196491Y-17162389D01*
X7196491Y-17162389D02*
X7186967Y-17181436D01*
X7186967Y-17181436D02*
X7177444Y-17190960D01*
X7177444Y-17190960D02*
X7158396Y-17200484D01*
X7158396Y-17200484D02*
X7101253Y-17200484D01*
X7101253Y-17200484D02*
X7082206Y-17190960D01*
X7082206Y-17190960D02*
X7072682Y-17181436D01*
X7386967Y-17200484D02*
X7272682Y-17200484D01*
X7329825Y-17200484D02*
X7329825Y-17000484D01*
X7329825Y-17000484D02*
X7310777Y-17029055D01*
X7310777Y-17029055D02*
X7291729Y-17048103D01*
X7291729Y-17048103D02*
X7272682Y-17057627D01*
X7567920Y-17000484D02*
X7472682Y-17000484D01*
X7472682Y-17000484D02*
X7463158Y-17095722D01*
X7463158Y-17095722D02*
X7472682Y-17086198D01*
X7472682Y-17086198D02*
X7491729Y-17076674D01*
X7491729Y-17076674D02*
X7539348Y-17076674D01*
X7539348Y-17076674D02*
X7558396Y-17086198D01*
X7558396Y-17086198D02*
X7567920Y-17095722D01*
X7567920Y-17095722D02*
X7577444Y-17114770D01*
X7577444Y-17114770D02*
X7577444Y-17162389D01*
X7577444Y-17162389D02*
X7567920Y-17181436D01*
X7567920Y-17181436D02*
X7558396Y-17190960D01*
X7558396Y-17190960D02*
X7539348Y-17200484D01*
X7539348Y-17200484D02*
X7491729Y-17200484D01*
X7491729Y-17200484D02*
X7472682Y-17190960D01*
X7472682Y-17190960D02*
X7463158Y-17181436D01*
X7653634Y-17000484D02*
X7653634Y-17038579D01*
X7729825Y-17000484D02*
X7729825Y-17038579D01*
X8025063Y-17276674D02*
X8015539Y-17267150D01*
X8015539Y-17267150D02*
X7996491Y-17238579D01*
X7996491Y-17238579D02*
X7986968Y-17219531D01*
X7986968Y-17219531D02*
X7977444Y-17190960D01*
X7977444Y-17190960D02*
X7967920Y-17143341D01*
X7967920Y-17143341D02*
X7967920Y-17105246D01*
X7967920Y-17105246D02*
X7977444Y-17057627D01*
X7977444Y-17057627D02*
X7986968Y-17029055D01*
X7986968Y-17029055D02*
X7996491Y-17010008D01*
X7996491Y-17010008D02*
X8015539Y-16981436D01*
X8015539Y-16981436D02*
X8025063Y-16971912D01*
X8206015Y-17200484D02*
X8091729Y-17200484D01*
X8148872Y-17200484D02*
X8148872Y-17000484D01*
X8148872Y-17000484D02*
X8129825Y-17029055D01*
X8129825Y-17029055D02*
X8110777Y-17048103D01*
X8110777Y-17048103D02*
X8091729Y-17057627D01*
X8320301Y-17086198D02*
X8301253Y-17076674D01*
X8301253Y-17076674D02*
X8291729Y-17067150D01*
X8291729Y-17067150D02*
X8282206Y-17048103D01*
X8282206Y-17048103D02*
X8282206Y-17038579D01*
X8282206Y-17038579D02*
X8291729Y-17019531D01*
X8291729Y-17019531D02*
X8301253Y-17010008D01*
X8301253Y-17010008D02*
X8320301Y-17000484D01*
X8320301Y-17000484D02*
X8358396Y-17000484D01*
X8358396Y-17000484D02*
X8377444Y-17010008D01*
X8377444Y-17010008D02*
X8386968Y-17019531D01*
X8386968Y-17019531D02*
X8396491Y-17038579D01*
X8396491Y-17038579D02*
X8396491Y-17048103D01*
X8396491Y-17048103D02*
X8386968Y-17067150D01*
X8386968Y-17067150D02*
X8377444Y-17076674D01*
X8377444Y-17076674D02*
X8358396Y-17086198D01*
X8358396Y-17086198D02*
X8320301Y-17086198D01*
X8320301Y-17086198D02*
X8301253Y-17095722D01*
X8301253Y-17095722D02*
X8291729Y-17105246D01*
X8291729Y-17105246D02*
X8282206Y-17124293D01*
X8282206Y-17124293D02*
X8282206Y-17162389D01*
X8282206Y-17162389D02*
X8291729Y-17181436D01*
X8291729Y-17181436D02*
X8301253Y-17190960D01*
X8301253Y-17190960D02*
X8320301Y-17200484D01*
X8320301Y-17200484D02*
X8358396Y-17200484D01*
X8358396Y-17200484D02*
X8377444Y-17190960D01*
X8377444Y-17190960D02*
X8386968Y-17181436D01*
X8386968Y-17181436D02*
X8396491Y-17162389D01*
X8396491Y-17162389D02*
X8396491Y-17124293D01*
X8396491Y-17124293D02*
X8386968Y-17105246D01*
X8386968Y-17105246D02*
X8377444Y-17095722D01*
X8377444Y-17095722D02*
X8358396Y-17086198D01*
X8634587Y-17200484D02*
X8634587Y-17000484D01*
X8720301Y-17200484D02*
X8720301Y-17095722D01*
X8720301Y-17095722D02*
X8710777Y-17076674D01*
X8710777Y-17076674D02*
X8691730Y-17067150D01*
X8691730Y-17067150D02*
X8663158Y-17067150D01*
X8663158Y-17067150D02*
X8644111Y-17076674D01*
X8644111Y-17076674D02*
X8634587Y-17086198D01*
X8844111Y-17200484D02*
X8825063Y-17190960D01*
X8825063Y-17190960D02*
X8815539Y-17181436D01*
X8815539Y-17181436D02*
X8806015Y-17162389D01*
X8806015Y-17162389D02*
X8806015Y-17105246D01*
X8806015Y-17105246D02*
X8815539Y-17086198D01*
X8815539Y-17086198D02*
X8825063Y-17076674D01*
X8825063Y-17076674D02*
X8844111Y-17067150D01*
X8844111Y-17067150D02*
X8872682Y-17067150D01*
X8872682Y-17067150D02*
X8891730Y-17076674D01*
X8891730Y-17076674D02*
X8901253Y-17086198D01*
X8901253Y-17086198D02*
X8910777Y-17105246D01*
X8910777Y-17105246D02*
X8910777Y-17162389D01*
X8910777Y-17162389D02*
X8901253Y-17181436D01*
X8901253Y-17181436D02*
X8891730Y-17190960D01*
X8891730Y-17190960D02*
X8872682Y-17200484D01*
X8872682Y-17200484D02*
X8844111Y-17200484D01*
X9025063Y-17200484D02*
X9006015Y-17190960D01*
X9006015Y-17190960D02*
X8996492Y-17171912D01*
X8996492Y-17171912D02*
X8996492Y-17000484D01*
X9177444Y-17190960D02*
X9158396Y-17200484D01*
X9158396Y-17200484D02*
X9120301Y-17200484D01*
X9120301Y-17200484D02*
X9101253Y-17190960D01*
X9101253Y-17190960D02*
X9091730Y-17171912D01*
X9091730Y-17171912D02*
X9091730Y-17095722D01*
X9091730Y-17095722D02*
X9101253Y-17076674D01*
X9101253Y-17076674D02*
X9120301Y-17067150D01*
X9120301Y-17067150D02*
X9158396Y-17067150D01*
X9158396Y-17067150D02*
X9177444Y-17076674D01*
X9177444Y-17076674D02*
X9186968Y-17095722D01*
X9186968Y-17095722D02*
X9186968Y-17114770D01*
X9186968Y-17114770D02*
X9091730Y-17133817D01*
X9263158Y-17190960D02*
X9282206Y-17200484D01*
X9282206Y-17200484D02*
X9320301Y-17200484D01*
X9320301Y-17200484D02*
X9339349Y-17190960D01*
X9339349Y-17190960D02*
X9348873Y-17171912D01*
X9348873Y-17171912D02*
X9348873Y-17162389D01*
X9348873Y-17162389D02*
X9339349Y-17143341D01*
X9339349Y-17143341D02*
X9320301Y-17133817D01*
X9320301Y-17133817D02*
X9291730Y-17133817D01*
X9291730Y-17133817D02*
X9272682Y-17124293D01*
X9272682Y-17124293D02*
X9263158Y-17105246D01*
X9263158Y-17105246D02*
X9263158Y-17095722D01*
X9263158Y-17095722D02*
X9272682Y-17076674D01*
X9272682Y-17076674D02*
X9291730Y-17067150D01*
X9291730Y-17067150D02*
X9320301Y-17067150D01*
X9320301Y-17067150D02*
X9339349Y-17076674D01*
X9415539Y-17276674D02*
X9425063Y-17267150D01*
X9425063Y-17267150D02*
X9444111Y-17238579D01*
X9444111Y-17238579D02*
X9453634Y-17219531D01*
X9453634Y-17219531D02*
X9463158Y-17190960D01*
X9463158Y-17190960D02*
X9472682Y-17143341D01*
X9472682Y-17143341D02*
X9472682Y-17105246D01*
X9472682Y-17105246D02*
X9463158Y-17057627D01*
X9463158Y-17057627D02*
X9453634Y-17029055D01*
X9453634Y-17029055D02*
X9444111Y-17010008D01*
X9444111Y-17010008D02*
X9425063Y-16981436D01*
X9425063Y-16981436D02*
X9415539Y-16971912D01*
D10*
X4405000Y-17328000D02*
X4405000Y-17418000D01*
X4360000Y-17373000D02*
X4450000Y-17373000D01*
D11*
X4748872Y-17264484D02*
X4767920Y-17264484D01*
X4767920Y-17264484D02*
X4786967Y-17274008D01*
X4786967Y-17274008D02*
X4796491Y-17283531D01*
X4796491Y-17283531D02*
X4806015Y-17302579D01*
X4806015Y-17302579D02*
X4815539Y-17340674D01*
X4815539Y-17340674D02*
X4815539Y-17388293D01*
X4815539Y-17388293D02*
X4806015Y-17426389D01*
X4806015Y-17426389D02*
X4796491Y-17445436D01*
X4796491Y-17445436D02*
X4786967Y-17454960D01*
X4786967Y-17454960D02*
X4767920Y-17464484D01*
X4767920Y-17464484D02*
X4748872Y-17464484D01*
X4748872Y-17464484D02*
X4729824Y-17454960D01*
X4729824Y-17454960D02*
X4720301Y-17445436D01*
X4720301Y-17445436D02*
X4710777Y-17426389D01*
X4710777Y-17426389D02*
X4701253Y-17388293D01*
X4701253Y-17388293D02*
X4701253Y-17340674D01*
X4701253Y-17340674D02*
X4710777Y-17302579D01*
X4710777Y-17302579D02*
X4720301Y-17283531D01*
X4720301Y-17283531D02*
X4729824Y-17274008D01*
X4729824Y-17274008D02*
X4748872Y-17264484D01*
X4901253Y-17445436D02*
X4910777Y-17454960D01*
X4910777Y-17454960D02*
X4901253Y-17464484D01*
X4901253Y-17464484D02*
X4891729Y-17454960D01*
X4891729Y-17454960D02*
X4901253Y-17445436D01*
X4901253Y-17445436D02*
X4901253Y-17464484D01*
X5006015Y-17464484D02*
X5044110Y-17464484D01*
X5044110Y-17464484D02*
X5063158Y-17454960D01*
X5063158Y-17454960D02*
X5072682Y-17445436D01*
X5072682Y-17445436D02*
X5091729Y-17416865D01*
X5091729Y-17416865D02*
X5101253Y-17378770D01*
X5101253Y-17378770D02*
X5101253Y-17302579D01*
X5101253Y-17302579D02*
X5091729Y-17283531D01*
X5091729Y-17283531D02*
X5082205Y-17274008D01*
X5082205Y-17274008D02*
X5063158Y-17264484D01*
X5063158Y-17264484D02*
X5025063Y-17264484D01*
X5025063Y-17264484D02*
X5006015Y-17274008D01*
X5006015Y-17274008D02*
X4996491Y-17283531D01*
X4996491Y-17283531D02*
X4986967Y-17302579D01*
X4986967Y-17302579D02*
X4986967Y-17350198D01*
X4986967Y-17350198D02*
X4996491Y-17369246D01*
X4996491Y-17369246D02*
X5006015Y-17378770D01*
X5006015Y-17378770D02*
X5025063Y-17388293D01*
X5025063Y-17388293D02*
X5063158Y-17388293D01*
X5063158Y-17388293D02*
X5082205Y-17378770D01*
X5082205Y-17378770D02*
X5091729Y-17369246D01*
X5091729Y-17369246D02*
X5101253Y-17350198D01*
X5225063Y-17264484D02*
X5244110Y-17264484D01*
X5244110Y-17264484D02*
X5263158Y-17274008D01*
X5263158Y-17274008D02*
X5272682Y-17283531D01*
X5272682Y-17283531D02*
X5282205Y-17302579D01*
X5282205Y-17302579D02*
X5291729Y-17340674D01*
X5291729Y-17340674D02*
X5291729Y-17388293D01*
X5291729Y-17388293D02*
X5282205Y-17426389D01*
X5282205Y-17426389D02*
X5272682Y-17445436D01*
X5272682Y-17445436D02*
X5263158Y-17454960D01*
X5263158Y-17454960D02*
X5244110Y-17464484D01*
X5244110Y-17464484D02*
X5225063Y-17464484D01*
X5225063Y-17464484D02*
X5206015Y-17454960D01*
X5206015Y-17454960D02*
X5196491Y-17445436D01*
X5196491Y-17445436D02*
X5186967Y-17426389D01*
X5186967Y-17426389D02*
X5177444Y-17388293D01*
X5177444Y-17388293D02*
X5177444Y-17340674D01*
X5177444Y-17340674D02*
X5186967Y-17302579D01*
X5186967Y-17302579D02*
X5196491Y-17283531D01*
X5196491Y-17283531D02*
X5206015Y-17274008D01*
X5206015Y-17274008D02*
X5225063Y-17264484D01*
X5415539Y-17264484D02*
X5434586Y-17264484D01*
X5434586Y-17264484D02*
X5453634Y-17274008D01*
X5453634Y-17274008D02*
X5463158Y-17283531D01*
X5463158Y-17283531D02*
X5472682Y-17302579D01*
X5472682Y-17302579D02*
X5482205Y-17340674D01*
X5482205Y-17340674D02*
X5482205Y-17388293D01*
X5482205Y-17388293D02*
X5472682Y-17426389D01*
X5472682Y-17426389D02*
X5463158Y-17445436D01*
X5463158Y-17445436D02*
X5453634Y-17454960D01*
X5453634Y-17454960D02*
X5434586Y-17464484D01*
X5434586Y-17464484D02*
X5415539Y-17464484D01*
X5415539Y-17464484D02*
X5396491Y-17454960D01*
X5396491Y-17454960D02*
X5386967Y-17445436D01*
X5386967Y-17445436D02*
X5377444Y-17426389D01*
X5377444Y-17426389D02*
X5367920Y-17388293D01*
X5367920Y-17388293D02*
X5367920Y-17340674D01*
X5367920Y-17340674D02*
X5377444Y-17302579D01*
X5377444Y-17302579D02*
X5386967Y-17283531D01*
X5386967Y-17283531D02*
X5396491Y-17274008D01*
X5396491Y-17274008D02*
X5415539Y-17264484D01*
X5567920Y-17464484D02*
X5567920Y-17331150D01*
X5567920Y-17350198D02*
X5577444Y-17340674D01*
X5577444Y-17340674D02*
X5596491Y-17331150D01*
X5596491Y-17331150D02*
X5625063Y-17331150D01*
X5625063Y-17331150D02*
X5644110Y-17340674D01*
X5644110Y-17340674D02*
X5653634Y-17359722D01*
X5653634Y-17359722D02*
X5653634Y-17464484D01*
X5653634Y-17359722D02*
X5663158Y-17340674D01*
X5663158Y-17340674D02*
X5682205Y-17331150D01*
X5682205Y-17331150D02*
X5710777Y-17331150D01*
X5710777Y-17331150D02*
X5729824Y-17340674D01*
X5729824Y-17340674D02*
X5739348Y-17359722D01*
X5739348Y-17359722D02*
X5739348Y-17464484D01*
X5834586Y-17464484D02*
X5834586Y-17331150D01*
X5834586Y-17350198D02*
X5844110Y-17340674D01*
X5844110Y-17340674D02*
X5863158Y-17331150D01*
X5863158Y-17331150D02*
X5891729Y-17331150D01*
X5891729Y-17331150D02*
X5910777Y-17340674D01*
X5910777Y-17340674D02*
X5920301Y-17359722D01*
X5920301Y-17359722D02*
X5920301Y-17464484D01*
X5920301Y-17359722D02*
X5929824Y-17340674D01*
X5929824Y-17340674D02*
X5948872Y-17331150D01*
X5948872Y-17331150D02*
X5977443Y-17331150D01*
X5977443Y-17331150D02*
X5996491Y-17340674D01*
X5996491Y-17340674D02*
X6006015Y-17359722D01*
X6006015Y-17359722D02*
X6006015Y-17464484D01*
X6396491Y-17254960D02*
X6225063Y-17512103D01*
X6653634Y-17264484D02*
X6672682Y-17264484D01*
X6672682Y-17264484D02*
X6691729Y-17274008D01*
X6691729Y-17274008D02*
X6701253Y-17283531D01*
X6701253Y-17283531D02*
X6710777Y-17302579D01*
X6710777Y-17302579D02*
X6720301Y-17340674D01*
X6720301Y-17340674D02*
X6720301Y-17388293D01*
X6720301Y-17388293D02*
X6710777Y-17426389D01*
X6710777Y-17426389D02*
X6701253Y-17445436D01*
X6701253Y-17445436D02*
X6691729Y-17454960D01*
X6691729Y-17454960D02*
X6672682Y-17464484D01*
X6672682Y-17464484D02*
X6653634Y-17464484D01*
X6653634Y-17464484D02*
X6634586Y-17454960D01*
X6634586Y-17454960D02*
X6625063Y-17445436D01*
X6625063Y-17445436D02*
X6615539Y-17426389D01*
X6615539Y-17426389D02*
X6606015Y-17388293D01*
X6606015Y-17388293D02*
X6606015Y-17340674D01*
X6606015Y-17340674D02*
X6615539Y-17302579D01*
X6615539Y-17302579D02*
X6625063Y-17283531D01*
X6625063Y-17283531D02*
X6634586Y-17274008D01*
X6634586Y-17274008D02*
X6653634Y-17264484D01*
X6806015Y-17445436D02*
X6815539Y-17454960D01*
X6815539Y-17454960D02*
X6806015Y-17464484D01*
X6806015Y-17464484D02*
X6796491Y-17454960D01*
X6796491Y-17454960D02*
X6806015Y-17445436D01*
X6806015Y-17445436D02*
X6806015Y-17464484D01*
X6939348Y-17264484D02*
X6958396Y-17264484D01*
X6958396Y-17264484D02*
X6977444Y-17274008D01*
X6977444Y-17274008D02*
X6986967Y-17283531D01*
X6986967Y-17283531D02*
X6996491Y-17302579D01*
X6996491Y-17302579D02*
X7006015Y-17340674D01*
X7006015Y-17340674D02*
X7006015Y-17388293D01*
X7006015Y-17388293D02*
X6996491Y-17426389D01*
X6996491Y-17426389D02*
X6986967Y-17445436D01*
X6986967Y-17445436D02*
X6977444Y-17454960D01*
X6977444Y-17454960D02*
X6958396Y-17464484D01*
X6958396Y-17464484D02*
X6939348Y-17464484D01*
X6939348Y-17464484D02*
X6920301Y-17454960D01*
X6920301Y-17454960D02*
X6910777Y-17445436D01*
X6910777Y-17445436D02*
X6901253Y-17426389D01*
X6901253Y-17426389D02*
X6891729Y-17388293D01*
X6891729Y-17388293D02*
X6891729Y-17340674D01*
X6891729Y-17340674D02*
X6901253Y-17302579D01*
X6901253Y-17302579D02*
X6910777Y-17283531D01*
X6910777Y-17283531D02*
X6920301Y-17274008D01*
X6920301Y-17274008D02*
X6939348Y-17264484D01*
X7072682Y-17264484D02*
X7196491Y-17264484D01*
X7196491Y-17264484D02*
X7129825Y-17340674D01*
X7129825Y-17340674D02*
X7158396Y-17340674D01*
X7158396Y-17340674D02*
X7177444Y-17350198D01*
X7177444Y-17350198D02*
X7186967Y-17359722D01*
X7186967Y-17359722D02*
X7196491Y-17378770D01*
X7196491Y-17378770D02*
X7196491Y-17426389D01*
X7196491Y-17426389D02*
X7186967Y-17445436D01*
X7186967Y-17445436D02*
X7177444Y-17454960D01*
X7177444Y-17454960D02*
X7158396Y-17464484D01*
X7158396Y-17464484D02*
X7101253Y-17464484D01*
X7101253Y-17464484D02*
X7082206Y-17454960D01*
X7082206Y-17454960D02*
X7072682Y-17445436D01*
X7377444Y-17264484D02*
X7282206Y-17264484D01*
X7282206Y-17264484D02*
X7272682Y-17359722D01*
X7272682Y-17359722D02*
X7282206Y-17350198D01*
X7282206Y-17350198D02*
X7301253Y-17340674D01*
X7301253Y-17340674D02*
X7348872Y-17340674D01*
X7348872Y-17340674D02*
X7367920Y-17350198D01*
X7367920Y-17350198D02*
X7377444Y-17359722D01*
X7377444Y-17359722D02*
X7386967Y-17378770D01*
X7386967Y-17378770D02*
X7386967Y-17426389D01*
X7386967Y-17426389D02*
X7377444Y-17445436D01*
X7377444Y-17445436D02*
X7367920Y-17454960D01*
X7367920Y-17454960D02*
X7348872Y-17464484D01*
X7348872Y-17464484D02*
X7301253Y-17464484D01*
X7301253Y-17464484D02*
X7282206Y-17454960D01*
X7282206Y-17454960D02*
X7272682Y-17445436D01*
X7558396Y-17331150D02*
X7558396Y-17464484D01*
X7510777Y-17254960D02*
X7463158Y-17397817D01*
X7463158Y-17397817D02*
X7586967Y-17397817D01*
X7653634Y-17264484D02*
X7653634Y-17302579D01*
X7729825Y-17264484D02*
X7729825Y-17302579D01*
X8025063Y-17540674D02*
X8015539Y-17531150D01*
X8015539Y-17531150D02*
X7996491Y-17502579D01*
X7996491Y-17502579D02*
X7986968Y-17483531D01*
X7986968Y-17483531D02*
X7977444Y-17454960D01*
X7977444Y-17454960D02*
X7967920Y-17407341D01*
X7967920Y-17407341D02*
X7967920Y-17369246D01*
X7967920Y-17369246D02*
X7977444Y-17321627D01*
X7977444Y-17321627D02*
X7986968Y-17293055D01*
X7986968Y-17293055D02*
X7996491Y-17274008D01*
X7996491Y-17274008D02*
X8015539Y-17245436D01*
X8015539Y-17245436D02*
X8025063Y-17235912D01*
X8196491Y-17264484D02*
X8101253Y-17264484D01*
X8101253Y-17264484D02*
X8091729Y-17359722D01*
X8091729Y-17359722D02*
X8101253Y-17350198D01*
X8101253Y-17350198D02*
X8120301Y-17340674D01*
X8120301Y-17340674D02*
X8167920Y-17340674D01*
X8167920Y-17340674D02*
X8186968Y-17350198D01*
X8186968Y-17350198D02*
X8196491Y-17359722D01*
X8196491Y-17359722D02*
X8206015Y-17378770D01*
X8206015Y-17378770D02*
X8206015Y-17426389D01*
X8206015Y-17426389D02*
X8196491Y-17445436D01*
X8196491Y-17445436D02*
X8186968Y-17454960D01*
X8186968Y-17454960D02*
X8167920Y-17464484D01*
X8167920Y-17464484D02*
X8120301Y-17464484D01*
X8120301Y-17464484D02*
X8101253Y-17454960D01*
X8101253Y-17454960D02*
X8091729Y-17445436D01*
X8329825Y-17264484D02*
X8348872Y-17264484D01*
X8348872Y-17264484D02*
X8367920Y-17274008D01*
X8367920Y-17274008D02*
X8377444Y-17283531D01*
X8377444Y-17283531D02*
X8386968Y-17302579D01*
X8386968Y-17302579D02*
X8396491Y-17340674D01*
X8396491Y-17340674D02*
X8396491Y-17388293D01*
X8396491Y-17388293D02*
X8386968Y-17426389D01*
X8386968Y-17426389D02*
X8377444Y-17445436D01*
X8377444Y-17445436D02*
X8367920Y-17454960D01*
X8367920Y-17454960D02*
X8348872Y-17464484D01*
X8348872Y-17464484D02*
X8329825Y-17464484D01*
X8329825Y-17464484D02*
X8310777Y-17454960D01*
X8310777Y-17454960D02*
X8301253Y-17445436D01*
X8301253Y-17445436D02*
X8291729Y-17426389D01*
X8291729Y-17426389D02*
X8282206Y-17388293D01*
X8282206Y-17388293D02*
X8282206Y-17340674D01*
X8282206Y-17340674D02*
X8291729Y-17302579D01*
X8291729Y-17302579D02*
X8301253Y-17283531D01*
X8301253Y-17283531D02*
X8310777Y-17274008D01*
X8310777Y-17274008D02*
X8329825Y-17264484D01*
X8634587Y-17464484D02*
X8634587Y-17264484D01*
X8720301Y-17464484D02*
X8720301Y-17359722D01*
X8720301Y-17359722D02*
X8710777Y-17340674D01*
X8710777Y-17340674D02*
X8691730Y-17331150D01*
X8691730Y-17331150D02*
X8663158Y-17331150D01*
X8663158Y-17331150D02*
X8644111Y-17340674D01*
X8644111Y-17340674D02*
X8634587Y-17350198D01*
X8844111Y-17464484D02*
X8825063Y-17454960D01*
X8825063Y-17454960D02*
X8815539Y-17445436D01*
X8815539Y-17445436D02*
X8806015Y-17426389D01*
X8806015Y-17426389D02*
X8806015Y-17369246D01*
X8806015Y-17369246D02*
X8815539Y-17350198D01*
X8815539Y-17350198D02*
X8825063Y-17340674D01*
X8825063Y-17340674D02*
X8844111Y-17331150D01*
X8844111Y-17331150D02*
X8872682Y-17331150D01*
X8872682Y-17331150D02*
X8891730Y-17340674D01*
X8891730Y-17340674D02*
X8901253Y-17350198D01*
X8901253Y-17350198D02*
X8910777Y-17369246D01*
X8910777Y-17369246D02*
X8910777Y-17426389D01*
X8910777Y-17426389D02*
X8901253Y-17445436D01*
X8901253Y-17445436D02*
X8891730Y-17454960D01*
X8891730Y-17454960D02*
X8872682Y-17464484D01*
X8872682Y-17464484D02*
X8844111Y-17464484D01*
X9025063Y-17464484D02*
X9006015Y-17454960D01*
X9006015Y-17454960D02*
X8996492Y-17435912D01*
X8996492Y-17435912D02*
X8996492Y-17264484D01*
X9177444Y-17454960D02*
X9158396Y-17464484D01*
X9158396Y-17464484D02*
X9120301Y-17464484D01*
X9120301Y-17464484D02*
X9101253Y-17454960D01*
X9101253Y-17454960D02*
X9091730Y-17435912D01*
X9091730Y-17435912D02*
X9091730Y-17359722D01*
X9091730Y-17359722D02*
X9101253Y-17340674D01*
X9101253Y-17340674D02*
X9120301Y-17331150D01*
X9120301Y-17331150D02*
X9158396Y-17331150D01*
X9158396Y-17331150D02*
X9177444Y-17340674D01*
X9177444Y-17340674D02*
X9186968Y-17359722D01*
X9186968Y-17359722D02*
X9186968Y-17378770D01*
X9186968Y-17378770D02*
X9091730Y-17397817D01*
X9263158Y-17454960D02*
X9282206Y-17464484D01*
X9282206Y-17464484D02*
X9320301Y-17464484D01*
X9320301Y-17464484D02*
X9339349Y-17454960D01*
X9339349Y-17454960D02*
X9348873Y-17435912D01*
X9348873Y-17435912D02*
X9348873Y-17426389D01*
X9348873Y-17426389D02*
X9339349Y-17407341D01*
X9339349Y-17407341D02*
X9320301Y-17397817D01*
X9320301Y-17397817D02*
X9291730Y-17397817D01*
X9291730Y-17397817D02*
X9272682Y-17388293D01*
X9272682Y-17388293D02*
X9263158Y-17369246D01*
X9263158Y-17369246D02*
X9263158Y-17359722D01*
X9263158Y-17359722D02*
X9272682Y-17340674D01*
X9272682Y-17340674D02*
X9291730Y-17331150D01*
X9291730Y-17331150D02*
X9320301Y-17331150D01*
X9320301Y-17331150D02*
X9339349Y-17340674D01*
X9415539Y-17540674D02*
X9425063Y-17531150D01*
X9425063Y-17531150D02*
X9444111Y-17502579D01*
X9444111Y-17502579D02*
X9453634Y-17483531D01*
X9453634Y-17483531D02*
X9463158Y-17454960D01*
X9463158Y-17454960D02*
X9472682Y-17407341D01*
X9472682Y-17407341D02*
X9472682Y-17369246D01*
X9472682Y-17369246D02*
X9463158Y-17321627D01*
X9463158Y-17321627D02*
X9453634Y-17293055D01*
X9453634Y-17293055D02*
X9444111Y-17274008D01*
X9444111Y-17274008D02*
X9425063Y-17245436D01*
X9425063Y-17245436D02*
X9415539Y-17235912D01*
D10*
X4435356Y-17672356D02*
X4435356Y-17601644D01*
X4364644Y-17601644D01*
X4364644Y-17672356D01*
X4435356Y-17672356D01*
D11*
X4815539Y-17728484D02*
X4701253Y-17728484D01*
X4758396Y-17728484D02*
X4758396Y-17528484D01*
X4758396Y-17528484D02*
X4739348Y-17557055D01*
X4739348Y-17557055D02*
X4720301Y-17576103D01*
X4720301Y-17576103D02*
X4701253Y-17585627D01*
X4901253Y-17709436D02*
X4910777Y-17718960D01*
X4910777Y-17718960D02*
X4901253Y-17728484D01*
X4901253Y-17728484D02*
X4891729Y-17718960D01*
X4891729Y-17718960D02*
X4901253Y-17709436D01*
X4901253Y-17709436D02*
X4901253Y-17728484D01*
X5034586Y-17528484D02*
X5053634Y-17528484D01*
X5053634Y-17528484D02*
X5072682Y-17538008D01*
X5072682Y-17538008D02*
X5082205Y-17547531D01*
X5082205Y-17547531D02*
X5091729Y-17566579D01*
X5091729Y-17566579D02*
X5101253Y-17604674D01*
X5101253Y-17604674D02*
X5101253Y-17652293D01*
X5101253Y-17652293D02*
X5091729Y-17690389D01*
X5091729Y-17690389D02*
X5082205Y-17709436D01*
X5082205Y-17709436D02*
X5072682Y-17718960D01*
X5072682Y-17718960D02*
X5053634Y-17728484D01*
X5053634Y-17728484D02*
X5034586Y-17728484D01*
X5034586Y-17728484D02*
X5015539Y-17718960D01*
X5015539Y-17718960D02*
X5006015Y-17709436D01*
X5006015Y-17709436D02*
X4996491Y-17690389D01*
X4996491Y-17690389D02*
X4986967Y-17652293D01*
X4986967Y-17652293D02*
X4986967Y-17604674D01*
X4986967Y-17604674D02*
X4996491Y-17566579D01*
X4996491Y-17566579D02*
X5006015Y-17547531D01*
X5006015Y-17547531D02*
X5015539Y-17538008D01*
X5015539Y-17538008D02*
X5034586Y-17528484D01*
X5225063Y-17528484D02*
X5244110Y-17528484D01*
X5244110Y-17528484D02*
X5263158Y-17538008D01*
X5263158Y-17538008D02*
X5272682Y-17547531D01*
X5272682Y-17547531D02*
X5282205Y-17566579D01*
X5282205Y-17566579D02*
X5291729Y-17604674D01*
X5291729Y-17604674D02*
X5291729Y-17652293D01*
X5291729Y-17652293D02*
X5282205Y-17690389D01*
X5282205Y-17690389D02*
X5272682Y-17709436D01*
X5272682Y-17709436D02*
X5263158Y-17718960D01*
X5263158Y-17718960D02*
X5244110Y-17728484D01*
X5244110Y-17728484D02*
X5225063Y-17728484D01*
X5225063Y-17728484D02*
X5206015Y-17718960D01*
X5206015Y-17718960D02*
X5196491Y-17709436D01*
X5196491Y-17709436D02*
X5186967Y-17690389D01*
X5186967Y-17690389D02*
X5177444Y-17652293D01*
X5177444Y-17652293D02*
X5177444Y-17604674D01*
X5177444Y-17604674D02*
X5186967Y-17566579D01*
X5186967Y-17566579D02*
X5196491Y-17547531D01*
X5196491Y-17547531D02*
X5206015Y-17538008D01*
X5206015Y-17538008D02*
X5225063Y-17528484D01*
X5415539Y-17528484D02*
X5434586Y-17528484D01*
X5434586Y-17528484D02*
X5453634Y-17538008D01*
X5453634Y-17538008D02*
X5463158Y-17547531D01*
X5463158Y-17547531D02*
X5472682Y-17566579D01*
X5472682Y-17566579D02*
X5482205Y-17604674D01*
X5482205Y-17604674D02*
X5482205Y-17652293D01*
X5482205Y-17652293D02*
X5472682Y-17690389D01*
X5472682Y-17690389D02*
X5463158Y-17709436D01*
X5463158Y-17709436D02*
X5453634Y-17718960D01*
X5453634Y-17718960D02*
X5434586Y-17728484D01*
X5434586Y-17728484D02*
X5415539Y-17728484D01*
X5415539Y-17728484D02*
X5396491Y-17718960D01*
X5396491Y-17718960D02*
X5386967Y-17709436D01*
X5386967Y-17709436D02*
X5377444Y-17690389D01*
X5377444Y-17690389D02*
X5367920Y-17652293D01*
X5367920Y-17652293D02*
X5367920Y-17604674D01*
X5367920Y-17604674D02*
X5377444Y-17566579D01*
X5377444Y-17566579D02*
X5386967Y-17547531D01*
X5386967Y-17547531D02*
X5396491Y-17538008D01*
X5396491Y-17538008D02*
X5415539Y-17528484D01*
X5567920Y-17728484D02*
X5567920Y-17595150D01*
X5567920Y-17614198D02*
X5577444Y-17604674D01*
X5577444Y-17604674D02*
X5596491Y-17595150D01*
X5596491Y-17595150D02*
X5625063Y-17595150D01*
X5625063Y-17595150D02*
X5644110Y-17604674D01*
X5644110Y-17604674D02*
X5653634Y-17623722D01*
X5653634Y-17623722D02*
X5653634Y-17728484D01*
X5653634Y-17623722D02*
X5663158Y-17604674D01*
X5663158Y-17604674D02*
X5682205Y-17595150D01*
X5682205Y-17595150D02*
X5710777Y-17595150D01*
X5710777Y-17595150D02*
X5729824Y-17604674D01*
X5729824Y-17604674D02*
X5739348Y-17623722D01*
X5739348Y-17623722D02*
X5739348Y-17728484D01*
X5834586Y-17728484D02*
X5834586Y-17595150D01*
X5834586Y-17614198D02*
X5844110Y-17604674D01*
X5844110Y-17604674D02*
X5863158Y-17595150D01*
X5863158Y-17595150D02*
X5891729Y-17595150D01*
X5891729Y-17595150D02*
X5910777Y-17604674D01*
X5910777Y-17604674D02*
X5920301Y-17623722D01*
X5920301Y-17623722D02*
X5920301Y-17728484D01*
X5920301Y-17623722D02*
X5929824Y-17604674D01*
X5929824Y-17604674D02*
X5948872Y-17595150D01*
X5948872Y-17595150D02*
X5977443Y-17595150D01*
X5977443Y-17595150D02*
X5996491Y-17604674D01*
X5996491Y-17604674D02*
X6006015Y-17623722D01*
X6006015Y-17623722D02*
X6006015Y-17728484D01*
X6396491Y-17518960D02*
X6225063Y-17776103D01*
X6653634Y-17528484D02*
X6672682Y-17528484D01*
X6672682Y-17528484D02*
X6691729Y-17538008D01*
X6691729Y-17538008D02*
X6701253Y-17547531D01*
X6701253Y-17547531D02*
X6710777Y-17566579D01*
X6710777Y-17566579D02*
X6720301Y-17604674D01*
X6720301Y-17604674D02*
X6720301Y-17652293D01*
X6720301Y-17652293D02*
X6710777Y-17690389D01*
X6710777Y-17690389D02*
X6701253Y-17709436D01*
X6701253Y-17709436D02*
X6691729Y-17718960D01*
X6691729Y-17718960D02*
X6672682Y-17728484D01*
X6672682Y-17728484D02*
X6653634Y-17728484D01*
X6653634Y-17728484D02*
X6634586Y-17718960D01*
X6634586Y-17718960D02*
X6625063Y-17709436D01*
X6625063Y-17709436D02*
X6615539Y-17690389D01*
X6615539Y-17690389D02*
X6606015Y-17652293D01*
X6606015Y-17652293D02*
X6606015Y-17604674D01*
X6606015Y-17604674D02*
X6615539Y-17566579D01*
X6615539Y-17566579D02*
X6625063Y-17547531D01*
X6625063Y-17547531D02*
X6634586Y-17538008D01*
X6634586Y-17538008D02*
X6653634Y-17528484D01*
X6806015Y-17709436D02*
X6815539Y-17718960D01*
X6815539Y-17718960D02*
X6806015Y-17728484D01*
X6806015Y-17728484D02*
X6796491Y-17718960D01*
X6796491Y-17718960D02*
X6806015Y-17709436D01*
X6806015Y-17709436D02*
X6806015Y-17728484D01*
X6939348Y-17528484D02*
X6958396Y-17528484D01*
X6958396Y-17528484D02*
X6977444Y-17538008D01*
X6977444Y-17538008D02*
X6986967Y-17547531D01*
X6986967Y-17547531D02*
X6996491Y-17566579D01*
X6996491Y-17566579D02*
X7006015Y-17604674D01*
X7006015Y-17604674D02*
X7006015Y-17652293D01*
X7006015Y-17652293D02*
X6996491Y-17690389D01*
X6996491Y-17690389D02*
X6986967Y-17709436D01*
X6986967Y-17709436D02*
X6977444Y-17718960D01*
X6977444Y-17718960D02*
X6958396Y-17728484D01*
X6958396Y-17728484D02*
X6939348Y-17728484D01*
X6939348Y-17728484D02*
X6920301Y-17718960D01*
X6920301Y-17718960D02*
X6910777Y-17709436D01*
X6910777Y-17709436D02*
X6901253Y-17690389D01*
X6901253Y-17690389D02*
X6891729Y-17652293D01*
X6891729Y-17652293D02*
X6891729Y-17604674D01*
X6891729Y-17604674D02*
X6901253Y-17566579D01*
X6901253Y-17566579D02*
X6910777Y-17547531D01*
X6910777Y-17547531D02*
X6920301Y-17538008D01*
X6920301Y-17538008D02*
X6939348Y-17528484D01*
X7072682Y-17528484D02*
X7196491Y-17528484D01*
X7196491Y-17528484D02*
X7129825Y-17604674D01*
X7129825Y-17604674D02*
X7158396Y-17604674D01*
X7158396Y-17604674D02*
X7177444Y-17614198D01*
X7177444Y-17614198D02*
X7186967Y-17623722D01*
X7186967Y-17623722D02*
X7196491Y-17642770D01*
X7196491Y-17642770D02*
X7196491Y-17690389D01*
X7196491Y-17690389D02*
X7186967Y-17709436D01*
X7186967Y-17709436D02*
X7177444Y-17718960D01*
X7177444Y-17718960D02*
X7158396Y-17728484D01*
X7158396Y-17728484D02*
X7101253Y-17728484D01*
X7101253Y-17728484D02*
X7082206Y-17718960D01*
X7082206Y-17718960D02*
X7072682Y-17709436D01*
X7291729Y-17728484D02*
X7329825Y-17728484D01*
X7329825Y-17728484D02*
X7348872Y-17718960D01*
X7348872Y-17718960D02*
X7358396Y-17709436D01*
X7358396Y-17709436D02*
X7377444Y-17680865D01*
X7377444Y-17680865D02*
X7386967Y-17642770D01*
X7386967Y-17642770D02*
X7386967Y-17566579D01*
X7386967Y-17566579D02*
X7377444Y-17547531D01*
X7377444Y-17547531D02*
X7367920Y-17538008D01*
X7367920Y-17538008D02*
X7348872Y-17528484D01*
X7348872Y-17528484D02*
X7310777Y-17528484D01*
X7310777Y-17528484D02*
X7291729Y-17538008D01*
X7291729Y-17538008D02*
X7282206Y-17547531D01*
X7282206Y-17547531D02*
X7272682Y-17566579D01*
X7272682Y-17566579D02*
X7272682Y-17614198D01*
X7272682Y-17614198D02*
X7282206Y-17633246D01*
X7282206Y-17633246D02*
X7291729Y-17642770D01*
X7291729Y-17642770D02*
X7310777Y-17652293D01*
X7310777Y-17652293D02*
X7348872Y-17652293D01*
X7348872Y-17652293D02*
X7367920Y-17642770D01*
X7367920Y-17642770D02*
X7377444Y-17633246D01*
X7377444Y-17633246D02*
X7386967Y-17614198D01*
X7558396Y-17595150D02*
X7558396Y-17728484D01*
X7510777Y-17518960D02*
X7463158Y-17661817D01*
X7463158Y-17661817D02*
X7586967Y-17661817D01*
X7653634Y-17528484D02*
X7653634Y-17566579D01*
X7729825Y-17528484D02*
X7729825Y-17566579D01*
X8025063Y-17804674D02*
X8015539Y-17795150D01*
X8015539Y-17795150D02*
X7996491Y-17766579D01*
X7996491Y-17766579D02*
X7986968Y-17747531D01*
X7986968Y-17747531D02*
X7977444Y-17718960D01*
X7977444Y-17718960D02*
X7967920Y-17671341D01*
X7967920Y-17671341D02*
X7967920Y-17633246D01*
X7967920Y-17633246D02*
X7977444Y-17585627D01*
X7977444Y-17585627D02*
X7986968Y-17557055D01*
X7986968Y-17557055D02*
X7996491Y-17538008D01*
X7996491Y-17538008D02*
X8015539Y-17509436D01*
X8015539Y-17509436D02*
X8025063Y-17499912D01*
X8196491Y-17528484D02*
X8101253Y-17528484D01*
X8101253Y-17528484D02*
X8091729Y-17623722D01*
X8091729Y-17623722D02*
X8101253Y-17614198D01*
X8101253Y-17614198D02*
X8120301Y-17604674D01*
X8120301Y-17604674D02*
X8167920Y-17604674D01*
X8167920Y-17604674D02*
X8186968Y-17614198D01*
X8186968Y-17614198D02*
X8196491Y-17623722D01*
X8196491Y-17623722D02*
X8206015Y-17642770D01*
X8206015Y-17642770D02*
X8206015Y-17690389D01*
X8206015Y-17690389D02*
X8196491Y-17709436D01*
X8196491Y-17709436D02*
X8186968Y-17718960D01*
X8186968Y-17718960D02*
X8167920Y-17728484D01*
X8167920Y-17728484D02*
X8120301Y-17728484D01*
X8120301Y-17728484D02*
X8101253Y-17718960D01*
X8101253Y-17718960D02*
X8091729Y-17709436D01*
X8444111Y-17728484D02*
X8444111Y-17528484D01*
X8529825Y-17728484D02*
X8529825Y-17623722D01*
X8529825Y-17623722D02*
X8520301Y-17604674D01*
X8520301Y-17604674D02*
X8501253Y-17595150D01*
X8501253Y-17595150D02*
X8472682Y-17595150D01*
X8472682Y-17595150D02*
X8453634Y-17604674D01*
X8453634Y-17604674D02*
X8444111Y-17614198D01*
X8653634Y-17728484D02*
X8634587Y-17718960D01*
X8634587Y-17718960D02*
X8625063Y-17709436D01*
X8625063Y-17709436D02*
X8615539Y-17690389D01*
X8615539Y-17690389D02*
X8615539Y-17633246D01*
X8615539Y-17633246D02*
X8625063Y-17614198D01*
X8625063Y-17614198D02*
X8634587Y-17604674D01*
X8634587Y-17604674D02*
X8653634Y-17595150D01*
X8653634Y-17595150D02*
X8682206Y-17595150D01*
X8682206Y-17595150D02*
X8701253Y-17604674D01*
X8701253Y-17604674D02*
X8710777Y-17614198D01*
X8710777Y-17614198D02*
X8720301Y-17633246D01*
X8720301Y-17633246D02*
X8720301Y-17690389D01*
X8720301Y-17690389D02*
X8710777Y-17709436D01*
X8710777Y-17709436D02*
X8701253Y-17718960D01*
X8701253Y-17718960D02*
X8682206Y-17728484D01*
X8682206Y-17728484D02*
X8653634Y-17728484D01*
X8834587Y-17728484D02*
X8815539Y-17718960D01*
X8815539Y-17718960D02*
X8806015Y-17699912D01*
X8806015Y-17699912D02*
X8806015Y-17528484D01*
X8986968Y-17718960D02*
X8967920Y-17728484D01*
X8967920Y-17728484D02*
X8929825Y-17728484D01*
X8929825Y-17728484D02*
X8910777Y-17718960D01*
X8910777Y-17718960D02*
X8901253Y-17699912D01*
X8901253Y-17699912D02*
X8901253Y-17623722D01*
X8901253Y-17623722D02*
X8910777Y-17604674D01*
X8910777Y-17604674D02*
X8929825Y-17595150D01*
X8929825Y-17595150D02*
X8967920Y-17595150D01*
X8967920Y-17595150D02*
X8986968Y-17604674D01*
X8986968Y-17604674D02*
X8996492Y-17623722D01*
X8996492Y-17623722D02*
X8996492Y-17642770D01*
X8996492Y-17642770D02*
X8901253Y-17661817D01*
X9072682Y-17718960D02*
X9091730Y-17728484D01*
X9091730Y-17728484D02*
X9129825Y-17728484D01*
X9129825Y-17728484D02*
X9148873Y-17718960D01*
X9148873Y-17718960D02*
X9158396Y-17699912D01*
X9158396Y-17699912D02*
X9158396Y-17690389D01*
X9158396Y-17690389D02*
X9148873Y-17671341D01*
X9148873Y-17671341D02*
X9129825Y-17661817D01*
X9129825Y-17661817D02*
X9101253Y-17661817D01*
X9101253Y-17661817D02*
X9082206Y-17652293D01*
X9082206Y-17652293D02*
X9072682Y-17633246D01*
X9072682Y-17633246D02*
X9072682Y-17623722D01*
X9072682Y-17623722D02*
X9082206Y-17604674D01*
X9082206Y-17604674D02*
X9101253Y-17595150D01*
X9101253Y-17595150D02*
X9129825Y-17595150D01*
X9129825Y-17595150D02*
X9148873Y-17604674D01*
X9225063Y-17804674D02*
X9234587Y-17795150D01*
X9234587Y-17795150D02*
X9253634Y-17766579D01*
X9253634Y-17766579D02*
X9263158Y-17747531D01*
X9263158Y-17747531D02*
X9272682Y-17718960D01*
X9272682Y-17718960D02*
X9282206Y-17671341D01*
X9282206Y-17671341D02*
X9282206Y-17633246D01*
X9282206Y-17633246D02*
X9272682Y-17585627D01*
X9272682Y-17585627D02*
X9263158Y-17557055D01*
X9263158Y-17557055D02*
X9253634Y-17538008D01*
X9253634Y-17538008D02*
X9234587Y-17509436D01*
X9234587Y-17509436D02*
X9225063Y-17499912D01*
X4350000Y-18001000D02*
X4450000Y-17901000D01*
X4350000Y-17801000D01*
X4250000Y-17901000D01*
X4350000Y-18001000D01*
X4701253Y-17811531D02*
X4710777Y-17802008D01*
X4710777Y-17802008D02*
X4729824Y-17792484D01*
X4729824Y-17792484D02*
X4777444Y-17792484D01*
X4777444Y-17792484D02*
X4796491Y-17802008D01*
X4796491Y-17802008D02*
X4806015Y-17811531D01*
X4806015Y-17811531D02*
X4815539Y-17830579D01*
X4815539Y-17830579D02*
X4815539Y-17849627D01*
X4815539Y-17849627D02*
X4806015Y-17878198D01*
X4806015Y-17878198D02*
X4691729Y-17992484D01*
X4691729Y-17992484D02*
X4815539Y-17992484D01*
X4901253Y-17973436D02*
X4910777Y-17982960D01*
X4910777Y-17982960D02*
X4901253Y-17992484D01*
X4901253Y-17992484D02*
X4891729Y-17982960D01*
X4891729Y-17982960D02*
X4901253Y-17973436D01*
X4901253Y-17973436D02*
X4901253Y-17992484D01*
X5034586Y-17792484D02*
X5053634Y-17792484D01*
X5053634Y-17792484D02*
X5072682Y-17802008D01*
X5072682Y-17802008D02*
X5082205Y-17811531D01*
X5082205Y-17811531D02*
X5091729Y-17830579D01*
X5091729Y-17830579D02*
X5101253Y-17868674D01*
X5101253Y-17868674D02*
X5101253Y-17916293D01*
X5101253Y-17916293D02*
X5091729Y-17954389D01*
X5091729Y-17954389D02*
X5082205Y-17973436D01*
X5082205Y-17973436D02*
X5072682Y-17982960D01*
X5072682Y-17982960D02*
X5053634Y-17992484D01*
X5053634Y-17992484D02*
X5034586Y-17992484D01*
X5034586Y-17992484D02*
X5015539Y-17982960D01*
X5015539Y-17982960D02*
X5006015Y-17973436D01*
X5006015Y-17973436D02*
X4996491Y-17954389D01*
X4996491Y-17954389D02*
X4986967Y-17916293D01*
X4986967Y-17916293D02*
X4986967Y-17868674D01*
X4986967Y-17868674D02*
X4996491Y-17830579D01*
X4996491Y-17830579D02*
X5006015Y-17811531D01*
X5006015Y-17811531D02*
X5015539Y-17802008D01*
X5015539Y-17802008D02*
X5034586Y-17792484D01*
X5225063Y-17792484D02*
X5244110Y-17792484D01*
X5244110Y-17792484D02*
X5263158Y-17802008D01*
X5263158Y-17802008D02*
X5272682Y-17811531D01*
X5272682Y-17811531D02*
X5282205Y-17830579D01*
X5282205Y-17830579D02*
X5291729Y-17868674D01*
X5291729Y-17868674D02*
X5291729Y-17916293D01*
X5291729Y-17916293D02*
X5282205Y-17954389D01*
X5282205Y-17954389D02*
X5272682Y-17973436D01*
X5272682Y-17973436D02*
X5263158Y-17982960D01*
X5263158Y-17982960D02*
X5244110Y-17992484D01*
X5244110Y-17992484D02*
X5225063Y-17992484D01*
X5225063Y-17992484D02*
X5206015Y-17982960D01*
X5206015Y-17982960D02*
X5196491Y-17973436D01*
X5196491Y-17973436D02*
X5186967Y-17954389D01*
X5186967Y-17954389D02*
X5177444Y-17916293D01*
X5177444Y-17916293D02*
X5177444Y-17868674D01*
X5177444Y-17868674D02*
X5186967Y-17830579D01*
X5186967Y-17830579D02*
X5196491Y-17811531D01*
X5196491Y-17811531D02*
X5206015Y-17802008D01*
X5206015Y-17802008D02*
X5225063Y-17792484D01*
X5415539Y-17792484D02*
X5434586Y-17792484D01*
X5434586Y-17792484D02*
X5453634Y-17802008D01*
X5453634Y-17802008D02*
X5463158Y-17811531D01*
X5463158Y-17811531D02*
X5472682Y-17830579D01*
X5472682Y-17830579D02*
X5482205Y-17868674D01*
X5482205Y-17868674D02*
X5482205Y-17916293D01*
X5482205Y-17916293D02*
X5472682Y-17954389D01*
X5472682Y-17954389D02*
X5463158Y-17973436D01*
X5463158Y-17973436D02*
X5453634Y-17982960D01*
X5453634Y-17982960D02*
X5434586Y-17992484D01*
X5434586Y-17992484D02*
X5415539Y-17992484D01*
X5415539Y-17992484D02*
X5396491Y-17982960D01*
X5396491Y-17982960D02*
X5386967Y-17973436D01*
X5386967Y-17973436D02*
X5377444Y-17954389D01*
X5377444Y-17954389D02*
X5367920Y-17916293D01*
X5367920Y-17916293D02*
X5367920Y-17868674D01*
X5367920Y-17868674D02*
X5377444Y-17830579D01*
X5377444Y-17830579D02*
X5386967Y-17811531D01*
X5386967Y-17811531D02*
X5396491Y-17802008D01*
X5396491Y-17802008D02*
X5415539Y-17792484D01*
X5567920Y-17992484D02*
X5567920Y-17859150D01*
X5567920Y-17878198D02*
X5577444Y-17868674D01*
X5577444Y-17868674D02*
X5596491Y-17859150D01*
X5596491Y-17859150D02*
X5625063Y-17859150D01*
X5625063Y-17859150D02*
X5644110Y-17868674D01*
X5644110Y-17868674D02*
X5653634Y-17887722D01*
X5653634Y-17887722D02*
X5653634Y-17992484D01*
X5653634Y-17887722D02*
X5663158Y-17868674D01*
X5663158Y-17868674D02*
X5682205Y-17859150D01*
X5682205Y-17859150D02*
X5710777Y-17859150D01*
X5710777Y-17859150D02*
X5729824Y-17868674D01*
X5729824Y-17868674D02*
X5739348Y-17887722D01*
X5739348Y-17887722D02*
X5739348Y-17992484D01*
X5834586Y-17992484D02*
X5834586Y-17859150D01*
X5834586Y-17878198D02*
X5844110Y-17868674D01*
X5844110Y-17868674D02*
X5863158Y-17859150D01*
X5863158Y-17859150D02*
X5891729Y-17859150D01*
X5891729Y-17859150D02*
X5910777Y-17868674D01*
X5910777Y-17868674D02*
X5920301Y-17887722D01*
X5920301Y-17887722D02*
X5920301Y-17992484D01*
X5920301Y-17887722D02*
X5929824Y-17868674D01*
X5929824Y-17868674D02*
X5948872Y-17859150D01*
X5948872Y-17859150D02*
X5977443Y-17859150D01*
X5977443Y-17859150D02*
X5996491Y-17868674D01*
X5996491Y-17868674D02*
X6006015Y-17887722D01*
X6006015Y-17887722D02*
X6006015Y-17992484D01*
X6396491Y-17782960D02*
X6225063Y-18040103D01*
X6653634Y-17792484D02*
X6672682Y-17792484D01*
X6672682Y-17792484D02*
X6691729Y-17802008D01*
X6691729Y-17802008D02*
X6701253Y-17811531D01*
X6701253Y-17811531D02*
X6710777Y-17830579D01*
X6710777Y-17830579D02*
X6720301Y-17868674D01*
X6720301Y-17868674D02*
X6720301Y-17916293D01*
X6720301Y-17916293D02*
X6710777Y-17954389D01*
X6710777Y-17954389D02*
X6701253Y-17973436D01*
X6701253Y-17973436D02*
X6691729Y-17982960D01*
X6691729Y-17982960D02*
X6672682Y-17992484D01*
X6672682Y-17992484D02*
X6653634Y-17992484D01*
X6653634Y-17992484D02*
X6634586Y-17982960D01*
X6634586Y-17982960D02*
X6625063Y-17973436D01*
X6625063Y-17973436D02*
X6615539Y-17954389D01*
X6615539Y-17954389D02*
X6606015Y-17916293D01*
X6606015Y-17916293D02*
X6606015Y-17868674D01*
X6606015Y-17868674D02*
X6615539Y-17830579D01*
X6615539Y-17830579D02*
X6625063Y-17811531D01*
X6625063Y-17811531D02*
X6634586Y-17802008D01*
X6634586Y-17802008D02*
X6653634Y-17792484D01*
X6806015Y-17973436D02*
X6815539Y-17982960D01*
X6815539Y-17982960D02*
X6806015Y-17992484D01*
X6806015Y-17992484D02*
X6796491Y-17982960D01*
X6796491Y-17982960D02*
X6806015Y-17973436D01*
X6806015Y-17973436D02*
X6806015Y-17992484D01*
X6939348Y-17792484D02*
X6958396Y-17792484D01*
X6958396Y-17792484D02*
X6977444Y-17802008D01*
X6977444Y-17802008D02*
X6986967Y-17811531D01*
X6986967Y-17811531D02*
X6996491Y-17830579D01*
X6996491Y-17830579D02*
X7006015Y-17868674D01*
X7006015Y-17868674D02*
X7006015Y-17916293D01*
X7006015Y-17916293D02*
X6996491Y-17954389D01*
X6996491Y-17954389D02*
X6986967Y-17973436D01*
X6986967Y-17973436D02*
X6977444Y-17982960D01*
X6977444Y-17982960D02*
X6958396Y-17992484D01*
X6958396Y-17992484D02*
X6939348Y-17992484D01*
X6939348Y-17992484D02*
X6920301Y-17982960D01*
X6920301Y-17982960D02*
X6910777Y-17973436D01*
X6910777Y-17973436D02*
X6901253Y-17954389D01*
X6901253Y-17954389D02*
X6891729Y-17916293D01*
X6891729Y-17916293D02*
X6891729Y-17868674D01*
X6891729Y-17868674D02*
X6901253Y-17830579D01*
X6901253Y-17830579D02*
X6910777Y-17811531D01*
X6910777Y-17811531D02*
X6920301Y-17802008D01*
X6920301Y-17802008D02*
X6939348Y-17792484D01*
X7072682Y-17792484D02*
X7206015Y-17792484D01*
X7206015Y-17792484D02*
X7120301Y-17992484D01*
X7310777Y-17878198D02*
X7291729Y-17868674D01*
X7291729Y-17868674D02*
X7282206Y-17859150D01*
X7282206Y-17859150D02*
X7272682Y-17840103D01*
X7272682Y-17840103D02*
X7272682Y-17830579D01*
X7272682Y-17830579D02*
X7282206Y-17811531D01*
X7282206Y-17811531D02*
X7291729Y-17802008D01*
X7291729Y-17802008D02*
X7310777Y-17792484D01*
X7310777Y-17792484D02*
X7348872Y-17792484D01*
X7348872Y-17792484D02*
X7367920Y-17802008D01*
X7367920Y-17802008D02*
X7377444Y-17811531D01*
X7377444Y-17811531D02*
X7386967Y-17830579D01*
X7386967Y-17830579D02*
X7386967Y-17840103D01*
X7386967Y-17840103D02*
X7377444Y-17859150D01*
X7377444Y-17859150D02*
X7367920Y-17868674D01*
X7367920Y-17868674D02*
X7348872Y-17878198D01*
X7348872Y-17878198D02*
X7310777Y-17878198D01*
X7310777Y-17878198D02*
X7291729Y-17887722D01*
X7291729Y-17887722D02*
X7282206Y-17897246D01*
X7282206Y-17897246D02*
X7272682Y-17916293D01*
X7272682Y-17916293D02*
X7272682Y-17954389D01*
X7272682Y-17954389D02*
X7282206Y-17973436D01*
X7282206Y-17973436D02*
X7291729Y-17982960D01*
X7291729Y-17982960D02*
X7310777Y-17992484D01*
X7310777Y-17992484D02*
X7348872Y-17992484D01*
X7348872Y-17992484D02*
X7367920Y-17982960D01*
X7367920Y-17982960D02*
X7377444Y-17973436D01*
X7377444Y-17973436D02*
X7386967Y-17954389D01*
X7386967Y-17954389D02*
X7386967Y-17916293D01*
X7386967Y-17916293D02*
X7377444Y-17897246D01*
X7377444Y-17897246D02*
X7367920Y-17887722D01*
X7367920Y-17887722D02*
X7348872Y-17878198D01*
X7453634Y-17792484D02*
X7586967Y-17792484D01*
X7586967Y-17792484D02*
X7501253Y-17992484D01*
X7653634Y-17792484D02*
X7653634Y-17830579D01*
X7729825Y-17792484D02*
X7729825Y-17830579D01*
X8025063Y-18068674D02*
X8015539Y-18059150D01*
X8015539Y-18059150D02*
X7996491Y-18030579D01*
X7996491Y-18030579D02*
X7986968Y-18011531D01*
X7986968Y-18011531D02*
X7977444Y-17982960D01*
X7977444Y-17982960D02*
X7967920Y-17935341D01*
X7967920Y-17935341D02*
X7967920Y-17897246D01*
X7967920Y-17897246D02*
X7977444Y-17849627D01*
X7977444Y-17849627D02*
X7986968Y-17821055D01*
X7986968Y-17821055D02*
X7996491Y-17802008D01*
X7996491Y-17802008D02*
X8015539Y-17773436D01*
X8015539Y-17773436D02*
X8025063Y-17763912D01*
X8139348Y-17792484D02*
X8158396Y-17792484D01*
X8158396Y-17792484D02*
X8177444Y-17802008D01*
X8177444Y-17802008D02*
X8186968Y-17811531D01*
X8186968Y-17811531D02*
X8196491Y-17830579D01*
X8196491Y-17830579D02*
X8206015Y-17868674D01*
X8206015Y-17868674D02*
X8206015Y-17916293D01*
X8206015Y-17916293D02*
X8196491Y-17954389D01*
X8196491Y-17954389D02*
X8186968Y-17973436D01*
X8186968Y-17973436D02*
X8177444Y-17982960D01*
X8177444Y-17982960D02*
X8158396Y-17992484D01*
X8158396Y-17992484D02*
X8139348Y-17992484D01*
X8139348Y-17992484D02*
X8120301Y-17982960D01*
X8120301Y-17982960D02*
X8110777Y-17973436D01*
X8110777Y-17973436D02*
X8101253Y-17954389D01*
X8101253Y-17954389D02*
X8091729Y-17916293D01*
X8091729Y-17916293D02*
X8091729Y-17868674D01*
X8091729Y-17868674D02*
X8101253Y-17830579D01*
X8101253Y-17830579D02*
X8110777Y-17811531D01*
X8110777Y-17811531D02*
X8120301Y-17802008D01*
X8120301Y-17802008D02*
X8139348Y-17792484D01*
X8444111Y-17992484D02*
X8444111Y-17792484D01*
X8529825Y-17992484D02*
X8529825Y-17887722D01*
X8529825Y-17887722D02*
X8520301Y-17868674D01*
X8520301Y-17868674D02*
X8501253Y-17859150D01*
X8501253Y-17859150D02*
X8472682Y-17859150D01*
X8472682Y-17859150D02*
X8453634Y-17868674D01*
X8453634Y-17868674D02*
X8444111Y-17878198D01*
X8653634Y-17992484D02*
X8634587Y-17982960D01*
X8634587Y-17982960D02*
X8625063Y-17973436D01*
X8625063Y-17973436D02*
X8615539Y-17954389D01*
X8615539Y-17954389D02*
X8615539Y-17897246D01*
X8615539Y-17897246D02*
X8625063Y-17878198D01*
X8625063Y-17878198D02*
X8634587Y-17868674D01*
X8634587Y-17868674D02*
X8653634Y-17859150D01*
X8653634Y-17859150D02*
X8682206Y-17859150D01*
X8682206Y-17859150D02*
X8701253Y-17868674D01*
X8701253Y-17868674D02*
X8710777Y-17878198D01*
X8710777Y-17878198D02*
X8720301Y-17897246D01*
X8720301Y-17897246D02*
X8720301Y-17954389D01*
X8720301Y-17954389D02*
X8710777Y-17973436D01*
X8710777Y-17973436D02*
X8701253Y-17982960D01*
X8701253Y-17982960D02*
X8682206Y-17992484D01*
X8682206Y-17992484D02*
X8653634Y-17992484D01*
X8834587Y-17992484D02*
X8815539Y-17982960D01*
X8815539Y-17982960D02*
X8806015Y-17963912D01*
X8806015Y-17963912D02*
X8806015Y-17792484D01*
X8986968Y-17982960D02*
X8967920Y-17992484D01*
X8967920Y-17992484D02*
X8929825Y-17992484D01*
X8929825Y-17992484D02*
X8910777Y-17982960D01*
X8910777Y-17982960D02*
X8901253Y-17963912D01*
X8901253Y-17963912D02*
X8901253Y-17887722D01*
X8901253Y-17887722D02*
X8910777Y-17868674D01*
X8910777Y-17868674D02*
X8929825Y-17859150D01*
X8929825Y-17859150D02*
X8967920Y-17859150D01*
X8967920Y-17859150D02*
X8986968Y-17868674D01*
X8986968Y-17868674D02*
X8996492Y-17887722D01*
X8996492Y-17887722D02*
X8996492Y-17906770D01*
X8996492Y-17906770D02*
X8901253Y-17925817D01*
X9072682Y-17982960D02*
X9091730Y-17992484D01*
X9091730Y-17992484D02*
X9129825Y-17992484D01*
X9129825Y-17992484D02*
X9148873Y-17982960D01*
X9148873Y-17982960D02*
X9158396Y-17963912D01*
X9158396Y-17963912D02*
X9158396Y-17954389D01*
X9158396Y-17954389D02*
X9148873Y-17935341D01*
X9148873Y-17935341D02*
X9129825Y-17925817D01*
X9129825Y-17925817D02*
X9101253Y-17925817D01*
X9101253Y-17925817D02*
X9082206Y-17916293D01*
X9082206Y-17916293D02*
X9072682Y-17897246D01*
X9072682Y-17897246D02*
X9072682Y-17887722D01*
X9072682Y-17887722D02*
X9082206Y-17868674D01*
X9082206Y-17868674D02*
X9101253Y-17859150D01*
X9101253Y-17859150D02*
X9129825Y-17859150D01*
X9129825Y-17859150D02*
X9148873Y-17868674D01*
X9396492Y-17916293D02*
X9548873Y-17916293D01*
X9472682Y-17992484D02*
X9472682Y-17840103D01*
X9786968Y-17811531D02*
X9796492Y-17802008D01*
X9796492Y-17802008D02*
X9815539Y-17792484D01*
X9815539Y-17792484D02*
X9863158Y-17792484D01*
X9863158Y-17792484D02*
X9882206Y-17802008D01*
X9882206Y-17802008D02*
X9891730Y-17811531D01*
X9891730Y-17811531D02*
X9901254Y-17830579D01*
X9901254Y-17830579D02*
X9901254Y-17849627D01*
X9901254Y-17849627D02*
X9891730Y-17878198D01*
X9891730Y-17878198D02*
X9777444Y-17992484D01*
X9777444Y-17992484D02*
X9901254Y-17992484D01*
X10129825Y-17982960D02*
X10148873Y-17992484D01*
X10148873Y-17992484D02*
X10186968Y-17992484D01*
X10186968Y-17992484D02*
X10206016Y-17982960D01*
X10206016Y-17982960D02*
X10215539Y-17963912D01*
X10215539Y-17963912D02*
X10215539Y-17954389D01*
X10215539Y-17954389D02*
X10206016Y-17935341D01*
X10206016Y-17935341D02*
X10186968Y-17925817D01*
X10186968Y-17925817D02*
X10158396Y-17925817D01*
X10158396Y-17925817D02*
X10139349Y-17916293D01*
X10139349Y-17916293D02*
X10129825Y-17897246D01*
X10129825Y-17897246D02*
X10129825Y-17887722D01*
X10129825Y-17887722D02*
X10139349Y-17868674D01*
X10139349Y-17868674D02*
X10158396Y-17859150D01*
X10158396Y-17859150D02*
X10186968Y-17859150D01*
X10186968Y-17859150D02*
X10206016Y-17868674D01*
X10329825Y-17992484D02*
X10310777Y-17982960D01*
X10310777Y-17982960D02*
X10301254Y-17963912D01*
X10301254Y-17963912D02*
X10301254Y-17792484D01*
X10434587Y-17992484D02*
X10415539Y-17982960D01*
X10415539Y-17982960D02*
X10406016Y-17973436D01*
X10406016Y-17973436D02*
X10396492Y-17954389D01*
X10396492Y-17954389D02*
X10396492Y-17897246D01*
X10396492Y-17897246D02*
X10406016Y-17878198D01*
X10406016Y-17878198D02*
X10415539Y-17868674D01*
X10415539Y-17868674D02*
X10434587Y-17859150D01*
X10434587Y-17859150D02*
X10463158Y-17859150D01*
X10463158Y-17859150D02*
X10482206Y-17868674D01*
X10482206Y-17868674D02*
X10491730Y-17878198D01*
X10491730Y-17878198D02*
X10501254Y-17897246D01*
X10501254Y-17897246D02*
X10501254Y-17954389D01*
X10501254Y-17954389D02*
X10491730Y-17973436D01*
X10491730Y-17973436D02*
X10482206Y-17982960D01*
X10482206Y-17982960D02*
X10463158Y-17992484D01*
X10463158Y-17992484D02*
X10434587Y-17992484D01*
X10558397Y-17859150D02*
X10634587Y-17859150D01*
X10586968Y-17792484D02*
X10586968Y-17963912D01*
X10586968Y-17963912D02*
X10596492Y-17982960D01*
X10596492Y-17982960D02*
X10615539Y-17992484D01*
X10615539Y-17992484D02*
X10634587Y-17992484D01*
X10691730Y-17982960D02*
X10710777Y-17992484D01*
X10710777Y-17992484D02*
X10748873Y-17992484D01*
X10748873Y-17992484D02*
X10767920Y-17982960D01*
X10767920Y-17982960D02*
X10777444Y-17963912D01*
X10777444Y-17963912D02*
X10777444Y-17954389D01*
X10777444Y-17954389D02*
X10767920Y-17935341D01*
X10767920Y-17935341D02*
X10748873Y-17925817D01*
X10748873Y-17925817D02*
X10720301Y-17925817D01*
X10720301Y-17925817D02*
X10701254Y-17916293D01*
X10701254Y-17916293D02*
X10691730Y-17897246D01*
X10691730Y-17897246D02*
X10691730Y-17887722D01*
X10691730Y-17887722D02*
X10701254Y-17868674D01*
X10701254Y-17868674D02*
X10720301Y-17859150D01*
X10720301Y-17859150D02*
X10748873Y-17859150D01*
X10748873Y-17859150D02*
X10767920Y-17868674D01*
X10844111Y-18068674D02*
X10853635Y-18059150D01*
X10853635Y-18059150D02*
X10872682Y-18030579D01*
X10872682Y-18030579D02*
X10882206Y-18011531D01*
X10882206Y-18011531D02*
X10891730Y-17982960D01*
X10891730Y-17982960D02*
X10901254Y-17935341D01*
X10901254Y-17935341D02*
X10901254Y-17897246D01*
X10901254Y-17897246D02*
X10891730Y-17849627D01*
X10891730Y-17849627D02*
X10882206Y-17821055D01*
X10882206Y-17821055D02*
X10872682Y-17802008D01*
X10872682Y-17802008D02*
X10853635Y-17773436D01*
X10853635Y-17773436D02*
X10844111Y-17763912D01*
X4250000Y-18121000D02*
X4450000Y-18321000D01*
X4450000Y-18121000D02*
X4250000Y-18321000D01*
X4450000Y-18221000D02*
G75*
G02*
X4250000Y-18221000I-100000J0D01*
G01*
X4250000Y-18221000D02*
G75*
G02*
X4450000Y-18221000I100000J0D01*
G01*
X4701253Y-18131531D02*
X4710777Y-18122008D01*
X4710777Y-18122008D02*
X4729824Y-18112484D01*
X4729824Y-18112484D02*
X4777444Y-18112484D01*
X4777444Y-18112484D02*
X4796491Y-18122008D01*
X4796491Y-18122008D02*
X4806015Y-18131531D01*
X4806015Y-18131531D02*
X4815539Y-18150579D01*
X4815539Y-18150579D02*
X4815539Y-18169627D01*
X4815539Y-18169627D02*
X4806015Y-18198198D01*
X4806015Y-18198198D02*
X4691729Y-18312484D01*
X4691729Y-18312484D02*
X4815539Y-18312484D01*
X4901253Y-18293436D02*
X4910777Y-18302960D01*
X4910777Y-18302960D02*
X4901253Y-18312484D01*
X4901253Y-18312484D02*
X4891729Y-18302960D01*
X4891729Y-18302960D02*
X4901253Y-18293436D01*
X4901253Y-18293436D02*
X4901253Y-18312484D01*
X5091729Y-18112484D02*
X4996491Y-18112484D01*
X4996491Y-18112484D02*
X4986967Y-18207722D01*
X4986967Y-18207722D02*
X4996491Y-18198198D01*
X4996491Y-18198198D02*
X5015539Y-18188674D01*
X5015539Y-18188674D02*
X5063158Y-18188674D01*
X5063158Y-18188674D02*
X5082205Y-18198198D01*
X5082205Y-18198198D02*
X5091729Y-18207722D01*
X5091729Y-18207722D02*
X5101253Y-18226770D01*
X5101253Y-18226770D02*
X5101253Y-18274389D01*
X5101253Y-18274389D02*
X5091729Y-18293436D01*
X5091729Y-18293436D02*
X5082205Y-18302960D01*
X5082205Y-18302960D02*
X5063158Y-18312484D01*
X5063158Y-18312484D02*
X5015539Y-18312484D01*
X5015539Y-18312484D02*
X4996491Y-18302960D01*
X4996491Y-18302960D02*
X4986967Y-18293436D01*
X5225063Y-18112484D02*
X5244110Y-18112484D01*
X5244110Y-18112484D02*
X5263158Y-18122008D01*
X5263158Y-18122008D02*
X5272682Y-18131531D01*
X5272682Y-18131531D02*
X5282205Y-18150579D01*
X5282205Y-18150579D02*
X5291729Y-18188674D01*
X5291729Y-18188674D02*
X5291729Y-18236293D01*
X5291729Y-18236293D02*
X5282205Y-18274389D01*
X5282205Y-18274389D02*
X5272682Y-18293436D01*
X5272682Y-18293436D02*
X5263158Y-18302960D01*
X5263158Y-18302960D02*
X5244110Y-18312484D01*
X5244110Y-18312484D02*
X5225063Y-18312484D01*
X5225063Y-18312484D02*
X5206015Y-18302960D01*
X5206015Y-18302960D02*
X5196491Y-18293436D01*
X5196491Y-18293436D02*
X5186967Y-18274389D01*
X5186967Y-18274389D02*
X5177444Y-18236293D01*
X5177444Y-18236293D02*
X5177444Y-18188674D01*
X5177444Y-18188674D02*
X5186967Y-18150579D01*
X5186967Y-18150579D02*
X5196491Y-18131531D01*
X5196491Y-18131531D02*
X5206015Y-18122008D01*
X5206015Y-18122008D02*
X5225063Y-18112484D01*
X5415539Y-18112484D02*
X5434586Y-18112484D01*
X5434586Y-18112484D02*
X5453634Y-18122008D01*
X5453634Y-18122008D02*
X5463158Y-18131531D01*
X5463158Y-18131531D02*
X5472682Y-18150579D01*
X5472682Y-18150579D02*
X5482205Y-18188674D01*
X5482205Y-18188674D02*
X5482205Y-18236293D01*
X5482205Y-18236293D02*
X5472682Y-18274389D01*
X5472682Y-18274389D02*
X5463158Y-18293436D01*
X5463158Y-18293436D02*
X5453634Y-18302960D01*
X5453634Y-18302960D02*
X5434586Y-18312484D01*
X5434586Y-18312484D02*
X5415539Y-18312484D01*
X5415539Y-18312484D02*
X5396491Y-18302960D01*
X5396491Y-18302960D02*
X5386967Y-18293436D01*
X5386967Y-18293436D02*
X5377444Y-18274389D01*
X5377444Y-18274389D02*
X5367920Y-18236293D01*
X5367920Y-18236293D02*
X5367920Y-18188674D01*
X5367920Y-18188674D02*
X5377444Y-18150579D01*
X5377444Y-18150579D02*
X5386967Y-18131531D01*
X5386967Y-18131531D02*
X5396491Y-18122008D01*
X5396491Y-18122008D02*
X5415539Y-18112484D01*
X5567920Y-18312484D02*
X5567920Y-18179150D01*
X5567920Y-18198198D02*
X5577444Y-18188674D01*
X5577444Y-18188674D02*
X5596491Y-18179150D01*
X5596491Y-18179150D02*
X5625063Y-18179150D01*
X5625063Y-18179150D02*
X5644110Y-18188674D01*
X5644110Y-18188674D02*
X5653634Y-18207722D01*
X5653634Y-18207722D02*
X5653634Y-18312484D01*
X5653634Y-18207722D02*
X5663158Y-18188674D01*
X5663158Y-18188674D02*
X5682205Y-18179150D01*
X5682205Y-18179150D02*
X5710777Y-18179150D01*
X5710777Y-18179150D02*
X5729824Y-18188674D01*
X5729824Y-18188674D02*
X5739348Y-18207722D01*
X5739348Y-18207722D02*
X5739348Y-18312484D01*
X5834586Y-18312484D02*
X5834586Y-18179150D01*
X5834586Y-18198198D02*
X5844110Y-18188674D01*
X5844110Y-18188674D02*
X5863158Y-18179150D01*
X5863158Y-18179150D02*
X5891729Y-18179150D01*
X5891729Y-18179150D02*
X5910777Y-18188674D01*
X5910777Y-18188674D02*
X5920301Y-18207722D01*
X5920301Y-18207722D02*
X5920301Y-18312484D01*
X5920301Y-18207722D02*
X5929824Y-18188674D01*
X5929824Y-18188674D02*
X5948872Y-18179150D01*
X5948872Y-18179150D02*
X5977443Y-18179150D01*
X5977443Y-18179150D02*
X5996491Y-18188674D01*
X5996491Y-18188674D02*
X6006015Y-18207722D01*
X6006015Y-18207722D02*
X6006015Y-18312484D01*
X6396491Y-18102960D02*
X6225063Y-18360103D01*
X6653634Y-18112484D02*
X6672682Y-18112484D01*
X6672682Y-18112484D02*
X6691729Y-18122008D01*
X6691729Y-18122008D02*
X6701253Y-18131531D01*
X6701253Y-18131531D02*
X6710777Y-18150579D01*
X6710777Y-18150579D02*
X6720301Y-18188674D01*
X6720301Y-18188674D02*
X6720301Y-18236293D01*
X6720301Y-18236293D02*
X6710777Y-18274389D01*
X6710777Y-18274389D02*
X6701253Y-18293436D01*
X6701253Y-18293436D02*
X6691729Y-18302960D01*
X6691729Y-18302960D02*
X6672682Y-18312484D01*
X6672682Y-18312484D02*
X6653634Y-18312484D01*
X6653634Y-18312484D02*
X6634586Y-18302960D01*
X6634586Y-18302960D02*
X6625063Y-18293436D01*
X6625063Y-18293436D02*
X6615539Y-18274389D01*
X6615539Y-18274389D02*
X6606015Y-18236293D01*
X6606015Y-18236293D02*
X6606015Y-18188674D01*
X6606015Y-18188674D02*
X6615539Y-18150579D01*
X6615539Y-18150579D02*
X6625063Y-18131531D01*
X6625063Y-18131531D02*
X6634586Y-18122008D01*
X6634586Y-18122008D02*
X6653634Y-18112484D01*
X6806015Y-18293436D02*
X6815539Y-18302960D01*
X6815539Y-18302960D02*
X6806015Y-18312484D01*
X6806015Y-18312484D02*
X6796491Y-18302960D01*
X6796491Y-18302960D02*
X6806015Y-18293436D01*
X6806015Y-18293436D02*
X6806015Y-18312484D01*
X6939348Y-18112484D02*
X6958396Y-18112484D01*
X6958396Y-18112484D02*
X6977444Y-18122008D01*
X6977444Y-18122008D02*
X6986967Y-18131531D01*
X6986967Y-18131531D02*
X6996491Y-18150579D01*
X6996491Y-18150579D02*
X7006015Y-18188674D01*
X7006015Y-18188674D02*
X7006015Y-18236293D01*
X7006015Y-18236293D02*
X6996491Y-18274389D01*
X6996491Y-18274389D02*
X6986967Y-18293436D01*
X6986967Y-18293436D02*
X6977444Y-18302960D01*
X6977444Y-18302960D02*
X6958396Y-18312484D01*
X6958396Y-18312484D02*
X6939348Y-18312484D01*
X6939348Y-18312484D02*
X6920301Y-18302960D01*
X6920301Y-18302960D02*
X6910777Y-18293436D01*
X6910777Y-18293436D02*
X6901253Y-18274389D01*
X6901253Y-18274389D02*
X6891729Y-18236293D01*
X6891729Y-18236293D02*
X6891729Y-18188674D01*
X6891729Y-18188674D02*
X6901253Y-18150579D01*
X6901253Y-18150579D02*
X6910777Y-18131531D01*
X6910777Y-18131531D02*
X6920301Y-18122008D01*
X6920301Y-18122008D02*
X6939348Y-18112484D01*
X7101253Y-18312484D02*
X7139348Y-18312484D01*
X7139348Y-18312484D02*
X7158396Y-18302960D01*
X7158396Y-18302960D02*
X7167920Y-18293436D01*
X7167920Y-18293436D02*
X7186967Y-18264865D01*
X7186967Y-18264865D02*
X7196491Y-18226770D01*
X7196491Y-18226770D02*
X7196491Y-18150579D01*
X7196491Y-18150579D02*
X7186967Y-18131531D01*
X7186967Y-18131531D02*
X7177444Y-18122008D01*
X7177444Y-18122008D02*
X7158396Y-18112484D01*
X7158396Y-18112484D02*
X7120301Y-18112484D01*
X7120301Y-18112484D02*
X7101253Y-18122008D01*
X7101253Y-18122008D02*
X7091729Y-18131531D01*
X7091729Y-18131531D02*
X7082206Y-18150579D01*
X7082206Y-18150579D02*
X7082206Y-18198198D01*
X7082206Y-18198198D02*
X7091729Y-18217246D01*
X7091729Y-18217246D02*
X7101253Y-18226770D01*
X7101253Y-18226770D02*
X7120301Y-18236293D01*
X7120301Y-18236293D02*
X7158396Y-18236293D01*
X7158396Y-18236293D02*
X7177444Y-18226770D01*
X7177444Y-18226770D02*
X7186967Y-18217246D01*
X7186967Y-18217246D02*
X7196491Y-18198198D01*
X7310777Y-18198198D02*
X7291729Y-18188674D01*
X7291729Y-18188674D02*
X7282206Y-18179150D01*
X7282206Y-18179150D02*
X7272682Y-18160103D01*
X7272682Y-18160103D02*
X7272682Y-18150579D01*
X7272682Y-18150579D02*
X7282206Y-18131531D01*
X7282206Y-18131531D02*
X7291729Y-18122008D01*
X7291729Y-18122008D02*
X7310777Y-18112484D01*
X7310777Y-18112484D02*
X7348872Y-18112484D01*
X7348872Y-18112484D02*
X7367920Y-18122008D01*
X7367920Y-18122008D02*
X7377444Y-18131531D01*
X7377444Y-18131531D02*
X7386967Y-18150579D01*
X7386967Y-18150579D02*
X7386967Y-18160103D01*
X7386967Y-18160103D02*
X7377444Y-18179150D01*
X7377444Y-18179150D02*
X7367920Y-18188674D01*
X7367920Y-18188674D02*
X7348872Y-18198198D01*
X7348872Y-18198198D02*
X7310777Y-18198198D01*
X7310777Y-18198198D02*
X7291729Y-18207722D01*
X7291729Y-18207722D02*
X7282206Y-18217246D01*
X7282206Y-18217246D02*
X7272682Y-18236293D01*
X7272682Y-18236293D02*
X7272682Y-18274389D01*
X7272682Y-18274389D02*
X7282206Y-18293436D01*
X7282206Y-18293436D02*
X7291729Y-18302960D01*
X7291729Y-18302960D02*
X7310777Y-18312484D01*
X7310777Y-18312484D02*
X7348872Y-18312484D01*
X7348872Y-18312484D02*
X7367920Y-18302960D01*
X7367920Y-18302960D02*
X7377444Y-18293436D01*
X7377444Y-18293436D02*
X7386967Y-18274389D01*
X7386967Y-18274389D02*
X7386967Y-18236293D01*
X7386967Y-18236293D02*
X7377444Y-18217246D01*
X7377444Y-18217246D02*
X7367920Y-18207722D01*
X7367920Y-18207722D02*
X7348872Y-18198198D01*
X7558396Y-18179150D02*
X7558396Y-18312484D01*
X7510777Y-18102960D02*
X7463158Y-18245817D01*
X7463158Y-18245817D02*
X7586967Y-18245817D01*
X7653634Y-18112484D02*
X7653634Y-18150579D01*
X7729825Y-18112484D02*
X7729825Y-18150579D01*
X8025063Y-18388674D02*
X8015539Y-18379150D01*
X8015539Y-18379150D02*
X7996491Y-18350579D01*
X7996491Y-18350579D02*
X7986968Y-18331531D01*
X7986968Y-18331531D02*
X7977444Y-18302960D01*
X7977444Y-18302960D02*
X7967920Y-18255341D01*
X7967920Y-18255341D02*
X7967920Y-18217246D01*
X7967920Y-18217246D02*
X7977444Y-18169627D01*
X7977444Y-18169627D02*
X7986968Y-18141055D01*
X7986968Y-18141055D02*
X7996491Y-18122008D01*
X7996491Y-18122008D02*
X8015539Y-18093436D01*
X8015539Y-18093436D02*
X8025063Y-18083912D01*
X8186968Y-18112484D02*
X8148872Y-18112484D01*
X8148872Y-18112484D02*
X8129825Y-18122008D01*
X8129825Y-18122008D02*
X8120301Y-18131531D01*
X8120301Y-18131531D02*
X8101253Y-18160103D01*
X8101253Y-18160103D02*
X8091729Y-18198198D01*
X8091729Y-18198198D02*
X8091729Y-18274389D01*
X8091729Y-18274389D02*
X8101253Y-18293436D01*
X8101253Y-18293436D02*
X8110777Y-18302960D01*
X8110777Y-18302960D02*
X8129825Y-18312484D01*
X8129825Y-18312484D02*
X8167920Y-18312484D01*
X8167920Y-18312484D02*
X8186968Y-18302960D01*
X8186968Y-18302960D02*
X8196491Y-18293436D01*
X8196491Y-18293436D02*
X8206015Y-18274389D01*
X8206015Y-18274389D02*
X8206015Y-18226770D01*
X8206015Y-18226770D02*
X8196491Y-18207722D01*
X8196491Y-18207722D02*
X8186968Y-18198198D01*
X8186968Y-18198198D02*
X8167920Y-18188674D01*
X8167920Y-18188674D02*
X8129825Y-18188674D01*
X8129825Y-18188674D02*
X8110777Y-18198198D01*
X8110777Y-18198198D02*
X8101253Y-18207722D01*
X8101253Y-18207722D02*
X8091729Y-18226770D01*
X8444111Y-18312484D02*
X8444111Y-18112484D01*
X8529825Y-18312484D02*
X8529825Y-18207722D01*
X8529825Y-18207722D02*
X8520301Y-18188674D01*
X8520301Y-18188674D02*
X8501253Y-18179150D01*
X8501253Y-18179150D02*
X8472682Y-18179150D01*
X8472682Y-18179150D02*
X8453634Y-18188674D01*
X8453634Y-18188674D02*
X8444111Y-18198198D01*
X8653634Y-18312484D02*
X8634587Y-18302960D01*
X8634587Y-18302960D02*
X8625063Y-18293436D01*
X8625063Y-18293436D02*
X8615539Y-18274389D01*
X8615539Y-18274389D02*
X8615539Y-18217246D01*
X8615539Y-18217246D02*
X8625063Y-18198198D01*
X8625063Y-18198198D02*
X8634587Y-18188674D01*
X8634587Y-18188674D02*
X8653634Y-18179150D01*
X8653634Y-18179150D02*
X8682206Y-18179150D01*
X8682206Y-18179150D02*
X8701253Y-18188674D01*
X8701253Y-18188674D02*
X8710777Y-18198198D01*
X8710777Y-18198198D02*
X8720301Y-18217246D01*
X8720301Y-18217246D02*
X8720301Y-18274389D01*
X8720301Y-18274389D02*
X8710777Y-18293436D01*
X8710777Y-18293436D02*
X8701253Y-18302960D01*
X8701253Y-18302960D02*
X8682206Y-18312484D01*
X8682206Y-18312484D02*
X8653634Y-18312484D01*
X8834587Y-18312484D02*
X8815539Y-18302960D01*
X8815539Y-18302960D02*
X8806015Y-18283912D01*
X8806015Y-18283912D02*
X8806015Y-18112484D01*
X8986968Y-18302960D02*
X8967920Y-18312484D01*
X8967920Y-18312484D02*
X8929825Y-18312484D01*
X8929825Y-18312484D02*
X8910777Y-18302960D01*
X8910777Y-18302960D02*
X8901253Y-18283912D01*
X8901253Y-18283912D02*
X8901253Y-18207722D01*
X8901253Y-18207722D02*
X8910777Y-18188674D01*
X8910777Y-18188674D02*
X8929825Y-18179150D01*
X8929825Y-18179150D02*
X8967920Y-18179150D01*
X8967920Y-18179150D02*
X8986968Y-18188674D01*
X8986968Y-18188674D02*
X8996492Y-18207722D01*
X8996492Y-18207722D02*
X8996492Y-18226770D01*
X8996492Y-18226770D02*
X8901253Y-18245817D01*
X9072682Y-18302960D02*
X9091730Y-18312484D01*
X9091730Y-18312484D02*
X9129825Y-18312484D01*
X9129825Y-18312484D02*
X9148873Y-18302960D01*
X9148873Y-18302960D02*
X9158396Y-18283912D01*
X9158396Y-18283912D02*
X9158396Y-18274389D01*
X9158396Y-18274389D02*
X9148873Y-18255341D01*
X9148873Y-18255341D02*
X9129825Y-18245817D01*
X9129825Y-18245817D02*
X9101253Y-18245817D01*
X9101253Y-18245817D02*
X9082206Y-18236293D01*
X9082206Y-18236293D02*
X9072682Y-18217246D01*
X9072682Y-18217246D02*
X9072682Y-18207722D01*
X9072682Y-18207722D02*
X9082206Y-18188674D01*
X9082206Y-18188674D02*
X9101253Y-18179150D01*
X9101253Y-18179150D02*
X9129825Y-18179150D01*
X9129825Y-18179150D02*
X9148873Y-18188674D01*
X9225063Y-18388674D02*
X9234587Y-18379150D01*
X9234587Y-18379150D02*
X9253634Y-18350579D01*
X9253634Y-18350579D02*
X9263158Y-18331531D01*
X9263158Y-18331531D02*
X9272682Y-18302960D01*
X9272682Y-18302960D02*
X9282206Y-18255341D01*
X9282206Y-18255341D02*
X9282206Y-18217246D01*
X9282206Y-18217246D02*
X9272682Y-18169627D01*
X9272682Y-18169627D02*
X9263158Y-18141055D01*
X9263158Y-18141055D02*
X9253634Y-18122008D01*
X9253634Y-18122008D02*
X9234587Y-18093436D01*
X9234587Y-18093436D02*
X9225063Y-18083912D01*
M02*
