G04 #@! TF.GenerationSoftware,KiCad,Pcbnew,9.0.4*
G04 #@! TF.CreationDate,2025-10-17T21:47:26+08:00*
G04 #@! TF.ProjectId,Custom Mechanical Keyboard,43757374-6f6d-4204-9d65-6368616e6963,rev?*
G04 #@! TF.SameCoordinates,PX2d4cae0PY2d4cae0*
G04 #@! TF.FileFunction,Profile,NP*
%FSLAX46Y46*%
G04 Gerber Fmt 4.6, Leading zero omitted, Abs format (unit mm)*
G04 Created by KiCad (PCBNEW 9.0.4) date 2025-10-17 21:47:26*
%MOMM*%
%LPD*%
G01*
G04 APERTURE LIST*
G04 #@! TA.AperFunction,Profile*
%ADD10C,0.000000*%
G04 #@! TD*
G04 #@! TA.AperFunction,Profile*
%ADD11C,0.100000*%
G04 #@! TD*
G04 #@! TA.AperFunction,Profile*
%ADD12C,0.020000*%
G04 #@! TD*
G04 APERTURE END LIST*
D10*
X322500000Y0D02*
X322500000Y0D01*
G75*
G02*
X324000000Y-1500000I0J-1500000D01*
G01*
X324000000Y-113000000D01*
G75*
G02*
X322500000Y-114500000I-1500000J0D01*
G01*
X1500000Y-114500000D01*
G75*
G02*
X0Y-113000000I0J1500000D01*
G01*
X0Y-1500000D01*
G75*
G02*
X1500000Y0I1500000J0D01*
G01*
X322500000Y0D01*
G04 #@! TO.C,REF\u002A\u002A*
D11*
X101400000Y-97900000D02*
X108400000Y-97900000D01*
X108400000Y-114900000D01*
X101400000Y-114900000D01*
X101400000Y-97900000D01*
X177600000Y-97900000D02*
X184600000Y-97900000D01*
X184600000Y-114900000D01*
X177600000Y-114900000D01*
X177600000Y-97900000D01*
X251385000Y-78850000D02*
X258385000Y-78850000D01*
X258385000Y-95850000D01*
X251385000Y-95850000D01*
X251385000Y-78850000D01*
X275265000Y-78850000D02*
X282265000Y-78850000D01*
X282265000Y-95850000D01*
X275265000Y-95850000D01*
X275265000Y-78850000D01*
X265672500Y-59800000D02*
X272672500Y-59800000D01*
X272672500Y-76800000D01*
X265672500Y-76800000D01*
X265672500Y-59800000D01*
X289552500Y-59800000D02*
X296552500Y-59800000D01*
X296552500Y-76800000D01*
X289552500Y-76800000D01*
X289552500Y-59800000D01*
D12*
G04 #@! TO.C,LED49*
X77925000Y-59900000D02*
X77925000Y-59900000D01*
G75*
G02*
X78125000Y-60100000I0J-200000D01*
G01*
X78125000Y-62900000D01*
G75*
G02*
X77925000Y-63100000I-200000J0D01*
G01*
X74725000Y-63100000D01*
G75*
G02*
X74525000Y-62900000I0J200000D01*
G01*
X74525000Y-60100000D01*
G75*
G02*
X74725000Y-59900000I200000J0D01*
G01*
X77925000Y-59900000D01*
G04 #@! TO.C,LED12*
X239850000Y-2750000D02*
X239850000Y-2750000D01*
G75*
G02*
X240050000Y-2950000I0J-200000D01*
G01*
X240050000Y-5750000D01*
G75*
G02*
X239850000Y-5950000I-200000J0D01*
G01*
X236650000Y-5950000D01*
G75*
G02*
X236450000Y-5750000I0J200000D01*
G01*
X236450000Y-2950000D01*
G75*
G02*
X236650000Y-2750000I200000J0D01*
G01*
X239850000Y-2750000D01*
G04 #@! TO.C,LED84*
X316050000Y-98000000D02*
X316050000Y-98000000D01*
G75*
G02*
X316250000Y-98200000I0J-200000D01*
G01*
X316250000Y-101000000D01*
G75*
G02*
X316050000Y-101200000I-200000J0D01*
G01*
X312850000Y-101200000D01*
G75*
G02*
X312650000Y-101000000I0J200000D01*
G01*
X312650000Y-98200000D01*
G75*
G02*
X312850000Y-98000000I200000J0D01*
G01*
X316050000Y-98000000D01*
G04 #@! TO.C,LED5*
X106500000Y-2750000D02*
X106500000Y-2750000D01*
G75*
G02*
X106700000Y-2950000I0J-200000D01*
G01*
X106700000Y-5750000D01*
G75*
G02*
X106500000Y-5950000I-200000J0D01*
G01*
X103300000Y-5950000D01*
G75*
G02*
X103100000Y-5750000I0J200000D01*
G01*
X103100000Y-2950000D01*
G75*
G02*
X103300000Y-2750000I200000J0D01*
G01*
X106500000Y-2750000D01*
G04 #@! TO.C,LED3*
X68400000Y-2750000D02*
X68400000Y-2750000D01*
G75*
G02*
X68600000Y-2950000I0J-200000D01*
G01*
X68600000Y-5750000D01*
G75*
G02*
X68400000Y-5950000I-200000J0D01*
G01*
X65200000Y-5950000D01*
G75*
G02*
X65000000Y-5750000I0J200000D01*
G01*
X65000000Y-2950000D01*
G75*
G02*
X65200000Y-2750000I200000J0D01*
G01*
X68400000Y-2750000D01*
G04 #@! TO.C,LED56*
X211275000Y-59900000D02*
X211275000Y-59900000D01*
G75*
G02*
X211475000Y-60100000I0J-200000D01*
G01*
X211475000Y-62900000D01*
G75*
G02*
X211275000Y-63100000I-200000J0D01*
G01*
X208075000Y-63100000D01*
G75*
G02*
X207875000Y-62900000I0J200000D01*
G01*
X207875000Y-60100000D01*
G75*
G02*
X208075000Y-59900000I200000J0D01*
G01*
X211275000Y-59900000D01*
G04 #@! TO.C,LED22*
X125550000Y-21800000D02*
X125550000Y-21800000D01*
G75*
G02*
X125750000Y-22000000I0J-200000D01*
G01*
X125750000Y-24800000D01*
G75*
G02*
X125550000Y-25000000I-200000J0D01*
G01*
X122350000Y-25000000D01*
G75*
G02*
X122150000Y-24800000I0J200000D01*
G01*
X122150000Y-22000000D01*
G75*
G02*
X122350000Y-21800000I200000J0D01*
G01*
X125550000Y-21800000D01*
G04 #@! TO.C,LED1*
X30300000Y-2750000D02*
X30300000Y-2750000D01*
G75*
G02*
X30500000Y-2950000I0J-200000D01*
G01*
X30500000Y-5750000D01*
G75*
G02*
X30300000Y-5950000I-200000J0D01*
G01*
X27100000Y-5950000D01*
G75*
G02*
X26900000Y-5750000I0J200000D01*
G01*
X26900000Y-2950000D01*
G75*
G02*
X27100000Y-2750000I200000J0D01*
G01*
X30300000Y-2750000D01*
G04 #@! TO.C,LED4*
X87450000Y-2750000D02*
X87450000Y-2750000D01*
G75*
G02*
X87650000Y-2950000I0J-200000D01*
G01*
X87650000Y-5750000D01*
G75*
G02*
X87450000Y-5950000I-200000J0D01*
G01*
X84250000Y-5950000D01*
G75*
G02*
X84050000Y-5750000I0J200000D01*
G01*
X84050000Y-2950000D01*
G75*
G02*
X84250000Y-2750000I200000J0D01*
G01*
X87450000Y-2750000D01*
G04 #@! TO.C,LED44*
X268425000Y-40850000D02*
X268425000Y-40850000D01*
G75*
G02*
X268625000Y-41050000I0J-200000D01*
G01*
X268625000Y-43850000D01*
G75*
G02*
X268425000Y-44050000I-200000J0D01*
G01*
X265225000Y-44050000D01*
G75*
G02*
X265025000Y-43850000I0J200000D01*
G01*
X265025000Y-41050000D01*
G75*
G02*
X265225000Y-40850000I200000J0D01*
G01*
X268425000Y-40850000D01*
G04 #@! TO.C,LED67*
X163650000Y-78950000D02*
X163650000Y-78950000D01*
G75*
G02*
X163850000Y-79150000I0J-200000D01*
G01*
X163850000Y-81950000D01*
G75*
G02*
X163650000Y-82150000I-200000J0D01*
G01*
X160450000Y-82150000D01*
G75*
G02*
X160250000Y-81950000I0J200000D01*
G01*
X160250000Y-79150000D01*
G75*
G02*
X160450000Y-78950000I200000J0D01*
G01*
X163650000Y-78950000D01*
G04 #@! TO.C,LED62*
X68400000Y-78950000D02*
X68400000Y-78950000D01*
G75*
G02*
X68600000Y-79150000I0J-200000D01*
G01*
X68600000Y-81950000D01*
G75*
G02*
X68400000Y-82150000I-200000J0D01*
G01*
X65200000Y-82150000D01*
G75*
G02*
X65000000Y-81950000I0J200000D01*
G01*
X65000000Y-79150000D01*
G75*
G02*
X65200000Y-78950000I200000J0D01*
G01*
X68400000Y-78950000D01*
G04 #@! TO.C,LED57*
X230325000Y-59900000D02*
X230325000Y-59900000D01*
G75*
G02*
X230525000Y-60100000I0J-200000D01*
G01*
X230525000Y-62900000D01*
G75*
G02*
X230325000Y-63100000I-200000J0D01*
G01*
X227125000Y-63100000D01*
G75*
G02*
X226925000Y-62900000I0J200000D01*
G01*
X226925000Y-60100000D01*
G75*
G02*
X227125000Y-59900000I200000J0D01*
G01*
X230325000Y-59900000D01*
G04 #@! TO.C,LED72*
X268425000Y-78950000D02*
X268425000Y-78950000D01*
G75*
G02*
X268625000Y-79150000I0J-200000D01*
G01*
X268625000Y-81950000D01*
G75*
G02*
X268425000Y-82150000I-200000J0D01*
G01*
X265225000Y-82150000D01*
G75*
G02*
X265025000Y-81950000I0J200000D01*
G01*
X265025000Y-79150000D01*
G75*
G02*
X265225000Y-78950000I200000J0D01*
G01*
X268425000Y-78950000D01*
G04 #@! TO.C,LED48*
X58875000Y-59900000D02*
X58875000Y-59900000D01*
G75*
G02*
X59075000Y-60100000I0J-200000D01*
G01*
X59075000Y-62900000D01*
G75*
G02*
X58875000Y-63100000I-200000J0D01*
G01*
X55675000Y-63100000D01*
G75*
G02*
X55475000Y-62900000I0J200000D01*
G01*
X55475000Y-60100000D01*
G75*
G02*
X55675000Y-59900000I200000J0D01*
G01*
X58875000Y-59900000D01*
G04 #@! TO.C,LED54*
X173175000Y-59900000D02*
X173175000Y-59900000D01*
G75*
G02*
X173375000Y-60100000I0J-200000D01*
G01*
X173375000Y-62900000D01*
G75*
G02*
X173175000Y-63100000I-200000J0D01*
G01*
X169975000Y-63100000D01*
G75*
G02*
X169775000Y-62900000I0J200000D01*
G01*
X169775000Y-60100000D01*
G75*
G02*
X169975000Y-59900000I200000J0D01*
G01*
X173175000Y-59900000D01*
G04 #@! TO.C,LED81*
X256518750Y-98000000D02*
X256518750Y-98000000D01*
G75*
G02*
X256718750Y-98200000I-50J-200000D01*
G01*
X256718750Y-101000000D01*
G75*
G02*
X256518750Y-101200000I-200050J0D01*
G01*
X253318750Y-101200000D01*
G75*
G02*
X253118750Y-101000000I50J200000D01*
G01*
X253118750Y-98200000D01*
G75*
G02*
X253318750Y-98000000I200050J0D01*
G01*
X256518750Y-98000000D01*
G04 #@! TO.C,LED79*
X208893750Y-98000000D02*
X208893750Y-98000000D01*
G75*
G02*
X209093750Y-98200000I-50J-200000D01*
G01*
X209093750Y-101000000D01*
G75*
G02*
X208893750Y-101200000I-200050J0D01*
G01*
X205693750Y-101200000D01*
G75*
G02*
X205493750Y-101000000I50J200000D01*
G01*
X205493750Y-98200000D01*
G75*
G02*
X205693750Y-98000000I200050J0D01*
G01*
X208893750Y-98000000D01*
G04 #@! TO.C,LED66*
X144600000Y-78950000D02*
X144600000Y-78950000D01*
G75*
G02*
X144800000Y-79150000I0J-200000D01*
G01*
X144800000Y-81950000D01*
G75*
G02*
X144600000Y-82150000I-200000J0D01*
G01*
X141400000Y-82150000D01*
G75*
G02*
X141200000Y-81950000I0J200000D01*
G01*
X141200000Y-79150000D01*
G75*
G02*
X141400000Y-78950000I200000J0D01*
G01*
X144600000Y-78950000D01*
G04 #@! TO.C,LED55*
X192225000Y-59900000D02*
X192225000Y-59900000D01*
G75*
G02*
X192425000Y-60100000I0J-200000D01*
G01*
X192425000Y-62900000D01*
G75*
G02*
X192225000Y-63100000I-200000J0D01*
G01*
X189025000Y-63100000D01*
G75*
G02*
X188825000Y-62900000I0J200000D01*
G01*
X188825000Y-60100000D01*
G75*
G02*
X189025000Y-59900000I200000J0D01*
G01*
X192225000Y-59900000D01*
G04 #@! TO.C,REF\u002A\u002A*
D11*
X270435000Y-21700000D02*
X277435000Y-21700000D01*
X277435000Y-38700000D01*
X270435000Y-38700000D01*
X270435000Y-21700000D01*
X294315000Y-21700000D02*
X301315000Y-21700000D01*
X301315000Y-38700000D01*
X294315000Y-38700000D01*
X294315000Y-21700000D01*
X22785000Y-78800000D02*
X29785000Y-78800000D01*
X29785000Y-95800000D01*
X22785000Y-95800000D01*
X22785000Y-78800000D01*
X46665000Y-78800000D02*
X53665000Y-78800000D01*
X53665000Y-95800000D01*
X46665000Y-95800000D01*
X46665000Y-78800000D01*
D12*
G04 #@! TO.C,CAPS_LED1*
X24650000Y-65000000D02*
X24650000Y-65000000D01*
G75*
G02*
X24850000Y-65200000I0J-200000D01*
G01*
X24850000Y-68400000D01*
G75*
G02*
X24650000Y-68600000I-200000J0D01*
G01*
X21850000Y-68600000D01*
G75*
G02*
X21650000Y-68400000I0J200000D01*
G01*
X21650000Y-65200000D01*
G75*
G02*
X21850000Y-65000000I200000J0D01*
G01*
X24650000Y-65000000D01*
G04 #@! TO.C,LED25*
X182700000Y-21800000D02*
X182700000Y-21800000D01*
G75*
G02*
X182900000Y-22000000I0J-200000D01*
G01*
X182900000Y-24800000D01*
G75*
G02*
X182700000Y-25000000I-200000J0D01*
G01*
X179500000Y-25000000D01*
G75*
G02*
X179300000Y-24800000I0J200000D01*
G01*
X179300000Y-22000000D01*
G75*
G02*
X179500000Y-21800000I200000J0D01*
G01*
X182700000Y-21800000D01*
G04 #@! TO.C,LED9*
X182700000Y-2750000D02*
X182700000Y-2750000D01*
G75*
G02*
X182900000Y-2950000I0J-200000D01*
G01*
X182900000Y-5750000D01*
G75*
G02*
X182700000Y-5950000I-200000J0D01*
G01*
X179500000Y-5950000D01*
G75*
G02*
X179300000Y-5750000I0J200000D01*
G01*
X179300000Y-2950000D01*
G75*
G02*
X179500000Y-2750000I200000J0D01*
G01*
X182700000Y-2750000D01*
G04 #@! TO.C,LED30*
X287475000Y-21800000D02*
X287475000Y-21800000D01*
G75*
G02*
X287675000Y-22000000I0J-200000D01*
G01*
X287675000Y-24800000D01*
G75*
G02*
X287475000Y-25000000I-200000J0D01*
G01*
X284275000Y-25000000D01*
G75*
G02*
X284075000Y-24800000I0J200000D01*
G01*
X284075000Y-22000000D01*
G75*
G02*
X284275000Y-21800000I200000J0D01*
G01*
X287475000Y-21800000D01*
G04 #@! TO.C,LED47*
X35062500Y-59900000D02*
X35062500Y-59900000D01*
G75*
G02*
X35262500Y-60100000I0J-200000D01*
G01*
X35262500Y-62900000D01*
G75*
G02*
X35062500Y-63100000I-200000J0D01*
G01*
X31862500Y-63100000D01*
G75*
G02*
X31662500Y-62900000I0J200000D01*
G01*
X31662500Y-60100000D01*
G75*
G02*
X31862500Y-59900000I200000J0D01*
G01*
X35062500Y-59900000D01*
G04 #@! TO.C,LED24*
X163650000Y-21800000D02*
X163650000Y-21800000D01*
G75*
G02*
X163850000Y-22000000I0J-200000D01*
G01*
X163850000Y-24800000D01*
G75*
G02*
X163650000Y-25000000I-200000J0D01*
G01*
X160450000Y-25000000D01*
G75*
G02*
X160250000Y-24800000I0J200000D01*
G01*
X160250000Y-22000000D01*
G75*
G02*
X160450000Y-21800000I200000J0D01*
G01*
X163650000Y-21800000D01*
G04 #@! TO.C,LED6*
X125550000Y-2750000D02*
X125550000Y-2750000D01*
G75*
G02*
X125750000Y-2950000I0J-200000D01*
G01*
X125750000Y-5750000D01*
G75*
G02*
X125550000Y-5950000I-200000J0D01*
G01*
X122350000Y-5950000D01*
G75*
G02*
X122150000Y-5750000I0J200000D01*
G01*
X122150000Y-2950000D01*
G75*
G02*
X122350000Y-2750000I200000J0D01*
G01*
X125550000Y-2750000D01*
G04 #@! TO.C,LED34*
X77925000Y-40850000D02*
X77925000Y-40850000D01*
G75*
G02*
X78125000Y-41050000I0J-200000D01*
G01*
X78125000Y-43850000D01*
G75*
G02*
X77925000Y-44050000I-200000J0D01*
G01*
X74725000Y-44050000D01*
G75*
G02*
X74525000Y-43850000I0J200000D01*
G01*
X74525000Y-41050000D01*
G75*
G02*
X74725000Y-40850000I200000J0D01*
G01*
X77925000Y-40850000D01*
G04 #@! TO.C,LED69*
X201750000Y-78950000D02*
X201750000Y-78950000D01*
G75*
G02*
X201950000Y-79150000I0J-200000D01*
G01*
X201950000Y-81950000D01*
G75*
G02*
X201750000Y-82150000I-200000J0D01*
G01*
X198550000Y-82150000D01*
G75*
G02*
X198350000Y-81950000I0J200000D01*
G01*
X198350000Y-79150000D01*
G75*
G02*
X198550000Y-78950000I200000J0D01*
G01*
X201750000Y-78950000D01*
G04 #@! TO.C,LED51*
X116025000Y-59900000D02*
X116025000Y-59900000D01*
G75*
G02*
X116225000Y-60100000I0J-200000D01*
G01*
X116225000Y-62900000D01*
G75*
G02*
X116025000Y-63100000I-200000J0D01*
G01*
X112825000Y-63100000D01*
G75*
G02*
X112625000Y-62900000I0J200000D01*
G01*
X112625000Y-60100000D01*
G75*
G02*
X112825000Y-59900000I200000J0D01*
G01*
X116025000Y-59900000D01*
G04 #@! TO.C,LED31*
X316050000Y-21800000D02*
X316050000Y-21800000D01*
G75*
G02*
X316250000Y-22000000I0J-200000D01*
G01*
X316250000Y-24800000D01*
G75*
G02*
X316050000Y-25000000I-200000J0D01*
G01*
X312850000Y-25000000D01*
G75*
G02*
X312650000Y-24800000I0J200000D01*
G01*
X312650000Y-22000000D01*
G75*
G02*
X312850000Y-21800000I200000J0D01*
G01*
X316050000Y-21800000D01*
G04 #@! TO.C,LED42*
X230325000Y-40850000D02*
X230325000Y-40850000D01*
G75*
G02*
X230525000Y-41050000I0J-200000D01*
G01*
X230525000Y-43850000D01*
G75*
G02*
X230325000Y-44050000I-200000J0D01*
G01*
X227125000Y-44050000D01*
G75*
G02*
X226925000Y-43850000I0J200000D01*
G01*
X226925000Y-41050000D01*
G75*
G02*
X227125000Y-40850000I200000J0D01*
G01*
X230325000Y-40850000D01*
G04 #@! TO.C,LED64*
X106500000Y-78950000D02*
X106500000Y-78950000D01*
G75*
G02*
X106700000Y-79150000I0J-200000D01*
G01*
X106700000Y-81950000D01*
G75*
G02*
X106500000Y-82150000I-200000J0D01*
G01*
X103300000Y-82150000D01*
G75*
G02*
X103100000Y-81950000I0J200000D01*
G01*
X103100000Y-79150000D01*
G75*
G02*
X103300000Y-78950000I200000J0D01*
G01*
X106500000Y-78950000D01*
G04 #@! TO.C,LED61*
X39825000Y-78950000D02*
X39825000Y-78950000D01*
G75*
G02*
X40025000Y-79150000I0J-200000D01*
G01*
X40025000Y-81950000D01*
G75*
G02*
X39825000Y-82150000I-200000J0D01*
G01*
X36625000Y-82150000D01*
G75*
G02*
X36425000Y-81950000I0J200000D01*
G01*
X36425000Y-79150000D01*
G75*
G02*
X36625000Y-78950000I200000J0D01*
G01*
X39825000Y-78950000D01*
G04 #@! TO.C,LED13*
X258900000Y-2750000D02*
X258900000Y-2750000D01*
G75*
G02*
X259100000Y-2950000I0J-200000D01*
G01*
X259100000Y-5750000D01*
G75*
G02*
X258900000Y-5950000I-200000J0D01*
G01*
X255700000Y-5950000D01*
G75*
G02*
X255500000Y-5750000I0J200000D01*
G01*
X255500000Y-2950000D01*
G75*
G02*
X255700000Y-2750000I200000J0D01*
G01*
X258900000Y-2750000D01*
G04 #@! TO.C,LED46*
X316050000Y-40850000D02*
X316050000Y-40850000D01*
G75*
G02*
X316250000Y-41050000I0J-200000D01*
G01*
X316250000Y-43850000D01*
G75*
G02*
X316050000Y-44050000I-200000J0D01*
G01*
X312850000Y-44050000D01*
G75*
G02*
X312650000Y-43850000I0J200000D01*
G01*
X312650000Y-41050000D01*
G75*
G02*
X312850000Y-40850000I200000J0D01*
G01*
X316050000Y-40850000D01*
G04 #@! TO.C,LED40*
X192225000Y-40850000D02*
X192225000Y-40850000D01*
G75*
G02*
X192425000Y-41050000I0J-200000D01*
G01*
X192425000Y-43850000D01*
G75*
G02*
X192225000Y-44050000I-200000J0D01*
G01*
X189025000Y-44050000D01*
G75*
G02*
X188825000Y-43850000I0J200000D01*
G01*
X188825000Y-41050000D01*
G75*
G02*
X189025000Y-40850000I200000J0D01*
G01*
X192225000Y-40850000D01*
G04 #@! TO.C,LED37*
X135075000Y-40850000D02*
X135075000Y-40850000D01*
G75*
G02*
X135275000Y-41050000I0J-200000D01*
G01*
X135275000Y-43850000D01*
G75*
G02*
X135075000Y-44050000I-200000J0D01*
G01*
X131875000Y-44050000D01*
G75*
G02*
X131675000Y-43850000I0J200000D01*
G01*
X131675000Y-41050000D01*
G75*
G02*
X131875000Y-40850000I200000J0D01*
G01*
X135075000Y-40850000D01*
G04 #@! TO.C,LED28*
X239850000Y-21800000D02*
X239850000Y-21800000D01*
G75*
G02*
X240050000Y-22000000I0J-200000D01*
G01*
X240050000Y-24800000D01*
G75*
G02*
X239850000Y-25000000I-200000J0D01*
G01*
X236650000Y-25000000D01*
G75*
G02*
X236450000Y-24800000I0J200000D01*
G01*
X236450000Y-22000000D01*
G75*
G02*
X236650000Y-21800000I200000J0D01*
G01*
X239850000Y-21800000D01*
G04 #@! TO.C,LED60*
X316050000Y-59900000D02*
X316050000Y-59900000D01*
G75*
G02*
X316250000Y-60100000I0J-200000D01*
G01*
X316250000Y-62900000D01*
G75*
G02*
X316050000Y-63100000I-200000J0D01*
G01*
X312850000Y-63100000D01*
G75*
G02*
X312650000Y-62900000I0J200000D01*
G01*
X312650000Y-60100000D01*
G75*
G02*
X312850000Y-59900000I200000J0D01*
G01*
X316050000Y-59900000D01*
G04 #@! TO.C,LED78*
X144600000Y-98000000D02*
X144600000Y-98000000D01*
G75*
G02*
X144800000Y-98200000I0J-200000D01*
G01*
X144800000Y-101000000D01*
G75*
G02*
X144600000Y-101200000I-200000J0D01*
G01*
X141400000Y-101200000D01*
G75*
G02*
X141200000Y-101000000I0J200000D01*
G01*
X141200000Y-98200000D01*
G75*
G02*
X141400000Y-98000000I200000J0D01*
G01*
X144600000Y-98000000D01*
G04 #@! TO.C,LED39*
X173175000Y-40850000D02*
X173175000Y-40850000D01*
G75*
G02*
X173375000Y-41050000I0J-200000D01*
G01*
X173375000Y-43850000D01*
G75*
G02*
X173175000Y-44050000I-200000J0D01*
G01*
X169975000Y-44050000D01*
G75*
G02*
X169775000Y-43850000I0J200000D01*
G01*
X169775000Y-41050000D01*
G75*
G02*
X169975000Y-40850000I200000J0D01*
G01*
X173175000Y-40850000D01*
G04 #@! TO.C,LED2*
X49350000Y-2750000D02*
X49350000Y-2750000D01*
G75*
G02*
X49550000Y-2950000I0J-200000D01*
G01*
X49550000Y-5750000D01*
G75*
G02*
X49350000Y-5950000I-200000J0D01*
G01*
X46150000Y-5950000D01*
G75*
G02*
X45950000Y-5750000I0J200000D01*
G01*
X45950000Y-2950000D01*
G75*
G02*
X46150000Y-2750000I200000J0D01*
G01*
X49350000Y-2750000D01*
G04 #@! TO.C,LED65*
X125550000Y-78950000D02*
X125550000Y-78950000D01*
G75*
G02*
X125750000Y-79150000I0J-200000D01*
G01*
X125750000Y-81950000D01*
G75*
G02*
X125550000Y-82150000I-200000J0D01*
G01*
X122350000Y-82150000D01*
G75*
G02*
X122150000Y-81950000I0J200000D01*
G01*
X122150000Y-79150000D01*
G75*
G02*
X122350000Y-78950000I200000J0D01*
G01*
X125550000Y-78950000D01*
G04 #@! TO.C,LED11*
X220800000Y-2750000D02*
X220800000Y-2750000D01*
G75*
G02*
X221000000Y-2950000I0J-200000D01*
G01*
X221000000Y-5750000D01*
G75*
G02*
X220800000Y-5950000I-200000J0D01*
G01*
X217600000Y-5950000D01*
G75*
G02*
X217400000Y-5750000I0J200000D01*
G01*
X217400000Y-2950000D01*
G75*
G02*
X217600000Y-2750000I200000J0D01*
G01*
X220800000Y-2750000D01*
G04 #@! TO.C,LED43*
X249375000Y-40850000D02*
X249375000Y-40850000D01*
G75*
G02*
X249575000Y-41050000I0J-200000D01*
G01*
X249575000Y-43850000D01*
G75*
G02*
X249375000Y-44050000I-200000J0D01*
G01*
X246175000Y-44050000D01*
G75*
G02*
X245975000Y-43850000I0J200000D01*
G01*
X245975000Y-41050000D01*
G75*
G02*
X246175000Y-40850000I200000J0D01*
G01*
X249375000Y-40850000D01*
G04 #@! TO.C,LED14*
X277950000Y-2750000D02*
X277950000Y-2750000D01*
G75*
G02*
X278150000Y-2950000I0J-200000D01*
G01*
X278150000Y-5750000D01*
G75*
G02*
X277950000Y-5950000I-200000J0D01*
G01*
X274750000Y-5950000D01*
G75*
G02*
X274550000Y-5750000I0J200000D01*
G01*
X274550000Y-2950000D01*
G75*
G02*
X274750000Y-2750000I200000J0D01*
G01*
X277950000Y-2750000D01*
G04 #@! TO.C,LED75*
X32681250Y-98000000D02*
X32681250Y-98000000D01*
G75*
G02*
X32881250Y-98200000I-50J-200000D01*
G01*
X32881250Y-101000000D01*
G75*
G02*
X32681250Y-101200000I-200050J0D01*
G01*
X29481250Y-101200000D01*
G75*
G02*
X29281250Y-101000000I50J200000D01*
G01*
X29281250Y-98200000D01*
G75*
G02*
X29481250Y-98000000I200050J0D01*
G01*
X32681250Y-98000000D01*
G04 #@! TO.C,LED27*
X220800000Y-21800000D02*
X220800000Y-21800000D01*
G75*
G02*
X221000000Y-22000000I0J-200000D01*
G01*
X221000000Y-24800000D01*
G75*
G02*
X220800000Y-25000000I-200000J0D01*
G01*
X217600000Y-25000000D01*
G75*
G02*
X217400000Y-24800000I0J200000D01*
G01*
X217400000Y-22000000D01*
G75*
G02*
X217600000Y-21800000I200000J0D01*
G01*
X220800000Y-21800000D01*
G04 #@! TO.C,LED74*
X316050000Y-78950000D02*
X316050000Y-78950000D01*
G75*
G02*
X316250000Y-79150000I0J-200000D01*
G01*
X316250000Y-81950000D01*
G75*
G02*
X316050000Y-82150000I-200000J0D01*
G01*
X312850000Y-82150000D01*
G75*
G02*
X312650000Y-81950000I0J200000D01*
G01*
X312650000Y-79150000D01*
G75*
G02*
X312850000Y-78950000I200000J0D01*
G01*
X316050000Y-78950000D01*
G04 #@! TO.C,LED80*
X232706250Y-98000000D02*
X232706250Y-98000000D01*
G75*
G02*
X232906250Y-98200000I-50J-200000D01*
G01*
X232906250Y-101000000D01*
G75*
G02*
X232706250Y-101200000I-200050J0D01*
G01*
X229506250Y-101200000D01*
G75*
G02*
X229306250Y-101000000I50J200000D01*
G01*
X229306250Y-98200000D01*
G75*
G02*
X229506250Y-98000000I200050J0D01*
G01*
X232706250Y-98000000D01*
G04 #@! TO.C,LED16*
X316050000Y-2750000D02*
X316050000Y-2750000D01*
G75*
G02*
X316250000Y-2950000I0J-200000D01*
G01*
X316250000Y-5750000D01*
G75*
G02*
X316050000Y-5950000I-200000J0D01*
G01*
X312850000Y-5950000D01*
G75*
G02*
X312650000Y-5750000I0J200000D01*
G01*
X312650000Y-2950000D01*
G75*
G02*
X312850000Y-2750000I200000J0D01*
G01*
X316050000Y-2750000D01*
G04 #@! TO.C,LED63*
X87450000Y-78950000D02*
X87450000Y-78950000D01*
G75*
G02*
X87650000Y-79150000I0J-200000D01*
G01*
X87650000Y-81950000D01*
G75*
G02*
X87450000Y-82150000I-200000J0D01*
G01*
X84250000Y-82150000D01*
G75*
G02*
X84050000Y-81950000I0J200000D01*
G01*
X84050000Y-79150000D01*
G75*
G02*
X84250000Y-78950000I200000J0D01*
G01*
X87450000Y-78950000D01*
G04 #@! TO.C,LED10*
X201750000Y-2750000D02*
X201750000Y-2750000D01*
G75*
G02*
X201950000Y-2950000I0J-200000D01*
G01*
X201950000Y-5750000D01*
G75*
G02*
X201750000Y-5950000I-200000J0D01*
G01*
X198550000Y-5950000D01*
G75*
G02*
X198350000Y-5750000I0J200000D01*
G01*
X198350000Y-2950000D01*
G75*
G02*
X198550000Y-2750000I200000J0D01*
G01*
X201750000Y-2750000D01*
G04 #@! TO.C,LED45*
X292237500Y-40850000D02*
X292237500Y-40850000D01*
G75*
G02*
X292437500Y-41050000I0J-200000D01*
G01*
X292437500Y-43850000D01*
G75*
G02*
X292237500Y-44050000I-200000J0D01*
G01*
X289037500Y-44050000D01*
G75*
G02*
X288837500Y-43850000I0J200000D01*
G01*
X288837500Y-41050000D01*
G75*
G02*
X289037500Y-40850000I200000J0D01*
G01*
X292237500Y-40850000D01*
G04 #@! TO.C,LED70*
X220800000Y-78950000D02*
X220800000Y-78950000D01*
G75*
G02*
X221000000Y-79150000I0J-200000D01*
G01*
X221000000Y-81950000D01*
G75*
G02*
X220800000Y-82150000I-200000J0D01*
G01*
X217600000Y-82150000D01*
G75*
G02*
X217400000Y-81950000I0J200000D01*
G01*
X217400000Y-79150000D01*
G75*
G02*
X217600000Y-78950000I200000J0D01*
G01*
X220800000Y-78950000D01*
G04 #@! TO.C,LED52*
X135075000Y-59900000D02*
X135075000Y-59900000D01*
G75*
G02*
X135275000Y-60100000I0J-200000D01*
G01*
X135275000Y-62900000D01*
G75*
G02*
X135075000Y-63100000I-200000J0D01*
G01*
X131875000Y-63100000D01*
G75*
G02*
X131675000Y-62900000I0J200000D01*
G01*
X131675000Y-60100000D01*
G75*
G02*
X131875000Y-59900000I200000J0D01*
G01*
X135075000Y-59900000D01*
G04 #@! TO.C,LED33*
X58875000Y-40850000D02*
X58875000Y-40850000D01*
G75*
G02*
X59075000Y-41050000I0J-200000D01*
G01*
X59075000Y-43850000D01*
G75*
G02*
X58875000Y-44050000I-200000J0D01*
G01*
X55675000Y-44050000D01*
G75*
G02*
X55475000Y-43850000I0J200000D01*
G01*
X55475000Y-41050000D01*
G75*
G02*
X55675000Y-40850000I200000J0D01*
G01*
X58875000Y-40850000D01*
G04 #@! TO.C,LED15*
X297000000Y-2750000D02*
X297000000Y-2750000D01*
G75*
G02*
X297200000Y-2950000I0J-200000D01*
G01*
X297200000Y-5750000D01*
G75*
G02*
X297000000Y-5950000I-200000J0D01*
G01*
X293800000Y-5950000D01*
G75*
G02*
X293600000Y-5750000I0J200000D01*
G01*
X293600000Y-2950000D01*
G75*
G02*
X293800000Y-2750000I200000J0D01*
G01*
X297000000Y-2750000D01*
G04 #@! TO.C,LED17*
X30300000Y-21800000D02*
X30300000Y-21800000D01*
G75*
G02*
X30500000Y-22000000I0J-200000D01*
G01*
X30500000Y-24800000D01*
G75*
G02*
X30300000Y-25000000I-200000J0D01*
G01*
X27100000Y-25000000D01*
G75*
G02*
X26900000Y-24800000I0J200000D01*
G01*
X26900000Y-22000000D01*
G75*
G02*
X27100000Y-21800000I200000J0D01*
G01*
X30300000Y-21800000D01*
G04 #@! TO.C,LED59*
X282712500Y-59900000D02*
X282712500Y-59900000D01*
G75*
G02*
X282912500Y-60100000I0J-200000D01*
G01*
X282912500Y-62900000D01*
G75*
G02*
X282712500Y-63100000I-200000J0D01*
G01*
X279512500Y-63100000D01*
G75*
G02*
X279312500Y-62900000I0J200000D01*
G01*
X279312500Y-60100000D01*
G75*
G02*
X279512500Y-59900000I200000J0D01*
G01*
X282712500Y-59900000D01*
G04 #@! TO.C,LED29*
X258900000Y-21800000D02*
X258900000Y-21800000D01*
G75*
G02*
X259100000Y-22000000I0J-200000D01*
G01*
X259100000Y-24800000D01*
G75*
G02*
X258900000Y-25000000I-200000J0D01*
G01*
X255700000Y-25000000D01*
G75*
G02*
X255500000Y-24800000I0J200000D01*
G01*
X255500000Y-22000000D01*
G75*
G02*
X255700000Y-21800000I200000J0D01*
G01*
X258900000Y-21800000D01*
G04 #@! TO.C,LED83*
X297000000Y-98000000D02*
X297000000Y-98000000D01*
G75*
G02*
X297200000Y-98200000I0J-200000D01*
G01*
X297200000Y-101000000D01*
G75*
G02*
X297000000Y-101200000I-200000J0D01*
G01*
X293800000Y-101200000D01*
G75*
G02*
X293600000Y-101000000I0J200000D01*
G01*
X293600000Y-98200000D01*
G75*
G02*
X293800000Y-98000000I200000J0D01*
G01*
X297000000Y-98000000D01*
G04 #@! TO.C,LED26*
X201750000Y-21800000D02*
X201750000Y-21800000D01*
G75*
G02*
X201950000Y-22000000I0J-200000D01*
G01*
X201950000Y-24800000D01*
G75*
G02*
X201750000Y-25000000I-200000J0D01*
G01*
X198550000Y-25000000D01*
G75*
G02*
X198350000Y-24800000I0J200000D01*
G01*
X198350000Y-22000000D01*
G75*
G02*
X198550000Y-21800000I200000J0D01*
G01*
X201750000Y-21800000D01*
G04 #@! TO.C,LED68*
X182700000Y-78950000D02*
X182700000Y-78950000D01*
G75*
G02*
X182900000Y-79150000I0J-200000D01*
G01*
X182900000Y-81950000D01*
G75*
G02*
X182700000Y-82150000I-200000J0D01*
G01*
X179500000Y-82150000D01*
G75*
G02*
X179300000Y-81950000I0J200000D01*
G01*
X179300000Y-79150000D01*
G75*
G02*
X179500000Y-78950000I200000J0D01*
G01*
X182700000Y-78950000D01*
G04 #@! TO.C,LED73*
X297000000Y-78950000D02*
X297000000Y-78950000D01*
G75*
G02*
X297200000Y-79150000I0J-200000D01*
G01*
X297200000Y-81950000D01*
G75*
G02*
X297000000Y-82150000I-200000J0D01*
G01*
X293800000Y-82150000D01*
G75*
G02*
X293600000Y-81950000I0J200000D01*
G01*
X293600000Y-79150000D01*
G75*
G02*
X293800000Y-78950000I200000J0D01*
G01*
X297000000Y-78950000D01*
G04 #@! TO.C,LED38*
X154125000Y-40850000D02*
X154125000Y-40850000D01*
G75*
G02*
X154325000Y-41050000I0J-200000D01*
G01*
X154325000Y-43850000D01*
G75*
G02*
X154125000Y-44050000I-200000J0D01*
G01*
X150925000Y-44050000D01*
G75*
G02*
X150725000Y-43850000I0J200000D01*
G01*
X150725000Y-41050000D01*
G75*
G02*
X150925000Y-40850000I200000J0D01*
G01*
X154125000Y-40850000D01*
G04 #@! TO.C,LED23*
X144600000Y-21800000D02*
X144600000Y-21800000D01*
G75*
G02*
X144800000Y-22000000I0J-200000D01*
G01*
X144800000Y-24800000D01*
G75*
G02*
X144600000Y-25000000I-200000J0D01*
G01*
X141400000Y-25000000D01*
G75*
G02*
X141200000Y-24800000I0J200000D01*
G01*
X141200000Y-22000000D01*
G75*
G02*
X141400000Y-21800000I200000J0D01*
G01*
X144600000Y-21800000D01*
G04 #@! TO.C,LED7*
X144600000Y-2750000D02*
X144600000Y-2750000D01*
G75*
G02*
X144800000Y-2950000I0J-200000D01*
G01*
X144800000Y-5750000D01*
G75*
G02*
X144600000Y-5950000I-200000J0D01*
G01*
X141400000Y-5950000D01*
G75*
G02*
X141200000Y-5750000I0J200000D01*
G01*
X141200000Y-2950000D01*
G75*
G02*
X141400000Y-2750000I200000J0D01*
G01*
X144600000Y-2750000D01*
G04 #@! TO.C,LED21*
X106500000Y-21800000D02*
X106500000Y-21800000D01*
G75*
G02*
X106700000Y-22000000I0J-200000D01*
G01*
X106700000Y-24800000D01*
G75*
G02*
X106500000Y-25000000I-200000J0D01*
G01*
X103300000Y-25000000D01*
G75*
G02*
X103100000Y-24800000I0J200000D01*
G01*
X103100000Y-22000000D01*
G75*
G02*
X103300000Y-21800000I200000J0D01*
G01*
X106500000Y-21800000D01*
G04 #@! TO.C,LED32*
X35062500Y-40850000D02*
X35062500Y-40850000D01*
G75*
G02*
X35262500Y-41050000I0J-200000D01*
G01*
X35262500Y-43850000D01*
G75*
G02*
X35062500Y-44050000I-200000J0D01*
G01*
X31862500Y-44050000D01*
G75*
G02*
X31662500Y-43850000I0J200000D01*
G01*
X31662500Y-41050000D01*
G75*
G02*
X31862500Y-40850000I200000J0D01*
G01*
X35062500Y-40850000D01*
G04 #@! TO.C,LED41*
X211275000Y-40850000D02*
X211275000Y-40850000D01*
G75*
G02*
X211475000Y-41050000I0J-200000D01*
G01*
X211475000Y-43850000D01*
G75*
G02*
X211275000Y-44050000I-200000J0D01*
G01*
X208075000Y-44050000D01*
G75*
G02*
X207875000Y-43850000I0J200000D01*
G01*
X207875000Y-41050000D01*
G75*
G02*
X208075000Y-40850000I200000J0D01*
G01*
X211275000Y-40850000D01*
G04 #@! TO.C,LED53*
X154125000Y-59900000D02*
X154125000Y-59900000D01*
G75*
G02*
X154325000Y-60100000I0J-200000D01*
G01*
X154325000Y-62900000D01*
G75*
G02*
X154125000Y-63100000I-200000J0D01*
G01*
X150925000Y-63100000D01*
G75*
G02*
X150725000Y-62900000I0J200000D01*
G01*
X150725000Y-60100000D01*
G75*
G02*
X150925000Y-59900000I200000J0D01*
G01*
X154125000Y-59900000D01*
G04 #@! TO.C,LED36*
X116025000Y-40850000D02*
X116025000Y-40850000D01*
G75*
G02*
X116225000Y-41050000I0J-200000D01*
G01*
X116225000Y-43850000D01*
G75*
G02*
X116025000Y-44050000I-200000J0D01*
G01*
X112825000Y-44050000D01*
G75*
G02*
X112625000Y-43850000I0J200000D01*
G01*
X112625000Y-41050000D01*
G75*
G02*
X112825000Y-40850000I200000J0D01*
G01*
X116025000Y-40850000D01*
G04 #@! TO.C,LED82*
X277950000Y-98000000D02*
X277950000Y-98000000D01*
G75*
G02*
X278150000Y-98200000I0J-200000D01*
G01*
X278150000Y-101000000D01*
G75*
G02*
X277950000Y-101200000I-200000J0D01*
G01*
X274750000Y-101200000D01*
G75*
G02*
X274550000Y-101000000I0J200000D01*
G01*
X274550000Y-98200000D01*
G75*
G02*
X274750000Y-98000000I200000J0D01*
G01*
X277950000Y-98000000D01*
G04 #@! TO.C,LED71*
X239850000Y-78950000D02*
X239850000Y-78950000D01*
G75*
G02*
X240050000Y-79150000I0J-200000D01*
G01*
X240050000Y-81950000D01*
G75*
G02*
X239850000Y-82150000I-200000J0D01*
G01*
X236650000Y-82150000D01*
G75*
G02*
X236450000Y-81950000I0J200000D01*
G01*
X236450000Y-79150000D01*
G75*
G02*
X236650000Y-78950000I200000J0D01*
G01*
X239850000Y-78950000D01*
G04 #@! TO.C,LED18*
X49350000Y-21800000D02*
X49350000Y-21800000D01*
G75*
G02*
X49550000Y-22000000I0J-200000D01*
G01*
X49550000Y-24800000D01*
G75*
G02*
X49350000Y-25000000I-200000J0D01*
G01*
X46150000Y-25000000D01*
G75*
G02*
X45950000Y-24800000I0J200000D01*
G01*
X45950000Y-22000000D01*
G75*
G02*
X46150000Y-21800000I200000J0D01*
G01*
X49350000Y-21800000D01*
G04 #@! TO.C,LED58*
X249375000Y-59900000D02*
X249375000Y-59900000D01*
G75*
G02*
X249575000Y-60100000I0J-200000D01*
G01*
X249575000Y-62900000D01*
G75*
G02*
X249375000Y-63100000I-200000J0D01*
G01*
X246175000Y-63100000D01*
G75*
G02*
X245975000Y-62900000I0J200000D01*
G01*
X245975000Y-60100000D01*
G75*
G02*
X246175000Y-59900000I200000J0D01*
G01*
X249375000Y-59900000D01*
G04 #@! TO.C,LED35*
X96975000Y-40850000D02*
X96975000Y-40850000D01*
G75*
G02*
X97175000Y-41050000I0J-200000D01*
G01*
X97175000Y-43850000D01*
G75*
G02*
X96975000Y-44050000I-200000J0D01*
G01*
X93775000Y-44050000D01*
G75*
G02*
X93575000Y-43850000I0J200000D01*
G01*
X93575000Y-41050000D01*
G75*
G02*
X93775000Y-40850000I200000J0D01*
G01*
X96975000Y-40850000D01*
G04 #@! TO.C,LED8*
X163650000Y-2750000D02*
X163650000Y-2750000D01*
G75*
G02*
X163850000Y-2950000I0J-200000D01*
G01*
X163850000Y-5750000D01*
G75*
G02*
X163650000Y-5950000I-200000J0D01*
G01*
X160450000Y-5950000D01*
G75*
G02*
X160250000Y-5750000I0J200000D01*
G01*
X160250000Y-2950000D01*
G75*
G02*
X160450000Y-2750000I200000J0D01*
G01*
X163650000Y-2750000D01*
G04 #@! TO.C,LED20*
X87450000Y-21800000D02*
X87450000Y-21800000D01*
G75*
G02*
X87650000Y-22000000I0J-200000D01*
G01*
X87650000Y-24800000D01*
G75*
G02*
X87450000Y-25000000I-200000J0D01*
G01*
X84250000Y-25000000D01*
G75*
G02*
X84050000Y-24800000I0J200000D01*
G01*
X84050000Y-22000000D01*
G75*
G02*
X84250000Y-21800000I200000J0D01*
G01*
X87450000Y-21800000D01*
G04 #@! TO.C,LED76*
X56493750Y-98000000D02*
X56493750Y-98000000D01*
G75*
G02*
X56693750Y-98200000I-50J-200000D01*
G01*
X56693750Y-101000000D01*
G75*
G02*
X56493750Y-101200000I-200050J0D01*
G01*
X53293750Y-101200000D01*
G75*
G02*
X53093750Y-101000000I50J200000D01*
G01*
X53093750Y-98200000D01*
G75*
G02*
X53293750Y-98000000I200050J0D01*
G01*
X56493750Y-98000000D01*
G04 #@! TO.C,LED19*
X68400000Y-21800000D02*
X68400000Y-21800000D01*
G75*
G02*
X68600000Y-22000000I0J-200000D01*
G01*
X68600000Y-24800000D01*
G75*
G02*
X68400000Y-25000000I-200000J0D01*
G01*
X65200000Y-25000000D01*
G75*
G02*
X65000000Y-24800000I0J200000D01*
G01*
X65000000Y-22000000D01*
G75*
G02*
X65200000Y-21800000I200000J0D01*
G01*
X68400000Y-21800000D01*
G04 #@! TO.C,LED77*
X80306250Y-98000000D02*
X80306250Y-98000000D01*
G75*
G02*
X80506250Y-98200000I-50J-200000D01*
G01*
X80506250Y-101000000D01*
G75*
G02*
X80306250Y-101200000I-200050J0D01*
G01*
X77106250Y-101200000D01*
G75*
G02*
X76906250Y-101000000I50J200000D01*
G01*
X76906250Y-98200000D01*
G75*
G02*
X77106250Y-98000000I200050J0D01*
G01*
X80306250Y-98000000D01*
G04 #@! TO.C,LED50*
X96975000Y-59900000D02*
X96975000Y-59900000D01*
G75*
G02*
X97175000Y-60100000I0J-200000D01*
G01*
X97175000Y-62900000D01*
G75*
G02*
X96975000Y-63100000I-200000J0D01*
G01*
X93775000Y-63100000D01*
G75*
G02*
X93575000Y-62900000I0J200000D01*
G01*
X93575000Y-60100000D01*
G75*
G02*
X93775000Y-59900000I200000J0D01*
G01*
X96975000Y-59900000D01*
G04 #@! TD*
M02*
