M48
; DRILL file {KiCad 9.0.4} date 2025-10-17T21:49:05+0800
; FORMAT={-:-/ absolute / metric / decimal}
; #@! TF.CreationDate,2025-10-17T21:49:05+08:00
; #@! TF.GenerationSoftware,Kicad,Pcbnew,9.0.4
; #@! TF.FileFunction,MixedPlating,1,2
FMAT,2
METRIC
; #@! TA.AperFunction,Plated,PTH,ViaDrill
T1C0.300
; #@! TA.AperFunction,Plated,PTH,ComponentDrill
T2C0.750
; #@! TA.AperFunction,Plated,PTH,ComponentDrill
T3C0.900
; #@! TA.AperFunction,Plated,PTH,ComponentDrill
T4C1.000
; #@! TA.AperFunction,Plated,PTH,ComponentDrill
T5C1.520
; #@! TA.AperFunction,Plated,PTH,ComponentDrill
T6C1.700
; #@! TA.AperFunction,Plated,PTH,ComponentDrill
T7C2.000
; #@! TA.AperFunction,Plated,PTH,ComponentDrill
T8C2.500
; #@! TA.AperFunction,Plated,PTH,ComponentDrill
T9C3.000
; #@! TA.AperFunction,NonPlated,NPTH,ComponentDrill
T10C5.000
%
G90
G05
T1
X53.85Y-87.25
X62.25Y-102.7
X62.5Y-134.6
X63.25Y-101.7
X63.25Y-102.7
X65.05Y-100.7
X65.05Y-101.7
X65.05Y-102.7
X68.35Y-65.7
X68.45Y-105.5
X69.0Y-69.0
X69.0Y-84.75
X71.4Y-157.68
X72.05Y-52.6
X72.25Y-121.5
X72.6Y-102.45
X76.55Y-106.65
X76.9Y-109.75
X78.15Y-105.8
X78.525Y-141.95
X78.55Y-111.35
X85.7Y-122.25
X87.35Y-49.55
X87.35Y-68.6
X88.1Y-54.149
X88.1Y-73.2
X93.25Y-140.8
X94.3Y-145.2
X95.2Y-149.425
X96.6Y-87.6
X96.6Y-106.65
X97.35Y-92.25
X97.35Y-111.35
X102.05Y-140.7
X106.2Y-126.575
X106.95Y-129.525
X109.0Y-144.85
X109.7Y-149.425
X113.997Y-122.252
X133.3Y-122.5
X148.0Y-159.85
X152.347Y-122.502
X156.8Y-159.6
X171.397Y-122.502
X190.447Y-122.502
X203.835Y-103.25
X222.885Y-103.25
X224.2Y-160.05
X233.0Y-160.05
X241.935Y-103.5
X260.985Y-103.5
X280.035Y-103.5
X297.95Y-140.95
X299.085Y-103.5
X307.125Y-141.675
X312.3Y-121.75
X316.675Y-103.5
X321.0Y-122.95
X321.85Y-141.0
X329.6Y-103.5
X330.6Y-140.55
X336.15Y-121.75
X344.95Y-121.751
X346.71Y-103.5
T2
X50.5Y-83.5
X50.5Y-96.0
X52.5Y-83.5
X52.5Y-96.0
X54.5Y-83.5
X54.5Y-96.0
X56.5Y-83.5
X56.5Y-96.0
X58.5Y-83.5
X58.5Y-96.0
X58.5Y-147.5
X58.5Y-149.5
X58.5Y-151.5
X58.5Y-153.5
X58.5Y-155.5
X58.5Y-157.5
X60.5Y-96.0
X62.5Y-96.0
T3
X48.718Y-70.5
X48.718Y-73.0
X48.718Y-75.5
X50.885Y-111.74
X50.885Y-114.28
X50.885Y-116.82
X50.885Y-119.36
X50.885Y-121.9
X50.885Y-124.44
X50.885Y-126.98
X50.885Y-129.52
X50.885Y-132.06
X50.885Y-134.6
X50.885Y-137.14
X50.885Y-139.68
X50.885Y-142.22
X50.885Y-144.76
X50.885Y-147.3
X50.885Y-149.84
X50.885Y-152.38
X50.885Y-154.92
X50.885Y-157.46
X50.885Y-160.0
X52.017Y-70.5
X52.017Y-73.0
X52.017Y-75.5
X54.721Y-115.525
X57.261Y-115.525
X59.801Y-115.525
X62.341Y-115.525
X66.1Y-111.74
X66.1Y-114.28
X66.1Y-116.82
X66.1Y-119.36
X66.1Y-121.9
X66.1Y-124.44
X66.1Y-126.98
X66.1Y-129.52
X66.1Y-132.06
X66.1Y-134.6
X66.1Y-137.14
X66.1Y-139.68
X66.1Y-142.22
X66.1Y-144.76
X66.1Y-147.3
X66.1Y-149.84
X66.1Y-152.38
X66.1Y-154.92
X66.1Y-157.46
X66.1Y-160.0
T4
X54.65Y-50.15
X54.65Y-64.65
X57.15Y-64.65
X59.65Y-50.15
X59.65Y-64.65
X81.2Y-52.0
X81.2Y-71.05
X83.581Y-147.25
X85.962Y-90.1
X85.962Y-109.15
X90.725Y-128.2
X100.25Y-52.0
X100.25Y-71.05
X107.394Y-147.25
X109.775Y-90.1
X109.775Y-109.15
X119.3Y-52.0
X119.3Y-71.05
X119.3Y-128.2
X128.825Y-90.1
X128.825Y-109.15
X131.206Y-147.25
X138.35Y-52.0
X138.35Y-71.05
X138.35Y-128.2
X147.875Y-90.1
X147.875Y-109.15
X157.4Y-52.0
X157.4Y-71.05
X157.4Y-128.2
X166.925Y-90.1
X166.925Y-109.15
X176.45Y-52.0
X176.45Y-71.05
X176.45Y-128.2
X185.975Y-90.1
X185.975Y-109.15
X195.5Y-52.0
X195.5Y-71.05
X195.5Y-128.2
X195.5Y-147.25
X205.025Y-90.1
X205.025Y-109.15
X214.55Y-52.0
X214.55Y-71.05
X214.55Y-128.2
X224.075Y-90.1
X224.075Y-109.15
X233.6Y-52.0
X233.6Y-71.05
X233.6Y-128.2
X243.125Y-90.1
X243.125Y-109.15
X252.65Y-52.0
X252.65Y-71.05
X252.65Y-128.2
X259.794Y-147.25
X262.175Y-90.1
X262.175Y-109.15
X271.7Y-52.0
X271.7Y-71.05
X271.7Y-128.2
X281.225Y-90.1
X281.225Y-109.15
X283.606Y-147.25
X290.75Y-52.0
X290.75Y-71.05
X290.75Y-128.2
X300.275Y-90.1
X300.275Y-109.15
X307.419Y-147.25
X309.8Y-52.0
X309.8Y-71.05
X319.325Y-90.1
X319.325Y-128.2
X328.85Y-52.0
X328.85Y-147.25
X333.613Y-109.15
X338.375Y-71.05
X343.137Y-90.1
X347.9Y-52.0
X347.9Y-128.2
X347.9Y-147.25
X366.95Y-52.0
X366.95Y-71.05
X366.95Y-90.1
X366.95Y-109.15
X366.95Y-128.2
X366.95Y-147.25
T5
X71.2Y-60.95
X71.2Y-80.0
X73.581Y-156.2
X73.66Y-62.23
X73.66Y-81.28
X75.962Y-99.05
X75.962Y-118.1
X76.041Y-157.48
X76.2Y-63.05
X76.2Y-82.1
X78.422Y-100.33
X78.422Y-119.38
X78.581Y-158.3
X80.01Y-59.69
X80.01Y-78.74
X80.725Y-137.15
X80.962Y-101.15
X80.962Y-120.2
X82.391Y-154.94
X83.185Y-138.43
X84.772Y-97.79
X84.772Y-116.84
X85.725Y-139.25
X89.535Y-135.89
X90.25Y-60.95
X90.25Y-80.0
X92.71Y-62.23
X92.71Y-81.28
X95.25Y-63.05
X95.25Y-82.1
X97.394Y-156.2
X99.06Y-59.69
X99.06Y-78.74
X99.775Y-99.05
X99.775Y-118.1
X99.854Y-157.48
X102.235Y-100.33
X102.235Y-119.38
X102.394Y-158.3
X104.775Y-101.15
X104.775Y-120.2
X106.204Y-154.94
X108.585Y-97.79
X108.585Y-116.84
X109.3Y-60.95
X109.3Y-80.0
X109.3Y-137.15
X111.76Y-62.23
X111.76Y-81.28
X111.76Y-138.43
X114.3Y-63.05
X114.3Y-82.1
X114.3Y-139.25
X118.11Y-59.69
X118.11Y-78.74
X118.11Y-135.89
X118.825Y-99.05
X118.825Y-118.1
X121.206Y-156.2
X121.285Y-100.33
X121.285Y-119.38
X123.666Y-157.48
X123.825Y-101.15
X123.825Y-120.2
X126.206Y-158.3
X127.635Y-97.79
X127.635Y-116.84
X128.35Y-60.95
X128.35Y-80.0
X128.35Y-137.15
X130.016Y-154.94
X130.81Y-62.23
X130.81Y-81.28
X130.81Y-138.43
X133.35Y-63.05
X133.35Y-82.1
X133.35Y-139.25
X137.16Y-59.69
X137.16Y-78.74
X137.16Y-135.89
X137.875Y-99.05
X137.875Y-118.1
X140.335Y-100.33
X140.335Y-119.38
X142.875Y-101.15
X142.875Y-120.2
X146.685Y-97.79
X146.685Y-116.84
X147.4Y-60.95
X147.4Y-80.0
X147.4Y-137.15
X149.86Y-62.23
X149.86Y-81.28
X149.86Y-138.43
X152.4Y-63.05
X152.4Y-82.1
X152.4Y-139.25
X156.21Y-59.69
X156.21Y-78.74
X156.21Y-135.89
X156.925Y-99.05
X156.925Y-118.1
X159.385Y-100.33
X159.385Y-119.38
X161.925Y-101.15
X161.925Y-120.2
X165.735Y-97.79
X165.735Y-116.84
X166.45Y-60.95
X166.45Y-80.0
X166.45Y-137.15
X168.91Y-62.23
X168.91Y-81.28
X168.91Y-138.43
X171.45Y-63.05
X171.45Y-82.1
X171.45Y-139.25
X175.26Y-59.69
X175.26Y-78.74
X175.26Y-135.89
X175.975Y-99.05
X175.975Y-118.1
X178.435Y-100.33
X178.435Y-119.38
X180.975Y-101.15
X180.975Y-120.2
X184.785Y-97.79
X184.785Y-116.84
X185.5Y-60.95
X185.5Y-80.0
X185.5Y-137.15
X185.5Y-156.2
X187.96Y-62.23
X187.96Y-81.28
X187.96Y-138.43
X187.96Y-157.48
X190.5Y-63.05
X190.5Y-82.1
X190.5Y-139.25
X190.5Y-158.3
X194.31Y-59.69
X194.31Y-78.74
X194.31Y-135.89
X194.31Y-154.94
X195.025Y-99.05
X195.025Y-118.1
X197.485Y-100.33
X197.485Y-119.38
X200.025Y-101.15
X200.025Y-120.2
X203.835Y-97.79
X203.835Y-116.84
X204.55Y-60.95
X204.55Y-80.0
X204.55Y-137.15
X207.01Y-62.23
X207.01Y-81.28
X207.01Y-138.43
X209.55Y-63.05
X209.55Y-82.1
X209.55Y-139.25
X213.36Y-59.69
X213.36Y-78.74
X213.36Y-135.89
X214.075Y-99.05
X214.075Y-118.1
X216.535Y-100.33
X216.535Y-119.38
X219.075Y-101.15
X219.075Y-120.2
X222.885Y-97.79
X222.885Y-116.84
X223.6Y-60.95
X223.6Y-80.0
X223.6Y-137.15
X226.06Y-62.23
X226.06Y-81.28
X226.06Y-138.43
X228.6Y-63.05
X228.6Y-82.1
X228.6Y-139.25
X232.41Y-59.69
X232.41Y-78.74
X232.41Y-135.89
X233.125Y-99.05
X233.125Y-118.1
X235.585Y-100.33
X235.585Y-119.38
X238.125Y-101.15
X238.125Y-120.2
X241.935Y-97.79
X241.935Y-116.84
X242.65Y-60.95
X242.65Y-80.0
X242.65Y-137.15
X245.11Y-62.23
X245.11Y-81.28
X245.11Y-138.43
X247.65Y-63.05
X247.65Y-82.1
X247.65Y-139.25
X249.794Y-156.2
X251.46Y-59.69
X251.46Y-78.74
X251.46Y-135.89
X252.175Y-99.05
X252.175Y-118.1
X252.254Y-157.48
X254.635Y-100.33
X254.635Y-119.38
X254.794Y-158.3
X257.175Y-101.15
X257.175Y-120.2
X258.604Y-154.94
X260.985Y-97.79
X260.985Y-116.84
X261.7Y-60.95
X261.7Y-80.0
X261.7Y-137.15
X264.16Y-62.23
X264.16Y-81.28
X264.16Y-138.43
X266.7Y-63.05
X266.7Y-82.1
X266.7Y-139.25
X270.51Y-59.69
X270.51Y-78.74
X270.51Y-135.89
X271.225Y-99.05
X271.225Y-118.1
X273.606Y-156.2
X273.685Y-100.33
X273.685Y-119.38
X276.066Y-157.48
X276.225Y-101.15
X276.225Y-120.2
X278.606Y-158.3
X280.035Y-97.79
X280.035Y-116.84
X280.75Y-60.95
X280.75Y-80.0
X280.75Y-137.15
X282.416Y-154.94
X283.21Y-62.23
X283.21Y-81.28
X283.21Y-138.43
X285.75Y-63.05
X285.75Y-82.1
X285.75Y-139.25
X289.56Y-59.69
X289.56Y-78.74
X289.56Y-135.89
X290.275Y-99.05
X290.275Y-118.1
X292.735Y-100.33
X292.735Y-119.38
X295.275Y-101.15
X295.275Y-120.2
X297.419Y-156.2
X299.085Y-97.79
X299.085Y-116.84
X299.8Y-60.95
X299.8Y-80.0
X299.879Y-157.48
X302.26Y-62.23
X302.26Y-81.28
X302.419Y-158.3
X304.8Y-63.05
X304.8Y-82.1
X306.229Y-154.94
X308.61Y-59.69
X308.61Y-78.74
X309.325Y-99.05
X309.325Y-137.15
X311.785Y-100.33
X311.785Y-138.43
X314.325Y-101.15
X314.325Y-139.25
X318.135Y-97.79
X318.135Y-135.89
X318.85Y-60.95
X318.85Y-156.2
X321.31Y-62.23
X321.31Y-157.48
X323.613Y-118.1
X323.85Y-63.05
X323.85Y-158.3
X326.072Y-119.38
X327.66Y-59.69
X327.66Y-154.94
X328.375Y-80.0
X328.613Y-120.2
X330.835Y-81.28
X332.422Y-116.84
X333.137Y-99.05
X333.375Y-82.1
X335.597Y-100.33
X337.185Y-78.74
X337.9Y-60.95
X337.9Y-137.15
X337.9Y-156.2
X338.137Y-101.15
X340.36Y-62.23
X340.36Y-138.43
X340.36Y-157.48
X341.947Y-97.79
X342.9Y-63.05
X342.9Y-139.25
X342.9Y-158.3
X346.71Y-59.69
X346.71Y-135.89
X346.71Y-154.94
X356.95Y-60.95
X356.95Y-80.0
X356.95Y-99.05
X356.95Y-118.1
X356.95Y-137.15
X356.95Y-156.2
X359.41Y-62.23
X359.41Y-81.28
X359.41Y-100.33
X359.41Y-119.38
X359.41Y-138.43
X359.41Y-157.48
X361.95Y-63.05
X361.95Y-82.1
X361.95Y-101.15
X361.95Y-120.2
X361.95Y-139.25
X361.95Y-158.3
X365.76Y-59.69
X365.76Y-78.74
X365.76Y-97.79
X365.76Y-116.84
X365.76Y-135.89
X365.76Y-154.94
T8
X66.675Y-57.15
X71.438Y-95.25
X88.106Y-152.4
X90.487Y-114.3
X133.35Y-95.25
X133.35Y-114.3
X142.875Y-152.4
X161.925Y-57.15
X190.5Y-95.25
X190.5Y-114.3
X238.125Y-152.4
X247.65Y-95.25
X247.65Y-114.3
X257.175Y-57.15
X292.894Y-152.4
X304.8Y-95.25
X304.8Y-114.3
X352.425Y-57.15
X352.425Y-152.4
T9
X85.725Y-76.2
X104.775Y-133.35
X161.925Y-76.2
X180.975Y-133.35
X238.125Y-76.2
X257.175Y-133.35
X314.325Y-76.2
X333.375Y-133.35
T10
X76.2Y-57.15
X76.2Y-76.2
X78.581Y-152.4
X80.962Y-95.25
X80.962Y-114.3
X85.725Y-133.35
X95.25Y-57.15
X95.25Y-76.2
X102.394Y-152.4
X104.775Y-95.25
X104.775Y-114.3
X114.3Y-57.15
X114.3Y-76.2
X114.3Y-133.35
X123.825Y-95.25
X123.825Y-114.3
X126.206Y-152.4
X133.35Y-57.15
X133.35Y-76.2
X133.35Y-133.35
X142.875Y-95.25
X142.875Y-114.3
X152.4Y-57.15
X152.4Y-76.2
X152.4Y-133.35
X161.925Y-95.25
X161.925Y-114.3
X171.45Y-57.15
X171.45Y-76.2
X171.45Y-133.35
X180.975Y-95.25
X180.975Y-114.3
X190.5Y-57.15
X190.5Y-76.2
X190.5Y-133.35
X190.5Y-152.4
X200.025Y-95.25
X200.025Y-114.3
X209.55Y-57.15
X209.55Y-76.2
X209.55Y-133.35
X219.075Y-95.25
X219.075Y-114.3
X228.6Y-57.15
X228.6Y-76.2
X228.6Y-133.35
X238.125Y-95.25
X238.125Y-114.3
X247.65Y-57.15
X247.65Y-76.2
X247.65Y-133.35
X254.794Y-152.4
X257.175Y-95.25
X257.175Y-114.3
X266.7Y-57.15
X266.7Y-76.2
X266.7Y-133.35
X276.225Y-95.25
X276.225Y-114.3
X278.606Y-152.4
X285.75Y-57.15
X285.75Y-76.2
X285.75Y-133.35
X295.275Y-95.25
X295.275Y-114.3
X302.419Y-152.4
X304.8Y-57.15
X304.8Y-76.2
X314.325Y-95.25
X314.325Y-133.35
X323.85Y-57.15
X323.85Y-152.4
X328.613Y-114.3
X333.375Y-76.2
X338.137Y-95.25
X342.9Y-57.15
X342.9Y-133.35
X342.9Y-152.4
X361.95Y-57.15
X361.95Y-76.2
X361.95Y-95.25
X361.95Y-114.3
X361.95Y-133.35
X361.95Y-152.4
T6
G00X70.705Y-57.15
M15
G01X71.115Y-57.15
M16
G05
G00X70.705Y-76.2
M15
G01X71.115Y-76.2
M16
G05
G00X73.086Y-152.4
M15
G01X73.496Y-152.4
M16
G05
G00X75.468Y-95.25
M15
G01X75.877Y-95.25
M16
G05
G00X75.468Y-114.3
M15
G01X75.877Y-114.3
M16
G05
G00X80.23Y-133.35
M15
G01X80.64Y-133.35
M16
G05
G00X81.285Y-57.15
M15
G01X81.695Y-57.15
M16
G05
G00X81.285Y-76.2
M15
G01X81.695Y-76.2
M16
G05
G00X83.666Y-152.4
M15
G01X84.076Y-152.4
M16
G05
G00X86.047Y-95.25
M15
G01X86.457Y-95.25
M16
G05
G00X86.047Y-114.3
M15
G01X86.457Y-114.3
M16
G05
G00X89.755Y-57.15
M15
G01X90.165Y-57.15
M16
G05
G00X89.755Y-76.2
M15
G01X90.165Y-76.2
M16
G05
G00X90.81Y-133.35
M15
G01X91.22Y-133.35
M16
G05
G00X96.899Y-152.4
M15
G01X97.309Y-152.4
M16
G05
G00X99.28Y-95.25
M15
G01X99.69Y-95.25
M16
G05
G00X99.28Y-114.3
M15
G01X99.69Y-114.3
M16
G05
G00X100.335Y-57.15
M15
G01X100.745Y-57.15
M16
G05
G00X100.335Y-76.2
M15
G01X100.745Y-76.2
M16
G05
G00X107.479Y-152.4
M15
G01X107.889Y-152.4
M16
G05
G00X108.805Y-57.15
M15
G01X109.215Y-57.15
M16
G05
G00X108.805Y-76.2
M15
G01X109.215Y-76.2
M16
G05
G00X108.805Y-133.35
M15
G01X109.215Y-133.35
M16
G05
G00X109.86Y-95.25
M15
G01X110.27Y-95.25
M16
G05
G00X109.86Y-114.3
M15
G01X110.27Y-114.3
M16
G05
G00X118.33Y-95.25
M15
G01X118.74Y-95.25
M16
G05
G00X118.33Y-114.3
M15
G01X118.74Y-114.3
M16
G05
G00X119.385Y-57.15
M15
G01X119.795Y-57.15
M16
G05
G00X119.385Y-76.2
M15
G01X119.795Y-76.2
M16
G05
G00X119.385Y-133.35
M15
G01X119.795Y-133.35
M16
G05
G00X120.711Y-152.4
M15
G01X121.121Y-152.4
M16
G05
G00X127.855Y-57.15
M15
G01X128.265Y-57.15
M16
G05
G00X127.855Y-76.2
M15
G01X128.265Y-76.2
M16
G05
G00X127.855Y-133.35
M15
G01X128.265Y-133.35
M16
G05
G00X128.91Y-95.25
M15
G01X129.32Y-95.25
M16
G05
G00X128.91Y-114.3
M15
G01X129.32Y-114.3
M16
G05
G00X131.291Y-152.4
M15
G01X131.701Y-152.4
M16
G05
G00X137.38Y-95.25
M15
G01X137.79Y-95.25
M16
G05
G00X137.38Y-114.3
M15
G01X137.79Y-114.3
M16
G05
G00X138.435Y-57.15
M15
G01X138.845Y-57.15
M16
G05
G00X138.435Y-76.2
M15
G01X138.845Y-76.2
M16
G05
G00X138.435Y-133.35
M15
G01X138.845Y-133.35
M16
G05
G00X146.905Y-57.15
M15
G01X147.315Y-57.15
M16
G05
G00X146.905Y-76.2
M15
G01X147.315Y-76.2
M16
G05
G00X146.905Y-133.35
M15
G01X147.315Y-133.35
M16
G05
G00X147.96Y-95.25
M15
G01X148.37Y-95.25
M16
G05
G00X147.96Y-114.3
M15
G01X148.37Y-114.3
M16
G05
G00X156.43Y-95.25
M15
G01X156.84Y-95.25
M16
G05
G00X156.43Y-114.3
M15
G01X156.84Y-114.3
M16
G05
G00X157.485Y-57.15
M15
G01X157.895Y-57.15
M16
G05
G00X157.485Y-76.2
M15
G01X157.895Y-76.2
M16
G05
G00X157.485Y-133.35
M15
G01X157.895Y-133.35
M16
G05
G00X165.955Y-57.15
M15
G01X166.365Y-57.15
M16
G05
G00X165.955Y-76.2
M15
G01X166.365Y-76.2
M16
G05
G00X165.955Y-133.35
M15
G01X166.365Y-133.35
M16
G05
G00X167.01Y-95.25
M15
G01X167.42Y-95.25
M16
G05
G00X167.01Y-114.3
M15
G01X167.42Y-114.3
M16
G05
G00X175.48Y-95.25
M15
G01X175.89Y-95.25
M16
G05
G00X175.48Y-114.3
M15
G01X175.89Y-114.3
M16
G05
G00X176.535Y-57.15
M15
G01X176.945Y-57.15
M16
G05
G00X176.535Y-76.2
M15
G01X176.945Y-76.2
M16
G05
G00X176.535Y-133.35
M15
G01X176.945Y-133.35
M16
G05
G00X185.005Y-57.15
M15
G01X185.415Y-57.15
M16
G05
G00X185.005Y-76.2
M15
G01X185.415Y-76.2
M16
G05
G00X185.005Y-133.35
M15
G01X185.415Y-133.35
M16
G05
G00X185.005Y-152.4
M15
G01X185.415Y-152.4
M16
G05
G00X186.06Y-95.25
M15
G01X186.47Y-95.25
M16
G05
G00X186.06Y-114.3
M15
G01X186.47Y-114.3
M16
G05
G00X194.53Y-95.25
M15
G01X194.94Y-95.25
M16
G05
G00X194.53Y-114.3
M15
G01X194.94Y-114.3
M16
G05
G00X195.585Y-57.15
M15
G01X195.995Y-57.15
M16
G05
G00X195.585Y-76.2
M15
G01X195.995Y-76.2
M16
G05
G00X195.585Y-133.35
M15
G01X195.995Y-133.35
M16
G05
G00X195.585Y-152.4
M15
G01X195.995Y-152.4
M16
G05
G00X204.055Y-57.15
M15
G01X204.465Y-57.15
M16
G05
G00X204.055Y-76.2
M15
G01X204.465Y-76.2
M16
G05
G00X204.055Y-133.35
M15
G01X204.465Y-133.35
M16
G05
G00X205.11Y-95.25
M15
G01X205.52Y-95.25
M16
G05
G00X205.11Y-114.3
M15
G01X205.52Y-114.3
M16
G05
G00X213.58Y-95.25
M15
G01X213.99Y-95.25
M16
G05
G00X213.58Y-114.3
M15
G01X213.99Y-114.3
M16
G05
G00X214.635Y-57.15
M15
G01X215.045Y-57.15
M16
G05
G00X214.635Y-76.2
M15
G01X215.045Y-76.2
M16
G05
G00X214.635Y-133.35
M15
G01X215.045Y-133.35
M16
G05
G00X223.105Y-57.15
M15
G01X223.515Y-57.15
M16
G05
G00X223.105Y-76.2
M15
G01X223.515Y-76.2
M16
G05
G00X223.105Y-133.35
M15
G01X223.515Y-133.35
M16
G05
G00X224.16Y-95.25
M15
G01X224.57Y-95.25
M16
G05
G00X224.16Y-114.3
M15
G01X224.57Y-114.3
M16
G05
G00X232.63Y-95.25
M15
G01X233.04Y-95.25
M16
G05
G00X232.63Y-114.3
M15
G01X233.04Y-114.3
M16
G05
G00X233.685Y-57.15
M15
G01X234.095Y-57.15
M16
G05
G00X233.685Y-76.2
M15
G01X234.095Y-76.2
M16
G05
G00X233.685Y-133.35
M15
G01X234.095Y-133.35
M16
G05
G00X242.155Y-57.15
M15
G01X242.565Y-57.15
M16
G05
G00X242.155Y-76.2
M15
G01X242.565Y-76.2
M16
G05
G00X242.155Y-133.35
M15
G01X242.565Y-133.35
M16
G05
G00X243.21Y-95.25
M15
G01X243.62Y-95.25
M16
G05
G00X243.21Y-114.3
M15
G01X243.62Y-114.3
M16
G05
G00X249.299Y-152.4
M15
G01X249.709Y-152.4
M16
G05
G00X251.68Y-95.25
M15
G01X252.09Y-95.25
M16
G05
G00X251.68Y-114.3
M15
G01X252.09Y-114.3
M16
G05
G00X252.735Y-57.15
M15
G01X253.145Y-57.15
M16
G05
G00X252.735Y-76.2
M15
G01X253.145Y-76.2
M16
G05
G00X252.735Y-133.35
M15
G01X253.145Y-133.35
M16
G05
G00X259.879Y-152.4
M15
G01X260.289Y-152.4
M16
G05
G00X261.205Y-57.15
M15
G01X261.615Y-57.15
M16
G05
G00X261.205Y-76.2
M15
G01X261.615Y-76.2
M16
G05
G00X261.205Y-133.35
M15
G01X261.615Y-133.35
M16
G05
G00X262.26Y-95.25
M15
G01X262.67Y-95.25
M16
G05
G00X262.26Y-114.3
M15
G01X262.67Y-114.3
M16
G05
G00X270.73Y-95.25
M15
G01X271.14Y-95.25
M16
G05
G00X270.73Y-114.3
M15
G01X271.14Y-114.3
M16
G05
G00X271.785Y-57.15
M15
G01X272.195Y-57.15
M16
G05
G00X271.785Y-76.2
M15
G01X272.195Y-76.2
M16
G05
G00X271.785Y-133.35
M15
G01X272.195Y-133.35
M16
G05
G00X273.111Y-152.4
M15
G01X273.521Y-152.4
M16
G05
G00X280.255Y-57.15
M15
G01X280.665Y-57.15
M16
G05
G00X280.255Y-76.2
M15
G01X280.665Y-76.2
M16
G05
G00X280.255Y-133.35
M15
G01X280.665Y-133.35
M16
G05
G00X281.31Y-95.25
M15
G01X281.72Y-95.25
M16
G05
G00X281.31Y-114.3
M15
G01X281.72Y-114.3
M16
G05
G00X283.691Y-152.4
M15
G01X284.101Y-152.4
M16
G05
G00X289.78Y-95.25
M15
G01X290.19Y-95.25
M16
G05
G00X289.78Y-114.3
M15
G01X290.19Y-114.3
M16
G05
G00X290.835Y-57.15
M15
G01X291.245Y-57.15
M16
G05
G00X290.835Y-76.2
M15
G01X291.245Y-76.2
M16
G05
G00X290.835Y-133.35
M15
G01X291.245Y-133.35
M16
G05
G00X296.924Y-152.4
M15
G01X297.334Y-152.4
M16
G05
G00X299.305Y-57.15
M15
G01X299.715Y-57.15
M16
G05
G00X299.305Y-76.2
M15
G01X299.715Y-76.2
M16
G05
G00X300.36Y-95.25
M15
G01X300.77Y-95.25
M16
G05
G00X300.36Y-114.3
M15
G01X300.77Y-114.3
M16
G05
G00X307.504Y-152.4
M15
G01X307.914Y-152.4
M16
G05
G00X308.83Y-95.25
M15
G01X309.24Y-95.25
M16
G05
G00X308.83Y-133.35
M15
G01X309.24Y-133.35
M16
G05
G00X309.885Y-57.15
M15
G01X310.295Y-57.15
M16
G05
G00X309.885Y-76.2
M15
G01X310.295Y-76.2
M16
G05
G00X318.355Y-57.15
M15
G01X318.765Y-57.15
M16
G05
G00X318.355Y-152.4
M15
G01X318.765Y-152.4
M16
G05
G00X319.41Y-95.25
M15
G01X319.82Y-95.25
M16
G05
G00X319.41Y-133.35
M15
G01X319.82Y-133.35
M16
G05
G00X323.118Y-114.3
M15
G01X323.527Y-114.3
M16
G05
G00X327.88Y-76.2
M15
G01X328.29Y-76.2
M16
G05
G00X328.935Y-57.15
M15
G01X329.345Y-57.15
M16
G05
G00X328.935Y-152.4
M15
G01X329.345Y-152.4
M16
G05
G00X332.642Y-95.25
M15
G01X333.053Y-95.25
M16
G05
G00X333.697Y-114.3
M15
G01X334.107Y-114.3
M16
G05
G00X337.405Y-57.15
M15
G01X337.815Y-57.15
M16
G05
G00X337.405Y-133.35
M15
G01X337.815Y-133.35
M16
G05
G00X337.405Y-152.4
M15
G01X337.815Y-152.4
M16
G05
G00X338.46Y-76.2
M15
G01X338.87Y-76.2
M16
G05
G00X343.222Y-95.25
M15
G01X343.632Y-95.25
M16
G05
G00X347.985Y-57.15
M15
G01X348.395Y-57.15
M16
G05
G00X347.985Y-133.35
M15
G01X348.395Y-133.35
M16
G05
G00X347.985Y-152.4
M15
G01X348.395Y-152.4
M16
G05
G00X356.455Y-57.15
M15
G01X356.865Y-57.15
M16
G05
G00X356.455Y-76.2
M15
G01X356.865Y-76.2
M16
G05
G00X356.455Y-95.25
M15
G01X356.865Y-95.25
M16
G05
G00X356.455Y-114.3
M15
G01X356.865Y-114.3
M16
G05
G00X356.455Y-133.35
M15
G01X356.865Y-133.35
M16
G05
G00X356.455Y-152.4
M15
G01X356.865Y-152.4
M16
G05
G00X367.035Y-57.15
M15
G01X367.445Y-57.15
M16
G05
G00X367.035Y-76.2
M15
G01X367.445Y-76.2
M16
G05
G00X367.035Y-95.25
M15
G01X367.445Y-95.25
M16
G05
G00X367.035Y-114.3
M15
G01X367.445Y-114.3
M16
G05
G00X367.035Y-133.35
M15
G01X367.445Y-133.35
M16
G05
G00X367.035Y-152.4
M15
G01X367.445Y-152.4
M16
G05
T7
G00X51.55Y-57.4
M15
G01X51.55Y-56.9
M16
G05
G00X62.75Y-57.4
M15
G01X62.75Y-56.9
M16
G05
M30
