G04 #@! TF.GenerationSoftware,KiCad,Pcbnew,9.0.4*
G04 #@! TF.CreationDate,2025-11-11T20:57:51+08:00*
G04 #@! TF.ProjectId,Custom Mechanical Keyboard,43757374-6f6d-4204-9d65-6368616e6963,rev?*
G04 #@! TF.SameCoordinates,Original*
G04 #@! TF.FileFunction,Copper,L1,Top*
G04 #@! TF.FilePolarity,Positive*
%FSLAX46Y46*%
G04 Gerber Fmt 4.6, Leading zero omitted, Abs format (unit mm)*
G04 Created by KiCad (PCBNEW 9.0.4) date 2025-11-11 20:57:51*
%MOMM*%
%LPD*%
G01*
G04 APERTURE LIST*
G04 Aperture macros list*
%AMRoundRect*
0 Rectangle with rounded corners*
0 $1 Rounding radius*
0 $2 $3 $4 $5 $6 $7 $8 $9 X,Y pos of 4 corners*
0 Add a 4 corners polygon primitive as box body*
4,1,4,$2,$3,$4,$5,$6,$7,$8,$9,$2,$3,0*
0 Add four circle primitives for the rounded corners*
1,1,$1+$1,$2,$3*
1,1,$1+$1,$4,$5*
1,1,$1+$1,$6,$7*
1,1,$1+$1,$8,$9*
0 Add four rect primitives between the rounded corners*
20,1,$1+$1,$2,$3,$4,$5,0*
20,1,$1+$1,$4,$5,$6,$7,0*
20,1,$1+$1,$6,$7,$8,$9,0*
20,1,$1+$1,$8,$9,$2,$3,0*%
G04 Aperture macros list end*
G04 #@! TA.AperFunction,SMDPad,CuDef*
%ADD10RoundRect,0.250000X-0.400000X-0.625000X0.400000X-0.625000X0.400000X0.625000X-0.400000X0.625000X0*%
G04 #@! TD*
G04 #@! TA.AperFunction,CastellatedPad*
%ADD11C,3.000000*%
G04 #@! TD*
G04 #@! TA.AperFunction,SMDPad,CuDef*
%ADD12RoundRect,0.250000X0.400000X0.625000X-0.400000X0.625000X-0.400000X-0.625000X0.400000X-0.625000X0*%
G04 #@! TD*
G04 #@! TA.AperFunction,SMDPad,CuDef*
%ADD13R,0.600000X1.450000*%
G04 #@! TD*
G04 #@! TA.AperFunction,SMDPad,CuDef*
%ADD14R,0.300000X1.450000*%
G04 #@! TD*
G04 #@! TA.AperFunction,ComponentPad*
%ADD15O,1.000000X2.100000*%
G04 #@! TD*
G04 #@! TA.AperFunction,ComponentPad*
%ADD16O,1.000000X1.600000*%
G04 #@! TD*
G04 #@! TA.AperFunction,ComponentPad*
%ADD17R,1.350000X1.350000*%
G04 #@! TD*
G04 #@! TA.AperFunction,ComponentPad*
%ADD18C,1.350000*%
G04 #@! TD*
G04 #@! TA.AperFunction,ViaPad*
%ADD19C,0.600000*%
G04 #@! TD*
G04 #@! TA.AperFunction,Conductor*
%ADD20C,0.400000*%
G04 #@! TD*
G04 #@! TA.AperFunction,Conductor*
%ADD21C,0.200000*%
G04 #@! TD*
G04 APERTURE END LIST*
D10*
X60750000Y-39400000D03*
X63850000Y-39400000D03*
D11*
X63550000Y-32150000D03*
D12*
X49350000Y-39400000D03*
X46250000Y-39400000D03*
D13*
X58300000Y-37035000D03*
X57500000Y-37035000D03*
D14*
X56300000Y-37035000D03*
X55300000Y-37035000D03*
X54800000Y-37035000D03*
X53800000Y-37035000D03*
D13*
X52600000Y-37035000D03*
X51800000Y-37035000D03*
X51800000Y-37035000D03*
X52600000Y-37035000D03*
D14*
X53300000Y-37035000D03*
X54300000Y-37035000D03*
X55800000Y-37035000D03*
X56800000Y-37035000D03*
D13*
X57500000Y-37035000D03*
X58300000Y-37035000D03*
D15*
X59370000Y-36120000D03*
D16*
X59370000Y-31940000D03*
D15*
X50730000Y-36120000D03*
D16*
X50730000Y-31940000D03*
D17*
X52050000Y-41650000D03*
D18*
X54050000Y-41650000D03*
X56050000Y-41650000D03*
X58050000Y-41650000D03*
D11*
X46550000Y-32150000D03*
D19*
X57050000Y-40150000D03*
X57500000Y-38650000D03*
X52600000Y-38650000D03*
D20*
X46250000Y-38150000D02*
X46250000Y-39400000D01*
X59850000Y-41150000D02*
X63350000Y-41150000D01*
X50730000Y-31940000D02*
X50730000Y-36120000D01*
X63850000Y-38150000D02*
X63850000Y-39400000D01*
X59370000Y-31940000D02*
X59370000Y-36120000D01*
X61820000Y-36120000D02*
X63850000Y-38150000D01*
X48280000Y-36120000D02*
X46250000Y-38150000D01*
X46250000Y-39400000D02*
X46250000Y-40650000D01*
X63850000Y-40650000D02*
X63850000Y-39400000D01*
X51800000Y-37035000D02*
X51645000Y-37035000D01*
X59370000Y-36120000D02*
X61820000Y-36120000D01*
X58455000Y-37035000D02*
X59370000Y-36120000D01*
X58850000Y-40150000D02*
X59850000Y-41150000D01*
X57050000Y-40150000D02*
X58850000Y-40150000D01*
X51645000Y-37035000D02*
X50730000Y-36120000D01*
X46250000Y-40650000D02*
X47250000Y-41650000D01*
X50730000Y-36120000D02*
X48280000Y-36120000D01*
X63350000Y-41150000D02*
X63850000Y-40650000D01*
X58300000Y-37035000D02*
X58455000Y-37035000D01*
X47250000Y-41650000D02*
X52050000Y-41650000D01*
D21*
X54950000Y-38100000D02*
X55650000Y-38100000D01*
X55650000Y-38100000D02*
X55650000Y-39200000D01*
X54800000Y-37950000D02*
X54950000Y-38100000D01*
X56050000Y-39600000D02*
X56050000Y-41650000D01*
X55800000Y-37950000D02*
X55800000Y-37035000D01*
X55650000Y-38100000D02*
X55800000Y-37950000D01*
X54800000Y-37035000D02*
X54800000Y-37950000D01*
X55650000Y-39200000D02*
X56050000Y-39600000D01*
X56300000Y-37800000D02*
X56300000Y-38900000D01*
X60250000Y-39400000D02*
X60500000Y-39150000D01*
X56300000Y-38900000D02*
X56800000Y-39400000D01*
X56800000Y-39400000D02*
X60250000Y-39400000D01*
D20*
X52600000Y-37035000D02*
X52600000Y-38650000D01*
X57500000Y-37035000D02*
X57500000Y-38650000D01*
D21*
X54300000Y-36150000D02*
X54500000Y-35950000D01*
X55300000Y-36150000D02*
X55300000Y-37035000D01*
X54500000Y-35950000D02*
X55100000Y-35950000D01*
X54300000Y-38800000D02*
X54300000Y-36150000D01*
X54050000Y-41650000D02*
X54050000Y-39050000D01*
X55100000Y-35950000D02*
X55300000Y-36150000D01*
X54050000Y-39050000D02*
X54300000Y-38800000D01*
X49600000Y-39150000D02*
X49850000Y-39400000D01*
X49850000Y-39400000D02*
X52800000Y-39400000D01*
X53300000Y-38900000D02*
X53300000Y-37800000D01*
X52800000Y-39400000D02*
X53300000Y-38900000D01*
G04 #@! TA.AperFunction,Conductor*
G36*
X56147310Y-40316397D02*
G01*
X56150712Y-40323910D01*
X56165557Y-40551850D01*
X56165558Y-40551857D01*
X56184792Y-40642738D01*
X56211473Y-40720304D01*
X56211475Y-40720309D01*
X56286608Y-40852634D01*
X56286614Y-40852643D01*
X56387980Y-40980834D01*
X56389825Y-40983167D01*
X56421918Y-41022159D01*
X56439090Y-41043023D01*
X56439452Y-41043486D01*
X56603926Y-41265131D01*
X56606104Y-41273817D01*
X56601502Y-41281499D01*
X56601042Y-41281823D01*
X56056512Y-41646637D01*
X56047732Y-41648395D01*
X56043488Y-41646637D01*
X55498816Y-41281728D01*
X55493850Y-41274276D01*
X55495608Y-41265496D01*
X55495801Y-41265217D01*
X55607682Y-41109976D01*
X55608021Y-41109532D01*
X55710175Y-40983166D01*
X55710197Y-40983139D01*
X55803547Y-40866247D01*
X55803549Y-40866245D01*
X55803548Y-40866245D01*
X55803553Y-40866240D01*
X55881870Y-40735567D01*
X55909631Y-40661911D01*
X55930272Y-40576428D01*
X55945034Y-40458259D01*
X55949614Y-40324270D01*
X55953321Y-40316119D01*
X55961307Y-40312970D01*
X56139037Y-40312970D01*
X56147310Y-40316397D01*
G37*
G04 #@! TD.AperFunction*
G04 #@! TA.AperFunction,Conductor*
G36*
X54147310Y-40316397D02*
G01*
X54150712Y-40323910D01*
X54165557Y-40551850D01*
X54165558Y-40551857D01*
X54184792Y-40642738D01*
X54211473Y-40720304D01*
X54211475Y-40720309D01*
X54286608Y-40852634D01*
X54286614Y-40852643D01*
X54387980Y-40980834D01*
X54389825Y-40983167D01*
X54421918Y-41022159D01*
X54439090Y-41043023D01*
X54439452Y-41043486D01*
X54603926Y-41265131D01*
X54606104Y-41273817D01*
X54601502Y-41281499D01*
X54601042Y-41281823D01*
X54056512Y-41646637D01*
X54047732Y-41648395D01*
X54043488Y-41646637D01*
X53498816Y-41281728D01*
X53493850Y-41274276D01*
X53495608Y-41265496D01*
X53495801Y-41265217D01*
X53607682Y-41109976D01*
X53608021Y-41109532D01*
X53710175Y-40983166D01*
X53710197Y-40983139D01*
X53803547Y-40866247D01*
X53803549Y-40866245D01*
X53803548Y-40866245D01*
X53803553Y-40866240D01*
X53881870Y-40735567D01*
X53909631Y-40661911D01*
X53930272Y-40576428D01*
X53945034Y-40458259D01*
X53949614Y-40324270D01*
X53953321Y-40316119D01*
X53961307Y-40312970D01*
X54139037Y-40312970D01*
X54147310Y-40316397D01*
G37*
G04 #@! TD.AperFunction*
G04 #@! TA.AperFunction,Conductor*
G36*
X50072962Y-30670185D02*
G01*
X50118717Y-30722989D01*
X50128661Y-30792147D01*
X50099636Y-30855703D01*
X50093604Y-30862181D01*
X49953251Y-31002533D01*
X49953248Y-31002537D01*
X49843814Y-31166315D01*
X49843807Y-31166328D01*
X49768430Y-31348306D01*
X49768427Y-31348318D01*
X49730000Y-31541504D01*
X49730000Y-31690000D01*
X50430000Y-31690000D01*
X50430000Y-32190000D01*
X49730000Y-32190000D01*
X49730000Y-32338495D01*
X49768427Y-32531681D01*
X49768430Y-32531693D01*
X49843807Y-32713671D01*
X49843814Y-32713684D01*
X49953248Y-32877462D01*
X49953251Y-32877466D01*
X50092533Y-33016748D01*
X50092537Y-33016751D01*
X50256315Y-33126185D01*
X50256328Y-33126192D01*
X50438308Y-33201569D01*
X50480000Y-33209862D01*
X50480000Y-32406988D01*
X50489940Y-32424205D01*
X50545795Y-32480060D01*
X50614204Y-32519556D01*
X50690504Y-32540000D01*
X50769496Y-32540000D01*
X50845796Y-32519556D01*
X50914205Y-32480060D01*
X50970060Y-32424205D01*
X50980000Y-32406988D01*
X50980000Y-33209862D01*
X51021690Y-33201569D01*
X51021692Y-33201569D01*
X51203671Y-33126192D01*
X51203684Y-33126185D01*
X51367462Y-33016751D01*
X51367466Y-33016748D01*
X51506748Y-32877466D01*
X51506751Y-32877462D01*
X51616185Y-32713684D01*
X51616192Y-32713671D01*
X51691569Y-32531693D01*
X51691572Y-32531681D01*
X51729999Y-32338495D01*
X51730000Y-32338492D01*
X51730000Y-32190000D01*
X51030000Y-32190000D01*
X51030000Y-31690000D01*
X51730000Y-31690000D01*
X51730000Y-31541508D01*
X51729999Y-31541504D01*
X51691572Y-31348318D01*
X51691569Y-31348306D01*
X51616192Y-31166328D01*
X51616185Y-31166315D01*
X51506751Y-31002537D01*
X51506748Y-31002533D01*
X51366396Y-30862181D01*
X51332911Y-30800858D01*
X51337895Y-30731166D01*
X51379767Y-30675233D01*
X51445231Y-30650816D01*
X51454077Y-30650500D01*
X58645923Y-30650500D01*
X58712962Y-30670185D01*
X58758717Y-30722989D01*
X58768661Y-30792147D01*
X58739636Y-30855703D01*
X58733604Y-30862181D01*
X58593251Y-31002533D01*
X58593248Y-31002537D01*
X58483814Y-31166315D01*
X58483807Y-31166328D01*
X58408430Y-31348306D01*
X58408427Y-31348318D01*
X58370000Y-31541504D01*
X58370000Y-31690000D01*
X59070000Y-31690000D01*
X59070000Y-32190000D01*
X58370000Y-32190000D01*
X58370000Y-32338495D01*
X58408427Y-32531681D01*
X58408430Y-32531693D01*
X58483807Y-32713671D01*
X58483814Y-32713684D01*
X58593248Y-32877462D01*
X58593251Y-32877466D01*
X58732533Y-33016748D01*
X58732537Y-33016751D01*
X58896315Y-33126185D01*
X58896328Y-33126192D01*
X59078308Y-33201569D01*
X59120000Y-33209862D01*
X59120000Y-32406988D01*
X59129940Y-32424205D01*
X59185795Y-32480060D01*
X59254204Y-32519556D01*
X59330504Y-32540000D01*
X59409496Y-32540000D01*
X59485796Y-32519556D01*
X59554205Y-32480060D01*
X59610060Y-32424205D01*
X59620000Y-32406988D01*
X59620000Y-33209862D01*
X59661690Y-33201569D01*
X59661692Y-33201569D01*
X59843671Y-33126192D01*
X59843684Y-33126185D01*
X60007462Y-33016751D01*
X60007466Y-33016748D01*
X60146748Y-32877466D01*
X60146751Y-32877462D01*
X60256185Y-32713684D01*
X60256192Y-32713671D01*
X60331569Y-32531693D01*
X60331572Y-32531681D01*
X60369999Y-32338495D01*
X60370000Y-32338492D01*
X60370000Y-32190000D01*
X59670000Y-32190000D01*
X59670000Y-31690000D01*
X60370000Y-31690000D01*
X60370000Y-31541508D01*
X60369999Y-31541504D01*
X60331572Y-31348318D01*
X60331569Y-31348306D01*
X60256192Y-31166328D01*
X60256185Y-31166315D01*
X60146751Y-31002537D01*
X60146748Y-31002533D01*
X60006396Y-30862181D01*
X59972911Y-30800858D01*
X59977895Y-30731166D01*
X60019767Y-30675233D01*
X60085231Y-30650816D01*
X60094077Y-30650500D01*
X61928215Y-30650500D01*
X61995254Y-30670185D01*
X62041009Y-30722989D01*
X62050953Y-30792147D01*
X62026591Y-30849986D01*
X61883496Y-31036471D01*
X61752409Y-31263517D01*
X61752404Y-31263528D01*
X61652075Y-31505744D01*
X61584221Y-31758983D01*
X61565654Y-31899999D01*
X61565655Y-31900000D01*
X62324015Y-31900000D01*
X62300000Y-32051623D01*
X62300000Y-32248377D01*
X62324015Y-32400000D01*
X61565655Y-32400000D01*
X61584221Y-32541016D01*
X61652075Y-32794255D01*
X61752404Y-33036471D01*
X61752409Y-33036482D01*
X61883496Y-33263528D01*
X62043092Y-33471519D01*
X62043098Y-33471526D01*
X62228473Y-33656901D01*
X62228480Y-33656907D01*
X62436471Y-33816503D01*
X62663517Y-33947590D01*
X62663528Y-33947595D01*
X62905744Y-34047924D01*
X63158979Y-34115777D01*
X63158992Y-34115780D01*
X63300000Y-34134343D01*
X63300000Y-33375985D01*
X63451623Y-33400000D01*
X63648377Y-33400000D01*
X63800000Y-33375985D01*
X63800000Y-34134342D01*
X63941007Y-34115780D01*
X63941020Y-34115777D01*
X64194255Y-34047924D01*
X64436471Y-33947595D01*
X64436482Y-33947590D01*
X64663528Y-33816503D01*
X64850014Y-33673409D01*
X64915183Y-33648215D01*
X64983628Y-33662253D01*
X65033617Y-33711067D01*
X65049500Y-33771785D01*
X65049500Y-38214477D01*
X65029815Y-38281516D01*
X64977011Y-38327271D01*
X64907853Y-38337215D01*
X64844297Y-38308190D01*
X64837819Y-38302158D01*
X64718345Y-38182684D01*
X64569124Y-38090643D01*
X64569119Y-38090641D01*
X64402697Y-38035494D01*
X64402690Y-38035493D01*
X64299986Y-38025000D01*
X64100000Y-38025000D01*
X64100000Y-40774999D01*
X64299972Y-40774999D01*
X64299986Y-40774998D01*
X64402697Y-40764505D01*
X64569119Y-40709358D01*
X64569124Y-40709356D01*
X64718345Y-40617315D01*
X64837819Y-40497842D01*
X64899142Y-40464357D01*
X64968834Y-40469341D01*
X65024767Y-40511213D01*
X65049184Y-40576677D01*
X65049500Y-40585523D01*
X65049500Y-41644586D01*
X65049028Y-41655393D01*
X65049028Y-41655394D01*
X65035260Y-41812753D01*
X65031507Y-41834038D01*
X64992030Y-41981369D01*
X64984637Y-42001681D01*
X64920177Y-42139915D01*
X64909370Y-42158633D01*
X64821880Y-42283582D01*
X64807986Y-42300140D01*
X64700140Y-42407986D01*
X64683582Y-42421880D01*
X64558633Y-42509370D01*
X64539915Y-42520177D01*
X64401681Y-42584637D01*
X64381369Y-42592030D01*
X64234038Y-42631507D01*
X64212753Y-42635260D01*
X64055395Y-42649028D01*
X64044587Y-42649500D01*
X58538775Y-42649500D01*
X58471736Y-42629815D01*
X58425981Y-42577011D01*
X58416037Y-42507853D01*
X58445062Y-42444297D01*
X58469884Y-42422398D01*
X58544046Y-42372844D01*
X58608099Y-42330045D01*
X58730045Y-42208099D01*
X58825858Y-42064705D01*
X58891855Y-41905374D01*
X58925500Y-41736229D01*
X58925500Y-41563771D01*
X58925500Y-41563768D01*
X58925499Y-41563766D01*
X58891856Y-41394633D01*
X58891855Y-41394626D01*
X58831949Y-41250000D01*
X58825861Y-41235301D01*
X58825854Y-41235288D01*
X58730045Y-41091901D01*
X58730042Y-41091897D01*
X58608102Y-40969957D01*
X58608098Y-40969954D01*
X58464711Y-40874145D01*
X58464698Y-40874138D01*
X58305378Y-40808146D01*
X58305366Y-40808143D01*
X58136232Y-40774500D01*
X58136229Y-40774500D01*
X57963771Y-40774500D01*
X57963768Y-40774500D01*
X57794633Y-40808143D01*
X57794621Y-40808146D01*
X57635301Y-40874138D01*
X57635288Y-40874145D01*
X57491901Y-40969954D01*
X57491897Y-40969957D01*
X57369957Y-41091897D01*
X57369954Y-41091901D01*
X57274145Y-41235288D01*
X57274138Y-41235301D01*
X57208146Y-41394621D01*
X57208143Y-41394633D01*
X57174500Y-41563766D01*
X57174500Y-41736233D01*
X57208143Y-41905366D01*
X57208146Y-41905378D01*
X57274138Y-42064698D01*
X57274145Y-42064711D01*
X57369954Y-42208098D01*
X57369957Y-42208102D01*
X57491897Y-42330042D01*
X57491901Y-42330045D01*
X57630116Y-42422398D01*
X57674921Y-42476010D01*
X57683628Y-42545335D01*
X57653473Y-42608363D01*
X57594030Y-42645082D01*
X57561225Y-42649500D01*
X56538775Y-42649500D01*
X56471736Y-42629815D01*
X56425981Y-42577011D01*
X56416037Y-42507853D01*
X56445062Y-42444297D01*
X56469884Y-42422398D01*
X56544046Y-42372844D01*
X56608099Y-42330045D01*
X56730045Y-42208099D01*
X56825858Y-42064705D01*
X56891855Y-41905374D01*
X56925500Y-41736229D01*
X56925500Y-41563771D01*
X56925500Y-41563768D01*
X56925499Y-41563766D01*
X56891856Y-41394633D01*
X56891855Y-41394626D01*
X56831949Y-41250000D01*
X56825860Y-41235299D01*
X56825859Y-41235297D01*
X56786127Y-41175834D01*
X56777145Y-41159982D01*
X56768955Y-41142674D01*
X56768952Y-41142669D01*
X56604483Y-40921031D01*
X56601358Y-40916929D01*
X56600945Y-40916401D01*
X56597772Y-40912447D01*
X56550562Y-40855087D01*
X56549038Y-40853199D01*
X56463430Y-40744937D01*
X56452872Y-40729262D01*
X56405273Y-40645430D01*
X56395854Y-40624554D01*
X56385697Y-40595026D01*
X56381648Y-40580391D01*
X56371507Y-40532473D01*
X56369085Y-40514876D01*
X56355778Y-40310554D01*
X56355778Y-40310552D01*
X56354207Y-40304272D01*
X56350500Y-40274181D01*
X56350500Y-39674833D01*
X56370185Y-39607794D01*
X56422989Y-39562039D01*
X56492147Y-39552095D01*
X56555703Y-39581120D01*
X56562181Y-39587152D01*
X56615489Y-39640460D01*
X56674829Y-39674720D01*
X56684008Y-39680020D01*
X56684012Y-39680022D01*
X56760438Y-39700500D01*
X59775500Y-39700500D01*
X59842539Y-39720185D01*
X59888294Y-39772989D01*
X59899500Y-39824500D01*
X59899500Y-40079269D01*
X59902353Y-40109699D01*
X59902353Y-40109701D01*
X59947206Y-40237880D01*
X59947207Y-40237882D01*
X60027850Y-40347150D01*
X60137118Y-40427793D01*
X60171198Y-40439718D01*
X60265299Y-40472646D01*
X60295730Y-40475500D01*
X60295734Y-40475500D01*
X61204270Y-40475500D01*
X61234699Y-40472646D01*
X61234701Y-40472646D01*
X61322343Y-40441978D01*
X61362882Y-40427793D01*
X61472150Y-40347150D01*
X61552793Y-40237882D01*
X61575219Y-40173790D01*
X61597646Y-40109701D01*
X61597646Y-40109699D01*
X61600500Y-40079269D01*
X61600500Y-40074986D01*
X62700001Y-40074986D01*
X62710494Y-40177697D01*
X62765641Y-40344119D01*
X62765643Y-40344124D01*
X62857684Y-40493345D01*
X62981654Y-40617315D01*
X63130875Y-40709356D01*
X63130880Y-40709358D01*
X63297302Y-40764505D01*
X63297309Y-40764506D01*
X63400019Y-40774999D01*
X63599999Y-40774999D01*
X63600000Y-40774998D01*
X63600000Y-39650000D01*
X62700001Y-39650000D01*
X62700001Y-40074986D01*
X61600500Y-40074986D01*
X61600500Y-38725013D01*
X62700000Y-38725013D01*
X62700000Y-39150000D01*
X63600000Y-39150000D01*
X63600000Y-38025000D01*
X63400029Y-38025000D01*
X63400012Y-38025001D01*
X63297302Y-38035494D01*
X63130880Y-38090641D01*
X63130875Y-38090643D01*
X62981654Y-38182684D01*
X62857684Y-38306654D01*
X62765643Y-38455875D01*
X62765641Y-38455880D01*
X62710494Y-38622302D01*
X62710493Y-38622309D01*
X62700000Y-38725013D01*
X61600500Y-38725013D01*
X61600500Y-38720730D01*
X61597646Y-38690300D01*
X61597646Y-38690298D01*
X61560488Y-38584110D01*
X61552793Y-38562118D01*
X61472150Y-38452850D01*
X61362882Y-38372207D01*
X61362880Y-38372206D01*
X61234700Y-38327353D01*
X61204270Y-38324500D01*
X61204266Y-38324500D01*
X60295734Y-38324500D01*
X60295730Y-38324500D01*
X60265300Y-38327353D01*
X60265298Y-38327353D01*
X60137119Y-38372206D01*
X60137117Y-38372207D01*
X60027850Y-38452850D01*
X59947207Y-38562117D01*
X59947206Y-38562119D01*
X59902353Y-38690298D01*
X59902353Y-38690300D01*
X59899500Y-38720730D01*
X59899500Y-38975500D01*
X59879815Y-39042539D01*
X59827011Y-39088294D01*
X59775500Y-39099500D01*
X58033183Y-39099500D01*
X57966144Y-39079815D01*
X57920389Y-39027011D01*
X57910445Y-38957853D01*
X57925795Y-38913501D01*
X57966392Y-38843186D01*
X58000500Y-38715892D01*
X58000500Y-38584108D01*
X57966392Y-38456814D01*
X57960148Y-38446000D01*
X57943676Y-38378101D01*
X57966528Y-38312074D01*
X58021449Y-38268883D01*
X58045813Y-38264186D01*
X58050000Y-38260000D01*
X58050000Y-37285000D01*
X58036819Y-37271819D01*
X58003334Y-37210496D01*
X58000500Y-37184138D01*
X58000500Y-36909000D01*
X58003050Y-36900314D01*
X58001762Y-36891353D01*
X58012740Y-36867312D01*
X58020185Y-36841961D01*
X58027025Y-36836033D01*
X58030787Y-36827797D01*
X58053021Y-36813507D01*
X58072989Y-36796206D01*
X58083503Y-36793918D01*
X58089565Y-36790023D01*
X58124500Y-36785000D01*
X58176000Y-36785000D01*
X58243039Y-36804685D01*
X58288794Y-36857489D01*
X58300000Y-36909000D01*
X58300000Y-37035000D01*
X58426000Y-37035000D01*
X58493039Y-37054685D01*
X58538794Y-37107489D01*
X58550000Y-37159000D01*
X58550000Y-38260000D01*
X58647828Y-38260000D01*
X58647844Y-38259999D01*
X58707372Y-38253598D01*
X58707379Y-38253596D01*
X58842086Y-38203354D01*
X58842093Y-38203350D01*
X58957187Y-38117190D01*
X58957190Y-38117187D01*
X59043350Y-38002093D01*
X59043354Y-38002086D01*
X59093596Y-37867379D01*
X59093598Y-37867372D01*
X59099999Y-37807844D01*
X59100000Y-37807827D01*
X59100000Y-37714923D01*
X59119685Y-37647884D01*
X59120000Y-37647530D01*
X59120000Y-36836988D01*
X59129940Y-36854205D01*
X59185795Y-36910060D01*
X59254204Y-36949556D01*
X59330504Y-36970000D01*
X59409496Y-36970000D01*
X59485796Y-36949556D01*
X59554205Y-36910060D01*
X59610060Y-36854205D01*
X59620000Y-36836988D01*
X59620000Y-37639862D01*
X59661690Y-37631569D01*
X59661692Y-37631569D01*
X59843671Y-37556192D01*
X59843684Y-37556185D01*
X60007462Y-37446751D01*
X60007466Y-37446748D01*
X60146748Y-37307466D01*
X60146751Y-37307462D01*
X60256185Y-37143684D01*
X60256192Y-37143671D01*
X60331569Y-36961693D01*
X60331572Y-36961681D01*
X60369999Y-36768495D01*
X60370000Y-36768492D01*
X60370000Y-36370000D01*
X59670000Y-36370000D01*
X59670000Y-35870000D01*
X60370000Y-35870000D01*
X60370000Y-35471508D01*
X60369999Y-35471504D01*
X60331572Y-35278318D01*
X60331569Y-35278306D01*
X60256192Y-35096328D01*
X60256185Y-35096315D01*
X60146751Y-34932537D01*
X60146748Y-34932533D01*
X60007466Y-34793251D01*
X60007462Y-34793248D01*
X59843684Y-34683814D01*
X59843671Y-34683807D01*
X59661691Y-34608429D01*
X59661683Y-34608427D01*
X59620000Y-34600135D01*
X59620000Y-35403011D01*
X59610060Y-35385795D01*
X59554205Y-35329940D01*
X59485796Y-35290444D01*
X59409496Y-35270000D01*
X59330504Y-35270000D01*
X59254204Y-35290444D01*
X59185795Y-35329940D01*
X59129940Y-35385795D01*
X59120000Y-35403011D01*
X59120000Y-34600136D01*
X59119999Y-34600135D01*
X59078316Y-34608427D01*
X59078308Y-34608429D01*
X58896328Y-34683807D01*
X58896315Y-34683814D01*
X58732537Y-34793248D01*
X58732533Y-34793251D01*
X58593248Y-34932536D01*
X58480427Y-35101387D01*
X58479003Y-35100435D01*
X58435742Y-35144451D01*
X58367600Y-35159892D01*
X58301927Y-35136041D01*
X58299907Y-35134306D01*
X58299811Y-35134432D01*
X58293367Y-35129487D01*
X58293365Y-35129485D01*
X58227750Y-35091602D01*
X58162136Y-35053719D01*
X58088950Y-35034109D01*
X58015766Y-35014500D01*
X57864234Y-35014500D01*
X57717863Y-35053719D01*
X57586635Y-35129485D01*
X57586632Y-35129487D01*
X57479487Y-35236632D01*
X57479485Y-35236635D01*
X57403719Y-35367863D01*
X57364500Y-35514234D01*
X57364500Y-35665765D01*
X57403719Y-35812136D01*
X57433021Y-35862887D01*
X57468016Y-35923501D01*
X57484489Y-35991399D01*
X57461637Y-36057426D01*
X57406716Y-36100617D01*
X57360629Y-36109500D01*
X57180249Y-36109500D01*
X57109791Y-36123515D01*
X57109537Y-36122239D01*
X57052977Y-36128317D01*
X57029089Y-36121303D01*
X56969751Y-36109500D01*
X56969748Y-36109500D01*
X56630252Y-36109500D01*
X56574190Y-36120651D01*
X56525810Y-36120651D01*
X56469748Y-36109500D01*
X56130252Y-36109500D01*
X56074190Y-36120651D01*
X56025810Y-36120651D01*
X55969748Y-36109500D01*
X55694144Y-36109500D01*
X55627105Y-36089815D01*
X55584595Y-36040756D01*
X55584086Y-36041051D01*
X55582559Y-36038406D01*
X55581350Y-36037011D01*
X55580114Y-36034172D01*
X55580021Y-36034011D01*
X55540460Y-35965489D01*
X55284511Y-35709540D01*
X55284509Y-35709539D01*
X55284504Y-35709535D01*
X55215995Y-35669982D01*
X55215990Y-35669979D01*
X55190513Y-35663152D01*
X55139562Y-35649500D01*
X54539562Y-35649500D01*
X54460438Y-35649500D01*
X54384010Y-35669978D01*
X54315489Y-35709540D01*
X54315486Y-35709542D01*
X54059541Y-35965487D01*
X54059535Y-35965495D01*
X54015915Y-36041049D01*
X54014535Y-36040252D01*
X53976572Y-36087359D01*
X53910277Y-36109421D01*
X53905856Y-36109500D01*
X53630252Y-36109500D01*
X53574190Y-36120651D01*
X53525810Y-36120651D01*
X53469748Y-36109500D01*
X53130252Y-36109500D01*
X53130249Y-36109500D01*
X53059791Y-36123515D01*
X53059537Y-36122239D01*
X53002977Y-36128317D01*
X52979089Y-36121303D01*
X52919751Y-36109500D01*
X52919748Y-36109500D01*
X52739371Y-36109500D01*
X52672332Y-36089815D01*
X52626577Y-36037011D01*
X52616633Y-35967853D01*
X52631982Y-35923501D01*
X52696281Y-35812135D01*
X52735500Y-35665766D01*
X52735500Y-35514234D01*
X52696281Y-35367865D01*
X52620515Y-35236635D01*
X52513365Y-35129485D01*
X52447750Y-35091602D01*
X52382136Y-35053719D01*
X52308950Y-35034109D01*
X52235766Y-35014500D01*
X52084234Y-35014500D01*
X51937863Y-35053719D01*
X51806635Y-35129485D01*
X51800189Y-35134432D01*
X51798099Y-35131709D01*
X51750217Y-35157466D01*
X51680558Y-35152043D01*
X51624888Y-35109821D01*
X51619299Y-35100976D01*
X51506751Y-34932537D01*
X51506748Y-34932533D01*
X51367466Y-34793251D01*
X51367462Y-34793248D01*
X51203684Y-34683814D01*
X51203671Y-34683807D01*
X51021691Y-34608429D01*
X51021683Y-34608427D01*
X50980000Y-34600135D01*
X50980000Y-35403011D01*
X50970060Y-35385795D01*
X50914205Y-35329940D01*
X50845796Y-35290444D01*
X50769496Y-35270000D01*
X50690504Y-35270000D01*
X50614204Y-35290444D01*
X50545795Y-35329940D01*
X50489940Y-35385795D01*
X50480000Y-35403011D01*
X50480000Y-34600136D01*
X50479999Y-34600135D01*
X50438316Y-34608427D01*
X50438308Y-34608429D01*
X50256328Y-34683807D01*
X50256315Y-34683814D01*
X50092537Y-34793248D01*
X50092533Y-34793251D01*
X49953251Y-34932533D01*
X49953248Y-34932537D01*
X49843814Y-35096315D01*
X49843807Y-35096328D01*
X49768430Y-35278306D01*
X49768427Y-35278318D01*
X49730000Y-35471504D01*
X49730000Y-35870000D01*
X50430000Y-35870000D01*
X50430000Y-36370000D01*
X49730000Y-36370000D01*
X49730000Y-36768495D01*
X49768427Y-36961681D01*
X49768430Y-36961693D01*
X49843807Y-37143671D01*
X49843814Y-37143684D01*
X49953248Y-37307462D01*
X49953251Y-37307466D01*
X50092533Y-37446748D01*
X50092537Y-37446751D01*
X50256315Y-37556185D01*
X50256328Y-37556192D01*
X50438308Y-37631569D01*
X50480000Y-37639862D01*
X50480000Y-36836988D01*
X50489940Y-36854205D01*
X50545795Y-36910060D01*
X50614204Y-36949556D01*
X50690504Y-36970000D01*
X50769496Y-36970000D01*
X50845796Y-36949556D01*
X50914205Y-36910060D01*
X50970060Y-36854205D01*
X51009556Y-36785796D01*
X51009769Y-36785000D01*
X51676000Y-36785000D01*
X51743039Y-36804685D01*
X51788794Y-36857489D01*
X51800000Y-36909000D01*
X51800000Y-37035000D01*
X51926000Y-37035000D01*
X51993039Y-37054685D01*
X52038794Y-37107489D01*
X52050000Y-37159000D01*
X52050000Y-38260000D01*
X52057289Y-38267289D01*
X52099503Y-38279685D01*
X52145258Y-38332489D01*
X52155202Y-38401647D01*
X52139851Y-38446001D01*
X52133608Y-38456812D01*
X52115472Y-38524500D01*
X52099500Y-38584108D01*
X52099500Y-38715892D01*
X52101717Y-38724167D01*
X52133608Y-38843187D01*
X52152447Y-38875817D01*
X52174204Y-38913500D01*
X52190677Y-38981399D01*
X52167825Y-39047426D01*
X52112904Y-39090617D01*
X52066817Y-39099500D01*
X50324500Y-39099500D01*
X50257461Y-39079815D01*
X50211706Y-39027011D01*
X50200500Y-38975500D01*
X50200500Y-38720730D01*
X50197646Y-38690300D01*
X50197646Y-38690298D01*
X50160488Y-38584110D01*
X50152793Y-38562118D01*
X50072150Y-38452850D01*
X49962882Y-38372207D01*
X49962880Y-38372206D01*
X49834700Y-38327353D01*
X49804270Y-38324500D01*
X49804266Y-38324500D01*
X48895734Y-38324500D01*
X48895730Y-38324500D01*
X48865300Y-38327353D01*
X48865298Y-38327353D01*
X48737119Y-38372206D01*
X48737117Y-38372207D01*
X48627850Y-38452850D01*
X48547207Y-38562117D01*
X48547206Y-38562119D01*
X48502353Y-38690298D01*
X48502353Y-38690300D01*
X48499500Y-38720730D01*
X48499500Y-40079269D01*
X48502353Y-40109699D01*
X48502353Y-40109701D01*
X48547206Y-40237880D01*
X48547207Y-40237882D01*
X48627850Y-40347150D01*
X48737118Y-40427793D01*
X48771198Y-40439718D01*
X48865299Y-40472646D01*
X48895730Y-40475500D01*
X48895734Y-40475500D01*
X49804270Y-40475500D01*
X49834699Y-40472646D01*
X49834701Y-40472646D01*
X49922343Y-40441978D01*
X49962882Y-40427793D01*
X50072150Y-40347150D01*
X50152793Y-40237882D01*
X50175219Y-40173790D01*
X50197646Y-40109701D01*
X50197646Y-40109699D01*
X50200500Y-40079269D01*
X50200500Y-39824500D01*
X50220185Y-39757461D01*
X50272989Y-39711706D01*
X50324500Y-39700500D01*
X52839560Y-39700500D01*
X52839562Y-39700500D01*
X52915989Y-39680021D01*
X52984511Y-39640460D01*
X53040460Y-39584511D01*
X53537819Y-39087152D01*
X53599142Y-39053667D01*
X53668834Y-39058651D01*
X53724767Y-39100523D01*
X53749184Y-39165987D01*
X53749500Y-39174833D01*
X53749500Y-40280455D01*
X53749269Y-40288017D01*
X53748626Y-40298530D01*
X53744234Y-40317250D01*
X53740106Y-40437998D01*
X53740001Y-40439718D01*
X53739866Y-40440090D01*
X53739276Y-40447526D01*
X53728659Y-40532518D01*
X53726151Y-40546252D01*
X53714652Y-40593876D01*
X53710152Y-40608493D01*
X53700030Y-40635348D01*
X53690361Y-40655357D01*
X53638648Y-40741639D01*
X53629182Y-40755272D01*
X53550290Y-40854059D01*
X53549828Y-40854633D01*
X53448217Y-40980329D01*
X53445126Y-40984264D01*
X53388232Y-41024821D01*
X53318443Y-41028180D01*
X53257916Y-40993275D01*
X53225870Y-40931189D01*
X53224328Y-40920917D01*
X53218598Y-40867627D01*
X53218596Y-40867620D01*
X53168354Y-40732913D01*
X53168350Y-40732906D01*
X53082190Y-40617812D01*
X53082187Y-40617809D01*
X52967093Y-40531649D01*
X52967086Y-40531645D01*
X52832379Y-40481403D01*
X52832372Y-40481401D01*
X52772844Y-40475000D01*
X52300000Y-40475000D01*
X52300000Y-41334314D01*
X52295606Y-41329920D01*
X52204394Y-41277259D01*
X52102661Y-41250000D01*
X51997339Y-41250000D01*
X51895606Y-41277259D01*
X51804394Y-41329920D01*
X51800000Y-41334314D01*
X51800000Y-40475000D01*
X51327155Y-40475000D01*
X51267627Y-40481401D01*
X51267620Y-40481403D01*
X51132913Y-40531645D01*
X51132906Y-40531649D01*
X51017812Y-40617809D01*
X51017809Y-40617812D01*
X50931649Y-40732906D01*
X50931645Y-40732913D01*
X50881403Y-40867620D01*
X50881401Y-40867627D01*
X50875000Y-40927155D01*
X50875000Y-41400000D01*
X51734314Y-41400000D01*
X51729920Y-41404394D01*
X51677259Y-41495606D01*
X51650000Y-41597339D01*
X51650000Y-41702661D01*
X51677259Y-41804394D01*
X51729920Y-41895606D01*
X51734314Y-41900000D01*
X50875000Y-41900000D01*
X50875000Y-42372844D01*
X50881401Y-42432372D01*
X50881402Y-42432376D01*
X50899973Y-42482166D01*
X50904957Y-42551858D01*
X50871472Y-42613181D01*
X50810149Y-42646666D01*
X50783791Y-42649500D01*
X46055413Y-42649500D01*
X46044605Y-42649028D01*
X45887246Y-42635260D01*
X45865961Y-42631507D01*
X45718630Y-42592030D01*
X45698318Y-42584637D01*
X45560084Y-42520177D01*
X45541366Y-42509370D01*
X45416417Y-42421880D01*
X45399859Y-42407986D01*
X45292013Y-42300140D01*
X45278119Y-42283582D01*
X45190629Y-42158633D01*
X45179822Y-42139915D01*
X45115362Y-42001681D01*
X45107969Y-41981369D01*
X45068492Y-41834038D01*
X45064739Y-41812752D01*
X45050972Y-41655393D01*
X45050500Y-41644586D01*
X45050500Y-40585523D01*
X45070185Y-40518484D01*
X45122989Y-40472729D01*
X45192147Y-40462785D01*
X45255703Y-40491810D01*
X45262181Y-40497842D01*
X45381654Y-40617315D01*
X45530875Y-40709356D01*
X45530880Y-40709358D01*
X45697302Y-40764505D01*
X45697309Y-40764506D01*
X45800019Y-40774999D01*
X45999999Y-40774999D01*
X46500000Y-40774999D01*
X46699972Y-40774999D01*
X46699986Y-40774998D01*
X46802697Y-40764505D01*
X46969119Y-40709358D01*
X46969124Y-40709356D01*
X47118345Y-40617315D01*
X47242315Y-40493345D01*
X47334356Y-40344124D01*
X47334358Y-40344119D01*
X47389505Y-40177697D01*
X47389506Y-40177690D01*
X47399999Y-40074986D01*
X47400000Y-40074973D01*
X47400000Y-39650000D01*
X46500000Y-39650000D01*
X46500000Y-40774999D01*
X45999999Y-40774999D01*
X46000000Y-40774998D01*
X46000000Y-39150000D01*
X46500000Y-39150000D01*
X47399999Y-39150000D01*
X47399999Y-38725028D01*
X47399998Y-38725013D01*
X47389505Y-38622302D01*
X47334358Y-38455880D01*
X47334356Y-38455875D01*
X47242315Y-38306654D01*
X47118345Y-38182684D01*
X46969124Y-38090643D01*
X46969119Y-38090641D01*
X46802697Y-38035494D01*
X46802690Y-38035493D01*
X46699986Y-38025000D01*
X46500000Y-38025000D01*
X46500000Y-39150000D01*
X46000000Y-39150000D01*
X46000000Y-38025000D01*
X45800029Y-38025000D01*
X45800012Y-38025001D01*
X45697302Y-38035494D01*
X45530880Y-38090641D01*
X45530875Y-38090643D01*
X45381654Y-38182684D01*
X45262181Y-38302158D01*
X45200858Y-38335643D01*
X45131166Y-38330659D01*
X45075233Y-38288787D01*
X45050816Y-38223323D01*
X45050500Y-38214477D01*
X45050500Y-37656262D01*
X50980000Y-37656262D01*
X50993999Y-37676813D01*
X51000000Y-37714923D01*
X51000000Y-37807844D01*
X51006401Y-37867372D01*
X51006403Y-37867379D01*
X51056645Y-38002086D01*
X51056649Y-38002093D01*
X51142809Y-38117187D01*
X51142812Y-38117190D01*
X51257906Y-38203350D01*
X51257913Y-38203354D01*
X51392620Y-38253596D01*
X51392627Y-38253598D01*
X51452155Y-38259999D01*
X51452172Y-38260000D01*
X51550000Y-38260000D01*
X51550000Y-37285000D01*
X50980000Y-37285000D01*
X50980000Y-37656262D01*
X45050500Y-37656262D01*
X45050500Y-33771785D01*
X45070185Y-33704746D01*
X45122989Y-33658991D01*
X45192147Y-33649047D01*
X45249986Y-33673409D01*
X45436471Y-33816503D01*
X45663517Y-33947590D01*
X45663528Y-33947595D01*
X45905744Y-34047924D01*
X46158979Y-34115777D01*
X46158992Y-34115780D01*
X46300000Y-34134343D01*
X46300000Y-33375985D01*
X46451623Y-33400000D01*
X46648377Y-33400000D01*
X46800000Y-33375985D01*
X46800000Y-34134342D01*
X46941007Y-34115780D01*
X46941020Y-34115777D01*
X47194255Y-34047924D01*
X47436471Y-33947595D01*
X47436482Y-33947590D01*
X47663528Y-33816503D01*
X47871519Y-33656907D01*
X47871526Y-33656901D01*
X48056901Y-33471526D01*
X48056907Y-33471519D01*
X48216503Y-33263528D01*
X48347590Y-33036482D01*
X48347595Y-33036471D01*
X48447924Y-32794255D01*
X48515778Y-32541016D01*
X48534345Y-32400000D01*
X47775985Y-32400000D01*
X47800000Y-32248377D01*
X47800000Y-32051623D01*
X47775985Y-31900000D01*
X48534345Y-31900000D01*
X48534345Y-31899999D01*
X48515778Y-31758983D01*
X48447924Y-31505744D01*
X48347595Y-31263528D01*
X48347590Y-31263517D01*
X48216503Y-31036471D01*
X48073409Y-30849986D01*
X48048215Y-30784817D01*
X48062253Y-30716372D01*
X48111067Y-30666383D01*
X48171785Y-30650500D01*
X50005923Y-30650500D01*
X50072962Y-30670185D01*
G37*
G04 #@! TD.AperFunction*
M02*
