G04 #@! TF.GenerationSoftware,KiCad,Pcbnew,9.0.4*
G04 #@! TF.CreationDate,2025-11-11T18:50:41+08:00*
G04 #@! TF.ProjectId,Custom Mechanical Keyboard,43757374-6f6d-4204-9d65-6368616e6963,rev?*
G04 #@! TF.SameCoordinates,Original*
G04 #@! TF.FileFunction,Copper,L2,Bot*
G04 #@! TF.FilePolarity,Positive*
%FSLAX46Y46*%
G04 Gerber Fmt 4.6, Leading zero omitted, Abs format (unit mm)*
G04 Created by KiCad (PCBNEW 9.0.4) date 2025-11-11 18:50:41*
%MOMM*%
%LPD*%
G01*
G04 APERTURE LIST*
G04 #@! TA.AperFunction,CastellatedPad*
%ADD10C,3.000000*%
G04 #@! TD*
G04 #@! TA.AperFunction,ComponentPad*
%ADD11C,1.350000*%
G04 #@! TD*
G04 #@! TA.AperFunction,ComponentPad*
%ADD12R,1.350000X1.350000*%
G04 #@! TD*
G04 #@! TA.AperFunction,ComponentPad*
%ADD13O,1.200000X2.250000*%
G04 #@! TD*
G04 #@! TA.AperFunction,ViaPad*
%ADD14C,0.600000*%
G04 #@! TD*
G04 #@! TA.AperFunction,Conductor*
%ADD15C,0.400000*%
G04 #@! TD*
G04 APERTURE END LIST*
D10*
X63550000Y-32150000D03*
X46550000Y-32150000D03*
D11*
X58050000Y-41650000D03*
X56050000Y-41650000D03*
X54050000Y-41650000D03*
D12*
X52050000Y-41650000D03*
D13*
X49455000Y-31920000D03*
X49475000Y-36520000D03*
X60625000Y-36520000D03*
X60645000Y-31920000D03*
D14*
X57500000Y-38650000D03*
X52600000Y-38650000D03*
X57050000Y-40150000D03*
D15*
X57050000Y-40150000D02*
X52550000Y-40150000D01*
X52050000Y-40650000D02*
X52050000Y-41650000D01*
X52550000Y-40150000D02*
X52050000Y-40650000D01*
X57500000Y-38650000D02*
X52600000Y-38650000D01*
X58050000Y-39200000D02*
X58050000Y-41650000D01*
X57500000Y-38650000D02*
X58050000Y-39200000D01*
G04 #@! TA.AperFunction,Conductor*
G36*
X58247428Y-40316397D02*
G01*
X58250821Y-40323784D01*
X58267217Y-40539680D01*
X58267218Y-40539687D01*
X58313404Y-40708313D01*
X58313406Y-40708319D01*
X58380359Y-40840273D01*
X58394615Y-40861188D01*
X58459845Y-40956888D01*
X58459913Y-40956989D01*
X58563897Y-41113005D01*
X58564728Y-41114472D01*
X58648364Y-41290447D01*
X58648920Y-41291841D01*
X58682713Y-41395443D01*
X58682971Y-41396359D01*
X58709218Y-41506513D01*
X58707802Y-41515355D01*
X58700549Y-41520606D01*
X58700136Y-41520697D01*
X58052299Y-41650539D01*
X58047701Y-41650539D01*
X57400157Y-41520756D01*
X57392718Y-41515770D01*
X57390984Y-41506985D01*
X57391138Y-41506318D01*
X57438335Y-41327653D01*
X57438841Y-41326162D01*
X57500388Y-41178705D01*
X57501046Y-41177374D01*
X57569275Y-41059333D01*
X57569756Y-41058575D01*
X57640123Y-40956934D01*
X57706400Y-40861187D01*
X57783083Y-40717053D01*
X57810503Y-40638030D01*
X57831526Y-40546892D01*
X57845191Y-40439128D01*
X57849571Y-40324223D01*
X57853311Y-40316088D01*
X57861263Y-40312970D01*
X58239155Y-40312970D01*
X58247428Y-40316397D01*
G37*
G04 #@! TD.AperFunction*
G04 #@! TA.AperFunction,Conductor*
G36*
X60895000Y-33519115D02*
G01*
X60902584Y-33517914D01*
X61067255Y-33464408D01*
X61221524Y-33385804D01*
X61361602Y-33284032D01*
X61484036Y-33161598D01*
X61561592Y-33054850D01*
X61616922Y-33012183D01*
X61686535Y-33006204D01*
X61748330Y-33038809D01*
X61769298Y-33065733D01*
X61883498Y-33263531D01*
X62043092Y-33471519D01*
X62043098Y-33471526D01*
X62228473Y-33656901D01*
X62228480Y-33656907D01*
X62436471Y-33816503D01*
X62663517Y-33947590D01*
X62663528Y-33947595D01*
X62905744Y-34047924D01*
X63158979Y-34115777D01*
X63158992Y-34115780D01*
X63300000Y-34134343D01*
X63300000Y-33375985D01*
X63451623Y-33400000D01*
X63648377Y-33400000D01*
X63800000Y-33375985D01*
X63800000Y-34134342D01*
X63941007Y-34115780D01*
X63941020Y-34115777D01*
X64194255Y-34047924D01*
X64436471Y-33947595D01*
X64436482Y-33947590D01*
X64663528Y-33816503D01*
X64850014Y-33673409D01*
X64915183Y-33648215D01*
X64983628Y-33662253D01*
X65033617Y-33711067D01*
X65049500Y-33771785D01*
X65049500Y-41644586D01*
X65049028Y-41655393D01*
X65049028Y-41655394D01*
X65035260Y-41812753D01*
X65031507Y-41834038D01*
X64992030Y-41981369D01*
X64984637Y-42001681D01*
X64920177Y-42139915D01*
X64909370Y-42158633D01*
X64821880Y-42283582D01*
X64807986Y-42300140D01*
X64700140Y-42407986D01*
X64683582Y-42421880D01*
X64558633Y-42509370D01*
X64539915Y-42520177D01*
X64401681Y-42584637D01*
X64381369Y-42592030D01*
X64234038Y-42631507D01*
X64212753Y-42635260D01*
X64055395Y-42649028D01*
X64044587Y-42649500D01*
X58538775Y-42649500D01*
X58471736Y-42629815D01*
X58425981Y-42577011D01*
X58416037Y-42507853D01*
X58445062Y-42444297D01*
X58469884Y-42422398D01*
X58544046Y-42372844D01*
X58608099Y-42330045D01*
X58730045Y-42208099D01*
X58825858Y-42064705D01*
X58891855Y-41905374D01*
X58925500Y-41736229D01*
X58925500Y-41563771D01*
X58925499Y-41563768D01*
X58917987Y-41526000D01*
X58912089Y-41496355D01*
X58909796Y-41476830D01*
X58909122Y-41458881D01*
X58882875Y-41348727D01*
X58880775Y-41340646D01*
X58880517Y-41339730D01*
X58878083Y-41331717D01*
X58844290Y-41228115D01*
X58844282Y-41228092D01*
X58839799Y-41215713D01*
X58839243Y-41214320D01*
X58833974Y-41202247D01*
X58750325Y-41026245D01*
X58743536Y-41013191D01*
X58743336Y-41012839D01*
X58742702Y-41011719D01*
X58734897Y-40999034D01*
X58715517Y-40969957D01*
X58630937Y-40843054D01*
X58630913Y-40843018D01*
X58629720Y-40841248D01*
X58562119Y-40742069D01*
X58554007Y-40728346D01*
X58511790Y-40645144D01*
X58502776Y-40621798D01*
X58473776Y-40515917D01*
X58469730Y-40492569D01*
X58455731Y-40308222D01*
X58454453Y-40303281D01*
X58450500Y-40272223D01*
X58450500Y-39147275D01*
X58450500Y-39147273D01*
X58423207Y-39045413D01*
X58370480Y-38954087D01*
X58295913Y-38879520D01*
X58023993Y-38607600D01*
X57991900Y-38552014D01*
X57966392Y-38456814D01*
X57900500Y-38342686D01*
X57807314Y-38249500D01*
X57750250Y-38216554D01*
X57693187Y-38183608D01*
X57629539Y-38166554D01*
X57565892Y-38149500D01*
X57434108Y-38149500D01*
X57306814Y-38183608D01*
X57306813Y-38183608D01*
X57306811Y-38183609D01*
X57306810Y-38183609D01*
X57221460Y-38232887D01*
X57159460Y-38249500D01*
X52940540Y-38249500D01*
X52878540Y-38232887D01*
X52793188Y-38183609D01*
X52793187Y-38183608D01*
X52793186Y-38183608D01*
X52665892Y-38149500D01*
X52534108Y-38149500D01*
X52406812Y-38183608D01*
X52292686Y-38249500D01*
X52292683Y-38249502D01*
X52199502Y-38342683D01*
X52199500Y-38342686D01*
X52133608Y-38456812D01*
X52099500Y-38584108D01*
X52099500Y-38715891D01*
X52133608Y-38843187D01*
X52154585Y-38879520D01*
X52199500Y-38957314D01*
X52292686Y-39050500D01*
X52391521Y-39107563D01*
X52406810Y-39116390D01*
X52406814Y-39116392D01*
X52534108Y-39150500D01*
X52534110Y-39150500D01*
X52665890Y-39150500D01*
X52665892Y-39150500D01*
X52793186Y-39116392D01*
X52878540Y-39067113D01*
X52940540Y-39050500D01*
X57159460Y-39050500D01*
X57167636Y-39052126D01*
X57172715Y-39051210D01*
X57187845Y-39056146D01*
X57206912Y-39059939D01*
X57214424Y-39063050D01*
X57306814Y-39116392D01*
X57409863Y-39144003D01*
X57417371Y-39147113D01*
X57433361Y-39159998D01*
X57457600Y-39173993D01*
X57613181Y-39329574D01*
X57646666Y-39390897D01*
X57649500Y-39417255D01*
X57649500Y-40279687D01*
X57646106Y-40308501D01*
X57644219Y-40316395D01*
X57640392Y-40416805D01*
X57639497Y-40427680D01*
X57629746Y-40504579D01*
X57627558Y-40516852D01*
X57614237Y-40574599D01*
X57610557Y-40587378D01*
X57597320Y-40625524D01*
X57589644Y-40643114D01*
X57534001Y-40747702D01*
X57526487Y-40760035D01*
X57471168Y-40839953D01*
X57471163Y-40839961D01*
X57452015Y-40867620D01*
X57400793Y-40941607D01*
X57396250Y-40948457D01*
X57395750Y-40949245D01*
X57391342Y-40956520D01*
X57323142Y-41074511D01*
X57316825Y-41086309D01*
X57316165Y-41087643D01*
X57310745Y-41099548D01*
X57249194Y-41247011D01*
X57244244Y-41260113D01*
X57243731Y-41261623D01*
X57239648Y-41275175D01*
X57192467Y-41453780D01*
X57190900Y-41460109D01*
X57190752Y-41460751D01*
X57190751Y-41460758D01*
X57190559Y-41472729D01*
X57188193Y-41494921D01*
X57174500Y-41563769D01*
X57174500Y-41736233D01*
X57208143Y-41905366D01*
X57208146Y-41905378D01*
X57274138Y-42064698D01*
X57274145Y-42064711D01*
X57369954Y-42208098D01*
X57369957Y-42208102D01*
X57491897Y-42330042D01*
X57491901Y-42330045D01*
X57630116Y-42422398D01*
X57674921Y-42476010D01*
X57683628Y-42545335D01*
X57653473Y-42608363D01*
X57594030Y-42645082D01*
X57561225Y-42649500D01*
X56538775Y-42649500D01*
X56471736Y-42629815D01*
X56425981Y-42577011D01*
X56416037Y-42507853D01*
X56445062Y-42444297D01*
X56469884Y-42422398D01*
X56544046Y-42372844D01*
X56608099Y-42330045D01*
X56730045Y-42208099D01*
X56825858Y-42064705D01*
X56891855Y-41905374D01*
X56925500Y-41736229D01*
X56925500Y-41563771D01*
X56925500Y-41563769D01*
X56925500Y-41563768D01*
X56925499Y-41563766D01*
X56908205Y-41476822D01*
X56891855Y-41394626D01*
X56869490Y-41340632D01*
X56825861Y-41235301D01*
X56825854Y-41235288D01*
X56730045Y-41091901D01*
X56730042Y-41091897D01*
X56608102Y-40969957D01*
X56608098Y-40969954D01*
X56464711Y-40874145D01*
X56464698Y-40874138D01*
X56305378Y-40808146D01*
X56305366Y-40808143D01*
X56136232Y-40774500D01*
X56136229Y-40774500D01*
X55963771Y-40774500D01*
X55963768Y-40774500D01*
X55794633Y-40808143D01*
X55794621Y-40808146D01*
X55635301Y-40874138D01*
X55635288Y-40874145D01*
X55491901Y-40969954D01*
X55491897Y-40969957D01*
X55369957Y-41091897D01*
X55369954Y-41091901D01*
X55274145Y-41235288D01*
X55274138Y-41235301D01*
X55208146Y-41394621D01*
X55208143Y-41394633D01*
X55174500Y-41563766D01*
X55174500Y-41736233D01*
X55208143Y-41905366D01*
X55208146Y-41905378D01*
X55274138Y-42064698D01*
X55274145Y-42064711D01*
X55369954Y-42208098D01*
X55369957Y-42208102D01*
X55491897Y-42330042D01*
X55491901Y-42330045D01*
X55630116Y-42422398D01*
X55674921Y-42476010D01*
X55683628Y-42545335D01*
X55653473Y-42608363D01*
X55594030Y-42645082D01*
X55561225Y-42649500D01*
X54538775Y-42649500D01*
X54471736Y-42629815D01*
X54425981Y-42577011D01*
X54416037Y-42507853D01*
X54445062Y-42444297D01*
X54469884Y-42422398D01*
X54544046Y-42372844D01*
X54608099Y-42330045D01*
X54730045Y-42208099D01*
X54825858Y-42064705D01*
X54891855Y-41905374D01*
X54925500Y-41736229D01*
X54925500Y-41563771D01*
X54925500Y-41563769D01*
X54925500Y-41563768D01*
X54925499Y-41563766D01*
X54908205Y-41476822D01*
X54891855Y-41394626D01*
X54869490Y-41340632D01*
X54825861Y-41235301D01*
X54825854Y-41235288D01*
X54730045Y-41091901D01*
X54730042Y-41091897D01*
X54608102Y-40969957D01*
X54608098Y-40969954D01*
X54464711Y-40874145D01*
X54464698Y-40874138D01*
X54305378Y-40808146D01*
X54305366Y-40808143D01*
X54136232Y-40774500D01*
X54136229Y-40774500D01*
X53963771Y-40774500D01*
X53963768Y-40774500D01*
X53794633Y-40808143D01*
X53794621Y-40808146D01*
X53635301Y-40874138D01*
X53635288Y-40874145D01*
X53491901Y-40969954D01*
X53491897Y-40969957D01*
X53436681Y-41025174D01*
X53375358Y-41058659D01*
X53305666Y-41053675D01*
X53249733Y-41011803D01*
X53225316Y-40946339D01*
X53225000Y-40937493D01*
X53225000Y-40927172D01*
X53224999Y-40927155D01*
X53218598Y-40867627D01*
X53218596Y-40867620D01*
X53168354Y-40732913D01*
X53168350Y-40732906D01*
X53082190Y-40617812D01*
X53082187Y-40617809D01*
X52967093Y-40531649D01*
X52967086Y-40531645D01*
X52832379Y-40481403D01*
X52832372Y-40481401D01*
X52772844Y-40475000D01*
X52300000Y-40475000D01*
X52300000Y-41334314D01*
X52295606Y-41329920D01*
X52204394Y-41277259D01*
X52102661Y-41250000D01*
X51997339Y-41250000D01*
X51895606Y-41277259D01*
X51804394Y-41329920D01*
X51800000Y-41334314D01*
X51800000Y-40475000D01*
X51327155Y-40475000D01*
X51267627Y-40481401D01*
X51267620Y-40481403D01*
X51132913Y-40531645D01*
X51132906Y-40531649D01*
X51017812Y-40617809D01*
X51017809Y-40617812D01*
X50931649Y-40732906D01*
X50931645Y-40732913D01*
X50881403Y-40867620D01*
X50881401Y-40867627D01*
X50875000Y-40927155D01*
X50875000Y-41400000D01*
X51734314Y-41400000D01*
X51729920Y-41404394D01*
X51677259Y-41495606D01*
X51650000Y-41597339D01*
X51650000Y-41702661D01*
X51677259Y-41804394D01*
X51729920Y-41895606D01*
X51734314Y-41900000D01*
X50875000Y-41900000D01*
X50875000Y-42372844D01*
X50881401Y-42432372D01*
X50881402Y-42432376D01*
X50899973Y-42482166D01*
X50904957Y-42551858D01*
X50871472Y-42613181D01*
X50810149Y-42646666D01*
X50783791Y-42649500D01*
X46055413Y-42649500D01*
X46044605Y-42649028D01*
X45887246Y-42635260D01*
X45865961Y-42631507D01*
X45718630Y-42592030D01*
X45698318Y-42584637D01*
X45560084Y-42520177D01*
X45541366Y-42509370D01*
X45416417Y-42421880D01*
X45399859Y-42407986D01*
X45292013Y-42300140D01*
X45278119Y-42283582D01*
X45190629Y-42158633D01*
X45179822Y-42139915D01*
X45115362Y-42001681D01*
X45107969Y-41981369D01*
X45068492Y-41834038D01*
X45064739Y-41812752D01*
X45050972Y-41655393D01*
X45050500Y-41644586D01*
X45050500Y-33771785D01*
X45070185Y-33704746D01*
X45122989Y-33658991D01*
X45192147Y-33649047D01*
X45249986Y-33673409D01*
X45436471Y-33816503D01*
X45663517Y-33947590D01*
X45663528Y-33947595D01*
X45905744Y-34047924D01*
X46158979Y-34115777D01*
X46158992Y-34115780D01*
X46300000Y-34134343D01*
X46300000Y-33375985D01*
X46451623Y-33400000D01*
X46648377Y-33400000D01*
X46800000Y-33375985D01*
X46800000Y-34134342D01*
X46941007Y-34115780D01*
X46941020Y-34115777D01*
X47194255Y-34047924D01*
X47436471Y-33947595D01*
X47436482Y-33947590D01*
X47663528Y-33816503D01*
X47871519Y-33656907D01*
X47871526Y-33656901D01*
X48056901Y-33471526D01*
X48056907Y-33471519D01*
X48216503Y-33263528D01*
X48330701Y-33065734D01*
X48381268Y-33017518D01*
X48449875Y-33004296D01*
X48514740Y-33030264D01*
X48538406Y-33054849D01*
X48615961Y-33161595D01*
X48615965Y-33161600D01*
X48738397Y-33284032D01*
X48878475Y-33385804D01*
X49032744Y-33464408D01*
X49197415Y-33517914D01*
X49197414Y-33517914D01*
X49204999Y-33519115D01*
X49205000Y-33519114D01*
X49205000Y-32611988D01*
X49214940Y-32629205D01*
X49270795Y-32685060D01*
X49339204Y-32724556D01*
X49415504Y-32745000D01*
X49494496Y-32745000D01*
X49570796Y-32724556D01*
X49639205Y-32685060D01*
X49695060Y-32629205D01*
X49705000Y-32611988D01*
X49705000Y-33519115D01*
X49712582Y-33517914D01*
X49837181Y-33477429D01*
X49907022Y-33475434D01*
X49966855Y-33511514D01*
X49997684Y-33574214D01*
X49999500Y-33595360D01*
X49999500Y-34264070D01*
X49979815Y-34331109D01*
X49940778Y-34369496D01*
X49914089Y-34386021D01*
X49894479Y-34398164D01*
X49757455Y-34523077D01*
X49645714Y-34671047D01*
X49563069Y-34837018D01*
X49563064Y-34837031D01*
X49512321Y-35015371D01*
X49495214Y-35199999D01*
X49495214Y-35200000D01*
X49512321Y-35384628D01*
X49563064Y-35562968D01*
X49563069Y-35562981D01*
X49645710Y-35728946D01*
X49645714Y-35728952D01*
X49684259Y-35779994D01*
X49659205Y-35754940D01*
X49590796Y-35715444D01*
X49514496Y-35695000D01*
X49435504Y-35695000D01*
X49359204Y-35715444D01*
X49290795Y-35754940D01*
X49234940Y-35810795D01*
X49225000Y-35828011D01*
X49225000Y-34920884D01*
X49224999Y-34920884D01*
X49217418Y-34922085D01*
X49217410Y-34922087D01*
X49052742Y-34975591D01*
X48898475Y-35054195D01*
X48758397Y-35155967D01*
X48635967Y-35278397D01*
X48534195Y-35418475D01*
X48455591Y-35572742D01*
X48402085Y-35737415D01*
X48375000Y-35908428D01*
X48375000Y-36270000D01*
X49175000Y-36270000D01*
X49175000Y-36770000D01*
X48375000Y-36770000D01*
X48375000Y-37131571D01*
X48402085Y-37302584D01*
X48455591Y-37467257D01*
X48534195Y-37621524D01*
X48635967Y-37761602D01*
X48758397Y-37884032D01*
X48898475Y-37985804D01*
X49052744Y-38064408D01*
X49217415Y-38117914D01*
X49217414Y-38117914D01*
X49224999Y-38119115D01*
X49225000Y-38119114D01*
X49225000Y-37211988D01*
X49234940Y-37229205D01*
X49290795Y-37285060D01*
X49359204Y-37324556D01*
X49435504Y-37345000D01*
X49514496Y-37345000D01*
X49590796Y-37324556D01*
X49659205Y-37285060D01*
X49715060Y-37229205D01*
X49725000Y-37211988D01*
X49725000Y-38119115D01*
X49732584Y-38117914D01*
X49897255Y-38064408D01*
X50051524Y-37985804D01*
X50191602Y-37884032D01*
X50314032Y-37761602D01*
X50415804Y-37621524D01*
X50494408Y-37467257D01*
X50547914Y-37302584D01*
X50575000Y-37131571D01*
X50575000Y-36958038D01*
X50594685Y-36890999D01*
X50647489Y-36845244D01*
X50716647Y-36835300D01*
X50780203Y-36864325D01*
X50806387Y-36896038D01*
X50839485Y-36953365D01*
X50946635Y-37060515D01*
X51077865Y-37136281D01*
X51224234Y-37175500D01*
X51224236Y-37175500D01*
X51375764Y-37175500D01*
X51375766Y-37175500D01*
X51522135Y-37136281D01*
X51653365Y-37060515D01*
X51717508Y-36996371D01*
X51778827Y-36962889D01*
X51848519Y-36967873D01*
X51862238Y-36973959D01*
X51970724Y-37030192D01*
X51970732Y-37030194D01*
X51970736Y-37030196D01*
X52145440Y-37083495D01*
X52145444Y-37083495D01*
X52145446Y-37083496D01*
X52326933Y-37104278D01*
X52509182Y-37091851D01*
X52686167Y-37046625D01*
X52843646Y-36973966D01*
X52852032Y-36970097D01*
X52852032Y-36970096D01*
X52852036Y-36970095D01*
X53001304Y-36864794D01*
X53046074Y-36819019D01*
X53076615Y-36787796D01*
X53137563Y-36753633D01*
X53165262Y-36750500D01*
X54984108Y-36750500D01*
X56934736Y-36750500D01*
X57001775Y-36770185D01*
X57023383Y-36787796D01*
X57098235Y-36864325D01*
X57098695Y-36864795D01*
X57234491Y-36960592D01*
X57247966Y-36970098D01*
X57378222Y-37030196D01*
X57413832Y-37046626D01*
X57590818Y-37091852D01*
X57773067Y-37104279D01*
X57954554Y-37083497D01*
X57954556Y-37083496D01*
X57954559Y-37083496D01*
X58129270Y-37030195D01*
X58129270Y-37030194D01*
X58129276Y-37030193D01*
X58237751Y-36973965D01*
X58306328Y-36960592D01*
X58371250Y-36986416D01*
X58382494Y-36996374D01*
X58446635Y-37060515D01*
X58577865Y-37136281D01*
X58724234Y-37175500D01*
X58724236Y-37175500D01*
X58875764Y-37175500D01*
X58875766Y-37175500D01*
X59022135Y-37136281D01*
X59153365Y-37060515D01*
X59260515Y-36953365D01*
X59293613Y-36896038D01*
X59344180Y-36847822D01*
X59412787Y-36834600D01*
X59477652Y-36860568D01*
X59518180Y-36917482D01*
X59525000Y-36958038D01*
X59525000Y-37131571D01*
X59552085Y-37302584D01*
X59605591Y-37467257D01*
X59684195Y-37621524D01*
X59785967Y-37761602D01*
X59908397Y-37884032D01*
X60048475Y-37985804D01*
X60202744Y-38064408D01*
X60367415Y-38117914D01*
X60367414Y-38117914D01*
X60374999Y-38119115D01*
X60375000Y-38119114D01*
X60375000Y-37211988D01*
X60384940Y-37229205D01*
X60440795Y-37285060D01*
X60509204Y-37324556D01*
X60585504Y-37345000D01*
X60664496Y-37345000D01*
X60740796Y-37324556D01*
X60809205Y-37285060D01*
X60865060Y-37229205D01*
X60875000Y-37211988D01*
X60875000Y-38119115D01*
X60882584Y-38117914D01*
X61047255Y-38064408D01*
X61201524Y-37985804D01*
X61341602Y-37884032D01*
X61464032Y-37761602D01*
X61565804Y-37621524D01*
X61644408Y-37467257D01*
X61697914Y-37302584D01*
X61725000Y-37131571D01*
X61725000Y-36770000D01*
X60925000Y-36770000D01*
X60925000Y-36270000D01*
X61725000Y-36270000D01*
X61725000Y-35908428D01*
X61697914Y-35737415D01*
X61644408Y-35572742D01*
X61565804Y-35418475D01*
X61464032Y-35278397D01*
X61341602Y-35155967D01*
X61201524Y-35054195D01*
X61047257Y-34975591D01*
X60882589Y-34922087D01*
X60882581Y-34922085D01*
X60875000Y-34920884D01*
X60875000Y-35828011D01*
X60865060Y-35810795D01*
X60809205Y-35754940D01*
X60740796Y-35715444D01*
X60664496Y-35695000D01*
X60585504Y-35695000D01*
X60509204Y-35715444D01*
X60440795Y-35754940D01*
X60415740Y-35779994D01*
X60454286Y-35728952D01*
X60536935Y-35562971D01*
X60587678Y-35384629D01*
X60604786Y-35200000D01*
X60591275Y-35054195D01*
X60587678Y-35015371D01*
X60585386Y-35007314D01*
X60536935Y-34837029D01*
X60454286Y-34671048D01*
X60342546Y-34523080D01*
X60342544Y-34523077D01*
X60205520Y-34398164D01*
X60205519Y-34398163D01*
X60159221Y-34369496D01*
X60112587Y-34317469D01*
X60100500Y-34264070D01*
X60100500Y-33595360D01*
X60120185Y-33528321D01*
X60172989Y-33482566D01*
X60242147Y-33472622D01*
X60262819Y-33477429D01*
X60387417Y-33517914D01*
X60394999Y-33519115D01*
X60395000Y-33519114D01*
X60395000Y-32611988D01*
X60404940Y-32629205D01*
X60460795Y-32685060D01*
X60529204Y-32724556D01*
X60605504Y-32745000D01*
X60684496Y-32745000D01*
X60760796Y-32724556D01*
X60829205Y-32685060D01*
X60885060Y-32629205D01*
X60895000Y-32611988D01*
X60895000Y-33519115D01*
G37*
G04 #@! TD.AperFunction*
G04 #@! TA.AperFunction,Conductor*
G36*
X49155000Y-32170000D02*
G01*
X48680000Y-32170000D01*
X48680000Y-32276000D01*
X48660315Y-32343039D01*
X48607511Y-32388794D01*
X48556000Y-32400000D01*
X47775985Y-32400000D01*
X47800000Y-32248377D01*
X47800000Y-32051623D01*
X47775985Y-31900000D01*
X48225000Y-31900000D01*
X48225000Y-31794000D01*
X48244685Y-31726961D01*
X48297489Y-31681206D01*
X48349000Y-31670000D01*
X49155000Y-31670000D01*
X49155000Y-32170000D01*
G37*
G04 #@! TD.AperFunction*
G04 #@! TA.AperFunction,Conductor*
G36*
X61818039Y-31689685D02*
G01*
X61863794Y-31742489D01*
X61875000Y-31794000D01*
X61875000Y-31900000D01*
X62324015Y-31900000D01*
X62300000Y-32051623D01*
X62300000Y-32248377D01*
X62324015Y-32400000D01*
X61544000Y-32400000D01*
X61476961Y-32380315D01*
X61431206Y-32327511D01*
X61420000Y-32276000D01*
X61420000Y-32170000D01*
X60945000Y-32170000D01*
X60945000Y-31670000D01*
X61751000Y-31670000D01*
X61818039Y-31689685D01*
G37*
G04 #@! TD.AperFunction*
M02*
