G04 #@! TF.GenerationSoftware,KiCad,Pcbnew,9.0.4*
G04 #@! TF.CreationDate,2025-11-11T18:50:41+08:00*
G04 #@! TF.ProjectId,Custom Mechanical Keyboard,43757374-6f6d-4204-9d65-6368616e6963,rev?*
G04 #@! TF.SameCoordinates,Original*
G04 #@! TF.FileFunction,Profile,NP*
%FSLAX46Y46*%
G04 Gerber Fmt 4.6, Leading zero omitted, Abs format (unit mm)*
G04 Created by KiCad (PCBNEW 9.0.4) date 2025-11-11 18:50:41*
%MOMM*%
%LPD*%
G01*
G04 APERTURE LIST*
G04 #@! TA.AperFunction,Profile*
%ADD10C,0.100000*%
G04 #@! TD*
G04 #@! TA.AperFunction,Profile*
%ADD11C,0.080000*%
G04 #@! TD*
G04 APERTURE END LIST*
D10*
X59600000Y-30150000D02*
X64050000Y-30150000D01*
X46050000Y-43150000D02*
G75*
G02*
X44550000Y-41650000I0J1500000D01*
G01*
X65550000Y-41650000D02*
G75*
G02*
X64050000Y-43150000I-1500000J0D01*
G01*
X46050000Y-30150000D02*
X50500000Y-30150000D01*
X65550000Y-31650000D02*
X65550000Y-41650000D01*
X64050000Y-43150000D02*
X46050000Y-43150000D01*
X44550000Y-41650000D02*
X44550000Y-31650000D01*
X64050000Y-30150000D02*
G75*
G02*
X65550000Y-31650000I0J-1500000D01*
G01*
X44550000Y-31650000D02*
G75*
G02*
X46050000Y-30150000I1500000J0D01*
G01*
D11*
X59600000Y-34700000D02*
G75*
G02*
X59600000Y-35700000I0J-500000D01*
G01*
X58250000Y-36100000D02*
G75*
G02*
X57291465Y-36299362I-500000J0D01*
G01*
X58250000Y-35900000D02*
G75*
G02*
X58450000Y-35700000I200001J-1D01*
G01*
X52808535Y-36299362D02*
G75*
G02*
X51850000Y-36100000I-458535J199362D01*
G01*
X51650000Y-35700000D02*
G75*
G02*
X51850000Y-35900000I0J-200000D01*
G01*
X50500000Y-35700000D02*
G75*
G02*
X50500000Y-34700000I0J500000D01*
G01*
X59600000Y-34700000D02*
X59600000Y-30150000D01*
X58450000Y-35700000D02*
X59600000Y-35700000D01*
X58250000Y-36100000D02*
X58250000Y-35900000D01*
X57250000Y-36250000D02*
X57291465Y-36299360D01*
X55050000Y-36250000D02*
X57250000Y-36250000D01*
X55050000Y-36250000D02*
X52850000Y-36250000D01*
X52850000Y-36250000D02*
X52808535Y-36299360D01*
X51850000Y-36100000D02*
X51850000Y-35900000D01*
X51650000Y-35700000D02*
X50500000Y-35700000D01*
X50500000Y-34700000D02*
X50500000Y-30150000D01*
M02*
