G04 #@! TF.GenerationSoftware,KiCad,Pcbnew,9.0.4*
G04 #@! TF.CreationDate,2025-11-11T18:50:41+08:00*
G04 #@! TF.ProjectId,Custom Mechanical Keyboard,43757374-6f6d-4204-9d65-6368616e6963,rev?*
G04 #@! TF.SameCoordinates,Original*
G04 #@! TF.FileFunction,Legend,Top*
G04 #@! TF.FilePolarity,Positive*
%FSLAX46Y46*%
G04 Gerber Fmt 4.6, Leading zero omitted, Abs format (unit mm)*
G04 Created by KiCad (PCBNEW 9.0.4) date 2025-11-11 18:50:41*
%MOMM*%
%LPD*%
G01*
G04 APERTURE LIST*
G04 Aperture macros list*
%AMRoundRect*
0 Rectangle with rounded corners*
0 $1 Rounding radius*
0 $2 $3 $4 $5 $6 $7 $8 $9 X,Y pos of 4 corners*
0 Add a 4 corners polygon primitive as box body*
4,1,4,$2,$3,$4,$5,$6,$7,$8,$9,$2,$3,0*
0 Add four circle primitives for the rounded corners*
1,1,$1+$1,$2,$3*
1,1,$1+$1,$4,$5*
1,1,$1+$1,$6,$7*
1,1,$1+$1,$8,$9*
0 Add four rect primitives between the rounded corners*
20,1,$1+$1,$2,$3,$4,$5,0*
20,1,$1+$1,$4,$5,$6,$7,0*
20,1,$1+$1,$6,$7,$8,$9,0*
20,1,$1+$1,$8,$9,$2,$3,0*%
G04 Aperture macros list end*
%ADD10C,0.150000*%
%ADD11C,0.120000*%
%ADD12RoundRect,0.250000X-0.400000X-0.625000X0.400000X-0.625000X0.400000X0.625000X-0.400000X0.625000X0*%
%ADD13C,3.000000*%
%ADD14C,1.350000*%
%ADD15R,1.350000X1.350000*%
%ADD16RoundRect,0.250000X0.400000X0.625000X-0.400000X0.625000X-0.400000X-0.625000X0.400000X-0.625000X0*%
%ADD17O,1.200000X2.250000*%
%ADD18R,0.540000X1.100000*%
%ADD19R,0.300000X1.100000*%
%ADD20C,0.650000*%
G04 APERTURE END LIST*
D10*
X62133333Y-41654819D02*
X61800000Y-41178628D01*
X61561905Y-41654819D02*
X61561905Y-40654819D01*
X61561905Y-40654819D02*
X61942857Y-40654819D01*
X61942857Y-40654819D02*
X62038095Y-40702438D01*
X62038095Y-40702438D02*
X62085714Y-40750057D01*
X62085714Y-40750057D02*
X62133333Y-40845295D01*
X62133333Y-40845295D02*
X62133333Y-40988152D01*
X62133333Y-40988152D02*
X62085714Y-41083390D01*
X62085714Y-41083390D02*
X62038095Y-41131009D01*
X62038095Y-41131009D02*
X61942857Y-41178628D01*
X61942857Y-41178628D02*
X61561905Y-41178628D01*
X62514286Y-40750057D02*
X62561905Y-40702438D01*
X62561905Y-40702438D02*
X62657143Y-40654819D01*
X62657143Y-40654819D02*
X62895238Y-40654819D01*
X62895238Y-40654819D02*
X62990476Y-40702438D01*
X62990476Y-40702438D02*
X63038095Y-40750057D01*
X63038095Y-40750057D02*
X63085714Y-40845295D01*
X63085714Y-40845295D02*
X63085714Y-40940533D01*
X63085714Y-40940533D02*
X63038095Y-41083390D01*
X63038095Y-41083390D02*
X62466667Y-41654819D01*
X62466667Y-41654819D02*
X63085714Y-41654819D01*
X49394819Y-41983333D02*
X50109104Y-41983333D01*
X50109104Y-41983333D02*
X50251961Y-42030952D01*
X50251961Y-42030952D02*
X50347200Y-42126190D01*
X50347200Y-42126190D02*
X50394819Y-42269047D01*
X50394819Y-42269047D02*
X50394819Y-42364285D01*
X49490057Y-41554761D02*
X49442438Y-41507142D01*
X49442438Y-41507142D02*
X49394819Y-41411904D01*
X49394819Y-41411904D02*
X49394819Y-41173809D01*
X49394819Y-41173809D02*
X49442438Y-41078571D01*
X49442438Y-41078571D02*
X49490057Y-41030952D01*
X49490057Y-41030952D02*
X49585295Y-40983333D01*
X49585295Y-40983333D02*
X49680533Y-40983333D01*
X49680533Y-40983333D02*
X49823390Y-41030952D01*
X49823390Y-41030952D02*
X50394819Y-41602380D01*
X50394819Y-41602380D02*
X50394819Y-40983333D01*
X47633333Y-41684819D02*
X47300000Y-41208628D01*
X47061905Y-41684819D02*
X47061905Y-40684819D01*
X47061905Y-40684819D02*
X47442857Y-40684819D01*
X47442857Y-40684819D02*
X47538095Y-40732438D01*
X47538095Y-40732438D02*
X47585714Y-40780057D01*
X47585714Y-40780057D02*
X47633333Y-40875295D01*
X47633333Y-40875295D02*
X47633333Y-41018152D01*
X47633333Y-41018152D02*
X47585714Y-41113390D01*
X47585714Y-41113390D02*
X47538095Y-41161009D01*
X47538095Y-41161009D02*
X47442857Y-41208628D01*
X47442857Y-41208628D02*
X47061905Y-41208628D01*
X48585714Y-41684819D02*
X48014286Y-41684819D01*
X48300000Y-41684819D02*
X48300000Y-40684819D01*
X48300000Y-40684819D02*
X48204762Y-40827676D01*
X48204762Y-40827676D02*
X48109524Y-40922914D01*
X48109524Y-40922914D02*
X48014286Y-40970533D01*
X54716666Y-39104819D02*
X54716666Y-39819104D01*
X54716666Y-39819104D02*
X54669047Y-39961961D01*
X54669047Y-39961961D02*
X54573809Y-40057200D01*
X54573809Y-40057200D02*
X54430952Y-40104819D01*
X54430952Y-40104819D02*
X54335714Y-40104819D01*
X55716666Y-40104819D02*
X55145238Y-40104819D01*
X55430952Y-40104819D02*
X55430952Y-39104819D01*
X55430952Y-39104819D02*
X55335714Y-39247676D01*
X55335714Y-39247676D02*
X55240476Y-39342914D01*
X55240476Y-39342914D02*
X55145238Y-39390533D01*
D11*
X61572936Y-40310000D02*
X63027064Y-40310000D01*
X61572936Y-38490000D02*
X63027064Y-38490000D01*
X59160000Y-42760000D02*
X59160000Y-40540000D01*
X53050000Y-42760000D02*
X59160000Y-42760000D01*
X53050000Y-42760000D02*
X53050000Y-40540000D01*
X53050000Y-40540000D02*
X59160000Y-40540000D01*
X52050000Y-42760000D02*
X50940000Y-42760000D01*
X50940000Y-42760000D02*
X50940000Y-41650000D01*
X48527064Y-40310000D02*
X47072936Y-40310000D01*
X48527064Y-38490000D02*
X47072936Y-38490000D01*
%LPC*%
D12*
X63850000Y-39400000D03*
X60750000Y-39400000D03*
D13*
X63550000Y-32150000D03*
X46550000Y-32150000D03*
D14*
X58050000Y-41650000D03*
X56050000Y-41650000D03*
X54050000Y-41650000D03*
D15*
X52050000Y-41650000D03*
D16*
X46250000Y-39400000D03*
X49350000Y-39400000D03*
D17*
X49455000Y-31920000D03*
X49475000Y-36520000D03*
X60625000Y-36520000D03*
X60645000Y-31920000D03*
D18*
X58250000Y-37800000D03*
X57500000Y-37800000D03*
D19*
X56800000Y-37800000D03*
X55800000Y-37800000D03*
X54300000Y-37800000D03*
X53300000Y-37800000D03*
D18*
X52600000Y-37800000D03*
X51850000Y-37800000D03*
X51850000Y-37800000D03*
X52600000Y-37800000D03*
D19*
X53800000Y-37800000D03*
X54800000Y-37800000D03*
X55300000Y-37800000D03*
X56300000Y-37800000D03*
D18*
X57500000Y-37800000D03*
X58250000Y-37800000D03*
D20*
X51300000Y-36600000D03*
X58800000Y-36600000D03*
%LPD*%
M02*
