%TF.GenerationSoftware,KiCad,Pcbnew,9.0.4*%
%TF.CreationDate,2025-11-11T20:58:23+08:00*%
%TF.ProjectId,Custom Mechanical Keyboard,43757374-6f6d-4204-9d65-6368616e6963,rev?*%
%TF.SameCoordinates,Original*%
%TF.FileFunction,Drillmap*%
%TF.FilePolarity,Positive*%
%FSLAX45Y45*%
G04 Gerber Fmt 4.5, Leading zero omitted, Abs format (unit mm)*
G04 Created by KiCad (PCBNEW 9.0.4) date 2025-11-11 20:58:23*
%MOMM*%
%LPD*%
G01*
G04 APERTURE LIST*
%ADD10C,0.100000*%
%ADD11C,0.200000*%
G04 APERTURE END LIST*
D10*
X4605000Y-4315000D02*
G75*
G02*
X4455000Y-4165000I0J150000D01*
G01*
X4605000Y-3015000D02*
X6405000Y-3015000D01*
X6405000Y-4315000D02*
X4605000Y-4315000D01*
X6405000Y-3015000D02*
G75*
G02*
X6555000Y-3165000I0J-150000D01*
G01*
X6555000Y-4165000D02*
G75*
G02*
X6405000Y-4315000I-150000J0D01*
G01*
X6555000Y-3165000D02*
X6555000Y-4165000D01*
X4455000Y-3165000D02*
G75*
G02*
X4605000Y-3015000I150000J0D01*
G01*
X4455000Y-4165000D02*
X4455000Y-3165000D01*
D11*
D10*
X5183500Y-3526500D02*
X5248500Y-3591500D01*
X5248500Y-3526500D02*
X5183500Y-3591500D01*
X5761500Y-3526500D02*
X5826500Y-3591500D01*
X5826500Y-3526500D02*
X5761500Y-3591500D01*
D11*
X4710777Y-4631484D02*
X4710777Y-4431484D01*
X4710777Y-4431484D02*
X4758396Y-4431484D01*
X4758396Y-4431484D02*
X4786967Y-4441008D01*
X4786967Y-4441008D02*
X4806015Y-4460055D01*
X4806015Y-4460055D02*
X4815539Y-4479103D01*
X4815539Y-4479103D02*
X4825063Y-4517198D01*
X4825063Y-4517198D02*
X4825063Y-4545770D01*
X4825063Y-4545770D02*
X4815539Y-4583865D01*
X4815539Y-4583865D02*
X4806015Y-4602912D01*
X4806015Y-4602912D02*
X4786967Y-4621960D01*
X4786967Y-4621960D02*
X4758396Y-4631484D01*
X4758396Y-4631484D02*
X4710777Y-4631484D01*
X4910777Y-4631484D02*
X4910777Y-4498150D01*
X4910777Y-4536246D02*
X4920301Y-4517198D01*
X4920301Y-4517198D02*
X4929824Y-4507674D01*
X4929824Y-4507674D02*
X4948872Y-4498150D01*
X4948872Y-4498150D02*
X4967920Y-4498150D01*
X5034586Y-4631484D02*
X5034586Y-4498150D01*
X5034586Y-4431484D02*
X5025063Y-4441008D01*
X5025063Y-4441008D02*
X5034586Y-4450531D01*
X5034586Y-4450531D02*
X5044110Y-4441008D01*
X5044110Y-4441008D02*
X5034586Y-4431484D01*
X5034586Y-4431484D02*
X5034586Y-4450531D01*
X5158396Y-4631484D02*
X5139348Y-4621960D01*
X5139348Y-4621960D02*
X5129824Y-4602912D01*
X5129824Y-4602912D02*
X5129824Y-4431484D01*
X5263158Y-4631484D02*
X5244110Y-4621960D01*
X5244110Y-4621960D02*
X5234586Y-4602912D01*
X5234586Y-4602912D02*
X5234586Y-4431484D01*
X5491729Y-4631484D02*
X5491729Y-4431484D01*
X5491729Y-4431484D02*
X5558396Y-4574341D01*
X5558396Y-4574341D02*
X5625062Y-4431484D01*
X5625062Y-4431484D02*
X5625062Y-4631484D01*
X5806015Y-4631484D02*
X5806015Y-4526722D01*
X5806015Y-4526722D02*
X5796491Y-4507674D01*
X5796491Y-4507674D02*
X5777443Y-4498150D01*
X5777443Y-4498150D02*
X5739348Y-4498150D01*
X5739348Y-4498150D02*
X5720301Y-4507674D01*
X5806015Y-4621960D02*
X5786967Y-4631484D01*
X5786967Y-4631484D02*
X5739348Y-4631484D01*
X5739348Y-4631484D02*
X5720301Y-4621960D01*
X5720301Y-4621960D02*
X5710777Y-4602912D01*
X5710777Y-4602912D02*
X5710777Y-4583865D01*
X5710777Y-4583865D02*
X5720301Y-4564817D01*
X5720301Y-4564817D02*
X5739348Y-4555293D01*
X5739348Y-4555293D02*
X5786967Y-4555293D01*
X5786967Y-4555293D02*
X5806015Y-4545770D01*
X5901253Y-4498150D02*
X5901253Y-4698150D01*
X5901253Y-4507674D02*
X5920301Y-4498150D01*
X5920301Y-4498150D02*
X5958396Y-4498150D01*
X5958396Y-4498150D02*
X5977443Y-4507674D01*
X5977443Y-4507674D02*
X5986967Y-4517198D01*
X5986967Y-4517198D02*
X5996491Y-4536246D01*
X5996491Y-4536246D02*
X5996491Y-4593389D01*
X5996491Y-4593389D02*
X5986967Y-4612436D01*
X5986967Y-4612436D02*
X5977443Y-4621960D01*
X5977443Y-4621960D02*
X5958396Y-4631484D01*
X5958396Y-4631484D02*
X5920301Y-4631484D01*
X5920301Y-4631484D02*
X5901253Y-4621960D01*
X6082205Y-4612436D02*
X6091729Y-4621960D01*
X6091729Y-4621960D02*
X6082205Y-4631484D01*
X6082205Y-4631484D02*
X6072682Y-4621960D01*
X6072682Y-4621960D02*
X6082205Y-4612436D01*
X6082205Y-4612436D02*
X6082205Y-4631484D01*
X6082205Y-4507674D02*
X6091729Y-4517198D01*
X6091729Y-4517198D02*
X6082205Y-4526722D01*
X6082205Y-4526722D02*
X6072682Y-4517198D01*
X6072682Y-4517198D02*
X6082205Y-4507674D01*
X6082205Y-4507674D02*
X6082205Y-4526722D01*
D10*
X4385000Y-4927500D02*
X4450000Y-4992500D01*
X4450000Y-4927500D02*
X4385000Y-4992500D01*
D11*
X4748872Y-4851484D02*
X4767920Y-4851484D01*
X4767920Y-4851484D02*
X4786967Y-4861008D01*
X4786967Y-4861008D02*
X4796491Y-4870531D01*
X4796491Y-4870531D02*
X4806015Y-4889579D01*
X4806015Y-4889579D02*
X4815539Y-4927674D01*
X4815539Y-4927674D02*
X4815539Y-4975293D01*
X4815539Y-4975293D02*
X4806015Y-5013389D01*
X4806015Y-5013389D02*
X4796491Y-5032436D01*
X4796491Y-5032436D02*
X4786967Y-5041960D01*
X4786967Y-5041960D02*
X4767920Y-5051484D01*
X4767920Y-5051484D02*
X4748872Y-5051484D01*
X4748872Y-5051484D02*
X4729824Y-5041960D01*
X4729824Y-5041960D02*
X4720301Y-5032436D01*
X4720301Y-5032436D02*
X4710777Y-5013389D01*
X4710777Y-5013389D02*
X4701253Y-4975293D01*
X4701253Y-4975293D02*
X4701253Y-4927674D01*
X4701253Y-4927674D02*
X4710777Y-4889579D01*
X4710777Y-4889579D02*
X4720301Y-4870531D01*
X4720301Y-4870531D02*
X4729824Y-4861008D01*
X4729824Y-4861008D02*
X4748872Y-4851484D01*
X4901253Y-5032436D02*
X4910777Y-5041960D01*
X4910777Y-5041960D02*
X4901253Y-5051484D01*
X4901253Y-5051484D02*
X4891729Y-5041960D01*
X4891729Y-5041960D02*
X4901253Y-5032436D01*
X4901253Y-5032436D02*
X4901253Y-5051484D01*
X5082205Y-4851484D02*
X5044110Y-4851484D01*
X5044110Y-4851484D02*
X5025063Y-4861008D01*
X5025063Y-4861008D02*
X5015539Y-4870531D01*
X5015539Y-4870531D02*
X4996491Y-4899103D01*
X4996491Y-4899103D02*
X4986967Y-4937198D01*
X4986967Y-4937198D02*
X4986967Y-5013389D01*
X4986967Y-5013389D02*
X4996491Y-5032436D01*
X4996491Y-5032436D02*
X5006015Y-5041960D01*
X5006015Y-5041960D02*
X5025063Y-5051484D01*
X5025063Y-5051484D02*
X5063158Y-5051484D01*
X5063158Y-5051484D02*
X5082205Y-5041960D01*
X5082205Y-5041960D02*
X5091729Y-5032436D01*
X5091729Y-5032436D02*
X5101253Y-5013389D01*
X5101253Y-5013389D02*
X5101253Y-4965770D01*
X5101253Y-4965770D02*
X5091729Y-4946722D01*
X5091729Y-4946722D02*
X5082205Y-4937198D01*
X5082205Y-4937198D02*
X5063158Y-4927674D01*
X5063158Y-4927674D02*
X5025063Y-4927674D01*
X5025063Y-4927674D02*
X5006015Y-4937198D01*
X5006015Y-4937198D02*
X4996491Y-4946722D01*
X4996491Y-4946722D02*
X4986967Y-4965770D01*
X5282205Y-4851484D02*
X5186967Y-4851484D01*
X5186967Y-4851484D02*
X5177444Y-4946722D01*
X5177444Y-4946722D02*
X5186967Y-4937198D01*
X5186967Y-4937198D02*
X5206015Y-4927674D01*
X5206015Y-4927674D02*
X5253634Y-4927674D01*
X5253634Y-4927674D02*
X5272682Y-4937198D01*
X5272682Y-4937198D02*
X5282205Y-4946722D01*
X5282205Y-4946722D02*
X5291729Y-4965770D01*
X5291729Y-4965770D02*
X5291729Y-5013389D01*
X5291729Y-5013389D02*
X5282205Y-5032436D01*
X5282205Y-5032436D02*
X5272682Y-5041960D01*
X5272682Y-5041960D02*
X5253634Y-5051484D01*
X5253634Y-5051484D02*
X5206015Y-5051484D01*
X5206015Y-5051484D02*
X5186967Y-5041960D01*
X5186967Y-5041960D02*
X5177444Y-5032436D01*
X5415539Y-4851484D02*
X5434586Y-4851484D01*
X5434586Y-4851484D02*
X5453634Y-4861008D01*
X5453634Y-4861008D02*
X5463158Y-4870531D01*
X5463158Y-4870531D02*
X5472682Y-4889579D01*
X5472682Y-4889579D02*
X5482205Y-4927674D01*
X5482205Y-4927674D02*
X5482205Y-4975293D01*
X5482205Y-4975293D02*
X5472682Y-5013389D01*
X5472682Y-5013389D02*
X5463158Y-5032436D01*
X5463158Y-5032436D02*
X5453634Y-5041960D01*
X5453634Y-5041960D02*
X5434586Y-5051484D01*
X5434586Y-5051484D02*
X5415539Y-5051484D01*
X5415539Y-5051484D02*
X5396491Y-5041960D01*
X5396491Y-5041960D02*
X5386967Y-5032436D01*
X5386967Y-5032436D02*
X5377444Y-5013389D01*
X5377444Y-5013389D02*
X5367920Y-4975293D01*
X5367920Y-4975293D02*
X5367920Y-4927674D01*
X5367920Y-4927674D02*
X5377444Y-4889579D01*
X5377444Y-4889579D02*
X5386967Y-4870531D01*
X5386967Y-4870531D02*
X5396491Y-4861008D01*
X5396491Y-4861008D02*
X5415539Y-4851484D01*
X5567920Y-5051484D02*
X5567920Y-4918150D01*
X5567920Y-4937198D02*
X5577444Y-4927674D01*
X5577444Y-4927674D02*
X5596491Y-4918150D01*
X5596491Y-4918150D02*
X5625063Y-4918150D01*
X5625063Y-4918150D02*
X5644110Y-4927674D01*
X5644110Y-4927674D02*
X5653634Y-4946722D01*
X5653634Y-4946722D02*
X5653634Y-5051484D01*
X5653634Y-4946722D02*
X5663158Y-4927674D01*
X5663158Y-4927674D02*
X5682205Y-4918150D01*
X5682205Y-4918150D02*
X5710777Y-4918150D01*
X5710777Y-4918150D02*
X5729824Y-4927674D01*
X5729824Y-4927674D02*
X5739348Y-4946722D01*
X5739348Y-4946722D02*
X5739348Y-5051484D01*
X5834586Y-5051484D02*
X5834586Y-4918150D01*
X5834586Y-4937198D02*
X5844110Y-4927674D01*
X5844110Y-4927674D02*
X5863158Y-4918150D01*
X5863158Y-4918150D02*
X5891729Y-4918150D01*
X5891729Y-4918150D02*
X5910777Y-4927674D01*
X5910777Y-4927674D02*
X5920301Y-4946722D01*
X5920301Y-4946722D02*
X5920301Y-5051484D01*
X5920301Y-4946722D02*
X5929824Y-4927674D01*
X5929824Y-4927674D02*
X5948872Y-4918150D01*
X5948872Y-4918150D02*
X5977443Y-4918150D01*
X5977443Y-4918150D02*
X5996491Y-4927674D01*
X5996491Y-4927674D02*
X6006015Y-4946722D01*
X6006015Y-4946722D02*
X6006015Y-5051484D01*
X6396491Y-4841960D02*
X6225063Y-5099103D01*
X6653634Y-4851484D02*
X6672682Y-4851484D01*
X6672682Y-4851484D02*
X6691729Y-4861008D01*
X6691729Y-4861008D02*
X6701253Y-4870531D01*
X6701253Y-4870531D02*
X6710777Y-4889579D01*
X6710777Y-4889579D02*
X6720301Y-4927674D01*
X6720301Y-4927674D02*
X6720301Y-4975293D01*
X6720301Y-4975293D02*
X6710777Y-5013389D01*
X6710777Y-5013389D02*
X6701253Y-5032436D01*
X6701253Y-5032436D02*
X6691729Y-5041960D01*
X6691729Y-5041960D02*
X6672682Y-5051484D01*
X6672682Y-5051484D02*
X6653634Y-5051484D01*
X6653634Y-5051484D02*
X6634586Y-5041960D01*
X6634586Y-5041960D02*
X6625063Y-5032436D01*
X6625063Y-5032436D02*
X6615539Y-5013389D01*
X6615539Y-5013389D02*
X6606015Y-4975293D01*
X6606015Y-4975293D02*
X6606015Y-4927674D01*
X6606015Y-4927674D02*
X6615539Y-4889579D01*
X6615539Y-4889579D02*
X6625063Y-4870531D01*
X6625063Y-4870531D02*
X6634586Y-4861008D01*
X6634586Y-4861008D02*
X6653634Y-4851484D01*
X6806015Y-5032436D02*
X6815539Y-5041960D01*
X6815539Y-5041960D02*
X6806015Y-5051484D01*
X6806015Y-5051484D02*
X6796491Y-5041960D01*
X6796491Y-5041960D02*
X6806015Y-5032436D01*
X6806015Y-5032436D02*
X6806015Y-5051484D01*
X6939348Y-4851484D02*
X6958396Y-4851484D01*
X6958396Y-4851484D02*
X6977444Y-4861008D01*
X6977444Y-4861008D02*
X6986967Y-4870531D01*
X6986967Y-4870531D02*
X6996491Y-4889579D01*
X6996491Y-4889579D02*
X7006015Y-4927674D01*
X7006015Y-4927674D02*
X7006015Y-4975293D01*
X7006015Y-4975293D02*
X6996491Y-5013389D01*
X6996491Y-5013389D02*
X6986967Y-5032436D01*
X6986967Y-5032436D02*
X6977444Y-5041960D01*
X6977444Y-5041960D02*
X6958396Y-5051484D01*
X6958396Y-5051484D02*
X6939348Y-5051484D01*
X6939348Y-5051484D02*
X6920301Y-5041960D01*
X6920301Y-5041960D02*
X6910777Y-5032436D01*
X6910777Y-5032436D02*
X6901253Y-5013389D01*
X6901253Y-5013389D02*
X6891729Y-4975293D01*
X6891729Y-4975293D02*
X6891729Y-4927674D01*
X6891729Y-4927674D02*
X6901253Y-4889579D01*
X6901253Y-4889579D02*
X6910777Y-4870531D01*
X6910777Y-4870531D02*
X6920301Y-4861008D01*
X6920301Y-4861008D02*
X6939348Y-4851484D01*
X7082206Y-4870531D02*
X7091729Y-4861008D01*
X7091729Y-4861008D02*
X7110777Y-4851484D01*
X7110777Y-4851484D02*
X7158396Y-4851484D01*
X7158396Y-4851484D02*
X7177444Y-4861008D01*
X7177444Y-4861008D02*
X7186967Y-4870531D01*
X7186967Y-4870531D02*
X7196491Y-4889579D01*
X7196491Y-4889579D02*
X7196491Y-4908627D01*
X7196491Y-4908627D02*
X7186967Y-4937198D01*
X7186967Y-4937198D02*
X7072682Y-5051484D01*
X7072682Y-5051484D02*
X7196491Y-5051484D01*
X7377444Y-4851484D02*
X7282206Y-4851484D01*
X7282206Y-4851484D02*
X7272682Y-4946722D01*
X7272682Y-4946722D02*
X7282206Y-4937198D01*
X7282206Y-4937198D02*
X7301253Y-4927674D01*
X7301253Y-4927674D02*
X7348872Y-4927674D01*
X7348872Y-4927674D02*
X7367920Y-4937198D01*
X7367920Y-4937198D02*
X7377444Y-4946722D01*
X7377444Y-4946722D02*
X7386967Y-4965770D01*
X7386967Y-4965770D02*
X7386967Y-5013389D01*
X7386967Y-5013389D02*
X7377444Y-5032436D01*
X7377444Y-5032436D02*
X7367920Y-5041960D01*
X7367920Y-5041960D02*
X7348872Y-5051484D01*
X7348872Y-5051484D02*
X7301253Y-5051484D01*
X7301253Y-5051484D02*
X7282206Y-5041960D01*
X7282206Y-5041960D02*
X7272682Y-5032436D01*
X7558396Y-4851484D02*
X7520301Y-4851484D01*
X7520301Y-4851484D02*
X7501253Y-4861008D01*
X7501253Y-4861008D02*
X7491729Y-4870531D01*
X7491729Y-4870531D02*
X7472682Y-4899103D01*
X7472682Y-4899103D02*
X7463158Y-4937198D01*
X7463158Y-4937198D02*
X7463158Y-5013389D01*
X7463158Y-5013389D02*
X7472682Y-5032436D01*
X7472682Y-5032436D02*
X7482206Y-5041960D01*
X7482206Y-5041960D02*
X7501253Y-5051484D01*
X7501253Y-5051484D02*
X7539348Y-5051484D01*
X7539348Y-5051484D02*
X7558396Y-5041960D01*
X7558396Y-5041960D02*
X7567920Y-5032436D01*
X7567920Y-5032436D02*
X7577444Y-5013389D01*
X7577444Y-5013389D02*
X7577444Y-4965770D01*
X7577444Y-4965770D02*
X7567920Y-4946722D01*
X7567920Y-4946722D02*
X7558396Y-4937198D01*
X7558396Y-4937198D02*
X7539348Y-4927674D01*
X7539348Y-4927674D02*
X7501253Y-4927674D01*
X7501253Y-4927674D02*
X7482206Y-4937198D01*
X7482206Y-4937198D02*
X7472682Y-4946722D01*
X7472682Y-4946722D02*
X7463158Y-4965770D01*
X7653634Y-4851484D02*
X7653634Y-4889579D01*
X7729825Y-4851484D02*
X7729825Y-4889579D01*
X8025063Y-5127674D02*
X8015539Y-5118150D01*
X8015539Y-5118150D02*
X7996491Y-5089579D01*
X7996491Y-5089579D02*
X7986968Y-5070531D01*
X7986968Y-5070531D02*
X7977444Y-5041960D01*
X7977444Y-5041960D02*
X7967920Y-4994341D01*
X7967920Y-4994341D02*
X7967920Y-4956246D01*
X7967920Y-4956246D02*
X7977444Y-4908627D01*
X7977444Y-4908627D02*
X7986968Y-4880055D01*
X7986968Y-4880055D02*
X7996491Y-4861008D01*
X7996491Y-4861008D02*
X8015539Y-4832436D01*
X8015539Y-4832436D02*
X8025063Y-4822912D01*
X8091729Y-4870531D02*
X8101253Y-4861008D01*
X8101253Y-4861008D02*
X8120301Y-4851484D01*
X8120301Y-4851484D02*
X8167920Y-4851484D01*
X8167920Y-4851484D02*
X8186968Y-4861008D01*
X8186968Y-4861008D02*
X8196491Y-4870531D01*
X8196491Y-4870531D02*
X8206015Y-4889579D01*
X8206015Y-4889579D02*
X8206015Y-4908627D01*
X8206015Y-4908627D02*
X8196491Y-4937198D01*
X8196491Y-4937198D02*
X8082206Y-5051484D01*
X8082206Y-5051484D02*
X8206015Y-5051484D01*
X8444111Y-5051484D02*
X8444111Y-4851484D01*
X8529825Y-5051484D02*
X8529825Y-4946722D01*
X8529825Y-4946722D02*
X8520301Y-4927674D01*
X8520301Y-4927674D02*
X8501253Y-4918150D01*
X8501253Y-4918150D02*
X8472682Y-4918150D01*
X8472682Y-4918150D02*
X8453634Y-4927674D01*
X8453634Y-4927674D02*
X8444111Y-4937198D01*
X8653634Y-5051484D02*
X8634587Y-5041960D01*
X8634587Y-5041960D02*
X8625063Y-5032436D01*
X8625063Y-5032436D02*
X8615539Y-5013389D01*
X8615539Y-5013389D02*
X8615539Y-4956246D01*
X8615539Y-4956246D02*
X8625063Y-4937198D01*
X8625063Y-4937198D02*
X8634587Y-4927674D01*
X8634587Y-4927674D02*
X8653634Y-4918150D01*
X8653634Y-4918150D02*
X8682206Y-4918150D01*
X8682206Y-4918150D02*
X8701253Y-4927674D01*
X8701253Y-4927674D02*
X8710777Y-4937198D01*
X8710777Y-4937198D02*
X8720301Y-4956246D01*
X8720301Y-4956246D02*
X8720301Y-5013389D01*
X8720301Y-5013389D02*
X8710777Y-5032436D01*
X8710777Y-5032436D02*
X8701253Y-5041960D01*
X8701253Y-5041960D02*
X8682206Y-5051484D01*
X8682206Y-5051484D02*
X8653634Y-5051484D01*
X8834587Y-5051484D02*
X8815539Y-5041960D01*
X8815539Y-5041960D02*
X8806015Y-5022912D01*
X8806015Y-5022912D02*
X8806015Y-4851484D01*
X8986968Y-5041960D02*
X8967920Y-5051484D01*
X8967920Y-5051484D02*
X8929825Y-5051484D01*
X8929825Y-5051484D02*
X8910777Y-5041960D01*
X8910777Y-5041960D02*
X8901253Y-5022912D01*
X8901253Y-5022912D02*
X8901253Y-4946722D01*
X8901253Y-4946722D02*
X8910777Y-4927674D01*
X8910777Y-4927674D02*
X8929825Y-4918150D01*
X8929825Y-4918150D02*
X8967920Y-4918150D01*
X8967920Y-4918150D02*
X8986968Y-4927674D01*
X8986968Y-4927674D02*
X8996492Y-4946722D01*
X8996492Y-4946722D02*
X8996492Y-4965770D01*
X8996492Y-4965770D02*
X8901253Y-4984817D01*
X9072682Y-5041960D02*
X9091730Y-5051484D01*
X9091730Y-5051484D02*
X9129825Y-5051484D01*
X9129825Y-5051484D02*
X9148873Y-5041960D01*
X9148873Y-5041960D02*
X9158396Y-5022912D01*
X9158396Y-5022912D02*
X9158396Y-5013389D01*
X9158396Y-5013389D02*
X9148873Y-4994341D01*
X9148873Y-4994341D02*
X9129825Y-4984817D01*
X9129825Y-4984817D02*
X9101253Y-4984817D01*
X9101253Y-4984817D02*
X9082206Y-4975293D01*
X9082206Y-4975293D02*
X9072682Y-4956246D01*
X9072682Y-4956246D02*
X9072682Y-4946722D01*
X9072682Y-4946722D02*
X9082206Y-4927674D01*
X9082206Y-4927674D02*
X9101253Y-4918150D01*
X9101253Y-4918150D02*
X9129825Y-4918150D01*
X9129825Y-4918150D02*
X9148873Y-4927674D01*
X9225063Y-5127674D02*
X9234587Y-5118150D01*
X9234587Y-5118150D02*
X9253634Y-5089579D01*
X9253634Y-5089579D02*
X9263158Y-5070531D01*
X9263158Y-5070531D02*
X9272682Y-5041960D01*
X9272682Y-5041960D02*
X9282206Y-4994341D01*
X9282206Y-4994341D02*
X9282206Y-4956246D01*
X9282206Y-4956246D02*
X9272682Y-4908627D01*
X9272682Y-4908627D02*
X9263158Y-4880055D01*
X9263158Y-4880055D02*
X9253634Y-4861008D01*
X9253634Y-4861008D02*
X9234587Y-4832436D01*
X9234587Y-4832436D02*
X9225063Y-4822912D01*
X9586968Y-5127674D02*
X9577444Y-5118150D01*
X9577444Y-5118150D02*
X9558396Y-5089579D01*
X9558396Y-5089579D02*
X9548873Y-5070531D01*
X9548873Y-5070531D02*
X9539349Y-5041960D01*
X9539349Y-5041960D02*
X9529825Y-4994341D01*
X9529825Y-4994341D02*
X9529825Y-4956246D01*
X9529825Y-4956246D02*
X9539349Y-4908627D01*
X9539349Y-4908627D02*
X9548873Y-4880055D01*
X9548873Y-4880055D02*
X9558396Y-4861008D01*
X9558396Y-4861008D02*
X9577444Y-4832436D01*
X9577444Y-4832436D02*
X9586968Y-4822912D01*
X9663158Y-4918150D02*
X9663158Y-5051484D01*
X9663158Y-4937198D02*
X9672682Y-4927674D01*
X9672682Y-4927674D02*
X9691730Y-4918150D01*
X9691730Y-4918150D02*
X9720301Y-4918150D01*
X9720301Y-4918150D02*
X9739349Y-4927674D01*
X9739349Y-4927674D02*
X9748873Y-4946722D01*
X9748873Y-4946722D02*
X9748873Y-5051484D01*
X9872682Y-5051484D02*
X9853634Y-5041960D01*
X9853634Y-5041960D02*
X9844111Y-5032436D01*
X9844111Y-5032436D02*
X9834587Y-5013389D01*
X9834587Y-5013389D02*
X9834587Y-4956246D01*
X9834587Y-4956246D02*
X9844111Y-4937198D01*
X9844111Y-4937198D02*
X9853634Y-4927674D01*
X9853634Y-4927674D02*
X9872682Y-4918150D01*
X9872682Y-4918150D02*
X9901254Y-4918150D01*
X9901254Y-4918150D02*
X9920301Y-4927674D01*
X9920301Y-4927674D02*
X9929825Y-4937198D01*
X9929825Y-4937198D02*
X9939349Y-4956246D01*
X9939349Y-4956246D02*
X9939349Y-5013389D01*
X9939349Y-5013389D02*
X9929825Y-5032436D01*
X9929825Y-5032436D02*
X9920301Y-5041960D01*
X9920301Y-5041960D02*
X9901254Y-5051484D01*
X9901254Y-5051484D02*
X9872682Y-5051484D01*
X9996492Y-4918150D02*
X10072682Y-4918150D01*
X10025063Y-4851484D02*
X10025063Y-5022912D01*
X10025063Y-5022912D02*
X10034587Y-5041960D01*
X10034587Y-5041960D02*
X10053634Y-5051484D01*
X10053634Y-5051484D02*
X10072682Y-5051484D01*
X10291730Y-4918150D02*
X10291730Y-5118150D01*
X10291730Y-4927674D02*
X10310777Y-4918150D01*
X10310777Y-4918150D02*
X10348873Y-4918150D01*
X10348873Y-4918150D02*
X10367920Y-4927674D01*
X10367920Y-4927674D02*
X10377444Y-4937198D01*
X10377444Y-4937198D02*
X10386968Y-4956246D01*
X10386968Y-4956246D02*
X10386968Y-5013389D01*
X10386968Y-5013389D02*
X10377444Y-5032436D01*
X10377444Y-5032436D02*
X10367920Y-5041960D01*
X10367920Y-5041960D02*
X10348873Y-5051484D01*
X10348873Y-5051484D02*
X10310777Y-5051484D01*
X10310777Y-5051484D02*
X10291730Y-5041960D01*
X10501254Y-5051484D02*
X10482206Y-5041960D01*
X10482206Y-5041960D02*
X10472682Y-5022912D01*
X10472682Y-5022912D02*
X10472682Y-4851484D01*
X10663158Y-5051484D02*
X10663158Y-4946722D01*
X10663158Y-4946722D02*
X10653635Y-4927674D01*
X10653635Y-4927674D02*
X10634587Y-4918150D01*
X10634587Y-4918150D02*
X10596492Y-4918150D01*
X10596492Y-4918150D02*
X10577444Y-4927674D01*
X10663158Y-5041960D02*
X10644111Y-5051484D01*
X10644111Y-5051484D02*
X10596492Y-5051484D01*
X10596492Y-5051484D02*
X10577444Y-5041960D01*
X10577444Y-5041960D02*
X10567920Y-5022912D01*
X10567920Y-5022912D02*
X10567920Y-5003865D01*
X10567920Y-5003865D02*
X10577444Y-4984817D01*
X10577444Y-4984817D02*
X10596492Y-4975293D01*
X10596492Y-4975293D02*
X10644111Y-4975293D01*
X10644111Y-4975293D02*
X10663158Y-4965770D01*
X10729825Y-4918150D02*
X10806015Y-4918150D01*
X10758396Y-4851484D02*
X10758396Y-5022912D01*
X10758396Y-5022912D02*
X10767920Y-5041960D01*
X10767920Y-5041960D02*
X10786968Y-5051484D01*
X10786968Y-5051484D02*
X10806015Y-5051484D01*
X10948873Y-5041960D02*
X10929825Y-5051484D01*
X10929825Y-5051484D02*
X10891730Y-5051484D01*
X10891730Y-5051484D02*
X10872682Y-5041960D01*
X10872682Y-5041960D02*
X10863158Y-5022912D01*
X10863158Y-5022912D02*
X10863158Y-4946722D01*
X10863158Y-4946722D02*
X10872682Y-4927674D01*
X10872682Y-4927674D02*
X10891730Y-4918150D01*
X10891730Y-4918150D02*
X10929825Y-4918150D01*
X10929825Y-4918150D02*
X10948873Y-4927674D01*
X10948873Y-4927674D02*
X10958396Y-4946722D01*
X10958396Y-4946722D02*
X10958396Y-4965770D01*
X10958396Y-4965770D02*
X10863158Y-4984817D01*
X11129825Y-5051484D02*
X11129825Y-4851484D01*
X11129825Y-5041960D02*
X11110777Y-5051484D01*
X11110777Y-5051484D02*
X11072682Y-5051484D01*
X11072682Y-5051484D02*
X11053635Y-5041960D01*
X11053635Y-5041960D02*
X11044111Y-5032436D01*
X11044111Y-5032436D02*
X11034587Y-5013389D01*
X11034587Y-5013389D02*
X11034587Y-4956246D01*
X11034587Y-4956246D02*
X11044111Y-4937198D01*
X11044111Y-4937198D02*
X11053635Y-4927674D01*
X11053635Y-4927674D02*
X11072682Y-4918150D01*
X11072682Y-4918150D02*
X11110777Y-4918150D01*
X11110777Y-4918150D02*
X11129825Y-4927674D01*
X11206015Y-5127674D02*
X11215539Y-5118150D01*
X11215539Y-5118150D02*
X11234587Y-5089579D01*
X11234587Y-5089579D02*
X11244111Y-5070531D01*
X11244111Y-5070531D02*
X11253634Y-5041960D01*
X11253634Y-5041960D02*
X11263158Y-4994341D01*
X11263158Y-4994341D02*
X11263158Y-4956246D01*
X11263158Y-4956246D02*
X11253634Y-4908627D01*
X11253634Y-4908627D02*
X11244111Y-4880055D01*
X11244111Y-4880055D02*
X11234587Y-4861008D01*
X11234587Y-4861008D02*
X11215539Y-4832436D01*
X11215539Y-4832436D02*
X11206015Y-4822912D01*
M02*
