G04 #@! TF.GenerationSoftware,KiCad,Pcbnew,9.0.4*
G04 #@! TF.CreationDate,2025-10-25T11:56:59+08:00*
G04 #@! TF.ProjectId,Custom Mechanical Keyboard,43757374-6f6d-4204-9d65-6368616e6963,rev?*
G04 #@! TF.SameCoordinates,Original*
G04 #@! TF.FileFunction,Soldermask,Top*
G04 #@! TF.FilePolarity,Negative*
%FSLAX46Y46*%
G04 Gerber Fmt 4.6, Leading zero omitted, Abs format (unit mm)*
G04 Created by KiCad (PCBNEW 9.0.4) date 2025-10-25 11:56:59*
%MOMM*%
%LPD*%
G01*
G04 APERTURE LIST*
G04 Aperture macros list*
%AMRoundRect*
0 Rectangle with rounded corners*
0 $1 Rounding radius*
0 $2 $3 $4 $5 $6 $7 $8 $9 X,Y pos of 4 corners*
0 Add a 4 corners polygon primitive as box body*
4,1,4,$2,$3,$4,$5,$6,$7,$8,$9,$2,$3,0*
0 Add four circle primitives for the rounded corners*
1,1,$1+$1,$2,$3*
1,1,$1+$1,$4,$5*
1,1,$1+$1,$6,$7*
1,1,$1+$1,$8,$9*
0 Add four rect primitives between the rounded corners*
20,1,$1+$1,$2,$3,$4,$5,0*
20,1,$1+$1,$4,$5,$6,$7,0*
20,1,$1+$1,$6,$7,$8,$9,0*
20,1,$1+$1,$8,$9,$2,$3,0*%
%AMOutline5P*
0 Free polygon, 5 corners , with rotation*
0 The origin of the aperture is its center*
0 number of corners: always 5*
0 $1 to $10 corner X, Y*
0 $11 Rotation angle, in degrees counterclockwise*
0 create outline with 5 corners*
4,1,5,$1,$2,$3,$4,$5,$6,$7,$8,$9,$10,$1,$2,$11*%
%AMOutline6P*
0 Free polygon, 6 corners , with rotation*
0 The origin of the aperture is its center*
0 number of corners: always 6*
0 $1 to $12 corner X, Y*
0 $13 Rotation angle, in degrees counterclockwise*
0 create outline with 6 corners*
4,1,6,$1,$2,$3,$4,$5,$6,$7,$8,$9,$10,$11,$12,$1,$2,$13*%
%AMOutline7P*
0 Free polygon, 7 corners , with rotation*
0 The origin of the aperture is its center*
0 number of corners: always 7*
0 $1 to $14 corner X, Y*
0 $15 Rotation angle, in degrees counterclockwise*
0 create outline with 7 corners*
4,1,7,$1,$2,$3,$4,$5,$6,$7,$8,$9,$10,$11,$12,$13,$14,$1,$2,$15*%
%AMOutline8P*
0 Free polygon, 8 corners , with rotation*
0 The origin of the aperture is its center*
0 number of corners: always 8*
0 $1 to $16 corner X, Y*
0 $17 Rotation angle, in degrees counterclockwise*
0 create outline with 8 corners*
4,1,8,$1,$2,$3,$4,$5,$6,$7,$8,$9,$10,$11,$12,$13,$14,$15,$16,$1,$2,$17*%
G04 Aperture macros list end*
%ADD10C,5.000000*%
%ADD11C,1.400000*%
%ADD12C,3.000000*%
%ADD13RoundRect,0.250000X-0.450000X0.450000X-0.450000X-0.450000X0.450000X-0.450000X0.450000X0.450000X0*%
%ADD14R,2.000000X2.000000*%
%ADD15C,2.000000*%
%ADD16R,2.500000X3.000000*%
%ADD17C,1.000000*%
%ADD18C,3.500000*%
%ADD19RoundRect,0.150000X0.150000X-0.512500X0.150000X0.512500X-0.150000X0.512500X-0.150000X-0.512500X0*%
%ADD20RoundRect,0.075000X-0.600000X0.075000X-0.600000X-0.075000X0.600000X-0.075000X0.600000X0.075000X0*%
%ADD21RoundRect,0.300000X-0.950000X0.700000X-0.950000X-0.700000X0.950000X-0.700000X0.950000X0.700000X0*%
%ADD22R,1.350000X1.350000*%
%ADD23C,1.350000*%
%ADD24R,0.820000X1.500000*%
%ADD25Outline5P,-0.750000X0.410000X0.750000X0.410000X0.750000X0.000000X0.340000X-0.410000X-0.750000X-0.410000X90.000000*%
%ADD26R,1.700000X1.700000*%
%ADD27C,1.700000*%
%ADD28R,1.500000X1.500000*%
G04 APERTURE END LIST*
D10*
X238125000Y-95250000D03*
D11*
X243125000Y-90100000D03*
D10*
X361950000Y-95250000D03*
D11*
X366950000Y-90100000D03*
D12*
X352425000Y-57150000D03*
D10*
X328612500Y-114300000D03*
D11*
X333612500Y-109150000D03*
D10*
X161925000Y-95250000D03*
D11*
X166925000Y-90100000D03*
D13*
X49250000Y-70500000D03*
D11*
X49250000Y-73000000D03*
X49250000Y-75500000D03*
X45950000Y-75500000D03*
X45950000Y-73000000D03*
X45950000Y-70500000D03*
D14*
X52700000Y-64650000D03*
D15*
X57700000Y-64650000D03*
X55200000Y-64650000D03*
D16*
X49600000Y-57150000D03*
X60800000Y-57150000D03*
D15*
X52700000Y-50150000D03*
X57700000Y-50150000D03*
D10*
X295275000Y-95250000D03*
D11*
X300275000Y-90100000D03*
D10*
X266700000Y-76200000D03*
D11*
X271700000Y-71050000D03*
D12*
X323850000Y-95250000D03*
D10*
X209550000Y-133350000D03*
D11*
X214550000Y-128200000D03*
D10*
X219075000Y-114300000D03*
D11*
X224075000Y-109150000D03*
D17*
X49950000Y-147300000D03*
D12*
X266700000Y-114300000D03*
D10*
X180975000Y-114300000D03*
D11*
X185975000Y-109150000D03*
D17*
X49950000Y-144760000D03*
X49950707Y-139680000D03*
D10*
X285750000Y-76200000D03*
D11*
X290750000Y-71050000D03*
D10*
X142875000Y-95250000D03*
D11*
X147875000Y-90100000D03*
D10*
X228600000Y-76200000D03*
D11*
X233600000Y-71050000D03*
D10*
X190500000Y-76200000D03*
D11*
X195500000Y-71050000D03*
D18*
X257175000Y-133350000D03*
D10*
X276225000Y-95250000D03*
D11*
X281225000Y-90100000D03*
D10*
X257175000Y-114300000D03*
D11*
X262175000Y-109150000D03*
D10*
X254793750Y-152400000D03*
D11*
X259793750Y-147250000D03*
D12*
X238125000Y-152400000D03*
D10*
X338137500Y-95250000D03*
D11*
X343137500Y-90100000D03*
D10*
X152400000Y-133350000D03*
D11*
X157400000Y-128200000D03*
D17*
X49950707Y-142220000D03*
D10*
X228600000Y-57150000D03*
D11*
X233600000Y-52000000D03*
D10*
X104775000Y-114300000D03*
D11*
X109775000Y-109150000D03*
D10*
X114300000Y-76200000D03*
D11*
X119300000Y-71050000D03*
D10*
X266700000Y-133350000D03*
D11*
X271700000Y-128200000D03*
D19*
X48350000Y-105150000D03*
X49300000Y-105150000D03*
X50250000Y-105150000D03*
X50250000Y-102875000D03*
X49300000Y-102875000D03*
X48350000Y-102875000D03*
D10*
X200025000Y-114300000D03*
D11*
X205025000Y-109150000D03*
D17*
X59400000Y-132600000D03*
D12*
X46550000Y-66000000D03*
D10*
X342900000Y-133350000D03*
D11*
X347900000Y-128200000D03*
D10*
X102393750Y-152400000D03*
D11*
X107393750Y-147250000D03*
D12*
X152400000Y-95250000D03*
D20*
X60750000Y-90750000D03*
X60750000Y-91250000D03*
X60750000Y-91750000D03*
X60750000Y-92250000D03*
X60750000Y-92750000D03*
X60750000Y-93250000D03*
X60750000Y-93750000D03*
X60750000Y-94250000D03*
X60750000Y-94750000D03*
X60750000Y-95250000D03*
X60750000Y-95750000D03*
X60750000Y-96250000D03*
X60750000Y-96750000D03*
X60750000Y-97250000D03*
X60750000Y-97750000D03*
X60750000Y-98250000D03*
X60750000Y-98750000D03*
X60750000Y-99250000D03*
X60750000Y-99750000D03*
X60750000Y-100250000D03*
D21*
X58375000Y-89060000D03*
X58375000Y-101940000D03*
D20*
X71500000Y-90750000D03*
X71500000Y-91250000D03*
X71500000Y-91750000D03*
X71500000Y-92250000D03*
X71500000Y-92750000D03*
X71500000Y-93250000D03*
X71500000Y-93750000D03*
X71500000Y-94250000D03*
X71500000Y-94750000D03*
X71500000Y-95250000D03*
X71500000Y-95750000D03*
X71500000Y-96250000D03*
X71500000Y-96750000D03*
X71500000Y-97250000D03*
X71500000Y-97750000D03*
X71500000Y-98250000D03*
X71500000Y-98750000D03*
X71500000Y-99250000D03*
X71500000Y-99750000D03*
X71500000Y-100250000D03*
D21*
X69125000Y-89060000D03*
X69125000Y-101940000D03*
D12*
X209550000Y-114300000D03*
X46550000Y-49350000D03*
D10*
X152400000Y-76200000D03*
D11*
X157400000Y-71050000D03*
D10*
X180975000Y-95250000D03*
D11*
X185975000Y-90100000D03*
D10*
X123825000Y-95250000D03*
D11*
X128825000Y-90100000D03*
D10*
X76200000Y-57150000D03*
D11*
X81200000Y-52000000D03*
D10*
X314325000Y-133350000D03*
D11*
X319325000Y-128200000D03*
D12*
X142875000Y-152400000D03*
D18*
X104775000Y-76200000D03*
D22*
X47200000Y-84150000D03*
D23*
X49200000Y-84150000D03*
X51200000Y-84150000D03*
X53200000Y-84150000D03*
X55200000Y-84150000D03*
X57200000Y-84150000D03*
X59200000Y-84150000D03*
D10*
X361950000Y-57150000D03*
D11*
X366950000Y-52000000D03*
D10*
X161925000Y-114300000D03*
D11*
X166925000Y-109150000D03*
D12*
X180975000Y-57150000D03*
D10*
X314325000Y-95250000D03*
D11*
X319325000Y-90100000D03*
D12*
X352425000Y-152400000D03*
D18*
X180975000Y-76200000D03*
D10*
X76200000Y-76200000D03*
D11*
X81200000Y-71050000D03*
D10*
X304800000Y-76200000D03*
D11*
X309800000Y-71050000D03*
D10*
X333375000Y-76200000D03*
D11*
X338375000Y-71050000D03*
D10*
X361950000Y-114300000D03*
D11*
X366950000Y-109150000D03*
D12*
X55200000Y-139500000D03*
D10*
X361950000Y-76200000D03*
D11*
X366950000Y-71050000D03*
D10*
X133350000Y-57150000D03*
D11*
X138350000Y-52000000D03*
D10*
X209550000Y-57150000D03*
D11*
X214550000Y-52000000D03*
D18*
X257175000Y-76200000D03*
D12*
X209550000Y-95250000D03*
D10*
X78581250Y-152400000D03*
D11*
X83581250Y-147250000D03*
D12*
X55200000Y-124000000D03*
D10*
X342900000Y-57150000D03*
D11*
X347900000Y-52000000D03*
D10*
X247650000Y-57150000D03*
D11*
X252650000Y-52000000D03*
D10*
X190500000Y-57150000D03*
D11*
X195500000Y-52000000D03*
D10*
X95250000Y-76200000D03*
D11*
X100250000Y-71050000D03*
D10*
X80962500Y-114300000D03*
D11*
X85962500Y-109150000D03*
D10*
X104775000Y-95250000D03*
D11*
X109775000Y-90100000D03*
D10*
X133350000Y-76200000D03*
D11*
X138350000Y-71050000D03*
D10*
X247650000Y-133350000D03*
D11*
X252650000Y-128200000D03*
D10*
X114300000Y-133350000D03*
D11*
X119300000Y-128200000D03*
D22*
X50200000Y-154650000D03*
D23*
X52200000Y-154650000D03*
X54200000Y-154650000D03*
X56200000Y-154650000D03*
X58200000Y-154650000D03*
X60200000Y-154650000D03*
D10*
X295275000Y-114300000D03*
D11*
X300275000Y-109150000D03*
D10*
X342900000Y-152400000D03*
D11*
X347900000Y-147250000D03*
D10*
X200025000Y-95250000D03*
D11*
X205025000Y-90100000D03*
D10*
X80962500Y-95250000D03*
D11*
X85962500Y-90100000D03*
D12*
X266700000Y-95250000D03*
D10*
X304800000Y-57150000D03*
D11*
X309800000Y-52000000D03*
D12*
X292893750Y-152400000D03*
D10*
X152400000Y-57150000D03*
D11*
X157400000Y-52000000D03*
D10*
X171450000Y-76200000D03*
D11*
X176450000Y-71050000D03*
D12*
X95250000Y-114300000D03*
D10*
X123825000Y-114300000D03*
D11*
X128825000Y-109150000D03*
D10*
X238125000Y-114300000D03*
D11*
X243125000Y-109150000D03*
D10*
X361950000Y-152400000D03*
D11*
X366950000Y-147250000D03*
D18*
X180975000Y-133350000D03*
D10*
X209550000Y-76200000D03*
D11*
X214550000Y-71050000D03*
D10*
X285750000Y-133350000D03*
D11*
X290750000Y-128200000D03*
D10*
X266700000Y-57150000D03*
D11*
X271700000Y-52000000D03*
D10*
X171450000Y-57150000D03*
D11*
X176450000Y-52000000D03*
D18*
X333375000Y-133350000D03*
D10*
X126206250Y-152400000D03*
D11*
X131206250Y-147250000D03*
D10*
X285750000Y-57150000D03*
D11*
X290750000Y-52000000D03*
D10*
X190500000Y-152400000D03*
D11*
X195500000Y-147250000D03*
D10*
X114300000Y-57150000D03*
D11*
X119300000Y-52000000D03*
D10*
X323850000Y-57150000D03*
D11*
X328850000Y-52000000D03*
D12*
X88106250Y-152400000D03*
X63850000Y-66000000D03*
D10*
X142875000Y-114300000D03*
D11*
X147875000Y-109150000D03*
D10*
X278606250Y-152400000D03*
D11*
X283606250Y-147250000D03*
D18*
X104775000Y-133350000D03*
D10*
X171450000Y-133350000D03*
D11*
X176450000Y-128200000D03*
D12*
X309562500Y-114300000D03*
D10*
X323850000Y-152400000D03*
D11*
X328850000Y-147250000D03*
D10*
X219075000Y-95250000D03*
D11*
X224075000Y-90100000D03*
D10*
X190500000Y-133350000D03*
D11*
X195500000Y-128200000D03*
D10*
X361950000Y-133350000D03*
D11*
X366950000Y-128200000D03*
D17*
X62800000Y-109000000D03*
D12*
X257175000Y-57150000D03*
D10*
X95250000Y-57150000D03*
D11*
X100250000Y-52000000D03*
D10*
X276225000Y-114300000D03*
D11*
X281225000Y-109150000D03*
D12*
X152400000Y-114300000D03*
D10*
X247650000Y-76200000D03*
D11*
X252650000Y-71050000D03*
D10*
X257175000Y-95250000D03*
D11*
X262175000Y-90100000D03*
D12*
X63850000Y-49350000D03*
X85725000Y-57150000D03*
D10*
X302418750Y-152400000D03*
D11*
X307418750Y-147250000D03*
D12*
X95250000Y-95250000D03*
D24*
X69700000Y-116900000D03*
X71200000Y-116900000D03*
X69700000Y-111700000D03*
D25*
X71200000Y-111700000D03*
D10*
X133350000Y-133350000D03*
D11*
X138350000Y-128200000D03*
D18*
X314325000Y-76200000D03*
D10*
X85725000Y-133350000D03*
D11*
X90725000Y-128200000D03*
D10*
X228600000Y-133350000D03*
D11*
X233600000Y-128200000D03*
D22*
X53700000Y-73150000D03*
D23*
X55700000Y-73150000D03*
X57700000Y-73150000D03*
X59700000Y-73150000D03*
X61700000Y-73150000D03*
D26*
X47600000Y-160000000D03*
D27*
X47600000Y-157460000D03*
X47600000Y-154920000D03*
X47600000Y-152380000D03*
X47600000Y-149840000D03*
X47600000Y-147300000D03*
X47600000Y-144760000D03*
X47600000Y-142220000D03*
X47600000Y-139680000D03*
X47600000Y-137140000D03*
X47600000Y-134600000D03*
X47600000Y-132060000D03*
X47600000Y-129520000D03*
X47600000Y-126980000D03*
X47600000Y-124440000D03*
X47600000Y-121900000D03*
X47600000Y-119360000D03*
X47600000Y-116820000D03*
X47600000Y-114280000D03*
X47600000Y-111740000D03*
X62800000Y-111740000D03*
X62800000Y-114280000D03*
X62800000Y-116820000D03*
X62800000Y-119360000D03*
X62800000Y-121900000D03*
X62800000Y-124440000D03*
X62800000Y-126980000D03*
X62800000Y-129520000D03*
X62800000Y-132060000D03*
X62800000Y-134600000D03*
X62800000Y-137140000D03*
X62800000Y-139680000D03*
X62800000Y-142220000D03*
X62800000Y-144760000D03*
X62800000Y-147300000D03*
X62800000Y-149840000D03*
X62800000Y-152380000D03*
X62800000Y-154920000D03*
X62800000Y-157460000D03*
D26*
X62800000Y-160000000D03*
D28*
X51400000Y-115500000D03*
D27*
X53900000Y-115500000D03*
X56400000Y-115500000D03*
X59000000Y-115500000D03*
M02*
