G04 #@! TF.GenerationSoftware,KiCad,Pcbnew,9.0.4*
G04 #@! TF.CreationDate,2025-10-25T11:56:59+08:00*
G04 #@! TF.ProjectId,Custom Mechanical Keyboard,43757374-6f6d-4204-9d65-6368616e6963,rev?*
G04 #@! TF.SameCoordinates,Original*
G04 #@! TF.FileFunction,Other,Comment*
%FSLAX46Y46*%
G04 Gerber Fmt 4.6, Leading zero omitted, Abs format (unit mm)*
G04 Created by KiCad (PCBNEW 9.0.4) date 2025-10-25 11:56:59*
%MOMM*%
%LPD*%
G01*
G04 APERTURE LIST*
%ADD10C,0.800000*%
%ADD11C,0.300000*%
%ADD12C,0.150000*%
%ADD13C,0.100000*%
G04 APERTURE END LIST*
D10*
X66125000Y-45900000D02*
X66125000Y-162000000D01*
D11*
X62839286Y-43700828D02*
X63339286Y-45200828D01*
X63339286Y-45200828D02*
X63839286Y-43700828D01*
X64339285Y-44629400D02*
X65482143Y-44629400D01*
X67053571Y-45057971D02*
X66982143Y-45129400D01*
X66982143Y-45129400D02*
X66767857Y-45200828D01*
X66767857Y-45200828D02*
X66625000Y-45200828D01*
X66625000Y-45200828D02*
X66410714Y-45129400D01*
X66410714Y-45129400D02*
X66267857Y-44986542D01*
X66267857Y-44986542D02*
X66196428Y-44843685D01*
X66196428Y-44843685D02*
X66125000Y-44557971D01*
X66125000Y-44557971D02*
X66125000Y-44343685D01*
X66125000Y-44343685D02*
X66196428Y-44057971D01*
X66196428Y-44057971D02*
X66267857Y-43915114D01*
X66267857Y-43915114D02*
X66410714Y-43772257D01*
X66410714Y-43772257D02*
X66625000Y-43700828D01*
X66625000Y-43700828D02*
X66767857Y-43700828D01*
X66767857Y-43700828D02*
X66982143Y-43772257D01*
X66982143Y-43772257D02*
X67053571Y-43843685D01*
X68339286Y-44200828D02*
X68339286Y-45200828D01*
X67696428Y-44200828D02*
X67696428Y-44986542D01*
X67696428Y-44986542D02*
X67767857Y-45129400D01*
X67767857Y-45129400D02*
X67910714Y-45200828D01*
X67910714Y-45200828D02*
X68125000Y-45200828D01*
X68125000Y-45200828D02*
X68267857Y-45129400D01*
X68267857Y-45129400D02*
X68339286Y-45057971D01*
X68839286Y-44200828D02*
X69410714Y-44200828D01*
X69053571Y-43700828D02*
X69053571Y-44986542D01*
X69053571Y-44986542D02*
X69125000Y-45129400D01*
X69125000Y-45129400D02*
X69267857Y-45200828D01*
X69267857Y-45200828D02*
X69410714Y-45200828D01*
D12*
X184880952Y-144679200D02*
X185023809Y-144726819D01*
X185023809Y-144726819D02*
X185261904Y-144726819D01*
X185261904Y-144726819D02*
X185357142Y-144679200D01*
X185357142Y-144679200D02*
X185404761Y-144631580D01*
X185404761Y-144631580D02*
X185452380Y-144536342D01*
X185452380Y-144536342D02*
X185452380Y-144441104D01*
X185452380Y-144441104D02*
X185404761Y-144345866D01*
X185404761Y-144345866D02*
X185357142Y-144298247D01*
X185357142Y-144298247D02*
X185261904Y-144250628D01*
X185261904Y-144250628D02*
X185071428Y-144203009D01*
X185071428Y-144203009D02*
X184976190Y-144155390D01*
X184976190Y-144155390D02*
X184928571Y-144107771D01*
X184928571Y-144107771D02*
X184880952Y-144012533D01*
X184880952Y-144012533D02*
X184880952Y-143917295D01*
X184880952Y-143917295D02*
X184928571Y-143822057D01*
X184928571Y-143822057D02*
X184976190Y-143774438D01*
X184976190Y-143774438D02*
X185071428Y-143726819D01*
X185071428Y-143726819D02*
X185309523Y-143726819D01*
X185309523Y-143726819D02*
X185452380Y-143774438D01*
X185738095Y-143726819D02*
X186309523Y-143726819D01*
X186023809Y-144726819D02*
X186023809Y-143726819D01*
X186595238Y-144441104D02*
X187071428Y-144441104D01*
X186500000Y-144726819D02*
X186833333Y-143726819D01*
X186833333Y-143726819D02*
X187166666Y-144726819D01*
X187833333Y-144203009D02*
X187976190Y-144250628D01*
X187976190Y-144250628D02*
X188023809Y-144298247D01*
X188023809Y-144298247D02*
X188071428Y-144393485D01*
X188071428Y-144393485D02*
X188071428Y-144536342D01*
X188071428Y-144536342D02*
X188023809Y-144631580D01*
X188023809Y-144631580D02*
X187976190Y-144679200D01*
X187976190Y-144679200D02*
X187880952Y-144726819D01*
X187880952Y-144726819D02*
X187500000Y-144726819D01*
X187500000Y-144726819D02*
X187500000Y-143726819D01*
X187500000Y-143726819D02*
X187833333Y-143726819D01*
X187833333Y-143726819D02*
X187928571Y-143774438D01*
X187928571Y-143774438D02*
X187976190Y-143822057D01*
X187976190Y-143822057D02*
X188023809Y-143917295D01*
X188023809Y-143917295D02*
X188023809Y-144012533D01*
X188023809Y-144012533D02*
X187976190Y-144107771D01*
X187976190Y-144107771D02*
X187928571Y-144155390D01*
X187928571Y-144155390D02*
X187833333Y-144203009D01*
X187833333Y-144203009D02*
X187500000Y-144203009D01*
X188261905Y-144822057D02*
X189023809Y-144822057D01*
X189261905Y-144726819D02*
X189261905Y-143726819D01*
X189261905Y-143726819D02*
X189595238Y-144441104D01*
X189595238Y-144441104D02*
X189928571Y-143726819D01*
X189928571Y-143726819D02*
X189928571Y-144726819D01*
X190309524Y-143726819D02*
X190976190Y-144726819D01*
X190976190Y-143726819D02*
X190309524Y-144726819D01*
X191119048Y-144822057D02*
X191880952Y-144822057D01*
X192595238Y-144726819D02*
X192119048Y-144726819D01*
X192119048Y-144726819D02*
X192119048Y-143726819D01*
X192928572Y-144726819D02*
X192928572Y-143726819D01*
X192928572Y-143726819D02*
X193309524Y-143726819D01*
X193309524Y-143726819D02*
X193404762Y-143774438D01*
X193404762Y-143774438D02*
X193452381Y-143822057D01*
X193452381Y-143822057D02*
X193500000Y-143917295D01*
X193500000Y-143917295D02*
X193500000Y-144060152D01*
X193500000Y-144060152D02*
X193452381Y-144155390D01*
X193452381Y-144155390D02*
X193404762Y-144203009D01*
X193404762Y-144203009D02*
X193309524Y-144250628D01*
X193309524Y-144250628D02*
X192928572Y-144250628D01*
X193690477Y-144822057D02*
X194452381Y-144822057D01*
X195166667Y-143726819D02*
X194690477Y-143726819D01*
X194690477Y-143726819D02*
X194642858Y-144203009D01*
X194642858Y-144203009D02*
X194690477Y-144155390D01*
X194690477Y-144155390D02*
X194785715Y-144107771D01*
X194785715Y-144107771D02*
X195023810Y-144107771D01*
X195023810Y-144107771D02*
X195119048Y-144155390D01*
X195119048Y-144155390D02*
X195166667Y-144203009D01*
X195166667Y-144203009D02*
X195214286Y-144298247D01*
X195214286Y-144298247D02*
X195214286Y-144536342D01*
X195214286Y-144536342D02*
X195166667Y-144631580D01*
X195166667Y-144631580D02*
X195119048Y-144679200D01*
X195119048Y-144679200D02*
X195023810Y-144726819D01*
X195023810Y-144726819D02*
X194785715Y-144726819D01*
X194785715Y-144726819D02*
X194690477Y-144679200D01*
X194690477Y-144679200D02*
X194642858Y-144631580D01*
X196071429Y-144060152D02*
X196071429Y-144726819D01*
X195642858Y-144060152D02*
X195642858Y-144583961D01*
X195642858Y-144583961D02*
X195690477Y-144679200D01*
X195690477Y-144679200D02*
X195785715Y-144726819D01*
X195785715Y-144726819D02*
X195928572Y-144726819D01*
X195928572Y-144726819D02*
X196023810Y-144679200D01*
X196023810Y-144679200D02*
X196071429Y-144631580D01*
X53224295Y-99214285D02*
X53224295Y-99366666D01*
X53224295Y-99366666D02*
X53262390Y-99442857D01*
X53262390Y-99442857D02*
X53300485Y-99480952D01*
X53300485Y-99480952D02*
X53414771Y-99557142D01*
X53414771Y-99557142D02*
X53567152Y-99595238D01*
X53567152Y-99595238D02*
X53871914Y-99595238D01*
X53871914Y-99595238D02*
X53948104Y-99557142D01*
X53948104Y-99557142D02*
X53986200Y-99519047D01*
X53986200Y-99519047D02*
X54024295Y-99442857D01*
X54024295Y-99442857D02*
X54024295Y-99290476D01*
X54024295Y-99290476D02*
X53986200Y-99214285D01*
X53986200Y-99214285D02*
X53948104Y-99176190D01*
X53948104Y-99176190D02*
X53871914Y-99138095D01*
X53871914Y-99138095D02*
X53681438Y-99138095D01*
X53681438Y-99138095D02*
X53605247Y-99176190D01*
X53605247Y-99176190D02*
X53567152Y-99214285D01*
X53567152Y-99214285D02*
X53529057Y-99290476D01*
X53529057Y-99290476D02*
X53529057Y-99442857D01*
X53529057Y-99442857D02*
X53567152Y-99519047D01*
X53567152Y-99519047D02*
X53605247Y-99557142D01*
X53605247Y-99557142D02*
X53681438Y-99595238D01*
X54024295Y-98795237D02*
X53490961Y-98795237D01*
X53567152Y-98795237D02*
X53529057Y-98757142D01*
X53529057Y-98757142D02*
X53490961Y-98680952D01*
X53490961Y-98680952D02*
X53490961Y-98566666D01*
X53490961Y-98566666D02*
X53529057Y-98490475D01*
X53529057Y-98490475D02*
X53605247Y-98452380D01*
X53605247Y-98452380D02*
X54024295Y-98452380D01*
X53605247Y-98452380D02*
X53529057Y-98414285D01*
X53529057Y-98414285D02*
X53490961Y-98338094D01*
X53490961Y-98338094D02*
X53490961Y-98223809D01*
X53490961Y-98223809D02*
X53529057Y-98147618D01*
X53529057Y-98147618D02*
X53605247Y-98109523D01*
X53605247Y-98109523D02*
X54024295Y-98109523D01*
X54024295Y-97728570D02*
X53490961Y-97728570D01*
X53567152Y-97728570D02*
X53529057Y-97690475D01*
X53529057Y-97690475D02*
X53490961Y-97614285D01*
X53490961Y-97614285D02*
X53490961Y-97499999D01*
X53490961Y-97499999D02*
X53529057Y-97423808D01*
X53529057Y-97423808D02*
X53605247Y-97385713D01*
X53605247Y-97385713D02*
X54024295Y-97385713D01*
X53605247Y-97385713D02*
X53529057Y-97347618D01*
X53529057Y-97347618D02*
X53490961Y-97271427D01*
X53490961Y-97271427D02*
X53490961Y-97157142D01*
X53490961Y-97157142D02*
X53529057Y-97080951D01*
X53529057Y-97080951D02*
X53605247Y-97042856D01*
X53605247Y-97042856D02*
X54024295Y-97042856D01*
X53986200Y-96090475D02*
X54024295Y-96014284D01*
X54024295Y-96014284D02*
X54024295Y-95861903D01*
X54024295Y-95861903D02*
X53986200Y-95785713D01*
X53986200Y-95785713D02*
X53910009Y-95747617D01*
X53910009Y-95747617D02*
X53871914Y-95747617D01*
X53871914Y-95747617D02*
X53795723Y-95785713D01*
X53795723Y-95785713D02*
X53757628Y-95861903D01*
X53757628Y-95861903D02*
X53757628Y-95976189D01*
X53757628Y-95976189D02*
X53719533Y-96052379D01*
X53719533Y-96052379D02*
X53643342Y-96090475D01*
X53643342Y-96090475D02*
X53605247Y-96090475D01*
X53605247Y-96090475D02*
X53529057Y-96052379D01*
X53529057Y-96052379D02*
X53490961Y-95976189D01*
X53490961Y-95976189D02*
X53490961Y-95861903D01*
X53490961Y-95861903D02*
X53529057Y-95785713D01*
X53490961Y-95519046D02*
X53490961Y-95214284D01*
X53224295Y-95404760D02*
X53910009Y-95404760D01*
X53910009Y-95404760D02*
X53986200Y-95366665D01*
X53986200Y-95366665D02*
X54024295Y-95290475D01*
X54024295Y-95290475D02*
X54024295Y-95214284D01*
X54024295Y-94947617D02*
X53490961Y-94947617D01*
X53224295Y-94947617D02*
X53262390Y-94985713D01*
X53262390Y-94985713D02*
X53300485Y-94947617D01*
X53300485Y-94947617D02*
X53262390Y-94909522D01*
X53262390Y-94909522D02*
X53224295Y-94947617D01*
X53224295Y-94947617D02*
X53300485Y-94947617D01*
X53490961Y-94680951D02*
X53490961Y-94376189D01*
X54024295Y-94566665D02*
X53338580Y-94566665D01*
X53338580Y-94566665D02*
X53262390Y-94528570D01*
X53262390Y-94528570D02*
X53224295Y-94452380D01*
X53224295Y-94452380D02*
X53224295Y-94376189D01*
X53490961Y-94223808D02*
X53490961Y-93919046D01*
X54024295Y-94109522D02*
X53338580Y-94109522D01*
X53338580Y-94109522D02*
X53262390Y-94071427D01*
X53262390Y-94071427D02*
X53224295Y-93995237D01*
X53224295Y-93995237D02*
X53224295Y-93919046D01*
X53986200Y-93347617D02*
X54024295Y-93423808D01*
X54024295Y-93423808D02*
X54024295Y-93576189D01*
X54024295Y-93576189D02*
X53986200Y-93652379D01*
X53986200Y-93652379D02*
X53910009Y-93690475D01*
X53910009Y-93690475D02*
X53605247Y-93690475D01*
X53605247Y-93690475D02*
X53529057Y-93652379D01*
X53529057Y-93652379D02*
X53490961Y-93576189D01*
X53490961Y-93576189D02*
X53490961Y-93423808D01*
X53490961Y-93423808D02*
X53529057Y-93347617D01*
X53529057Y-93347617D02*
X53605247Y-93309522D01*
X53605247Y-93309522D02*
X53681438Y-93309522D01*
X53681438Y-93309522D02*
X53757628Y-93690475D01*
X53490961Y-92966665D02*
X54024295Y-92966665D01*
X53567152Y-92966665D02*
X53529057Y-92928570D01*
X53529057Y-92928570D02*
X53490961Y-92852380D01*
X53490961Y-92852380D02*
X53490961Y-92738094D01*
X53490961Y-92738094D02*
X53529057Y-92661903D01*
X53529057Y-92661903D02*
X53605247Y-92623808D01*
X53605247Y-92623808D02*
X54024295Y-92623808D01*
X53986200Y-91938093D02*
X54024295Y-92014284D01*
X54024295Y-92014284D02*
X54024295Y-92166665D01*
X54024295Y-92166665D02*
X53986200Y-92242855D01*
X53986200Y-92242855D02*
X53910009Y-92280951D01*
X53910009Y-92280951D02*
X53605247Y-92280951D01*
X53605247Y-92280951D02*
X53529057Y-92242855D01*
X53529057Y-92242855D02*
X53490961Y-92166665D01*
X53490961Y-92166665D02*
X53490961Y-92014284D01*
X53490961Y-92014284D02*
X53529057Y-91938093D01*
X53529057Y-91938093D02*
X53605247Y-91899998D01*
X53605247Y-91899998D02*
X53681438Y-91899998D01*
X53681438Y-91899998D02*
X53757628Y-92280951D01*
X54024295Y-91557141D02*
X53490961Y-91557141D01*
X53643342Y-91557141D02*
X53567152Y-91519046D01*
X53567152Y-91519046D02*
X53529057Y-91480951D01*
X53529057Y-91480951D02*
X53490961Y-91404760D01*
X53490961Y-91404760D02*
X53490961Y-91328570D01*
X58548104Y-100280953D02*
X58586200Y-100319049D01*
X58586200Y-100319049D02*
X58624295Y-100433334D01*
X58624295Y-100433334D02*
X58624295Y-100509525D01*
X58624295Y-100509525D02*
X58586200Y-100623811D01*
X58586200Y-100623811D02*
X58510009Y-100700001D01*
X58510009Y-100700001D02*
X58433819Y-100738096D01*
X58433819Y-100738096D02*
X58281438Y-100776192D01*
X58281438Y-100776192D02*
X58167152Y-100776192D01*
X58167152Y-100776192D02*
X58014771Y-100738096D01*
X58014771Y-100738096D02*
X57938580Y-100700001D01*
X57938580Y-100700001D02*
X57862390Y-100623811D01*
X57862390Y-100623811D02*
X57824295Y-100509525D01*
X57824295Y-100509525D02*
X57824295Y-100433334D01*
X57824295Y-100433334D02*
X57862390Y-100319049D01*
X57862390Y-100319049D02*
X57900485Y-100280953D01*
X58624295Y-99595239D02*
X58205247Y-99595239D01*
X58205247Y-99595239D02*
X58129057Y-99633334D01*
X58129057Y-99633334D02*
X58090961Y-99709525D01*
X58090961Y-99709525D02*
X58090961Y-99861906D01*
X58090961Y-99861906D02*
X58129057Y-99938096D01*
X58586200Y-99595239D02*
X58624295Y-99671430D01*
X58624295Y-99671430D02*
X58624295Y-99861906D01*
X58624295Y-99861906D02*
X58586200Y-99938096D01*
X58586200Y-99938096D02*
X58510009Y-99976192D01*
X58510009Y-99976192D02*
X58433819Y-99976192D01*
X58433819Y-99976192D02*
X58357628Y-99938096D01*
X58357628Y-99938096D02*
X58319533Y-99861906D01*
X58319533Y-99861906D02*
X58319533Y-99671430D01*
X58319533Y-99671430D02*
X58281438Y-99595239D01*
X58624295Y-99214286D02*
X57824295Y-99214286D01*
X58129057Y-99214286D02*
X58090961Y-99138096D01*
X58090961Y-99138096D02*
X58090961Y-98985715D01*
X58090961Y-98985715D02*
X58129057Y-98909524D01*
X58129057Y-98909524D02*
X58167152Y-98871429D01*
X58167152Y-98871429D02*
X58243342Y-98833334D01*
X58243342Y-98833334D02*
X58471914Y-98833334D01*
X58471914Y-98833334D02*
X58548104Y-98871429D01*
X58548104Y-98871429D02*
X58586200Y-98909524D01*
X58586200Y-98909524D02*
X58624295Y-98985715D01*
X58624295Y-98985715D02*
X58624295Y-99138096D01*
X58624295Y-99138096D02*
X58586200Y-99214286D01*
X58624295Y-98376191D02*
X58586200Y-98452381D01*
X58586200Y-98452381D02*
X58510009Y-98490476D01*
X58510009Y-98490476D02*
X57824295Y-98490476D01*
X58586200Y-97766666D02*
X58624295Y-97842857D01*
X58624295Y-97842857D02*
X58624295Y-97995238D01*
X58624295Y-97995238D02*
X58586200Y-98071428D01*
X58586200Y-98071428D02*
X58510009Y-98109524D01*
X58510009Y-98109524D02*
X58205247Y-98109524D01*
X58205247Y-98109524D02*
X58129057Y-98071428D01*
X58129057Y-98071428D02*
X58090961Y-97995238D01*
X58090961Y-97995238D02*
X58090961Y-97842857D01*
X58090961Y-97842857D02*
X58129057Y-97766666D01*
X58129057Y-97766666D02*
X58205247Y-97728571D01*
X58205247Y-97728571D02*
X58281438Y-97728571D01*
X58281438Y-97728571D02*
X58357628Y-98109524D01*
X58586200Y-96471428D02*
X58624295Y-96547619D01*
X58624295Y-96547619D02*
X58624295Y-96700000D01*
X58624295Y-96700000D02*
X58586200Y-96776190D01*
X58586200Y-96776190D02*
X58510009Y-96814286D01*
X58510009Y-96814286D02*
X58205247Y-96814286D01*
X58205247Y-96814286D02*
X58129057Y-96776190D01*
X58129057Y-96776190D02*
X58090961Y-96700000D01*
X58090961Y-96700000D02*
X58090961Y-96547619D01*
X58090961Y-96547619D02*
X58129057Y-96471428D01*
X58129057Y-96471428D02*
X58205247Y-96433333D01*
X58205247Y-96433333D02*
X58281438Y-96433333D01*
X58281438Y-96433333D02*
X58357628Y-96814286D01*
X58090961Y-96090476D02*
X58624295Y-96090476D01*
X58167152Y-96090476D02*
X58129057Y-96052381D01*
X58129057Y-96052381D02*
X58090961Y-95976191D01*
X58090961Y-95976191D02*
X58090961Y-95861905D01*
X58090961Y-95861905D02*
X58129057Y-95785714D01*
X58129057Y-95785714D02*
X58205247Y-95747619D01*
X58205247Y-95747619D02*
X58624295Y-95747619D01*
X58090961Y-95480952D02*
X58090961Y-95176190D01*
X57824295Y-95366666D02*
X58510009Y-95366666D01*
X58510009Y-95366666D02*
X58586200Y-95328571D01*
X58586200Y-95328571D02*
X58624295Y-95252381D01*
X58624295Y-95252381D02*
X58624295Y-95176190D01*
X58624295Y-94909523D02*
X58090961Y-94909523D01*
X58243342Y-94909523D02*
X58167152Y-94871428D01*
X58167152Y-94871428D02*
X58129057Y-94833333D01*
X58129057Y-94833333D02*
X58090961Y-94757142D01*
X58090961Y-94757142D02*
X58090961Y-94680952D01*
X58090961Y-94490476D02*
X58624295Y-94300000D01*
X58090961Y-94109523D02*
X58624295Y-94300000D01*
X58624295Y-94300000D02*
X58814771Y-94376190D01*
X58814771Y-94376190D02*
X58852866Y-94414285D01*
X58852866Y-94414285D02*
X58890961Y-94490476D01*
X58624295Y-92852380D02*
X57824295Y-92852380D01*
X58586200Y-92852380D02*
X58624295Y-92928571D01*
X58624295Y-92928571D02*
X58624295Y-93080952D01*
X58624295Y-93080952D02*
X58586200Y-93157142D01*
X58586200Y-93157142D02*
X58548104Y-93195237D01*
X58548104Y-93195237D02*
X58471914Y-93233333D01*
X58471914Y-93233333D02*
X58243342Y-93233333D01*
X58243342Y-93233333D02*
X58167152Y-93195237D01*
X58167152Y-93195237D02*
X58129057Y-93157142D01*
X58129057Y-93157142D02*
X58090961Y-93080952D01*
X58090961Y-93080952D02*
X58090961Y-92928571D01*
X58090961Y-92928571D02*
X58129057Y-92852380D01*
X58586200Y-92166665D02*
X58624295Y-92242856D01*
X58624295Y-92242856D02*
X58624295Y-92395237D01*
X58624295Y-92395237D02*
X58586200Y-92471427D01*
X58586200Y-92471427D02*
X58510009Y-92509523D01*
X58510009Y-92509523D02*
X58205247Y-92509523D01*
X58205247Y-92509523D02*
X58129057Y-92471427D01*
X58129057Y-92471427D02*
X58090961Y-92395237D01*
X58090961Y-92395237D02*
X58090961Y-92242856D01*
X58090961Y-92242856D02*
X58129057Y-92166665D01*
X58129057Y-92166665D02*
X58205247Y-92128570D01*
X58205247Y-92128570D02*
X58281438Y-92128570D01*
X58281438Y-92128570D02*
X58357628Y-92509523D01*
X58090961Y-91785713D02*
X58890961Y-91785713D01*
X58129057Y-91785713D02*
X58090961Y-91709523D01*
X58090961Y-91709523D02*
X58090961Y-91557142D01*
X58090961Y-91557142D02*
X58129057Y-91480951D01*
X58129057Y-91480951D02*
X58167152Y-91442856D01*
X58167152Y-91442856D02*
X58243342Y-91404761D01*
X58243342Y-91404761D02*
X58471914Y-91404761D01*
X58471914Y-91404761D02*
X58548104Y-91442856D01*
X58548104Y-91442856D02*
X58586200Y-91480951D01*
X58586200Y-91480951D02*
X58624295Y-91557142D01*
X58624295Y-91557142D02*
X58624295Y-91709523D01*
X58624295Y-91709523D02*
X58586200Y-91785713D01*
X58090961Y-91176189D02*
X58090961Y-90871427D01*
X57824295Y-91061903D02*
X58510009Y-91061903D01*
X58510009Y-91061903D02*
X58586200Y-91023808D01*
X58586200Y-91023808D02*
X58624295Y-90947618D01*
X58624295Y-90947618D02*
X58624295Y-90871427D01*
X58624295Y-90604760D02*
X57824295Y-90604760D01*
X58624295Y-90261903D02*
X58205247Y-90261903D01*
X58205247Y-90261903D02*
X58129057Y-90299998D01*
X58129057Y-90299998D02*
X58090961Y-90376189D01*
X58090961Y-90376189D02*
X58090961Y-90490475D01*
X58090961Y-90490475D02*
X58129057Y-90566665D01*
X58129057Y-90566665D02*
X58167152Y-90604760D01*
X51567152Y-99442857D02*
X51529057Y-99519047D01*
X51529057Y-99519047D02*
X51490961Y-99557142D01*
X51490961Y-99557142D02*
X51414771Y-99595238D01*
X51414771Y-99595238D02*
X51376676Y-99595238D01*
X51376676Y-99595238D02*
X51300485Y-99557142D01*
X51300485Y-99557142D02*
X51262390Y-99519047D01*
X51262390Y-99519047D02*
X51224295Y-99442857D01*
X51224295Y-99442857D02*
X51224295Y-99290476D01*
X51224295Y-99290476D02*
X51262390Y-99214285D01*
X51262390Y-99214285D02*
X51300485Y-99176190D01*
X51300485Y-99176190D02*
X51376676Y-99138095D01*
X51376676Y-99138095D02*
X51414771Y-99138095D01*
X51414771Y-99138095D02*
X51490961Y-99176190D01*
X51490961Y-99176190D02*
X51529057Y-99214285D01*
X51529057Y-99214285D02*
X51567152Y-99290476D01*
X51567152Y-99290476D02*
X51567152Y-99442857D01*
X51567152Y-99442857D02*
X51605247Y-99519047D01*
X51605247Y-99519047D02*
X51643342Y-99557142D01*
X51643342Y-99557142D02*
X51719533Y-99595238D01*
X51719533Y-99595238D02*
X51871914Y-99595238D01*
X51871914Y-99595238D02*
X51948104Y-99557142D01*
X51948104Y-99557142D02*
X51986200Y-99519047D01*
X51986200Y-99519047D02*
X52024295Y-99442857D01*
X52024295Y-99442857D02*
X52024295Y-99290476D01*
X52024295Y-99290476D02*
X51986200Y-99214285D01*
X51986200Y-99214285D02*
X51948104Y-99176190D01*
X51948104Y-99176190D02*
X51871914Y-99138095D01*
X51871914Y-99138095D02*
X51719533Y-99138095D01*
X51719533Y-99138095D02*
X51643342Y-99176190D01*
X51643342Y-99176190D02*
X51605247Y-99214285D01*
X51605247Y-99214285D02*
X51567152Y-99290476D01*
X52024295Y-98795237D02*
X51490961Y-98795237D01*
X51567152Y-98795237D02*
X51529057Y-98757142D01*
X51529057Y-98757142D02*
X51490961Y-98680952D01*
X51490961Y-98680952D02*
X51490961Y-98566666D01*
X51490961Y-98566666D02*
X51529057Y-98490475D01*
X51529057Y-98490475D02*
X51605247Y-98452380D01*
X51605247Y-98452380D02*
X52024295Y-98452380D01*
X51605247Y-98452380D02*
X51529057Y-98414285D01*
X51529057Y-98414285D02*
X51490961Y-98338094D01*
X51490961Y-98338094D02*
X51490961Y-98223809D01*
X51490961Y-98223809D02*
X51529057Y-98147618D01*
X51529057Y-98147618D02*
X51605247Y-98109523D01*
X51605247Y-98109523D02*
X52024295Y-98109523D01*
X52024295Y-97728570D02*
X51490961Y-97728570D01*
X51567152Y-97728570D02*
X51529057Y-97690475D01*
X51529057Y-97690475D02*
X51490961Y-97614285D01*
X51490961Y-97614285D02*
X51490961Y-97499999D01*
X51490961Y-97499999D02*
X51529057Y-97423808D01*
X51529057Y-97423808D02*
X51605247Y-97385713D01*
X51605247Y-97385713D02*
X52024295Y-97385713D01*
X51605247Y-97385713D02*
X51529057Y-97347618D01*
X51529057Y-97347618D02*
X51490961Y-97271427D01*
X51490961Y-97271427D02*
X51490961Y-97157142D01*
X51490961Y-97157142D02*
X51529057Y-97080951D01*
X51529057Y-97080951D02*
X51605247Y-97042856D01*
X51605247Y-97042856D02*
X52024295Y-97042856D01*
X51986200Y-96090475D02*
X52024295Y-96014284D01*
X52024295Y-96014284D02*
X52024295Y-95861903D01*
X52024295Y-95861903D02*
X51986200Y-95785713D01*
X51986200Y-95785713D02*
X51910009Y-95747617D01*
X51910009Y-95747617D02*
X51871914Y-95747617D01*
X51871914Y-95747617D02*
X51795723Y-95785713D01*
X51795723Y-95785713D02*
X51757628Y-95861903D01*
X51757628Y-95861903D02*
X51757628Y-95976189D01*
X51757628Y-95976189D02*
X51719533Y-96052379D01*
X51719533Y-96052379D02*
X51643342Y-96090475D01*
X51643342Y-96090475D02*
X51605247Y-96090475D01*
X51605247Y-96090475D02*
X51529057Y-96052379D01*
X51529057Y-96052379D02*
X51490961Y-95976189D01*
X51490961Y-95976189D02*
X51490961Y-95861903D01*
X51490961Y-95861903D02*
X51529057Y-95785713D01*
X51490961Y-95519046D02*
X51490961Y-95214284D01*
X51224295Y-95404760D02*
X51910009Y-95404760D01*
X51910009Y-95404760D02*
X51986200Y-95366665D01*
X51986200Y-95366665D02*
X52024295Y-95290475D01*
X52024295Y-95290475D02*
X52024295Y-95214284D01*
X52024295Y-94947617D02*
X51490961Y-94947617D01*
X51224295Y-94947617D02*
X51262390Y-94985713D01*
X51262390Y-94985713D02*
X51300485Y-94947617D01*
X51300485Y-94947617D02*
X51262390Y-94909522D01*
X51262390Y-94909522D02*
X51224295Y-94947617D01*
X51224295Y-94947617D02*
X51300485Y-94947617D01*
X51490961Y-94680951D02*
X51490961Y-94376189D01*
X52024295Y-94566665D02*
X51338580Y-94566665D01*
X51338580Y-94566665D02*
X51262390Y-94528570D01*
X51262390Y-94528570D02*
X51224295Y-94452380D01*
X51224295Y-94452380D02*
X51224295Y-94376189D01*
X51490961Y-94223808D02*
X51490961Y-93919046D01*
X52024295Y-94109522D02*
X51338580Y-94109522D01*
X51338580Y-94109522D02*
X51262390Y-94071427D01*
X51262390Y-94071427D02*
X51224295Y-93995237D01*
X51224295Y-93995237D02*
X51224295Y-93919046D01*
X51986200Y-93347617D02*
X52024295Y-93423808D01*
X52024295Y-93423808D02*
X52024295Y-93576189D01*
X52024295Y-93576189D02*
X51986200Y-93652379D01*
X51986200Y-93652379D02*
X51910009Y-93690475D01*
X51910009Y-93690475D02*
X51605247Y-93690475D01*
X51605247Y-93690475D02*
X51529057Y-93652379D01*
X51529057Y-93652379D02*
X51490961Y-93576189D01*
X51490961Y-93576189D02*
X51490961Y-93423808D01*
X51490961Y-93423808D02*
X51529057Y-93347617D01*
X51529057Y-93347617D02*
X51605247Y-93309522D01*
X51605247Y-93309522D02*
X51681438Y-93309522D01*
X51681438Y-93309522D02*
X51757628Y-93690475D01*
X51490961Y-92966665D02*
X52024295Y-92966665D01*
X51567152Y-92966665D02*
X51529057Y-92928570D01*
X51529057Y-92928570D02*
X51490961Y-92852380D01*
X51490961Y-92852380D02*
X51490961Y-92738094D01*
X51490961Y-92738094D02*
X51529057Y-92661903D01*
X51529057Y-92661903D02*
X51605247Y-92623808D01*
X51605247Y-92623808D02*
X52024295Y-92623808D01*
X51986200Y-91938093D02*
X52024295Y-92014284D01*
X52024295Y-92014284D02*
X52024295Y-92166665D01*
X52024295Y-92166665D02*
X51986200Y-92242855D01*
X51986200Y-92242855D02*
X51910009Y-92280951D01*
X51910009Y-92280951D02*
X51605247Y-92280951D01*
X51605247Y-92280951D02*
X51529057Y-92242855D01*
X51529057Y-92242855D02*
X51490961Y-92166665D01*
X51490961Y-92166665D02*
X51490961Y-92014284D01*
X51490961Y-92014284D02*
X51529057Y-91938093D01*
X51529057Y-91938093D02*
X51605247Y-91899998D01*
X51605247Y-91899998D02*
X51681438Y-91899998D01*
X51681438Y-91899998D02*
X51757628Y-92280951D01*
X52024295Y-91557141D02*
X51490961Y-91557141D01*
X51643342Y-91557141D02*
X51567152Y-91519046D01*
X51567152Y-91519046D02*
X51529057Y-91480951D01*
X51529057Y-91480951D02*
X51490961Y-91404760D01*
X51490961Y-91404760D02*
X51490961Y-91328570D01*
X69298104Y-100280953D02*
X69336200Y-100319049D01*
X69336200Y-100319049D02*
X69374295Y-100433334D01*
X69374295Y-100433334D02*
X69374295Y-100509525D01*
X69374295Y-100509525D02*
X69336200Y-100623811D01*
X69336200Y-100623811D02*
X69260009Y-100700001D01*
X69260009Y-100700001D02*
X69183819Y-100738096D01*
X69183819Y-100738096D02*
X69031438Y-100776192D01*
X69031438Y-100776192D02*
X68917152Y-100776192D01*
X68917152Y-100776192D02*
X68764771Y-100738096D01*
X68764771Y-100738096D02*
X68688580Y-100700001D01*
X68688580Y-100700001D02*
X68612390Y-100623811D01*
X68612390Y-100623811D02*
X68574295Y-100509525D01*
X68574295Y-100509525D02*
X68574295Y-100433334D01*
X68574295Y-100433334D02*
X68612390Y-100319049D01*
X68612390Y-100319049D02*
X68650485Y-100280953D01*
X69374295Y-99595239D02*
X68955247Y-99595239D01*
X68955247Y-99595239D02*
X68879057Y-99633334D01*
X68879057Y-99633334D02*
X68840961Y-99709525D01*
X68840961Y-99709525D02*
X68840961Y-99861906D01*
X68840961Y-99861906D02*
X68879057Y-99938096D01*
X69336200Y-99595239D02*
X69374295Y-99671430D01*
X69374295Y-99671430D02*
X69374295Y-99861906D01*
X69374295Y-99861906D02*
X69336200Y-99938096D01*
X69336200Y-99938096D02*
X69260009Y-99976192D01*
X69260009Y-99976192D02*
X69183819Y-99976192D01*
X69183819Y-99976192D02*
X69107628Y-99938096D01*
X69107628Y-99938096D02*
X69069533Y-99861906D01*
X69069533Y-99861906D02*
X69069533Y-99671430D01*
X69069533Y-99671430D02*
X69031438Y-99595239D01*
X69374295Y-99214286D02*
X68574295Y-99214286D01*
X68879057Y-99214286D02*
X68840961Y-99138096D01*
X68840961Y-99138096D02*
X68840961Y-98985715D01*
X68840961Y-98985715D02*
X68879057Y-98909524D01*
X68879057Y-98909524D02*
X68917152Y-98871429D01*
X68917152Y-98871429D02*
X68993342Y-98833334D01*
X68993342Y-98833334D02*
X69221914Y-98833334D01*
X69221914Y-98833334D02*
X69298104Y-98871429D01*
X69298104Y-98871429D02*
X69336200Y-98909524D01*
X69336200Y-98909524D02*
X69374295Y-98985715D01*
X69374295Y-98985715D02*
X69374295Y-99138096D01*
X69374295Y-99138096D02*
X69336200Y-99214286D01*
X69374295Y-98376191D02*
X69336200Y-98452381D01*
X69336200Y-98452381D02*
X69260009Y-98490476D01*
X69260009Y-98490476D02*
X68574295Y-98490476D01*
X69336200Y-97766666D02*
X69374295Y-97842857D01*
X69374295Y-97842857D02*
X69374295Y-97995238D01*
X69374295Y-97995238D02*
X69336200Y-98071428D01*
X69336200Y-98071428D02*
X69260009Y-98109524D01*
X69260009Y-98109524D02*
X68955247Y-98109524D01*
X68955247Y-98109524D02*
X68879057Y-98071428D01*
X68879057Y-98071428D02*
X68840961Y-97995238D01*
X68840961Y-97995238D02*
X68840961Y-97842857D01*
X68840961Y-97842857D02*
X68879057Y-97766666D01*
X68879057Y-97766666D02*
X68955247Y-97728571D01*
X68955247Y-97728571D02*
X69031438Y-97728571D01*
X69031438Y-97728571D02*
X69107628Y-98109524D01*
X69336200Y-96471428D02*
X69374295Y-96547619D01*
X69374295Y-96547619D02*
X69374295Y-96700000D01*
X69374295Y-96700000D02*
X69336200Y-96776190D01*
X69336200Y-96776190D02*
X69260009Y-96814286D01*
X69260009Y-96814286D02*
X68955247Y-96814286D01*
X68955247Y-96814286D02*
X68879057Y-96776190D01*
X68879057Y-96776190D02*
X68840961Y-96700000D01*
X68840961Y-96700000D02*
X68840961Y-96547619D01*
X68840961Y-96547619D02*
X68879057Y-96471428D01*
X68879057Y-96471428D02*
X68955247Y-96433333D01*
X68955247Y-96433333D02*
X69031438Y-96433333D01*
X69031438Y-96433333D02*
X69107628Y-96814286D01*
X68840961Y-96090476D02*
X69374295Y-96090476D01*
X68917152Y-96090476D02*
X68879057Y-96052381D01*
X68879057Y-96052381D02*
X68840961Y-95976191D01*
X68840961Y-95976191D02*
X68840961Y-95861905D01*
X68840961Y-95861905D02*
X68879057Y-95785714D01*
X68879057Y-95785714D02*
X68955247Y-95747619D01*
X68955247Y-95747619D02*
X69374295Y-95747619D01*
X68840961Y-95480952D02*
X68840961Y-95176190D01*
X68574295Y-95366666D02*
X69260009Y-95366666D01*
X69260009Y-95366666D02*
X69336200Y-95328571D01*
X69336200Y-95328571D02*
X69374295Y-95252381D01*
X69374295Y-95252381D02*
X69374295Y-95176190D01*
X69374295Y-94909523D02*
X68840961Y-94909523D01*
X68993342Y-94909523D02*
X68917152Y-94871428D01*
X68917152Y-94871428D02*
X68879057Y-94833333D01*
X68879057Y-94833333D02*
X68840961Y-94757142D01*
X68840961Y-94757142D02*
X68840961Y-94680952D01*
X68840961Y-94490476D02*
X69374295Y-94300000D01*
X68840961Y-94109523D02*
X69374295Y-94300000D01*
X69374295Y-94300000D02*
X69564771Y-94376190D01*
X69564771Y-94376190D02*
X69602866Y-94414285D01*
X69602866Y-94414285D02*
X69640961Y-94490476D01*
X69374295Y-92852380D02*
X68574295Y-92852380D01*
X69336200Y-92852380D02*
X69374295Y-92928571D01*
X69374295Y-92928571D02*
X69374295Y-93080952D01*
X69374295Y-93080952D02*
X69336200Y-93157142D01*
X69336200Y-93157142D02*
X69298104Y-93195237D01*
X69298104Y-93195237D02*
X69221914Y-93233333D01*
X69221914Y-93233333D02*
X68993342Y-93233333D01*
X68993342Y-93233333D02*
X68917152Y-93195237D01*
X68917152Y-93195237D02*
X68879057Y-93157142D01*
X68879057Y-93157142D02*
X68840961Y-93080952D01*
X68840961Y-93080952D02*
X68840961Y-92928571D01*
X68840961Y-92928571D02*
X68879057Y-92852380D01*
X69336200Y-92166665D02*
X69374295Y-92242856D01*
X69374295Y-92242856D02*
X69374295Y-92395237D01*
X69374295Y-92395237D02*
X69336200Y-92471427D01*
X69336200Y-92471427D02*
X69260009Y-92509523D01*
X69260009Y-92509523D02*
X68955247Y-92509523D01*
X68955247Y-92509523D02*
X68879057Y-92471427D01*
X68879057Y-92471427D02*
X68840961Y-92395237D01*
X68840961Y-92395237D02*
X68840961Y-92242856D01*
X68840961Y-92242856D02*
X68879057Y-92166665D01*
X68879057Y-92166665D02*
X68955247Y-92128570D01*
X68955247Y-92128570D02*
X69031438Y-92128570D01*
X69031438Y-92128570D02*
X69107628Y-92509523D01*
X68840961Y-91785713D02*
X69640961Y-91785713D01*
X68879057Y-91785713D02*
X68840961Y-91709523D01*
X68840961Y-91709523D02*
X68840961Y-91557142D01*
X68840961Y-91557142D02*
X68879057Y-91480951D01*
X68879057Y-91480951D02*
X68917152Y-91442856D01*
X68917152Y-91442856D02*
X68993342Y-91404761D01*
X68993342Y-91404761D02*
X69221914Y-91404761D01*
X69221914Y-91404761D02*
X69298104Y-91442856D01*
X69298104Y-91442856D02*
X69336200Y-91480951D01*
X69336200Y-91480951D02*
X69374295Y-91557142D01*
X69374295Y-91557142D02*
X69374295Y-91709523D01*
X69374295Y-91709523D02*
X69336200Y-91785713D01*
X68840961Y-91176189D02*
X68840961Y-90871427D01*
X68574295Y-91061903D02*
X69260009Y-91061903D01*
X69260009Y-91061903D02*
X69336200Y-91023808D01*
X69336200Y-91023808D02*
X69374295Y-90947618D01*
X69374295Y-90947618D02*
X69374295Y-90871427D01*
X69374295Y-90604760D02*
X68574295Y-90604760D01*
X69374295Y-90261903D02*
X68955247Y-90261903D01*
X68955247Y-90261903D02*
X68879057Y-90299998D01*
X68879057Y-90299998D02*
X68840961Y-90376189D01*
X68840961Y-90376189D02*
X68840961Y-90490475D01*
X68840961Y-90490475D02*
X68879057Y-90566665D01*
X68879057Y-90566665D02*
X68917152Y-90604760D01*
X66474295Y-99214285D02*
X66474295Y-99366666D01*
X66474295Y-99366666D02*
X66512390Y-99442857D01*
X66512390Y-99442857D02*
X66550485Y-99480952D01*
X66550485Y-99480952D02*
X66664771Y-99557142D01*
X66664771Y-99557142D02*
X66817152Y-99595238D01*
X66817152Y-99595238D02*
X67121914Y-99595238D01*
X67121914Y-99595238D02*
X67198104Y-99557142D01*
X67198104Y-99557142D02*
X67236200Y-99519047D01*
X67236200Y-99519047D02*
X67274295Y-99442857D01*
X67274295Y-99442857D02*
X67274295Y-99290476D01*
X67274295Y-99290476D02*
X67236200Y-99214285D01*
X67236200Y-99214285D02*
X67198104Y-99176190D01*
X67198104Y-99176190D02*
X67121914Y-99138095D01*
X67121914Y-99138095D02*
X66931438Y-99138095D01*
X66931438Y-99138095D02*
X66855247Y-99176190D01*
X66855247Y-99176190D02*
X66817152Y-99214285D01*
X66817152Y-99214285D02*
X66779057Y-99290476D01*
X66779057Y-99290476D02*
X66779057Y-99442857D01*
X66779057Y-99442857D02*
X66817152Y-99519047D01*
X66817152Y-99519047D02*
X66855247Y-99557142D01*
X66855247Y-99557142D02*
X66931438Y-99595238D01*
X67274295Y-98795237D02*
X66740961Y-98795237D01*
X66817152Y-98795237D02*
X66779057Y-98757142D01*
X66779057Y-98757142D02*
X66740961Y-98680952D01*
X66740961Y-98680952D02*
X66740961Y-98566666D01*
X66740961Y-98566666D02*
X66779057Y-98490475D01*
X66779057Y-98490475D02*
X66855247Y-98452380D01*
X66855247Y-98452380D02*
X67274295Y-98452380D01*
X66855247Y-98452380D02*
X66779057Y-98414285D01*
X66779057Y-98414285D02*
X66740961Y-98338094D01*
X66740961Y-98338094D02*
X66740961Y-98223809D01*
X66740961Y-98223809D02*
X66779057Y-98147618D01*
X66779057Y-98147618D02*
X66855247Y-98109523D01*
X66855247Y-98109523D02*
X67274295Y-98109523D01*
X67274295Y-97728570D02*
X66740961Y-97728570D01*
X66817152Y-97728570D02*
X66779057Y-97690475D01*
X66779057Y-97690475D02*
X66740961Y-97614285D01*
X66740961Y-97614285D02*
X66740961Y-97499999D01*
X66740961Y-97499999D02*
X66779057Y-97423808D01*
X66779057Y-97423808D02*
X66855247Y-97385713D01*
X66855247Y-97385713D02*
X67274295Y-97385713D01*
X66855247Y-97385713D02*
X66779057Y-97347618D01*
X66779057Y-97347618D02*
X66740961Y-97271427D01*
X66740961Y-97271427D02*
X66740961Y-97157142D01*
X66740961Y-97157142D02*
X66779057Y-97080951D01*
X66779057Y-97080951D02*
X66855247Y-97042856D01*
X66855247Y-97042856D02*
X67274295Y-97042856D01*
X67236200Y-96090475D02*
X67274295Y-96014284D01*
X67274295Y-96014284D02*
X67274295Y-95861903D01*
X67274295Y-95861903D02*
X67236200Y-95785713D01*
X67236200Y-95785713D02*
X67160009Y-95747617D01*
X67160009Y-95747617D02*
X67121914Y-95747617D01*
X67121914Y-95747617D02*
X67045723Y-95785713D01*
X67045723Y-95785713D02*
X67007628Y-95861903D01*
X67007628Y-95861903D02*
X67007628Y-95976189D01*
X67007628Y-95976189D02*
X66969533Y-96052379D01*
X66969533Y-96052379D02*
X66893342Y-96090475D01*
X66893342Y-96090475D02*
X66855247Y-96090475D01*
X66855247Y-96090475D02*
X66779057Y-96052379D01*
X66779057Y-96052379D02*
X66740961Y-95976189D01*
X66740961Y-95976189D02*
X66740961Y-95861903D01*
X66740961Y-95861903D02*
X66779057Y-95785713D01*
X66740961Y-95519046D02*
X66740961Y-95214284D01*
X66474295Y-95404760D02*
X67160009Y-95404760D01*
X67160009Y-95404760D02*
X67236200Y-95366665D01*
X67236200Y-95366665D02*
X67274295Y-95290475D01*
X67274295Y-95290475D02*
X67274295Y-95214284D01*
X67274295Y-94947617D02*
X66740961Y-94947617D01*
X66474295Y-94947617D02*
X66512390Y-94985713D01*
X66512390Y-94985713D02*
X66550485Y-94947617D01*
X66550485Y-94947617D02*
X66512390Y-94909522D01*
X66512390Y-94909522D02*
X66474295Y-94947617D01*
X66474295Y-94947617D02*
X66550485Y-94947617D01*
X66740961Y-94680951D02*
X66740961Y-94376189D01*
X67274295Y-94566665D02*
X66588580Y-94566665D01*
X66588580Y-94566665D02*
X66512390Y-94528570D01*
X66512390Y-94528570D02*
X66474295Y-94452380D01*
X66474295Y-94452380D02*
X66474295Y-94376189D01*
X66740961Y-94223808D02*
X66740961Y-93919046D01*
X67274295Y-94109522D02*
X66588580Y-94109522D01*
X66588580Y-94109522D02*
X66512390Y-94071427D01*
X66512390Y-94071427D02*
X66474295Y-93995237D01*
X66474295Y-93995237D02*
X66474295Y-93919046D01*
X67236200Y-93347617D02*
X67274295Y-93423808D01*
X67274295Y-93423808D02*
X67274295Y-93576189D01*
X67274295Y-93576189D02*
X67236200Y-93652379D01*
X67236200Y-93652379D02*
X67160009Y-93690475D01*
X67160009Y-93690475D02*
X66855247Y-93690475D01*
X66855247Y-93690475D02*
X66779057Y-93652379D01*
X66779057Y-93652379D02*
X66740961Y-93576189D01*
X66740961Y-93576189D02*
X66740961Y-93423808D01*
X66740961Y-93423808D02*
X66779057Y-93347617D01*
X66779057Y-93347617D02*
X66855247Y-93309522D01*
X66855247Y-93309522D02*
X66931438Y-93309522D01*
X66931438Y-93309522D02*
X67007628Y-93690475D01*
X66740961Y-92966665D02*
X67274295Y-92966665D01*
X66817152Y-92966665D02*
X66779057Y-92928570D01*
X66779057Y-92928570D02*
X66740961Y-92852380D01*
X66740961Y-92852380D02*
X66740961Y-92738094D01*
X66740961Y-92738094D02*
X66779057Y-92661903D01*
X66779057Y-92661903D02*
X66855247Y-92623808D01*
X66855247Y-92623808D02*
X67274295Y-92623808D01*
X67236200Y-91938093D02*
X67274295Y-92014284D01*
X67274295Y-92014284D02*
X67274295Y-92166665D01*
X67274295Y-92166665D02*
X67236200Y-92242855D01*
X67236200Y-92242855D02*
X67160009Y-92280951D01*
X67160009Y-92280951D02*
X66855247Y-92280951D01*
X66855247Y-92280951D02*
X66779057Y-92242855D01*
X66779057Y-92242855D02*
X66740961Y-92166665D01*
X66740961Y-92166665D02*
X66740961Y-92014284D01*
X66740961Y-92014284D02*
X66779057Y-91938093D01*
X66779057Y-91938093D02*
X66855247Y-91899998D01*
X66855247Y-91899998D02*
X66931438Y-91899998D01*
X66931438Y-91899998D02*
X67007628Y-92280951D01*
X67274295Y-91557141D02*
X66740961Y-91557141D01*
X66893342Y-91557141D02*
X66817152Y-91519046D01*
X66817152Y-91519046D02*
X66779057Y-91480951D01*
X66779057Y-91480951D02*
X66740961Y-91404760D01*
X66740961Y-91404760D02*
X66740961Y-91328570D01*
X64817152Y-99442857D02*
X64779057Y-99519047D01*
X64779057Y-99519047D02*
X64740961Y-99557142D01*
X64740961Y-99557142D02*
X64664771Y-99595238D01*
X64664771Y-99595238D02*
X64626676Y-99595238D01*
X64626676Y-99595238D02*
X64550485Y-99557142D01*
X64550485Y-99557142D02*
X64512390Y-99519047D01*
X64512390Y-99519047D02*
X64474295Y-99442857D01*
X64474295Y-99442857D02*
X64474295Y-99290476D01*
X64474295Y-99290476D02*
X64512390Y-99214285D01*
X64512390Y-99214285D02*
X64550485Y-99176190D01*
X64550485Y-99176190D02*
X64626676Y-99138095D01*
X64626676Y-99138095D02*
X64664771Y-99138095D01*
X64664771Y-99138095D02*
X64740961Y-99176190D01*
X64740961Y-99176190D02*
X64779057Y-99214285D01*
X64779057Y-99214285D02*
X64817152Y-99290476D01*
X64817152Y-99290476D02*
X64817152Y-99442857D01*
X64817152Y-99442857D02*
X64855247Y-99519047D01*
X64855247Y-99519047D02*
X64893342Y-99557142D01*
X64893342Y-99557142D02*
X64969533Y-99595238D01*
X64969533Y-99595238D02*
X65121914Y-99595238D01*
X65121914Y-99595238D02*
X65198104Y-99557142D01*
X65198104Y-99557142D02*
X65236200Y-99519047D01*
X65236200Y-99519047D02*
X65274295Y-99442857D01*
X65274295Y-99442857D02*
X65274295Y-99290476D01*
X65274295Y-99290476D02*
X65236200Y-99214285D01*
X65236200Y-99214285D02*
X65198104Y-99176190D01*
X65198104Y-99176190D02*
X65121914Y-99138095D01*
X65121914Y-99138095D02*
X64969533Y-99138095D01*
X64969533Y-99138095D02*
X64893342Y-99176190D01*
X64893342Y-99176190D02*
X64855247Y-99214285D01*
X64855247Y-99214285D02*
X64817152Y-99290476D01*
X65274295Y-98795237D02*
X64740961Y-98795237D01*
X64817152Y-98795237D02*
X64779057Y-98757142D01*
X64779057Y-98757142D02*
X64740961Y-98680952D01*
X64740961Y-98680952D02*
X64740961Y-98566666D01*
X64740961Y-98566666D02*
X64779057Y-98490475D01*
X64779057Y-98490475D02*
X64855247Y-98452380D01*
X64855247Y-98452380D02*
X65274295Y-98452380D01*
X64855247Y-98452380D02*
X64779057Y-98414285D01*
X64779057Y-98414285D02*
X64740961Y-98338094D01*
X64740961Y-98338094D02*
X64740961Y-98223809D01*
X64740961Y-98223809D02*
X64779057Y-98147618D01*
X64779057Y-98147618D02*
X64855247Y-98109523D01*
X64855247Y-98109523D02*
X65274295Y-98109523D01*
X65274295Y-97728570D02*
X64740961Y-97728570D01*
X64817152Y-97728570D02*
X64779057Y-97690475D01*
X64779057Y-97690475D02*
X64740961Y-97614285D01*
X64740961Y-97614285D02*
X64740961Y-97499999D01*
X64740961Y-97499999D02*
X64779057Y-97423808D01*
X64779057Y-97423808D02*
X64855247Y-97385713D01*
X64855247Y-97385713D02*
X65274295Y-97385713D01*
X64855247Y-97385713D02*
X64779057Y-97347618D01*
X64779057Y-97347618D02*
X64740961Y-97271427D01*
X64740961Y-97271427D02*
X64740961Y-97157142D01*
X64740961Y-97157142D02*
X64779057Y-97080951D01*
X64779057Y-97080951D02*
X64855247Y-97042856D01*
X64855247Y-97042856D02*
X65274295Y-97042856D01*
X65236200Y-96090475D02*
X65274295Y-96014284D01*
X65274295Y-96014284D02*
X65274295Y-95861903D01*
X65274295Y-95861903D02*
X65236200Y-95785713D01*
X65236200Y-95785713D02*
X65160009Y-95747617D01*
X65160009Y-95747617D02*
X65121914Y-95747617D01*
X65121914Y-95747617D02*
X65045723Y-95785713D01*
X65045723Y-95785713D02*
X65007628Y-95861903D01*
X65007628Y-95861903D02*
X65007628Y-95976189D01*
X65007628Y-95976189D02*
X64969533Y-96052379D01*
X64969533Y-96052379D02*
X64893342Y-96090475D01*
X64893342Y-96090475D02*
X64855247Y-96090475D01*
X64855247Y-96090475D02*
X64779057Y-96052379D01*
X64779057Y-96052379D02*
X64740961Y-95976189D01*
X64740961Y-95976189D02*
X64740961Y-95861903D01*
X64740961Y-95861903D02*
X64779057Y-95785713D01*
X64740961Y-95519046D02*
X64740961Y-95214284D01*
X64474295Y-95404760D02*
X65160009Y-95404760D01*
X65160009Y-95404760D02*
X65236200Y-95366665D01*
X65236200Y-95366665D02*
X65274295Y-95290475D01*
X65274295Y-95290475D02*
X65274295Y-95214284D01*
X65274295Y-94947617D02*
X64740961Y-94947617D01*
X64474295Y-94947617D02*
X64512390Y-94985713D01*
X64512390Y-94985713D02*
X64550485Y-94947617D01*
X64550485Y-94947617D02*
X64512390Y-94909522D01*
X64512390Y-94909522D02*
X64474295Y-94947617D01*
X64474295Y-94947617D02*
X64550485Y-94947617D01*
X64740961Y-94680951D02*
X64740961Y-94376189D01*
X65274295Y-94566665D02*
X64588580Y-94566665D01*
X64588580Y-94566665D02*
X64512390Y-94528570D01*
X64512390Y-94528570D02*
X64474295Y-94452380D01*
X64474295Y-94452380D02*
X64474295Y-94376189D01*
X64740961Y-94223808D02*
X64740961Y-93919046D01*
X65274295Y-94109522D02*
X64588580Y-94109522D01*
X64588580Y-94109522D02*
X64512390Y-94071427D01*
X64512390Y-94071427D02*
X64474295Y-93995237D01*
X64474295Y-93995237D02*
X64474295Y-93919046D01*
X65236200Y-93347617D02*
X65274295Y-93423808D01*
X65274295Y-93423808D02*
X65274295Y-93576189D01*
X65274295Y-93576189D02*
X65236200Y-93652379D01*
X65236200Y-93652379D02*
X65160009Y-93690475D01*
X65160009Y-93690475D02*
X64855247Y-93690475D01*
X64855247Y-93690475D02*
X64779057Y-93652379D01*
X64779057Y-93652379D02*
X64740961Y-93576189D01*
X64740961Y-93576189D02*
X64740961Y-93423808D01*
X64740961Y-93423808D02*
X64779057Y-93347617D01*
X64779057Y-93347617D02*
X64855247Y-93309522D01*
X64855247Y-93309522D02*
X64931438Y-93309522D01*
X64931438Y-93309522D02*
X65007628Y-93690475D01*
X64740961Y-92966665D02*
X65274295Y-92966665D01*
X64817152Y-92966665D02*
X64779057Y-92928570D01*
X64779057Y-92928570D02*
X64740961Y-92852380D01*
X64740961Y-92852380D02*
X64740961Y-92738094D01*
X64740961Y-92738094D02*
X64779057Y-92661903D01*
X64779057Y-92661903D02*
X64855247Y-92623808D01*
X64855247Y-92623808D02*
X65274295Y-92623808D01*
X65236200Y-91938093D02*
X65274295Y-92014284D01*
X65274295Y-92014284D02*
X65274295Y-92166665D01*
X65274295Y-92166665D02*
X65236200Y-92242855D01*
X65236200Y-92242855D02*
X65160009Y-92280951D01*
X65160009Y-92280951D02*
X64855247Y-92280951D01*
X64855247Y-92280951D02*
X64779057Y-92242855D01*
X64779057Y-92242855D02*
X64740961Y-92166665D01*
X64740961Y-92166665D02*
X64740961Y-92014284D01*
X64740961Y-92014284D02*
X64779057Y-91938093D01*
X64779057Y-91938093D02*
X64855247Y-91899998D01*
X64855247Y-91899998D02*
X64931438Y-91899998D01*
X64931438Y-91899998D02*
X65007628Y-92280951D01*
X65274295Y-91557141D02*
X64740961Y-91557141D01*
X64893342Y-91557141D02*
X64817152Y-91519046D01*
X64817152Y-91519046D02*
X64779057Y-91480951D01*
X64779057Y-91480951D02*
X64740961Y-91404760D01*
X64740961Y-91404760D02*
X64740961Y-91328570D01*
X308705952Y-141885200D02*
X308848809Y-141932819D01*
X308848809Y-141932819D02*
X309086904Y-141932819D01*
X309086904Y-141932819D02*
X309182142Y-141885200D01*
X309182142Y-141885200D02*
X309229761Y-141837580D01*
X309229761Y-141837580D02*
X309277380Y-141742342D01*
X309277380Y-141742342D02*
X309277380Y-141647104D01*
X309277380Y-141647104D02*
X309229761Y-141551866D01*
X309229761Y-141551866D02*
X309182142Y-141504247D01*
X309182142Y-141504247D02*
X309086904Y-141456628D01*
X309086904Y-141456628D02*
X308896428Y-141409009D01*
X308896428Y-141409009D02*
X308801190Y-141361390D01*
X308801190Y-141361390D02*
X308753571Y-141313771D01*
X308753571Y-141313771D02*
X308705952Y-141218533D01*
X308705952Y-141218533D02*
X308705952Y-141123295D01*
X308705952Y-141123295D02*
X308753571Y-141028057D01*
X308753571Y-141028057D02*
X308801190Y-140980438D01*
X308801190Y-140980438D02*
X308896428Y-140932819D01*
X308896428Y-140932819D02*
X309134523Y-140932819D01*
X309134523Y-140932819D02*
X309277380Y-140980438D01*
X309563095Y-140932819D02*
X310134523Y-140932819D01*
X309848809Y-141932819D02*
X309848809Y-140932819D01*
X310420238Y-141647104D02*
X310896428Y-141647104D01*
X310325000Y-141932819D02*
X310658333Y-140932819D01*
X310658333Y-140932819D02*
X310991666Y-141932819D01*
X311658333Y-141409009D02*
X311801190Y-141456628D01*
X311801190Y-141456628D02*
X311848809Y-141504247D01*
X311848809Y-141504247D02*
X311896428Y-141599485D01*
X311896428Y-141599485D02*
X311896428Y-141742342D01*
X311896428Y-141742342D02*
X311848809Y-141837580D01*
X311848809Y-141837580D02*
X311801190Y-141885200D01*
X311801190Y-141885200D02*
X311705952Y-141932819D01*
X311705952Y-141932819D02*
X311325000Y-141932819D01*
X311325000Y-141932819D02*
X311325000Y-140932819D01*
X311325000Y-140932819D02*
X311658333Y-140932819D01*
X311658333Y-140932819D02*
X311753571Y-140980438D01*
X311753571Y-140980438D02*
X311801190Y-141028057D01*
X311801190Y-141028057D02*
X311848809Y-141123295D01*
X311848809Y-141123295D02*
X311848809Y-141218533D01*
X311848809Y-141218533D02*
X311801190Y-141313771D01*
X311801190Y-141313771D02*
X311753571Y-141361390D01*
X311753571Y-141361390D02*
X311658333Y-141409009D01*
X311658333Y-141409009D02*
X311325000Y-141409009D01*
X312086905Y-142028057D02*
X312848809Y-142028057D01*
X313086905Y-141932819D02*
X313086905Y-140932819D01*
X313086905Y-140932819D02*
X313420238Y-141647104D01*
X313420238Y-141647104D02*
X313753571Y-140932819D01*
X313753571Y-140932819D02*
X313753571Y-141932819D01*
X314134524Y-140932819D02*
X314801190Y-141932819D01*
X314801190Y-140932819D02*
X314134524Y-141932819D01*
X314944048Y-142028057D02*
X315705952Y-142028057D01*
X316420238Y-141932819D02*
X315944048Y-141932819D01*
X315944048Y-141932819D02*
X315944048Y-140932819D01*
X316753572Y-141932819D02*
X316753572Y-140932819D01*
X316753572Y-140932819D02*
X317134524Y-140932819D01*
X317134524Y-140932819D02*
X317229762Y-140980438D01*
X317229762Y-140980438D02*
X317277381Y-141028057D01*
X317277381Y-141028057D02*
X317325000Y-141123295D01*
X317325000Y-141123295D02*
X317325000Y-141266152D01*
X317325000Y-141266152D02*
X317277381Y-141361390D01*
X317277381Y-141361390D02*
X317229762Y-141409009D01*
X317229762Y-141409009D02*
X317134524Y-141456628D01*
X317134524Y-141456628D02*
X316753572Y-141456628D01*
X317515477Y-142028057D02*
X318277381Y-142028057D01*
X318467858Y-141028057D02*
X318515477Y-140980438D01*
X318515477Y-140980438D02*
X318610715Y-140932819D01*
X318610715Y-140932819D02*
X318848810Y-140932819D01*
X318848810Y-140932819D02*
X318944048Y-140980438D01*
X318944048Y-140980438D02*
X318991667Y-141028057D01*
X318991667Y-141028057D02*
X319039286Y-141123295D01*
X319039286Y-141123295D02*
X319039286Y-141218533D01*
X319039286Y-141218533D02*
X318991667Y-141361390D01*
X318991667Y-141361390D02*
X318420239Y-141932819D01*
X318420239Y-141932819D02*
X319039286Y-141932819D01*
X319896429Y-141266152D02*
X319896429Y-141932819D01*
X319467858Y-141266152D02*
X319467858Y-141789961D01*
X319467858Y-141789961D02*
X319515477Y-141885200D01*
X319515477Y-141885200D02*
X319610715Y-141932819D01*
X319610715Y-141932819D02*
X319753572Y-141932819D01*
X319753572Y-141932819D02*
X319848810Y-141885200D01*
X319848810Y-141885200D02*
X319896429Y-141837580D01*
X322993452Y-122835200D02*
X323136309Y-122882819D01*
X323136309Y-122882819D02*
X323374404Y-122882819D01*
X323374404Y-122882819D02*
X323469642Y-122835200D01*
X323469642Y-122835200D02*
X323517261Y-122787580D01*
X323517261Y-122787580D02*
X323564880Y-122692342D01*
X323564880Y-122692342D02*
X323564880Y-122597104D01*
X323564880Y-122597104D02*
X323517261Y-122501866D01*
X323517261Y-122501866D02*
X323469642Y-122454247D01*
X323469642Y-122454247D02*
X323374404Y-122406628D01*
X323374404Y-122406628D02*
X323183928Y-122359009D01*
X323183928Y-122359009D02*
X323088690Y-122311390D01*
X323088690Y-122311390D02*
X323041071Y-122263771D01*
X323041071Y-122263771D02*
X322993452Y-122168533D01*
X322993452Y-122168533D02*
X322993452Y-122073295D01*
X322993452Y-122073295D02*
X323041071Y-121978057D01*
X323041071Y-121978057D02*
X323088690Y-121930438D01*
X323088690Y-121930438D02*
X323183928Y-121882819D01*
X323183928Y-121882819D02*
X323422023Y-121882819D01*
X323422023Y-121882819D02*
X323564880Y-121930438D01*
X323850595Y-121882819D02*
X324422023Y-121882819D01*
X324136309Y-122882819D02*
X324136309Y-121882819D01*
X324707738Y-122597104D02*
X325183928Y-122597104D01*
X324612500Y-122882819D02*
X324945833Y-121882819D01*
X324945833Y-121882819D02*
X325279166Y-122882819D01*
X325945833Y-122359009D02*
X326088690Y-122406628D01*
X326088690Y-122406628D02*
X326136309Y-122454247D01*
X326136309Y-122454247D02*
X326183928Y-122549485D01*
X326183928Y-122549485D02*
X326183928Y-122692342D01*
X326183928Y-122692342D02*
X326136309Y-122787580D01*
X326136309Y-122787580D02*
X326088690Y-122835200D01*
X326088690Y-122835200D02*
X325993452Y-122882819D01*
X325993452Y-122882819D02*
X325612500Y-122882819D01*
X325612500Y-122882819D02*
X325612500Y-121882819D01*
X325612500Y-121882819D02*
X325945833Y-121882819D01*
X325945833Y-121882819D02*
X326041071Y-121930438D01*
X326041071Y-121930438D02*
X326088690Y-121978057D01*
X326088690Y-121978057D02*
X326136309Y-122073295D01*
X326136309Y-122073295D02*
X326136309Y-122168533D01*
X326136309Y-122168533D02*
X326088690Y-122263771D01*
X326088690Y-122263771D02*
X326041071Y-122311390D01*
X326041071Y-122311390D02*
X325945833Y-122359009D01*
X325945833Y-122359009D02*
X325612500Y-122359009D01*
X326374405Y-122978057D02*
X327136309Y-122978057D01*
X327374405Y-122882819D02*
X327374405Y-121882819D01*
X327374405Y-121882819D02*
X327707738Y-122597104D01*
X327707738Y-122597104D02*
X328041071Y-121882819D01*
X328041071Y-121882819D02*
X328041071Y-122882819D01*
X328422024Y-121882819D02*
X329088690Y-122882819D01*
X329088690Y-121882819D02*
X328422024Y-122882819D01*
X329231548Y-122978057D02*
X329993452Y-122978057D01*
X330707738Y-122882819D02*
X330231548Y-122882819D01*
X330231548Y-122882819D02*
X330231548Y-121882819D01*
X331041072Y-122882819D02*
X331041072Y-121882819D01*
X331041072Y-121882819D02*
X331422024Y-121882819D01*
X331422024Y-121882819D02*
X331517262Y-121930438D01*
X331517262Y-121930438D02*
X331564881Y-121978057D01*
X331564881Y-121978057D02*
X331612500Y-122073295D01*
X331612500Y-122073295D02*
X331612500Y-122216152D01*
X331612500Y-122216152D02*
X331564881Y-122311390D01*
X331564881Y-122311390D02*
X331517262Y-122359009D01*
X331517262Y-122359009D02*
X331422024Y-122406628D01*
X331422024Y-122406628D02*
X331041072Y-122406628D01*
X331802977Y-122978057D02*
X332564881Y-122978057D01*
X332755358Y-121978057D02*
X332802977Y-121930438D01*
X332802977Y-121930438D02*
X332898215Y-121882819D01*
X332898215Y-121882819D02*
X333136310Y-121882819D01*
X333136310Y-121882819D02*
X333231548Y-121930438D01*
X333231548Y-121930438D02*
X333279167Y-121978057D01*
X333279167Y-121978057D02*
X333326786Y-122073295D01*
X333326786Y-122073295D02*
X333326786Y-122168533D01*
X333326786Y-122168533D02*
X333279167Y-122311390D01*
X333279167Y-122311390D02*
X332707739Y-122882819D01*
X332707739Y-122882819D02*
X333326786Y-122882819D01*
X334183929Y-122216152D02*
X334183929Y-122882819D01*
X333755358Y-122216152D02*
X333755358Y-122739961D01*
X333755358Y-122739961D02*
X333802977Y-122835200D01*
X333802977Y-122835200D02*
X333898215Y-122882819D01*
X333898215Y-122882819D02*
X334041072Y-122882819D01*
X334041072Y-122882819D02*
X334136310Y-122835200D01*
X334136310Y-122835200D02*
X334183929Y-122787580D01*
X327755952Y-84735200D02*
X327898809Y-84782819D01*
X327898809Y-84782819D02*
X328136904Y-84782819D01*
X328136904Y-84782819D02*
X328232142Y-84735200D01*
X328232142Y-84735200D02*
X328279761Y-84687580D01*
X328279761Y-84687580D02*
X328327380Y-84592342D01*
X328327380Y-84592342D02*
X328327380Y-84497104D01*
X328327380Y-84497104D02*
X328279761Y-84401866D01*
X328279761Y-84401866D02*
X328232142Y-84354247D01*
X328232142Y-84354247D02*
X328136904Y-84306628D01*
X328136904Y-84306628D02*
X327946428Y-84259009D01*
X327946428Y-84259009D02*
X327851190Y-84211390D01*
X327851190Y-84211390D02*
X327803571Y-84163771D01*
X327803571Y-84163771D02*
X327755952Y-84068533D01*
X327755952Y-84068533D02*
X327755952Y-83973295D01*
X327755952Y-83973295D02*
X327803571Y-83878057D01*
X327803571Y-83878057D02*
X327851190Y-83830438D01*
X327851190Y-83830438D02*
X327946428Y-83782819D01*
X327946428Y-83782819D02*
X328184523Y-83782819D01*
X328184523Y-83782819D02*
X328327380Y-83830438D01*
X328613095Y-83782819D02*
X329184523Y-83782819D01*
X328898809Y-84782819D02*
X328898809Y-83782819D01*
X329470238Y-84497104D02*
X329946428Y-84497104D01*
X329375000Y-84782819D02*
X329708333Y-83782819D01*
X329708333Y-83782819D02*
X330041666Y-84782819D01*
X330708333Y-84259009D02*
X330851190Y-84306628D01*
X330851190Y-84306628D02*
X330898809Y-84354247D01*
X330898809Y-84354247D02*
X330946428Y-84449485D01*
X330946428Y-84449485D02*
X330946428Y-84592342D01*
X330946428Y-84592342D02*
X330898809Y-84687580D01*
X330898809Y-84687580D02*
X330851190Y-84735200D01*
X330851190Y-84735200D02*
X330755952Y-84782819D01*
X330755952Y-84782819D02*
X330375000Y-84782819D01*
X330375000Y-84782819D02*
X330375000Y-83782819D01*
X330375000Y-83782819D02*
X330708333Y-83782819D01*
X330708333Y-83782819D02*
X330803571Y-83830438D01*
X330803571Y-83830438D02*
X330851190Y-83878057D01*
X330851190Y-83878057D02*
X330898809Y-83973295D01*
X330898809Y-83973295D02*
X330898809Y-84068533D01*
X330898809Y-84068533D02*
X330851190Y-84163771D01*
X330851190Y-84163771D02*
X330803571Y-84211390D01*
X330803571Y-84211390D02*
X330708333Y-84259009D01*
X330708333Y-84259009D02*
X330375000Y-84259009D01*
X331136905Y-84878057D02*
X331898809Y-84878057D01*
X332136905Y-84782819D02*
X332136905Y-83782819D01*
X332136905Y-83782819D02*
X332470238Y-84497104D01*
X332470238Y-84497104D02*
X332803571Y-83782819D01*
X332803571Y-83782819D02*
X332803571Y-84782819D01*
X333184524Y-83782819D02*
X333851190Y-84782819D01*
X333851190Y-83782819D02*
X333184524Y-84782819D01*
X333994048Y-84878057D02*
X334755952Y-84878057D01*
X335470238Y-84782819D02*
X334994048Y-84782819D01*
X334994048Y-84782819D02*
X334994048Y-83782819D01*
X335803572Y-84782819D02*
X335803572Y-83782819D01*
X335803572Y-83782819D02*
X336184524Y-83782819D01*
X336184524Y-83782819D02*
X336279762Y-83830438D01*
X336279762Y-83830438D02*
X336327381Y-83878057D01*
X336327381Y-83878057D02*
X336375000Y-83973295D01*
X336375000Y-83973295D02*
X336375000Y-84116152D01*
X336375000Y-84116152D02*
X336327381Y-84211390D01*
X336327381Y-84211390D02*
X336279762Y-84259009D01*
X336279762Y-84259009D02*
X336184524Y-84306628D01*
X336184524Y-84306628D02*
X335803572Y-84306628D01*
X336565477Y-84878057D02*
X337327381Y-84878057D01*
X337517858Y-83878057D02*
X337565477Y-83830438D01*
X337565477Y-83830438D02*
X337660715Y-83782819D01*
X337660715Y-83782819D02*
X337898810Y-83782819D01*
X337898810Y-83782819D02*
X337994048Y-83830438D01*
X337994048Y-83830438D02*
X338041667Y-83878057D01*
X338041667Y-83878057D02*
X338089286Y-83973295D01*
X338089286Y-83973295D02*
X338089286Y-84068533D01*
X338089286Y-84068533D02*
X338041667Y-84211390D01*
X338041667Y-84211390D02*
X337470239Y-84782819D01*
X337470239Y-84782819D02*
X338089286Y-84782819D01*
X338946429Y-84116152D02*
X338946429Y-84782819D01*
X338517858Y-84116152D02*
X338517858Y-84639961D01*
X338517858Y-84639961D02*
X338565477Y-84735200D01*
X338565477Y-84735200D02*
X338660715Y-84782819D01*
X338660715Y-84782819D02*
X338803572Y-84782819D01*
X338803572Y-84782819D02*
X338898810Y-84735200D01*
X338898810Y-84735200D02*
X338946429Y-84687580D01*
X80105952Y-141835200D02*
X80248809Y-141882819D01*
X80248809Y-141882819D02*
X80486904Y-141882819D01*
X80486904Y-141882819D02*
X80582142Y-141835200D01*
X80582142Y-141835200D02*
X80629761Y-141787580D01*
X80629761Y-141787580D02*
X80677380Y-141692342D01*
X80677380Y-141692342D02*
X80677380Y-141597104D01*
X80677380Y-141597104D02*
X80629761Y-141501866D01*
X80629761Y-141501866D02*
X80582142Y-141454247D01*
X80582142Y-141454247D02*
X80486904Y-141406628D01*
X80486904Y-141406628D02*
X80296428Y-141359009D01*
X80296428Y-141359009D02*
X80201190Y-141311390D01*
X80201190Y-141311390D02*
X80153571Y-141263771D01*
X80153571Y-141263771D02*
X80105952Y-141168533D01*
X80105952Y-141168533D02*
X80105952Y-141073295D01*
X80105952Y-141073295D02*
X80153571Y-140978057D01*
X80153571Y-140978057D02*
X80201190Y-140930438D01*
X80201190Y-140930438D02*
X80296428Y-140882819D01*
X80296428Y-140882819D02*
X80534523Y-140882819D01*
X80534523Y-140882819D02*
X80677380Y-140930438D01*
X80963095Y-140882819D02*
X81534523Y-140882819D01*
X81248809Y-141882819D02*
X81248809Y-140882819D01*
X81820238Y-141597104D02*
X82296428Y-141597104D01*
X81725000Y-141882819D02*
X82058333Y-140882819D01*
X82058333Y-140882819D02*
X82391666Y-141882819D01*
X83058333Y-141359009D02*
X83201190Y-141406628D01*
X83201190Y-141406628D02*
X83248809Y-141454247D01*
X83248809Y-141454247D02*
X83296428Y-141549485D01*
X83296428Y-141549485D02*
X83296428Y-141692342D01*
X83296428Y-141692342D02*
X83248809Y-141787580D01*
X83248809Y-141787580D02*
X83201190Y-141835200D01*
X83201190Y-141835200D02*
X83105952Y-141882819D01*
X83105952Y-141882819D02*
X82725000Y-141882819D01*
X82725000Y-141882819D02*
X82725000Y-140882819D01*
X82725000Y-140882819D02*
X83058333Y-140882819D01*
X83058333Y-140882819D02*
X83153571Y-140930438D01*
X83153571Y-140930438D02*
X83201190Y-140978057D01*
X83201190Y-140978057D02*
X83248809Y-141073295D01*
X83248809Y-141073295D02*
X83248809Y-141168533D01*
X83248809Y-141168533D02*
X83201190Y-141263771D01*
X83201190Y-141263771D02*
X83153571Y-141311390D01*
X83153571Y-141311390D02*
X83058333Y-141359009D01*
X83058333Y-141359009D02*
X82725000Y-141359009D01*
X83486905Y-141978057D02*
X84248809Y-141978057D01*
X84486905Y-141882819D02*
X84486905Y-140882819D01*
X84486905Y-140882819D02*
X84820238Y-141597104D01*
X84820238Y-141597104D02*
X85153571Y-140882819D01*
X85153571Y-140882819D02*
X85153571Y-141882819D01*
X85534524Y-140882819D02*
X86201190Y-141882819D01*
X86201190Y-140882819D02*
X85534524Y-141882819D01*
X86344048Y-141978057D02*
X87105952Y-141978057D01*
X87820238Y-141882819D02*
X87344048Y-141882819D01*
X87344048Y-141882819D02*
X87344048Y-140882819D01*
X88153572Y-141882819D02*
X88153572Y-140882819D01*
X88153572Y-140882819D02*
X88534524Y-140882819D01*
X88534524Y-140882819D02*
X88629762Y-140930438D01*
X88629762Y-140930438D02*
X88677381Y-140978057D01*
X88677381Y-140978057D02*
X88725000Y-141073295D01*
X88725000Y-141073295D02*
X88725000Y-141216152D01*
X88725000Y-141216152D02*
X88677381Y-141311390D01*
X88677381Y-141311390D02*
X88629762Y-141359009D01*
X88629762Y-141359009D02*
X88534524Y-141406628D01*
X88534524Y-141406628D02*
X88153572Y-141406628D01*
X88915477Y-141978057D02*
X89677381Y-141978057D01*
X89867858Y-140978057D02*
X89915477Y-140930438D01*
X89915477Y-140930438D02*
X90010715Y-140882819D01*
X90010715Y-140882819D02*
X90248810Y-140882819D01*
X90248810Y-140882819D02*
X90344048Y-140930438D01*
X90344048Y-140930438D02*
X90391667Y-140978057D01*
X90391667Y-140978057D02*
X90439286Y-141073295D01*
X90439286Y-141073295D02*
X90439286Y-141168533D01*
X90439286Y-141168533D02*
X90391667Y-141311390D01*
X90391667Y-141311390D02*
X89820239Y-141882819D01*
X89820239Y-141882819D02*
X90439286Y-141882819D01*
X91296429Y-141216152D02*
X91296429Y-141882819D01*
X90867858Y-141216152D02*
X90867858Y-141739961D01*
X90867858Y-141739961D02*
X90915477Y-141835200D01*
X90915477Y-141835200D02*
X91010715Y-141882819D01*
X91010715Y-141882819D02*
X91153572Y-141882819D01*
X91153572Y-141882819D02*
X91248810Y-141835200D01*
X91248810Y-141835200D02*
X91296429Y-141787580D01*
D13*
X51007000Y-100750000D02*
X51007000Y-90250000D01*
X53007000Y-100750000D02*
X53007000Y-90250000D01*
X59007000Y-90250000D02*
X51007000Y-90250000D01*
X59007000Y-100750000D02*
X51007000Y-100750000D01*
X59007000Y-100750000D02*
X59007000Y-90250000D01*
X61757000Y-100750000D02*
X61757000Y-90250000D01*
X63757000Y-100750000D02*
X63757000Y-90250000D01*
X69757000Y-90250000D02*
X61757000Y-90250000D01*
X69757000Y-100750000D02*
X61757000Y-100750000D01*
X69757000Y-100750000D02*
X69757000Y-90250000D01*
M02*
