M48
; DRILL file {KiCad 9.0.4} date 2025-10-25T00:51:48+0800
; FORMAT={-:-/ absolute / metric / decimal}
; #@! TF.CreationDate,2025-10-25T00:51:48+08:00
; #@! TF.GenerationSoftware,Kicad,Pcbnew,9.0.4
; #@! TF.FileFunction,NonPlated,1,2,NPTH
FMAT,2
METRIC
; #@! TA.AperFunction,NonPlated,NPTH,ComponentDrill
T1C5.000
%
G90
G05
T1
X76.2Y-57.15
X76.2Y-76.2
X78.581Y-152.4
X80.962Y-95.25
X80.962Y-114.3
X85.725Y-133.35
X95.25Y-57.15
X95.25Y-76.2
X102.394Y-152.4
X104.775Y-95.25
X104.775Y-114.3
X114.3Y-57.15
X114.3Y-76.2
X114.3Y-133.35
X123.825Y-95.25
X123.825Y-114.3
X126.206Y-152.4
X133.35Y-57.15
X133.35Y-76.2
X133.35Y-133.35
X142.875Y-95.25
X142.875Y-114.3
X152.4Y-57.15
X152.4Y-76.2
X152.4Y-133.35
X161.925Y-95.25
X161.925Y-114.3
X171.45Y-57.15
X171.45Y-76.2
X171.45Y-133.35
X180.975Y-95.25
X180.975Y-114.3
X190.5Y-57.15
X190.5Y-76.2
X190.5Y-133.35
X190.5Y-152.4
X200.025Y-95.25
X200.025Y-114.3
X209.55Y-57.15
X209.55Y-76.2
X209.55Y-133.35
X219.075Y-95.25
X219.075Y-114.3
X228.6Y-57.15
X228.6Y-76.2
X228.6Y-133.35
X238.125Y-95.25
X238.125Y-114.3
X247.65Y-57.15
X247.65Y-76.2
X247.65Y-133.35
X254.794Y-152.4
X257.175Y-95.25
X257.175Y-114.3
X266.7Y-57.15
X266.7Y-76.2
X266.7Y-133.35
X276.225Y-95.25
X276.225Y-114.3
X278.606Y-152.4
X285.75Y-57.15
X285.75Y-76.2
X285.75Y-133.35
X295.275Y-95.25
X295.275Y-114.3
X302.419Y-152.4
X304.8Y-57.15
X304.8Y-76.2
X314.325Y-95.25
X314.325Y-133.35
X323.85Y-57.15
X323.85Y-152.4
X328.613Y-114.3
X333.375Y-76.2
X338.137Y-95.25
X342.9Y-57.15
X342.9Y-133.35
X342.9Y-152.4
X361.95Y-57.15
X361.95Y-76.2
X361.95Y-95.25
X361.95Y-114.3
X361.95Y-133.35
X361.95Y-152.4
M30
